%TF.GenerationSoftware,KiCad,Pcbnew,7.0.7*%
%TF.CreationDate,2023-09-02T22:33:14+10:00*%
%TF.ProjectId,artsey,61727473-6579-42e6-9b69-6361645f7063,rev?*%
%TF.SameCoordinates,Original*%
%TF.FileFunction,Soldermask,Top*%
%TF.FilePolarity,Negative*%
%FSLAX46Y46*%
G04 Gerber Fmt 4.6, Leading zero omitted, Abs format (unit mm)*
G04 Created by KiCad (PCBNEW 7.0.7) date 2023-09-02 22:33:14*
%MOMM*%
%LPD*%
G01*
G04 APERTURE LIST*
G04 Aperture macros list*
%AMRoundRect*
0 Rectangle with rounded corners*
0 $1 Rounding radius*
0 $2 $3 $4 $5 $6 $7 $8 $9 X,Y pos of 4 corners*
0 Add a 4 corners polygon primitive as box body*
4,1,4,$2,$3,$4,$5,$6,$7,$8,$9,$2,$3,0*
0 Add four circle primitives for the rounded corners*
1,1,$1+$1,$2,$3*
1,1,$1+$1,$4,$5*
1,1,$1+$1,$6,$7*
1,1,$1+$1,$8,$9*
0 Add four rect primitives between the rounded corners*
20,1,$1+$1,$2,$3,$4,$5,0*
20,1,$1+$1,$4,$5,$6,$7,0*
20,1,$1+$1,$6,$7,$8,$9,0*
20,1,$1+$1,$8,$9,$2,$3,0*%
G04 Aperture macros list end*
%ADD10C,1.700000*%
%ADD11C,3.400000*%
%ADD12C,2.000000*%
%ADD13C,1.750000*%
%ADD14C,3.987800*%
%ADD15C,2.300000*%
%ADD16RoundRect,0.150000X-0.512500X-0.150000X0.512500X-0.150000X0.512500X0.150000X-0.512500X0.150000X0*%
%ADD17C,4.400000*%
%ADD18RoundRect,0.250000X-1.500000X0.250000X-1.500000X-0.250000X1.500000X-0.250000X1.500000X0.250000X0*%
%ADD19RoundRect,0.250001X-1.449999X0.499999X-1.449999X-0.499999X1.449999X-0.499999X1.449999X0.499999X0*%
%ADD20RoundRect,0.200000X0.275000X-0.200000X0.275000X0.200000X-0.275000X0.200000X-0.275000X-0.200000X0*%
%ADD21RoundRect,0.150000X-0.587500X-0.150000X0.587500X-0.150000X0.587500X0.150000X-0.587500X0.150000X0*%
%ADD22RoundRect,0.381000X-0.762000X-0.381000X0.762000X-0.381000X0.762000X0.381000X-0.762000X0.381000X0*%
%ADD23R,0.900000X0.800000*%
G04 APERTURE END LIST*
D10*
%TO.C,SW7*%
X67125000Y-53575000D03*
D11*
X72625000Y-53575000D03*
D10*
X78125000Y-53575000D03*
D12*
X67625000Y-57375000D03*
X77625000Y-57375000D03*
X72625000Y-59475000D03*
%TD*%
D13*
%TO.C,SW9*%
X39605000Y-34525000D03*
D14*
X34525000Y-34525000D03*
D13*
X29445000Y-34525000D03*
D15*
X38335000Y-37065000D03*
X37065000Y-39605000D03*
X31985000Y-39605000D03*
X30715000Y-37065000D03*
%TD*%
D16*
%TO.C,U3*%
X114151076Y-54173392D03*
X114151076Y-55123392D03*
X114151076Y-56073392D03*
X116426076Y-56073392D03*
X116426076Y-54173392D03*
%TD*%
D17*
%TO.C,REF\u002A\u002A*%
X116681152Y-59531200D03*
%TD*%
D13*
%TO.C,SW10*%
X58638232Y-34528096D03*
D14*
X53558232Y-34528096D03*
D13*
X48478232Y-34528096D03*
D15*
X57368232Y-37068096D03*
X56098232Y-39608096D03*
X51018232Y-39608096D03*
X49748232Y-37068096D03*
%TD*%
D13*
%TO.C,SW13*%
X29458020Y-53597928D03*
D14*
X34538020Y-53597928D03*
D13*
X39618020Y-53597928D03*
D15*
X30728020Y-51057928D03*
X31998020Y-48517928D03*
X37078020Y-48517928D03*
X38348020Y-51057928D03*
%TD*%
D10*
%TO.C,SW8*%
X86175000Y-53575000D03*
D11*
X91675000Y-53575000D03*
D10*
X97175000Y-53575000D03*
D12*
X86675000Y-57375000D03*
X96675000Y-57375000D03*
X91675000Y-59475000D03*
%TD*%
D13*
%TO.C,SW12*%
X96738200Y-34528096D03*
D14*
X91658200Y-34528096D03*
D13*
X86578200Y-34528096D03*
D15*
X95468200Y-37068096D03*
X94198200Y-39608096D03*
X89118200Y-39608096D03*
X87848200Y-37068096D03*
%TD*%
D18*
%TO.C,BT1*%
X110281548Y-56852296D03*
X110281548Y-58852296D03*
D19*
X104531548Y-54502296D03*
X104531548Y-61202296D03*
%TD*%
D13*
%TO.C,SW14*%
X48488156Y-53597928D03*
D14*
X53568156Y-53597928D03*
D13*
X58648156Y-53597928D03*
D15*
X49758156Y-51057928D03*
X51028156Y-48517928D03*
X56108156Y-48517928D03*
X57378156Y-51057928D03*
%TD*%
D10*
%TO.C,SW3*%
X78125000Y-34525000D03*
D11*
X72625000Y-34525000D03*
D10*
X67125000Y-34525000D03*
D12*
X77625000Y-30725000D03*
X67625000Y-30725000D03*
X72625000Y-28625000D03*
%TD*%
D10*
%TO.C,SW1*%
X40025000Y-34525000D03*
D11*
X34525000Y-34525000D03*
D10*
X29025000Y-34525000D03*
D12*
X39525000Y-30725000D03*
X29525000Y-30725000D03*
X34525000Y-28625000D03*
%TD*%
D13*
%TO.C,SW15*%
X67538140Y-53597928D03*
D14*
X72618140Y-53597928D03*
D13*
X77698140Y-53597928D03*
D15*
X68808140Y-51057928D03*
X70078140Y-48517928D03*
X75158140Y-48517928D03*
X76428140Y-51057928D03*
%TD*%
D13*
%TO.C,SW16*%
X86588124Y-53597928D03*
D14*
X91668124Y-53597928D03*
D13*
X96748124Y-53597928D03*
D15*
X87858124Y-51057928D03*
X89128124Y-48517928D03*
X94208124Y-48517928D03*
X95478124Y-51057928D03*
%TD*%
D20*
%TO.C,R2*%
X115044044Y-51805036D03*
X115044044Y-50155036D03*
%TD*%
%TO.C,R1*%
X118615916Y-55972220D03*
X118615916Y-54322220D03*
%TD*%
D13*
%TO.C,SW11*%
X77698140Y-34547944D03*
D14*
X72618140Y-34547944D03*
D13*
X67538140Y-34547944D03*
D15*
X76428140Y-37087944D03*
X75158140Y-39627944D03*
X70078140Y-39627944D03*
X68808140Y-37087944D03*
%TD*%
D21*
%TO.C,U4*%
X106322956Y-49949176D03*
X106322956Y-51849176D03*
X108197956Y-50899176D03*
%TD*%
D10*
%TO.C,SW2*%
X59075000Y-34525000D03*
D11*
X53575000Y-34525000D03*
D10*
X48075000Y-34525000D03*
D12*
X58575000Y-30725000D03*
X48575000Y-30725000D03*
X53575000Y-28625000D03*
%TD*%
D10*
%TO.C,SW4*%
X97175000Y-34525000D03*
D11*
X91675000Y-34525000D03*
D10*
X86175000Y-34525000D03*
D12*
X96675000Y-30725000D03*
X86675000Y-30725000D03*
X91675000Y-28625000D03*
%TD*%
D17*
%TO.C,REF\u002A\u002A*%
X82153056Y-28426148D03*
%TD*%
%TO.C,REF\u002A\u002A*%
X44053088Y-28426148D03*
%TD*%
D10*
%TO.C,SW6*%
X48075000Y-53575000D03*
D11*
X53575000Y-53575000D03*
D10*
X59075000Y-53575000D03*
D12*
X48575000Y-57375000D03*
X58575000Y-57375000D03*
X53575000Y-59475000D03*
%TD*%
D17*
%TO.C,REF\u002A\u002A*%
X82153056Y-59680028D03*
%TD*%
D22*
%TO.C,U1*%
X118318260Y-28128492D03*
X118318260Y-30668492D03*
X118318260Y-33208492D03*
X118318260Y-35748492D03*
X118318260Y-38288492D03*
X118318260Y-40828492D03*
X118318260Y-43368492D03*
X118318260Y-45908492D03*
X103078260Y-28128492D03*
X103078260Y-30668492D03*
X103078260Y-33208492D03*
X103078260Y-35748492D03*
X103078260Y-38288492D03*
X103078260Y-40828492D03*
X103078260Y-43368492D03*
X103078260Y-45908492D03*
%TD*%
D10*
%TO.C,SW5*%
X29025000Y-53575000D03*
D11*
X34525000Y-53575000D03*
D10*
X40025000Y-53575000D03*
D12*
X29525000Y-57375000D03*
X39525000Y-57375000D03*
X34525000Y-59475000D03*
%TD*%
D17*
%TO.C,REF\u002A\u002A*%
X44053088Y-59680028D03*
%TD*%
D23*
%TO.C,Q1*%
X110579204Y-50006208D03*
X110579204Y-51906208D03*
X112979204Y-50956208D03*
%TD*%
M02*
