%TF.GenerationSoftware,KiCad,Pcbnew,7.0.7*%
%TF.CreationDate,2023-09-02T22:33:10+10:00*%
%TF.ProjectId,artsey,61727473-6579-42e6-9b69-6361645f7063,rev?*%
%TF.SameCoordinates,Original*%
%TF.FileFunction,Drillmap*%
%TF.FilePolarity,Positive*%
%FSLAX45Y45*%
G04 Gerber Fmt 4.5, Leading zero omitted, Abs format (unit mm)*
G04 Created by KiCad (PCBNEW 7.0.7) date 2023-09-02 22:33:10*
%MOMM*%
%LPD*%
G01*
G04 APERTURE LIST*
%ADD10C,0.100000*%
%ADD11C,0.200000*%
%ADD12C,0.170000*%
%ADD13C,0.175000*%
%ADD14C,0.340000*%
%ADD15C,0.398780*%
G04 APERTURE END LIST*
D10*
X2800310Y-2500310D02*
G75*
G03*
X2500310Y-2800310I0J-300000D01*
G01*
X12025300Y-2800310D02*
G75*
G03*
X11725302Y-2500310I-300000J0D01*
G01*
X2500313Y-6010307D02*
G75*
G03*
X2800310Y-6310307I299997J-3D01*
G01*
X11725302Y-6310307D02*
X2800310Y-6310307D01*
X11725302Y-6310312D02*
G75*
G03*
X12025302Y-6010307I-2J300002D01*
G01*
X12025302Y-2800310D02*
X12025302Y-6010307D01*
X2800310Y-2500310D02*
X11725302Y-2500310D01*
X2500310Y-6010307D02*
X2500310Y-2800310D01*
D11*
D12*
X2817500Y-3367500D02*
X2987500Y-3537500D01*
X2987500Y-3367500D02*
X2817500Y-3537500D01*
X2817500Y-5272500D02*
X2987500Y-5442500D01*
X2987500Y-5272500D02*
X2817500Y-5442500D01*
X3917500Y-3367500D02*
X4087500Y-3537500D01*
X4087500Y-3367500D02*
X3917500Y-3537500D01*
X3917500Y-5272500D02*
X4087500Y-5442500D01*
X4087500Y-5272500D02*
X3917500Y-5442500D01*
X4722500Y-3367500D02*
X4892500Y-3537500D01*
X4892500Y-3367500D02*
X4722500Y-3537500D01*
X4722500Y-5272500D02*
X4892500Y-5442500D01*
X4892500Y-5272500D02*
X4722500Y-5442500D01*
X5822500Y-3367500D02*
X5992500Y-3537500D01*
X5992500Y-3367500D02*
X5822500Y-3537500D01*
X5822500Y-5272500D02*
X5992500Y-5442500D01*
X5992500Y-5272500D02*
X5822500Y-5442500D01*
X6627500Y-3367500D02*
X6797500Y-3537500D01*
X6797500Y-3367500D02*
X6627500Y-3537500D01*
X6627500Y-5272500D02*
X6797500Y-5442500D01*
X6797500Y-5272500D02*
X6627500Y-5442500D01*
X7727500Y-3367500D02*
X7897500Y-3537500D01*
X7897500Y-3367500D02*
X7727500Y-3537500D01*
X7727500Y-5272500D02*
X7897500Y-5442500D01*
X7897500Y-5272500D02*
X7727500Y-5442500D01*
X8532500Y-3367500D02*
X8702500Y-3537500D01*
X8702500Y-3367500D02*
X8532500Y-3537500D01*
X8532500Y-5272500D02*
X8702500Y-5442500D01*
X8702500Y-5272500D02*
X8532500Y-5442500D01*
X9632500Y-3367500D02*
X9802500Y-3537500D01*
X9802500Y-3367500D02*
X9632500Y-3537500D01*
X9632500Y-5272500D02*
X9802500Y-5442500D01*
X9802500Y-5272500D02*
X9632500Y-5442500D01*
D13*
X3032000Y-3452500D02*
G75*
G03*
X3032000Y-3452500I-87500J0D01*
G01*
X3033302Y-5359793D02*
G75*
G03*
X3033302Y-5359793I-87500J0D01*
G01*
X4048000Y-3452500D02*
G75*
G03*
X4048000Y-3452500I-87500J0D01*
G01*
X4049302Y-5359793D02*
G75*
G03*
X4049302Y-5359793I-87500J0D01*
G01*
X4935323Y-3452810D02*
G75*
G03*
X4935323Y-3452810I-87500J0D01*
G01*
X4936316Y-5359793D02*
G75*
G03*
X4936316Y-5359793I-87500J0D01*
G01*
X5951323Y-3452810D02*
G75*
G03*
X5951323Y-3452810I-87500J0D01*
G01*
X5952316Y-5359793D02*
G75*
G03*
X5952316Y-5359793I-87500J0D01*
G01*
X6841314Y-3454794D02*
G75*
G03*
X6841314Y-3454794I-87500J0D01*
G01*
X6841314Y-5359793D02*
G75*
G03*
X6841314Y-5359793I-87500J0D01*
G01*
X7857314Y-3454794D02*
G75*
G03*
X7857314Y-3454794I-87500J0D01*
G01*
X7857314Y-5359793D02*
G75*
G03*
X7857314Y-5359793I-87500J0D01*
G01*
X8745320Y-3452810D02*
G75*
G03*
X8745320Y-3452810I-87500J0D01*
G01*
X8746312Y-5359793D02*
G75*
G03*
X8746312Y-5359793I-87500J0D01*
G01*
X9761320Y-3452810D02*
G75*
G03*
X9761320Y-3452810I-87500J0D01*
G01*
X9762312Y-5359793D02*
G75*
G03*
X9762312Y-5359793I-87500J0D01*
G01*
D14*
X3452500Y-3282500D02*
X3452500Y-3622500D01*
X3282500Y-3452500D02*
X3622500Y-3452500D01*
X3452500Y-5187500D02*
X3452500Y-5527500D01*
X3282500Y-5357500D02*
X3622500Y-5357500D01*
X5357500Y-3282500D02*
X5357500Y-3622500D01*
X5187500Y-3452500D02*
X5527500Y-3452500D01*
X5357500Y-5187500D02*
X5357500Y-5527500D01*
X5187500Y-5357500D02*
X5527500Y-5357500D01*
X7262500Y-3282500D02*
X7262500Y-3622500D01*
X7092500Y-3452500D02*
X7432500Y-3452500D01*
X7262500Y-5187500D02*
X7262500Y-5527500D01*
X7092500Y-5357500D02*
X7432500Y-5357500D01*
X9167500Y-3282500D02*
X9167500Y-3622500D01*
X8997500Y-3452500D02*
X9337500Y-3452500D01*
X9167500Y-5187500D02*
X9167500Y-5527500D01*
X8997500Y-5357500D02*
X9337500Y-5357500D01*
D15*
X3593491Y-3593491D02*
X3593491Y-3311509D01*
X3311509Y-3311509D01*
X3311509Y-3593491D01*
X3593491Y-3593491D01*
X3594793Y-5500784D02*
X3594793Y-5218801D01*
X3312811Y-5218801D01*
X3312811Y-5500784D01*
X3594793Y-5500784D01*
X5496815Y-3593801D02*
X5496815Y-3311818D01*
X5214832Y-3311818D01*
X5214832Y-3593801D01*
X5496815Y-3593801D01*
X5497807Y-5500784D02*
X5497807Y-5218801D01*
X5215824Y-5218801D01*
X5215824Y-5500784D01*
X5497807Y-5500784D01*
X7402805Y-3595786D02*
X7402805Y-3313803D01*
X7120823Y-3313803D01*
X7120823Y-3595786D01*
X7402805Y-3595786D01*
X7402805Y-5500784D02*
X7402805Y-5218801D01*
X7120823Y-5218801D01*
X7120823Y-5500784D01*
X7402805Y-5500784D01*
X9306811Y-3593801D02*
X9306811Y-3311818D01*
X9024829Y-3311818D01*
X9024829Y-3593801D01*
X9306811Y-3593801D01*
X9307804Y-5500784D02*
X9307804Y-5218801D01*
X9025821Y-5218801D01*
X9025821Y-5500784D01*
X9307804Y-5500784D01*
D11*
X2756087Y-6626791D02*
X2756087Y-6426791D01*
X2756087Y-6426791D02*
X2803706Y-6426791D01*
X2803706Y-6426791D02*
X2832278Y-6436315D01*
X2832278Y-6436315D02*
X2851325Y-6455362D01*
X2851325Y-6455362D02*
X2860849Y-6474410D01*
X2860849Y-6474410D02*
X2870373Y-6512505D01*
X2870373Y-6512505D02*
X2870373Y-6541077D01*
X2870373Y-6541077D02*
X2860849Y-6579172D01*
X2860849Y-6579172D02*
X2851325Y-6598219D01*
X2851325Y-6598219D02*
X2832278Y-6617267D01*
X2832278Y-6617267D02*
X2803706Y-6626791D01*
X2803706Y-6626791D02*
X2756087Y-6626791D01*
X2956087Y-6626791D02*
X2956087Y-6493458D01*
X2956087Y-6531553D02*
X2965611Y-6512505D01*
X2965611Y-6512505D02*
X2975135Y-6502981D01*
X2975135Y-6502981D02*
X2994182Y-6493458D01*
X2994182Y-6493458D02*
X3013230Y-6493458D01*
X3079897Y-6626791D02*
X3079897Y-6493458D01*
X3079897Y-6426791D02*
X3070373Y-6436315D01*
X3070373Y-6436315D02*
X3079897Y-6445839D01*
X3079897Y-6445839D02*
X3089420Y-6436315D01*
X3089420Y-6436315D02*
X3079897Y-6426791D01*
X3079897Y-6426791D02*
X3079897Y-6445839D01*
X3203706Y-6626791D02*
X3184659Y-6617267D01*
X3184659Y-6617267D02*
X3175135Y-6598219D01*
X3175135Y-6598219D02*
X3175135Y-6426791D01*
X3308468Y-6626791D02*
X3289420Y-6617267D01*
X3289420Y-6617267D02*
X3279897Y-6598219D01*
X3279897Y-6598219D02*
X3279897Y-6426791D01*
X3537040Y-6626791D02*
X3537040Y-6426791D01*
X3537040Y-6426791D02*
X3603706Y-6569648D01*
X3603706Y-6569648D02*
X3670373Y-6426791D01*
X3670373Y-6426791D02*
X3670373Y-6626791D01*
X3851325Y-6626791D02*
X3851325Y-6522029D01*
X3851325Y-6522029D02*
X3841801Y-6502981D01*
X3841801Y-6502981D02*
X3822754Y-6493458D01*
X3822754Y-6493458D02*
X3784659Y-6493458D01*
X3784659Y-6493458D02*
X3765611Y-6502981D01*
X3851325Y-6617267D02*
X3832278Y-6626791D01*
X3832278Y-6626791D02*
X3784659Y-6626791D01*
X3784659Y-6626791D02*
X3765611Y-6617267D01*
X3765611Y-6617267D02*
X3756087Y-6598219D01*
X3756087Y-6598219D02*
X3756087Y-6579172D01*
X3756087Y-6579172D02*
X3765611Y-6560124D01*
X3765611Y-6560124D02*
X3784659Y-6550600D01*
X3784659Y-6550600D02*
X3832278Y-6550600D01*
X3832278Y-6550600D02*
X3851325Y-6541077D01*
X3946563Y-6493458D02*
X3946563Y-6693458D01*
X3946563Y-6502981D02*
X3965611Y-6493458D01*
X3965611Y-6493458D02*
X4003706Y-6493458D01*
X4003706Y-6493458D02*
X4022754Y-6502981D01*
X4022754Y-6502981D02*
X4032278Y-6512505D01*
X4032278Y-6512505D02*
X4041801Y-6531553D01*
X4041801Y-6531553D02*
X4041801Y-6588696D01*
X4041801Y-6588696D02*
X4032278Y-6607743D01*
X4032278Y-6607743D02*
X4022754Y-6617267D01*
X4022754Y-6617267D02*
X4003706Y-6626791D01*
X4003706Y-6626791D02*
X3965611Y-6626791D01*
X3965611Y-6626791D02*
X3946563Y-6617267D01*
X4127516Y-6607743D02*
X4137040Y-6617267D01*
X4137040Y-6617267D02*
X4127516Y-6626791D01*
X4127516Y-6626791D02*
X4117992Y-6617267D01*
X4117992Y-6617267D02*
X4127516Y-6607743D01*
X4127516Y-6607743D02*
X4127516Y-6626791D01*
X4127516Y-6502981D02*
X4137040Y-6512505D01*
X4137040Y-6512505D02*
X4127516Y-6522029D01*
X4127516Y-6522029D02*
X4117992Y-6512505D01*
X4117992Y-6512505D02*
X4127516Y-6502981D01*
X4127516Y-6502981D02*
X4127516Y-6522029D01*
D12*
X2325310Y-6870307D02*
X2495310Y-7040307D01*
X2495310Y-6870307D02*
X2325310Y-7040307D01*
D11*
X2860849Y-7046791D02*
X2746563Y-7046791D01*
X2803706Y-7046791D02*
X2803706Y-6846791D01*
X2803706Y-6846791D02*
X2784659Y-6875362D01*
X2784659Y-6875362D02*
X2765611Y-6894410D01*
X2765611Y-6894410D02*
X2746563Y-6903934D01*
X2946563Y-7027743D02*
X2956087Y-7037267D01*
X2956087Y-7037267D02*
X2946563Y-7046791D01*
X2946563Y-7046791D02*
X2937040Y-7037267D01*
X2937040Y-7037267D02*
X2946563Y-7027743D01*
X2946563Y-7027743D02*
X2946563Y-7046791D01*
X3022754Y-6846791D02*
X3156087Y-6846791D01*
X3156087Y-6846791D02*
X3070373Y-7046791D01*
X3270373Y-6846791D02*
X3289421Y-6846791D01*
X3289421Y-6846791D02*
X3308468Y-6856315D01*
X3308468Y-6856315D02*
X3317992Y-6865839D01*
X3317992Y-6865839D02*
X3327516Y-6884886D01*
X3327516Y-6884886D02*
X3337040Y-6922981D01*
X3337040Y-6922981D02*
X3337040Y-6970600D01*
X3337040Y-6970600D02*
X3327516Y-7008696D01*
X3327516Y-7008696D02*
X3317992Y-7027743D01*
X3317992Y-7027743D02*
X3308468Y-7037267D01*
X3308468Y-7037267D02*
X3289421Y-7046791D01*
X3289421Y-7046791D02*
X3270373Y-7046791D01*
X3270373Y-7046791D02*
X3251325Y-7037267D01*
X3251325Y-7037267D02*
X3241801Y-7027743D01*
X3241801Y-7027743D02*
X3232278Y-7008696D01*
X3232278Y-7008696D02*
X3222754Y-6970600D01*
X3222754Y-6970600D02*
X3222754Y-6922981D01*
X3222754Y-6922981D02*
X3232278Y-6884886D01*
X3232278Y-6884886D02*
X3241801Y-6865839D01*
X3241801Y-6865839D02*
X3251325Y-6856315D01*
X3251325Y-6856315D02*
X3270373Y-6846791D01*
X3460849Y-6846791D02*
X3479897Y-6846791D01*
X3479897Y-6846791D02*
X3498944Y-6856315D01*
X3498944Y-6856315D02*
X3508468Y-6865839D01*
X3508468Y-6865839D02*
X3517992Y-6884886D01*
X3517992Y-6884886D02*
X3527516Y-6922981D01*
X3527516Y-6922981D02*
X3527516Y-6970600D01*
X3527516Y-6970600D02*
X3517992Y-7008696D01*
X3517992Y-7008696D02*
X3508468Y-7027743D01*
X3508468Y-7027743D02*
X3498944Y-7037267D01*
X3498944Y-7037267D02*
X3479897Y-7046791D01*
X3479897Y-7046791D02*
X3460849Y-7046791D01*
X3460849Y-7046791D02*
X3441801Y-7037267D01*
X3441801Y-7037267D02*
X3432278Y-7027743D01*
X3432278Y-7027743D02*
X3422754Y-7008696D01*
X3422754Y-7008696D02*
X3413230Y-6970600D01*
X3413230Y-6970600D02*
X3413230Y-6922981D01*
X3413230Y-6922981D02*
X3422754Y-6884886D01*
X3422754Y-6884886D02*
X3432278Y-6865839D01*
X3432278Y-6865839D02*
X3441801Y-6856315D01*
X3441801Y-6856315D02*
X3460849Y-6846791D01*
X3613230Y-7046791D02*
X3613230Y-6913458D01*
X3613230Y-6932505D02*
X3622754Y-6922981D01*
X3622754Y-6922981D02*
X3641801Y-6913458D01*
X3641801Y-6913458D02*
X3670373Y-6913458D01*
X3670373Y-6913458D02*
X3689421Y-6922981D01*
X3689421Y-6922981D02*
X3698944Y-6942029D01*
X3698944Y-6942029D02*
X3698944Y-7046791D01*
X3698944Y-6942029D02*
X3708468Y-6922981D01*
X3708468Y-6922981D02*
X3727516Y-6913458D01*
X3727516Y-6913458D02*
X3756087Y-6913458D01*
X3756087Y-6913458D02*
X3775135Y-6922981D01*
X3775135Y-6922981D02*
X3784659Y-6942029D01*
X3784659Y-6942029D02*
X3784659Y-7046791D01*
X3879897Y-7046791D02*
X3879897Y-6913458D01*
X3879897Y-6932505D02*
X3889421Y-6922981D01*
X3889421Y-6922981D02*
X3908468Y-6913458D01*
X3908468Y-6913458D02*
X3937040Y-6913458D01*
X3937040Y-6913458D02*
X3956087Y-6922981D01*
X3956087Y-6922981D02*
X3965611Y-6942029D01*
X3965611Y-6942029D02*
X3965611Y-7046791D01*
X3965611Y-6942029D02*
X3975135Y-6922981D01*
X3975135Y-6922981D02*
X3994182Y-6913458D01*
X3994182Y-6913458D02*
X4022754Y-6913458D01*
X4022754Y-6913458D02*
X4041802Y-6922981D01*
X4041802Y-6922981D02*
X4051325Y-6942029D01*
X4051325Y-6942029D02*
X4051325Y-7046791D01*
X4441802Y-6837267D02*
X4270373Y-7094410D01*
X4698945Y-6846791D02*
X4717992Y-6846791D01*
X4717992Y-6846791D02*
X4737040Y-6856315D01*
X4737040Y-6856315D02*
X4746564Y-6865839D01*
X4746564Y-6865839D02*
X4756087Y-6884886D01*
X4756087Y-6884886D02*
X4765611Y-6922981D01*
X4765611Y-6922981D02*
X4765611Y-6970600D01*
X4765611Y-6970600D02*
X4756087Y-7008696D01*
X4756087Y-7008696D02*
X4746564Y-7027743D01*
X4746564Y-7027743D02*
X4737040Y-7037267D01*
X4737040Y-7037267D02*
X4717992Y-7046791D01*
X4717992Y-7046791D02*
X4698945Y-7046791D01*
X4698945Y-7046791D02*
X4679897Y-7037267D01*
X4679897Y-7037267D02*
X4670373Y-7027743D01*
X4670373Y-7027743D02*
X4660849Y-7008696D01*
X4660849Y-7008696D02*
X4651326Y-6970600D01*
X4651326Y-6970600D02*
X4651326Y-6922981D01*
X4651326Y-6922981D02*
X4660849Y-6884886D01*
X4660849Y-6884886D02*
X4670373Y-6865839D01*
X4670373Y-6865839D02*
X4679897Y-6856315D01*
X4679897Y-6856315D02*
X4698945Y-6846791D01*
X4851326Y-7027743D02*
X4860849Y-7037267D01*
X4860849Y-7037267D02*
X4851326Y-7046791D01*
X4851326Y-7046791D02*
X4841802Y-7037267D01*
X4841802Y-7037267D02*
X4851326Y-7027743D01*
X4851326Y-7027743D02*
X4851326Y-7046791D01*
X4984659Y-6846791D02*
X5003707Y-6846791D01*
X5003707Y-6846791D02*
X5022754Y-6856315D01*
X5022754Y-6856315D02*
X5032278Y-6865839D01*
X5032278Y-6865839D02*
X5041802Y-6884886D01*
X5041802Y-6884886D02*
X5051326Y-6922981D01*
X5051326Y-6922981D02*
X5051326Y-6970600D01*
X5051326Y-6970600D02*
X5041802Y-7008696D01*
X5041802Y-7008696D02*
X5032278Y-7027743D01*
X5032278Y-7027743D02*
X5022754Y-7037267D01*
X5022754Y-7037267D02*
X5003707Y-7046791D01*
X5003707Y-7046791D02*
X4984659Y-7046791D01*
X4984659Y-7046791D02*
X4965611Y-7037267D01*
X4965611Y-7037267D02*
X4956087Y-7027743D01*
X4956087Y-7027743D02*
X4946564Y-7008696D01*
X4946564Y-7008696D02*
X4937040Y-6970600D01*
X4937040Y-6970600D02*
X4937040Y-6922981D01*
X4937040Y-6922981D02*
X4946564Y-6884886D01*
X4946564Y-6884886D02*
X4956087Y-6865839D01*
X4956087Y-6865839D02*
X4965611Y-6856315D01*
X4965611Y-6856315D02*
X4984659Y-6846791D01*
X5222754Y-6846791D02*
X5184659Y-6846791D01*
X5184659Y-6846791D02*
X5165611Y-6856315D01*
X5165611Y-6856315D02*
X5156087Y-6865839D01*
X5156087Y-6865839D02*
X5137040Y-6894410D01*
X5137040Y-6894410D02*
X5127516Y-6932505D01*
X5127516Y-6932505D02*
X5127516Y-7008696D01*
X5127516Y-7008696D02*
X5137040Y-7027743D01*
X5137040Y-7027743D02*
X5146564Y-7037267D01*
X5146564Y-7037267D02*
X5165611Y-7046791D01*
X5165611Y-7046791D02*
X5203707Y-7046791D01*
X5203707Y-7046791D02*
X5222754Y-7037267D01*
X5222754Y-7037267D02*
X5232278Y-7027743D01*
X5232278Y-7027743D02*
X5241802Y-7008696D01*
X5241802Y-7008696D02*
X5241802Y-6961077D01*
X5241802Y-6961077D02*
X5232278Y-6942029D01*
X5232278Y-6942029D02*
X5222754Y-6932505D01*
X5222754Y-6932505D02*
X5203707Y-6922981D01*
X5203707Y-6922981D02*
X5165611Y-6922981D01*
X5165611Y-6922981D02*
X5146564Y-6932505D01*
X5146564Y-6932505D02*
X5137040Y-6942029D01*
X5137040Y-6942029D02*
X5127516Y-6961077D01*
X5413230Y-6846791D02*
X5375135Y-6846791D01*
X5375135Y-6846791D02*
X5356087Y-6856315D01*
X5356087Y-6856315D02*
X5346564Y-6865839D01*
X5346564Y-6865839D02*
X5327516Y-6894410D01*
X5327516Y-6894410D02*
X5317992Y-6932505D01*
X5317992Y-6932505D02*
X5317992Y-7008696D01*
X5317992Y-7008696D02*
X5327516Y-7027743D01*
X5327516Y-7027743D02*
X5337040Y-7037267D01*
X5337040Y-7037267D02*
X5356087Y-7046791D01*
X5356087Y-7046791D02*
X5394183Y-7046791D01*
X5394183Y-7046791D02*
X5413230Y-7037267D01*
X5413230Y-7037267D02*
X5422754Y-7027743D01*
X5422754Y-7027743D02*
X5432278Y-7008696D01*
X5432278Y-7008696D02*
X5432278Y-6961077D01*
X5432278Y-6961077D02*
X5422754Y-6942029D01*
X5422754Y-6942029D02*
X5413230Y-6932505D01*
X5413230Y-6932505D02*
X5394183Y-6922981D01*
X5394183Y-6922981D02*
X5356087Y-6922981D01*
X5356087Y-6922981D02*
X5337040Y-6932505D01*
X5337040Y-6932505D02*
X5327516Y-6942029D01*
X5327516Y-6942029D02*
X5317992Y-6961077D01*
X5527516Y-7046791D02*
X5565611Y-7046791D01*
X5565611Y-7046791D02*
X5584659Y-7037267D01*
X5584659Y-7037267D02*
X5594183Y-7027743D01*
X5594183Y-7027743D02*
X5613230Y-6999172D01*
X5613230Y-6999172D02*
X5622754Y-6961077D01*
X5622754Y-6961077D02*
X5622754Y-6884886D01*
X5622754Y-6884886D02*
X5613230Y-6865839D01*
X5613230Y-6865839D02*
X5603706Y-6856315D01*
X5603706Y-6856315D02*
X5584659Y-6846791D01*
X5584659Y-6846791D02*
X5546564Y-6846791D01*
X5546564Y-6846791D02*
X5527516Y-6856315D01*
X5527516Y-6856315D02*
X5517992Y-6865839D01*
X5517992Y-6865839D02*
X5508468Y-6884886D01*
X5508468Y-6884886D02*
X5508468Y-6932505D01*
X5508468Y-6932505D02*
X5517992Y-6951553D01*
X5517992Y-6951553D02*
X5527516Y-6961077D01*
X5527516Y-6961077D02*
X5546564Y-6970600D01*
X5546564Y-6970600D02*
X5584659Y-6970600D01*
X5584659Y-6970600D02*
X5603706Y-6961077D01*
X5603706Y-6961077D02*
X5613230Y-6951553D01*
X5613230Y-6951553D02*
X5622754Y-6932505D01*
X5698945Y-6846791D02*
X5698945Y-6884886D01*
X5775135Y-6846791D02*
X5775135Y-6884886D01*
X6070373Y-7122981D02*
X6060849Y-7113458D01*
X6060849Y-7113458D02*
X6041802Y-7084886D01*
X6041802Y-7084886D02*
X6032278Y-7065839D01*
X6032278Y-7065839D02*
X6022754Y-7037267D01*
X6022754Y-7037267D02*
X6013230Y-6989648D01*
X6013230Y-6989648D02*
X6013230Y-6951553D01*
X6013230Y-6951553D02*
X6022754Y-6903934D01*
X6022754Y-6903934D02*
X6032278Y-6875362D01*
X6032278Y-6875362D02*
X6041802Y-6856315D01*
X6041802Y-6856315D02*
X6060849Y-6827743D01*
X6060849Y-6827743D02*
X6070373Y-6818219D01*
X6251326Y-7046791D02*
X6137040Y-7046791D01*
X6194183Y-7046791D02*
X6194183Y-6846791D01*
X6194183Y-6846791D02*
X6175135Y-6875362D01*
X6175135Y-6875362D02*
X6156087Y-6894410D01*
X6156087Y-6894410D02*
X6137040Y-6903934D01*
X6422754Y-6846791D02*
X6384659Y-6846791D01*
X6384659Y-6846791D02*
X6365611Y-6856315D01*
X6365611Y-6856315D02*
X6356087Y-6865839D01*
X6356087Y-6865839D02*
X6337040Y-6894410D01*
X6337040Y-6894410D02*
X6327516Y-6932505D01*
X6327516Y-6932505D02*
X6327516Y-7008696D01*
X6327516Y-7008696D02*
X6337040Y-7027743D01*
X6337040Y-7027743D02*
X6346564Y-7037267D01*
X6346564Y-7037267D02*
X6365611Y-7046791D01*
X6365611Y-7046791D02*
X6403707Y-7046791D01*
X6403707Y-7046791D02*
X6422754Y-7037267D01*
X6422754Y-7037267D02*
X6432278Y-7027743D01*
X6432278Y-7027743D02*
X6441802Y-7008696D01*
X6441802Y-7008696D02*
X6441802Y-6961077D01*
X6441802Y-6961077D02*
X6432278Y-6942029D01*
X6432278Y-6942029D02*
X6422754Y-6932505D01*
X6422754Y-6932505D02*
X6403707Y-6922981D01*
X6403707Y-6922981D02*
X6365611Y-6922981D01*
X6365611Y-6922981D02*
X6346564Y-6932505D01*
X6346564Y-6932505D02*
X6337040Y-6942029D01*
X6337040Y-6942029D02*
X6327516Y-6961077D01*
X6679897Y-7046791D02*
X6679897Y-6846791D01*
X6765611Y-7046791D02*
X6765611Y-6942029D01*
X6765611Y-6942029D02*
X6756088Y-6922981D01*
X6756088Y-6922981D02*
X6737040Y-6913458D01*
X6737040Y-6913458D02*
X6708468Y-6913458D01*
X6708468Y-6913458D02*
X6689421Y-6922981D01*
X6689421Y-6922981D02*
X6679897Y-6932505D01*
X6889421Y-7046791D02*
X6870373Y-7037267D01*
X6870373Y-7037267D02*
X6860849Y-7027743D01*
X6860849Y-7027743D02*
X6851326Y-7008696D01*
X6851326Y-7008696D02*
X6851326Y-6951553D01*
X6851326Y-6951553D02*
X6860849Y-6932505D01*
X6860849Y-6932505D02*
X6870373Y-6922981D01*
X6870373Y-6922981D02*
X6889421Y-6913458D01*
X6889421Y-6913458D02*
X6917992Y-6913458D01*
X6917992Y-6913458D02*
X6937040Y-6922981D01*
X6937040Y-6922981D02*
X6946564Y-6932505D01*
X6946564Y-6932505D02*
X6956088Y-6951553D01*
X6956088Y-6951553D02*
X6956088Y-7008696D01*
X6956088Y-7008696D02*
X6946564Y-7027743D01*
X6946564Y-7027743D02*
X6937040Y-7037267D01*
X6937040Y-7037267D02*
X6917992Y-7046791D01*
X6917992Y-7046791D02*
X6889421Y-7046791D01*
X7070373Y-7046791D02*
X7051326Y-7037267D01*
X7051326Y-7037267D02*
X7041802Y-7018219D01*
X7041802Y-7018219D02*
X7041802Y-6846791D01*
X7222754Y-7037267D02*
X7203707Y-7046791D01*
X7203707Y-7046791D02*
X7165611Y-7046791D01*
X7165611Y-7046791D02*
X7146564Y-7037267D01*
X7146564Y-7037267D02*
X7137040Y-7018219D01*
X7137040Y-7018219D02*
X7137040Y-6942029D01*
X7137040Y-6942029D02*
X7146564Y-6922981D01*
X7146564Y-6922981D02*
X7165611Y-6913458D01*
X7165611Y-6913458D02*
X7203707Y-6913458D01*
X7203707Y-6913458D02*
X7222754Y-6922981D01*
X7222754Y-6922981D02*
X7232278Y-6942029D01*
X7232278Y-6942029D02*
X7232278Y-6961077D01*
X7232278Y-6961077D02*
X7137040Y-6980124D01*
X7308469Y-7037267D02*
X7327516Y-7046791D01*
X7327516Y-7046791D02*
X7365611Y-7046791D01*
X7365611Y-7046791D02*
X7384659Y-7037267D01*
X7384659Y-7037267D02*
X7394183Y-7018219D01*
X7394183Y-7018219D02*
X7394183Y-7008696D01*
X7394183Y-7008696D02*
X7384659Y-6989648D01*
X7384659Y-6989648D02*
X7365611Y-6980124D01*
X7365611Y-6980124D02*
X7337040Y-6980124D01*
X7337040Y-6980124D02*
X7317992Y-6970600D01*
X7317992Y-6970600D02*
X7308469Y-6951553D01*
X7308469Y-6951553D02*
X7308469Y-6942029D01*
X7308469Y-6942029D02*
X7317992Y-6922981D01*
X7317992Y-6922981D02*
X7337040Y-6913458D01*
X7337040Y-6913458D02*
X7365611Y-6913458D01*
X7365611Y-6913458D02*
X7384659Y-6922981D01*
X7460850Y-7122981D02*
X7470373Y-7113458D01*
X7470373Y-7113458D02*
X7489421Y-7084886D01*
X7489421Y-7084886D02*
X7498945Y-7065839D01*
X7498945Y-7065839D02*
X7508469Y-7037267D01*
X7508469Y-7037267D02*
X7517992Y-6989648D01*
X7517992Y-6989648D02*
X7517992Y-6951553D01*
X7517992Y-6951553D02*
X7508469Y-6903934D01*
X7508469Y-6903934D02*
X7498945Y-6875362D01*
X7498945Y-6875362D02*
X7489421Y-6856315D01*
X7489421Y-6856315D02*
X7470373Y-6827743D01*
X7470373Y-6827743D02*
X7460850Y-6818219D01*
X7822754Y-7122981D02*
X7813230Y-7113458D01*
X7813230Y-7113458D02*
X7794183Y-7084886D01*
X7794183Y-7084886D02*
X7784659Y-7065839D01*
X7784659Y-7065839D02*
X7775135Y-7037267D01*
X7775135Y-7037267D02*
X7765611Y-6989648D01*
X7765611Y-6989648D02*
X7765611Y-6951553D01*
X7765611Y-6951553D02*
X7775135Y-6903934D01*
X7775135Y-6903934D02*
X7784659Y-6875362D01*
X7784659Y-6875362D02*
X7794183Y-6856315D01*
X7794183Y-6856315D02*
X7813230Y-6827743D01*
X7813230Y-6827743D02*
X7822754Y-6818219D01*
X7898945Y-6913458D02*
X7898945Y-7046791D01*
X7898945Y-6932505D02*
X7908469Y-6922981D01*
X7908469Y-6922981D02*
X7927516Y-6913458D01*
X7927516Y-6913458D02*
X7956088Y-6913458D01*
X7956088Y-6913458D02*
X7975135Y-6922981D01*
X7975135Y-6922981D02*
X7984659Y-6942029D01*
X7984659Y-6942029D02*
X7984659Y-7046791D01*
X8108469Y-7046791D02*
X8089421Y-7037267D01*
X8089421Y-7037267D02*
X8079897Y-7027743D01*
X8079897Y-7027743D02*
X8070373Y-7008696D01*
X8070373Y-7008696D02*
X8070373Y-6951553D01*
X8070373Y-6951553D02*
X8079897Y-6932505D01*
X8079897Y-6932505D02*
X8089421Y-6922981D01*
X8089421Y-6922981D02*
X8108469Y-6913458D01*
X8108469Y-6913458D02*
X8137040Y-6913458D01*
X8137040Y-6913458D02*
X8156088Y-6922981D01*
X8156088Y-6922981D02*
X8165611Y-6932505D01*
X8165611Y-6932505D02*
X8175135Y-6951553D01*
X8175135Y-6951553D02*
X8175135Y-7008696D01*
X8175135Y-7008696D02*
X8165611Y-7027743D01*
X8165611Y-7027743D02*
X8156088Y-7037267D01*
X8156088Y-7037267D02*
X8137040Y-7046791D01*
X8137040Y-7046791D02*
X8108469Y-7046791D01*
X8232278Y-6913458D02*
X8308469Y-6913458D01*
X8260850Y-6846791D02*
X8260850Y-7018219D01*
X8260850Y-7018219D02*
X8270373Y-7037267D01*
X8270373Y-7037267D02*
X8289421Y-7046791D01*
X8289421Y-7046791D02*
X8308469Y-7046791D01*
X8527516Y-6913458D02*
X8527516Y-7113458D01*
X8527516Y-6922981D02*
X8546564Y-6913458D01*
X8546564Y-6913458D02*
X8584659Y-6913458D01*
X8584659Y-6913458D02*
X8603707Y-6922981D01*
X8603707Y-6922981D02*
X8613231Y-6932505D01*
X8613231Y-6932505D02*
X8622754Y-6951553D01*
X8622754Y-6951553D02*
X8622754Y-7008696D01*
X8622754Y-7008696D02*
X8613231Y-7027743D01*
X8613231Y-7027743D02*
X8603707Y-7037267D01*
X8603707Y-7037267D02*
X8584659Y-7046791D01*
X8584659Y-7046791D02*
X8546564Y-7046791D01*
X8546564Y-7046791D02*
X8527516Y-7037267D01*
X8737040Y-7046791D02*
X8717993Y-7037267D01*
X8717993Y-7037267D02*
X8708469Y-7018219D01*
X8708469Y-7018219D02*
X8708469Y-6846791D01*
X8898945Y-7046791D02*
X8898945Y-6942029D01*
X8898945Y-6942029D02*
X8889421Y-6922981D01*
X8889421Y-6922981D02*
X8870374Y-6913458D01*
X8870374Y-6913458D02*
X8832278Y-6913458D01*
X8832278Y-6913458D02*
X8813231Y-6922981D01*
X8898945Y-7037267D02*
X8879897Y-7046791D01*
X8879897Y-7046791D02*
X8832278Y-7046791D01*
X8832278Y-7046791D02*
X8813231Y-7037267D01*
X8813231Y-7037267D02*
X8803707Y-7018219D01*
X8803707Y-7018219D02*
X8803707Y-6999172D01*
X8803707Y-6999172D02*
X8813231Y-6980124D01*
X8813231Y-6980124D02*
X8832278Y-6970600D01*
X8832278Y-6970600D02*
X8879897Y-6970600D01*
X8879897Y-6970600D02*
X8898945Y-6961077D01*
X8965612Y-6913458D02*
X9041802Y-6913458D01*
X8994183Y-6846791D02*
X8994183Y-7018219D01*
X8994183Y-7018219D02*
X9003707Y-7037267D01*
X9003707Y-7037267D02*
X9022754Y-7046791D01*
X9022754Y-7046791D02*
X9041802Y-7046791D01*
X9184659Y-7037267D02*
X9165612Y-7046791D01*
X9165612Y-7046791D02*
X9127516Y-7046791D01*
X9127516Y-7046791D02*
X9108469Y-7037267D01*
X9108469Y-7037267D02*
X9098945Y-7018219D01*
X9098945Y-7018219D02*
X9098945Y-6942029D01*
X9098945Y-6942029D02*
X9108469Y-6922981D01*
X9108469Y-6922981D02*
X9127516Y-6913458D01*
X9127516Y-6913458D02*
X9165612Y-6913458D01*
X9165612Y-6913458D02*
X9184659Y-6922981D01*
X9184659Y-6922981D02*
X9194183Y-6942029D01*
X9194183Y-6942029D02*
X9194183Y-6961077D01*
X9194183Y-6961077D02*
X9098945Y-6980124D01*
X9365612Y-7046791D02*
X9365612Y-6846791D01*
X9365612Y-7037267D02*
X9346564Y-7046791D01*
X9346564Y-7046791D02*
X9308469Y-7046791D01*
X9308469Y-7046791D02*
X9289421Y-7037267D01*
X9289421Y-7037267D02*
X9279897Y-7027743D01*
X9279897Y-7027743D02*
X9270374Y-7008696D01*
X9270374Y-7008696D02*
X9270374Y-6951553D01*
X9270374Y-6951553D02*
X9279897Y-6932505D01*
X9279897Y-6932505D02*
X9289421Y-6922981D01*
X9289421Y-6922981D02*
X9308469Y-6913458D01*
X9308469Y-6913458D02*
X9346564Y-6913458D01*
X9346564Y-6913458D02*
X9365612Y-6922981D01*
X9441802Y-7122981D02*
X9451326Y-7113458D01*
X9451326Y-7113458D02*
X9470374Y-7084886D01*
X9470374Y-7084886D02*
X9479897Y-7065839D01*
X9479897Y-7065839D02*
X9489421Y-7037267D01*
X9489421Y-7037267D02*
X9498945Y-6989648D01*
X9498945Y-6989648D02*
X9498945Y-6951553D01*
X9498945Y-6951553D02*
X9489421Y-6903934D01*
X9489421Y-6903934D02*
X9479897Y-6875362D01*
X9479897Y-6875362D02*
X9470374Y-6856315D01*
X9470374Y-6856315D02*
X9451326Y-6827743D01*
X9451326Y-6827743D02*
X9441802Y-6818219D01*
D13*
X2495310Y-7245307D02*
G75*
G03*
X2495310Y-7245307I-87500J0D01*
G01*
D11*
X2860849Y-7336791D02*
X2746563Y-7336791D01*
X2803706Y-7336791D02*
X2803706Y-7136791D01*
X2803706Y-7136791D02*
X2784659Y-7165362D01*
X2784659Y-7165362D02*
X2765611Y-7184410D01*
X2765611Y-7184410D02*
X2746563Y-7193934D01*
X2946563Y-7317743D02*
X2956087Y-7327267D01*
X2956087Y-7327267D02*
X2946563Y-7336791D01*
X2946563Y-7336791D02*
X2937040Y-7327267D01*
X2937040Y-7327267D02*
X2946563Y-7317743D01*
X2946563Y-7317743D02*
X2946563Y-7336791D01*
X3022754Y-7136791D02*
X3156087Y-7136791D01*
X3156087Y-7136791D02*
X3070373Y-7336791D01*
X3327516Y-7136791D02*
X3232278Y-7136791D01*
X3232278Y-7136791D02*
X3222754Y-7232029D01*
X3222754Y-7232029D02*
X3232278Y-7222505D01*
X3232278Y-7222505D02*
X3251325Y-7212981D01*
X3251325Y-7212981D02*
X3298944Y-7212981D01*
X3298944Y-7212981D02*
X3317992Y-7222505D01*
X3317992Y-7222505D02*
X3327516Y-7232029D01*
X3327516Y-7232029D02*
X3337040Y-7251077D01*
X3337040Y-7251077D02*
X3337040Y-7298696D01*
X3337040Y-7298696D02*
X3327516Y-7317743D01*
X3327516Y-7317743D02*
X3317992Y-7327267D01*
X3317992Y-7327267D02*
X3298944Y-7336791D01*
X3298944Y-7336791D02*
X3251325Y-7336791D01*
X3251325Y-7336791D02*
X3232278Y-7327267D01*
X3232278Y-7327267D02*
X3222754Y-7317743D01*
X3460849Y-7136791D02*
X3479897Y-7136791D01*
X3479897Y-7136791D02*
X3498944Y-7146315D01*
X3498944Y-7146315D02*
X3508468Y-7155839D01*
X3508468Y-7155839D02*
X3517992Y-7174886D01*
X3517992Y-7174886D02*
X3527516Y-7212981D01*
X3527516Y-7212981D02*
X3527516Y-7260600D01*
X3527516Y-7260600D02*
X3517992Y-7298696D01*
X3517992Y-7298696D02*
X3508468Y-7317743D01*
X3508468Y-7317743D02*
X3498944Y-7327267D01*
X3498944Y-7327267D02*
X3479897Y-7336791D01*
X3479897Y-7336791D02*
X3460849Y-7336791D01*
X3460849Y-7336791D02*
X3441801Y-7327267D01*
X3441801Y-7327267D02*
X3432278Y-7317743D01*
X3432278Y-7317743D02*
X3422754Y-7298696D01*
X3422754Y-7298696D02*
X3413230Y-7260600D01*
X3413230Y-7260600D02*
X3413230Y-7212981D01*
X3413230Y-7212981D02*
X3422754Y-7174886D01*
X3422754Y-7174886D02*
X3432278Y-7155839D01*
X3432278Y-7155839D02*
X3441801Y-7146315D01*
X3441801Y-7146315D02*
X3460849Y-7136791D01*
X3613230Y-7336791D02*
X3613230Y-7203458D01*
X3613230Y-7222505D02*
X3622754Y-7212981D01*
X3622754Y-7212981D02*
X3641801Y-7203458D01*
X3641801Y-7203458D02*
X3670373Y-7203458D01*
X3670373Y-7203458D02*
X3689421Y-7212981D01*
X3689421Y-7212981D02*
X3698944Y-7232029D01*
X3698944Y-7232029D02*
X3698944Y-7336791D01*
X3698944Y-7232029D02*
X3708468Y-7212981D01*
X3708468Y-7212981D02*
X3727516Y-7203458D01*
X3727516Y-7203458D02*
X3756087Y-7203458D01*
X3756087Y-7203458D02*
X3775135Y-7212981D01*
X3775135Y-7212981D02*
X3784659Y-7232029D01*
X3784659Y-7232029D02*
X3784659Y-7336791D01*
X3879897Y-7336791D02*
X3879897Y-7203458D01*
X3879897Y-7222505D02*
X3889421Y-7212981D01*
X3889421Y-7212981D02*
X3908468Y-7203458D01*
X3908468Y-7203458D02*
X3937040Y-7203458D01*
X3937040Y-7203458D02*
X3956087Y-7212981D01*
X3956087Y-7212981D02*
X3965611Y-7232029D01*
X3965611Y-7232029D02*
X3965611Y-7336791D01*
X3965611Y-7232029D02*
X3975135Y-7212981D01*
X3975135Y-7212981D02*
X3994182Y-7203458D01*
X3994182Y-7203458D02*
X4022754Y-7203458D01*
X4022754Y-7203458D02*
X4041802Y-7212981D01*
X4041802Y-7212981D02*
X4051325Y-7232029D01*
X4051325Y-7232029D02*
X4051325Y-7336791D01*
X4441802Y-7127267D02*
X4270373Y-7384410D01*
X4698945Y-7136791D02*
X4717992Y-7136791D01*
X4717992Y-7136791D02*
X4737040Y-7146315D01*
X4737040Y-7146315D02*
X4746564Y-7155839D01*
X4746564Y-7155839D02*
X4756087Y-7174886D01*
X4756087Y-7174886D02*
X4765611Y-7212981D01*
X4765611Y-7212981D02*
X4765611Y-7260600D01*
X4765611Y-7260600D02*
X4756087Y-7298696D01*
X4756087Y-7298696D02*
X4746564Y-7317743D01*
X4746564Y-7317743D02*
X4737040Y-7327267D01*
X4737040Y-7327267D02*
X4717992Y-7336791D01*
X4717992Y-7336791D02*
X4698945Y-7336791D01*
X4698945Y-7336791D02*
X4679897Y-7327267D01*
X4679897Y-7327267D02*
X4670373Y-7317743D01*
X4670373Y-7317743D02*
X4660849Y-7298696D01*
X4660849Y-7298696D02*
X4651326Y-7260600D01*
X4651326Y-7260600D02*
X4651326Y-7212981D01*
X4651326Y-7212981D02*
X4660849Y-7174886D01*
X4660849Y-7174886D02*
X4670373Y-7155839D01*
X4670373Y-7155839D02*
X4679897Y-7146315D01*
X4679897Y-7146315D02*
X4698945Y-7136791D01*
X4851326Y-7317743D02*
X4860849Y-7327267D01*
X4860849Y-7327267D02*
X4851326Y-7336791D01*
X4851326Y-7336791D02*
X4841802Y-7327267D01*
X4841802Y-7327267D02*
X4851326Y-7317743D01*
X4851326Y-7317743D02*
X4851326Y-7336791D01*
X4984659Y-7136791D02*
X5003707Y-7136791D01*
X5003707Y-7136791D02*
X5022754Y-7146315D01*
X5022754Y-7146315D02*
X5032278Y-7155839D01*
X5032278Y-7155839D02*
X5041802Y-7174886D01*
X5041802Y-7174886D02*
X5051326Y-7212981D01*
X5051326Y-7212981D02*
X5051326Y-7260600D01*
X5051326Y-7260600D02*
X5041802Y-7298696D01*
X5041802Y-7298696D02*
X5032278Y-7317743D01*
X5032278Y-7317743D02*
X5022754Y-7327267D01*
X5022754Y-7327267D02*
X5003707Y-7336791D01*
X5003707Y-7336791D02*
X4984659Y-7336791D01*
X4984659Y-7336791D02*
X4965611Y-7327267D01*
X4965611Y-7327267D02*
X4956087Y-7317743D01*
X4956087Y-7317743D02*
X4946564Y-7298696D01*
X4946564Y-7298696D02*
X4937040Y-7260600D01*
X4937040Y-7260600D02*
X4937040Y-7212981D01*
X4937040Y-7212981D02*
X4946564Y-7174886D01*
X4946564Y-7174886D02*
X4956087Y-7155839D01*
X4956087Y-7155839D02*
X4965611Y-7146315D01*
X4965611Y-7146315D02*
X4984659Y-7136791D01*
X5222754Y-7136791D02*
X5184659Y-7136791D01*
X5184659Y-7136791D02*
X5165611Y-7146315D01*
X5165611Y-7146315D02*
X5156087Y-7155839D01*
X5156087Y-7155839D02*
X5137040Y-7184410D01*
X5137040Y-7184410D02*
X5127516Y-7222505D01*
X5127516Y-7222505D02*
X5127516Y-7298696D01*
X5127516Y-7298696D02*
X5137040Y-7317743D01*
X5137040Y-7317743D02*
X5146564Y-7327267D01*
X5146564Y-7327267D02*
X5165611Y-7336791D01*
X5165611Y-7336791D02*
X5203707Y-7336791D01*
X5203707Y-7336791D02*
X5222754Y-7327267D01*
X5222754Y-7327267D02*
X5232278Y-7317743D01*
X5232278Y-7317743D02*
X5241802Y-7298696D01*
X5241802Y-7298696D02*
X5241802Y-7251077D01*
X5241802Y-7251077D02*
X5232278Y-7232029D01*
X5232278Y-7232029D02*
X5222754Y-7222505D01*
X5222754Y-7222505D02*
X5203707Y-7212981D01*
X5203707Y-7212981D02*
X5165611Y-7212981D01*
X5165611Y-7212981D02*
X5146564Y-7222505D01*
X5146564Y-7222505D02*
X5137040Y-7232029D01*
X5137040Y-7232029D02*
X5127516Y-7251077D01*
X5356087Y-7222505D02*
X5337040Y-7212981D01*
X5337040Y-7212981D02*
X5327516Y-7203458D01*
X5327516Y-7203458D02*
X5317992Y-7184410D01*
X5317992Y-7184410D02*
X5317992Y-7174886D01*
X5317992Y-7174886D02*
X5327516Y-7155839D01*
X5327516Y-7155839D02*
X5337040Y-7146315D01*
X5337040Y-7146315D02*
X5356087Y-7136791D01*
X5356087Y-7136791D02*
X5394183Y-7136791D01*
X5394183Y-7136791D02*
X5413230Y-7146315D01*
X5413230Y-7146315D02*
X5422754Y-7155839D01*
X5422754Y-7155839D02*
X5432278Y-7174886D01*
X5432278Y-7174886D02*
X5432278Y-7184410D01*
X5432278Y-7184410D02*
X5422754Y-7203458D01*
X5422754Y-7203458D02*
X5413230Y-7212981D01*
X5413230Y-7212981D02*
X5394183Y-7222505D01*
X5394183Y-7222505D02*
X5356087Y-7222505D01*
X5356087Y-7222505D02*
X5337040Y-7232029D01*
X5337040Y-7232029D02*
X5327516Y-7241553D01*
X5327516Y-7241553D02*
X5317992Y-7260600D01*
X5317992Y-7260600D02*
X5317992Y-7298696D01*
X5317992Y-7298696D02*
X5327516Y-7317743D01*
X5327516Y-7317743D02*
X5337040Y-7327267D01*
X5337040Y-7327267D02*
X5356087Y-7336791D01*
X5356087Y-7336791D02*
X5394183Y-7336791D01*
X5394183Y-7336791D02*
X5413230Y-7327267D01*
X5413230Y-7327267D02*
X5422754Y-7317743D01*
X5422754Y-7317743D02*
X5432278Y-7298696D01*
X5432278Y-7298696D02*
X5432278Y-7260600D01*
X5432278Y-7260600D02*
X5422754Y-7241553D01*
X5422754Y-7241553D02*
X5413230Y-7232029D01*
X5413230Y-7232029D02*
X5394183Y-7222505D01*
X5527516Y-7336791D02*
X5565611Y-7336791D01*
X5565611Y-7336791D02*
X5584659Y-7327267D01*
X5584659Y-7327267D02*
X5594183Y-7317743D01*
X5594183Y-7317743D02*
X5613230Y-7289172D01*
X5613230Y-7289172D02*
X5622754Y-7251077D01*
X5622754Y-7251077D02*
X5622754Y-7174886D01*
X5622754Y-7174886D02*
X5613230Y-7155839D01*
X5613230Y-7155839D02*
X5603706Y-7146315D01*
X5603706Y-7146315D02*
X5584659Y-7136791D01*
X5584659Y-7136791D02*
X5546564Y-7136791D01*
X5546564Y-7136791D02*
X5527516Y-7146315D01*
X5527516Y-7146315D02*
X5517992Y-7155839D01*
X5517992Y-7155839D02*
X5508468Y-7174886D01*
X5508468Y-7174886D02*
X5508468Y-7222505D01*
X5508468Y-7222505D02*
X5517992Y-7241553D01*
X5517992Y-7241553D02*
X5527516Y-7251077D01*
X5527516Y-7251077D02*
X5546564Y-7260600D01*
X5546564Y-7260600D02*
X5584659Y-7260600D01*
X5584659Y-7260600D02*
X5603706Y-7251077D01*
X5603706Y-7251077D02*
X5613230Y-7241553D01*
X5613230Y-7241553D02*
X5622754Y-7222505D01*
X5698945Y-7136791D02*
X5698945Y-7174886D01*
X5775135Y-7136791D02*
X5775135Y-7174886D01*
X6070373Y-7412981D02*
X6060849Y-7403458D01*
X6060849Y-7403458D02*
X6041802Y-7374886D01*
X6041802Y-7374886D02*
X6032278Y-7355839D01*
X6032278Y-7355839D02*
X6022754Y-7327267D01*
X6022754Y-7327267D02*
X6013230Y-7279648D01*
X6013230Y-7279648D02*
X6013230Y-7241553D01*
X6013230Y-7241553D02*
X6022754Y-7193934D01*
X6022754Y-7193934D02*
X6032278Y-7165362D01*
X6032278Y-7165362D02*
X6041802Y-7146315D01*
X6041802Y-7146315D02*
X6060849Y-7117743D01*
X6060849Y-7117743D02*
X6070373Y-7108219D01*
X6251326Y-7336791D02*
X6137040Y-7336791D01*
X6194183Y-7336791D02*
X6194183Y-7136791D01*
X6194183Y-7136791D02*
X6175135Y-7165362D01*
X6175135Y-7165362D02*
X6156087Y-7184410D01*
X6156087Y-7184410D02*
X6137040Y-7193934D01*
X6422754Y-7136791D02*
X6384659Y-7136791D01*
X6384659Y-7136791D02*
X6365611Y-7146315D01*
X6365611Y-7146315D02*
X6356087Y-7155839D01*
X6356087Y-7155839D02*
X6337040Y-7184410D01*
X6337040Y-7184410D02*
X6327516Y-7222505D01*
X6327516Y-7222505D02*
X6327516Y-7298696D01*
X6327516Y-7298696D02*
X6337040Y-7317743D01*
X6337040Y-7317743D02*
X6346564Y-7327267D01*
X6346564Y-7327267D02*
X6365611Y-7336791D01*
X6365611Y-7336791D02*
X6403707Y-7336791D01*
X6403707Y-7336791D02*
X6422754Y-7327267D01*
X6422754Y-7327267D02*
X6432278Y-7317743D01*
X6432278Y-7317743D02*
X6441802Y-7298696D01*
X6441802Y-7298696D02*
X6441802Y-7251077D01*
X6441802Y-7251077D02*
X6432278Y-7232029D01*
X6432278Y-7232029D02*
X6422754Y-7222505D01*
X6422754Y-7222505D02*
X6403707Y-7212981D01*
X6403707Y-7212981D02*
X6365611Y-7212981D01*
X6365611Y-7212981D02*
X6346564Y-7222505D01*
X6346564Y-7222505D02*
X6337040Y-7232029D01*
X6337040Y-7232029D02*
X6327516Y-7251077D01*
X6679897Y-7336791D02*
X6679897Y-7136791D01*
X6765611Y-7336791D02*
X6765611Y-7232029D01*
X6765611Y-7232029D02*
X6756088Y-7212981D01*
X6756088Y-7212981D02*
X6737040Y-7203458D01*
X6737040Y-7203458D02*
X6708468Y-7203458D01*
X6708468Y-7203458D02*
X6689421Y-7212981D01*
X6689421Y-7212981D02*
X6679897Y-7222505D01*
X6889421Y-7336791D02*
X6870373Y-7327267D01*
X6870373Y-7327267D02*
X6860849Y-7317743D01*
X6860849Y-7317743D02*
X6851326Y-7298696D01*
X6851326Y-7298696D02*
X6851326Y-7241553D01*
X6851326Y-7241553D02*
X6860849Y-7222505D01*
X6860849Y-7222505D02*
X6870373Y-7212981D01*
X6870373Y-7212981D02*
X6889421Y-7203458D01*
X6889421Y-7203458D02*
X6917992Y-7203458D01*
X6917992Y-7203458D02*
X6937040Y-7212981D01*
X6937040Y-7212981D02*
X6946564Y-7222505D01*
X6946564Y-7222505D02*
X6956088Y-7241553D01*
X6956088Y-7241553D02*
X6956088Y-7298696D01*
X6956088Y-7298696D02*
X6946564Y-7317743D01*
X6946564Y-7317743D02*
X6937040Y-7327267D01*
X6937040Y-7327267D02*
X6917992Y-7336791D01*
X6917992Y-7336791D02*
X6889421Y-7336791D01*
X7070373Y-7336791D02*
X7051326Y-7327267D01*
X7051326Y-7327267D02*
X7041802Y-7308219D01*
X7041802Y-7308219D02*
X7041802Y-7136791D01*
X7222754Y-7327267D02*
X7203707Y-7336791D01*
X7203707Y-7336791D02*
X7165611Y-7336791D01*
X7165611Y-7336791D02*
X7146564Y-7327267D01*
X7146564Y-7327267D02*
X7137040Y-7308219D01*
X7137040Y-7308219D02*
X7137040Y-7232029D01*
X7137040Y-7232029D02*
X7146564Y-7212981D01*
X7146564Y-7212981D02*
X7165611Y-7203458D01*
X7165611Y-7203458D02*
X7203707Y-7203458D01*
X7203707Y-7203458D02*
X7222754Y-7212981D01*
X7222754Y-7212981D02*
X7232278Y-7232029D01*
X7232278Y-7232029D02*
X7232278Y-7251077D01*
X7232278Y-7251077D02*
X7137040Y-7270124D01*
X7308469Y-7327267D02*
X7327516Y-7336791D01*
X7327516Y-7336791D02*
X7365611Y-7336791D01*
X7365611Y-7336791D02*
X7384659Y-7327267D01*
X7384659Y-7327267D02*
X7394183Y-7308219D01*
X7394183Y-7308219D02*
X7394183Y-7298696D01*
X7394183Y-7298696D02*
X7384659Y-7279648D01*
X7384659Y-7279648D02*
X7365611Y-7270124D01*
X7365611Y-7270124D02*
X7337040Y-7270124D01*
X7337040Y-7270124D02*
X7317992Y-7260600D01*
X7317992Y-7260600D02*
X7308469Y-7241553D01*
X7308469Y-7241553D02*
X7308469Y-7232029D01*
X7308469Y-7232029D02*
X7317992Y-7212981D01*
X7317992Y-7212981D02*
X7337040Y-7203458D01*
X7337040Y-7203458D02*
X7365611Y-7203458D01*
X7365611Y-7203458D02*
X7384659Y-7212981D01*
X7460850Y-7412981D02*
X7470373Y-7403458D01*
X7470373Y-7403458D02*
X7489421Y-7374886D01*
X7489421Y-7374886D02*
X7498945Y-7355839D01*
X7498945Y-7355839D02*
X7508469Y-7327267D01*
X7508469Y-7327267D02*
X7517992Y-7279648D01*
X7517992Y-7279648D02*
X7517992Y-7241553D01*
X7517992Y-7241553D02*
X7508469Y-7193934D01*
X7508469Y-7193934D02*
X7498945Y-7165362D01*
X7498945Y-7165362D02*
X7489421Y-7146315D01*
X7489421Y-7146315D02*
X7470373Y-7117743D01*
X7470373Y-7117743D02*
X7460850Y-7108219D01*
X7822754Y-7412981D02*
X7813230Y-7403458D01*
X7813230Y-7403458D02*
X7794183Y-7374886D01*
X7794183Y-7374886D02*
X7784659Y-7355839D01*
X7784659Y-7355839D02*
X7775135Y-7327267D01*
X7775135Y-7327267D02*
X7765611Y-7279648D01*
X7765611Y-7279648D02*
X7765611Y-7241553D01*
X7765611Y-7241553D02*
X7775135Y-7193934D01*
X7775135Y-7193934D02*
X7784659Y-7165362D01*
X7784659Y-7165362D02*
X7794183Y-7146315D01*
X7794183Y-7146315D02*
X7813230Y-7117743D01*
X7813230Y-7117743D02*
X7822754Y-7108219D01*
X7898945Y-7203458D02*
X7898945Y-7336791D01*
X7898945Y-7222505D02*
X7908469Y-7212981D01*
X7908469Y-7212981D02*
X7927516Y-7203458D01*
X7927516Y-7203458D02*
X7956088Y-7203458D01*
X7956088Y-7203458D02*
X7975135Y-7212981D01*
X7975135Y-7212981D02*
X7984659Y-7232029D01*
X7984659Y-7232029D02*
X7984659Y-7336791D01*
X8108469Y-7336791D02*
X8089421Y-7327267D01*
X8089421Y-7327267D02*
X8079897Y-7317743D01*
X8079897Y-7317743D02*
X8070373Y-7298696D01*
X8070373Y-7298696D02*
X8070373Y-7241553D01*
X8070373Y-7241553D02*
X8079897Y-7222505D01*
X8079897Y-7222505D02*
X8089421Y-7212981D01*
X8089421Y-7212981D02*
X8108469Y-7203458D01*
X8108469Y-7203458D02*
X8137040Y-7203458D01*
X8137040Y-7203458D02*
X8156088Y-7212981D01*
X8156088Y-7212981D02*
X8165611Y-7222505D01*
X8165611Y-7222505D02*
X8175135Y-7241553D01*
X8175135Y-7241553D02*
X8175135Y-7298696D01*
X8175135Y-7298696D02*
X8165611Y-7317743D01*
X8165611Y-7317743D02*
X8156088Y-7327267D01*
X8156088Y-7327267D02*
X8137040Y-7336791D01*
X8137040Y-7336791D02*
X8108469Y-7336791D01*
X8232278Y-7203458D02*
X8308469Y-7203458D01*
X8260850Y-7136791D02*
X8260850Y-7308219D01*
X8260850Y-7308219D02*
X8270373Y-7327267D01*
X8270373Y-7327267D02*
X8289421Y-7336791D01*
X8289421Y-7336791D02*
X8308469Y-7336791D01*
X8527516Y-7203458D02*
X8527516Y-7403458D01*
X8527516Y-7212981D02*
X8546564Y-7203458D01*
X8546564Y-7203458D02*
X8584659Y-7203458D01*
X8584659Y-7203458D02*
X8603707Y-7212981D01*
X8603707Y-7212981D02*
X8613231Y-7222505D01*
X8613231Y-7222505D02*
X8622754Y-7241553D01*
X8622754Y-7241553D02*
X8622754Y-7298696D01*
X8622754Y-7298696D02*
X8613231Y-7317743D01*
X8613231Y-7317743D02*
X8603707Y-7327267D01*
X8603707Y-7327267D02*
X8584659Y-7336791D01*
X8584659Y-7336791D02*
X8546564Y-7336791D01*
X8546564Y-7336791D02*
X8527516Y-7327267D01*
X8737040Y-7336791D02*
X8717993Y-7327267D01*
X8717993Y-7327267D02*
X8708469Y-7308219D01*
X8708469Y-7308219D02*
X8708469Y-7136791D01*
X8898945Y-7336791D02*
X8898945Y-7232029D01*
X8898945Y-7232029D02*
X8889421Y-7212981D01*
X8889421Y-7212981D02*
X8870374Y-7203458D01*
X8870374Y-7203458D02*
X8832278Y-7203458D01*
X8832278Y-7203458D02*
X8813231Y-7212981D01*
X8898945Y-7327267D02*
X8879897Y-7336791D01*
X8879897Y-7336791D02*
X8832278Y-7336791D01*
X8832278Y-7336791D02*
X8813231Y-7327267D01*
X8813231Y-7327267D02*
X8803707Y-7308219D01*
X8803707Y-7308219D02*
X8803707Y-7289172D01*
X8803707Y-7289172D02*
X8813231Y-7270124D01*
X8813231Y-7270124D02*
X8832278Y-7260600D01*
X8832278Y-7260600D02*
X8879897Y-7260600D01*
X8879897Y-7260600D02*
X8898945Y-7251077D01*
X8965612Y-7203458D02*
X9041802Y-7203458D01*
X8994183Y-7136791D02*
X8994183Y-7308219D01*
X8994183Y-7308219D02*
X9003707Y-7327267D01*
X9003707Y-7327267D02*
X9022754Y-7336791D01*
X9022754Y-7336791D02*
X9041802Y-7336791D01*
X9184659Y-7327267D02*
X9165612Y-7336791D01*
X9165612Y-7336791D02*
X9127516Y-7336791D01*
X9127516Y-7336791D02*
X9108469Y-7327267D01*
X9108469Y-7327267D02*
X9098945Y-7308219D01*
X9098945Y-7308219D02*
X9098945Y-7232029D01*
X9098945Y-7232029D02*
X9108469Y-7212981D01*
X9108469Y-7212981D02*
X9127516Y-7203458D01*
X9127516Y-7203458D02*
X9165612Y-7203458D01*
X9165612Y-7203458D02*
X9184659Y-7212981D01*
X9184659Y-7212981D02*
X9194183Y-7232029D01*
X9194183Y-7232029D02*
X9194183Y-7251077D01*
X9194183Y-7251077D02*
X9098945Y-7270124D01*
X9365612Y-7336791D02*
X9365612Y-7136791D01*
X9365612Y-7327267D02*
X9346564Y-7336791D01*
X9346564Y-7336791D02*
X9308469Y-7336791D01*
X9308469Y-7336791D02*
X9289421Y-7327267D01*
X9289421Y-7327267D02*
X9279897Y-7317743D01*
X9279897Y-7317743D02*
X9270374Y-7298696D01*
X9270374Y-7298696D02*
X9270374Y-7241553D01*
X9270374Y-7241553D02*
X9279897Y-7222505D01*
X9279897Y-7222505D02*
X9289421Y-7212981D01*
X9289421Y-7212981D02*
X9308469Y-7203458D01*
X9308469Y-7203458D02*
X9346564Y-7203458D01*
X9346564Y-7203458D02*
X9365612Y-7212981D01*
X9441802Y-7412981D02*
X9451326Y-7403458D01*
X9451326Y-7403458D02*
X9470374Y-7374886D01*
X9470374Y-7374886D02*
X9479897Y-7355839D01*
X9479897Y-7355839D02*
X9489421Y-7327267D01*
X9489421Y-7327267D02*
X9498945Y-7279648D01*
X9498945Y-7279648D02*
X9498945Y-7241553D01*
X9498945Y-7241553D02*
X9489421Y-7193934D01*
X9489421Y-7193934D02*
X9479897Y-7165362D01*
X9479897Y-7165362D02*
X9470374Y-7146315D01*
X9470374Y-7146315D02*
X9451326Y-7117743D01*
X9451326Y-7117743D02*
X9441802Y-7108219D01*
X2395310Y-7440307D02*
X2395310Y-7640307D01*
X2295310Y-7540307D02*
X2495310Y-7540307D01*
X2737040Y-7431791D02*
X2860849Y-7431791D01*
X2860849Y-7431791D02*
X2794182Y-7507981D01*
X2794182Y-7507981D02*
X2822754Y-7507981D01*
X2822754Y-7507981D02*
X2841801Y-7517505D01*
X2841801Y-7517505D02*
X2851325Y-7527029D01*
X2851325Y-7527029D02*
X2860849Y-7546077D01*
X2860849Y-7546077D02*
X2860849Y-7593696D01*
X2860849Y-7593696D02*
X2851325Y-7612743D01*
X2851325Y-7612743D02*
X2841801Y-7622267D01*
X2841801Y-7622267D02*
X2822754Y-7631791D01*
X2822754Y-7631791D02*
X2765611Y-7631791D01*
X2765611Y-7631791D02*
X2746563Y-7622267D01*
X2746563Y-7622267D02*
X2737040Y-7612743D01*
X2946563Y-7612743D02*
X2956087Y-7622267D01*
X2956087Y-7622267D02*
X2946563Y-7631791D01*
X2946563Y-7631791D02*
X2937040Y-7622267D01*
X2937040Y-7622267D02*
X2946563Y-7612743D01*
X2946563Y-7612743D02*
X2946563Y-7631791D01*
X3127516Y-7498458D02*
X3127516Y-7631791D01*
X3079897Y-7422267D02*
X3032278Y-7565124D01*
X3032278Y-7565124D02*
X3156087Y-7565124D01*
X3270373Y-7431791D02*
X3289421Y-7431791D01*
X3289421Y-7431791D02*
X3308468Y-7441315D01*
X3308468Y-7441315D02*
X3317992Y-7450839D01*
X3317992Y-7450839D02*
X3327516Y-7469886D01*
X3327516Y-7469886D02*
X3337040Y-7507981D01*
X3337040Y-7507981D02*
X3337040Y-7555600D01*
X3337040Y-7555600D02*
X3327516Y-7593696D01*
X3327516Y-7593696D02*
X3317992Y-7612743D01*
X3317992Y-7612743D02*
X3308468Y-7622267D01*
X3308468Y-7622267D02*
X3289421Y-7631791D01*
X3289421Y-7631791D02*
X3270373Y-7631791D01*
X3270373Y-7631791D02*
X3251325Y-7622267D01*
X3251325Y-7622267D02*
X3241801Y-7612743D01*
X3241801Y-7612743D02*
X3232278Y-7593696D01*
X3232278Y-7593696D02*
X3222754Y-7555600D01*
X3222754Y-7555600D02*
X3222754Y-7507981D01*
X3222754Y-7507981D02*
X3232278Y-7469886D01*
X3232278Y-7469886D02*
X3241801Y-7450839D01*
X3241801Y-7450839D02*
X3251325Y-7441315D01*
X3251325Y-7441315D02*
X3270373Y-7431791D01*
X3460849Y-7431791D02*
X3479897Y-7431791D01*
X3479897Y-7431791D02*
X3498944Y-7441315D01*
X3498944Y-7441315D02*
X3508468Y-7450839D01*
X3508468Y-7450839D02*
X3517992Y-7469886D01*
X3517992Y-7469886D02*
X3527516Y-7507981D01*
X3527516Y-7507981D02*
X3527516Y-7555600D01*
X3527516Y-7555600D02*
X3517992Y-7593696D01*
X3517992Y-7593696D02*
X3508468Y-7612743D01*
X3508468Y-7612743D02*
X3498944Y-7622267D01*
X3498944Y-7622267D02*
X3479897Y-7631791D01*
X3479897Y-7631791D02*
X3460849Y-7631791D01*
X3460849Y-7631791D02*
X3441801Y-7622267D01*
X3441801Y-7622267D02*
X3432278Y-7612743D01*
X3432278Y-7612743D02*
X3422754Y-7593696D01*
X3422754Y-7593696D02*
X3413230Y-7555600D01*
X3413230Y-7555600D02*
X3413230Y-7507981D01*
X3413230Y-7507981D02*
X3422754Y-7469886D01*
X3422754Y-7469886D02*
X3432278Y-7450839D01*
X3432278Y-7450839D02*
X3441801Y-7441315D01*
X3441801Y-7441315D02*
X3460849Y-7431791D01*
X3613230Y-7631791D02*
X3613230Y-7498458D01*
X3613230Y-7517505D02*
X3622754Y-7507981D01*
X3622754Y-7507981D02*
X3641801Y-7498458D01*
X3641801Y-7498458D02*
X3670373Y-7498458D01*
X3670373Y-7498458D02*
X3689421Y-7507981D01*
X3689421Y-7507981D02*
X3698944Y-7527029D01*
X3698944Y-7527029D02*
X3698944Y-7631791D01*
X3698944Y-7527029D02*
X3708468Y-7507981D01*
X3708468Y-7507981D02*
X3727516Y-7498458D01*
X3727516Y-7498458D02*
X3756087Y-7498458D01*
X3756087Y-7498458D02*
X3775135Y-7507981D01*
X3775135Y-7507981D02*
X3784659Y-7527029D01*
X3784659Y-7527029D02*
X3784659Y-7631791D01*
X3879897Y-7631791D02*
X3879897Y-7498458D01*
X3879897Y-7517505D02*
X3889421Y-7507981D01*
X3889421Y-7507981D02*
X3908468Y-7498458D01*
X3908468Y-7498458D02*
X3937040Y-7498458D01*
X3937040Y-7498458D02*
X3956087Y-7507981D01*
X3956087Y-7507981D02*
X3965611Y-7527029D01*
X3965611Y-7527029D02*
X3965611Y-7631791D01*
X3965611Y-7527029D02*
X3975135Y-7507981D01*
X3975135Y-7507981D02*
X3994182Y-7498458D01*
X3994182Y-7498458D02*
X4022754Y-7498458D01*
X4022754Y-7498458D02*
X4041802Y-7507981D01*
X4041802Y-7507981D02*
X4051325Y-7527029D01*
X4051325Y-7527029D02*
X4051325Y-7631791D01*
X4441802Y-7422267D02*
X4270373Y-7679410D01*
X4698945Y-7431791D02*
X4717992Y-7431791D01*
X4717992Y-7431791D02*
X4737040Y-7441315D01*
X4737040Y-7441315D02*
X4746564Y-7450839D01*
X4746564Y-7450839D02*
X4756087Y-7469886D01*
X4756087Y-7469886D02*
X4765611Y-7507981D01*
X4765611Y-7507981D02*
X4765611Y-7555600D01*
X4765611Y-7555600D02*
X4756087Y-7593696D01*
X4756087Y-7593696D02*
X4746564Y-7612743D01*
X4746564Y-7612743D02*
X4737040Y-7622267D01*
X4737040Y-7622267D02*
X4717992Y-7631791D01*
X4717992Y-7631791D02*
X4698945Y-7631791D01*
X4698945Y-7631791D02*
X4679897Y-7622267D01*
X4679897Y-7622267D02*
X4670373Y-7612743D01*
X4670373Y-7612743D02*
X4660849Y-7593696D01*
X4660849Y-7593696D02*
X4651326Y-7555600D01*
X4651326Y-7555600D02*
X4651326Y-7507981D01*
X4651326Y-7507981D02*
X4660849Y-7469886D01*
X4660849Y-7469886D02*
X4670373Y-7450839D01*
X4670373Y-7450839D02*
X4679897Y-7441315D01*
X4679897Y-7441315D02*
X4698945Y-7431791D01*
X4851326Y-7612743D02*
X4860849Y-7622267D01*
X4860849Y-7622267D02*
X4851326Y-7631791D01*
X4851326Y-7631791D02*
X4841802Y-7622267D01*
X4841802Y-7622267D02*
X4851326Y-7612743D01*
X4851326Y-7612743D02*
X4851326Y-7631791D01*
X5051326Y-7631791D02*
X4937040Y-7631791D01*
X4994183Y-7631791D02*
X4994183Y-7431791D01*
X4994183Y-7431791D02*
X4975135Y-7460362D01*
X4975135Y-7460362D02*
X4956087Y-7479410D01*
X4956087Y-7479410D02*
X4937040Y-7488934D01*
X5117992Y-7431791D02*
X5241802Y-7431791D01*
X5241802Y-7431791D02*
X5175135Y-7507981D01*
X5175135Y-7507981D02*
X5203707Y-7507981D01*
X5203707Y-7507981D02*
X5222754Y-7517505D01*
X5222754Y-7517505D02*
X5232278Y-7527029D01*
X5232278Y-7527029D02*
X5241802Y-7546077D01*
X5241802Y-7546077D02*
X5241802Y-7593696D01*
X5241802Y-7593696D02*
X5232278Y-7612743D01*
X5232278Y-7612743D02*
X5222754Y-7622267D01*
X5222754Y-7622267D02*
X5203707Y-7631791D01*
X5203707Y-7631791D02*
X5146564Y-7631791D01*
X5146564Y-7631791D02*
X5127516Y-7622267D01*
X5127516Y-7622267D02*
X5117992Y-7612743D01*
X5308468Y-7431791D02*
X5432278Y-7431791D01*
X5432278Y-7431791D02*
X5365611Y-7507981D01*
X5365611Y-7507981D02*
X5394183Y-7507981D01*
X5394183Y-7507981D02*
X5413230Y-7517505D01*
X5413230Y-7517505D02*
X5422754Y-7527029D01*
X5422754Y-7527029D02*
X5432278Y-7546077D01*
X5432278Y-7546077D02*
X5432278Y-7593696D01*
X5432278Y-7593696D02*
X5422754Y-7612743D01*
X5422754Y-7612743D02*
X5413230Y-7622267D01*
X5413230Y-7622267D02*
X5394183Y-7631791D01*
X5394183Y-7631791D02*
X5337040Y-7631791D01*
X5337040Y-7631791D02*
X5317992Y-7622267D01*
X5317992Y-7622267D02*
X5308468Y-7612743D01*
X5527516Y-7631791D02*
X5565611Y-7631791D01*
X5565611Y-7631791D02*
X5584659Y-7622267D01*
X5584659Y-7622267D02*
X5594183Y-7612743D01*
X5594183Y-7612743D02*
X5613230Y-7584172D01*
X5613230Y-7584172D02*
X5622754Y-7546077D01*
X5622754Y-7546077D02*
X5622754Y-7469886D01*
X5622754Y-7469886D02*
X5613230Y-7450839D01*
X5613230Y-7450839D02*
X5603706Y-7441315D01*
X5603706Y-7441315D02*
X5584659Y-7431791D01*
X5584659Y-7431791D02*
X5546564Y-7431791D01*
X5546564Y-7431791D02*
X5527516Y-7441315D01*
X5527516Y-7441315D02*
X5517992Y-7450839D01*
X5517992Y-7450839D02*
X5508468Y-7469886D01*
X5508468Y-7469886D02*
X5508468Y-7517505D01*
X5508468Y-7517505D02*
X5517992Y-7536553D01*
X5517992Y-7536553D02*
X5527516Y-7546077D01*
X5527516Y-7546077D02*
X5546564Y-7555600D01*
X5546564Y-7555600D02*
X5584659Y-7555600D01*
X5584659Y-7555600D02*
X5603706Y-7546077D01*
X5603706Y-7546077D02*
X5613230Y-7536553D01*
X5613230Y-7536553D02*
X5622754Y-7517505D01*
X5698945Y-7431791D02*
X5698945Y-7469886D01*
X5775135Y-7431791D02*
X5775135Y-7469886D01*
X6070373Y-7707981D02*
X6060849Y-7698458D01*
X6060849Y-7698458D02*
X6041802Y-7669886D01*
X6041802Y-7669886D02*
X6032278Y-7650839D01*
X6032278Y-7650839D02*
X6022754Y-7622267D01*
X6022754Y-7622267D02*
X6013230Y-7574648D01*
X6013230Y-7574648D02*
X6013230Y-7536553D01*
X6013230Y-7536553D02*
X6022754Y-7488934D01*
X6022754Y-7488934D02*
X6032278Y-7460362D01*
X6032278Y-7460362D02*
X6041802Y-7441315D01*
X6041802Y-7441315D02*
X6060849Y-7412743D01*
X6060849Y-7412743D02*
X6070373Y-7403219D01*
X6175135Y-7517505D02*
X6156087Y-7507981D01*
X6156087Y-7507981D02*
X6146564Y-7498458D01*
X6146564Y-7498458D02*
X6137040Y-7479410D01*
X6137040Y-7479410D02*
X6137040Y-7469886D01*
X6137040Y-7469886D02*
X6146564Y-7450839D01*
X6146564Y-7450839D02*
X6156087Y-7441315D01*
X6156087Y-7441315D02*
X6175135Y-7431791D01*
X6175135Y-7431791D02*
X6213230Y-7431791D01*
X6213230Y-7431791D02*
X6232278Y-7441315D01*
X6232278Y-7441315D02*
X6241802Y-7450839D01*
X6241802Y-7450839D02*
X6251326Y-7469886D01*
X6251326Y-7469886D02*
X6251326Y-7479410D01*
X6251326Y-7479410D02*
X6241802Y-7498458D01*
X6241802Y-7498458D02*
X6232278Y-7507981D01*
X6232278Y-7507981D02*
X6213230Y-7517505D01*
X6213230Y-7517505D02*
X6175135Y-7517505D01*
X6175135Y-7517505D02*
X6156087Y-7527029D01*
X6156087Y-7527029D02*
X6146564Y-7536553D01*
X6146564Y-7536553D02*
X6137040Y-7555600D01*
X6137040Y-7555600D02*
X6137040Y-7593696D01*
X6137040Y-7593696D02*
X6146564Y-7612743D01*
X6146564Y-7612743D02*
X6156087Y-7622267D01*
X6156087Y-7622267D02*
X6175135Y-7631791D01*
X6175135Y-7631791D02*
X6213230Y-7631791D01*
X6213230Y-7631791D02*
X6232278Y-7622267D01*
X6232278Y-7622267D02*
X6241802Y-7612743D01*
X6241802Y-7612743D02*
X6251326Y-7593696D01*
X6251326Y-7593696D02*
X6251326Y-7555600D01*
X6251326Y-7555600D02*
X6241802Y-7536553D01*
X6241802Y-7536553D02*
X6232278Y-7527029D01*
X6232278Y-7527029D02*
X6213230Y-7517505D01*
X6489421Y-7631791D02*
X6489421Y-7431791D01*
X6575135Y-7631791D02*
X6575135Y-7527029D01*
X6575135Y-7527029D02*
X6565611Y-7507981D01*
X6565611Y-7507981D02*
X6546564Y-7498458D01*
X6546564Y-7498458D02*
X6517992Y-7498458D01*
X6517992Y-7498458D02*
X6498945Y-7507981D01*
X6498945Y-7507981D02*
X6489421Y-7517505D01*
X6698945Y-7631791D02*
X6679897Y-7622267D01*
X6679897Y-7622267D02*
X6670373Y-7612743D01*
X6670373Y-7612743D02*
X6660849Y-7593696D01*
X6660849Y-7593696D02*
X6660849Y-7536553D01*
X6660849Y-7536553D02*
X6670373Y-7517505D01*
X6670373Y-7517505D02*
X6679897Y-7507981D01*
X6679897Y-7507981D02*
X6698945Y-7498458D01*
X6698945Y-7498458D02*
X6727516Y-7498458D01*
X6727516Y-7498458D02*
X6746564Y-7507981D01*
X6746564Y-7507981D02*
X6756088Y-7517505D01*
X6756088Y-7517505D02*
X6765611Y-7536553D01*
X6765611Y-7536553D02*
X6765611Y-7593696D01*
X6765611Y-7593696D02*
X6756088Y-7612743D01*
X6756088Y-7612743D02*
X6746564Y-7622267D01*
X6746564Y-7622267D02*
X6727516Y-7631791D01*
X6727516Y-7631791D02*
X6698945Y-7631791D01*
X6879897Y-7631791D02*
X6860849Y-7622267D01*
X6860849Y-7622267D02*
X6851326Y-7603219D01*
X6851326Y-7603219D02*
X6851326Y-7431791D01*
X7032278Y-7622267D02*
X7013230Y-7631791D01*
X7013230Y-7631791D02*
X6975135Y-7631791D01*
X6975135Y-7631791D02*
X6956088Y-7622267D01*
X6956088Y-7622267D02*
X6946564Y-7603219D01*
X6946564Y-7603219D02*
X6946564Y-7527029D01*
X6946564Y-7527029D02*
X6956088Y-7507981D01*
X6956088Y-7507981D02*
X6975135Y-7498458D01*
X6975135Y-7498458D02*
X7013230Y-7498458D01*
X7013230Y-7498458D02*
X7032278Y-7507981D01*
X7032278Y-7507981D02*
X7041802Y-7527029D01*
X7041802Y-7527029D02*
X7041802Y-7546077D01*
X7041802Y-7546077D02*
X6946564Y-7565124D01*
X7117992Y-7622267D02*
X7137040Y-7631791D01*
X7137040Y-7631791D02*
X7175135Y-7631791D01*
X7175135Y-7631791D02*
X7194183Y-7622267D01*
X7194183Y-7622267D02*
X7203707Y-7603219D01*
X7203707Y-7603219D02*
X7203707Y-7593696D01*
X7203707Y-7593696D02*
X7194183Y-7574648D01*
X7194183Y-7574648D02*
X7175135Y-7565124D01*
X7175135Y-7565124D02*
X7146564Y-7565124D01*
X7146564Y-7565124D02*
X7127516Y-7555600D01*
X7127516Y-7555600D02*
X7117992Y-7536553D01*
X7117992Y-7536553D02*
X7117992Y-7527029D01*
X7117992Y-7527029D02*
X7127516Y-7507981D01*
X7127516Y-7507981D02*
X7146564Y-7498458D01*
X7146564Y-7498458D02*
X7175135Y-7498458D01*
X7175135Y-7498458D02*
X7194183Y-7507981D01*
X7270373Y-7707981D02*
X7279897Y-7698458D01*
X7279897Y-7698458D02*
X7298945Y-7669886D01*
X7298945Y-7669886D02*
X7308469Y-7650839D01*
X7308469Y-7650839D02*
X7317992Y-7622267D01*
X7317992Y-7622267D02*
X7327516Y-7574648D01*
X7327516Y-7574648D02*
X7327516Y-7536553D01*
X7327516Y-7536553D02*
X7317992Y-7488934D01*
X7317992Y-7488934D02*
X7308469Y-7460362D01*
X7308469Y-7460362D02*
X7298945Y-7441315D01*
X7298945Y-7441315D02*
X7279897Y-7412743D01*
X7279897Y-7412743D02*
X7270373Y-7403219D01*
X7632278Y-7707981D02*
X7622754Y-7698458D01*
X7622754Y-7698458D02*
X7603707Y-7669886D01*
X7603707Y-7669886D02*
X7594183Y-7650839D01*
X7594183Y-7650839D02*
X7584659Y-7622267D01*
X7584659Y-7622267D02*
X7575135Y-7574648D01*
X7575135Y-7574648D02*
X7575135Y-7536553D01*
X7575135Y-7536553D02*
X7584659Y-7488934D01*
X7584659Y-7488934D02*
X7594183Y-7460362D01*
X7594183Y-7460362D02*
X7603707Y-7441315D01*
X7603707Y-7441315D02*
X7622754Y-7412743D01*
X7622754Y-7412743D02*
X7632278Y-7403219D01*
X7708469Y-7498458D02*
X7708469Y-7631791D01*
X7708469Y-7517505D02*
X7717992Y-7507981D01*
X7717992Y-7507981D02*
X7737040Y-7498458D01*
X7737040Y-7498458D02*
X7765611Y-7498458D01*
X7765611Y-7498458D02*
X7784659Y-7507981D01*
X7784659Y-7507981D02*
X7794183Y-7527029D01*
X7794183Y-7527029D02*
X7794183Y-7631791D01*
X7917992Y-7631791D02*
X7898945Y-7622267D01*
X7898945Y-7622267D02*
X7889421Y-7612743D01*
X7889421Y-7612743D02*
X7879897Y-7593696D01*
X7879897Y-7593696D02*
X7879897Y-7536553D01*
X7879897Y-7536553D02*
X7889421Y-7517505D01*
X7889421Y-7517505D02*
X7898945Y-7507981D01*
X7898945Y-7507981D02*
X7917992Y-7498458D01*
X7917992Y-7498458D02*
X7946564Y-7498458D01*
X7946564Y-7498458D02*
X7965611Y-7507981D01*
X7965611Y-7507981D02*
X7975135Y-7517505D01*
X7975135Y-7517505D02*
X7984659Y-7536553D01*
X7984659Y-7536553D02*
X7984659Y-7593696D01*
X7984659Y-7593696D02*
X7975135Y-7612743D01*
X7975135Y-7612743D02*
X7965611Y-7622267D01*
X7965611Y-7622267D02*
X7946564Y-7631791D01*
X7946564Y-7631791D02*
X7917992Y-7631791D01*
X8041802Y-7498458D02*
X8117992Y-7498458D01*
X8070373Y-7431791D02*
X8070373Y-7603219D01*
X8070373Y-7603219D02*
X8079897Y-7622267D01*
X8079897Y-7622267D02*
X8098945Y-7631791D01*
X8098945Y-7631791D02*
X8117992Y-7631791D01*
X8337040Y-7498458D02*
X8337040Y-7698458D01*
X8337040Y-7507981D02*
X8356088Y-7498458D01*
X8356088Y-7498458D02*
X8394183Y-7498458D01*
X8394183Y-7498458D02*
X8413231Y-7507981D01*
X8413231Y-7507981D02*
X8422754Y-7517505D01*
X8422754Y-7517505D02*
X8432278Y-7536553D01*
X8432278Y-7536553D02*
X8432278Y-7593696D01*
X8432278Y-7593696D02*
X8422754Y-7612743D01*
X8422754Y-7612743D02*
X8413231Y-7622267D01*
X8413231Y-7622267D02*
X8394183Y-7631791D01*
X8394183Y-7631791D02*
X8356088Y-7631791D01*
X8356088Y-7631791D02*
X8337040Y-7622267D01*
X8546564Y-7631791D02*
X8527516Y-7622267D01*
X8527516Y-7622267D02*
X8517993Y-7603219D01*
X8517993Y-7603219D02*
X8517993Y-7431791D01*
X8708469Y-7631791D02*
X8708469Y-7527029D01*
X8708469Y-7527029D02*
X8698945Y-7507981D01*
X8698945Y-7507981D02*
X8679897Y-7498458D01*
X8679897Y-7498458D02*
X8641802Y-7498458D01*
X8641802Y-7498458D02*
X8622754Y-7507981D01*
X8708469Y-7622267D02*
X8689421Y-7631791D01*
X8689421Y-7631791D02*
X8641802Y-7631791D01*
X8641802Y-7631791D02*
X8622754Y-7622267D01*
X8622754Y-7622267D02*
X8613231Y-7603219D01*
X8613231Y-7603219D02*
X8613231Y-7584172D01*
X8613231Y-7584172D02*
X8622754Y-7565124D01*
X8622754Y-7565124D02*
X8641802Y-7555600D01*
X8641802Y-7555600D02*
X8689421Y-7555600D01*
X8689421Y-7555600D02*
X8708469Y-7546077D01*
X8775135Y-7498458D02*
X8851326Y-7498458D01*
X8803707Y-7431791D02*
X8803707Y-7603219D01*
X8803707Y-7603219D02*
X8813231Y-7622267D01*
X8813231Y-7622267D02*
X8832278Y-7631791D01*
X8832278Y-7631791D02*
X8851326Y-7631791D01*
X8994183Y-7622267D02*
X8975135Y-7631791D01*
X8975135Y-7631791D02*
X8937040Y-7631791D01*
X8937040Y-7631791D02*
X8917993Y-7622267D01*
X8917993Y-7622267D02*
X8908469Y-7603219D01*
X8908469Y-7603219D02*
X8908469Y-7527029D01*
X8908469Y-7527029D02*
X8917993Y-7507981D01*
X8917993Y-7507981D02*
X8937040Y-7498458D01*
X8937040Y-7498458D02*
X8975135Y-7498458D01*
X8975135Y-7498458D02*
X8994183Y-7507981D01*
X8994183Y-7507981D02*
X9003707Y-7527029D01*
X9003707Y-7527029D02*
X9003707Y-7546077D01*
X9003707Y-7546077D02*
X8908469Y-7565124D01*
X9175135Y-7631791D02*
X9175135Y-7431791D01*
X9175135Y-7622267D02*
X9156088Y-7631791D01*
X9156088Y-7631791D02*
X9117993Y-7631791D01*
X9117993Y-7631791D02*
X9098945Y-7622267D01*
X9098945Y-7622267D02*
X9089421Y-7612743D01*
X9089421Y-7612743D02*
X9079897Y-7593696D01*
X9079897Y-7593696D02*
X9079897Y-7536553D01*
X9079897Y-7536553D02*
X9089421Y-7517505D01*
X9089421Y-7517505D02*
X9098945Y-7507981D01*
X9098945Y-7507981D02*
X9117993Y-7498458D01*
X9117993Y-7498458D02*
X9156088Y-7498458D01*
X9156088Y-7498458D02*
X9175135Y-7507981D01*
X9251326Y-7707981D02*
X9260850Y-7698458D01*
X9260850Y-7698458D02*
X9279897Y-7669886D01*
X9279897Y-7669886D02*
X9289421Y-7650839D01*
X9289421Y-7650839D02*
X9298945Y-7622267D01*
X9298945Y-7622267D02*
X9308469Y-7574648D01*
X9308469Y-7574648D02*
X9308469Y-7536553D01*
X9308469Y-7536553D02*
X9298945Y-7488934D01*
X9298945Y-7488934D02*
X9289421Y-7460362D01*
X9289421Y-7460362D02*
X9279897Y-7441315D01*
X9279897Y-7441315D02*
X9260850Y-7412743D01*
X9260850Y-7412743D02*
X9251326Y-7403219D01*
X2466022Y-7931019D02*
X2466022Y-7789596D01*
X2324599Y-7789596D01*
X2324599Y-7931019D01*
X2466022Y-7931019D01*
X2737040Y-7751791D02*
X2860849Y-7751791D01*
X2860849Y-7751791D02*
X2794182Y-7827981D01*
X2794182Y-7827981D02*
X2822754Y-7827981D01*
X2822754Y-7827981D02*
X2841801Y-7837505D01*
X2841801Y-7837505D02*
X2851325Y-7847029D01*
X2851325Y-7847029D02*
X2860849Y-7866077D01*
X2860849Y-7866077D02*
X2860849Y-7913696D01*
X2860849Y-7913696D02*
X2851325Y-7932743D01*
X2851325Y-7932743D02*
X2841801Y-7942267D01*
X2841801Y-7942267D02*
X2822754Y-7951791D01*
X2822754Y-7951791D02*
X2765611Y-7951791D01*
X2765611Y-7951791D02*
X2746563Y-7942267D01*
X2746563Y-7942267D02*
X2737040Y-7932743D01*
X2946563Y-7932743D02*
X2956087Y-7942267D01*
X2956087Y-7942267D02*
X2946563Y-7951791D01*
X2946563Y-7951791D02*
X2937040Y-7942267D01*
X2937040Y-7942267D02*
X2946563Y-7932743D01*
X2946563Y-7932743D02*
X2946563Y-7951791D01*
X3051325Y-7951791D02*
X3089420Y-7951791D01*
X3089420Y-7951791D02*
X3108468Y-7942267D01*
X3108468Y-7942267D02*
X3117992Y-7932743D01*
X3117992Y-7932743D02*
X3137040Y-7904172D01*
X3137040Y-7904172D02*
X3146563Y-7866077D01*
X3146563Y-7866077D02*
X3146563Y-7789886D01*
X3146563Y-7789886D02*
X3137040Y-7770839D01*
X3137040Y-7770839D02*
X3127516Y-7761315D01*
X3127516Y-7761315D02*
X3108468Y-7751791D01*
X3108468Y-7751791D02*
X3070373Y-7751791D01*
X3070373Y-7751791D02*
X3051325Y-7761315D01*
X3051325Y-7761315D02*
X3041801Y-7770839D01*
X3041801Y-7770839D02*
X3032278Y-7789886D01*
X3032278Y-7789886D02*
X3032278Y-7837505D01*
X3032278Y-7837505D02*
X3041801Y-7856553D01*
X3041801Y-7856553D02*
X3051325Y-7866077D01*
X3051325Y-7866077D02*
X3070373Y-7875600D01*
X3070373Y-7875600D02*
X3108468Y-7875600D01*
X3108468Y-7875600D02*
X3127516Y-7866077D01*
X3127516Y-7866077D02*
X3137040Y-7856553D01*
X3137040Y-7856553D02*
X3146563Y-7837505D01*
X3260849Y-7837505D02*
X3241801Y-7827981D01*
X3241801Y-7827981D02*
X3232278Y-7818458D01*
X3232278Y-7818458D02*
X3222754Y-7799410D01*
X3222754Y-7799410D02*
X3222754Y-7789886D01*
X3222754Y-7789886D02*
X3232278Y-7770839D01*
X3232278Y-7770839D02*
X3241801Y-7761315D01*
X3241801Y-7761315D02*
X3260849Y-7751791D01*
X3260849Y-7751791D02*
X3298944Y-7751791D01*
X3298944Y-7751791D02*
X3317992Y-7761315D01*
X3317992Y-7761315D02*
X3327516Y-7770839D01*
X3327516Y-7770839D02*
X3337040Y-7789886D01*
X3337040Y-7789886D02*
X3337040Y-7799410D01*
X3337040Y-7799410D02*
X3327516Y-7818458D01*
X3327516Y-7818458D02*
X3317992Y-7827981D01*
X3317992Y-7827981D02*
X3298944Y-7837505D01*
X3298944Y-7837505D02*
X3260849Y-7837505D01*
X3260849Y-7837505D02*
X3241801Y-7847029D01*
X3241801Y-7847029D02*
X3232278Y-7856553D01*
X3232278Y-7856553D02*
X3222754Y-7875600D01*
X3222754Y-7875600D02*
X3222754Y-7913696D01*
X3222754Y-7913696D02*
X3232278Y-7932743D01*
X3232278Y-7932743D02*
X3241801Y-7942267D01*
X3241801Y-7942267D02*
X3260849Y-7951791D01*
X3260849Y-7951791D02*
X3298944Y-7951791D01*
X3298944Y-7951791D02*
X3317992Y-7942267D01*
X3317992Y-7942267D02*
X3327516Y-7932743D01*
X3327516Y-7932743D02*
X3337040Y-7913696D01*
X3337040Y-7913696D02*
X3337040Y-7875600D01*
X3337040Y-7875600D02*
X3327516Y-7856553D01*
X3327516Y-7856553D02*
X3317992Y-7847029D01*
X3317992Y-7847029D02*
X3298944Y-7837505D01*
X3451325Y-7837505D02*
X3432278Y-7827981D01*
X3432278Y-7827981D02*
X3422754Y-7818458D01*
X3422754Y-7818458D02*
X3413230Y-7799410D01*
X3413230Y-7799410D02*
X3413230Y-7789886D01*
X3413230Y-7789886D02*
X3422754Y-7770839D01*
X3422754Y-7770839D02*
X3432278Y-7761315D01*
X3432278Y-7761315D02*
X3451325Y-7751791D01*
X3451325Y-7751791D02*
X3489421Y-7751791D01*
X3489421Y-7751791D02*
X3508468Y-7761315D01*
X3508468Y-7761315D02*
X3517992Y-7770839D01*
X3517992Y-7770839D02*
X3527516Y-7789886D01*
X3527516Y-7789886D02*
X3527516Y-7799410D01*
X3527516Y-7799410D02*
X3517992Y-7818458D01*
X3517992Y-7818458D02*
X3508468Y-7827981D01*
X3508468Y-7827981D02*
X3489421Y-7837505D01*
X3489421Y-7837505D02*
X3451325Y-7837505D01*
X3451325Y-7837505D02*
X3432278Y-7847029D01*
X3432278Y-7847029D02*
X3422754Y-7856553D01*
X3422754Y-7856553D02*
X3413230Y-7875600D01*
X3413230Y-7875600D02*
X3413230Y-7913696D01*
X3413230Y-7913696D02*
X3422754Y-7932743D01*
X3422754Y-7932743D02*
X3432278Y-7942267D01*
X3432278Y-7942267D02*
X3451325Y-7951791D01*
X3451325Y-7951791D02*
X3489421Y-7951791D01*
X3489421Y-7951791D02*
X3508468Y-7942267D01*
X3508468Y-7942267D02*
X3517992Y-7932743D01*
X3517992Y-7932743D02*
X3527516Y-7913696D01*
X3527516Y-7913696D02*
X3527516Y-7875600D01*
X3527516Y-7875600D02*
X3517992Y-7856553D01*
X3517992Y-7856553D02*
X3508468Y-7847029D01*
X3508468Y-7847029D02*
X3489421Y-7837505D01*
X3613230Y-7951791D02*
X3613230Y-7818458D01*
X3613230Y-7837505D02*
X3622754Y-7827981D01*
X3622754Y-7827981D02*
X3641801Y-7818458D01*
X3641801Y-7818458D02*
X3670373Y-7818458D01*
X3670373Y-7818458D02*
X3689421Y-7827981D01*
X3689421Y-7827981D02*
X3698944Y-7847029D01*
X3698944Y-7847029D02*
X3698944Y-7951791D01*
X3698944Y-7847029D02*
X3708468Y-7827981D01*
X3708468Y-7827981D02*
X3727516Y-7818458D01*
X3727516Y-7818458D02*
X3756087Y-7818458D01*
X3756087Y-7818458D02*
X3775135Y-7827981D01*
X3775135Y-7827981D02*
X3784659Y-7847029D01*
X3784659Y-7847029D02*
X3784659Y-7951791D01*
X3879897Y-7951791D02*
X3879897Y-7818458D01*
X3879897Y-7837505D02*
X3889421Y-7827981D01*
X3889421Y-7827981D02*
X3908468Y-7818458D01*
X3908468Y-7818458D02*
X3937040Y-7818458D01*
X3937040Y-7818458D02*
X3956087Y-7827981D01*
X3956087Y-7827981D02*
X3965611Y-7847029D01*
X3965611Y-7847029D02*
X3965611Y-7951791D01*
X3965611Y-7847029D02*
X3975135Y-7827981D01*
X3975135Y-7827981D02*
X3994182Y-7818458D01*
X3994182Y-7818458D02*
X4022754Y-7818458D01*
X4022754Y-7818458D02*
X4041802Y-7827981D01*
X4041802Y-7827981D02*
X4051325Y-7847029D01*
X4051325Y-7847029D02*
X4051325Y-7951791D01*
X4441802Y-7742267D02*
X4270373Y-7999410D01*
X4698945Y-7751791D02*
X4717992Y-7751791D01*
X4717992Y-7751791D02*
X4737040Y-7761315D01*
X4737040Y-7761315D02*
X4746564Y-7770839D01*
X4746564Y-7770839D02*
X4756087Y-7789886D01*
X4756087Y-7789886D02*
X4765611Y-7827981D01*
X4765611Y-7827981D02*
X4765611Y-7875600D01*
X4765611Y-7875600D02*
X4756087Y-7913696D01*
X4756087Y-7913696D02*
X4746564Y-7932743D01*
X4746564Y-7932743D02*
X4737040Y-7942267D01*
X4737040Y-7942267D02*
X4717992Y-7951791D01*
X4717992Y-7951791D02*
X4698945Y-7951791D01*
X4698945Y-7951791D02*
X4679897Y-7942267D01*
X4679897Y-7942267D02*
X4670373Y-7932743D01*
X4670373Y-7932743D02*
X4660849Y-7913696D01*
X4660849Y-7913696D02*
X4651326Y-7875600D01*
X4651326Y-7875600D02*
X4651326Y-7827981D01*
X4651326Y-7827981D02*
X4660849Y-7789886D01*
X4660849Y-7789886D02*
X4670373Y-7770839D01*
X4670373Y-7770839D02*
X4679897Y-7761315D01*
X4679897Y-7761315D02*
X4698945Y-7751791D01*
X4851326Y-7932743D02*
X4860849Y-7942267D01*
X4860849Y-7942267D02*
X4851326Y-7951791D01*
X4851326Y-7951791D02*
X4841802Y-7942267D01*
X4841802Y-7942267D02*
X4851326Y-7932743D01*
X4851326Y-7932743D02*
X4851326Y-7951791D01*
X5051326Y-7951791D02*
X4937040Y-7951791D01*
X4994183Y-7951791D02*
X4994183Y-7751791D01*
X4994183Y-7751791D02*
X4975135Y-7780362D01*
X4975135Y-7780362D02*
X4956087Y-7799410D01*
X4956087Y-7799410D02*
X4937040Y-7808934D01*
X5232278Y-7751791D02*
X5137040Y-7751791D01*
X5137040Y-7751791D02*
X5127516Y-7847029D01*
X5127516Y-7847029D02*
X5137040Y-7837505D01*
X5137040Y-7837505D02*
X5156087Y-7827981D01*
X5156087Y-7827981D02*
X5203707Y-7827981D01*
X5203707Y-7827981D02*
X5222754Y-7837505D01*
X5222754Y-7837505D02*
X5232278Y-7847029D01*
X5232278Y-7847029D02*
X5241802Y-7866077D01*
X5241802Y-7866077D02*
X5241802Y-7913696D01*
X5241802Y-7913696D02*
X5232278Y-7932743D01*
X5232278Y-7932743D02*
X5222754Y-7942267D01*
X5222754Y-7942267D02*
X5203707Y-7951791D01*
X5203707Y-7951791D02*
X5156087Y-7951791D01*
X5156087Y-7951791D02*
X5137040Y-7942267D01*
X5137040Y-7942267D02*
X5127516Y-7932743D01*
X5308468Y-7751791D02*
X5441802Y-7751791D01*
X5441802Y-7751791D02*
X5356087Y-7951791D01*
X5556087Y-7751791D02*
X5575135Y-7751791D01*
X5575135Y-7751791D02*
X5594183Y-7761315D01*
X5594183Y-7761315D02*
X5603706Y-7770839D01*
X5603706Y-7770839D02*
X5613230Y-7789886D01*
X5613230Y-7789886D02*
X5622754Y-7827981D01*
X5622754Y-7827981D02*
X5622754Y-7875600D01*
X5622754Y-7875600D02*
X5613230Y-7913696D01*
X5613230Y-7913696D02*
X5603706Y-7932743D01*
X5603706Y-7932743D02*
X5594183Y-7942267D01*
X5594183Y-7942267D02*
X5575135Y-7951791D01*
X5575135Y-7951791D02*
X5556087Y-7951791D01*
X5556087Y-7951791D02*
X5537040Y-7942267D01*
X5537040Y-7942267D02*
X5527516Y-7932743D01*
X5527516Y-7932743D02*
X5517992Y-7913696D01*
X5517992Y-7913696D02*
X5508468Y-7875600D01*
X5508468Y-7875600D02*
X5508468Y-7827981D01*
X5508468Y-7827981D02*
X5517992Y-7789886D01*
X5517992Y-7789886D02*
X5527516Y-7770839D01*
X5527516Y-7770839D02*
X5537040Y-7761315D01*
X5537040Y-7761315D02*
X5556087Y-7751791D01*
X5698945Y-7751791D02*
X5698945Y-7789886D01*
X5775135Y-7751791D02*
X5775135Y-7789886D01*
X6070373Y-8027981D02*
X6060849Y-8018458D01*
X6060849Y-8018458D02*
X6041802Y-7989886D01*
X6041802Y-7989886D02*
X6032278Y-7970839D01*
X6032278Y-7970839D02*
X6022754Y-7942267D01*
X6022754Y-7942267D02*
X6013230Y-7894648D01*
X6013230Y-7894648D02*
X6013230Y-7856553D01*
X6013230Y-7856553D02*
X6022754Y-7808934D01*
X6022754Y-7808934D02*
X6032278Y-7780362D01*
X6032278Y-7780362D02*
X6041802Y-7761315D01*
X6041802Y-7761315D02*
X6060849Y-7732743D01*
X6060849Y-7732743D02*
X6070373Y-7723219D01*
X6175135Y-7837505D02*
X6156087Y-7827981D01*
X6156087Y-7827981D02*
X6146564Y-7818458D01*
X6146564Y-7818458D02*
X6137040Y-7799410D01*
X6137040Y-7799410D02*
X6137040Y-7789886D01*
X6137040Y-7789886D02*
X6146564Y-7770839D01*
X6146564Y-7770839D02*
X6156087Y-7761315D01*
X6156087Y-7761315D02*
X6175135Y-7751791D01*
X6175135Y-7751791D02*
X6213230Y-7751791D01*
X6213230Y-7751791D02*
X6232278Y-7761315D01*
X6232278Y-7761315D02*
X6241802Y-7770839D01*
X6241802Y-7770839D02*
X6251326Y-7789886D01*
X6251326Y-7789886D02*
X6251326Y-7799410D01*
X6251326Y-7799410D02*
X6241802Y-7818458D01*
X6241802Y-7818458D02*
X6232278Y-7827981D01*
X6232278Y-7827981D02*
X6213230Y-7837505D01*
X6213230Y-7837505D02*
X6175135Y-7837505D01*
X6175135Y-7837505D02*
X6156087Y-7847029D01*
X6156087Y-7847029D02*
X6146564Y-7856553D01*
X6146564Y-7856553D02*
X6137040Y-7875600D01*
X6137040Y-7875600D02*
X6137040Y-7913696D01*
X6137040Y-7913696D02*
X6146564Y-7932743D01*
X6146564Y-7932743D02*
X6156087Y-7942267D01*
X6156087Y-7942267D02*
X6175135Y-7951791D01*
X6175135Y-7951791D02*
X6213230Y-7951791D01*
X6213230Y-7951791D02*
X6232278Y-7942267D01*
X6232278Y-7942267D02*
X6241802Y-7932743D01*
X6241802Y-7932743D02*
X6251326Y-7913696D01*
X6251326Y-7913696D02*
X6251326Y-7875600D01*
X6251326Y-7875600D02*
X6241802Y-7856553D01*
X6241802Y-7856553D02*
X6232278Y-7847029D01*
X6232278Y-7847029D02*
X6213230Y-7837505D01*
X6489421Y-7951791D02*
X6489421Y-7751791D01*
X6575135Y-7951791D02*
X6575135Y-7847029D01*
X6575135Y-7847029D02*
X6565611Y-7827981D01*
X6565611Y-7827981D02*
X6546564Y-7818458D01*
X6546564Y-7818458D02*
X6517992Y-7818458D01*
X6517992Y-7818458D02*
X6498945Y-7827981D01*
X6498945Y-7827981D02*
X6489421Y-7837505D01*
X6698945Y-7951791D02*
X6679897Y-7942267D01*
X6679897Y-7942267D02*
X6670373Y-7932743D01*
X6670373Y-7932743D02*
X6660849Y-7913696D01*
X6660849Y-7913696D02*
X6660849Y-7856553D01*
X6660849Y-7856553D02*
X6670373Y-7837505D01*
X6670373Y-7837505D02*
X6679897Y-7827981D01*
X6679897Y-7827981D02*
X6698945Y-7818458D01*
X6698945Y-7818458D02*
X6727516Y-7818458D01*
X6727516Y-7818458D02*
X6746564Y-7827981D01*
X6746564Y-7827981D02*
X6756088Y-7837505D01*
X6756088Y-7837505D02*
X6765611Y-7856553D01*
X6765611Y-7856553D02*
X6765611Y-7913696D01*
X6765611Y-7913696D02*
X6756088Y-7932743D01*
X6756088Y-7932743D02*
X6746564Y-7942267D01*
X6746564Y-7942267D02*
X6727516Y-7951791D01*
X6727516Y-7951791D02*
X6698945Y-7951791D01*
X6879897Y-7951791D02*
X6860849Y-7942267D01*
X6860849Y-7942267D02*
X6851326Y-7923219D01*
X6851326Y-7923219D02*
X6851326Y-7751791D01*
X7032278Y-7942267D02*
X7013230Y-7951791D01*
X7013230Y-7951791D02*
X6975135Y-7951791D01*
X6975135Y-7951791D02*
X6956088Y-7942267D01*
X6956088Y-7942267D02*
X6946564Y-7923219D01*
X6946564Y-7923219D02*
X6946564Y-7847029D01*
X6946564Y-7847029D02*
X6956088Y-7827981D01*
X6956088Y-7827981D02*
X6975135Y-7818458D01*
X6975135Y-7818458D02*
X7013230Y-7818458D01*
X7013230Y-7818458D02*
X7032278Y-7827981D01*
X7032278Y-7827981D02*
X7041802Y-7847029D01*
X7041802Y-7847029D02*
X7041802Y-7866077D01*
X7041802Y-7866077D02*
X6946564Y-7885124D01*
X7117992Y-7942267D02*
X7137040Y-7951791D01*
X7137040Y-7951791D02*
X7175135Y-7951791D01*
X7175135Y-7951791D02*
X7194183Y-7942267D01*
X7194183Y-7942267D02*
X7203707Y-7923219D01*
X7203707Y-7923219D02*
X7203707Y-7913696D01*
X7203707Y-7913696D02*
X7194183Y-7894648D01*
X7194183Y-7894648D02*
X7175135Y-7885124D01*
X7175135Y-7885124D02*
X7146564Y-7885124D01*
X7146564Y-7885124D02*
X7127516Y-7875600D01*
X7127516Y-7875600D02*
X7117992Y-7856553D01*
X7117992Y-7856553D02*
X7117992Y-7847029D01*
X7117992Y-7847029D02*
X7127516Y-7827981D01*
X7127516Y-7827981D02*
X7146564Y-7818458D01*
X7146564Y-7818458D02*
X7175135Y-7818458D01*
X7175135Y-7818458D02*
X7194183Y-7827981D01*
X7270373Y-8027981D02*
X7279897Y-8018458D01*
X7279897Y-8018458D02*
X7298945Y-7989886D01*
X7298945Y-7989886D02*
X7308469Y-7970839D01*
X7308469Y-7970839D02*
X7317992Y-7942267D01*
X7317992Y-7942267D02*
X7327516Y-7894648D01*
X7327516Y-7894648D02*
X7327516Y-7856553D01*
X7327516Y-7856553D02*
X7317992Y-7808934D01*
X7317992Y-7808934D02*
X7308469Y-7780362D01*
X7308469Y-7780362D02*
X7298945Y-7761315D01*
X7298945Y-7761315D02*
X7279897Y-7732743D01*
X7279897Y-7732743D02*
X7270373Y-7723219D01*
X7632278Y-8027981D02*
X7622754Y-8018458D01*
X7622754Y-8018458D02*
X7603707Y-7989886D01*
X7603707Y-7989886D02*
X7594183Y-7970839D01*
X7594183Y-7970839D02*
X7584659Y-7942267D01*
X7584659Y-7942267D02*
X7575135Y-7894648D01*
X7575135Y-7894648D02*
X7575135Y-7856553D01*
X7575135Y-7856553D02*
X7584659Y-7808934D01*
X7584659Y-7808934D02*
X7594183Y-7780362D01*
X7594183Y-7780362D02*
X7603707Y-7761315D01*
X7603707Y-7761315D02*
X7622754Y-7732743D01*
X7622754Y-7732743D02*
X7632278Y-7723219D01*
X7708469Y-7818458D02*
X7708469Y-7951791D01*
X7708469Y-7837505D02*
X7717992Y-7827981D01*
X7717992Y-7827981D02*
X7737040Y-7818458D01*
X7737040Y-7818458D02*
X7765611Y-7818458D01*
X7765611Y-7818458D02*
X7784659Y-7827981D01*
X7784659Y-7827981D02*
X7794183Y-7847029D01*
X7794183Y-7847029D02*
X7794183Y-7951791D01*
X7917992Y-7951791D02*
X7898945Y-7942267D01*
X7898945Y-7942267D02*
X7889421Y-7932743D01*
X7889421Y-7932743D02*
X7879897Y-7913696D01*
X7879897Y-7913696D02*
X7879897Y-7856553D01*
X7879897Y-7856553D02*
X7889421Y-7837505D01*
X7889421Y-7837505D02*
X7898945Y-7827981D01*
X7898945Y-7827981D02*
X7917992Y-7818458D01*
X7917992Y-7818458D02*
X7946564Y-7818458D01*
X7946564Y-7818458D02*
X7965611Y-7827981D01*
X7965611Y-7827981D02*
X7975135Y-7837505D01*
X7975135Y-7837505D02*
X7984659Y-7856553D01*
X7984659Y-7856553D02*
X7984659Y-7913696D01*
X7984659Y-7913696D02*
X7975135Y-7932743D01*
X7975135Y-7932743D02*
X7965611Y-7942267D01*
X7965611Y-7942267D02*
X7946564Y-7951791D01*
X7946564Y-7951791D02*
X7917992Y-7951791D01*
X8041802Y-7818458D02*
X8117992Y-7818458D01*
X8070373Y-7751791D02*
X8070373Y-7923219D01*
X8070373Y-7923219D02*
X8079897Y-7942267D01*
X8079897Y-7942267D02*
X8098945Y-7951791D01*
X8098945Y-7951791D02*
X8117992Y-7951791D01*
X8337040Y-7818458D02*
X8337040Y-8018458D01*
X8337040Y-7827981D02*
X8356088Y-7818458D01*
X8356088Y-7818458D02*
X8394183Y-7818458D01*
X8394183Y-7818458D02*
X8413231Y-7827981D01*
X8413231Y-7827981D02*
X8422754Y-7837505D01*
X8422754Y-7837505D02*
X8432278Y-7856553D01*
X8432278Y-7856553D02*
X8432278Y-7913696D01*
X8432278Y-7913696D02*
X8422754Y-7932743D01*
X8422754Y-7932743D02*
X8413231Y-7942267D01*
X8413231Y-7942267D02*
X8394183Y-7951791D01*
X8394183Y-7951791D02*
X8356088Y-7951791D01*
X8356088Y-7951791D02*
X8337040Y-7942267D01*
X8546564Y-7951791D02*
X8527516Y-7942267D01*
X8527516Y-7942267D02*
X8517993Y-7923219D01*
X8517993Y-7923219D02*
X8517993Y-7751791D01*
X8708469Y-7951791D02*
X8708469Y-7847029D01*
X8708469Y-7847029D02*
X8698945Y-7827981D01*
X8698945Y-7827981D02*
X8679897Y-7818458D01*
X8679897Y-7818458D02*
X8641802Y-7818458D01*
X8641802Y-7818458D02*
X8622754Y-7827981D01*
X8708469Y-7942267D02*
X8689421Y-7951791D01*
X8689421Y-7951791D02*
X8641802Y-7951791D01*
X8641802Y-7951791D02*
X8622754Y-7942267D01*
X8622754Y-7942267D02*
X8613231Y-7923219D01*
X8613231Y-7923219D02*
X8613231Y-7904172D01*
X8613231Y-7904172D02*
X8622754Y-7885124D01*
X8622754Y-7885124D02*
X8641802Y-7875600D01*
X8641802Y-7875600D02*
X8689421Y-7875600D01*
X8689421Y-7875600D02*
X8708469Y-7866077D01*
X8775135Y-7818458D02*
X8851326Y-7818458D01*
X8803707Y-7751791D02*
X8803707Y-7923219D01*
X8803707Y-7923219D02*
X8813231Y-7942267D01*
X8813231Y-7942267D02*
X8832278Y-7951791D01*
X8832278Y-7951791D02*
X8851326Y-7951791D01*
X8994183Y-7942267D02*
X8975135Y-7951791D01*
X8975135Y-7951791D02*
X8937040Y-7951791D01*
X8937040Y-7951791D02*
X8917993Y-7942267D01*
X8917993Y-7942267D02*
X8908469Y-7923219D01*
X8908469Y-7923219D02*
X8908469Y-7847029D01*
X8908469Y-7847029D02*
X8917993Y-7827981D01*
X8917993Y-7827981D02*
X8937040Y-7818458D01*
X8937040Y-7818458D02*
X8975135Y-7818458D01*
X8975135Y-7818458D02*
X8994183Y-7827981D01*
X8994183Y-7827981D02*
X9003707Y-7847029D01*
X9003707Y-7847029D02*
X9003707Y-7866077D01*
X9003707Y-7866077D02*
X8908469Y-7885124D01*
X9175135Y-7951791D02*
X9175135Y-7751791D01*
X9175135Y-7942267D02*
X9156088Y-7951791D01*
X9156088Y-7951791D02*
X9117993Y-7951791D01*
X9117993Y-7951791D02*
X9098945Y-7942267D01*
X9098945Y-7942267D02*
X9089421Y-7932743D01*
X9089421Y-7932743D02*
X9079897Y-7913696D01*
X9079897Y-7913696D02*
X9079897Y-7856553D01*
X9079897Y-7856553D02*
X9089421Y-7837505D01*
X9089421Y-7837505D02*
X9098945Y-7827981D01*
X9098945Y-7827981D02*
X9117993Y-7818458D01*
X9117993Y-7818458D02*
X9156088Y-7818458D01*
X9156088Y-7818458D02*
X9175135Y-7827981D01*
X9251326Y-8027981D02*
X9260850Y-8018458D01*
X9260850Y-8018458D02*
X9279897Y-7989886D01*
X9279897Y-7989886D02*
X9289421Y-7970839D01*
X9289421Y-7970839D02*
X9298945Y-7942267D01*
X9298945Y-7942267D02*
X9308469Y-7894648D01*
X9308469Y-7894648D02*
X9308469Y-7856553D01*
X9308469Y-7856553D02*
X9298945Y-7808934D01*
X9298945Y-7808934D02*
X9289421Y-7780362D01*
X9289421Y-7780362D02*
X9279897Y-7761315D01*
X9279897Y-7761315D02*
X9260850Y-7732743D01*
X9260850Y-7732743D02*
X9251326Y-7723219D01*
M02*
