M48
; DRILL file {KiCad 7.0.7} date Sat Sep  2 22:33:11 2023
; FORMAT={-:-/ absolute / inch / decimal}
; #@! TF.CreationDate,2023-09-02T22:33:11+10:00
; #@! TF.GenerationSoftware,Kicad,Pcbnew,7.0.7
; #@! TF.FileFunction,NonPlated,1,2,NPTH
FMAT,2
INCH
; #@! TA.AperFunction,NonPlated,NPTH,ComponentDrill
T1C0.0669
; #@! TA.AperFunction,NonPlated,NPTH,ComponentDrill
T2C0.0689
; #@! TA.AperFunction,NonPlated,NPTH,ComponentDrill
T3C0.1339
; #@! TA.AperFunction,NonPlated,NPTH,ComponentDrill
T4C0.1570
%
G90
G05
T1
X1.1427Y-1.3593
X1.1427Y-2.1093
X1.5758Y-1.3593
X1.5758Y-2.1093
X1.8927Y-1.3593
X1.8927Y-2.1093
X2.3258Y-1.3593
X2.3258Y-2.1093
X2.6427Y-1.3593
X2.6427Y-2.1093
X3.0758Y-1.3593
X3.0758Y-2.1093
X3.3927Y-1.3593
X3.3927Y-2.1093
X3.8258Y-1.3593
X3.8258Y-2.1093
T2
X1.1593Y-1.3593
X1.1598Y-2.1102
X1.5593Y-1.3593
X1.5598Y-2.1102
X1.9086Y-1.3594
X1.909Y-2.1102
X2.3086Y-1.3594
X2.309Y-2.1102
X2.659Y-1.3602
X2.659Y-2.1102
X3.059Y-1.3602
X3.059Y-2.1102
X3.4086Y-1.3594
X3.409Y-2.1102
X3.8086Y-1.3594
X3.809Y-2.1102
T3
X1.3593Y-1.3593
X1.3593Y-2.1093
X2.1093Y-1.3593
X2.1093Y-2.1093
X2.8593Y-1.3593
X2.8593Y-2.1093
X3.6093Y-1.3593
X3.6093Y-2.1093
T4
X1.3593Y-1.3593
X1.3598Y-2.1102
X2.1086Y-1.3594
X2.109Y-2.1102
X2.859Y-1.3602
X2.859Y-2.1102
X3.6086Y-1.3594
X3.609Y-2.1102
T0
M30
