%TF.GenerationSoftware,KiCad,Pcbnew,7.0.7*%
%TF.CreationDate,2023-09-02T22:33:14+10:00*%
%TF.ProjectId,artsey,61727473-6579-42e6-9b69-6361645f7063,rev?*%
%TF.SameCoordinates,Original*%
%TF.FileFunction,Legend,Top*%
%TF.FilePolarity,Positive*%
%FSLAX46Y46*%
G04 Gerber Fmt 4.6, Leading zero omitted, Abs format (unit mm)*
G04 Created by KiCad (PCBNEW 7.0.7) date 2023-09-02 22:33:14*
%MOMM*%
%LPD*%
G01*
G04 APERTURE LIST*
%ADD10C,0.120000*%
%ADD11C,0.100000*%
G04 APERTURE END LIST*
D10*
%TO.C,U3*%
X115288576Y-53563392D02*
X113488576Y-53563392D01*
X115288576Y-53563392D02*
X116088576Y-53563392D01*
X115288576Y-56683392D02*
X114488576Y-56683392D01*
X115288576Y-56683392D02*
X116088576Y-56683392D01*
%TO.C,BT1*%
X110741548Y-53792296D02*
X110741548Y-54812296D01*
X106491548Y-53792296D02*
X110741548Y-53792296D01*
X110741548Y-54812296D02*
X109141548Y-54812296D01*
X109141548Y-54812296D02*
X109141548Y-56092296D01*
X102921548Y-55512296D02*
X102921548Y-60192296D01*
X109141548Y-56092296D02*
X112031548Y-56092296D01*
X110741548Y-60892296D02*
X109141548Y-60892296D01*
X109141548Y-60892296D02*
X109141548Y-59612296D01*
X110741548Y-61912296D02*
X110741548Y-60892296D01*
X106491548Y-61912296D02*
X110741548Y-61912296D01*
%TO.C,R2*%
X114521544Y-51217294D02*
X114521544Y-50742778D01*
X115566544Y-51217294D02*
X115566544Y-50742778D01*
%TO.C,R1*%
X118093416Y-55384478D02*
X118093416Y-54909962D01*
X119138416Y-55384478D02*
X119138416Y-54909962D01*
%TO.C,U4*%
X107260456Y-49339176D02*
X105585456Y-49339176D01*
X107260456Y-49339176D02*
X107910456Y-49339176D01*
X107260456Y-52459176D02*
X106610456Y-52459176D01*
X107260456Y-52459176D02*
X107910456Y-52459176D01*
D11*
%TO.C,U1*%
X103586260Y-47948492D02*
X103586260Y-27358492D01*
X104086260Y-26858492D02*
X117310260Y-26858492D01*
X117310260Y-48448492D02*
X104086260Y-48448492D01*
X117810260Y-27358492D02*
X117810260Y-47948492D01*
X104086260Y-26858492D02*
G75*
G03*
X103586260Y-27358492I1J-500001D01*
G01*
X103586260Y-47948492D02*
G75*
G03*
X104086260Y-48448492I500001J1D01*
G01*
X117810260Y-27358492D02*
G75*
G03*
X117310260Y-26858492I-500000J0D01*
G01*
X117310260Y-48448492D02*
G75*
G03*
X117810260Y-47948492I0J500000D01*
G01*
D10*
%TO.C,Q1*%
X110329204Y-49306208D02*
X112729204Y-49306208D01*
X110929204Y-52606208D02*
X112729204Y-52606208D01*
X112729204Y-49306208D02*
X112729204Y-50356208D01*
X112729204Y-52606208D02*
X112729204Y-51556208D01*
%TD*%
M02*
