M48
; DRILL file {KiCad 7.0.7} date Sat Sep  2 22:33:11 2023
; FORMAT={-:-/ absolute / inch / decimal}
; #@! TF.CreationDate,2023-09-02T22:33:11+10:00
; #@! TF.GenerationSoftware,Kicad,Pcbnew,7.0.7
; #@! TF.FileFunction,Plated,1,2,PTH
FMAT,2
INCH
; #@! TA.AperFunction,Plated,PTH,ViaDrill
T1C0.0157
; #@! TA.AperFunction,Plated,PTH,ComponentDrill
T2C0.0472
; #@! TA.AperFunction,Plated,PTH,ComponentDrill
T3C0.0600
; #@! TA.AperFunction,Plated,PTH,ComponentDrill
T4C0.0866
%
G90
G05
T1
X1.6289Y-1.6582
X1.8457Y-1.7109
X3.1289Y-1.7578
X3.3398Y-1.8105
X4.1367Y-1.6113
X4.1367Y-1.7051
X4.1367Y-1.8047
X4.3594Y-1.3125
X4.3594Y-1.4004
X4.4062Y-1.1777
X4.4297Y-2.1973
X4.541Y-2.2383
X4.5469Y-1.3418
X4.5762Y-1.6113
X4.5762Y-1.7109
X4.5762Y-1.8047
X4.5927Y-1.9091
T2
X1.1624Y-1.2096
X1.1624Y-2.2589
X1.3593Y-1.127
X1.3593Y-2.3415
X1.5561Y-1.2096
X1.5561Y-2.2589
X1.9124Y-1.2096
X1.9124Y-2.2589
X2.1093Y-1.127
X2.1093Y-2.3415
X2.3061Y-1.2096
X2.3061Y-2.2589
X2.6624Y-1.2096
X2.6624Y-2.2589
X2.8593Y-1.127
X2.8593Y-2.3415
X3.0561Y-1.2096
X3.0561Y-2.2589
X3.4124Y-1.2096
X3.4124Y-2.2589
X3.6093Y-1.127
X3.6093Y-2.3415
X3.8061Y-1.2096
X3.8061Y-2.2589
T3
X1.2093Y-1.4593
X1.2098Y-2.0102
X1.2593Y-1.5593
X1.2598Y-1.9102
X1.4593Y-1.5593
X1.4598Y-1.9102
X1.5093Y-1.4593
X1.5098Y-2.0102
X1.9586Y-1.4594
X1.959Y-2.0102
X2.0086Y-1.5594
X2.009Y-1.9102
X2.2086Y-1.5594
X2.209Y-1.9102
X2.2586Y-1.4594
X2.259Y-2.0102
X2.709Y-1.4602
X2.709Y-2.0102
X2.759Y-1.5602
X2.759Y-1.9102
X2.959Y-1.5602
X2.959Y-1.9102
X3.009Y-1.4602
X3.009Y-2.0102
X3.4586Y-1.4594
X3.459Y-2.0102
X3.5086Y-1.5594
X3.509Y-1.9102
X3.7086Y-1.5594
X3.709Y-1.9102
X3.7586Y-1.4594
X3.759Y-2.0102
T4
X1.7344Y-1.1191
X1.7344Y-2.3496
X3.2344Y-1.1191
X3.2344Y-2.3496
X4.5937Y-2.3437
T0
M30
