<?xml version="1.0" standalone="no"?>
 <!DOCTYPE svg PUBLIC "-//W3C//DTD SVG 1.1//EN" 
 "http://www.w3.org/Graphics/SVG/1.1/DTD/svg11.dtd"> 
<svg
  xmlns:svg="http://www.w3.org/2000/svg"
  xmlns="http://www.w3.org/2000/svg"
  xmlns:xlink="http://www.w3.org/1999/xlink"
  version="1.1"
  width="297.0022mm" height="210.0072mm" viewBox="0.0000 0.0000 297.0022 210.0072">
<title>SVG Image created as art-NPTH-drl_map.svg date 2023/09/06 17:54:05 </title>
  <desc>Image generated by PCBNEW </desc>
<g style="fill:#000000; fill-opacity:1.0000;stroke:#000000; stroke-opacity:1.0000;
stroke-linecap:round; stroke-linejoin:round;"
 transform="translate(0 0) scale(1 1)">
</g>
<g style="fill:#000000; fill-opacity:0.0; 
stroke:#000000; stroke-width:0.0000; stroke-opacity:1; 
stroke-linecap:round; stroke-linejoin:round;">
</g>
<g style="fill:#000000; fill-opacity:0.0; 
stroke:#000000; stroke-width:0.2987; stroke-opacity:1; 
stroke-linecap:round; stroke-linejoin:round;">
<path d="M10.1493 105.0489 A8.9602 8.9602 0.0 0 0 19.1094 114.0090" />
<path d="M277.8928 114.0089 A8.9601 8.9601 0.0 0 0 286.8529 105.0489" />
<path d="M277.8928 114.0090
L19.1094 114.0090
" />
<path d="M19.1094 11.9954
L277.8928 11.9954
" />
<path d="M286.8529 20.9554 A8.9601 8.9601 0.0 0 0 277.8928 11.9954" />
<path d="M10.1493 105.0489
L10.1493 20.9554
" />
<path d="M286.8529 20.9554
L286.8529 105.0489
" />
<path d="M19.1094 11.9953 A8.9602 8.9602 0.0 0 0 10.1493 20.9554" />
</g>
<g style="fill:#000000; fill-opacity:0.0; 
stroke:#000000; stroke-width:0.5973; stroke-opacity:1; 
stroke-linecap:round; stroke-linejoin:round;">
</g>
<g style="fill:#000000; fill-opacity:0.0; 
stroke:#000000; stroke-width:0.3584; stroke-opacity:1; 
stroke-linecap:round; stroke-linejoin:round;">
<path d="M248.0416 94.0471
L251.6257 97.6311
" />
<path d="M251.6257 94.0471
L248.0416 97.6311
" />
<path d="M248.0416 99.4996
L251.6257 103.0836
" />
<path d="M251.6257 99.4996
L248.0416 103.0836
" />
<path d="M268.9485 94.0471
L272.5325 97.6311
" />
<path d="M272.5325 94.0471
L268.9485 97.6311
" />
<path d="M268.9485 99.4996
L272.5325 103.0836
" />
<path d="M272.5325 99.4996
L268.9485 103.0836
" />
</g>
<g style="fill:#000000; fill-opacity:0.0; 
stroke:#000000; stroke-width:0.5077; stroke-opacity:1; 
stroke-linecap:round; stroke-linejoin:round;">
<circle cx="20.7946" cy="37.5397" r="2.5387" /> 
<circle cx="20.7946" cy="88.4408" r="2.5387" /> 
<circle cx="53.6483" cy="37.5397" r="2.5387" /> 
<circle cx="53.6483" cy="88.4408" r="2.5387" /> 
<circle cx="74.8018" cy="37.5397" r="2.5387" /> 
<circle cx="74.8018" cy="88.4408" r="2.5387" /> 
<circle cx="107.6555" cy="37.5397" r="2.5387" /> 
<circle cx="107.6555" cy="88.4408" r="2.5387" /> 
<circle cx="128.8090" cy="37.5397" r="2.5387" /> 
<circle cx="128.8090" cy="88.4408" r="2.5387" /> 
<circle cx="161.6627" cy="37.5397" r="2.5387" /> 
<circle cx="161.6627" cy="88.4408" r="2.5387" /> 
<circle cx="182.6275" cy="37.5397" r="2.5387" /> 
<circle cx="182.6275" cy="88.4408" r="2.5387" /> 
<circle cx="215.4811" cy="37.5397" r="2.5387" /> 
<circle cx="215.4811" cy="88.4408" r="2.5387" /> 
</g>
<g style="fill:#000000; fill-opacity:0.0; 
stroke:#000000; stroke-width:0.6272; stroke-opacity:1; 
stroke-linecap:round; stroke-linejoin:round;">
<path d="M64.2265 59.9773
L64.2265 66.2493
" />
<path d="M61.0905 63.1133
L67.3626 63.1133
" />
<path d="M64.2265 59.9773
L64.2265 66.2493
" />
<path d="M61.0905 63.1133
L67.3626 63.1133
" />
<path d="M172.2409 59.7550
L172.2409 66.0271
" />
<path d="M169.1049 62.8910
L175.3770 62.8910
" />
<path d="M172.2409 59.7550
L172.2409 66.0271
" />
<path d="M169.1049 62.8910
L175.3770 62.8910
" />
<path d="M228.1920 100.9279
L228.1920 107.2000
" />
<path d="M225.0560 104.0640
L231.3281 104.0640
" />
<path d="M228.1920 100.9279
L228.1920 107.2000
" />
<path d="M225.0560 104.0640
L231.3281 104.0640
" />
</g>
<g style="fill:#000000; fill-opacity:0.0; 
stroke:#000000; stroke-width:1.0155; stroke-opacity:1; 
stroke-linecap:round; stroke-linejoin:round;">
<path style="fill:#000000; fill-opacity:0.0; 
stroke:#000000; stroke-width:1.0155; stroke-opacity:1; 
stroke-linecap:round; stroke-linejoin:round;fill:none"
d="M 40.8117,41.1300
40.8117,33.9494
33.6312,33.9494
33.6312,41.1300
Z" /> 
<path style="fill:#000000; fill-opacity:0.0; 
stroke:#000000; stroke-width:1.0155; stroke-opacity:1; 
stroke-linecap:round; stroke-linejoin:round;fill:none"
d="M 40.8117,92.0311
40.8117,84.8505
33.6312,84.8505
33.6312,92.0311
Z" /> 
<path style="fill:#000000; fill-opacity:0.0; 
stroke:#000000; stroke-width:1.0155; stroke-opacity:1; 
stroke-linecap:round; stroke-linejoin:round;fill:none"
d="M 94.8189,41.1300
94.8189,33.9494
87.6384,33.9494
87.6384,41.1300
Z" /> 
<path style="fill:#000000; fill-opacity:0.0; 
stroke:#000000; stroke-width:1.0155; stroke-opacity:1; 
stroke-linecap:round; stroke-linejoin:round;fill:none"
d="M 94.8189,92.0311
94.8189,84.8505
87.6384,84.8505
87.6384,92.0311
Z" /> 
<path style="fill:#000000; fill-opacity:0.0; 
stroke:#000000; stroke-width:1.0155; stroke-opacity:1; 
stroke-linecap:round; stroke-linejoin:round;fill:none"
d="M 148.8261,41.1300
148.8261,33.9494
141.6456,33.9494
141.6456,41.1300
Z" /> 
<path style="fill:#000000; fill-opacity:0.0; 
stroke:#000000; stroke-width:1.0155; stroke-opacity:1; 
stroke-linecap:round; stroke-linejoin:round;fill:none"
d="M 148.8261,92.0311
148.8261,84.8505
141.6456,84.8505
141.6456,92.0311
Z" /> 
<path style="fill:#000000; fill-opacity:0.0; 
stroke:#000000; stroke-width:1.0155; stroke-opacity:1; 
stroke-linecap:round; stroke-linejoin:round;fill:none"
d="M 202.6446,41.1300
202.6446,33.9494
195.4640,33.9494
195.4640,41.1300
Z" /> 
<path style="fill:#000000; fill-opacity:0.0; 
stroke:#000000; stroke-width:1.0155; stroke-opacity:1; 
stroke-linecap:round; stroke-linejoin:round;fill:none"
d="M 202.6446,92.0311
202.6446,84.8505
195.4640,84.8505
195.4640,92.0311
Z" /> 
</g>
<g style="fill:#000000; fill-opacity:0.0; 
stroke:#000000; stroke-width:0.5973; stroke-opacity:1; 
stroke-linecap:round; stroke-linejoin:round;">
</g>
<g style="fill:#000000; fill-opacity:0.0; 
stroke:#000000; stroke-width:0.2000; stroke-opacity:1; 
stroke-linecap:round; stroke-linejoin:round;">
<text x="12.0000" y="117.3583"
textLength="14.8667" font-size="2.6667" lengthAdjust="spacingAndGlyphs"
text-anchor="start" opacity="0">Drill Map:</text>
<g class="stroked-text"><desc>Drill Map:</desc>
<path d="M12.6078 117.2731
L12.6078 115.2731
" />
<path d="M12.6078 115.2731
L13.0840 115.2731
" />
<path d="M13.0840 115.2731
L13.3697 115.3684
" />
<path d="M13.3697 115.3684
L13.5602 115.5588
" />
<path d="M13.5602 115.5588
L13.6554 115.7493
" />
<path d="M13.6554 115.7493
L13.7506 116.1303
" />
<path d="M13.7506 116.1303
L13.7506 116.4160
" />
<path d="M13.7506 116.4160
L13.6554 116.7969
" />
<path d="M13.6554 116.7969
L13.5602 116.9874
" />
<path d="M13.5602 116.9874
L13.3697 117.1779
" />
<path d="M13.3697 117.1779
L13.0840 117.2731
" />
<path d="M13.0840 117.2731
L12.6078 117.2731
" />
<path d="M14.6078 117.2731
L14.6078 115.9398
" />
<path d="M14.6078 116.3207
L14.7030 116.1303
" />
<path d="M14.7030 116.1303
L14.7982 116.0350
" />
<path d="M14.7982 116.0350
L14.9887 115.9398
" />
<path d="M14.9887 115.9398
L15.1792 115.9398
" />
<path d="M15.8459 117.2731
L15.8459 115.9398
" />
<path d="M15.8459 115.2731
L15.7506 115.3684
" />
<path d="M15.7506 115.3684
L15.8459 115.4636
" />
<path d="M15.8459 115.4636
L15.9411 115.3684
" />
<path d="M15.9411 115.3684
L15.8459 115.2731
" />
<path d="M15.8459 115.2731
L15.8459 115.4636
" />
<path d="M17.0840 117.2731
L16.8935 117.1779
" />
<path d="M16.8935 117.1779
L16.7982 116.9874
" />
<path d="M16.7982 116.9874
L16.7982 115.2731
" />
<path d="M18.1316 117.2731
L17.9411 117.1779
" />
<path d="M17.9411 117.1779
L17.8459 116.9874
" />
<path d="M17.8459 116.9874
L17.8459 115.2731
" />
<path d="M20.4173 117.2731
L20.4173 115.2731
" />
<path d="M20.4173 115.2731
L21.0840 116.7017
" />
<path d="M21.0840 116.7017
L21.7506 115.2731
" />
<path d="M21.7506 115.2731
L21.7506 117.2731
" />
<path d="M23.5602 117.2731
L23.5602 116.2255
" />
<path d="M23.5602 116.2255
L23.4649 116.0350
" />
<path d="M23.4649 116.0350
L23.2744 115.9398
" />
<path d="M23.2744 115.9398
L22.8935 115.9398
" />
<path d="M22.8935 115.9398
L22.7030 116.0350
" />
<path d="M23.5602 117.1779
L23.3697 117.2731
" />
<path d="M23.3697 117.2731
L22.8935 117.2731
" />
<path d="M22.8935 117.2731
L22.7030 117.1779
" />
<path d="M22.7030 117.1779
L22.6078 116.9874
" />
<path d="M22.6078 116.9874
L22.6078 116.7969
" />
<path d="M22.6078 116.7969
L22.7030 116.6065
" />
<path d="M22.7030 116.6065
L22.8935 116.5112
" />
<path d="M22.8935 116.5112
L23.3697 116.5112
" />
<path d="M23.3697 116.5112
L23.5602 116.4160
" />
<path d="M24.5125 115.9398
L24.5125 117.9398
" />
<path d="M24.5125 116.0350
L24.7030 115.9398
" />
<path d="M24.7030 115.9398
L25.0840 115.9398
" />
<path d="M25.0840 115.9398
L25.2744 116.0350
" />
<path d="M25.2744 116.0350
L25.3697 116.1303
" />
<path d="M25.3697 116.1303
L25.4649 116.3207
" />
<path d="M25.4649 116.3207
L25.4649 116.8922
" />
<path d="M25.4649 116.8922
L25.3697 117.0827
" />
<path d="M25.3697 117.0827
L25.2744 117.1779
" />
<path d="M25.2744 117.1779
L25.0840 117.2731
" />
<path d="M25.0840 117.2731
L24.7030 117.2731
" />
<path d="M24.7030 117.2731
L24.5125 117.1779
" />
<path d="M26.3221 117.0827
L26.4173 117.1779
" />
<path d="M26.4173 117.1779
L26.3221 117.2731
" />
<path d="M26.3221 117.2731
L26.2268 117.1779
" />
<path d="M26.2268 117.1779
L26.3221 117.0827
" />
<path d="M26.3221 117.0827
L26.3221 117.2731
" />
<path d="M26.3221 116.0350
L26.4173 116.1303
" />
<path d="M26.4173 116.1303
L26.3221 116.2255
" />
<path d="M26.3221 116.2255
L26.2268 116.1303
" />
<path d="M26.2268 116.1303
L26.3221 116.0350
" />
<path d="M26.3221 116.0350
L26.3221 116.2255
" />
</g></g>
<g style="fill:#000000; fill-opacity:0.0; 
stroke:#000000; stroke-width:0.2000; stroke-opacity:1; 
stroke-linecap:round; stroke-linejoin:round;">
<path d="M8.0000 119.5583
L10.0000 121.5583
" />
<path d="M10.0000 119.5583
L8.0000 121.5583
" />
</g>
<g style="fill:#000000; fill-opacity:0.0; 
stroke:#000000; stroke-width:0.5973; stroke-opacity:1; 
stroke-linecap:round; stroke-linejoin:round;">
</g>
<g style="fill:#000000; fill-opacity:0.0; 
stroke:#000000; stroke-width:0.2000; stroke-opacity:1; 
stroke-linecap:round; stroke-linejoin:round;">
<text x="12.0000" y="121.5583"
textLength="66.6762" font-size="2.6667" lengthAdjust="spacingAndGlyphs"
text-anchor="start" opacity="0">1.200mm / 0.0472" (4 holes) (not plated)</text>
<g class="stroked-text"><desc>1.200mm / 0.0472" (4 holes) (not plated)</desc>
<path d="M13.6554 121.4731
L12.5125 121.4731
" />
<path d="M13.0840 121.4731
L13.0840 119.4731
" />
<path d="M13.0840 119.4731
L12.8935 119.7588
" />
<path d="M12.8935 119.7588
L12.7030 119.9493
" />
<path d="M12.7030 119.9493
L12.5125 120.0446
" />
<path d="M14.5125 121.2827
L14.6078 121.3779
" />
<path d="M14.6078 121.3779
L14.5125 121.4731
" />
<path d="M14.5125 121.4731
L14.4173 121.3779
" />
<path d="M14.4173 121.3779
L14.5125 121.2827
" />
<path d="M14.5125 121.2827
L14.5125 121.4731
" />
<path d="M15.3697 119.6636
L15.4649 119.5684
" />
<path d="M15.4649 119.5684
L15.6554 119.4731
" />
<path d="M15.6554 119.4731
L16.1316 119.4731
" />
<path d="M16.1316 119.4731
L16.3221 119.5684
" />
<path d="M16.3221 119.5684
L16.4173 119.6636
" />
<path d="M16.4173 119.6636
L16.5125 119.8541
" />
<path d="M16.5125 119.8541
L16.5125 120.0446
" />
<path d="M16.5125 120.0446
L16.4173 120.3303
" />
<path d="M16.4173 120.3303
L15.2744 121.4731
" />
<path d="M15.2744 121.4731
L16.5125 121.4731
" />
<path d="M17.7506 119.4731
L17.9411 119.4731
" />
<path d="M17.9411 119.4731
L18.1316 119.5684
" />
<path d="M18.1316 119.5684
L18.2268 119.6636
" />
<path d="M18.2268 119.6636
L18.3221 119.8541
" />
<path d="M18.3221 119.8541
L18.4173 120.2350
" />
<path d="M18.4173 120.2350
L18.4173 120.7112
" />
<path d="M18.4173 120.7112
L18.3221 121.0922
" />
<path d="M18.3221 121.0922
L18.2268 121.2827
" />
<path d="M18.2268 121.2827
L18.1316 121.3779
" />
<path d="M18.1316 121.3779
L17.9411 121.4731
" />
<path d="M17.9411 121.4731
L17.7506 121.4731
" />
<path d="M17.7506 121.4731
L17.5602 121.3779
" />
<path d="M17.5602 121.3779
L17.4649 121.2827
" />
<path d="M17.4649 121.2827
L17.3697 121.0922
" />
<path d="M17.3697 121.0922
L17.2744 120.7112
" />
<path d="M17.2744 120.7112
L17.2744 120.2350
" />
<path d="M17.2744 120.2350
L17.3697 119.8541
" />
<path d="M17.3697 119.8541
L17.4649 119.6636
" />
<path d="M17.4649 119.6636
L17.5602 119.5684
" />
<path d="M17.5602 119.5684
L17.7506 119.4731
" />
<path d="M19.6554 119.4731
L19.8459 119.4731
" />
<path d="M19.8459 119.4731
L20.0363 119.5684
" />
<path d="M20.0363 119.5684
L20.1316 119.6636
" />
<path d="M20.1316 119.6636
L20.2268 119.8541
" />
<path d="M20.2268 119.8541
L20.3221 120.2350
" />
<path d="M20.3221 120.2350
L20.3221 120.7112
" />
<path d="M20.3221 120.7112
L20.2268 121.0922
" />
<path d="M20.2268 121.0922
L20.1316 121.2827
" />
<path d="M20.1316 121.2827
L20.0363 121.3779
" />
<path d="M20.0363 121.3779
L19.8459 121.4731
" />
<path d="M19.8459 121.4731
L19.6554 121.4731
" />
<path d="M19.6554 121.4731
L19.4649 121.3779
" />
<path d="M19.4649 121.3779
L19.3697 121.2827
" />
<path d="M19.3697 121.2827
L19.2744 121.0922
" />
<path d="M19.2744 121.0922
L19.1792 120.7112
" />
<path d="M19.1792 120.7112
L19.1792 120.2350
" />
<path d="M19.1792 120.2350
L19.2744 119.8541
" />
<path d="M19.2744 119.8541
L19.3697 119.6636
" />
<path d="M19.3697 119.6636
L19.4649 119.5684
" />
<path d="M19.4649 119.5684
L19.6554 119.4731
" />
<path d="M21.1792 121.4731
L21.1792 120.1398
" />
<path d="M21.1792 120.3303
L21.2744 120.2350
" />
<path d="M21.2744 120.2350
L21.4649 120.1398
" />
<path d="M21.4649 120.1398
L21.7506 120.1398
" />
<path d="M21.7506 120.1398
L21.9411 120.2350
" />
<path d="M21.9411 120.2350
L22.0363 120.4255
" />
<path d="M22.0363 120.4255
L22.0363 121.4731
" />
<path d="M22.0363 120.4255
L22.1316 120.2350
" />
<path d="M22.1316 120.2350
L22.3221 120.1398
" />
<path d="M22.3221 120.1398
L22.6078 120.1398
" />
<path d="M22.6078 120.1398
L22.7983 120.2350
" />
<path d="M22.7983 120.2350
L22.8935 120.4255
" />
<path d="M22.8935 120.4255
L22.8935 121.4731
" />
<path d="M23.8459 121.4731
L23.8459 120.1398
" />
<path d="M23.8459 120.3303
L23.9411 120.2350
" />
<path d="M23.9411 120.2350
L24.1316 120.1398
" />
<path d="M24.1316 120.1398
L24.4173 120.1398
" />
<path d="M24.4173 120.1398
L24.6078 120.2350
" />
<path d="M24.6078 120.2350
L24.7030 120.4255
" />
<path d="M24.7030 120.4255
L24.7030 121.4731
" />
<path d="M24.7030 120.4255
L24.7983 120.2350
" />
<path d="M24.7983 120.2350
L24.9887 120.1398
" />
<path d="M24.9887 120.1398
L25.2744 120.1398
" />
<path d="M25.2744 120.1398
L25.4649 120.2350
" />
<path d="M25.4649 120.2350
L25.5602 120.4255
" />
<path d="M25.5602 120.4255
L25.5602 121.4731
" />
<path d="M29.4649 119.3779
L27.7506 121.9493
" />
<path d="M32.0364 119.4731
L32.2268 119.4731
" />
<path d="M32.2268 119.4731
L32.4173 119.5684
" />
<path d="M32.4173 119.5684
L32.5125 119.6636
" />
<path d="M32.5125 119.6636
L32.6078 119.8541
" />
<path d="M32.6078 119.8541
L32.7030 120.2350
" />
<path d="M32.7030 120.2350
L32.7030 120.7112
" />
<path d="M32.7030 120.7112
L32.6078 121.0922
" />
<path d="M32.6078 121.0922
L32.5125 121.2827
" />
<path d="M32.5125 121.2827
L32.4173 121.3779
" />
<path d="M32.4173 121.3779
L32.2268 121.4731
" />
<path d="M32.2268 121.4731
L32.0364 121.4731
" />
<path d="M32.0364 121.4731
L31.8459 121.3779
" />
<path d="M31.8459 121.3779
L31.7506 121.2827
" />
<path d="M31.7506 121.2827
L31.6554 121.0922
" />
<path d="M31.6554 121.0922
L31.5602 120.7112
" />
<path d="M31.5602 120.7112
L31.5602 120.2350
" />
<path d="M31.5602 120.2350
L31.6554 119.8541
" />
<path d="M31.6554 119.8541
L31.7506 119.6636
" />
<path d="M31.7506 119.6636
L31.8459 119.5684
" />
<path d="M31.8459 119.5684
L32.0364 119.4731
" />
<path d="M33.5602 121.2827
L33.6554 121.3779
" />
<path d="M33.6554 121.3779
L33.5602 121.4731
" />
<path d="M33.5602 121.4731
L33.4649 121.3779
" />
<path d="M33.4649 121.3779
L33.5602 121.2827
" />
<path d="M33.5602 121.2827
L33.5602 121.4731
" />
<path d="M34.8935 119.4731
L35.0840 119.4731
" />
<path d="M35.0840 119.4731
L35.2745 119.5684
" />
<path d="M35.2745 119.5684
L35.3697 119.6636
" />
<path d="M35.3697 119.6636
L35.4649 119.8541
" />
<path d="M35.4649 119.8541
L35.5602 120.2350
" />
<path d="M35.5602 120.2350
L35.5602 120.7112
" />
<path d="M35.5602 120.7112
L35.4649 121.0922
" />
<path d="M35.4649 121.0922
L35.3697 121.2827
" />
<path d="M35.3697 121.2827
L35.2745 121.3779
" />
<path d="M35.2745 121.3779
L35.0840 121.4731
" />
<path d="M35.0840 121.4731
L34.8935 121.4731
" />
<path d="M34.8935 121.4731
L34.7030 121.3779
" />
<path d="M34.7030 121.3779
L34.6078 121.2827
" />
<path d="M34.6078 121.2827
L34.5125 121.0922
" />
<path d="M34.5125 121.0922
L34.4173 120.7112
" />
<path d="M34.4173 120.7112
L34.4173 120.2350
" />
<path d="M34.4173 120.2350
L34.5125 119.8541
" />
<path d="M34.5125 119.8541
L34.6078 119.6636
" />
<path d="M34.6078 119.6636
L34.7030 119.5684
" />
<path d="M34.7030 119.5684
L34.8935 119.4731
" />
<path d="M37.2745 120.1398
L37.2745 121.4731
" />
<path d="M36.7983 119.3779
L36.3221 120.8065
" />
<path d="M36.3221 120.8065
L37.5602 120.8065
" />
<path d="M38.1316 119.4731
L39.4649 119.4731
" />
<path d="M39.4649 119.4731
L38.6078 121.4731
" />
<path d="M40.1316 119.6636
L40.2268 119.5684
" />
<path d="M40.2268 119.5684
L40.4173 119.4731
" />
<path d="M40.4173 119.4731
L40.8935 119.4731
" />
<path d="M40.8935 119.4731
L41.0840 119.5684
" />
<path d="M41.0840 119.5684
L41.1792 119.6636
" />
<path d="M41.1792 119.6636
L41.2745 119.8541
" />
<path d="M41.2745 119.8541
L41.2745 120.0446
" />
<path d="M41.2745 120.0446
L41.1792 120.3303
" />
<path d="M41.1792 120.3303
L40.0364 121.4731
" />
<path d="M40.0364 121.4731
L41.2745 121.4731
" />
<path d="M42.0364 119.4731
L42.0364 119.8541
" />
<path d="M42.7983 119.4731
L42.7983 119.8541
" />
<path d="M45.7507 122.2350
L45.6554 122.1398
" />
<path d="M45.6554 122.1398
L45.4649 121.8541
" />
<path d="M45.4649 121.8541
L45.3697 121.6636
" />
<path d="M45.3697 121.6636
L45.2745 121.3779
" />
<path d="M45.2745 121.3779
L45.1792 120.9017
" />
<path d="M45.1792 120.9017
L45.1792 120.5207
" />
<path d="M45.1792 120.5207
L45.2745 120.0446
" />
<path d="M45.2745 120.0446
L45.3697 119.7588
" />
<path d="M45.3697 119.7588
L45.4649 119.5684
" />
<path d="M45.4649 119.5684
L45.6554 119.2827
" />
<path d="M45.6554 119.2827
L45.7507 119.1874
" />
<path d="M47.3697 120.1398
L47.3697 121.4731
" />
<path d="M46.8935 119.3779
L46.4173 120.8065
" />
<path d="M46.4173 120.8065
L47.6554 120.8065
" />
<path d="M49.9411 121.4731
L49.9411 119.4731
" />
<path d="M50.7983 121.4731
L50.7983 120.4255
" />
<path d="M50.7983 120.4255
L50.7030 120.2350
" />
<path d="M50.7030 120.2350
L50.5126 120.1398
" />
<path d="M50.5126 120.1398
L50.2268 120.1398
" />
<path d="M50.2268 120.1398
L50.0364 120.2350
" />
<path d="M50.0364 120.2350
L49.9411 120.3303
" />
<path d="M52.0364 121.4731
L51.8459 121.3779
" />
<path d="M51.8459 121.3779
L51.7507 121.2827
" />
<path d="M51.7507 121.2827
L51.6554 121.0922
" />
<path d="M51.6554 121.0922
L51.6554 120.5207
" />
<path d="M51.6554 120.5207
L51.7507 120.3303
" />
<path d="M51.7507 120.3303
L51.8459 120.2350
" />
<path d="M51.8459 120.2350
L52.0364 120.1398
" />
<path d="M52.0364 120.1398
L52.3221 120.1398
" />
<path d="M52.3221 120.1398
L52.5126 120.2350
" />
<path d="M52.5126 120.2350
L52.6078 120.3303
" />
<path d="M52.6078 120.3303
L52.7030 120.5207
" />
<path d="M52.7030 120.5207
L52.7030 121.0922
" />
<path d="M52.7030 121.0922
L52.6078 121.2827
" />
<path d="M52.6078 121.2827
L52.5126 121.3779
" />
<path d="M52.5126 121.3779
L52.3221 121.4731
" />
<path d="M52.3221 121.4731
L52.0364 121.4731
" />
<path d="M53.8459 121.4731
L53.6554 121.3779
" />
<path d="M53.6554 121.3779
L53.5602 121.1874
" />
<path d="M53.5602 121.1874
L53.5602 119.4731
" />
<path d="M55.3697 121.3779
L55.1792 121.4731
" />
<path d="M55.1792 121.4731
L54.7983 121.4731
" />
<path d="M54.7983 121.4731
L54.6078 121.3779
" />
<path d="M54.6078 121.3779
L54.5126 121.1874
" />
<path d="M54.5126 121.1874
L54.5126 120.4255
" />
<path d="M54.5126 120.4255
L54.6078 120.2350
" />
<path d="M54.6078 120.2350
L54.7983 120.1398
" />
<path d="M54.7983 120.1398
L55.1792 120.1398
" />
<path d="M55.1792 120.1398
L55.3697 120.2350
" />
<path d="M55.3697 120.2350
L55.4649 120.4255
" />
<path d="M55.4649 120.4255
L55.4649 120.6160
" />
<path d="M55.4649 120.6160
L54.5126 120.8065
" />
<path d="M56.2268 121.3779
L56.4173 121.4731
" />
<path d="M56.4173 121.4731
L56.7983 121.4731
" />
<path d="M56.7983 121.4731
L56.9888 121.3779
" />
<path d="M56.9888 121.3779
L57.0840 121.1874
" />
<path d="M57.0840 121.1874
L57.0840 121.0922
" />
<path d="M57.0840 121.0922
L56.9888 120.9017
" />
<path d="M56.9888 120.9017
L56.7983 120.8065
" />
<path d="M56.7983 120.8065
L56.5126 120.8065
" />
<path d="M56.5126 120.8065
L56.3221 120.7112
" />
<path d="M56.3221 120.7112
L56.2268 120.5207
" />
<path d="M56.2268 120.5207
L56.2268 120.4255
" />
<path d="M56.2268 120.4255
L56.3221 120.2350
" />
<path d="M56.3221 120.2350
L56.5126 120.1398
" />
<path d="M56.5126 120.1398
L56.7983 120.1398
" />
<path d="M56.7983 120.1398
L56.9888 120.2350
" />
<path d="M57.7507 122.2350
L57.8459 122.1398
" />
<path d="M57.8459 122.1398
L58.0364 121.8541
" />
<path d="M58.0364 121.8541
L58.1316 121.6636
" />
<path d="M58.1316 121.6636
L58.2268 121.3779
" />
<path d="M58.2268 121.3779
L58.3221 120.9017
" />
<path d="M58.3221 120.9017
L58.3221 120.5207
" />
<path d="M58.3221 120.5207
L58.2268 120.0446
" />
<path d="M58.2268 120.0446
L58.1316 119.7588
" />
<path d="M58.1316 119.7588
L58.0364 119.5684
" />
<path d="M58.0364 119.5684
L57.8459 119.2827
" />
<path d="M57.8459 119.2827
L57.7507 119.1874
" />
<path d="M61.3697 122.2350
L61.2745 122.1398
" />
<path d="M61.2745 122.1398
L61.0840 121.8541
" />
<path d="M61.0840 121.8541
L60.9888 121.6636
" />
<path d="M60.9888 121.6636
L60.8935 121.3779
" />
<path d="M60.8935 121.3779
L60.7983 120.9017
" />
<path d="M60.7983 120.9017
L60.7983 120.5207
" />
<path d="M60.7983 120.5207
L60.8935 120.0446
" />
<path d="M60.8935 120.0446
L60.9888 119.7588
" />
<path d="M60.9888 119.7588
L61.0840 119.5684
" />
<path d="M61.0840 119.5684
L61.2745 119.2827
" />
<path d="M61.2745 119.2827
L61.3697 119.1874
" />
<path d="M62.1316 120.1398
L62.1316 121.4731
" />
<path d="M62.1316 120.3303
L62.2269 120.2350
" />
<path d="M62.2269 120.2350
L62.4173 120.1398
" />
<path d="M62.4173 120.1398
L62.7030 120.1398
" />
<path d="M62.7030 120.1398
L62.8935 120.2350
" />
<path d="M62.8935 120.2350
L62.9888 120.4255
" />
<path d="M62.9888 120.4255
L62.9888 121.4731
" />
<path d="M64.2269 121.4731
L64.0364 121.3779
" />
<path d="M64.0364 121.3779
L63.9411 121.2827
" />
<path d="M63.9411 121.2827
L63.8459 121.0922
" />
<path d="M63.8459 121.0922
L63.8459 120.5207
" />
<path d="M63.8459 120.5207
L63.9411 120.3303
" />
<path d="M63.9411 120.3303
L64.0364 120.2350
" />
<path d="M64.0364 120.2350
L64.2269 120.1398
" />
<path d="M64.2269 120.1398
L64.5126 120.1398
" />
<path d="M64.5126 120.1398
L64.7030 120.2350
" />
<path d="M64.7030 120.2350
L64.7983 120.3303
" />
<path d="M64.7983 120.3303
L64.8935 120.5207
" />
<path d="M64.8935 120.5207
L64.8935 121.0922
" />
<path d="M64.8935 121.0922
L64.7983 121.2827
" />
<path d="M64.7983 121.2827
L64.7030 121.3779
" />
<path d="M64.7030 121.3779
L64.5126 121.4731
" />
<path d="M64.5126 121.4731
L64.2269 121.4731
" />
<path d="M65.4649 120.1398
L66.2269 120.1398
" />
<path d="M65.7507 119.4731
L65.7507 121.1874
" />
<path d="M65.7507 121.1874
L65.8459 121.3779
" />
<path d="M65.8459 121.3779
L66.0364 121.4731
" />
<path d="M66.0364 121.4731
L66.2269 121.4731
" />
<path d="M68.4173 120.1398
L68.4173 122.1398
" />
<path d="M68.4173 120.2350
L68.6078 120.1398
" />
<path d="M68.6078 120.1398
L68.9888 120.1398
" />
<path d="M68.9888 120.1398
L69.1792 120.2350
" />
<path d="M69.1792 120.2350
L69.2745 120.3303
" />
<path d="M69.2745 120.3303
L69.3697 120.5207
" />
<path d="M69.3697 120.5207
L69.3697 121.0922
" />
<path d="M69.3697 121.0922
L69.2745 121.2827
" />
<path d="M69.2745 121.2827
L69.1792 121.3779
" />
<path d="M69.1792 121.3779
L68.9888 121.4731
" />
<path d="M68.9888 121.4731
L68.6078 121.4731
" />
<path d="M68.6078 121.4731
L68.4173 121.3779
" />
<path d="M70.5126 121.4731
L70.3221 121.3779
" />
<path d="M70.3221 121.3779
L70.2269 121.1874
" />
<path d="M70.2269 121.1874
L70.2269 119.4731
" />
<path d="M72.1316 121.4731
L72.1316 120.4255
" />
<path d="M72.1316 120.4255
L72.0364 120.2350
" />
<path d="M72.0364 120.2350
L71.8459 120.1398
" />
<path d="M71.8459 120.1398
L71.4650 120.1398
" />
<path d="M71.4650 120.1398
L71.2745 120.2350
" />
<path d="M72.1316 121.3779
L71.9411 121.4731
" />
<path d="M71.9411 121.4731
L71.4650 121.4731
" />
<path d="M71.4650 121.4731
L71.2745 121.3779
" />
<path d="M71.2745 121.3779
L71.1792 121.1874
" />
<path d="M71.1792 121.1874
L71.1792 120.9969
" />
<path d="M71.1792 120.9969
L71.2745 120.8065
" />
<path d="M71.2745 120.8065
L71.4650 120.7112
" />
<path d="M71.4650 120.7112
L71.9411 120.7112
" />
<path d="M71.9411 120.7112
L72.1316 120.6160
" />
<path d="M72.7983 120.1398
L73.5602 120.1398
" />
<path d="M73.0840 119.4731
L73.0840 121.1874
" />
<path d="M73.0840 121.1874
L73.1792 121.3779
" />
<path d="M73.1792 121.3779
L73.3697 121.4731
" />
<path d="M73.3697 121.4731
L73.5602 121.4731
" />
<path d="M74.9888 121.3779
L74.7983 121.4731
" />
<path d="M74.7983 121.4731
L74.4173 121.4731
" />
<path d="M74.4173 121.4731
L74.2269 121.3779
" />
<path d="M74.2269 121.3779
L74.1316 121.1874
" />
<path d="M74.1316 121.1874
L74.1316 120.4255
" />
<path d="M74.1316 120.4255
L74.2269 120.2350
" />
<path d="M74.2269 120.2350
L74.4173 120.1398
" />
<path d="M74.4173 120.1398
L74.7983 120.1398
" />
<path d="M74.7983 120.1398
L74.9888 120.2350
" />
<path d="M74.9888 120.2350
L75.0840 120.4255
" />
<path d="M75.0840 120.4255
L75.0840 120.6160
" />
<path d="M75.0840 120.6160
L74.1316 120.8065
" />
<path d="M76.7983 121.4731
L76.7983 119.4731
" />
<path d="M76.7983 121.3779
L76.6078 121.4731
" />
<path d="M76.6078 121.4731
L76.2269 121.4731
" />
<path d="M76.2269 121.4731
L76.0364 121.3779
" />
<path d="M76.0364 121.3779
L75.9411 121.2827
" />
<path d="M75.9411 121.2827
L75.8459 121.0922
" />
<path d="M75.8459 121.0922
L75.8459 120.5207
" />
<path d="M75.8459 120.5207
L75.9411 120.3303
" />
<path d="M75.9411 120.3303
L76.0364 120.2350
" />
<path d="M76.0364 120.2350
L76.2269 120.1398
" />
<path d="M76.2269 120.1398
L76.6078 120.1398
" />
<path d="M76.6078 120.1398
L76.7983 120.2350
" />
<path d="M77.5602 122.2350
L77.6554 122.1398
" />
<path d="M77.6554 122.1398
L77.8459 121.8541
" />
<path d="M77.8459 121.8541
L77.9411 121.6636
" />
<path d="M77.9411 121.6636
L78.0364 121.3779
" />
<path d="M78.0364 121.3779
L78.1316 120.9017
" />
<path d="M78.1316 120.9017
L78.1316 120.5207
" />
<path d="M78.1316 120.5207
L78.0364 120.0446
" />
<path d="M78.0364 120.0446
L77.9411 119.7588
" />
<path d="M77.9411 119.7588
L77.8459 119.5684
" />
<path d="M77.8459 119.5684
L77.6554 119.2827
" />
<path d="M77.6554 119.2827
L77.5602 119.1874
" />
</g></g>
<g style="fill:#000000; fill-opacity:0.0; 
stroke:#000000; stroke-width:0.2000; stroke-opacity:1; 
stroke-linecap:round; stroke-linejoin:round;">
<circle cx="9.0000" cy="123.7583" r="1.0000" /> 
</g>
<g style="fill:#000000; fill-opacity:0.0; 
stroke:#000000; stroke-width:0.5973; stroke-opacity:1; 
stroke-linecap:round; stroke-linejoin:round;">
</g>
<g style="fill:#000000; fill-opacity:0.0; 
stroke:#000000; stroke-width:0.2000; stroke-opacity:1; 
stroke-linecap:round; stroke-linejoin:round;">
<text x="12.0000" y="124.7583"
textLength="68.5810" font-size="2.6667" lengthAdjust="spacingAndGlyphs"
text-anchor="start" opacity="0">1.700mm / 0.0669" (16 holes) (not plated)</text>
<g class="stroked-text"><desc>1.700mm / 0.0669" (16 holes) (not plated)</desc>
<path d="M13.6554 124.6731
L12.5125 124.6731
" />
<path d="M13.0840 124.6731
L13.0840 122.6731
" />
<path d="M13.0840 122.6731
L12.8935 122.9588
" />
<path d="M12.8935 122.9588
L12.7030 123.1493
" />
<path d="M12.7030 123.1493
L12.5125 123.2446
" />
<path d="M14.5125 124.4827
L14.6078 124.5779
" />
<path d="M14.6078 124.5779
L14.5125 124.6731
" />
<path d="M14.5125 124.6731
L14.4173 124.5779
" />
<path d="M14.4173 124.5779
L14.5125 124.4827
" />
<path d="M14.5125 124.4827
L14.5125 124.6731
" />
<path d="M15.2744 122.6731
L16.6078 122.6731
" />
<path d="M16.6078 122.6731
L15.7506 124.6731
" />
<path d="M17.7506 122.6731
L17.9411 122.6731
" />
<path d="M17.9411 122.6731
L18.1316 122.7684
" />
<path d="M18.1316 122.7684
L18.2268 122.8636
" />
<path d="M18.2268 122.8636
L18.3221 123.0541
" />
<path d="M18.3221 123.0541
L18.4173 123.4350
" />
<path d="M18.4173 123.4350
L18.4173 123.9112
" />
<path d="M18.4173 123.9112
L18.3221 124.2922
" />
<path d="M18.3221 124.2922
L18.2268 124.4827
" />
<path d="M18.2268 124.4827
L18.1316 124.5779
" />
<path d="M18.1316 124.5779
L17.9411 124.6731
" />
<path d="M17.9411 124.6731
L17.7506 124.6731
" />
<path d="M17.7506 124.6731
L17.5602 124.5779
" />
<path d="M17.5602 124.5779
L17.4649 124.4827
" />
<path d="M17.4649 124.4827
L17.3697 124.2922
" />
<path d="M17.3697 124.2922
L17.2744 123.9112
" />
<path d="M17.2744 123.9112
L17.2744 123.4350
" />
<path d="M17.2744 123.4350
L17.3697 123.0541
" />
<path d="M17.3697 123.0541
L17.4649 122.8636
" />
<path d="M17.4649 122.8636
L17.5602 122.7684
" />
<path d="M17.5602 122.7684
L17.7506 122.6731
" />
<path d="M19.6554 122.6731
L19.8459 122.6731
" />
<path d="M19.8459 122.6731
L20.0363 122.7684
" />
<path d="M20.0363 122.7684
L20.1316 122.8636
" />
<path d="M20.1316 122.8636
L20.2268 123.0541
" />
<path d="M20.2268 123.0541
L20.3221 123.4350
" />
<path d="M20.3221 123.4350
L20.3221 123.9112
" />
<path d="M20.3221 123.9112
L20.2268 124.2922
" />
<path d="M20.2268 124.2922
L20.1316 124.4827
" />
<path d="M20.1316 124.4827
L20.0363 124.5779
" />
<path d="M20.0363 124.5779
L19.8459 124.6731
" />
<path d="M19.8459 124.6731
L19.6554 124.6731
" />
<path d="M19.6554 124.6731
L19.4649 124.5779
" />
<path d="M19.4649 124.5779
L19.3697 124.4827
" />
<path d="M19.3697 124.4827
L19.2744 124.2922
" />
<path d="M19.2744 124.2922
L19.1792 123.9112
" />
<path d="M19.1792 123.9112
L19.1792 123.4350
" />
<path d="M19.1792 123.4350
L19.2744 123.0541
" />
<path d="M19.2744 123.0541
L19.3697 122.8636
" />
<path d="M19.3697 122.8636
L19.4649 122.7684
" />
<path d="M19.4649 122.7684
L19.6554 122.6731
" />
<path d="M21.1792 124.6731
L21.1792 123.3398
" />
<path d="M21.1792 123.5303
L21.2744 123.4350
" />
<path d="M21.2744 123.4350
L21.4649 123.3398
" />
<path d="M21.4649 123.3398
L21.7506 123.3398
" />
<path d="M21.7506 123.3398
L21.9411 123.4350
" />
<path d="M21.9411 123.4350
L22.0363 123.6255
" />
<path d="M22.0363 123.6255
L22.0363 124.6731
" />
<path d="M22.0363 123.6255
L22.1316 123.4350
" />
<path d="M22.1316 123.4350
L22.3221 123.3398
" />
<path d="M22.3221 123.3398
L22.6078 123.3398
" />
<path d="M22.6078 123.3398
L22.7983 123.4350
" />
<path d="M22.7983 123.4350
L22.8935 123.6255
" />
<path d="M22.8935 123.6255
L22.8935 124.6731
" />
<path d="M23.8459 124.6731
L23.8459 123.3398
" />
<path d="M23.8459 123.5303
L23.9411 123.4350
" />
<path d="M23.9411 123.4350
L24.1316 123.3398
" />
<path d="M24.1316 123.3398
L24.4173 123.3398
" />
<path d="M24.4173 123.3398
L24.6078 123.4350
" />
<path d="M24.6078 123.4350
L24.7030 123.6255
" />
<path d="M24.7030 123.6255
L24.7030 124.6731
" />
<path d="M24.7030 123.6255
L24.7983 123.4350
" />
<path d="M24.7983 123.4350
L24.9887 123.3398
" />
<path d="M24.9887 123.3398
L25.2744 123.3398
" />
<path d="M25.2744 123.3398
L25.4649 123.4350
" />
<path d="M25.4649 123.4350
L25.5602 123.6255
" />
<path d="M25.5602 123.6255
L25.5602 124.6731
" />
<path d="M29.4649 122.5779
L27.7506 125.1493
" />
<path d="M32.0364 122.6731
L32.2268 122.6731
" />
<path d="M32.2268 122.6731
L32.4173 122.7684
" />
<path d="M32.4173 122.7684
L32.5125 122.8636
" />
<path d="M32.5125 122.8636
L32.6078 123.0541
" />
<path d="M32.6078 123.0541
L32.7030 123.4350
" />
<path d="M32.7030 123.4350
L32.7030 123.9112
" />
<path d="M32.7030 123.9112
L32.6078 124.2922
" />
<path d="M32.6078 124.2922
L32.5125 124.4827
" />
<path d="M32.5125 124.4827
L32.4173 124.5779
" />
<path d="M32.4173 124.5779
L32.2268 124.6731
" />
<path d="M32.2268 124.6731
L32.0364 124.6731
" />
<path d="M32.0364 124.6731
L31.8459 124.5779
" />
<path d="M31.8459 124.5779
L31.7506 124.4827
" />
<path d="M31.7506 124.4827
L31.6554 124.2922
" />
<path d="M31.6554 124.2922
L31.5602 123.9112
" />
<path d="M31.5602 123.9112
L31.5602 123.4350
" />
<path d="M31.5602 123.4350
L31.6554 123.0541
" />
<path d="M31.6554 123.0541
L31.7506 122.8636
" />
<path d="M31.7506 122.8636
L31.8459 122.7684
" />
<path d="M31.8459 122.7684
L32.0364 122.6731
" />
<path d="M33.5602 124.4827
L33.6554 124.5779
" />
<path d="M33.6554 124.5779
L33.5602 124.6731
" />
<path d="M33.5602 124.6731
L33.4649 124.5779
" />
<path d="M33.4649 124.5779
L33.5602 124.4827
" />
<path d="M33.5602 124.4827
L33.5602 124.6731
" />
<path d="M34.8935 122.6731
L35.0840 122.6731
" />
<path d="M35.0840 122.6731
L35.2745 122.7684
" />
<path d="M35.2745 122.7684
L35.3697 122.8636
" />
<path d="M35.3697 122.8636
L35.4649 123.0541
" />
<path d="M35.4649 123.0541
L35.5602 123.4350
" />
<path d="M35.5602 123.4350
L35.5602 123.9112
" />
<path d="M35.5602 123.9112
L35.4649 124.2922
" />
<path d="M35.4649 124.2922
L35.3697 124.4827
" />
<path d="M35.3697 124.4827
L35.2745 124.5779
" />
<path d="M35.2745 124.5779
L35.0840 124.6731
" />
<path d="M35.0840 124.6731
L34.8935 124.6731
" />
<path d="M34.8935 124.6731
L34.7030 124.5779
" />
<path d="M34.7030 124.5779
L34.6078 124.4827
" />
<path d="M34.6078 124.4827
L34.5125 124.2922
" />
<path d="M34.5125 124.2922
L34.4173 123.9112
" />
<path d="M34.4173 123.9112
L34.4173 123.4350
" />
<path d="M34.4173 123.4350
L34.5125 123.0541
" />
<path d="M34.5125 123.0541
L34.6078 122.8636
" />
<path d="M34.6078 122.8636
L34.7030 122.7684
" />
<path d="M34.7030 122.7684
L34.8935 122.6731
" />
<path d="M37.2745 122.6731
L36.8935 122.6731
" />
<path d="M36.8935 122.6731
L36.7030 122.7684
" />
<path d="M36.7030 122.7684
L36.6078 122.8636
" />
<path d="M36.6078 122.8636
L36.4173 123.1493
" />
<path d="M36.4173 123.1493
L36.3221 123.5303
" />
<path d="M36.3221 123.5303
L36.3221 124.2922
" />
<path d="M36.3221 124.2922
L36.4173 124.4827
" />
<path d="M36.4173 124.4827
L36.5125 124.5779
" />
<path d="M36.5125 124.5779
L36.7030 124.6731
" />
<path d="M36.7030 124.6731
L37.0840 124.6731
" />
<path d="M37.0840 124.6731
L37.2745 124.5779
" />
<path d="M37.2745 124.5779
L37.3697 124.4827
" />
<path d="M37.3697 124.4827
L37.4649 124.2922
" />
<path d="M37.4649 124.2922
L37.4649 123.8160
" />
<path d="M37.4649 123.8160
L37.3697 123.6255
" />
<path d="M37.3697 123.6255
L37.2745 123.5303
" />
<path d="M37.2745 123.5303
L37.0840 123.4350
" />
<path d="M37.0840 123.4350
L36.7030 123.4350
" />
<path d="M36.7030 123.4350
L36.5125 123.5303
" />
<path d="M36.5125 123.5303
L36.4173 123.6255
" />
<path d="M36.4173 123.6255
L36.3221 123.8160
" />
<path d="M39.1792 122.6731
L38.7983 122.6731
" />
<path d="M38.7983 122.6731
L38.6078 122.7684
" />
<path d="M38.6078 122.7684
L38.5126 122.8636
" />
<path d="M38.5126 122.8636
L38.3221 123.1493
" />
<path d="M38.3221 123.1493
L38.2268 123.5303
" />
<path d="M38.2268 123.5303
L38.2268 124.2922
" />
<path d="M38.2268 124.2922
L38.3221 124.4827
" />
<path d="M38.3221 124.4827
L38.4173 124.5779
" />
<path d="M38.4173 124.5779
L38.6078 124.6731
" />
<path d="M38.6078 124.6731
L38.9887 124.6731
" />
<path d="M38.9887 124.6731
L39.1792 124.5779
" />
<path d="M39.1792 124.5779
L39.2745 124.4827
" />
<path d="M39.2745 124.4827
L39.3697 124.2922
" />
<path d="M39.3697 124.2922
L39.3697 123.8160
" />
<path d="M39.3697 123.8160
L39.2745 123.6255
" />
<path d="M39.2745 123.6255
L39.1792 123.5303
" />
<path d="M39.1792 123.5303
L38.9887 123.4350
" />
<path d="M38.9887 123.4350
L38.6078 123.4350
" />
<path d="M38.6078 123.4350
L38.4173 123.5303
" />
<path d="M38.4173 123.5303
L38.3221 123.6255
" />
<path d="M38.3221 123.6255
L38.2268 123.8160
" />
<path d="M40.3221 124.6731
L40.7030 124.6731
" />
<path d="M40.7030 124.6731
L40.8935 124.5779
" />
<path d="M40.8935 124.5779
L40.9887 124.4827
" />
<path d="M40.9887 124.4827
L41.1792 124.1969
" />
<path d="M41.1792 124.1969
L41.2745 123.8160
" />
<path d="M41.2745 123.8160
L41.2745 123.0541
" />
<path d="M41.2745 123.0541
L41.1792 122.8636
" />
<path d="M41.1792 122.8636
L41.0840 122.7684
" />
<path d="M41.0840 122.7684
L40.8935 122.6731
" />
<path d="M40.8935 122.6731
L40.5126 122.6731
" />
<path d="M40.5126 122.6731
L40.3221 122.7684
" />
<path d="M40.3221 122.7684
L40.2268 122.8636
" />
<path d="M40.2268 122.8636
L40.1316 123.0541
" />
<path d="M40.1316 123.0541
L40.1316 123.5303
" />
<path d="M40.1316 123.5303
L40.2268 123.7207
" />
<path d="M40.2268 123.7207
L40.3221 123.8160
" />
<path d="M40.3221 123.8160
L40.5126 123.9112
" />
<path d="M40.5126 123.9112
L40.8935 123.9112
" />
<path d="M40.8935 123.9112
L41.0840 123.8160
" />
<path d="M41.0840 123.8160
L41.1792 123.7207
" />
<path d="M41.1792 123.7207
L41.2745 123.5303
" />
<path d="M42.0364 122.6731
L42.0364 123.0541
" />
<path d="M42.7983 122.6731
L42.7983 123.0541
" />
<path d="M45.7507 125.4350
L45.6554 125.3398
" />
<path d="M45.6554 125.3398
L45.4649 125.0541
" />
<path d="M45.4649 125.0541
L45.3697 124.8636
" />
<path d="M45.3697 124.8636
L45.2745 124.5779
" />
<path d="M45.2745 124.5779
L45.1792 124.1017
" />
<path d="M45.1792 124.1017
L45.1792 123.7207
" />
<path d="M45.1792 123.7207
L45.2745 123.2446
" />
<path d="M45.2745 123.2446
L45.3697 122.9588
" />
<path d="M45.3697 122.9588
L45.4649 122.7684
" />
<path d="M45.4649 122.7684
L45.6554 122.4827
" />
<path d="M45.6554 122.4827
L45.7507 122.3874
" />
<path d="M47.5602 124.6731
L46.4173 124.6731
" />
<path d="M46.9887 124.6731
L46.9887 122.6731
" />
<path d="M46.9887 122.6731
L46.7983 122.9588
" />
<path d="M46.7983 122.9588
L46.6078 123.1493
" />
<path d="M46.6078 123.1493
L46.4173 123.2446
" />
<path d="M49.2745 122.6731
L48.8935 122.6731
" />
<path d="M48.8935 122.6731
L48.7030 122.7684
" />
<path d="M48.7030 122.7684
L48.6078 122.8636
" />
<path d="M48.6078 122.8636
L48.4173 123.1493
" />
<path d="M48.4173 123.1493
L48.3221 123.5303
" />
<path d="M48.3221 123.5303
L48.3221 124.2922
" />
<path d="M48.3221 124.2922
L48.4173 124.4827
" />
<path d="M48.4173 124.4827
L48.5126 124.5779
" />
<path d="M48.5126 124.5779
L48.7030 124.6731
" />
<path d="M48.7030 124.6731
L49.0840 124.6731
" />
<path d="M49.0840 124.6731
L49.2745 124.5779
" />
<path d="M49.2745 124.5779
L49.3697 124.4827
" />
<path d="M49.3697 124.4827
L49.4649 124.2922
" />
<path d="M49.4649 124.2922
L49.4649 123.8160
" />
<path d="M49.4649 123.8160
L49.3697 123.6255
" />
<path d="M49.3697 123.6255
L49.2745 123.5303
" />
<path d="M49.2745 123.5303
L49.0840 123.4350
" />
<path d="M49.0840 123.4350
L48.7030 123.4350
" />
<path d="M48.7030 123.4350
L48.5126 123.5303
" />
<path d="M48.5126 123.5303
L48.4173 123.6255
" />
<path d="M48.4173 123.6255
L48.3221 123.8160
" />
<path d="M51.8459 124.6731
L51.8459 122.6731
" />
<path d="M52.7030 124.6731
L52.7030 123.6255
" />
<path d="M52.7030 123.6255
L52.6078 123.4350
" />
<path d="M52.6078 123.4350
L52.4173 123.3398
" />
<path d="M52.4173 123.3398
L52.1316 123.3398
" />
<path d="M52.1316 123.3398
L51.9411 123.4350
" />
<path d="M51.9411 123.4350
L51.8459 123.5303
" />
<path d="M53.9411 124.6731
L53.7507 124.5779
" />
<path d="M53.7507 124.5779
L53.6554 124.4827
" />
<path d="M53.6554 124.4827
L53.5602 124.2922
" />
<path d="M53.5602 124.2922
L53.5602 123.7207
" />
<path d="M53.5602 123.7207
L53.6554 123.5303
" />
<path d="M53.6554 123.5303
L53.7507 123.4350
" />
<path d="M53.7507 123.4350
L53.9411 123.3398
" />
<path d="M53.9411 123.3398
L54.2269 123.3398
" />
<path d="M54.2269 123.3398
L54.4173 123.4350
" />
<path d="M54.4173 123.4350
L54.5126 123.5303
" />
<path d="M54.5126 123.5303
L54.6078 123.7207
" />
<path d="M54.6078 123.7207
L54.6078 124.2922
" />
<path d="M54.6078 124.2922
L54.5126 124.4827
" />
<path d="M54.5126 124.4827
L54.4173 124.5779
" />
<path d="M54.4173 124.5779
L54.2269 124.6731
" />
<path d="M54.2269 124.6731
L53.9411 124.6731
" />
<path d="M55.7507 124.6731
L55.5602 124.5779
" />
<path d="M55.5602 124.5779
L55.4649 124.3874
" />
<path d="M55.4649 124.3874
L55.4649 122.6731
" />
<path d="M57.2745 124.5779
L57.0840 124.6731
" />
<path d="M57.0840 124.6731
L56.7030 124.6731
" />
<path d="M56.7030 124.6731
L56.5126 124.5779
" />
<path d="M56.5126 124.5779
L56.4173 124.3874
" />
<path d="M56.4173 124.3874
L56.4173 123.6255
" />
<path d="M56.4173 123.6255
L56.5126 123.4350
" />
<path d="M56.5126 123.4350
L56.7030 123.3398
" />
<path d="M56.7030 123.3398
L57.0840 123.3398
" />
<path d="M57.0840 123.3398
L57.2745 123.4350
" />
<path d="M57.2745 123.4350
L57.3697 123.6255
" />
<path d="M57.3697 123.6255
L57.3697 123.8160
" />
<path d="M57.3697 123.8160
L56.4173 124.0065
" />
<path d="M58.1316 124.5779
L58.3221 124.6731
" />
<path d="M58.3221 124.6731
L58.7030 124.6731
" />
<path d="M58.7030 124.6731
L58.8935 124.5779
" />
<path d="M58.8935 124.5779
L58.9888 124.3874
" />
<path d="M58.9888 124.3874
L58.9888 124.2922
" />
<path d="M58.9888 124.2922
L58.8935 124.1017
" />
<path d="M58.8935 124.1017
L58.7030 124.0065
" />
<path d="M58.7030 124.0065
L58.4173 124.0065
" />
<path d="M58.4173 124.0065
L58.2269 123.9112
" />
<path d="M58.2269 123.9112
L58.1316 123.7207
" />
<path d="M58.1316 123.7207
L58.1316 123.6255
" />
<path d="M58.1316 123.6255
L58.2269 123.4350
" />
<path d="M58.2269 123.4350
L58.4173 123.3398
" />
<path d="M58.4173 123.3398
L58.7030 123.3398
" />
<path d="M58.7030 123.3398
L58.8935 123.4350
" />
<path d="M59.6554 125.4350
L59.7507 125.3398
" />
<path d="M59.7507 125.3398
L59.9411 125.0541
" />
<path d="M59.9411 125.0541
L60.0364 124.8636
" />
<path d="M60.0364 124.8636
L60.1316 124.5779
" />
<path d="M60.1316 124.5779
L60.2269 124.1017
" />
<path d="M60.2269 124.1017
L60.2269 123.7207
" />
<path d="M60.2269 123.7207
L60.1316 123.2446
" />
<path d="M60.1316 123.2446
L60.0364 122.9588
" />
<path d="M60.0364 122.9588
L59.9411 122.7684
" />
<path d="M59.9411 122.7684
L59.7507 122.4827
" />
<path d="M59.7507 122.4827
L59.6554 122.3874
" />
<path d="M63.2745 125.4350
L63.1792 125.3398
" />
<path d="M63.1792 125.3398
L62.9888 125.0541
" />
<path d="M62.9888 125.0541
L62.8935 124.8636
" />
<path d="M62.8935 124.8636
L62.7983 124.5779
" />
<path d="M62.7983 124.5779
L62.7030 124.1017
" />
<path d="M62.7030 124.1017
L62.7030 123.7207
" />
<path d="M62.7030 123.7207
L62.7983 123.2446
" />
<path d="M62.7983 123.2446
L62.8935 122.9588
" />
<path d="M62.8935 122.9588
L62.9888 122.7684
" />
<path d="M62.9888 122.7684
L63.1792 122.4827
" />
<path d="M63.1792 122.4827
L63.2745 122.3874
" />
<path d="M64.0364 123.3398
L64.0364 124.6731
" />
<path d="M64.0364 123.5303
L64.1316 123.4350
" />
<path d="M64.1316 123.4350
L64.3221 123.3398
" />
<path d="M64.3221 123.3398
L64.6078 123.3398
" />
<path d="M64.6078 123.3398
L64.7983 123.4350
" />
<path d="M64.7983 123.4350
L64.8935 123.6255
" />
<path d="M64.8935 123.6255
L64.8935 124.6731
" />
<path d="M66.1316 124.6731
L65.9411 124.5779
" />
<path d="M65.9411 124.5779
L65.8459 124.4827
" />
<path d="M65.8459 124.4827
L65.7507 124.2922
" />
<path d="M65.7507 124.2922
L65.7507 123.7207
" />
<path d="M65.7507 123.7207
L65.8459 123.5303
" />
<path d="M65.8459 123.5303
L65.9411 123.4350
" />
<path d="M65.9411 123.4350
L66.1316 123.3398
" />
<path d="M66.1316 123.3398
L66.4173 123.3398
" />
<path d="M66.4173 123.3398
L66.6078 123.4350
" />
<path d="M66.6078 123.4350
L66.7030 123.5303
" />
<path d="M66.7030 123.5303
L66.7983 123.7207
" />
<path d="M66.7983 123.7207
L66.7983 124.2922
" />
<path d="M66.7983 124.2922
L66.7030 124.4827
" />
<path d="M66.7030 124.4827
L66.6078 124.5779
" />
<path d="M66.6078 124.5779
L66.4173 124.6731
" />
<path d="M66.4173 124.6731
L66.1316 124.6731
" />
<path d="M67.3697 123.3398
L68.1316 123.3398
" />
<path d="M67.6554 122.6731
L67.6554 124.3874
" />
<path d="M67.6554 124.3874
L67.7507 124.5779
" />
<path d="M67.7507 124.5779
L67.9411 124.6731
" />
<path d="M67.9411 124.6731
L68.1316 124.6731
" />
<path d="M70.3221 123.3398
L70.3221 125.3398
" />
<path d="M70.3221 123.4350
L70.5126 123.3398
" />
<path d="M70.5126 123.3398
L70.8935 123.3398
" />
<path d="M70.8935 123.3398
L71.0840 123.4350
" />
<path d="M71.0840 123.4350
L71.1792 123.5303
" />
<path d="M71.1792 123.5303
L71.2745 123.7207
" />
<path d="M71.2745 123.7207
L71.2745 124.2922
" />
<path d="M71.2745 124.2922
L71.1792 124.4827
" />
<path d="M71.1792 124.4827
L71.0840 124.5779
" />
<path d="M71.0840 124.5779
L70.8935 124.6731
" />
<path d="M70.8935 124.6731
L70.5126 124.6731
" />
<path d="M70.5126 124.6731
L70.3221 124.5779
" />
<path d="M72.4173 124.6731
L72.2269 124.5779
" />
<path d="M72.2269 124.5779
L72.1316 124.3874
" />
<path d="M72.1316 124.3874
L72.1316 122.6731
" />
<path d="M74.0364 124.6731
L74.0364 123.6255
" />
<path d="M74.0364 123.6255
L73.9411 123.4350
" />
<path d="M73.9411 123.4350
L73.7507 123.3398
" />
<path d="M73.7507 123.3398
L73.3697 123.3398
" />
<path d="M73.3697 123.3398
L73.1792 123.4350
" />
<path d="M74.0364 124.5779
L73.8459 124.6731
" />
<path d="M73.8459 124.6731
L73.3697 124.6731
" />
<path d="M73.3697 124.6731
L73.1792 124.5779
" />
<path d="M73.1792 124.5779
L73.0840 124.3874
" />
<path d="M73.0840 124.3874
L73.0840 124.1969
" />
<path d="M73.0840 124.1969
L73.1792 124.0065
" />
<path d="M73.1792 124.0065
L73.3697 123.9112
" />
<path d="M73.3697 123.9112
L73.8459 123.9112
" />
<path d="M73.8459 123.9112
L74.0364 123.8160
" />
<path d="M74.7031 123.3398
L75.4650 123.3398
" />
<path d="M74.9888 122.6731
L74.9888 124.3874
" />
<path d="M74.9888 124.3874
L75.0840 124.5779
" />
<path d="M75.0840 124.5779
L75.2745 124.6731
" />
<path d="M75.2745 124.6731
L75.4650 124.6731
" />
<path d="M76.8935 124.5779
L76.7031 124.6731
" />
<path d="M76.7031 124.6731
L76.3221 124.6731
" />
<path d="M76.3221 124.6731
L76.1316 124.5779
" />
<path d="M76.1316 124.5779
L76.0364 124.3874
" />
<path d="M76.0364 124.3874
L76.0364 123.6255
" />
<path d="M76.0364 123.6255
L76.1316 123.4350
" />
<path d="M76.1316 123.4350
L76.3221 123.3398
" />
<path d="M76.3221 123.3398
L76.7031 123.3398
" />
<path d="M76.7031 123.3398
L76.8935 123.4350
" />
<path d="M76.8935 123.4350
L76.9888 123.6255
" />
<path d="M76.9888 123.6255
L76.9888 123.8160
" />
<path d="M76.9888 123.8160
L76.0364 124.0065
" />
<path d="M78.7031 124.6731
L78.7031 122.6731
" />
<path d="M78.7031 124.5779
L78.5126 124.6731
" />
<path d="M78.5126 124.6731
L78.1316 124.6731
" />
<path d="M78.1316 124.6731
L77.9411 124.5779
" />
<path d="M77.9411 124.5779
L77.8459 124.4827
" />
<path d="M77.8459 124.4827
L77.7507 124.2922
" />
<path d="M77.7507 124.2922
L77.7507 123.7207
" />
<path d="M77.7507 123.7207
L77.8459 123.5303
" />
<path d="M77.8459 123.5303
L77.9411 123.4350
" />
<path d="M77.9411 123.4350
L78.1316 123.3398
" />
<path d="M78.1316 123.3398
L78.5126 123.3398
" />
<path d="M78.5126 123.3398
L78.7031 123.4350
" />
<path d="M79.4650 125.4350
L79.5602 125.3398
" />
<path d="M79.5602 125.3398
L79.7507 125.0541
" />
<path d="M79.7507 125.0541
L79.8459 124.8636
" />
<path d="M79.8459 124.8636
L79.9412 124.5779
" />
<path d="M79.9412 124.5779
L80.0364 124.1017
" />
<path d="M80.0364 124.1017
L80.0364 123.7207
" />
<path d="M80.0364 123.7207
L79.9412 123.2446
" />
<path d="M79.9412 123.2446
L79.8459 122.9588
" />
<path d="M79.8459 122.9588
L79.7507 122.7684
" />
<path d="M79.7507 122.7684
L79.5602 122.4827
" />
<path d="M79.5602 122.4827
L79.4650 122.3874
" />
</g></g>
<g style="fill:#000000; fill-opacity:0.0; 
stroke:#000000; stroke-width:0.2000; stroke-opacity:1; 
stroke-linecap:round; stroke-linejoin:round;">
<path d="M9.0000 125.9583
L9.0000 127.9583
" />
<path d="M8.0000 126.9583
L10.0000 126.9583
" />
</g>
<g style="fill:#000000; fill-opacity:0.0; 
stroke:#000000; stroke-width:0.5973; stroke-opacity:1; 
stroke-linecap:round; stroke-linejoin:round;">
</g>
<g style="fill:#000000; fill-opacity:0.0; 
stroke:#000000; stroke-width:0.2000; stroke-opacity:1; 
stroke-linecap:round; stroke-linejoin:round;">
<text x="12.0000" y="127.9583"
textLength="66.6762" font-size="2.6667" lengthAdjust="spacingAndGlyphs"
text-anchor="start" opacity="0">2.100mm / 0.0827" (6 holes) (not plated)</text>
<g class="stroked-text"><desc>2.100mm / 0.0827" (6 holes) (not plated)</desc>
<path d="M12.5125 126.0636
L12.6078 125.9684
" />
<path d="M12.6078 125.9684
L12.7982 125.8731
" />
<path d="M12.7982 125.8731
L13.2744 125.8731
" />
<path d="M13.2744 125.8731
L13.4649 125.9684
" />
<path d="M13.4649 125.9684
L13.5602 126.0636
" />
<path d="M13.5602 126.0636
L13.6554 126.2541
" />
<path d="M13.6554 126.2541
L13.6554 126.4446
" />
<path d="M13.6554 126.4446
L13.5602 126.7303
" />
<path d="M13.5602 126.7303
L12.4173 127.8731
" />
<path d="M12.4173 127.8731
L13.6554 127.8731
" />
<path d="M14.5125 127.6827
L14.6078 127.7779
" />
<path d="M14.6078 127.7779
L14.5125 127.8731
" />
<path d="M14.5125 127.8731
L14.4173 127.7779
" />
<path d="M14.4173 127.7779
L14.5125 127.6827
" />
<path d="M14.5125 127.6827
L14.5125 127.8731
" />
<path d="M16.5125 127.8731
L15.3697 127.8731
" />
<path d="M15.9411 127.8731
L15.9411 125.8731
" />
<path d="M15.9411 125.8731
L15.7506 126.1588
" />
<path d="M15.7506 126.1588
L15.5602 126.3493
" />
<path d="M15.5602 126.3493
L15.3697 126.4446
" />
<path d="M17.7506 125.8731
L17.9411 125.8731
" />
<path d="M17.9411 125.8731
L18.1316 125.9684
" />
<path d="M18.1316 125.9684
L18.2268 126.0636
" />
<path d="M18.2268 126.0636
L18.3221 126.2541
" />
<path d="M18.3221 126.2541
L18.4173 126.6350
" />
<path d="M18.4173 126.6350
L18.4173 127.1112
" />
<path d="M18.4173 127.1112
L18.3221 127.4922
" />
<path d="M18.3221 127.4922
L18.2268 127.6827
" />
<path d="M18.2268 127.6827
L18.1316 127.7779
" />
<path d="M18.1316 127.7779
L17.9411 127.8731
" />
<path d="M17.9411 127.8731
L17.7506 127.8731
" />
<path d="M17.7506 127.8731
L17.5602 127.7779
" />
<path d="M17.5602 127.7779
L17.4649 127.6827
" />
<path d="M17.4649 127.6827
L17.3697 127.4922
" />
<path d="M17.3697 127.4922
L17.2744 127.1112
" />
<path d="M17.2744 127.1112
L17.2744 126.6350
" />
<path d="M17.2744 126.6350
L17.3697 126.2541
" />
<path d="M17.3697 126.2541
L17.4649 126.0636
" />
<path d="M17.4649 126.0636
L17.5602 125.9684
" />
<path d="M17.5602 125.9684
L17.7506 125.8731
" />
<path d="M19.6554 125.8731
L19.8459 125.8731
" />
<path d="M19.8459 125.8731
L20.0363 125.9684
" />
<path d="M20.0363 125.9684
L20.1316 126.0636
" />
<path d="M20.1316 126.0636
L20.2268 126.2541
" />
<path d="M20.2268 126.2541
L20.3221 126.6350
" />
<path d="M20.3221 126.6350
L20.3221 127.1112
" />
<path d="M20.3221 127.1112
L20.2268 127.4922
" />
<path d="M20.2268 127.4922
L20.1316 127.6827
" />
<path d="M20.1316 127.6827
L20.0363 127.7779
" />
<path d="M20.0363 127.7779
L19.8459 127.8731
" />
<path d="M19.8459 127.8731
L19.6554 127.8731
" />
<path d="M19.6554 127.8731
L19.4649 127.7779
" />
<path d="M19.4649 127.7779
L19.3697 127.6827
" />
<path d="M19.3697 127.6827
L19.2744 127.4922
" />
<path d="M19.2744 127.4922
L19.1792 127.1112
" />
<path d="M19.1792 127.1112
L19.1792 126.6350
" />
<path d="M19.1792 126.6350
L19.2744 126.2541
" />
<path d="M19.2744 126.2541
L19.3697 126.0636
" />
<path d="M19.3697 126.0636
L19.4649 125.9684
" />
<path d="M19.4649 125.9684
L19.6554 125.8731
" />
<path d="M21.1792 127.8731
L21.1792 126.5398
" />
<path d="M21.1792 126.7303
L21.2744 126.6350
" />
<path d="M21.2744 126.6350
L21.4649 126.5398
" />
<path d="M21.4649 126.5398
L21.7506 126.5398
" />
<path d="M21.7506 126.5398
L21.9411 126.6350
" />
<path d="M21.9411 126.6350
L22.0363 126.8255
" />
<path d="M22.0363 126.8255
L22.0363 127.8731
" />
<path d="M22.0363 126.8255
L22.1316 126.6350
" />
<path d="M22.1316 126.6350
L22.3221 126.5398
" />
<path d="M22.3221 126.5398
L22.6078 126.5398
" />
<path d="M22.6078 126.5398
L22.7983 126.6350
" />
<path d="M22.7983 126.6350
L22.8935 126.8255
" />
<path d="M22.8935 126.8255
L22.8935 127.8731
" />
<path d="M23.8459 127.8731
L23.8459 126.5398
" />
<path d="M23.8459 126.7303
L23.9411 126.6350
" />
<path d="M23.9411 126.6350
L24.1316 126.5398
" />
<path d="M24.1316 126.5398
L24.4173 126.5398
" />
<path d="M24.4173 126.5398
L24.6078 126.6350
" />
<path d="M24.6078 126.6350
L24.7030 126.8255
" />
<path d="M24.7030 126.8255
L24.7030 127.8731
" />
<path d="M24.7030 126.8255
L24.7983 126.6350
" />
<path d="M24.7983 126.6350
L24.9887 126.5398
" />
<path d="M24.9887 126.5398
L25.2744 126.5398
" />
<path d="M25.2744 126.5398
L25.4649 126.6350
" />
<path d="M25.4649 126.6350
L25.5602 126.8255
" />
<path d="M25.5602 126.8255
L25.5602 127.8731
" />
<path d="M29.4649 125.7779
L27.7506 128.3493
" />
<path d="M32.0364 125.8731
L32.2268 125.8731
" />
<path d="M32.2268 125.8731
L32.4173 125.9684
" />
<path d="M32.4173 125.9684
L32.5125 126.0636
" />
<path d="M32.5125 126.0636
L32.6078 126.2541
" />
<path d="M32.6078 126.2541
L32.7030 126.6350
" />
<path d="M32.7030 126.6350
L32.7030 127.1112
" />
<path d="M32.7030 127.1112
L32.6078 127.4922
" />
<path d="M32.6078 127.4922
L32.5125 127.6827
" />
<path d="M32.5125 127.6827
L32.4173 127.7779
" />
<path d="M32.4173 127.7779
L32.2268 127.8731
" />
<path d="M32.2268 127.8731
L32.0364 127.8731
" />
<path d="M32.0364 127.8731
L31.8459 127.7779
" />
<path d="M31.8459 127.7779
L31.7506 127.6827
" />
<path d="M31.7506 127.6827
L31.6554 127.4922
" />
<path d="M31.6554 127.4922
L31.5602 127.1112
" />
<path d="M31.5602 127.1112
L31.5602 126.6350
" />
<path d="M31.5602 126.6350
L31.6554 126.2541
" />
<path d="M31.6554 126.2541
L31.7506 126.0636
" />
<path d="M31.7506 126.0636
L31.8459 125.9684
" />
<path d="M31.8459 125.9684
L32.0364 125.8731
" />
<path d="M33.5602 127.6827
L33.6554 127.7779
" />
<path d="M33.6554 127.7779
L33.5602 127.8731
" />
<path d="M33.5602 127.8731
L33.4649 127.7779
" />
<path d="M33.4649 127.7779
L33.5602 127.6827
" />
<path d="M33.5602 127.6827
L33.5602 127.8731
" />
<path d="M34.8935 125.8731
L35.0840 125.8731
" />
<path d="M35.0840 125.8731
L35.2745 125.9684
" />
<path d="M35.2745 125.9684
L35.3697 126.0636
" />
<path d="M35.3697 126.0636
L35.4649 126.2541
" />
<path d="M35.4649 126.2541
L35.5602 126.6350
" />
<path d="M35.5602 126.6350
L35.5602 127.1112
" />
<path d="M35.5602 127.1112
L35.4649 127.4922
" />
<path d="M35.4649 127.4922
L35.3697 127.6827
" />
<path d="M35.3697 127.6827
L35.2745 127.7779
" />
<path d="M35.2745 127.7779
L35.0840 127.8731
" />
<path d="M35.0840 127.8731
L34.8935 127.8731
" />
<path d="M34.8935 127.8731
L34.7030 127.7779
" />
<path d="M34.7030 127.7779
L34.6078 127.6827
" />
<path d="M34.6078 127.6827
L34.5125 127.4922
" />
<path d="M34.5125 127.4922
L34.4173 127.1112
" />
<path d="M34.4173 127.1112
L34.4173 126.6350
" />
<path d="M34.4173 126.6350
L34.5125 126.2541
" />
<path d="M34.5125 126.2541
L34.6078 126.0636
" />
<path d="M34.6078 126.0636
L34.7030 125.9684
" />
<path d="M34.7030 125.9684
L34.8935 125.8731
" />
<path d="M36.7030 126.7303
L36.5125 126.6350
" />
<path d="M36.5125 126.6350
L36.4173 126.5398
" />
<path d="M36.4173 126.5398
L36.3221 126.3493
" />
<path d="M36.3221 126.3493
L36.3221 126.2541
" />
<path d="M36.3221 126.2541
L36.4173 126.0636
" />
<path d="M36.4173 126.0636
L36.5125 125.9684
" />
<path d="M36.5125 125.9684
L36.7030 125.8731
" />
<path d="M36.7030 125.8731
L37.0840 125.8731
" />
<path d="M37.0840 125.8731
L37.2745 125.9684
" />
<path d="M37.2745 125.9684
L37.3697 126.0636
" />
<path d="M37.3697 126.0636
L37.4649 126.2541
" />
<path d="M37.4649 126.2541
L37.4649 126.3493
" />
<path d="M37.4649 126.3493
L37.3697 126.5398
" />
<path d="M37.3697 126.5398
L37.2745 126.6350
" />
<path d="M37.2745 126.6350
L37.0840 126.7303
" />
<path d="M37.0840 126.7303
L36.7030 126.7303
" />
<path d="M36.7030 126.7303
L36.5125 126.8255
" />
<path d="M36.5125 126.8255
L36.4173 126.9208
" />
<path d="M36.4173 126.9208
L36.3221 127.1112
" />
<path d="M36.3221 127.1112
L36.3221 127.4922
" />
<path d="M36.3221 127.4922
L36.4173 127.6827
" />
<path d="M36.4173 127.6827
L36.5125 127.7779
" />
<path d="M36.5125 127.7779
L36.7030 127.8731
" />
<path d="M36.7030 127.8731
L37.0840 127.8731
" />
<path d="M37.0840 127.8731
L37.2745 127.7779
" />
<path d="M37.2745 127.7779
L37.3697 127.6827
" />
<path d="M37.3697 127.6827
L37.4649 127.4922
" />
<path d="M37.4649 127.4922
L37.4649 127.1112
" />
<path d="M37.4649 127.1112
L37.3697 126.9208
" />
<path d="M37.3697 126.9208
L37.2745 126.8255
" />
<path d="M37.2745 126.8255
L37.0840 126.7303
" />
<path d="M38.2268 126.0636
L38.3221 125.9684
" />
<path d="M38.3221 125.9684
L38.5126 125.8731
" />
<path d="M38.5126 125.8731
L38.9887 125.8731
" />
<path d="M38.9887 125.8731
L39.1792 125.9684
" />
<path d="M39.1792 125.9684
L39.2745 126.0636
" />
<path d="M39.2745 126.0636
L39.3697 126.2541
" />
<path d="M39.3697 126.2541
L39.3697 126.4446
" />
<path d="M39.3697 126.4446
L39.2745 126.7303
" />
<path d="M39.2745 126.7303
L38.1316 127.8731
" />
<path d="M38.1316 127.8731
L39.3697 127.8731
" />
<path d="M40.0364 125.8731
L41.3697 125.8731
" />
<path d="M41.3697 125.8731
L40.5126 127.8731
" />
<path d="M42.0364 125.8731
L42.0364 126.2541
" />
<path d="M42.7983 125.8731
L42.7983 126.2541
" />
<path d="M45.7507 128.6350
L45.6554 128.5398
" />
<path d="M45.6554 128.5398
L45.4649 128.2541
" />
<path d="M45.4649 128.2541
L45.3697 128.0636
" />
<path d="M45.3697 128.0636
L45.2745 127.7779
" />
<path d="M45.2745 127.7779
L45.1792 127.3017
" />
<path d="M45.1792 127.3017
L45.1792 126.9208
" />
<path d="M45.1792 126.9208
L45.2745 126.4446
" />
<path d="M45.2745 126.4446
L45.3697 126.1588
" />
<path d="M45.3697 126.1588
L45.4649 125.9684
" />
<path d="M45.4649 125.9684
L45.6554 125.6827
" />
<path d="M45.6554 125.6827
L45.7507 125.5874
" />
<path d="M47.3697 125.8731
L46.9887 125.8731
" />
<path d="M46.9887 125.8731
L46.7983 125.9684
" />
<path d="M46.7983 125.9684
L46.7030 126.0636
" />
<path d="M46.7030 126.0636
L46.5126 126.3493
" />
<path d="M46.5126 126.3493
L46.4173 126.7303
" />
<path d="M46.4173 126.7303
L46.4173 127.4922
" />
<path d="M46.4173 127.4922
L46.5126 127.6827
" />
<path d="M46.5126 127.6827
L46.6078 127.7779
" />
<path d="M46.6078 127.7779
L46.7983 127.8731
" />
<path d="M46.7983 127.8731
L47.1792 127.8731
" />
<path d="M47.1792 127.8731
L47.3697 127.7779
" />
<path d="M47.3697 127.7779
L47.4649 127.6827
" />
<path d="M47.4649 127.6827
L47.5602 127.4922
" />
<path d="M47.5602 127.4922
L47.5602 127.0160
" />
<path d="M47.5602 127.0160
L47.4649 126.8255
" />
<path d="M47.4649 126.8255
L47.3697 126.7303
" />
<path d="M47.3697 126.7303
L47.1792 126.6350
" />
<path d="M47.1792 126.6350
L46.7983 126.6350
" />
<path d="M46.7983 126.6350
L46.6078 126.7303
" />
<path d="M46.6078 126.7303
L46.5126 126.8255
" />
<path d="M46.5126 126.8255
L46.4173 127.0160
" />
<path d="M49.9411 127.8731
L49.9411 125.8731
" />
<path d="M50.7983 127.8731
L50.7983 126.8255
" />
<path d="M50.7983 126.8255
L50.7030 126.6350
" />
<path d="M50.7030 126.6350
L50.5126 126.5398
" />
<path d="M50.5126 126.5398
L50.2268 126.5398
" />
<path d="M50.2268 126.5398
L50.0364 126.6350
" />
<path d="M50.0364 126.6350
L49.9411 126.7303
" />
<path d="M52.0364 127.8731
L51.8459 127.7779
" />
<path d="M51.8459 127.7779
L51.7507 127.6827
" />
<path d="M51.7507 127.6827
L51.6554 127.4922
" />
<path d="M51.6554 127.4922
L51.6554 126.9208
" />
<path d="M51.6554 126.9208
L51.7507 126.7303
" />
<path d="M51.7507 126.7303
L51.8459 126.6350
" />
<path d="M51.8459 126.6350
L52.0364 126.5398
" />
<path d="M52.0364 126.5398
L52.3221 126.5398
" />
<path d="M52.3221 126.5398
L52.5126 126.6350
" />
<path d="M52.5126 126.6350
L52.6078 126.7303
" />
<path d="M52.6078 126.7303
L52.7030 126.9208
" />
<path d="M52.7030 126.9208
L52.7030 127.4922
" />
<path d="M52.7030 127.4922
L52.6078 127.6827
" />
<path d="M52.6078 127.6827
L52.5126 127.7779
" />
<path d="M52.5126 127.7779
L52.3221 127.8731
" />
<path d="M52.3221 127.8731
L52.0364 127.8731
" />
<path d="M53.8459 127.8731
L53.6554 127.7779
" />
<path d="M53.6554 127.7779
L53.5602 127.5874
" />
<path d="M53.5602 127.5874
L53.5602 125.8731
" />
<path d="M55.3697 127.7779
L55.1792 127.8731
" />
<path d="M55.1792 127.8731
L54.7983 127.8731
" />
<path d="M54.7983 127.8731
L54.6078 127.7779
" />
<path d="M54.6078 127.7779
L54.5126 127.5874
" />
<path d="M54.5126 127.5874
L54.5126 126.8255
" />
<path d="M54.5126 126.8255
L54.6078 126.6350
" />
<path d="M54.6078 126.6350
L54.7983 126.5398
" />
<path d="M54.7983 126.5398
L55.1792 126.5398
" />
<path d="M55.1792 126.5398
L55.3697 126.6350
" />
<path d="M55.3697 126.6350
L55.4649 126.8255
" />
<path d="M55.4649 126.8255
L55.4649 127.0160
" />
<path d="M55.4649 127.0160
L54.5126 127.2065
" />
<path d="M56.2268 127.7779
L56.4173 127.8731
" />
<path d="M56.4173 127.8731
L56.7983 127.8731
" />
<path d="M56.7983 127.8731
L56.9888 127.7779
" />
<path d="M56.9888 127.7779
L57.0840 127.5874
" />
<path d="M57.0840 127.5874
L57.0840 127.4922
" />
<path d="M57.0840 127.4922
L56.9888 127.3017
" />
<path d="M56.9888 127.3017
L56.7983 127.2065
" />
<path d="M56.7983 127.2065
L56.5126 127.2065
" />
<path d="M56.5126 127.2065
L56.3221 127.1112
" />
<path d="M56.3221 127.1112
L56.2268 126.9208
" />
<path d="M56.2268 126.9208
L56.2268 126.8255
" />
<path d="M56.2268 126.8255
L56.3221 126.6350
" />
<path d="M56.3221 126.6350
L56.5126 126.5398
" />
<path d="M56.5126 126.5398
L56.7983 126.5398
" />
<path d="M56.7983 126.5398
L56.9888 126.6350
" />
<path d="M57.7507 128.6350
L57.8459 128.5398
" />
<path d="M57.8459 128.5398
L58.0364 128.2541
" />
<path d="M58.0364 128.2541
L58.1316 128.0636
" />
<path d="M58.1316 128.0636
L58.2268 127.7779
" />
<path d="M58.2268 127.7779
L58.3221 127.3017
" />
<path d="M58.3221 127.3017
L58.3221 126.9208
" />
<path d="M58.3221 126.9208
L58.2268 126.4446
" />
<path d="M58.2268 126.4446
L58.1316 126.1588
" />
<path d="M58.1316 126.1588
L58.0364 125.9684
" />
<path d="M58.0364 125.9684
L57.8459 125.6827
" />
<path d="M57.8459 125.6827
L57.7507 125.5874
" />
<path d="M61.3697 128.6350
L61.2745 128.5398
" />
<path d="M61.2745 128.5398
L61.0840 128.2541
" />
<path d="M61.0840 128.2541
L60.9888 128.0636
" />
<path d="M60.9888 128.0636
L60.8935 127.7779
" />
<path d="M60.8935 127.7779
L60.7983 127.3017
" />
<path d="M60.7983 127.3017
L60.7983 126.9208
" />
<path d="M60.7983 126.9208
L60.8935 126.4446
" />
<path d="M60.8935 126.4446
L60.9888 126.1588
" />
<path d="M60.9888 126.1588
L61.0840 125.9684
" />
<path d="M61.0840 125.9684
L61.2745 125.6827
" />
<path d="M61.2745 125.6827
L61.3697 125.5874
" />
<path d="M62.1316 126.5398
L62.1316 127.8731
" />
<path d="M62.1316 126.7303
L62.2269 126.6350
" />
<path d="M62.2269 126.6350
L62.4173 126.5398
" />
<path d="M62.4173 126.5398
L62.7030 126.5398
" />
<path d="M62.7030 126.5398
L62.8935 126.6350
" />
<path d="M62.8935 126.6350
L62.9888 126.8255
" />
<path d="M62.9888 126.8255
L62.9888 127.8731
" />
<path d="M64.2269 127.8731
L64.0364 127.7779
" />
<path d="M64.0364 127.7779
L63.9411 127.6827
" />
<path d="M63.9411 127.6827
L63.8459 127.4922
" />
<path d="M63.8459 127.4922
L63.8459 126.9208
" />
<path d="M63.8459 126.9208
L63.9411 126.7303
" />
<path d="M63.9411 126.7303
L64.0364 126.6350
" />
<path d="M64.0364 126.6350
L64.2269 126.5398
" />
<path d="M64.2269 126.5398
L64.5126 126.5398
" />
<path d="M64.5126 126.5398
L64.7030 126.6350
" />
<path d="M64.7030 126.6350
L64.7983 126.7303
" />
<path d="M64.7983 126.7303
L64.8935 126.9208
" />
<path d="M64.8935 126.9208
L64.8935 127.4922
" />
<path d="M64.8935 127.4922
L64.7983 127.6827
" />
<path d="M64.7983 127.6827
L64.7030 127.7779
" />
<path d="M64.7030 127.7779
L64.5126 127.8731
" />
<path d="M64.5126 127.8731
L64.2269 127.8731
" />
<path d="M65.4649 126.5398
L66.2269 126.5398
" />
<path d="M65.7507 125.8731
L65.7507 127.5874
" />
<path d="M65.7507 127.5874
L65.8459 127.7779
" />
<path d="M65.8459 127.7779
L66.0364 127.8731
" />
<path d="M66.0364 127.8731
L66.2269 127.8731
" />
<path d="M68.4173 126.5398
L68.4173 128.5398
" />
<path d="M68.4173 126.6350
L68.6078 126.5398
" />
<path d="M68.6078 126.5398
L68.9888 126.5398
" />
<path d="M68.9888 126.5398
L69.1792 126.6350
" />
<path d="M69.1792 126.6350
L69.2745 126.7303
" />
<path d="M69.2745 126.7303
L69.3697 126.9208
" />
<path d="M69.3697 126.9208
L69.3697 127.4922
" />
<path d="M69.3697 127.4922
L69.2745 127.6827
" />
<path d="M69.2745 127.6827
L69.1792 127.7779
" />
<path d="M69.1792 127.7779
L68.9888 127.8731
" />
<path d="M68.9888 127.8731
L68.6078 127.8731
" />
<path d="M68.6078 127.8731
L68.4173 127.7779
" />
<path d="M70.5126 127.8731
L70.3221 127.7779
" />
<path d="M70.3221 127.7779
L70.2269 127.5874
" />
<path d="M70.2269 127.5874
L70.2269 125.8731
" />
<path d="M72.1316 127.8731
L72.1316 126.8255
" />
<path d="M72.1316 126.8255
L72.0364 126.6350
" />
<path d="M72.0364 126.6350
L71.8459 126.5398
" />
<path d="M71.8459 126.5398
L71.4650 126.5398
" />
<path d="M71.4650 126.5398
L71.2745 126.6350
" />
<path d="M72.1316 127.7779
L71.9411 127.8731
" />
<path d="M71.9411 127.8731
L71.4650 127.8731
" />
<path d="M71.4650 127.8731
L71.2745 127.7779
" />
<path d="M71.2745 127.7779
L71.1792 127.5874
" />
<path d="M71.1792 127.5874
L71.1792 127.3969
" />
<path d="M71.1792 127.3969
L71.2745 127.2065
" />
<path d="M71.2745 127.2065
L71.4650 127.1112
" />
<path d="M71.4650 127.1112
L71.9411 127.1112
" />
<path d="M71.9411 127.1112
L72.1316 127.0160
" />
<path d="M72.7983 126.5398
L73.5602 126.5398
" />
<path d="M73.0840 125.8731
L73.0840 127.5874
" />
<path d="M73.0840 127.5874
L73.1792 127.7779
" />
<path d="M73.1792 127.7779
L73.3697 127.8731
" />
<path d="M73.3697 127.8731
L73.5602 127.8731
" />
<path d="M74.9888 127.7779
L74.7983 127.8731
" />
<path d="M74.7983 127.8731
L74.4173 127.8731
" />
<path d="M74.4173 127.8731
L74.2269 127.7779
" />
<path d="M74.2269 127.7779
L74.1316 127.5874
" />
<path d="M74.1316 127.5874
L74.1316 126.8255
" />
<path d="M74.1316 126.8255
L74.2269 126.6350
" />
<path d="M74.2269 126.6350
L74.4173 126.5398
" />
<path d="M74.4173 126.5398
L74.7983 126.5398
" />
<path d="M74.7983 126.5398
L74.9888 126.6350
" />
<path d="M74.9888 126.6350
L75.0840 126.8255
" />
<path d="M75.0840 126.8255
L75.0840 127.0160
" />
<path d="M75.0840 127.0160
L74.1316 127.2065
" />
<path d="M76.7983 127.8731
L76.7983 125.8731
" />
<path d="M76.7983 127.7779
L76.6078 127.8731
" />
<path d="M76.6078 127.8731
L76.2269 127.8731
" />
<path d="M76.2269 127.8731
L76.0364 127.7779
" />
<path d="M76.0364 127.7779
L75.9411 127.6827
" />
<path d="M75.9411 127.6827
L75.8459 127.4922
" />
<path d="M75.8459 127.4922
L75.8459 126.9208
" />
<path d="M75.8459 126.9208
L75.9411 126.7303
" />
<path d="M75.9411 126.7303
L76.0364 126.6350
" />
<path d="M76.0364 126.6350
L76.2269 126.5398
" />
<path d="M76.2269 126.5398
L76.6078 126.5398
" />
<path d="M76.6078 126.5398
L76.7983 126.6350
" />
<path d="M77.5602 128.6350
L77.6554 128.5398
" />
<path d="M77.6554 128.5398
L77.8459 128.2541
" />
<path d="M77.8459 128.2541
L77.9411 128.0636
" />
<path d="M77.9411 128.0636
L78.0364 127.7779
" />
<path d="M78.0364 127.7779
L78.1316 127.3017
" />
<path d="M78.1316 127.3017
L78.1316 126.9208
" />
<path d="M78.1316 126.9208
L78.0364 126.4446
" />
<path d="M78.0364 126.4446
L77.9411 126.1588
" />
<path d="M77.9411 126.1588
L77.8459 125.9684
" />
<path d="M77.8459 125.9684
L77.6554 125.6827
" />
<path d="M77.6554 125.6827
L77.5602 125.5874
" />
</g></g>
<g style="fill:#000000; fill-opacity:0.0; 
stroke:#000000; stroke-width:0.2000; stroke-opacity:1; 
stroke-linecap:round; stroke-linejoin:round;">
<path style="fill:#000000; fill-opacity:0.0; 
stroke:#000000; stroke-width:0.2000; stroke-opacity:1; 
stroke-linecap:round; stroke-linejoin:round;fill:none"
d="M 9.7071,130.8654
9.7071,129.4512
8.2929,129.4512
8.2929,130.8654
Z" /> 
</g>
<g style="fill:#000000; fill-opacity:0.0; 
stroke:#000000; stroke-width:0.5973; stroke-opacity:1; 
stroke-linecap:round; stroke-linejoin:round;">
</g>
<g style="fill:#000000; fill-opacity:0.0; 
stroke:#000000; stroke-width:0.2000; stroke-opacity:1; 
stroke-linecap:round; stroke-linejoin:round;">
<text x="12.0000" y="131.1583"
textLength="66.6762" font-size="2.6667" lengthAdjust="spacingAndGlyphs"
text-anchor="start" opacity="0">3.400mm / 0.1339" (8 holes) (not plated)</text>
<g class="stroked-text"><desc>3.400mm / 0.1339" (8 holes) (not plated)</desc>
<path d="M12.4173 129.0731
L13.6554 129.0731
" />
<path d="M13.6554 129.0731
L12.9887 129.8350
" />
<path d="M12.9887 129.8350
L13.2744 129.8350
" />
<path d="M13.2744 129.8350
L13.4649 129.9303
" />
<path d="M13.4649 129.9303
L13.5602 130.0255
" />
<path d="M13.5602 130.0255
L13.6554 130.2160
" />
<path d="M13.6554 130.2160
L13.6554 130.6922
" />
<path d="M13.6554 130.6922
L13.5602 130.8827
" />
<path d="M13.5602 130.8827
L13.4649 130.9779
" />
<path d="M13.4649 130.9779
L13.2744 131.0731
" />
<path d="M13.2744 131.0731
L12.7030 131.0731
" />
<path d="M12.7030 131.0731
L12.5125 130.9779
" />
<path d="M12.5125 130.9779
L12.4173 130.8827
" />
<path d="M14.5125 130.8827
L14.6078 130.9779
" />
<path d="M14.6078 130.9779
L14.5125 131.0731
" />
<path d="M14.5125 131.0731
L14.4173 130.9779
" />
<path d="M14.4173 130.9779
L14.5125 130.8827
" />
<path d="M14.5125 130.8827
L14.5125 131.0731
" />
<path d="M16.3221 129.7398
L16.3221 131.0731
" />
<path d="M15.8459 128.9779
L15.3697 130.4065
" />
<path d="M15.3697 130.4065
L16.6078 130.4065
" />
<path d="M17.7506 129.0731
L17.9411 129.0731
" />
<path d="M17.9411 129.0731
L18.1316 129.1684
" />
<path d="M18.1316 129.1684
L18.2268 129.2636
" />
<path d="M18.2268 129.2636
L18.3221 129.4541
" />
<path d="M18.3221 129.4541
L18.4173 129.8350
" />
<path d="M18.4173 129.8350
L18.4173 130.3112
" />
<path d="M18.4173 130.3112
L18.3221 130.6922
" />
<path d="M18.3221 130.6922
L18.2268 130.8827
" />
<path d="M18.2268 130.8827
L18.1316 130.9779
" />
<path d="M18.1316 130.9779
L17.9411 131.0731
" />
<path d="M17.9411 131.0731
L17.7506 131.0731
" />
<path d="M17.7506 131.0731
L17.5602 130.9779
" />
<path d="M17.5602 130.9779
L17.4649 130.8827
" />
<path d="M17.4649 130.8827
L17.3697 130.6922
" />
<path d="M17.3697 130.6922
L17.2744 130.3112
" />
<path d="M17.2744 130.3112
L17.2744 129.8350
" />
<path d="M17.2744 129.8350
L17.3697 129.4541
" />
<path d="M17.3697 129.4541
L17.4649 129.2636
" />
<path d="M17.4649 129.2636
L17.5602 129.1684
" />
<path d="M17.5602 129.1684
L17.7506 129.0731
" />
<path d="M19.6554 129.0731
L19.8459 129.0731
" />
<path d="M19.8459 129.0731
L20.0363 129.1684
" />
<path d="M20.0363 129.1684
L20.1316 129.2636
" />
<path d="M20.1316 129.2636
L20.2268 129.4541
" />
<path d="M20.2268 129.4541
L20.3221 129.8350
" />
<path d="M20.3221 129.8350
L20.3221 130.3112
" />
<path d="M20.3221 130.3112
L20.2268 130.6922
" />
<path d="M20.2268 130.6922
L20.1316 130.8827
" />
<path d="M20.1316 130.8827
L20.0363 130.9779
" />
<path d="M20.0363 130.9779
L19.8459 131.0731
" />
<path d="M19.8459 131.0731
L19.6554 131.0731
" />
<path d="M19.6554 131.0731
L19.4649 130.9779
" />
<path d="M19.4649 130.9779
L19.3697 130.8827
" />
<path d="M19.3697 130.8827
L19.2744 130.6922
" />
<path d="M19.2744 130.6922
L19.1792 130.3112
" />
<path d="M19.1792 130.3112
L19.1792 129.8350
" />
<path d="M19.1792 129.8350
L19.2744 129.4541
" />
<path d="M19.2744 129.4541
L19.3697 129.2636
" />
<path d="M19.3697 129.2636
L19.4649 129.1684
" />
<path d="M19.4649 129.1684
L19.6554 129.0731
" />
<path d="M21.1792 131.0731
L21.1792 129.7398
" />
<path d="M21.1792 129.9303
L21.2744 129.8350
" />
<path d="M21.2744 129.8350
L21.4649 129.7398
" />
<path d="M21.4649 129.7398
L21.7506 129.7398
" />
<path d="M21.7506 129.7398
L21.9411 129.8350
" />
<path d="M21.9411 129.8350
L22.0363 130.0255
" />
<path d="M22.0363 130.0255
L22.0363 131.0731
" />
<path d="M22.0363 130.0255
L22.1316 129.8350
" />
<path d="M22.1316 129.8350
L22.3221 129.7398
" />
<path d="M22.3221 129.7398
L22.6078 129.7398
" />
<path d="M22.6078 129.7398
L22.7983 129.8350
" />
<path d="M22.7983 129.8350
L22.8935 130.0255
" />
<path d="M22.8935 130.0255
L22.8935 131.0731
" />
<path d="M23.8459 131.0731
L23.8459 129.7398
" />
<path d="M23.8459 129.9303
L23.9411 129.8350
" />
<path d="M23.9411 129.8350
L24.1316 129.7398
" />
<path d="M24.1316 129.7398
L24.4173 129.7398
" />
<path d="M24.4173 129.7398
L24.6078 129.8350
" />
<path d="M24.6078 129.8350
L24.7030 130.0255
" />
<path d="M24.7030 130.0255
L24.7030 131.0731
" />
<path d="M24.7030 130.0255
L24.7983 129.8350
" />
<path d="M24.7983 129.8350
L24.9887 129.7398
" />
<path d="M24.9887 129.7398
L25.2744 129.7398
" />
<path d="M25.2744 129.7398
L25.4649 129.8350
" />
<path d="M25.4649 129.8350
L25.5602 130.0255
" />
<path d="M25.5602 130.0255
L25.5602 131.0731
" />
<path d="M29.4649 128.9779
L27.7506 131.5493
" />
<path d="M32.0364 129.0731
L32.2268 129.0731
" />
<path d="M32.2268 129.0731
L32.4173 129.1684
" />
<path d="M32.4173 129.1684
L32.5125 129.2636
" />
<path d="M32.5125 129.2636
L32.6078 129.4541
" />
<path d="M32.6078 129.4541
L32.7030 129.8350
" />
<path d="M32.7030 129.8350
L32.7030 130.3112
" />
<path d="M32.7030 130.3112
L32.6078 130.6922
" />
<path d="M32.6078 130.6922
L32.5125 130.8827
" />
<path d="M32.5125 130.8827
L32.4173 130.9779
" />
<path d="M32.4173 130.9779
L32.2268 131.0731
" />
<path d="M32.2268 131.0731
L32.0364 131.0731
" />
<path d="M32.0364 131.0731
L31.8459 130.9779
" />
<path d="M31.8459 130.9779
L31.7506 130.8827
" />
<path d="M31.7506 130.8827
L31.6554 130.6922
" />
<path d="M31.6554 130.6922
L31.5602 130.3112
" />
<path d="M31.5602 130.3112
L31.5602 129.8350
" />
<path d="M31.5602 129.8350
L31.6554 129.4541
" />
<path d="M31.6554 129.4541
L31.7506 129.2636
" />
<path d="M31.7506 129.2636
L31.8459 129.1684
" />
<path d="M31.8459 129.1684
L32.0364 129.0731
" />
<path d="M33.5602 130.8827
L33.6554 130.9779
" />
<path d="M33.6554 130.9779
L33.5602 131.0731
" />
<path d="M33.5602 131.0731
L33.4649 130.9779
" />
<path d="M33.4649 130.9779
L33.5602 130.8827
" />
<path d="M33.5602 130.8827
L33.5602 131.0731
" />
<path d="M35.5602 131.0731
L34.4173 131.0731
" />
<path d="M34.9887 131.0731
L34.9887 129.0731
" />
<path d="M34.9887 129.0731
L34.7983 129.3588
" />
<path d="M34.7983 129.3588
L34.6078 129.5493
" />
<path d="M34.6078 129.5493
L34.4173 129.6446
" />
<path d="M36.2268 129.0731
L37.4649 129.0731
" />
<path d="M37.4649 129.0731
L36.7983 129.8350
" />
<path d="M36.7983 129.8350
L37.0840 129.8350
" />
<path d="M37.0840 129.8350
L37.2745 129.9303
" />
<path d="M37.2745 129.9303
L37.3697 130.0255
" />
<path d="M37.3697 130.0255
L37.4649 130.2160
" />
<path d="M37.4649 130.2160
L37.4649 130.6922
" />
<path d="M37.4649 130.6922
L37.3697 130.8827
" />
<path d="M37.3697 130.8827
L37.2745 130.9779
" />
<path d="M37.2745 130.9779
L37.0840 131.0731
" />
<path d="M37.0840 131.0731
L36.5125 131.0731
" />
<path d="M36.5125 131.0731
L36.3221 130.9779
" />
<path d="M36.3221 130.9779
L36.2268 130.8827
" />
<path d="M38.1316 129.0731
L39.3697 129.0731
" />
<path d="M39.3697 129.0731
L38.7030 129.8350
" />
<path d="M38.7030 129.8350
L38.9887 129.8350
" />
<path d="M38.9887 129.8350
L39.1792 129.9303
" />
<path d="M39.1792 129.9303
L39.2745 130.0255
" />
<path d="M39.2745 130.0255
L39.3697 130.2160
" />
<path d="M39.3697 130.2160
L39.3697 130.6922
" />
<path d="M39.3697 130.6922
L39.2745 130.8827
" />
<path d="M39.2745 130.8827
L39.1792 130.9779
" />
<path d="M39.1792 130.9779
L38.9887 131.0731
" />
<path d="M38.9887 131.0731
L38.4173 131.0731
" />
<path d="M38.4173 131.0731
L38.2268 130.9779
" />
<path d="M38.2268 130.9779
L38.1316 130.8827
" />
<path d="M40.3221 131.0731
L40.7030 131.0731
" />
<path d="M40.7030 131.0731
L40.8935 130.9779
" />
<path d="M40.8935 130.9779
L40.9887 130.8827
" />
<path d="M40.9887 130.8827
L41.1792 130.5969
" />
<path d="M41.1792 130.5969
L41.2745 130.2160
" />
<path d="M41.2745 130.2160
L41.2745 129.4541
" />
<path d="M41.2745 129.4541
L41.1792 129.2636
" />
<path d="M41.1792 129.2636
L41.0840 129.1684
" />
<path d="M41.0840 129.1684
L40.8935 129.0731
" />
<path d="M40.8935 129.0731
L40.5126 129.0731
" />
<path d="M40.5126 129.0731
L40.3221 129.1684
" />
<path d="M40.3221 129.1684
L40.2268 129.2636
" />
<path d="M40.2268 129.2636
L40.1316 129.4541
" />
<path d="M40.1316 129.4541
L40.1316 129.9303
" />
<path d="M40.1316 129.9303
L40.2268 130.1208
" />
<path d="M40.2268 130.1208
L40.3221 130.2160
" />
<path d="M40.3221 130.2160
L40.5126 130.3112
" />
<path d="M40.5126 130.3112
L40.8935 130.3112
" />
<path d="M40.8935 130.3112
L41.0840 130.2160
" />
<path d="M41.0840 130.2160
L41.1792 130.1208
" />
<path d="M41.1792 130.1208
L41.2745 129.9303
" />
<path d="M42.0364 129.0731
L42.0364 129.4541
" />
<path d="M42.7983 129.0731
L42.7983 129.4541
" />
<path d="M45.7507 131.8350
L45.6554 131.7398
" />
<path d="M45.6554 131.7398
L45.4649 131.4541
" />
<path d="M45.4649 131.4541
L45.3697 131.2636
" />
<path d="M45.3697 131.2636
L45.2745 130.9779
" />
<path d="M45.2745 130.9779
L45.1792 130.5017
" />
<path d="M45.1792 130.5017
L45.1792 130.1208
" />
<path d="M45.1792 130.1208
L45.2745 129.6446
" />
<path d="M45.2745 129.6446
L45.3697 129.3588
" />
<path d="M45.3697 129.3588
L45.4649 129.1684
" />
<path d="M45.4649 129.1684
L45.6554 128.8827
" />
<path d="M45.6554 128.8827
L45.7507 128.7874
" />
<path d="M46.7983 129.9303
L46.6078 129.8350
" />
<path d="M46.6078 129.8350
L46.5126 129.7398
" />
<path d="M46.5126 129.7398
L46.4173 129.5493
" />
<path d="M46.4173 129.5493
L46.4173 129.4541
" />
<path d="M46.4173 129.4541
L46.5126 129.2636
" />
<path d="M46.5126 129.2636
L46.6078 129.1684
" />
<path d="M46.6078 129.1684
L46.7983 129.0731
" />
<path d="M46.7983 129.0731
L47.1792 129.0731
" />
<path d="M47.1792 129.0731
L47.3697 129.1684
" />
<path d="M47.3697 129.1684
L47.4649 129.2636
" />
<path d="M47.4649 129.2636
L47.5602 129.4541
" />
<path d="M47.5602 129.4541
L47.5602 129.5493
" />
<path d="M47.5602 129.5493
L47.4649 129.7398
" />
<path d="M47.4649 129.7398
L47.3697 129.8350
" />
<path d="M47.3697 129.8350
L47.1792 129.9303
" />
<path d="M47.1792 129.9303
L46.7983 129.9303
" />
<path d="M46.7983 129.9303
L46.6078 130.0255
" />
<path d="M46.6078 130.0255
L46.5126 130.1208
" />
<path d="M46.5126 130.1208
L46.4173 130.3112
" />
<path d="M46.4173 130.3112
L46.4173 130.6922
" />
<path d="M46.4173 130.6922
L46.5126 130.8827
" />
<path d="M46.5126 130.8827
L46.6078 130.9779
" />
<path d="M46.6078 130.9779
L46.7983 131.0731
" />
<path d="M46.7983 131.0731
L47.1792 131.0731
" />
<path d="M47.1792 131.0731
L47.3697 130.9779
" />
<path d="M47.3697 130.9779
L47.4649 130.8827
" />
<path d="M47.4649 130.8827
L47.5602 130.6922
" />
<path d="M47.5602 130.6922
L47.5602 130.3112
" />
<path d="M47.5602 130.3112
L47.4649 130.1208
" />
<path d="M47.4649 130.1208
L47.3697 130.0255
" />
<path d="M47.3697 130.0255
L47.1792 129.9303
" />
<path d="M49.9411 131.0731
L49.9411 129.0731
" />
<path d="M50.7983 131.0731
L50.7983 130.0255
" />
<path d="M50.7983 130.0255
L50.7030 129.8350
" />
<path d="M50.7030 129.8350
L50.5126 129.7398
" />
<path d="M50.5126 129.7398
L50.2268 129.7398
" />
<path d="M50.2268 129.7398
L50.0364 129.8350
" />
<path d="M50.0364 129.8350
L49.9411 129.9303
" />
<path d="M52.0364 131.0731
L51.8459 130.9779
" />
<path d="M51.8459 130.9779
L51.7507 130.8827
" />
<path d="M51.7507 130.8827
L51.6554 130.6922
" />
<path d="M51.6554 130.6922
L51.6554 130.1208
" />
<path d="M51.6554 130.1208
L51.7507 129.9303
" />
<path d="M51.7507 129.9303
L51.8459 129.8350
" />
<path d="M51.8459 129.8350
L52.0364 129.7398
" />
<path d="M52.0364 129.7398
L52.3221 129.7398
" />
<path d="M52.3221 129.7398
L52.5126 129.8350
" />
<path d="M52.5126 129.8350
L52.6078 129.9303
" />
<path d="M52.6078 129.9303
L52.7030 130.1208
" />
<path d="M52.7030 130.1208
L52.7030 130.6922
" />
<path d="M52.7030 130.6922
L52.6078 130.8827
" />
<path d="M52.6078 130.8827
L52.5126 130.9779
" />
<path d="M52.5126 130.9779
L52.3221 131.0731
" />
<path d="M52.3221 131.0731
L52.0364 131.0731
" />
<path d="M53.8459 131.0731
L53.6554 130.9779
" />
<path d="M53.6554 130.9779
L53.5602 130.7874
" />
<path d="M53.5602 130.7874
L53.5602 129.0731
" />
<path d="M55.3697 130.9779
L55.1792 131.0731
" />
<path d="M55.1792 131.0731
L54.7983 131.0731
" />
<path d="M54.7983 131.0731
L54.6078 130.9779
" />
<path d="M54.6078 130.9779
L54.5126 130.7874
" />
<path d="M54.5126 130.7874
L54.5126 130.0255
" />
<path d="M54.5126 130.0255
L54.6078 129.8350
" />
<path d="M54.6078 129.8350
L54.7983 129.7398
" />
<path d="M54.7983 129.7398
L55.1792 129.7398
" />
<path d="M55.1792 129.7398
L55.3697 129.8350
" />
<path d="M55.3697 129.8350
L55.4649 130.0255
" />
<path d="M55.4649 130.0255
L55.4649 130.2160
" />
<path d="M55.4649 130.2160
L54.5126 130.4065
" />
<path d="M56.2268 130.9779
L56.4173 131.0731
" />
<path d="M56.4173 131.0731
L56.7983 131.0731
" />
<path d="M56.7983 131.0731
L56.9888 130.9779
" />
<path d="M56.9888 130.9779
L57.0840 130.7874
" />
<path d="M57.0840 130.7874
L57.0840 130.6922
" />
<path d="M57.0840 130.6922
L56.9888 130.5017
" />
<path d="M56.9888 130.5017
L56.7983 130.4065
" />
<path d="M56.7983 130.4065
L56.5126 130.4065
" />
<path d="M56.5126 130.4065
L56.3221 130.3112
" />
<path d="M56.3221 130.3112
L56.2268 130.1208
" />
<path d="M56.2268 130.1208
L56.2268 130.0255
" />
<path d="M56.2268 130.0255
L56.3221 129.8350
" />
<path d="M56.3221 129.8350
L56.5126 129.7398
" />
<path d="M56.5126 129.7398
L56.7983 129.7398
" />
<path d="M56.7983 129.7398
L56.9888 129.8350
" />
<path d="M57.7507 131.8350
L57.8459 131.7398
" />
<path d="M57.8459 131.7398
L58.0364 131.4541
" />
<path d="M58.0364 131.4541
L58.1316 131.2636
" />
<path d="M58.1316 131.2636
L58.2268 130.9779
" />
<path d="M58.2268 130.9779
L58.3221 130.5017
" />
<path d="M58.3221 130.5017
L58.3221 130.1208
" />
<path d="M58.3221 130.1208
L58.2268 129.6446
" />
<path d="M58.2268 129.6446
L58.1316 129.3588
" />
<path d="M58.1316 129.3588
L58.0364 129.1684
" />
<path d="M58.0364 129.1684
L57.8459 128.8827
" />
<path d="M57.8459 128.8827
L57.7507 128.7874
" />
<path d="M61.3697 131.8350
L61.2745 131.7398
" />
<path d="M61.2745 131.7398
L61.0840 131.4541
" />
<path d="M61.0840 131.4541
L60.9888 131.2636
" />
<path d="M60.9888 131.2636
L60.8935 130.9779
" />
<path d="M60.8935 130.9779
L60.7983 130.5017
" />
<path d="M60.7983 130.5017
L60.7983 130.1208
" />
<path d="M60.7983 130.1208
L60.8935 129.6446
" />
<path d="M60.8935 129.6446
L60.9888 129.3588
" />
<path d="M60.9888 129.3588
L61.0840 129.1684
" />
<path d="M61.0840 129.1684
L61.2745 128.8827
" />
<path d="M61.2745 128.8827
L61.3697 128.7874
" />
<path d="M62.1316 129.7398
L62.1316 131.0731
" />
<path d="M62.1316 129.9303
L62.2269 129.8350
" />
<path d="M62.2269 129.8350
L62.4173 129.7398
" />
<path d="M62.4173 129.7398
L62.7030 129.7398
" />
<path d="M62.7030 129.7398
L62.8935 129.8350
" />
<path d="M62.8935 129.8350
L62.9888 130.0255
" />
<path d="M62.9888 130.0255
L62.9888 131.0731
" />
<path d="M64.2269 131.0731
L64.0364 130.9779
" />
<path d="M64.0364 130.9779
L63.9411 130.8827
" />
<path d="M63.9411 130.8827
L63.8459 130.6922
" />
<path d="M63.8459 130.6922
L63.8459 130.1208
" />
<path d="M63.8459 130.1208
L63.9411 129.9303
" />
<path d="M63.9411 129.9303
L64.0364 129.8350
" />
<path d="M64.0364 129.8350
L64.2269 129.7398
" />
<path d="M64.2269 129.7398
L64.5126 129.7398
" />
<path d="M64.5126 129.7398
L64.7030 129.8350
" />
<path d="M64.7030 129.8350
L64.7983 129.9303
" />
<path d="M64.7983 129.9303
L64.8935 130.1208
" />
<path d="M64.8935 130.1208
L64.8935 130.6922
" />
<path d="M64.8935 130.6922
L64.7983 130.8827
" />
<path d="M64.7983 130.8827
L64.7030 130.9779
" />
<path d="M64.7030 130.9779
L64.5126 131.0731
" />
<path d="M64.5126 131.0731
L64.2269 131.0731
" />
<path d="M65.4649 129.7398
L66.2269 129.7398
" />
<path d="M65.7507 129.0731
L65.7507 130.7874
" />
<path d="M65.7507 130.7874
L65.8459 130.9779
" />
<path d="M65.8459 130.9779
L66.0364 131.0731
" />
<path d="M66.0364 131.0731
L66.2269 131.0731
" />
<path d="M68.4173 129.7398
L68.4173 131.7398
" />
<path d="M68.4173 129.8350
L68.6078 129.7398
" />
<path d="M68.6078 129.7398
L68.9888 129.7398
" />
<path d="M68.9888 129.7398
L69.1792 129.8350
" />
<path d="M69.1792 129.8350
L69.2745 129.9303
" />
<path d="M69.2745 129.9303
L69.3697 130.1208
" />
<path d="M69.3697 130.1208
L69.3697 130.6922
" />
<path d="M69.3697 130.6922
L69.2745 130.8827
" />
<path d="M69.2745 130.8827
L69.1792 130.9779
" />
<path d="M69.1792 130.9779
L68.9888 131.0731
" />
<path d="M68.9888 131.0731
L68.6078 131.0731
" />
<path d="M68.6078 131.0731
L68.4173 130.9779
" />
<path d="M70.5126 131.0731
L70.3221 130.9779
" />
<path d="M70.3221 130.9779
L70.2269 130.7874
" />
<path d="M70.2269 130.7874
L70.2269 129.0731
" />
<path d="M72.1316 131.0731
L72.1316 130.0255
" />
<path d="M72.1316 130.0255
L72.0364 129.8350
" />
<path d="M72.0364 129.8350
L71.8459 129.7398
" />
<path d="M71.8459 129.7398
L71.4650 129.7398
" />
<path d="M71.4650 129.7398
L71.2745 129.8350
" />
<path d="M72.1316 130.9779
L71.9411 131.0731
" />
<path d="M71.9411 131.0731
L71.4650 131.0731
" />
<path d="M71.4650 131.0731
L71.2745 130.9779
" />
<path d="M71.2745 130.9779
L71.1792 130.7874
" />
<path d="M71.1792 130.7874
L71.1792 130.5969
" />
<path d="M71.1792 130.5969
L71.2745 130.4065
" />
<path d="M71.2745 130.4065
L71.4650 130.3112
" />
<path d="M71.4650 130.3112
L71.9411 130.3112
" />
<path d="M71.9411 130.3112
L72.1316 130.2160
" />
<path d="M72.7983 129.7398
L73.5602 129.7398
" />
<path d="M73.0840 129.0731
L73.0840 130.7874
" />
<path d="M73.0840 130.7874
L73.1792 130.9779
" />
<path d="M73.1792 130.9779
L73.3697 131.0731
" />
<path d="M73.3697 131.0731
L73.5602 131.0731
" />
<path d="M74.9888 130.9779
L74.7983 131.0731
" />
<path d="M74.7983 131.0731
L74.4173 131.0731
" />
<path d="M74.4173 131.0731
L74.2269 130.9779
" />
<path d="M74.2269 130.9779
L74.1316 130.7874
" />
<path d="M74.1316 130.7874
L74.1316 130.0255
" />
<path d="M74.1316 130.0255
L74.2269 129.8350
" />
<path d="M74.2269 129.8350
L74.4173 129.7398
" />
<path d="M74.4173 129.7398
L74.7983 129.7398
" />
<path d="M74.7983 129.7398
L74.9888 129.8350
" />
<path d="M74.9888 129.8350
L75.0840 130.0255
" />
<path d="M75.0840 130.0255
L75.0840 130.2160
" />
<path d="M75.0840 130.2160
L74.1316 130.4065
" />
<path d="M76.7983 131.0731
L76.7983 129.0731
" />
<path d="M76.7983 130.9779
L76.6078 131.0731
" />
<path d="M76.6078 131.0731
L76.2269 131.0731
" />
<path d="M76.2269 131.0731
L76.0364 130.9779
" />
<path d="M76.0364 130.9779
L75.9411 130.8827
" />
<path d="M75.9411 130.8827
L75.8459 130.6922
" />
<path d="M75.8459 130.6922
L75.8459 130.1208
" />
<path d="M75.8459 130.1208
L75.9411 129.9303
" />
<path d="M75.9411 129.9303
L76.0364 129.8350
" />
<path d="M76.0364 129.8350
L76.2269 129.7398
" />
<path d="M76.2269 129.7398
L76.6078 129.7398
" />
<path d="M76.6078 129.7398
L76.7983 129.8350
" />
<path d="M77.5602 131.8350
L77.6554 131.7398
" />
<path d="M77.6554 131.7398
L77.8459 131.4541
" />
<path d="M77.8459 131.4541
L77.9411 131.2636
" />
<path d="M77.9411 131.2636
L78.0364 130.9779
" />
<path d="M78.0364 130.9779
L78.1316 130.5017
" />
<path d="M78.1316 130.5017
L78.1316 130.1208
" />
<path d="M78.1316 130.1208
L78.0364 129.6446
" />
<path d="M78.0364 129.6446
L77.9411 129.3588
" />
<path d="M77.9411 129.3588
L77.8459 129.1684
" />
<path d="M77.8459 129.1684
L77.6554 128.8827
" />
<path d="M77.6554 128.8827
L77.5602 128.7874
" />
</g></g> 
</svg>
