<?xml version="1.0" standalone="no"?>
 <!DOCTYPE svg PUBLIC "-//W3C//DTD SVG 1.1//EN" 
 "http://www.w3.org/Graphics/SVG/1.1/DTD/svg11.dtd"> 
<svg
  xmlns:svg="http://www.w3.org/2000/svg"
  xmlns="http://www.w3.org/2000/svg"
  xmlns:xlink="http://www.w3.org/1999/xlink"
  version="1.1"
  width="297.0022mm" height="210.0072mm" viewBox="0.0000 0.0000 297.0022 210.0072">
<title>SVG Image created as jigsaw-PTH-drl_map.svg date 2023/09/12 19:54:25 </title>
  <desc>Image generated by PCBNEW </desc>
<g style="fill:#000000; fill-opacity:1.0000;stroke:#000000; stroke-opacity:1.0000;
stroke-linecap:round; stroke-linejoin:round;"
 transform="translate(0 0) scale(1 1)">
</g>
<g style="fill:#000000; fill-opacity:0.0; 
stroke:#000000; stroke-width:0.0000; stroke-opacity:1; 
stroke-linecap:round; stroke-linejoin:round;">
</g>
<g style="fill:#000000; fill-opacity:0.0; 
stroke:#000000; stroke-width:0.2512; stroke-opacity:1; 
stroke-linecap:round; stroke-linejoin:round;">
<path d="M95.1566 34.0856 A2.3945 2.3945 0.0 0 0 98.1626 34.0374" />
<path d="M195.7457 65.5789
L196.2654 65.5397
" />
<path d="M201.8456 39.1978 A2.9962 2.9962 0.0 1 0 201.8203 34.1317" />
<path d="M158.5378 60.5681 A2.9962 2.9962 0.0 0 0 153.9536 58.0276" />
<path d="M100.7031 57.5945 A2.3912 2.3912 0.0 0 0 100.6283 60.5680" />
<path d="M198.8396 39.2459
L198.8405 58.0547
" />
<path d="M143.0092 34.0856 A2.3944 2.3944 0.0 0 0 146.0153 34.0374" />
<path d="M150.9869 34.1094 A2.3414 2.3414 0.0 0 0 153.9576 34.1317" />
<path d="M177.4693 9.7093 A2.9962 2.9962 0.0 1 0 172.4032 9.7347" />
<path d="M172.3809 12.7154 A2.3414 2.3414 0.0 0 0 172.4032 9.7447" />
<path d="M180.6742 65.5789
L105.7085 65.5397
" />
<path d="M124.6932 12.7153
L143.5019 12.7144
" />
<path d="M153.9930 39.1978 A2.3945 2.3945 0.0 0 0 150.9869 39.2459" />
<path d="M151.0271 16.0445
L150.9869 15.1811
" />
<path d="M146.0138 15.2263
L146.0032 16.0445
" />
<path d="M148.3863 116.2740 A3.0096 3.0096 0.0 1 0 153.4905 116.2740" />
<path d="M196.2798 113.3090 A2.5117 2.5117 0.0 0 0 198.7917 110.7971" />
<path d="M143.5496 60.5680
L124.6932 60.5680
" />
<path d="M146.0153 39.1740 A2.3414 2.3414 0.0 0 0 143.0446 39.1517" />
<path d="M106.1308 91.9316 A2.4055 2.4055 0.0 0 0 103.1343 91.9980" />
<path d="M124.6450 9.7092 A2.3945 2.3945 0.0 0 0 124.6932 12.7153" />
<path d="M124.6450 9.7093 A2.9962 2.9962 0.0 1 0 119.5789 9.7346" />
<path d="M177.4693 57.5620 A2.9962 2.9962 0.0 1 0 172.4032 57.5874" />
<path d="M177.5175 12.7154
L196.3286 12.7144
" />
<path d="M153.9830 39.1978 A2.9962 2.9962 0.0 1 0 153.9576 34.1317" />
<path d="M150.9869 58.1023
L150.9869 39.2459
" />
<path d="M198.7780 86.8750 A2.4193 2.4193 0.0 0 0 201.7835 86.8019" />
<path d="M153.9585 15.2589 A2.9962 2.9962 0.0 0 0 158.5378 12.7154" />
<path d="M119.5566 12.7153 A2.3414 2.3414 0.0 0 0 119.5789 9.7446" />
<path d="M146.0138 15.2263 A2.5123 2.5123 0.0 0 0 143.5019 12.7144" />
<path d="M198.8396 34.1094 A2.3414 2.3414 0.0 0 0 201.8103 34.1317" />
<path d="M146.0153 39.1740
L146.0153 53.0171
" />
<path d="M98.1626 53.0171
L98.1626 39.1740
" />
<path d="M148.3863 116.2741 A2.4053 2.4053 0.0 0 0 148.3200 113.2776" />
<path d="M153.4067 113.2776
L196.2798 113.3090
" />
<path d="M153.4067 113.2776 A2.4193 2.4193 0.0 0 0 153.4798 116.2830" />
<path d="M196.3286 60.5666 A2.5124 2.5124 0.0 0 0 198.8405 58.0547" />
<path d="M201.8456 39.1978 A2.3944 2.3944 0.0 0 0 198.8396 39.2459" />
<path d="M100.6735 12.7144 A2.5117 2.5117 0.0 0 0 98.1616 15.2263" />
<path d="M98.1626 34.0374
L98.1616 15.2263
" />
<path d="M100.7061 57.5964 A2.9962 2.9962 0.0 0 0 98.1626 53.0171" />
<path d="M105.7085 65.5395 A2.5118 2.5118 0.0 0 0 103.1966 68.0516" />
<path d="M198.7773 68.0516
L198.7780 86.8750
" />
<path d="M201.7745 91.8954 A2.4053 2.4053 0.0 0 0 198.7780 91.9616" />
<path d="M150.9869 34.1094
L151.0271 31.1160
" />
<path d="M198.8405 15.2263 A2.5117 2.5117 0.0 0 0 196.3286 12.7144" />
<path d="M119.5566 12.7153
L100.6735 12.7144
" />
<path d="M119.5566 60.5680
L100.6283 60.5680
" />
<path d="M198.8396 34.1094
L198.8405 15.2263
" />
<path d="M98.1626 39.1740 A2.3414 2.3414 0.0 0 0 95.1919 39.1517" />
<path d="M146.0153 53.0171 A2.9962 2.9962 0.0 0 0 143.4748 57.6013" />
<path d="M146.0032 31.1160
L146.0153 34.0374
" />
<path d="M106.1307 91.9317 A3.0096 3.0096 0.0 1 0 106.1307 86.8275" />
<path d="M180.6742 60.5550
L177.5175 60.5681
" />
<path d="M103.1392 110.7971 A2.5119 2.5119 0.0 0 0 105.6512 113.3090" />
<path d="M153.9604 15.2558 A2.3912 2.3912 0.0 0 0 150.9869 15.1811" />
<path d="M198.7773 68.0516 A2.5117 2.5117 0.0 0 0 196.2654 65.5397" />
<path d="M172.3809 60.5681 A2.3414 2.3414 0.0 0 0 172.4032 57.5974" />
<path d="M95.1565 34.0856 A2.9962 2.9962 0.0 1 0 95.1819 39.1517" />
<path d="M177.4693 57.5619 A2.3942 2.3942 0.0 0 0 177.5175 60.5681" />
<path d="M201.7745 91.8954 A3.0096 3.0096 0.0 1 0 201.7745 86.7911" />
<path d="M198.7780 91.9616
L198.7917 110.7971
" />
<path d="M143.0092 34.0856 A2.9962 2.9962 0.0 1 0 143.0346 39.1517" />
<path d="M143.5496 60.5680 A2.3912 2.3912 0.0 0 0 143.4748 57.5945" />
<path d="M124.6450 57.5719 A2.9962 2.9962 0.0 1 0 119.5789 57.5973" />
<path d="M119.5566 60.5680 A2.3414 2.3414 0.0 0 0 119.5789 57.5973" />
<path d="M124.6450 57.5619 A2.3945 2.3945 0.0 0 0 124.6932 60.5680" />
<path d="M150.9869 58.1023 A2.3912 2.3912 0.0 0 0 153.9604 58.0276" />
<path d="M103.1343 91.9980
L103.1393 110.7971
" />
<path d="M103.1342 86.9115 A2.4194 2.4194 0.0 0 0 106.1397 86.8383" />
<path d="M195.7457 60.5550
L196.3286 60.5666
" />
<path d="M158.5378 12.7154
L172.3809 12.7154
" />
<path d="M172.3809 60.5681
L158.5378 60.5681
" />
<path d="M148.3201 113.2776
L105.6512 113.3090
" />
<path d="M177.4693 9.7093 A2.3945 2.3945 0.0 0 0 177.5175 12.7154" />
<path d="M103.1966 68.0320
L103.1343 86.9114
" />
</g>
<g style="fill:#000000; fill-opacity:0.0; 
stroke:#000000; stroke-width:0.5024; stroke-opacity:1; 
stroke-linecap:round; stroke-linejoin:round;">
</g>
<g style="fill:#000000; fill-opacity:0.0; 
stroke:#000000; stroke-width:0.1005; stroke-opacity:1; 
stroke-linecap:round; stroke-linejoin:round;">
<path d="M127.5810 42.1193
L128.5857 43.1241
" />
<path d="M128.5857 42.1193
L127.5810 43.1241
" />
<path d="M131.2207 42.1193
L132.2255 43.1241
" />
<path d="M132.2255 42.1193
L131.2207 43.1241
" />
<path d="M168.4308 42.1337
L169.4356 43.1385
" />
<path d="M169.4356 42.1337
L168.4308 43.1385
" />
<path d="M168.4308 45.7735
L169.4356 46.7783
" />
<path d="M169.4356 45.7735
L168.4308 46.7783
" />
</g>
<g style="fill:#000000; fill-opacity:0.0; 
stroke:#000000; stroke-width:0.5024; stroke-opacity:1; 
stroke-linecap:round; stroke-linejoin:round;">
</g>
<g style="fill:#000000; fill-opacity:0.0; 
stroke:#000000; stroke-width:0.2000; stroke-opacity:1; 
stroke-linecap:round; stroke-linejoin:round;">
<text x="92.4473" y="124.2043"
textLength="14.8667" font-size="2.6667" lengthAdjust="spacingAndGlyphs"
text-anchor="start" opacity="0">Drill Map:</text>
<g class="stroked-text"><desc>Drill Map:</desc>
<path d="M93.0551 124.1192
L93.0551 122.1192
" />
<path d="M93.0551 122.1192
L93.5313 122.1192
" />
<path d="M93.5313 122.1192
L93.8170 122.2144
" />
<path d="M93.8170 122.2144
L94.0074 122.4049
" />
<path d="M94.0074 122.4049
L94.1027 122.5953
" />
<path d="M94.1027 122.5953
L94.1979 122.9763
" />
<path d="M94.1979 122.9763
L94.1979 123.2620
" />
<path d="M94.1979 123.2620
L94.1027 123.6430
" />
<path d="M94.1027 123.6430
L94.0074 123.8334
" />
<path d="M94.0074 123.8334
L93.8170 124.0239
" />
<path d="M93.8170 124.0239
L93.5313 124.1192
" />
<path d="M93.5313 124.1192
L93.0551 124.1192
" />
<path d="M95.0551 124.1192
L95.0551 122.7858
" />
<path d="M95.0551 123.1668
L95.1503 122.9763
" />
<path d="M95.1503 122.9763
L95.2455 122.8811
" />
<path d="M95.2455 122.8811
L95.4360 122.7858
" />
<path d="M95.4360 122.7858
L95.6265 122.7858
" />
<path d="M96.2932 124.1192
L96.2932 122.7858
" />
<path d="M96.2932 122.1192
L96.1979 122.2144
" />
<path d="M96.1979 122.2144
L96.2932 122.3096
" />
<path d="M96.2932 122.3096
L96.3884 122.2144
" />
<path d="M96.3884 122.2144
L96.2932 122.1192
" />
<path d="M96.2932 122.1192
L96.2932 122.3096
" />
<path d="M97.5313 124.1192
L97.3408 124.0239
" />
<path d="M97.3408 124.0239
L97.2455 123.8334
" />
<path d="M97.2455 123.8334
L97.2455 122.1192
" />
<path d="M98.5789 124.1192
L98.3884 124.0239
" />
<path d="M98.3884 124.0239
L98.2932 123.8334
" />
<path d="M98.2932 123.8334
L98.2932 122.1192
" />
<path d="M100.8646 124.1192
L100.8646 122.1192
" />
<path d="M100.8646 122.1192
L101.5313 123.5477
" />
<path d="M101.5313 123.5477
L102.1979 122.1192
" />
<path d="M102.1979 122.1192
L102.1979 124.1192
" />
<path d="M104.0074 124.1192
L104.0074 123.0715
" />
<path d="M104.0074 123.0715
L103.9122 122.8811
" />
<path d="M103.9122 122.8811
L103.7217 122.7858
" />
<path d="M103.7217 122.7858
L103.3408 122.7858
" />
<path d="M103.3408 122.7858
L103.1503 122.8811
" />
<path d="M104.0074 124.0239
L103.8170 124.1192
" />
<path d="M103.8170 124.1192
L103.3408 124.1192
" />
<path d="M103.3408 124.1192
L103.1503 124.0239
" />
<path d="M103.1503 124.0239
L103.0551 123.8334
" />
<path d="M103.0551 123.8334
L103.0551 123.6430
" />
<path d="M103.0551 123.6430
L103.1503 123.4525
" />
<path d="M103.1503 123.4525
L103.3408 123.3573
" />
<path d="M103.3408 123.3573
L103.8170 123.3573
" />
<path d="M103.8170 123.3573
L104.0074 123.2620
" />
<path d="M104.9598 122.7858
L104.9598 124.7858
" />
<path d="M104.9598 122.8811
L105.1503 122.7858
" />
<path d="M105.1503 122.7858
L105.5313 122.7858
" />
<path d="M105.5313 122.7858
L105.7217 122.8811
" />
<path d="M105.7217 122.8811
L105.8170 122.9763
" />
<path d="M105.8170 122.9763
L105.9122 123.1668
" />
<path d="M105.9122 123.1668
L105.9122 123.7382
" />
<path d="M105.9122 123.7382
L105.8170 123.9287
" />
<path d="M105.8170 123.9287
L105.7217 124.0239
" />
<path d="M105.7217 124.0239
L105.5313 124.1192
" />
<path d="M105.5313 124.1192
L105.1503 124.1192
" />
<path d="M105.1503 124.1192
L104.9598 124.0239
" />
<path d="M106.7693 123.9287
L106.8646 124.0239
" />
<path d="M106.8646 124.0239
L106.7693 124.1192
" />
<path d="M106.7693 124.1192
L106.6741 124.0239
" />
<path d="M106.6741 124.0239
L106.7693 123.9287
" />
<path d="M106.7693 123.9287
L106.7693 124.1192
" />
<path d="M106.7693 122.8811
L106.8646 122.9763
" />
<path d="M106.8646 122.9763
L106.7693 123.0715
" />
<path d="M106.7693 123.0715
L106.6741 122.9763
" />
<path d="M106.6741 122.9763
L106.7693 122.8811
" />
<path d="M106.7693 122.8811
L106.7693 123.0715
" />
</g></g>
<g style="fill:#000000; fill-opacity:0.0; 
stroke:#000000; stroke-width:0.1005; stroke-opacity:1; 
stroke-linecap:round; stroke-linejoin:round;">
<path d="M89.4425 126.9019
L90.4473 127.9067
" />
<path d="M90.4473 126.9019
L89.4425 127.9067
" />
</g>
<g style="fill:#000000; fill-opacity:0.0; 
stroke:#000000; stroke-width:0.5024; stroke-opacity:1; 
stroke-linecap:round; stroke-linejoin:round;">
</g>
<g style="fill:#000000; fill-opacity:0.0; 
stroke:#000000; stroke-width:0.2000; stroke-opacity:1; 
stroke-linecap:round; stroke-linejoin:round;">
<text x="92.4473" y="128.4043"
textLength="46.8667" font-size="2.6667" lengthAdjust="spacingAndGlyphs"
text-anchor="start" opacity="0">0.400mm / 0.0157" (4 holes)</text>
<g class="stroked-text"><desc>0.400mm / 0.0157" (4 holes)</desc>
<path d="M93.4360 126.3192
L93.6265 126.3192
" />
<path d="M93.6265 126.3192
L93.8170 126.4144
" />
<path d="M93.8170 126.4144
L93.9122 126.5096
" />
<path d="M93.9122 126.5096
L94.0074 126.7001
" />
<path d="M94.0074 126.7001
L94.1027 127.0811
" />
<path d="M94.1027 127.0811
L94.1027 127.5572
" />
<path d="M94.1027 127.5572
L94.0074 127.9382
" />
<path d="M94.0074 127.9382
L93.9122 128.1287
" />
<path d="M93.9122 128.1287
L93.8170 128.2239
" />
<path d="M93.8170 128.2239
L93.6265 128.3192
" />
<path d="M93.6265 128.3192
L93.4360 128.3192
" />
<path d="M93.4360 128.3192
L93.2455 128.2239
" />
<path d="M93.2455 128.2239
L93.1503 128.1287
" />
<path d="M93.1503 128.1287
L93.0551 127.9382
" />
<path d="M93.0551 127.9382
L92.9598 127.5572
" />
<path d="M92.9598 127.5572
L92.9598 127.0811
" />
<path d="M92.9598 127.0811
L93.0551 126.7001
" />
<path d="M93.0551 126.7001
L93.1503 126.5096
" />
<path d="M93.1503 126.5096
L93.2455 126.4144
" />
<path d="M93.2455 126.4144
L93.4360 126.3192
" />
<path d="M94.9598 128.1287
L95.0551 128.2239
" />
<path d="M95.0551 128.2239
L94.9598 128.3192
" />
<path d="M94.9598 128.3192
L94.8646 128.2239
" />
<path d="M94.8646 128.2239
L94.9598 128.1287
" />
<path d="M94.9598 128.1287
L94.9598 128.3192
" />
<path d="M96.7694 126.9858
L96.7694 128.3192
" />
<path d="M96.2932 126.2239
L95.8170 127.6525
" />
<path d="M95.8170 127.6525
L97.0551 127.6525
" />
<path d="M98.1979 126.3192
L98.3884 126.3192
" />
<path d="M98.3884 126.3192
L98.5789 126.4144
" />
<path d="M98.5789 126.4144
L98.6741 126.5096
" />
<path d="M98.6741 126.5096
L98.7694 126.7001
" />
<path d="M98.7694 126.7001
L98.8646 127.0811
" />
<path d="M98.8646 127.0811
L98.8646 127.5572
" />
<path d="M98.8646 127.5572
L98.7694 127.9382
" />
<path d="M98.7694 127.9382
L98.6741 128.1287
" />
<path d="M98.6741 128.1287
L98.5789 128.2239
" />
<path d="M98.5789 128.2239
L98.3884 128.3192
" />
<path d="M98.3884 128.3192
L98.1979 128.3192
" />
<path d="M98.1979 128.3192
L98.0074 128.2239
" />
<path d="M98.0074 128.2239
L97.9122 128.1287
" />
<path d="M97.9122 128.1287
L97.8170 127.9382
" />
<path d="M97.8170 127.9382
L97.7217 127.5572
" />
<path d="M97.7217 127.5572
L97.7217 127.0811
" />
<path d="M97.7217 127.0811
L97.8170 126.7001
" />
<path d="M97.8170 126.7001
L97.9122 126.5096
" />
<path d="M97.9122 126.5096
L98.0074 126.4144
" />
<path d="M98.0074 126.4144
L98.1979 126.3192
" />
<path d="M100.1027 126.3192
L100.2932 126.3192
" />
<path d="M100.2932 126.3192
L100.4836 126.4144
" />
<path d="M100.4836 126.4144
L100.5789 126.5096
" />
<path d="M100.5789 126.5096
L100.6741 126.7001
" />
<path d="M100.6741 126.7001
L100.7694 127.0811
" />
<path d="M100.7694 127.0811
L100.7694 127.5572
" />
<path d="M100.7694 127.5572
L100.6741 127.9382
" />
<path d="M100.6741 127.9382
L100.5789 128.1287
" />
<path d="M100.5789 128.1287
L100.4836 128.2239
" />
<path d="M100.4836 128.2239
L100.2932 128.3192
" />
<path d="M100.2932 128.3192
L100.1027 128.3192
" />
<path d="M100.1027 128.3192
L99.9122 128.2239
" />
<path d="M99.9122 128.2239
L99.8170 128.1287
" />
<path d="M99.8170 128.1287
L99.7217 127.9382
" />
<path d="M99.7217 127.9382
L99.6265 127.5572
" />
<path d="M99.6265 127.5572
L99.6265 127.0811
" />
<path d="M99.6265 127.0811
L99.7217 126.7001
" />
<path d="M99.7217 126.7001
L99.8170 126.5096
" />
<path d="M99.8170 126.5096
L99.9122 126.4144
" />
<path d="M99.9122 126.4144
L100.1027 126.3192
" />
<path d="M101.6265 128.3192
L101.6265 126.9858
" />
<path d="M101.6265 127.1763
L101.7217 127.0811
" />
<path d="M101.7217 127.0811
L101.9122 126.9858
" />
<path d="M101.9122 126.9858
L102.1979 126.9858
" />
<path d="M102.1979 126.9858
L102.3884 127.0811
" />
<path d="M102.3884 127.0811
L102.4836 127.2715
" />
<path d="M102.4836 127.2715
L102.4836 128.3192
" />
<path d="M102.4836 127.2715
L102.5789 127.0811
" />
<path d="M102.5789 127.0811
L102.7694 126.9858
" />
<path d="M102.7694 126.9858
L103.0551 126.9858
" />
<path d="M103.0551 126.9858
L103.2455 127.0811
" />
<path d="M103.2455 127.0811
L103.3408 127.2715
" />
<path d="M103.3408 127.2715
L103.3408 128.3192
" />
<path d="M104.2932 128.3192
L104.2932 126.9858
" />
<path d="M104.2932 127.1763
L104.3884 127.0811
" />
<path d="M104.3884 127.0811
L104.5789 126.9858
" />
<path d="M104.5789 126.9858
L104.8646 126.9858
" />
<path d="M104.8646 126.9858
L105.0551 127.0811
" />
<path d="M105.0551 127.0811
L105.1503 127.2715
" />
<path d="M105.1503 127.2715
L105.1503 128.3192
" />
<path d="M105.1503 127.2715
L105.2455 127.0811
" />
<path d="M105.2455 127.0811
L105.4360 126.9858
" />
<path d="M105.4360 126.9858
L105.7217 126.9858
" />
<path d="M105.7217 126.9858
L105.9122 127.0811
" />
<path d="M105.9122 127.0811
L106.0074 127.2715
" />
<path d="M106.0074 127.2715
L106.0074 128.3192
" />
<path d="M109.9122 126.2239
L108.1979 128.7953
" />
<path d="M112.4836 126.3192
L112.6741 126.3192
" />
<path d="M112.6741 126.3192
L112.8646 126.4144
" />
<path d="M112.8646 126.4144
L112.9598 126.5096
" />
<path d="M112.9598 126.5096
L113.0551 126.7001
" />
<path d="M113.0551 126.7001
L113.1503 127.0811
" />
<path d="M113.1503 127.0811
L113.1503 127.5572
" />
<path d="M113.1503 127.5572
L113.0551 127.9382
" />
<path d="M113.0551 127.9382
L112.9598 128.1287
" />
<path d="M112.9598 128.1287
L112.8646 128.2239
" />
<path d="M112.8646 128.2239
L112.6741 128.3192
" />
<path d="M112.6741 128.3192
L112.4836 128.3192
" />
<path d="M112.4836 128.3192
L112.2932 128.2239
" />
<path d="M112.2932 128.2239
L112.1979 128.1287
" />
<path d="M112.1979 128.1287
L112.1027 127.9382
" />
<path d="M112.1027 127.9382
L112.0074 127.5572
" />
<path d="M112.0074 127.5572
L112.0074 127.0811
" />
<path d="M112.0074 127.0811
L112.1027 126.7001
" />
<path d="M112.1027 126.7001
L112.1979 126.5096
" />
<path d="M112.1979 126.5096
L112.2932 126.4144
" />
<path d="M112.2932 126.4144
L112.4836 126.3192
" />
<path d="M114.0075 128.1287
L114.1027 128.2239
" />
<path d="M114.1027 128.2239
L114.0075 128.3192
" />
<path d="M114.0075 128.3192
L113.9122 128.2239
" />
<path d="M113.9122 128.2239
L114.0075 128.1287
" />
<path d="M114.0075 128.1287
L114.0075 128.3192
" />
<path d="M115.3408 126.3192
L115.5313 126.3192
" />
<path d="M115.5313 126.3192
L115.7217 126.4144
" />
<path d="M115.7217 126.4144
L115.8170 126.5096
" />
<path d="M115.8170 126.5096
L115.9122 126.7001
" />
<path d="M115.9122 126.7001
L116.0075 127.0811
" />
<path d="M116.0075 127.0811
L116.0075 127.5572
" />
<path d="M116.0075 127.5572
L115.9122 127.9382
" />
<path d="M115.9122 127.9382
L115.8170 128.1287
" />
<path d="M115.8170 128.1287
L115.7217 128.2239
" />
<path d="M115.7217 128.2239
L115.5313 128.3192
" />
<path d="M115.5313 128.3192
L115.3408 128.3192
" />
<path d="M115.3408 128.3192
L115.1503 128.2239
" />
<path d="M115.1503 128.2239
L115.0551 128.1287
" />
<path d="M115.0551 128.1287
L114.9598 127.9382
" />
<path d="M114.9598 127.9382
L114.8646 127.5572
" />
<path d="M114.8646 127.5572
L114.8646 127.0811
" />
<path d="M114.8646 127.0811
L114.9598 126.7001
" />
<path d="M114.9598 126.7001
L115.0551 126.5096
" />
<path d="M115.0551 126.5096
L115.1503 126.4144
" />
<path d="M115.1503 126.4144
L115.3408 126.3192
" />
<path d="M117.9122 128.3192
L116.7694 128.3192
" />
<path d="M117.3408 128.3192
L117.3408 126.3192
" />
<path d="M117.3408 126.3192
L117.1503 126.6049
" />
<path d="M117.1503 126.6049
L116.9598 126.7953
" />
<path d="M116.9598 126.7953
L116.7694 126.8906
" />
<path d="M119.7217 126.3192
L118.7694 126.3192
" />
<path d="M118.7694 126.3192
L118.6741 127.2715
" />
<path d="M118.6741 127.2715
L118.7694 127.1763
" />
<path d="M118.7694 127.1763
L118.9598 127.0811
" />
<path d="M118.9598 127.0811
L119.4360 127.0811
" />
<path d="M119.4360 127.0811
L119.6265 127.1763
" />
<path d="M119.6265 127.1763
L119.7217 127.2715
" />
<path d="M119.7217 127.2715
L119.8170 127.4620
" />
<path d="M119.8170 127.4620
L119.8170 127.9382
" />
<path d="M119.8170 127.9382
L119.7217 128.1287
" />
<path d="M119.7217 128.1287
L119.6265 128.2239
" />
<path d="M119.6265 128.2239
L119.4360 128.3192
" />
<path d="M119.4360 128.3192
L118.9598 128.3192
" />
<path d="M118.9598 128.3192
L118.7694 128.2239
" />
<path d="M118.7694 128.2239
L118.6741 128.1287
" />
<path d="M120.4836 126.3192
L121.8170 126.3192
" />
<path d="M121.8170 126.3192
L120.9598 128.3192
" />
<path d="M122.4836 126.3192
L122.4836 126.7001
" />
<path d="M123.2456 126.3192
L123.2456 126.7001
" />
<path d="M126.1979 129.0811
L126.1027 128.9858
" />
<path d="M126.1027 128.9858
L125.9122 128.7001
" />
<path d="M125.9122 128.7001
L125.8170 128.5096
" />
<path d="M125.8170 128.5096
L125.7217 128.2239
" />
<path d="M125.7217 128.2239
L125.6265 127.7477
" />
<path d="M125.6265 127.7477
L125.6265 127.3668
" />
<path d="M125.6265 127.3668
L125.7217 126.8906
" />
<path d="M125.7217 126.8906
L125.8170 126.6049
" />
<path d="M125.8170 126.6049
L125.9122 126.4144
" />
<path d="M125.9122 126.4144
L126.1027 126.1287
" />
<path d="M126.1027 126.1287
L126.1979 126.0334
" />
<path d="M127.8170 126.9858
L127.8170 128.3192
" />
<path d="M127.3408 126.2239
L126.8646 127.6525
" />
<path d="M126.8646 127.6525
L128.1027 127.6525
" />
<path d="M130.3884 128.3192
L130.3884 126.3192
" />
<path d="M131.2456 128.3192
L131.2456 127.2715
" />
<path d="M131.2456 127.2715
L131.1503 127.0811
" />
<path d="M131.1503 127.0811
L130.9598 126.9858
" />
<path d="M130.9598 126.9858
L130.6741 126.9858
" />
<path d="M130.6741 126.9858
L130.4837 127.0811
" />
<path d="M130.4837 127.0811
L130.3884 127.1763
" />
<path d="M132.4837 128.3192
L132.2932 128.2239
" />
<path d="M132.2932 128.2239
L132.1979 128.1287
" />
<path d="M132.1979 128.1287
L132.1027 127.9382
" />
<path d="M132.1027 127.9382
L132.1027 127.3668
" />
<path d="M132.1027 127.3668
L132.1979 127.1763
" />
<path d="M132.1979 127.1763
L132.2932 127.0811
" />
<path d="M132.2932 127.0811
L132.4837 126.9858
" />
<path d="M132.4837 126.9858
L132.7694 126.9858
" />
<path d="M132.7694 126.9858
L132.9598 127.0811
" />
<path d="M132.9598 127.0811
L133.0551 127.1763
" />
<path d="M133.0551 127.1763
L133.1503 127.3668
" />
<path d="M133.1503 127.3668
L133.1503 127.9382
" />
<path d="M133.1503 127.9382
L133.0551 128.1287
" />
<path d="M133.0551 128.1287
L132.9598 128.2239
" />
<path d="M132.9598 128.2239
L132.7694 128.3192
" />
<path d="M132.7694 128.3192
L132.4837 128.3192
" />
<path d="M134.2932 128.3192
L134.1027 128.2239
" />
<path d="M134.1027 128.2239
L134.0075 128.0334
" />
<path d="M134.0075 128.0334
L134.0075 126.3192
" />
<path d="M135.8170 128.2239
L135.6265 128.3192
" />
<path d="M135.6265 128.3192
L135.2456 128.3192
" />
<path d="M135.2456 128.3192
L135.0551 128.2239
" />
<path d="M135.0551 128.2239
L134.9598 128.0334
" />
<path d="M134.9598 128.0334
L134.9598 127.2715
" />
<path d="M134.9598 127.2715
L135.0551 127.0811
" />
<path d="M135.0551 127.0811
L135.2456 126.9858
" />
<path d="M135.2456 126.9858
L135.6265 126.9858
" />
<path d="M135.6265 126.9858
L135.8170 127.0811
" />
<path d="M135.8170 127.0811
L135.9122 127.2715
" />
<path d="M135.9122 127.2715
L135.9122 127.4620
" />
<path d="M135.9122 127.4620
L134.9598 127.6525
" />
<path d="M136.6741 128.2239
L136.8646 128.3192
" />
<path d="M136.8646 128.3192
L137.2456 128.3192
" />
<path d="M137.2456 128.3192
L137.4360 128.2239
" />
<path d="M137.4360 128.2239
L137.5313 128.0334
" />
<path d="M137.5313 128.0334
L137.5313 127.9382
" />
<path d="M137.5313 127.9382
L137.4360 127.7477
" />
<path d="M137.4360 127.7477
L137.2456 127.6525
" />
<path d="M137.2456 127.6525
L136.9598 127.6525
" />
<path d="M136.9598 127.6525
L136.7694 127.5572
" />
<path d="M136.7694 127.5572
L136.6741 127.3668
" />
<path d="M136.6741 127.3668
L136.6741 127.2715
" />
<path d="M136.6741 127.2715
L136.7694 127.0811
" />
<path d="M136.7694 127.0811
L136.9598 126.9858
" />
<path d="M136.9598 126.9858
L137.2456 126.9858
" />
<path d="M137.2456 126.9858
L137.4360 127.0811
" />
<path d="M138.1979 129.0811
L138.2932 128.9858
" />
<path d="M138.2932 128.9858
L138.4837 128.7001
" />
<path d="M138.4837 128.7001
L138.5789 128.5096
" />
<path d="M138.5789 128.5096
L138.6741 128.2239
" />
<path d="M138.6741 128.2239
L138.7694 127.7477
" />
<path d="M138.7694 127.7477
L138.7694 127.3668
" />
<path d="M138.7694 127.3668
L138.6741 126.8906
" />
<path d="M138.6741 126.8906
L138.5789 126.6049
" />
<path d="M138.5789 126.6049
L138.4837 126.4144
" />
<path d="M138.4837 126.4144
L138.2932 126.1287
" />
<path d="M138.2932 126.1287
L138.1979 126.0334
" />
</g></g> 
</svg>
