%TF.GenerationSoftware,KiCad,Pcbnew,7.0.7*%
%TF.CreationDate,2023-09-12T19:54:29+10:00*%
%TF.ProjectId,jigsaw,6a696773-6177-42e6-9b69-6361645f7063,rev?*%
%TF.SameCoordinates,Original*%
%TF.FileFunction,Legend,Top*%
%TF.FilePolarity,Positive*%
%FSLAX46Y46*%
G04 Gerber Fmt 4.6, Leading zero omitted, Abs format (unit mm)*
G04 Created by KiCad (PCBNEW 7.0.7) date 2023-09-12 19:54:29*
%MOMM*%
%LPD*%
G01*
G04 APERTURE LIST*
%ADD10C,0.100000*%
G04 APERTURE END LIST*
D10*
%TO.C,REF\u002A\u002A*%
X154076671Y-76095431D02*
G75*
G03*
X155076671Y-75095431I0J1000000D01*
G01*
X155076671Y-63095431D02*
G75*
G03*
X154076671Y-62095431I-1000000J0D01*
G01*
X148276671Y-75095431D02*
G75*
G03*
X149276671Y-76095431I1000000J0D01*
G01*
X149276671Y-62095431D02*
G75*
G03*
X148276671Y-63095431I0J-1000000D01*
G01*
X130276671Y-76095431D02*
G75*
G03*
X131276671Y-75095431I1J999999D01*
G01*
X131276671Y-63095431D02*
G75*
G03*
X130276671Y-62095431I-999999J1D01*
G01*
X124476671Y-75095431D02*
G75*
G03*
X125476671Y-76095431I999999J-1D01*
G01*
X125476671Y-62095431D02*
G75*
G03*
X124476671Y-63095431I-1J-999999D01*
G01*
X155076671Y-63095431D02*
X155076671Y-75095431D01*
X154076671Y-76095431D02*
X149276671Y-76095431D01*
X149276671Y-62095431D02*
X154076671Y-62095431D01*
X148276671Y-75095431D02*
X148276671Y-63095431D01*
X131276671Y-63095431D02*
X131276671Y-75095431D01*
X130276671Y-76095431D02*
X125476671Y-76095431D01*
X125476671Y-62095431D02*
X130276671Y-62095431D01*
X124476671Y-75095431D02*
X124476671Y-63095431D01*
%TO.C,SW1*%
X121196145Y-52234197D02*
X121196145Y-42034197D01*
X123196145Y-40034197D02*
X133396145Y-40034197D01*
X133396145Y-54234197D02*
X123196145Y-54234197D01*
X135396145Y-42034197D02*
X135396145Y-52234197D01*
X123196145Y-40034197D02*
G75*
G03*
X121196145Y-42034197I-1J-1999999D01*
G01*
X121196145Y-52234197D02*
G75*
G03*
X123196145Y-54234197I1999999J-1D01*
G01*
X135396145Y-42034197D02*
G75*
G03*
X133396145Y-40034197I-2000000J0D01*
G01*
X133396145Y-54234197D02*
G75*
G03*
X135396145Y-52234197I0J2000000D01*
G01*
X142226556Y-52234191D02*
G75*
G03*
X144226556Y-54234191I2000000J0D01*
G01*
X154426556Y-54234191D02*
G75*
G03*
X156426556Y-52234191I0J2000000D01*
G01*
X144226556Y-40034191D02*
G75*
G03*
X142226556Y-42034191I-1J-1999999D01*
G01*
X156426556Y-42034191D02*
G75*
G03*
X154426556Y-40034191I-1999999J1D01*
G01*
X154426556Y-54234191D02*
X144226556Y-54234191D01*
X142226556Y-52234191D02*
X142226556Y-42034191D01*
X156426556Y-42034191D02*
X156426556Y-52234191D01*
X144226556Y-40034191D02*
X154426556Y-40034191D01*
%TO.C,SW2*%
X134676671Y-60995431D02*
G75*
G03*
X132676671Y-62995431I0J-2000000D01*
G01*
X132676671Y-73195431D02*
G75*
G03*
X134676671Y-75195431I2000000J0D01*
G01*
X146876671Y-62995431D02*
G75*
G03*
X144876671Y-60995431I-1999999J1D01*
G01*
X144876671Y-75195431D02*
G75*
G03*
X146876671Y-73195431I1J1999999D01*
G01*
X132676671Y-73195431D02*
X132676671Y-62995431D01*
X134676671Y-60995431D02*
X144876671Y-60995431D01*
X144876671Y-75195431D02*
X134676671Y-75195431D01*
X146876671Y-62995431D02*
X146876671Y-73195431D01*
%TD*%
M02*
