%TF.GenerationSoftware,KiCad,Pcbnew,7.0.7*%
%TF.CreationDate,2023-09-12T19:54:29+10:00*%
%TF.ProjectId,jigsaw,6a696773-6177-42e6-9b69-6361645f7063,rev?*%
%TF.SameCoordinates,Original*%
%TF.FileFunction,Soldermask,Bot*%
%TF.FilePolarity,Negative*%
%FSLAX46Y46*%
G04 Gerber Fmt 4.6, Leading zero omitted, Abs format (unit mm)*
G04 Created by KiCad (PCBNEW 7.0.7) date 2023-09-12 19:54:29*
%MOMM*%
%LPD*%
G01*
G04 APERTURE LIST*
G04 Aperture macros list*
%AMRoundRect*
0 Rectangle with rounded corners*
0 $1 Rounding radius*
0 $2 $3 $4 $5 $6 $7 $8 $9 X,Y pos of 4 corners*
0 Add a 4 corners polygon primitive as box body*
4,1,4,$2,$3,$4,$5,$6,$7,$8,$9,$2,$3,0*
0 Add four circle primitives for the rounded corners*
1,1,$1+$1,$2,$3*
1,1,$1+$1,$4,$5*
1,1,$1+$1,$6,$7*
1,1,$1+$1,$8,$9*
0 Add four rect primitives between the rounded corners*
20,1,$1+$1,$2,$3,$4,$5,0*
20,1,$1+$1,$4,$5,$6,$7,0*
20,1,$1+$1,$6,$7,$8,$9,0*
20,1,$1+$1,$8,$9,$2,$3,0*%
G04 Aperture macros list end*
%ADD10C,3.987800*%
%ADD11C,3.048000*%
%ADD12RoundRect,0.225000X0.375000X-0.225000X0.375000X0.225000X-0.375000X0.225000X-0.375000X-0.225000X0*%
%ADD13C,1.750000*%
%ADD14C,3.050000*%
%ADD15C,4.000000*%
%ADD16RoundRect,0.250000X-1.025000X-1.000000X1.025000X-1.000000X1.025000X1.000000X-1.025000X1.000000X0*%
%ADD17C,0.500000*%
%ADD18RoundRect,0.225000X-0.225000X-0.375000X0.225000X-0.375000X0.225000X0.375000X-0.225000X0.375000X0*%
%ADD19RoundRect,0.225000X0.225000X0.375000X-0.225000X0.375000X-0.225000X-0.375000X0.225000X-0.375000X0*%
%ADD20RoundRect,0.250000X-1.000000X1.025000X-1.000000X-1.025000X1.000000X-1.025000X1.000000X1.025000X0*%
%ADD21RoundRect,0.250000X1.025000X1.000000X-1.025000X1.000000X-1.025000X-1.000000X1.025000X-1.000000X0*%
G04 APERTURE END LIST*
D10*
%TO.C,REF\u002A\u002A*%
X151682921Y-76350431D03*
D11*
X151682921Y-61110431D03*
D10*
X127870421Y-76350431D03*
D11*
X127870421Y-61110431D03*
%TD*%
D12*
%TO.C,D1*%
X120485521Y-51164333D03*
X120485521Y-47864333D03*
%TD*%
D13*
%TO.C,SW1*%
X123216145Y-47134197D03*
D14*
X124486145Y-44594197D03*
D15*
X128296145Y-47134197D03*
D14*
X130836145Y-42054197D03*
D13*
X133376145Y-47134197D03*
D16*
X121211145Y-44594197D03*
X134138145Y-42054197D03*
%TD*%
D17*
%TO.C,REF\u002A\u002A*%
X139816970Y-40134880D03*
X139816970Y-40874880D03*
X139816970Y-41614880D03*
X139816970Y-42354880D03*
X139816970Y-43094880D03*
X139816970Y-43834880D03*
X137766970Y-43784880D03*
X137766970Y-40824880D03*
X137766970Y-43044880D03*
X137766970Y-41564880D03*
X137766970Y-42304880D03*
X137766970Y-40084880D03*
%TD*%
%TO.C,REF\u002A\u002A*%
X156519550Y-56654620D03*
X155779550Y-56654620D03*
X155039550Y-56654620D03*
X154299550Y-56654620D03*
X153559550Y-56654620D03*
X152819550Y-56654620D03*
X156469550Y-58704620D03*
X155729550Y-58704620D03*
X154989550Y-58704620D03*
X154249550Y-58704620D03*
X153509550Y-58704620D03*
X152769550Y-58704620D03*
%TD*%
D18*
%TO.C,D1*%
X148596420Y-39323567D03*
X145296420Y-39323567D03*
%TD*%
D19*
%TO.C,D2*%
X147515753Y-66924634D03*
X150815753Y-66924634D03*
%TD*%
D20*
%TO.C,SW1*%
X154406556Y-52976191D03*
X151866556Y-40049191D03*
D13*
X149326556Y-52214191D03*
D14*
X154406556Y-49674191D03*
D15*
X149326556Y-47134191D03*
D14*
X151866556Y-43324191D03*
D13*
X149326556Y-42054191D03*
%TD*%
D21*
%TO.C,SW2*%
X133934671Y-73175431D03*
X146861671Y-70635431D03*
D13*
X134696671Y-68095431D03*
D14*
X137236671Y-73175431D03*
D15*
X139776671Y-68095431D03*
D14*
X143586671Y-70635431D03*
D13*
X144856671Y-68095431D03*
%TD*%
G36*
X143118023Y-55091396D02*
G01*
X143163778Y-55144200D01*
X143174984Y-55195711D01*
X143174984Y-56535807D01*
X143155299Y-56602846D01*
X143102495Y-56648601D01*
X143050984Y-56659807D01*
X142920450Y-56659807D01*
X142853411Y-56640122D01*
X142807656Y-56587318D01*
X142796939Y-56546808D01*
X142788251Y-56449271D01*
X142732632Y-56245347D01*
X142732629Y-56245341D01*
X142641894Y-56054447D01*
X142641887Y-56054437D01*
X142518884Y-55882559D01*
X142518873Y-55882545D01*
X142367454Y-55735071D01*
X142192385Y-55616641D01*
X142192377Y-55616637D01*
X141999147Y-55530965D01*
X141793826Y-55480746D01*
X141793816Y-55480744D01*
X141582866Y-55467555D01*
X141372890Y-55491810D01*
X141170489Y-55552746D01*
X140982031Y-55648451D01*
X140982020Y-55648457D01*
X140844564Y-55744322D01*
X140822909Y-55756402D01*
X140678011Y-55819153D01*
X140655419Y-55826459D01*
X140500704Y-55860554D01*
X140477133Y-55863421D01*
X140318748Y-55867401D01*
X140295063Y-55865722D01*
X140138823Y-55839439D01*
X140115891Y-55833276D01*
X139967532Y-55777696D01*
X139946197Y-55767275D01*
X139860143Y-55714488D01*
X139813291Y-55662655D01*
X139800980Y-55608790D01*
X139800980Y-55195711D01*
X139820665Y-55128672D01*
X139873469Y-55082917D01*
X139924980Y-55071711D01*
X143050984Y-55071711D01*
X143118023Y-55091396D01*
G37*
G36*
X137763039Y-45566378D02*
G01*
X137808794Y-45619182D01*
X137819999Y-45670182D01*
X137821489Y-46032002D01*
X137802081Y-46099122D01*
X137767281Y-46135008D01*
X137679173Y-46195002D01*
X137658112Y-46206531D01*
X137510579Y-46269582D01*
X137487693Y-46276835D01*
X137330774Y-46310274D01*
X137306917Y-46312981D01*
X137146495Y-46315552D01*
X137122565Y-46313611D01*
X136964656Y-46285220D01*
X136941548Y-46278704D01*
X136792075Y-46220415D01*
X136770640Y-46209557D01*
X136625046Y-46117076D01*
X136427527Y-46017832D01*
X136215091Y-45956739D01*
X135995047Y-45935897D01*
X135995033Y-45935897D01*
X135774919Y-45956013D01*
X135562286Y-46016402D01*
X135364445Y-46114989D01*
X135188190Y-46248393D01*
X135039583Y-46412021D01*
X134923717Y-46600265D01*
X134844578Y-46806650D01*
X134844577Y-46806653D01*
X134804877Y-47024101D01*
X134805983Y-47245127D01*
X134805984Y-47245137D01*
X134847856Y-47462180D01*
X134929058Y-47667765D01*
X135046798Y-47854839D01*
X135197038Y-48016976D01*
X135197043Y-48016980D01*
X135374605Y-48148600D01*
X135374621Y-48148610D01*
X135573426Y-48245207D01*
X135573433Y-48245210D01*
X135786651Y-48303468D01*
X135786649Y-48303468D01*
X136006967Y-48321384D01*
X136226801Y-48298340D01*
X136226815Y-48298337D01*
X136438617Y-48235126D01*
X136635134Y-48133920D01*
X136782145Y-48039730D01*
X136802445Y-48029225D01*
X136949827Y-47969464D01*
X136973141Y-47962582D01*
X137128630Y-47932860D01*
X137152839Y-47930658D01*
X137311142Y-47931843D01*
X137335315Y-47934407D01*
X137490343Y-47966453D01*
X137513552Y-47973684D01*
X137659343Y-48035356D01*
X137680697Y-48046977D01*
X137767425Y-48105875D01*
X137811826Y-48159822D01*
X137821761Y-48208456D01*
X137821761Y-48597701D01*
X137802076Y-48664740D01*
X137749272Y-48710495D01*
X137697761Y-48721701D01*
X134472497Y-48721701D01*
X134405458Y-48702016D01*
X134359703Y-48649212D01*
X134348497Y-48597701D01*
X134348497Y-45670693D01*
X134368182Y-45603654D01*
X134420986Y-45557899D01*
X134472497Y-45546693D01*
X137696000Y-45546693D01*
X137763039Y-45566378D01*
G37*
G36*
X149447993Y-34594748D02*
G01*
X149642745Y-34630304D01*
X149664870Y-34636508D01*
X149849711Y-34707386D01*
X149870312Y-34717566D01*
X150038899Y-34821332D01*
X150057269Y-34835139D01*
X150203818Y-34968235D01*
X150219323Y-34985193D01*
X150338796Y-35143042D01*
X150350907Y-35162572D01*
X150439199Y-35339751D01*
X150447498Y-35361178D01*
X150501585Y-35551618D01*
X150505788Y-35574210D01*
X150523805Y-35771351D01*
X150523767Y-35794330D01*
X150505100Y-35991409D01*
X150500823Y-36013987D01*
X150446108Y-36204246D01*
X150437738Y-36225647D01*
X150345076Y-36410067D01*
X150342014Y-36415469D01*
X150244747Y-36568651D01*
X150177692Y-36740602D01*
X150145030Y-36922250D01*
X150147984Y-37106780D01*
X150147984Y-37106781D01*
X150186445Y-37287293D01*
X150223003Y-37372839D01*
X150231246Y-37442221D01*
X150200670Y-37505045D01*
X150140982Y-37541366D01*
X150108978Y-37545567D01*
X148570852Y-37545567D01*
X148503813Y-37525882D01*
X148458058Y-37473078D01*
X148448114Y-37403920D01*
X148456650Y-37373257D01*
X148491824Y-37290107D01*
X148528813Y-37111160D01*
X148530181Y-36928430D01*
X148495874Y-36748954D01*
X148495873Y-36748947D01*
X148427212Y-36579614D01*
X148328778Y-36429886D01*
X148325234Y-36423762D01*
X148230590Y-36236276D01*
X148222464Y-36215858D01*
X148165704Y-36025673D01*
X148161201Y-36003139D01*
X148140562Y-35806255D01*
X148140294Y-35783277D01*
X148156338Y-35585965D01*
X148160314Y-35563333D01*
X148212491Y-35372364D01*
X148220576Y-35350853D01*
X148307094Y-35172796D01*
X148319008Y-35153148D01*
X148436894Y-34994112D01*
X148452230Y-34976998D01*
X148597440Y-34842443D01*
X148615670Y-34828454D01*
X148783210Y-34723005D01*
X148803709Y-34712619D01*
X148987831Y-34639896D01*
X149009893Y-34633471D01*
X149204278Y-34595968D01*
X149227147Y-34593725D01*
X149425101Y-34592734D01*
X149447993Y-34594748D01*
G37*
G36*
X124142334Y-66547443D02*
G01*
X124188089Y-66600247D01*
X124199295Y-66651758D01*
X124199295Y-69578766D01*
X124179610Y-69645805D01*
X124126806Y-69691560D01*
X124075295Y-69702766D01*
X120874849Y-69702766D01*
X120807810Y-69683081D01*
X120762055Y-69630277D01*
X120750849Y-69578800D01*
X120750756Y-69237672D01*
X120770422Y-69170627D01*
X120804879Y-69135202D01*
X120892652Y-69075327D01*
X120913501Y-69063867D01*
X121060319Y-69000667D01*
X121082974Y-68993400D01*
X121239153Y-68959405D01*
X121262779Y-68956598D01*
X121422586Y-68953057D01*
X121446313Y-68954815D01*
X121603842Y-68981858D01*
X121626797Y-68988114D01*
X121776250Y-69044741D01*
X121797620Y-69055287D01*
X121943637Y-69145750D01*
X122141544Y-69245291D01*
X122141553Y-69245294D01*
X122354398Y-69306697D01*
X122354396Y-69306697D01*
X122574920Y-69327864D01*
X122795569Y-69308070D01*
X122795571Y-69308069D01*
X123008801Y-69247990D01*
X123008805Y-69247989D01*
X123207325Y-69149681D01*
X123207329Y-69149678D01*
X123384364Y-69016495D01*
X123533850Y-68853000D01*
X123650676Y-68664779D01*
X123730858Y-68458256D01*
X123771642Y-68240515D01*
X123771643Y-68240511D01*
X123771642Y-68018973D01*
X123730857Y-67801234D01*
X123730856Y-67801229D01*
X123650677Y-67594714D01*
X123650674Y-67594709D01*
X123533847Y-67406489D01*
X123384356Y-67242988D01*
X123207331Y-67109814D01*
X123207321Y-67109807D01*
X123008807Y-67011502D01*
X123008800Y-67011500D01*
X122795572Y-66951422D01*
X122795559Y-66951420D01*
X122574916Y-66931627D01*
X122354391Y-66952795D01*
X122141550Y-67014197D01*
X122141543Y-67014199D01*
X121943637Y-67113750D01*
X121943631Y-67113754D01*
X121806229Y-67213764D01*
X121782392Y-67227359D01*
X121636878Y-67290159D01*
X121614304Y-67297431D01*
X121457638Y-67331787D01*
X121434095Y-67334628D01*
X121273766Y-67338531D01*
X121250111Y-67336839D01*
X121091960Y-67310146D01*
X121069060Y-67303981D01*
X120918893Y-67247672D01*
X120897569Y-67237250D01*
X120810107Y-67183572D01*
X120763266Y-67131728D01*
X120750969Y-67077479D01*
X120752376Y-66651349D01*
X120772281Y-66584374D01*
X120825236Y-66538794D01*
X120876375Y-66527758D01*
X124075295Y-66527758D01*
X124142334Y-66547443D01*
G37*
G36*
X116956284Y-45936985D02*
G01*
X117153363Y-45955652D01*
X117175941Y-45959929D01*
X117366200Y-46014644D01*
X117387601Y-46023014D01*
X117572021Y-46115676D01*
X117577423Y-46118738D01*
X117730603Y-46216004D01*
X117730604Y-46216005D01*
X117902556Y-46283060D01*
X118084204Y-46315721D01*
X118268734Y-46312768D01*
X118268735Y-46312768D01*
X118449247Y-46274307D01*
X118534793Y-46237750D01*
X118604175Y-46229507D01*
X118666999Y-46260083D01*
X118703320Y-46319771D01*
X118707521Y-46351775D01*
X118707521Y-47889901D01*
X118687836Y-47956940D01*
X118635032Y-48002695D01*
X118565874Y-48012639D01*
X118535211Y-48004103D01*
X118452061Y-47968928D01*
X118273114Y-47931939D01*
X118090383Y-47930571D01*
X117910908Y-47964878D01*
X117910901Y-47964879D01*
X117741566Y-48033541D01*
X117591840Y-48131975D01*
X117585716Y-48135518D01*
X117398230Y-48230162D01*
X117377812Y-48238288D01*
X117187627Y-48295048D01*
X117165093Y-48299551D01*
X116968209Y-48320190D01*
X116945231Y-48320458D01*
X116747919Y-48304414D01*
X116725287Y-48300438D01*
X116534318Y-48248261D01*
X116512807Y-48240176D01*
X116334750Y-48153658D01*
X116315102Y-48141744D01*
X116156066Y-48023858D01*
X116138952Y-48008522D01*
X116004397Y-47863312D01*
X115990408Y-47845082D01*
X115884959Y-47677542D01*
X115874573Y-47657043D01*
X115801850Y-47472921D01*
X115795425Y-47450859D01*
X115757922Y-47256474D01*
X115755679Y-47233605D01*
X115754688Y-47035651D01*
X115756702Y-47012759D01*
X115792258Y-46818007D01*
X115798462Y-46795882D01*
X115869340Y-46611041D01*
X115879520Y-46590440D01*
X115983286Y-46421853D01*
X115997093Y-46403483D01*
X116130189Y-46256934D01*
X116147147Y-46241429D01*
X116304996Y-46121956D01*
X116324526Y-46109845D01*
X116501705Y-46021553D01*
X116523132Y-46013254D01*
X116713572Y-45959167D01*
X116736164Y-45954964D01*
X116933305Y-45936947D01*
X116956284Y-45936985D01*
G37*
G36*
X128418535Y-34594714D02*
G01*
X128613286Y-34630269D01*
X128635412Y-34636473D01*
X128820251Y-34707350D01*
X128840853Y-34717530D01*
X129009445Y-34821300D01*
X129027814Y-34835107D01*
X129174361Y-34968201D01*
X129189866Y-34985159D01*
X129309339Y-35143008D01*
X129321450Y-35162538D01*
X129409742Y-35339717D01*
X129418042Y-35361145D01*
X129472129Y-35551586D01*
X129476331Y-35574177D01*
X129494348Y-35771317D01*
X129494310Y-35794296D01*
X129475642Y-35991377D01*
X129471365Y-36013955D01*
X129416652Y-36204209D01*
X129408282Y-36225610D01*
X129315617Y-36410034D01*
X129312555Y-36415436D01*
X129215289Y-36568616D01*
X129148235Y-36740567D01*
X129115574Y-36922208D01*
X129115574Y-36922213D01*
X129118528Y-37106745D01*
X129156991Y-37287260D01*
X129207138Y-37404606D01*
X129215381Y-37473987D01*
X129184804Y-37536812D01*
X129125117Y-37573132D01*
X129093113Y-37577333D01*
X127527940Y-37577333D01*
X127460901Y-37557648D01*
X127415146Y-37504844D01*
X127405202Y-37435686D01*
X127413738Y-37405023D01*
X127462364Y-37290073D01*
X127499353Y-37111126D01*
X127500721Y-36928397D01*
X127466414Y-36748918D01*
X127397751Y-36579581D01*
X127299317Y-36429850D01*
X127295774Y-36423727D01*
X127201130Y-36236241D01*
X127193004Y-36215822D01*
X127136245Y-36025639D01*
X127131742Y-36003106D01*
X127111103Y-35806220D01*
X127110835Y-35783242D01*
X127126879Y-35585930D01*
X127130855Y-35563298D01*
X127183033Y-35372328D01*
X127191118Y-35350818D01*
X127277633Y-35172764D01*
X127289547Y-35153115D01*
X127407437Y-34994074D01*
X127422774Y-34976960D01*
X127567980Y-34842410D01*
X127586209Y-34828421D01*
X127753752Y-34722970D01*
X127774251Y-34712584D01*
X127958373Y-34639861D01*
X127980435Y-34633436D01*
X128174821Y-34595934D01*
X128197690Y-34593691D01*
X128395644Y-34592700D01*
X128418535Y-34594714D01*
G37*
G36*
X140598311Y-77707607D02*
G01*
X140644066Y-77760411D01*
X140654010Y-77829569D01*
X140647376Y-77855464D01*
X140603276Y-77973055D01*
X140572614Y-78154692D01*
X140572614Y-78154693D01*
X140577093Y-78338833D01*
X140577094Y-78338845D01*
X140616550Y-78518774D01*
X140616550Y-78518775D01*
X140689540Y-78687900D01*
X140689541Y-78687903D01*
X140791497Y-78837257D01*
X140794978Y-78843001D01*
X140891071Y-79022863D01*
X140900842Y-79046924D01*
X140955435Y-79236164D01*
X140959727Y-79258687D01*
X140978695Y-79456291D01*
X140978766Y-79479219D01*
X140961029Y-79676929D01*
X140956878Y-79699478D01*
X140903043Y-79890547D01*
X140894812Y-79911945D01*
X140806719Y-80089839D01*
X140794687Y-80109358D01*
X140675351Y-80267985D01*
X140659934Y-80284953D01*
X140513430Y-80418903D01*
X140495150Y-80432744D01*
X140326493Y-80537428D01*
X140305978Y-80547667D01*
X140120925Y-80619512D01*
X140098877Y-80625798D01*
X139903766Y-80662346D01*
X139880936Y-80664466D01*
X139682426Y-80664466D01*
X139659596Y-80662346D01*
X139464484Y-80625798D01*
X139442436Y-80619512D01*
X139257383Y-80547667D01*
X139236868Y-80537428D01*
X139068211Y-80432744D01*
X139049931Y-80418903D01*
X138903427Y-80284953D01*
X138888010Y-80267985D01*
X138768674Y-80109358D01*
X138756642Y-80089839D01*
X138668549Y-79911945D01*
X138660318Y-79890547D01*
X138606483Y-79699478D01*
X138602332Y-79676929D01*
X138584595Y-79479219D01*
X138584666Y-79456291D01*
X138603634Y-79258687D01*
X138607926Y-79236165D01*
X138662947Y-79045441D01*
X138671311Y-79024094D01*
X138764448Y-78838919D01*
X138767125Y-78834136D01*
X138862407Y-78680248D01*
X138927516Y-78508435D01*
X138958611Y-78327350D01*
X138954546Y-78143658D01*
X138915473Y-77964123D01*
X138871063Y-77860947D01*
X138862639Y-77791587D01*
X138893051Y-77728683D01*
X138952643Y-77692207D01*
X138984960Y-77687922D01*
X140531272Y-77687922D01*
X140598311Y-77707607D01*
G37*
G36*
X160874821Y-45964924D02*
G01*
X160897454Y-45968900D01*
X161088424Y-46021078D01*
X161109934Y-46029163D01*
X161287988Y-46115678D01*
X161307637Y-46127592D01*
X161466678Y-46245482D01*
X161483791Y-46260818D01*
X161618342Y-46406023D01*
X161632332Y-46424253D01*
X161737782Y-46591795D01*
X161748168Y-46612294D01*
X161820892Y-46796419D01*
X161827317Y-46818481D01*
X161864819Y-47012865D01*
X161867062Y-47035734D01*
X161868053Y-47233689D01*
X161866039Y-47256580D01*
X161830484Y-47451330D01*
X161824280Y-47473456D01*
X161753403Y-47658295D01*
X161743223Y-47678896D01*
X161639451Y-47847492D01*
X161625644Y-47865861D01*
X161492556Y-48012402D01*
X161475597Y-48027909D01*
X161317743Y-48147384D01*
X161298215Y-48159494D01*
X161121034Y-48247788D01*
X161099606Y-48256087D01*
X160909171Y-48310173D01*
X160886578Y-48314376D01*
X160689435Y-48332393D01*
X160666457Y-48332355D01*
X160469376Y-48313687D01*
X160446798Y-48309410D01*
X160256540Y-48254695D01*
X160235140Y-48246325D01*
X160050719Y-48153664D01*
X160045316Y-48150602D01*
X159892134Y-48053332D01*
X159720183Y-47986277D01*
X159538536Y-47953616D01*
X159354004Y-47956569D01*
X159173490Y-47995031D01*
X159056147Y-48045176D01*
X158986765Y-48053419D01*
X158923941Y-48022842D01*
X158887621Y-47963154D01*
X158883420Y-47931151D01*
X158883420Y-46365988D01*
X158903105Y-46298949D01*
X158955909Y-46253194D01*
X159025067Y-46243250D01*
X159055730Y-46251786D01*
X159170682Y-46300413D01*
X159349626Y-46337402D01*
X159532358Y-46338771D01*
X159711841Y-46304463D01*
X159881171Y-46235802D01*
X159881173Y-46235801D01*
X160030896Y-46137366D01*
X160037022Y-46133822D01*
X160224510Y-46039177D01*
X160244928Y-46031051D01*
X160435114Y-45974290D01*
X160457649Y-45969787D01*
X160654533Y-45949149D01*
X160677509Y-45948881D01*
X160874821Y-45964924D01*
G37*
G36*
X137764800Y-53305454D02*
G01*
X137810555Y-53358258D01*
X137821761Y-53409769D01*
X137821761Y-53540303D01*
X137802076Y-53607342D01*
X137749272Y-53653097D01*
X137708763Y-53663814D01*
X137611226Y-53672502D01*
X137407303Y-53728121D01*
X137407302Y-53728122D01*
X137216402Y-53818863D01*
X137216393Y-53818868D01*
X137044512Y-53941876D01*
X137044509Y-53941878D01*
X136897033Y-54093298D01*
X136778604Y-54268368D01*
X136778600Y-54268376D01*
X136692930Y-54461603D01*
X136692927Y-54461612D01*
X136642712Y-54666916D01*
X136642709Y-54666935D01*
X136629521Y-54877882D01*
X136653776Y-55087861D01*
X136714710Y-55290250D01*
X136714711Y-55290253D01*
X136810408Y-55478726D01*
X136906274Y-55616186D01*
X136918354Y-55637841D01*
X136981106Y-55782741D01*
X136988412Y-55805333D01*
X137022507Y-55960049D01*
X137025374Y-55983620D01*
X137029354Y-56142007D01*
X137027675Y-56165691D01*
X137001394Y-56321930D01*
X136995231Y-56344861D01*
X136939653Y-56493220D01*
X136929231Y-56514559D01*
X136876443Y-56600612D01*
X136824610Y-56647463D01*
X136770746Y-56659773D01*
X136357665Y-56659773D01*
X136290626Y-56640088D01*
X136244871Y-56587284D01*
X136233665Y-56535773D01*
X136233665Y-53409769D01*
X136253350Y-53342730D01*
X136306154Y-53296975D01*
X136357665Y-53285769D01*
X137697761Y-53285769D01*
X137764800Y-53305454D01*
G37*
G36*
X160860078Y-66935913D02*
G01*
X160882627Y-66940064D01*
X161073696Y-66993899D01*
X161095094Y-67002130D01*
X161272988Y-67090223D01*
X161292507Y-67102255D01*
X161451134Y-67221591D01*
X161468102Y-67237008D01*
X161602052Y-67383512D01*
X161615893Y-67401792D01*
X161720577Y-67570449D01*
X161730816Y-67590964D01*
X161802661Y-67776017D01*
X161808947Y-67798065D01*
X161845495Y-67993177D01*
X161847615Y-68016007D01*
X161847615Y-68214516D01*
X161845495Y-68237346D01*
X161808947Y-68432458D01*
X161802661Y-68454506D01*
X161730816Y-68639559D01*
X161720577Y-68660074D01*
X161615893Y-68828731D01*
X161602052Y-68847011D01*
X161468102Y-68993515D01*
X161451134Y-69008932D01*
X161292507Y-69128268D01*
X161272988Y-69140300D01*
X161095094Y-69228393D01*
X161073696Y-69236624D01*
X160882627Y-69290459D01*
X160860078Y-69294610D01*
X160662368Y-69312347D01*
X160639440Y-69312276D01*
X160441836Y-69293308D01*
X160419314Y-69289016D01*
X160228590Y-69233995D01*
X160207243Y-69225631D01*
X160022068Y-69132494D01*
X160017285Y-69129817D01*
X159863397Y-69034534D01*
X159691583Y-68969425D01*
X159691585Y-68969425D01*
X159510495Y-68938330D01*
X159326805Y-68942394D01*
X159147270Y-68981466D01*
X159039438Y-69027881D01*
X158970078Y-69036305D01*
X158907174Y-69005893D01*
X158870698Y-68946300D01*
X158866413Y-68913984D01*
X158866413Y-67363921D01*
X158886098Y-67296882D01*
X158938902Y-67251127D01*
X159008060Y-67241183D01*
X159033955Y-67247817D01*
X159156205Y-67293664D01*
X159337842Y-67324326D01*
X159337843Y-67324326D01*
X159521985Y-67319847D01*
X159521991Y-67319846D01*
X159701922Y-67280389D01*
X159871050Y-67207398D01*
X160020412Y-67105440D01*
X160026156Y-67101960D01*
X160206009Y-67005871D01*
X160230071Y-66996099D01*
X160419314Y-66941506D01*
X160441836Y-66937215D01*
X160639440Y-66918247D01*
X160662368Y-66918176D01*
X160860078Y-66935913D01*
G37*
G36*
X143118023Y-45566372D02*
G01*
X143163778Y-45619176D01*
X143174984Y-45670687D01*
X143174984Y-48597695D01*
X143155299Y-48664734D01*
X143102495Y-48710489D01*
X143050984Y-48721695D01*
X139924980Y-48721695D01*
X139857941Y-48702010D01*
X139812186Y-48649206D01*
X139800980Y-48597695D01*
X139800980Y-48237015D01*
X139820665Y-48169976D01*
X139855195Y-48134516D01*
X139943570Y-48074347D01*
X139964629Y-48062821D01*
X140112159Y-47999778D01*
X140135045Y-47992525D01*
X140291965Y-47959091D01*
X140315820Y-47956385D01*
X140476236Y-47953817D01*
X140500166Y-47955758D01*
X140658077Y-47984152D01*
X140681182Y-47990668D01*
X140830658Y-48048956D01*
X140852075Y-48059802D01*
X140997694Y-48152263D01*
X140997706Y-48152270D01*
X141191220Y-48251506D01*
X141191224Y-48251507D01*
X141403658Y-48312599D01*
X141623715Y-48333444D01*
X141843837Y-48313327D01*
X142056469Y-48252939D01*
X142056472Y-48252937D01*
X142254312Y-48154351D01*
X142254316Y-48154349D01*
X142430564Y-48020950D01*
X142579174Y-47857319D01*
X142695036Y-47669080D01*
X142774181Y-47462686D01*
X142813879Y-47245240D01*
X142813880Y-47245237D01*
X142812775Y-47024211D01*
X142812775Y-47024203D01*
X142770901Y-46807160D01*
X142770900Y-46807156D01*
X142689698Y-46601569D01*
X142571961Y-46414503D01*
X142571960Y-46414502D01*
X142421718Y-46252362D01*
X142244149Y-46120736D01*
X142244137Y-46120730D01*
X142045329Y-46024130D01*
X142045322Y-46024127D01*
X141832104Y-45965869D01*
X141832106Y-45965869D01*
X141611788Y-45947953D01*
X141391952Y-45970999D01*
X141391935Y-45971002D01*
X141180138Y-46034212D01*
X140983622Y-46135417D01*
X140983616Y-46135420D01*
X140841140Y-46229088D01*
X140819617Y-46240387D01*
X140672910Y-46299874D01*
X140649595Y-46306756D01*
X140494111Y-46336475D01*
X140469903Y-46338677D01*
X140311600Y-46337492D01*
X140287426Y-46334928D01*
X140132399Y-46302881D01*
X140109191Y-46295650D01*
X139963397Y-46233976D01*
X139942046Y-46222357D01*
X139856203Y-46164064D01*
X139811801Y-46110118D01*
X139801875Y-46059817D01*
X139807119Y-45669023D01*
X139827701Y-45602254D01*
X139881115Y-45557212D01*
X139931108Y-45546687D01*
X143050984Y-45546687D01*
X143118023Y-45566372D01*
G37*
G36*
X129826688Y-53305454D02*
G01*
X129872443Y-53358258D01*
X129883649Y-53409769D01*
X129883649Y-56535773D01*
X129863964Y-56602812D01*
X129811160Y-56648567D01*
X129759649Y-56659773D01*
X129398969Y-56659773D01*
X129331930Y-56640088D01*
X129296470Y-56605558D01*
X129236300Y-56517182D01*
X129224774Y-56496123D01*
X129161731Y-56348593D01*
X129154478Y-56325707D01*
X129121044Y-56168788D01*
X129118338Y-56144932D01*
X129115771Y-55984516D01*
X129117712Y-55960588D01*
X129146106Y-55802675D01*
X129152623Y-55779567D01*
X129210911Y-55630098D01*
X129221755Y-55608684D01*
X129314218Y-55463057D01*
X129413460Y-55269530D01*
X129413461Y-55269526D01*
X129474552Y-55057092D01*
X129495397Y-54837040D01*
X129495397Y-54837029D01*
X129475279Y-54616913D01*
X129414890Y-54404278D01*
X129414887Y-54404271D01*
X129316304Y-54206441D01*
X129316299Y-54206433D01*
X129182900Y-54030184D01*
X129019272Y-53881577D01*
X128831024Y-53765709D01*
X128624637Y-53686569D01*
X128624633Y-53686568D01*
X128407187Y-53646870D01*
X128407185Y-53646869D01*
X128186158Y-53647975D01*
X128186148Y-53647976D01*
X127969105Y-53689849D01*
X127969101Y-53689850D01*
X127763516Y-53771051D01*
X127576442Y-53888793D01*
X127576440Y-53888795D01*
X127414311Y-54039029D01*
X127414302Y-54039040D01*
X127282684Y-54216600D01*
X127282674Y-54216617D01*
X127186075Y-54415424D01*
X127186071Y-54415434D01*
X127127815Y-54628646D01*
X127127812Y-54628662D01*
X127109899Y-54848967D01*
X127132943Y-55068803D01*
X127132946Y-55068817D01*
X127196157Y-55280616D01*
X127297373Y-55477132D01*
X127391045Y-55619615D01*
X127402344Y-55641140D01*
X127461827Y-55787841D01*
X127468709Y-55811154D01*
X127498431Y-55966642D01*
X127500633Y-55990851D01*
X127499448Y-56149154D01*
X127496884Y-56173327D01*
X127464839Y-56328353D01*
X127457608Y-56351562D01*
X127395934Y-56497355D01*
X127384314Y-56518708D01*
X127325418Y-56605436D01*
X127271471Y-56649837D01*
X127222836Y-56659773D01*
X126832641Y-56659773D01*
X126765602Y-56640088D01*
X126719847Y-56587284D01*
X126708641Y-56535773D01*
X126708641Y-53409769D01*
X126728326Y-53342730D01*
X126781130Y-53296975D01*
X126832641Y-53285769D01*
X129759649Y-53285769D01*
X129826688Y-53305454D01*
G37*
G36*
X150857099Y-53206228D02*
G01*
X150902854Y-53259032D01*
X150914060Y-53310543D01*
X150914060Y-56534041D01*
X150894375Y-56601080D01*
X150841571Y-56646835D01*
X150790572Y-56658040D01*
X150428745Y-56659534D01*
X150361625Y-56640126D01*
X150325743Y-56605333D01*
X150265740Y-56517225D01*
X150254209Y-56496162D01*
X150191149Y-56348627D01*
X150183894Y-56325739D01*
X150150452Y-56168824D01*
X150147744Y-56144966D01*
X150145171Y-55984542D01*
X150147112Y-55960608D01*
X150175507Y-55802692D01*
X150182025Y-55779582D01*
X150240316Y-55630118D01*
X150251179Y-55608675D01*
X150343677Y-55463090D01*
X150343678Y-55463087D01*
X150442921Y-55265571D01*
X150504012Y-55053145D01*
X150504014Y-55053134D01*
X150524858Y-54833085D01*
X150524858Y-54833075D01*
X150504741Y-54612957D01*
X150444352Y-54400322D01*
X150444349Y-54400315D01*
X150345762Y-54202480D01*
X150345757Y-54202471D01*
X150212360Y-54026226D01*
X150048732Y-53877618D01*
X149860489Y-53761753D01*
X149860491Y-53761753D01*
X149654092Y-53682608D01*
X149436646Y-53642910D01*
X149436643Y-53642909D01*
X149215615Y-53644015D01*
X149215605Y-53644016D01*
X148998562Y-53685889D01*
X148998558Y-53685890D01*
X148792974Y-53767091D01*
X148792964Y-53767096D01*
X148605898Y-53884835D01*
X148443766Y-54035071D01*
X148443762Y-54035075D01*
X148312134Y-54212650D01*
X148312129Y-54212660D01*
X148215529Y-54411468D01*
X148157267Y-54624705D01*
X148139354Y-54845013D01*
X148162400Y-55064850D01*
X148162402Y-55064863D01*
X148225614Y-55276665D01*
X148326837Y-55473189D01*
X148421020Y-55620187D01*
X148431524Y-55640486D01*
X148491288Y-55787874D01*
X148498171Y-55811190D01*
X148527891Y-55966675D01*
X148530093Y-55990883D01*
X148528908Y-56149186D01*
X148526344Y-56173360D01*
X148494298Y-56328385D01*
X148487067Y-56351594D01*
X148425391Y-56497388D01*
X148413773Y-56518738D01*
X148354878Y-56605468D01*
X148300931Y-56649870D01*
X148252294Y-56659807D01*
X147863052Y-56659807D01*
X147796013Y-56640122D01*
X147750258Y-56587318D01*
X147739052Y-56535807D01*
X147739052Y-53310543D01*
X147758737Y-53243504D01*
X147811541Y-53197749D01*
X147863052Y-53186543D01*
X150790060Y-53186543D01*
X150857099Y-53206228D01*
G37*
G36*
X143118023Y-37629252D02*
G01*
X143163778Y-37682056D01*
X143174984Y-37733567D01*
X143174984Y-39072671D01*
X143155299Y-39139710D01*
X143102495Y-39185465D01*
X143050984Y-39196671D01*
X139927999Y-39196671D01*
X139860960Y-39176986D01*
X139815205Y-39124182D01*
X139804596Y-39060517D01*
X139816969Y-38934883D01*
X139816970Y-38934872D01*
X139804383Y-38664340D01*
X139820931Y-38596458D01*
X139863413Y-38552878D01*
X139946195Y-38502099D01*
X139967530Y-38491679D01*
X140115893Y-38436098D01*
X140138824Y-38429935D01*
X140295062Y-38403653D01*
X140318747Y-38401974D01*
X140477129Y-38405954D01*
X140500699Y-38408820D01*
X140655422Y-38442916D01*
X140678015Y-38450223D01*
X140823399Y-38513184D01*
X140844185Y-38524663D01*
X140984740Y-38620918D01*
X141172459Y-38717413D01*
X141374773Y-38777951D01*
X141374772Y-38777951D01*
X141584597Y-38801862D01*
X141795350Y-38788397D01*
X142000421Y-38737976D01*
X142000427Y-38737974D01*
X142193388Y-38652180D01*
X142193391Y-38652178D01*
X142368201Y-38533697D01*
X142368207Y-38533692D01*
X142519373Y-38386249D01*
X142519376Y-38386245D01*
X142642186Y-38214434D01*
X142732763Y-38023676D01*
X142732768Y-38023665D01*
X142788286Y-37819915D01*
X142796948Y-37722577D01*
X142822497Y-37657546D01*
X142879148Y-37616651D01*
X142920460Y-37609567D01*
X143050984Y-37609567D01*
X143118023Y-37629252D01*
G37*
G36*
X120301664Y-53305454D02*
G01*
X120347419Y-53358258D01*
X120358625Y-53409769D01*
X120358625Y-56535773D01*
X120338940Y-56602812D01*
X120286136Y-56648567D01*
X120234625Y-56659773D01*
X119822538Y-56659773D01*
X119755499Y-56640088D01*
X119716839Y-56600609D01*
X119664053Y-56514555D01*
X119653633Y-56493220D01*
X119598053Y-56344859D01*
X119591890Y-56321928D01*
X119565608Y-56165689D01*
X119563929Y-56142005D01*
X119567908Y-55983620D01*
X119570775Y-55960048D01*
X119604870Y-55805333D01*
X119612176Y-55782741D01*
X119675139Y-55637353D01*
X119686618Y-55616568D01*
X119782874Y-55476010D01*
X119782878Y-55476004D01*
X119879366Y-55288296D01*
X119939905Y-55085979D01*
X119963817Y-54876155D01*
X119950351Y-54665402D01*
X119899930Y-54460331D01*
X119899928Y-54460325D01*
X119814134Y-54267364D01*
X119814132Y-54267361D01*
X119695651Y-54092551D01*
X119695646Y-54092545D01*
X119548203Y-53941379D01*
X119548199Y-53941376D01*
X119376388Y-53818566D01*
X119185630Y-53727989D01*
X119185619Y-53727984D01*
X118981869Y-53672466D01*
X118884531Y-53663805D01*
X118819500Y-53638256D01*
X118778605Y-53581605D01*
X118771521Y-53540293D01*
X118771521Y-53409769D01*
X118791206Y-53342730D01*
X118844010Y-53296975D01*
X118895521Y-53285769D01*
X120234625Y-53285769D01*
X120301664Y-53305454D01*
G37*
M02*
