%TF.GenerationSoftware,KiCad,Pcbnew,7.0.7*%
%TF.CreationDate,2023-09-12T19:54:29+10:00*%
%TF.ProjectId,jigsaw,6a696773-6177-42e6-9b69-6361645f7063,rev?*%
%TF.SameCoordinates,Original*%
%TF.FileFunction,Soldermask,Top*%
%TF.FilePolarity,Negative*%
%FSLAX46Y46*%
G04 Gerber Fmt 4.6, Leading zero omitted, Abs format (unit mm)*
G04 Created by KiCad (PCBNEW 7.0.7) date 2023-09-12 19:54:29*
%MOMM*%
%LPD*%
G01*
G04 APERTURE LIST*
%ADD10C,3.987800*%
%ADD11C,3.048000*%
%ADD12C,1.750000*%
%ADD13C,3.050000*%
%ADD14C,4.000000*%
%ADD15C,0.500000*%
G04 APERTURE END LIST*
D10*
%TO.C,REF\u002A\u002A*%
X151682921Y-76350431D03*
D11*
X151682921Y-61110431D03*
D10*
X127870421Y-76350431D03*
D11*
X127870421Y-61110431D03*
%TD*%
D12*
%TO.C,SW1*%
X123216145Y-47134197D03*
D13*
X124486145Y-44594197D03*
D14*
X128296145Y-47134197D03*
D13*
X130836145Y-42054197D03*
D12*
X133376145Y-47134197D03*
%TD*%
D15*
%TO.C,REF\u002A\u002A*%
X139816970Y-40134880D03*
X139816970Y-40874880D03*
X139816970Y-41614880D03*
X139816970Y-42354880D03*
X139816970Y-43094880D03*
X139816970Y-43834880D03*
X137766970Y-43784880D03*
X137766970Y-40824880D03*
X137766970Y-43044880D03*
X137766970Y-41564880D03*
X137766970Y-42304880D03*
X137766970Y-40084880D03*
%TD*%
%TO.C,REF\u002A\u002A*%
X156519550Y-56654620D03*
X155779550Y-56654620D03*
X155039550Y-56654620D03*
X154299550Y-56654620D03*
X153559550Y-56654620D03*
X152819550Y-56654620D03*
X156469550Y-58704620D03*
X155729550Y-58704620D03*
X154989550Y-58704620D03*
X154249550Y-58704620D03*
X153509550Y-58704620D03*
X152769550Y-58704620D03*
%TD*%
D12*
%TO.C,SW1*%
X149326556Y-52214191D03*
D13*
X154406556Y-49674191D03*
D14*
X149326556Y-47134191D03*
D13*
X151866556Y-43324191D03*
D12*
X149326556Y-42054191D03*
%TD*%
%TO.C,SW2*%
X134696671Y-68095431D03*
D13*
X137236671Y-73175431D03*
D14*
X139776671Y-68095431D03*
D13*
X143586671Y-70635431D03*
D12*
X144856671Y-68095431D03*
%TD*%
M02*
