%TF.GenerationSoftware,KiCad,Pcbnew,7.0.7*%
%TF.CreationDate,2023-09-12T19:54:29+10:00*%
%TF.ProjectId,jigsaw,6a696773-6177-42e6-9b69-6361645f7063,rev?*%
%TF.SameCoordinates,Original*%
%TF.FileFunction,Profile,NP*%
%FSLAX46Y46*%
G04 Gerber Fmt 4.6, Leading zero omitted, Abs format (unit mm)*
G04 Created by KiCad (PCBNEW 7.0.7) date 2023-09-12 19:54:29*
%MOMM*%
%LPD*%
G01*
G04 APERTURE LIST*
%TA.AperFunction,Profile*%
%ADD10C,0.100000*%
%TD*%
%TA.AperFunction,Profile*%
%ADD11C,0.050000*%
%TD*%
G04 APERTURE END LIST*
D10*
X117574801Y-46117073D02*
G75*
G03*
X118771521Y-46097912I586481J751467D01*
G01*
X157619550Y-58654620D02*
X157826415Y-58639020D01*
X160047940Y-48152266D02*
G75*
G03*
X160037849Y-46135418I631974J1011611D01*
G01*
X142807000Y-56659807D02*
G75*
G03*
X140982028Y-55648453I-1192793J-133D01*
G01*
X119782875Y-55476010D02*
G75*
G03*
X119753131Y-56659773I730322J-610606D01*
G01*
X158851220Y-48171428D02*
X158851580Y-55659215D01*
X136625024Y-46117095D02*
G75*
G03*
X137821761Y-46097912I586476J751455D01*
G01*
X139800982Y-46126562D02*
G75*
G03*
X140983621Y-46135417I596715J716072D01*
G01*
X150343679Y-36412846D02*
G75*
G03*
X148326832Y-36422938I-1011611J631972D01*
G01*
X148317977Y-37609567D02*
G75*
G03*
X148326831Y-36426925I-716078J596715D01*
G01*
X151619550Y-58654620D02*
X121775545Y-58639020D01*
X129333382Y-37609533D02*
X136821169Y-37609173D01*
X140997698Y-48152269D02*
G75*
G03*
X139800980Y-48171428I-586481J-751491D01*
G01*
X139816970Y-38934880D02*
X139800980Y-38591177D01*
X137821169Y-38609173D02*
X137816970Y-38934880D01*
X138765682Y-78836467D02*
G75*
G03*
X140797680Y-78836467I1015999J-635010D01*
G01*
X157832168Y-77656082D02*
G75*
G03*
X158832168Y-76656082I71J999929D01*
G01*
X136840151Y-56659773D02*
X129333382Y-56659773D01*
X137821764Y-48142772D02*
G75*
G03*
X136639119Y-48133922I-596714J-716078D01*
G01*
X121943671Y-69145703D02*
G75*
G03*
X120750740Y-69172137I-579872J-762103D01*
G01*
X129314217Y-36412810D02*
G75*
G03*
X129333382Y-37609533I751473J-586480D01*
G01*
X129314221Y-36412813D02*
G75*
G03*
X127297373Y-36422904I-1011611J631973D01*
G01*
X150343678Y-55463086D02*
G75*
G03*
X148326831Y-55473178I-1011611J631976D01*
G01*
X150362841Y-37609567D02*
X157851580Y-37609167D01*
X140993709Y-48152273D02*
G75*
G03*
X140983622Y-46135419I631978J1011613D01*
G01*
X139800980Y-55678197D02*
X139800980Y-48171428D01*
X158826720Y-67132647D02*
G75*
G03*
X160023187Y-67103545I579884J768986D01*
G01*
X140983985Y-38622141D02*
G75*
G03*
X142807003Y-37609567I630228J1012700D01*
G01*
X127288520Y-37609534D02*
G75*
G03*
X127297372Y-36426891I-716080J596714D01*
G01*
X137821167Y-38609173D02*
G75*
G03*
X136821169Y-37609173I-1000167J-167D01*
G01*
X158851222Y-46126562D02*
G75*
G03*
X160033861Y-46135417I596715J716072D01*
G01*
X137821761Y-48142776D02*
X137821761Y-53653750D01*
X118771521Y-53653750D02*
X118771521Y-48142776D01*
X138765685Y-78836469D02*
G75*
G03*
X138739295Y-77643570I-762026J579883D01*
G01*
X140764295Y-77643570D02*
X157832168Y-77656082D01*
X140764297Y-77643571D02*
G75*
G03*
X140793397Y-78840039I768982J-579885D01*
G01*
X157851580Y-56659213D02*
G75*
G03*
X158851580Y-55659215I-173J1000173D01*
G01*
X160047939Y-48152269D02*
G75*
G03*
X158851220Y-48171428I-586482J-751461D01*
G01*
X119771121Y-37609173D02*
G75*
G03*
X118771121Y-38609173I-69J-999931D01*
G01*
X118771521Y-46097912D02*
X118771121Y-38609173D01*
X119784095Y-55476768D02*
G75*
G03*
X118771521Y-53653750I-1012700J630228D01*
G01*
X121775545Y-58638952D02*
G75*
G03*
X120775545Y-59639020I-46J-999954D01*
G01*
X158826415Y-59639020D02*
X158826720Y-67132647D01*
X160019616Y-69131261D02*
G75*
G03*
X158826719Y-69157648I-579884J-762024D01*
G01*
X139800980Y-46126564D02*
X139816970Y-44934880D01*
X158851580Y-38609167D02*
G75*
G03*
X157851580Y-37609167I-999931J69D01*
G01*
X127288518Y-37609533D02*
X119771121Y-37609173D01*
X127288518Y-56659773D02*
X119753131Y-56659773D01*
X158851220Y-46126564D02*
X158851580Y-38609167D01*
X118771521Y-48142776D02*
G75*
G03*
X117588879Y-48133922I-596715J-716078D01*
G01*
X137821761Y-53653739D02*
G75*
G03*
X136810408Y-55478725I139J-1192801D01*
G01*
X137816970Y-44934880D02*
X137821761Y-46097912D01*
X121943640Y-69145743D02*
G75*
G03*
X121943636Y-67113751I635009J1015997D01*
G01*
X151619550Y-56654620D02*
X150362841Y-56659807D01*
X120752723Y-76656082D02*
G75*
G03*
X121752750Y-77656082I999976J-24D01*
G01*
X140984742Y-38620922D02*
G75*
G03*
X139800981Y-38591178I-610605J-730318D01*
G01*
X158826415Y-59639020D02*
G75*
G03*
X157826415Y-58639020I-999926J74D01*
G01*
X148317974Y-56659805D02*
G75*
G03*
X148326830Y-55477166I-716057J596715D01*
G01*
X117574800Y-46117074D02*
G75*
G03*
X117584892Y-48133921I-631972J-1011611D01*
G01*
X150343650Y-55463064D02*
G75*
G03*
X150362842Y-56659806I751357J-586476D01*
G01*
X160019616Y-69131261D02*
G75*
G03*
X160019616Y-67099263I635010J1015999D01*
G01*
X158826719Y-69157648D02*
X158832168Y-76656082D01*
X136625045Y-46117067D02*
G75*
G03*
X136635131Y-48133921I-631975J-1011613D01*
G01*
X136840154Y-56659776D02*
G75*
G03*
X136810406Y-55476011I-760074J573156D01*
G01*
X129314220Y-55467039D02*
G75*
G03*
X127297373Y-55477131I-1011611J631972D01*
G01*
X127288520Y-56659774D02*
G75*
G03*
X127297372Y-55477131I-716080J596714D01*
G01*
X129314227Y-55463058D02*
G75*
G03*
X129333383Y-56659772I751473J-586482D01*
G01*
X139800980Y-55678197D02*
G75*
G03*
X140984743Y-55648452I573157J760057D01*
G01*
X120750739Y-69172136D02*
X120752750Y-76656082D01*
X120750722Y-67147158D02*
G75*
G03*
X121947207Y-67118033I579877J769052D01*
G01*
X157619550Y-56654620D02*
X157851580Y-56659215D01*
X142807003Y-37609567D02*
X148317977Y-37609567D01*
X148317977Y-56659807D02*
X142807003Y-56659807D01*
X138739295Y-77643570D02*
X121752750Y-77656082D01*
X150343680Y-36412847D02*
G75*
G03*
X150362841Y-37609567I751467J-586481D01*
G01*
X120775545Y-59631220D02*
X120750740Y-67147135D01*
D11*
%TO.C,REF\u002A\u002A*%
X139816970Y-44934880D02*
G75*
G03*
X137816970Y-44934880I-1000000J0D01*
G01*
X137816970Y-38934880D02*
G75*
G03*
X139816970Y-38934880I1000000J0D01*
G01*
X151619550Y-58654620D02*
G75*
G03*
X151619550Y-56654620I0J1000000D01*
G01*
X157619550Y-56654620D02*
G75*
G03*
X157619550Y-58654620I0J-1000000D01*
G01*
%TD*%
M02*
