M48
; DRILL file {KiCad 7.0.7} date Tue Sep 12 19:54:25 2023
; FORMAT={-:-/ absolute / inch / decimal}
; #@! TF.CreationDate,2023-09-12T19:54:25+10:00
; #@! TF.GenerationSoftware,Kicad,Pcbnew,7.0.7
; #@! TF.FileFunction,NonPlated,1,2,NPTH
FMAT,2
INCH
; #@! TA.AperFunction,NonPlated,NPTH,ComponentDrill
T1C0.0197
; #@! TA.AperFunction,NonPlated,NPTH,ComponentDrill
T2C0.0689
; #@! TA.AperFunction,NonPlated,NPTH,ComponentDrill
T3C0.1200
; #@! TA.AperFunction,NonPlated,NPTH,ComponentDrill
T4C0.1201
; #@! TA.AperFunction,NonPlated,NPTH,ComponentDrill
T5C0.1570
; #@! TA.AperFunction,NonPlated,NPTH,ComponentDrill
T6C0.1575
%
G90
G05
T1
X5.4239Y-1.5781
X5.4239Y-1.6073
X5.4239Y-1.6364
X5.4239Y-1.6655
X5.4239Y-1.6947
X5.4239Y-1.7238
X5.5046Y-1.5801
X5.5046Y-1.6092
X5.5046Y-1.6384
X5.5046Y-1.6675
X5.5046Y-1.6966
X5.5046Y-1.7258
X6.0145Y-2.3112
X6.0165Y-2.2305
X6.0437Y-2.3112
X6.0457Y-2.2305
X6.0728Y-2.3112
X6.0748Y-2.2305
X6.102Y-2.3112
X6.1039Y-2.2305
X6.1311Y-2.3112
X6.1331Y-2.2305
X6.1602Y-2.3112
X6.1622Y-2.2305
T2
X4.851Y-1.8557
X5.251Y-1.8557
X5.303Y-2.6809
X5.703Y-2.6809
X5.879Y-1.6557
X5.879Y-2.0557
T3
X5.0343Y-2.4059
X5.9718Y-2.4059
T4
X4.901Y-1.7557
X5.151Y-1.6557
X5.403Y-2.8809
X5.653Y-2.7809
X5.979Y-1.7057
X6.079Y-1.9557
T5
X5.0343Y-3.0059
X5.9718Y-3.0059
T6
X5.051Y-1.8557
X5.503Y-2.6809
X5.879Y-1.8557
T0
M30
