<?xml version="1.0" standalone="no"?>
 <!DOCTYPE svg PUBLIC "-//W3C//DTD SVG 1.1//EN" 
 "http://www.w3.org/Graphics/SVG/1.1/DTD/svg11.dtd"> 
<svg
  xmlns:svg="http://www.w3.org/2000/svg"
  xmlns="http://www.w3.org/2000/svg"
  xmlns:xlink="http://www.w3.org/1999/xlink"
  version="1.1"
  width="297.0022mm" height="210.0072mm" viewBox="0.0000 0.0000 297.0022 210.0072">
<title>SVG Image created as jigsaw-B_Cu.svg date 2023/09/11 22:47:49 </title>
  <desc>Image generated by PCBNEW </desc>
<g style="fill:#000000; fill-opacity:1.0000;stroke:#000000; stroke-opacity:1.0000;
stroke-linecap:round; stroke-linejoin:round;"
 transform="translate(0 0) scale(1 1)">
</g>
<g style="fill:#000000; fill-opacity:0.0; 
stroke:#000000; stroke-width:0.0000; stroke-opacity:1; 
stroke-linecap:round; stroke-linejoin:round;">
<g >
</g>
<g style="fill:#000000; fill-opacity:0.0; 
stroke:#000000; stroke-width:0.0000; stroke-opacity:1; 
stroke-linecap:round; stroke-linejoin:round;">
</g>
<g style="fill:#000000; fill-opacity:1.0000; 
stroke:#000000; stroke-width:0.0000; stroke-opacity:1; 
stroke-linecap:round; stroke-linejoin:round;">
<path style="fill:#000000; fill-opacity:1.0000; 
stroke:#000000; stroke-width:0.0000; stroke-opacity:1; 
stroke-linecap:round; stroke-linejoin:round;fill-rule:evenodd;"
d="M 29.4480,31.2400
29.4670,31.1443
29.5212,31.0632
29.6023,31.0090
29.6980,30.9900
31.7480,30.9900
31.8437,31.0090
31.9248,31.0632
31.9790,31.1443
31.9980,31.2400
31.9980,33.2400
31.9790,33.3357
31.9248,33.4168
31.8437,33.4710
31.7480,33.4900
29.6980,33.4900
29.6023,33.4710
29.5212,33.4168
29.4670,33.3357
29.4480,33.2400
Z" /> 
<path style="fill:#000000; fill-opacity:1.0000; 
stroke:#000000; stroke-width:0.0000; stroke-opacity:1; 
stroke-linecap:round; stroke-linejoin:round;fill-rule:evenodd;"
d="M 42.3750,28.7000
42.3940,28.6043
42.4482,28.5232
42.5293,28.4690
42.6250,28.4500
44.6750,28.4500
44.7707,28.4690
44.8518,28.5232
44.9060,28.6043
44.9250,28.7000
44.9250,30.7000
44.9060,30.7957
44.8518,30.8768
44.7707,30.9310
44.6750,30.9500
42.6250,30.9500
42.5293,30.9310
42.4482,30.8768
42.3940,30.7957
42.3750,30.7000
Z" /> 
</g>
<g >
</g>
<g style="fill:#000000; fill-opacity:1.0000; 
stroke:#000000; stroke-width:0.0000; stroke-opacity:1; 
stroke-linecap:round; stroke-linejoin:round;">
<circle cx="37.8278" cy="23.4212" r="1.2500" /> 
</g>
<g style="fill:#000000; fill-opacity:1.0000; 
stroke:#000000; stroke-width:0.0212; stroke-opacity:1; 
stroke-linecap:round; stroke-linejoin:round;">
</g>
<g >
</g>
<g style="fill:#000000; fill-opacity:1.0000; 
stroke:#000000; stroke-width:0.0212; stroke-opacity:1; 
stroke-linecap:round; stroke-linejoin:round;">
</g>
<g style="fill:#000000; fill-opacity:1.0000; 
stroke:#000000; stroke-width:0.0000; stroke-opacity:1; 
stroke-linecap:round; stroke-linejoin:round;">
<circle cx="45.5668" cy="34.8066" r="2.0000" /> 
</g>
<g style="fill:#000000; fill-opacity:1.0000; 
stroke:#000000; stroke-width:0.0212; stroke-opacity:1; 
stroke-linecap:round; stroke-linejoin:round;">
</g>
<g >
</g>
<g style="fill:#000000; fill-opacity:1.0000; 
stroke:#000000; stroke-width:0.0212; stroke-opacity:1; 
stroke-linecap:round; stroke-linejoin:round;">
</g>
<g style="fill:#000000; fill-opacity:1.0000; 
stroke:#000000; stroke-width:0.0000; stroke-opacity:1; 
stroke-linecap:round; stroke-linejoin:round;">
<circle cx="37.7533" cy="42.4712" r="2.0000" /> 
</g>
<g style="fill:#000000; fill-opacity:1.0000; 
stroke:#000000; stroke-width:0.0212; stroke-opacity:1; 
stroke-linecap:round; stroke-linejoin:round;">
</g>
<g >
</g>
<g style="fill:#000000; fill-opacity:1.0000; 
stroke:#000000; stroke-width:0.0212; stroke-opacity:1; 
stroke-linecap:round; stroke-linejoin:round;">
</g>
<g style="fill:#000000; fill-opacity:1.0000; 
stroke:#000000; stroke-width:0.0000; stroke-opacity:1; 
stroke-linecap:round; stroke-linejoin:round;">
<circle cx="26.4424" cy="34.7868" r="1.2500" /> 
</g>
<g style="fill:#000000; fill-opacity:1.0000; 
stroke:#000000; stroke-width:0.0212; stroke-opacity:1; 
stroke-linecap:round; stroke-linejoin:round;">
</g>
<g >
</g>
<g style="fill:#000000; fill-opacity:1.0000; 
stroke:#000000; stroke-width:0.0212; stroke-opacity:1; 
stroke-linecap:round; stroke-linejoin:round;">
</g>
<g style="fill:#000000; fill-opacity:1.0000; 
stroke:#000000; stroke-width:0.0000; stroke-opacity:1; 
stroke-linecap:round; stroke-linejoin:round;">
<path style="fill:#000000; fill-opacity:1.0000; 
stroke:#000000; stroke-width:0.0000; stroke-opacity:1; 
stroke-linecap:round; stroke-linejoin:round;fill-rule:evenodd;"
d="M 29.7500,38.4750
29.6639,38.4579
29.5909,38.4091
29.5421,38.3361
29.5250,38.2500
29.5250,37.8000
29.5421,37.7139
29.5909,37.6409
29.6639,37.5921
29.7500,37.5750
30.5000,37.5750
30.5861,37.5921
30.6591,37.6409
30.7079,37.7139
30.7250,37.8000
30.7250,38.2500
30.7079,38.3361
30.6591,38.4091
30.5861,38.4579
30.5000,38.4750
Z" /> 
<path style="fill:#000000; fill-opacity:1.0000; 
stroke:#000000; stroke-width:0.0000; stroke-opacity:1; 
stroke-linecap:round; stroke-linejoin:round;fill-rule:evenodd;"
d="M 29.7500,35.1750
29.6639,35.1579
29.5909,35.1091
29.5421,35.0361
29.5250,34.9500
29.5250,34.5000
29.5421,34.4139
29.5909,34.3409
29.6639,34.2921
29.7500,34.2750
30.5000,34.2750
30.5861,34.2921
30.6591,34.3409
30.7079,34.4139
30.7250,34.5000
30.7250,34.9500
30.7079,35.0361
30.6591,35.1091
30.5861,35.1579
30.5000,35.1750
Z" /> 
</g>
<g >
</g>
<g style="fill:#000000; fill-opacity:1.0000; 
stroke:#000000; stroke-width:0.0000; stroke-opacity:1; 
stroke-linecap:round; stroke-linejoin:round;">
<circle cx="40.9083" cy="37.8863" r="0.4000" /> 
</g>
<g style="fill:#000000; fill-opacity:1.0000; 
stroke:#000000; stroke-width:0.0212; stroke-opacity:1; 
stroke-linecap:round; stroke-linejoin:round;">
</g>
<g style="fill:#000000; fill-opacity:1.0000; 
stroke:#000000; stroke-width:0.0000; stroke-opacity:1; 
stroke-linecap:round; stroke-linejoin:round;">
<circle cx="40.9083" cy="36.4373" r="0.4000" /> 
</g>
<g style="fill:#000000; fill-opacity:1.0000; 
stroke:#000000; stroke-width:0.0212; stroke-opacity:1; 
stroke-linecap:round; stroke-linejoin:round;">
</g>
<g >
</g>
<g style="fill:#000000; fill-opacity:1.0000; 
stroke:#000000; stroke-width:0.0212; stroke-opacity:1; 
stroke-linecap:round; stroke-linejoin:round;">
</g>
<g style="fill:#000000; fill-opacity:1.0000; 
stroke:#000000; stroke-width:0.2500; stroke-opacity:1; 
stroke-linecap:round; stroke-linejoin:round;">
</g>
<g style="fill:#000000; fill-opacity:0.0; 
stroke:#000000; stroke-width:0.2500; stroke-opacity:1; 
stroke-linecap:round; stroke-linejoin:round;">
<path d="M27.8213 35.1469
L29.6336 36.9592
" />
<path d="M29.9808 37.8808
L30.1250 38.0250
" />
<path d="M45.6131 36.5231
L46.2517 35.8844
" />
<path d="M31.0564 37.1623
L31.1936 37.1623
" />
<path d="M26.9518 34.7868
L26.4424 34.7868
" />
<path d="M31.1936 37.1623
L31.0564 37.1623
" />
<path d="M31.0564 37.1623
L30.1239 37.1623
" />
<path d="M44.0710 37.1620
L44.0712 37.1618
" />
<path d="M29.8367 37.5328
L29.8367 37.4495
" />
<path d="M31.0564 37.1623
L30.9877 37.1623
" />
<path d="M44.0704 37.1623
L31.1936 37.1623
" />
<path d="M29.6336 36.9591 A0.6934 0.6934 0.0 0 0 30.1239 37.1623" />
<path d="M30.1239 37.1623 A0.2872 0.2872 0.0 0 0 29.8367 37.4495" />
<path d="M29.8367 37.4495 A0.6934 0.6934 0.0 0 0 29.6336 36.9592" />
</g>
<g style="fill:#000000; fill-opacity:1.0000; 
stroke:#000000; stroke-width:0.0000; stroke-opacity:1; 
stroke-linecap:round; stroke-linejoin:round;">
<circle cx="31.0564" cy="37.1623" r="0.1250" /> 
</g>
<g style="fill:#000000; fill-opacity:0.0; 
stroke:#000000; stroke-width:0.2500; stroke-opacity:1; 
stroke-linecap:round; stroke-linejoin:round;">
<path d="M44.0712 37.1617 A2.1805 2.1805 0.0 0 0 45.6131 36.5231" />
<path d="M27.8214 35.1469 A1.2297 1.2297 0.0 0 0 26.9518 34.7868" />
<path d="M44.0704 37.1622 A0.0008 0.0008 0.0 0 0 44.0710 37.1620" />
<path d="M29.8367 37.5328 A0.4922 0.4922 0.0 0 0 29.9808 37.8808" />
<path d="M40.9083 34.3748
L40.9083 36.4373
" />
<path d="M37.8278 27.7025
L37.8278 23.4212
" />
<path d="M40.9083 34.6993
L40.9083 36.4373
" />
<path d="M36.5025 42.5299
L36.5025 41.9062
" />
<path d="M40.9083 36.4373
L40.9083 36.7118
" />
<path d="M43.3943 29.7068
L43.1458 29.7068
" />
<path d="M40.4027 39.8218
L37.7533 42.4712
" />
<path d="M36.5135 42.6472
L36.5246 42.7053
" />
<path d="M39.6793 31.7323
L39.3680 31.4210
" />
<path d="M37.8278 23.8695
L37.8278 23.3568
" />
<path d="M40.9083 37.8863
L40.9083 38.6012
" />
<path d="M43.4671 29.8824
L42.2755 31.0740
" />
<path d="M43.4693 29.8801 A0.1015 0.1015 0.0 0 0 43.3975 29.7068" />
<path d="M42.9789 29.5334 A0.5921 0.5921 0.0 0 0 43.3975 29.7068" />
<path d="M36.5025 42.5299 A0.6266 0.6266 0.0 0 0 36.5135 42.6472" />
<path d="M43.4671 29.8825 A0.1029 0.1029 0.0 0 0 43.3943 29.7068" />
<path d="M42.2755 31.0740 A4.6680 4.6680 0.0 0 0 40.9083 34.3748" />
<path d="M37.8278 27.7025 A5.2587 5.2587 0.0 0 0 39.3680 31.4210" />
<path d="M40.4027 39.8218 A1.7262 1.7262 0.0 0 0 40.9083 38.6012" />
<path d="M40.9083 34.6993 A4.1959 4.1959 0.0 0 0 39.6793 31.7323" />
<path d="M30.4240 34.4260
L30.1250 34.7250
" />
<path d="M30.7230 33.7041
L30.7230 32.2400
" />
<path d="M30.4240 34.4260 A1.0209 1.0209 0.0 0 0 30.7230 33.7041" />
</g>
<g >
</g>
<g style="fill:#000000; fill-opacity:0.0; 
stroke:#000000; stroke-width:0.2500; stroke-opacity:1; 
stroke-linecap:round; stroke-linejoin:round;">
<g >
</g>
<g style="fill:#000000; fill-opacity:1.0000; 
stroke:#000000; stroke-width:0.0000; stroke-opacity:1; 
stroke-linecap:round; stroke-linejoin:round;">
<path style="fill:#000000; fill-opacity:1.0000; 
stroke:#000000; stroke-width:0.0000; stroke-opacity:1; 
stroke-linecap:round; stroke-linejoin:round;fill-rule:evenodd;"
d="M 41.0777,31.3988
41.1122,31.4596
41.1084,31.5293
41.0972,31.5528
40.9542,31.7863
40.8817,31.9285
40.8337,31.9793
40.7659,31.9960
40.6998,31.9735
40.6709,31.9450
40.5017,31.7121
40.4653,31.6695
40.4367,31.6057
40.4471,31.5367
40.4933,31.4842
40.5503,31.4653
40.6134,31.4606
40.6134,31.4606
40.6134,31.4606
40.6134,31.4606
40.8728,31.4014
40.9462,31.3726
41.0158,31.3664
Z" /> 
<path style="fill:#000000; fill-opacity:1.0000; 
stroke:#000000; stroke-width:0.0000; stroke-opacity:1; 
stroke-linecap:round; stroke-linejoin:round;fill-rule:evenodd;"
d="M 38.7108,25.0193
38.7396,25.0564
38.7405,25.0560
38.7738,25.1132
38.7771,25.1199
38.7859,25.1403
38.7981,25.1551
38.8242,25.2001
38.8242,25.2001
38.8638,25.2475
38.8677,25.2538
38.8697,25.2559
38.8751,25.2623
38.8763,25.2625
38.8763,25.2625
38.8763,25.2625
38.9024,25.2648
38.9062,25.2632
38.9214,25.2623
46.3213,25.2623
46.3267,25.2625
46.3682,25.2661
46.4961,25.2788
46.5160,25.2824
46.5506,25.2916
46.5806,25.2997
46.5940,25.3038
46.6760,25.3286
46.6923,25.3349
46.7584,25.3657
46.7614,25.3672
46.8468,25.4128
46.8531,25.4167
46.9182,25.4623
46.9220,25.4651
46.9953,25.5253
46.9998,25.5294
47.0564,25.5860
47.0605,25.5905
47.1206,25.6638
47.1235,25.6675
47.1546,25.7120
47.1691,25.7327
47.1730,25.7390
47.2186,25.8244
47.2201,25.8274
47.2509,25.8934
47.2572,25.9098
47.2861,26.0052
47.3034,26.0697
47.3070,26.0896
47.3200,26.2217
47.3233,26.2584
47.3235,26.2638
47.3235,32.7487
47.3038,32.8158
47.2510,32.8615
47.1818,32.8715
47.1266,32.8490
46.9093,32.6912
46.9093,32.6911
46.9093,32.6911
46.6336,32.5396
46.6335,32.5396
46.6335,32.5396
46.6335,32.5396
46.3410,32.4237
46.3410,32.4237
46.0363,32.3455
46.0362,32.3455
45.7241,32.3061
45.7241,32.3061
45.4095,32.3061
45.4095,32.3061
45.0973,32.3455
45.0973,32.3455
44.7926,32.4237
44.7926,32.4237
44.5000,32.5396
44.5000,32.5396
44.2243,32.6911
44.2243,32.6912
43.9698,32.8761
43.9698,32.8761
43.7404,33.0915
43.7404,33.0915
43.5398,33.3339
43.5398,33.3339
43.3712,33.5995
43.3712,33.5996
43.3569,33.6300
43.3106,33.6822
43.2433,33.7012
43.2098,33.6961
43.2065,33.6952
42.9955,33.6545
42.9955,33.6545
42.8344,33.6545
42.6740,33.6698
42.6740,33.6698
42.4678,33.7304
42.2767,33.8289
42.1078,33.9617
42.1078,33.9617
41.9670,34.1242
41.8596,34.3103
41.7893,34.5134
41.7892,34.5134
41.7805,34.5740
41.7515,34.6375
41.6927,34.6753
41.6229,34.6753
41.5641,34.6375
41.5351,34.5740
41.5338,34.5563
41.5338,34.5099
41.5338,34.5090
41.5338,34.3748
41.5366,34.3102
41.5490,34.0252
41.5495,34.0198
41.5948,33.6755
41.5958,33.6702
41.5967,33.6658
41.6062,33.6232
42.0966,33.6232
42.1142,33.6093
42.1166,33.6076
42.1200,33.6052
42.1224,33.6035
42.1359,33.5949
42.1384,33.5933
42.1420,33.5913
42.1446,33.5899
42.3498,33.4841
42.3525,33.4828
42.3562,33.4810
42.3589,33.4799
42.3737,33.4740
42.3765,33.4729
42.3804,33.4716
42.3832,33.4707
42.4357,33.4553
42.3501,33.3697
42.0966,33.6232
41.6062,33.6232
41.6464,33.4416
41.9261,33.4416
42.1741,33.1936
42.5262,33.1936
42.7234,33.3909
42.8131,33.3823
42.8166,33.3820
42.8261,33.3816
42.8297,33.3815
43.0035,33.3815
43.0064,33.3816
43.0106,33.3818
43.0135,33.3820
43.0294,33.3835
43.0323,33.3838
43.0364,33.3844
43.0393,33.3849
43.0439,33.3858
43.2361,33.1936
42.8812,32.8387
42.5262,33.1936
42.1741,33.1936
42.0436,33.0632
42.0343,33.0856
41.9355,33.3992
41.9261,33.4416
41.6464,33.4416
41.6709,33.3312
41.6723,33.3260
41.7768,32.9947
41.7786,32.9897
41.8513,32.8142
42.1468,32.8142
42.3501,33.0176
42.7051,32.6626
43.0572,32.6626
43.4122,33.0176
43.7672,32.6626
43.4122,32.3076
43.0572,32.6626
42.7051,32.6626
42.3979,32.3554
42.3120,32.4902
42.1602,32.7818
42.1468,32.8142
41.8513,32.8142
41.9115,32.6688
41.9138,32.6640
42.0741,32.3559
42.0768,32.3513
42.1886,32.1758
42.2078,32.1456
42.5403,32.1456
42.8812,32.4865
43.2361,32.1315
43.5883,32.1315
43.9432,32.4865
44.2982,32.1315
44.6503,32.1315
44.6897,32.1709
44.6979,32.1676
44.7023,32.1660
44.7141,32.1622
44.7186,32.1609
45.0355,32.0795
45.0400,32.0785
45.0523,32.0762
45.0569,32.0754
45.2764,32.0477
45.2696,32.0409
45.8031,32.0409
46.0767,32.0754
46.0813,32.0762
46.0936,32.0785
46.0981,32.0795
46.3975,32.1564
46.4224,32.1315
46.7745,32.1315
47.0505,32.4075
47.0505,31.8556
46.7745,32.1315
46.4224,32.1315
46.4224,32.1315
46.0674,31.7766
45.8031,32.0409
45.2696,32.0409
45.0053,31.7766
44.6503,32.1315
44.2982,32.1315
43.9432,31.7766
43.5883,32.1315
43.2361,32.1315
42.8812,31.7766
42.6331,32.0246
42.5403,32.1456
42.2078,32.1456
42.2634,32.0584
42.2665,32.0540
42.2765,32.0409
42.4779,31.7784
42.4814,31.7743
42.5279,31.7235
43.1802,31.7235
43.4122,31.9555
43.6442,31.7235
44.2423,31.7235
44.4743,31.9555
44.7063,31.7235
44.2423,31.7235
43.6442,31.7235
43.1802,31.7235
42.5279,31.7235
42.6406,31.6005
45.1814,31.6005
45.5364,31.9555
45.8913,31.6005
46.2435,31.6005
46.5984,31.9555
46.9534,31.6005
46.5984,31.2455
46.2435,31.6005
45.8913,31.6005
45.5393,31.2484
45.4949,31.3203
45.4930,31.3233
45.4900,31.3275
45.4879,31.3303
45.4758,31.3456
45.4735,31.3484
45.4701,31.3522
45.4676,31.3548
45.3298,31.4926
45.3272,31.4951
45.3234,31.4985
45.3206,31.5008
45.3053,31.5129
45.3025,31.5150
45.2983,31.5180
45.2953,31.5199
45.2083,31.5736
45.1814,31.6005
42.6406,31.6005
42.7178,31.5163
42.7178,31.5163
42.7473,31.4868
42.8086,31.4533
42.8350,31.4505
44.7250,31.4505
44.7250,31.4505
44.8278,31.4400
44.9943,31.3848
45.1437,31.2927
45.2677,31.1687
45.3289,31.0695
45.7124,31.0695
46.0674,31.4244
46.4224,31.0695
46.7745,31.0695
47.0505,31.3455
47.0505,30.7935
46.7745,31.0695
46.4224,31.0695
46.0674,30.7145
45.7124,31.0695
45.3289,31.0695
45.3598,31.0193
45.4150,30.8528
45.4255,30.7500
45.4255,30.3456
45.6985,30.3456
45.6985,30.7313
45.8913,30.5384
46.2435,30.5384
46.5984,30.8934
46.9534,30.5384
46.5984,30.1835
46.2435,30.5384
45.8913,30.5384
45.8913,30.5384
45.6985,30.3456
45.4255,30.3456
45.4255,30.0074
45.7124,30.0074
46.0674,30.3624
46.4224,30.0074
46.7745,30.0074
47.0505,30.2834
47.0505,29.7314
46.7745,30.0074
46.4224,30.0074
46.4224,30.0074
46.0674,29.6524
45.7124,30.0074
45.4255,30.0074
45.4255,29.2835
45.6985,29.2835
45.6985,29.6692
45.8913,29.4764
46.2435,29.4764
46.5984,29.8313
46.9534,29.4764
46.5984,29.1214
46.2435,29.4764
45.8913,29.4764
45.8913,29.4764
45.6985,29.2835
45.4255,29.2835
45.4255,28.9453
45.7124,28.9453
46.0674,29.3003
46.4224,28.9453
46.7745,28.9453
47.0505,29.2213
47.0505,28.6693
46.7745,28.9453
46.4224,28.9453
46.0674,28.5904
45.7124,28.9453
45.4255,28.9453
45.4255,28.6500
45.4150,28.5472
45.3598,28.3807
45.2677,28.2313
45.1437,28.1073
45.1200,28.0927
45.5030,28.0927
45.5973,28.2456
45.5991,28.2488
45.6015,28.2532
45.6031,28.2565
45.6114,28.2741
45.6128,28.2775
45.6147,28.2822
45.6159,28.2855
45.6770,28.4700
45.6780,28.4733
45.6792,28.4778
45.6800,28.4811
45.6839,28.4990
45.6845,28.5023
45.6852,28.5070
45.6857,28.5104
45.6958,28.6098
45.8913,28.4143
46.2435,28.4143
46.5984,28.7693
46.9534,28.4143
46.5984,28.0593
46.2435,28.4143
45.8913,28.4143
45.8913,28.4143
45.5364,28.0593
45.5030,28.0927
45.1200,28.0927
44.9943,28.0152
44.8278,27.9600
44.8278,27.9600
44.7250,27.9495
42.5750,27.9495
42.5750,27.9495
42.4722,27.9600
42.4722,27.9600
42.3057,28.0152
42.3057,28.0152
42.1563,28.1073
42.0323,28.2313
41.9402,28.3807
41.9402,28.3807
41.9024,28.4947
41.8626,28.5522
41.7981,28.5790
41.7293,28.5667
41.6938,28.5401
41.5771,28.4143
41.5590,28.3948
41.4802,28.3319
41.3510,28.2289
41.1205,28.0958
41.1205,28.0958
40.8728,27.9986
40.8728,27.9986
40.8728,27.9986
40.8728,27.9986
40.6134,27.9394
40.4144,27.9245
40.4144,27.9245
40.2816,27.9245
40.2816,27.9245
40.0826,27.9394
40.0826,27.9394
39.8232,27.9986
39.8232,27.9986
39.8232,27.9986
39.8232,27.9986
39.8232,27.9986
39.5755,28.0958
39.3450,28.2289
39.1370,28.3948
38.9560,28.5899
38.8051,28.8112
38.7510,28.8555
38.6816,28.8636
38.6189,28.8328
38.5827,28.7731
38.5816,28.7682
38.5396,28.5790
38.5242,28.5097
38.5233,28.5044
38.4712,28.1090
38.4708,28.1036
38.4533,27.7028
38.4533,27.6217
38.7263,27.6217
38.7263,27.6968
38.7431,28.0825
38.7484,28.1227
38.9878,27.8833
39.3400,27.8833
39.3611,27.9044
39.3977,27.8833
41.4641,27.8833
41.7499,28.1691
41.8051,28.0797
41.8070,28.0767
41.8100,28.0725
41.8121,28.0697
41.8242,28.0544
41.8265,28.0516
41.8299,28.0478
41.8324,28.0452
41.9702,27.9074
41.9728,27.9049
41.9766,27.9015
41.9794,27.8992
41.9947,27.8871
41.9975,27.8850
42.0017,27.8820
42.0047,27.8801
42.1075,27.8167
41.8191,27.5283
41.4641,27.8833
39.3977,27.8833
39.4454,27.8557
39.4503,27.8531
39.4637,27.8467
39.4688,27.8444
39.7303,27.7418
39.7356,27.7400
39.7498,27.7356
39.7552,27.7341
39.8737,27.7071
39.8327,27.6661
40.6192,27.6661
40.6412,27.6677
40.6467,27.6684
40.6614,27.6706
40.6669,27.6716
40.9408,27.7341
40.9462,27.7356
40.9604,27.7400
40.9657,27.7418
40.9737,27.7449
40.7570,27.5283
40.6192,27.6661
39.8327,27.6661
39.6949,27.5283
39.3400,27.8833
38.9878,27.8833
38.7263,27.6217
38.4533,27.6217
38.4533,27.3522
38.8089,27.3522
39.1639,27.7072
39.5189,27.3522
39.8710,27.3522
40.1773,27.6585
40.2663,27.6519
40.2765,27.6515
40.2817,27.6515
40.5809,27.3522
40.5809,27.3522
40.9331,27.3522
41.2881,27.7072
41.6430,27.3522
41.9952,27.3522
42.3501,27.7072
42.3699,27.6875
44.8461,27.6875
44.8646,27.6893
44.8680,27.6898
44.8726,27.6905
44.8760,27.6911
44.8939,27.6950
44.8972,27.6958
44.9018,27.6970
44.9050,27.6980
45.0895,27.7591
45.0928,27.7603
45.0975,27.7622
45.1009,27.7636
45.1185,27.7719
45.1218,27.7735
45.1262,27.7759
45.1294,27.7777
45.2953,27.8801
45.2983,27.8820
45.3025,27.8850
45.3053,27.8871
45.3206,27.8992
45.3234,27.9015
45.3272,27.9049
45.3298,27.9074
45.3330,27.9105
45.3603,27.8833
45.7124,27.8833
46.0674,28.2382
46.4224,27.8833
46.4224,27.8833
46.7745,27.8833
47.0505,28.1592
47.0505,27.6073
46.7745,27.8833
46.4224,27.8833
46.0674,27.5283
45.7124,27.8833
45.3603,27.8833
45.0053,27.5283
44.8461,27.6875
42.3699,27.6875
42.3808,27.6765
42.7329,27.6765
43.0294,27.6765
42.8812,27.5283
42.7329,27.6765
42.3808,27.6765
42.7051,27.3522
43.0572,27.3522
43.3815,27.6765
43.4429,27.6765
43.7950,27.6765
44.0915,27.6765
43.9432,27.5283
43.7950,27.6765
43.4429,27.6765
43.7672,27.3522
44.1193,27.3522
44.4436,27.6765
44.5050,27.6765
44.8292,27.3522
45.1814,27.3522
45.5364,27.7072
45.8913,27.3522
46.2435,27.3522
46.5984,27.7072
46.9534,27.3522
46.5984,26.9972
46.2435,27.3522
45.8913,27.3522
45.8913,27.3522
45.5364,26.9972
45.1814,27.3522
44.8292,27.3522
44.8292,27.3522
44.4743,26.9972
44.1193,27.3522
43.7672,27.3522
43.4122,26.9972
43.0572,27.3522
42.7051,27.3522
42.7051,27.3522
42.3501,26.9972
41.9952,27.3522
41.6430,27.3522
41.2881,26.9972
40.9331,27.3522
40.5809,27.3522
40.2260,26.9972
39.8710,27.3522
39.5189,27.3522
39.1639,26.9972
38.8089,27.3522
38.4533,27.3522
38.4533,26.5596
38.7263,26.5596
38.7263,27.0827
38.9878,26.8212
39.3400,26.8212
39.6949,27.1761
40.0499,26.8212
40.4020,26.8212
40.7570,27.1761
41.1120,26.8212
41.1120,26.8212
41.4641,26.8212
41.8191,27.1761
42.1741,26.8212
42.1741,26.8212
42.5262,26.8212
42.8812,27.1761
43.2361,26.8212
43.5883,26.8212
43.9432,27.1761
44.2982,26.8212
44.2982,26.8212
44.6503,26.8212
45.0053,27.1761
45.3603,26.8212
45.7124,26.8212
46.0674,27.1761
46.4224,26.8212
46.7745,26.8212
47.0505,27.0972
47.0505,26.5452
46.7745,26.8212
46.4224,26.8212
46.4224,26.8212
46.0674,26.4662
45.7124,26.8212
45.3603,26.8212
45.0053,26.4662
44.6503,26.8212
44.2982,26.8212
43.9432,26.4662
43.5883,26.8212
43.2361,26.8212
42.8812,26.4662
42.5262,26.8212
42.1741,26.8212
41.8191,26.4662
41.4641,26.8212
41.1120,26.8212
40.7570,26.4662
40.4020,26.8212
40.0499,26.8212
39.6949,26.4662
39.3400,26.8212
38.9878,26.8212
38.7263,26.5596
38.4533,26.5596
38.4533,26.2901
38.8089,26.2901
39.1639,26.6451
39.5189,26.2901
39.5189,26.2901
39.8710,26.2901
40.2260,26.6451
40.5809,26.2901
40.9331,26.2901
41.2881,26.6451
41.6430,26.2901
41.9952,26.2901
42.3501,26.6451
42.7051,26.2901
43.0572,26.2901
43.4122,26.6451
43.7672,26.2901
44.1193,26.2901
44.4743,26.6451
44.8292,26.2901
45.1814,26.2901
45.5364,26.6451
45.8913,26.2901
46.2435,26.2901
46.5984,26.6451
46.9534,26.2901
46.5984,25.9352
46.2435,26.2901
45.8913,26.2901
45.5364,25.9352
45.1814,26.2901
44.8292,26.2901
44.4743,25.9352
44.1193,26.2901
43.7672,26.2901
43.4122,25.9352
43.0572,26.2901
42.7051,26.2901
42.3501,25.9352
41.9952,26.2901
41.6430,26.2901
41.2881,25.9352
40.9331,26.2901
40.5809,26.2901
40.2260,25.9352
39.8710,26.2901
39.5189,26.2901
39.1639,25.9352
38.8089,26.2901
38.4533,26.2901
38.4533,25.5160
38.7263,25.5160
38.7263,26.0207
38.9878,25.7591
39.3400,25.7591
39.6949,26.1141
40.0499,25.7591
40.4020,25.7591
40.7570,26.1141
41.1120,25.7591
41.4641,25.7591
41.8191,26.1141
42.1741,25.7591
42.5262,25.7591
42.8812,26.1141
43.2361,25.7591
43.5883,25.7591
43.9432,26.1141
44.2982,25.7591
44.6503,25.7591
45.0053,26.1141
45.3603,25.7591
45.7124,25.7591
46.0674,26.1141
46.4224,25.7591
46.4224,25.7591
46.7745,25.7591
46.9854,25.9700
46.9751,25.9480
46.9382,25.8789
46.9045,25.8308
46.8560,25.7717
46.8141,25.7297
46.8085,25.7251
46.7745,25.7591
46.4224,25.7591
46.1985,25.5353
45.9363,25.5353
45.7124,25.7591
45.3603,25.7591
45.1364,25.5353
44.8742,25.5353
44.6503,25.7591
44.2982,25.7591
44.0744,25.5353
43.8121,25.5353
43.5883,25.7591
43.2361,25.7591
43.0123,25.5353
42.7500,25.5353
42.5262,25.7591
42.1741,25.7591
41.9502,25.5353
41.6880,25.5353
41.4641,25.7591
41.1120,25.7591
40.8881,25.5353
40.6259,25.5353
40.4020,25.7591
40.0499,25.7591
39.8261,25.5353
39.5638,25.5353
39.3400,25.7591
38.9878,25.7591
38.7638,25.5351
38.7263,25.5160
38.4533,25.5160
38.4533,25.1408
38.4730,25.0738
38.5235,25.0291
38.5778,25.0029
38.6467,24.9916
Z" /> 
<path style="fill:#000000; fill-opacity:1.0000; 
stroke:#000000; stroke-width:0.0000; stroke-opacity:1; 
stroke-linecap:round; stroke-linejoin:round;fill-rule:evenodd;"
d="M 41.7390,34.9151
41.7768,34.9739
41.7783,34.9796
41.7945,35.0466
41.8196,35.1498
41.8196,35.1498
41.8963,35.3178
41.9089,35.3453
42.0146,35.4938
42.0335,35.5204
42.0335,35.5204
42.1891,35.6687
42.1891,35.6687
42.1891,35.6687
42.3699,35.7849
42.5695,35.8648
42.6301,35.8765
42.7805,35.9055
42.7805,35.9055
42.9416,35.9055
42.9416,35.9055
43.1020,35.8902
43.1856,35.8656
43.2555,35.8656
43.3143,35.9034
43.3328,35.9318
43.3712,36.0136
43.3712,36.0136
43.5398,36.2792
43.5398,36.2792
43.5849,36.3337
43.6125,36.3979
43.6010,36.4668
43.5540,36.5186
43.4894,36.5368
41.9358,36.5368
41.8688,36.5171
41.8230,36.4643
41.8125,36.4257
41.8093,36.3951
41.7955,36.2638
42.6423,36.2638
43.1200,36.2638
43.0278,36.1715
42.9629,36.1777
42.9594,36.1780
42.9499,36.1784
42.9463,36.1785
42.7725,36.1785
42.7696,36.1784
42.7654,36.1782
42.7625,36.1780
42.7466,36.1765
42.7437,36.1762
42.7396,36.1756
42.7367,36.1751
42.7319,36.1741
42.6423,36.2638
41.7955,36.2638
41.7939,36.2490
41.7355,36.0690
41.6408,35.9050
41.6401,35.9042
42.0506,35.9042
42.3501,36.2038
42.4449,36.1090
42.2611,36.0354
42.2584,36.0343
42.2546,36.0326
42.2519,36.0312
42.2377,36.0239
42.2352,36.0225
42.2316,36.0205
42.2290,36.0189
42.0506,35.9042
41.6401,35.9042
41.6273,35.8900
41.5656,35.8215
41.5354,35.7585
41.5338,35.7386
41.5338,35.0088
41.5535,34.9418
41.6063,34.8961
41.6754,34.8861
Z" /> 
<path style="fill:#000000; fill-opacity:1.0000; 
stroke:#000000; stroke-width:0.0000; stroke-opacity:1; 
stroke-linecap:round; stroke-linejoin:round;fill-rule:evenodd;"
d="M 40.1966,35.0014
40.2544,35.0406
40.2819,35.1048
40.2828,35.1195
40.2828,35.7386
40.2631,35.8056
40.2509,35.8215
40.1757,35.9050
40.0811,36.0690
40.0811,36.0690
40.0226,36.2490
40.0226,36.2490
40.0079,36.3884
40.0040,36.4257
39.9774,36.4903
39.9201,36.5303
39.8807,36.5368
39.5370,36.5368
39.4700,36.5171
39.4242,36.4643
39.4143,36.3951
39.4423,36.3327
39.4640,36.3070
39.6239,36.1179
39.7860,35.8640
39.9128,35.5907
40.0021,35.3029
40.0365,35.0989
40.0671,35.0361
40.1267,34.9997
Z" /> 
<path style="fill:#000000; fill-opacity:1.0000; 
stroke:#000000; stroke-width:0.0000; stroke-opacity:1; 
stroke-linecap:round; stroke-linejoin:round;fill-rule:evenodd;"
d="M 37.1203,25.0234
37.1321,25.0291
37.1839,25.0759
37.2023,25.1408
37.2023,27.6511
37.2023,27.6512
37.2023,27.9127
37.2322,28.3319
37.2322,28.3319
37.2921,28.7479
37.3105,28.8328
37.3814,29.1587
37.4998,29.5619
37.5987,29.8270
37.6467,29.9558
37.8213,30.3381
38.0228,30.7070
38.0228,30.7070
38.2500,31.0606
38.5019,31.3971
38.6084,31.5199
38.7749,31.7121
38.7771,31.7147
38.8699,31.8074
39.1810,32.1186
39.1810,32.1186
39.2360,32.1736
39.2381,32.1758
39.4371,32.3954
39.4407,32.3993
39.4703,32.4320
39.4742,32.4367
39.6793,32.7132
39.6827,32.7183
39.8594,33.0132
39.8596,33.0136
39.8625,33.0190
40.0097,33.3302
40.0121,33.3358
40.1280,33.6600
40.1298,33.6658
40.2135,33.9998
40.2146,34.0058
40.2529,34.2633
40.2432,34.3325
40.1977,34.3855
40.1307,34.4055
40.0636,34.3861
40.0176,34.3335
40.0096,34.3102
39.9623,34.1118
39.9623,34.1117
39.9623,34.1117
39.8540,33.8306
39.7092,33.5663
39.7040,33.5593
39.6273,33.4553
39.5304,33.3238
39.3210,33.1072
39.2937,33.0856
39.0845,32.9204
39.0845,32.9204
39.0845,32.9204
38.8253,32.7669
38.5479,32.6493
38.5479,32.6493
38.2573,32.5697
38.1826,32.5596
37.9587,32.5295
37.7328,32.5295
37.7327,32.5295
37.5074,32.5446
37.5074,32.5446
37.2121,32.6046
36.9275,32.7034
36.9275,32.7034
36.6585,32.8393
36.4101,33.0099
36.1867,33.2120
35.9921,33.4421
35.8300,33.6960
35.8300,33.6960
35.7162,33.9414
35.7032,33.9693
35.7032,33.9693
35.6139,34.2571
35.5811,34.4517
35.5638,34.5542
35.5575,34.7431
35.5537,34.8554
35.5839,35.1552
35.5839,35.1552
35.6537,35.4483
35.6537,35.4483
35.7620,35.7294
35.7620,35.7294
35.9068,35.9937
35.9068,35.9937
36.0856,36.2362
36.0856,36.2362
36.0856,36.2362
36.1729,36.3265
36.2053,36.3884
36.1992,36.4580
36.1564,36.5132
36.0905,36.5366
36.0838,36.5368
30.2035,36.5368
30.2033,36.5367
30.1471,36.5367
30.0801,36.5171
30.0594,36.5004
30.0196,36.4606
30.0195,36.4605
29.6670,36.1080
30.0531,36.1080
30.2081,36.2630
30.2082,36.2632
30.2088,36.2637
30.2097,36.2637
30.2102,36.2638
30.3751,36.2638
30.9595,36.2638
31.4372,36.2638
32.0215,36.2638
32.4993,36.2638
33.0836,36.2638
33.5614,36.2638
34.1457,36.2638
34.6234,36.2638
35.2078,36.2638
35.6855,36.2638
35.4466,36.0249
35.2078,36.2638
34.6234,36.2638
34.3846,36.0249
34.1457,36.2638
33.5614,36.2638
33.3370,36.0394
33.2770,36.0704
33.0836,36.2638
32.4993,36.2638
32.3710,36.1354
32.3500,36.1314
32.3471,36.1307
32.3430,36.1298
32.3402,36.1290
32.3249,36.1245
32.3220,36.1236
32.3181,36.1222
32.3154,36.1212
32.2073,36.0780
32.0215,36.2638
31.4372,36.2638
31.1983,36.0249
30.9595,36.2638
30.3751,36.2638
30.1363,36.0249
30.0531,36.1080
29.6670,36.1080
29.5726,36.0136
29.5075,35.9485
30.4120,35.9485
30.6673,36.2038
31.0223,35.8488
31.0223,35.8488
31.3744,35.8488
31.7294,36.2038
31.9748,35.9584
31.8952,35.9072
33.5570,35.9072
33.8535,36.2038
34.2085,35.8488
34.5606,35.8488
34.9156,36.2038
35.2706,35.8488
34.9156,35.4938
34.5606,35.8488
34.2085,35.8488
33.9025,35.5428
33.8814,35.5792
33.8799,35.5818
33.8776,35.5853
33.8760,35.5877
33.8667,35.6007
33.8649,35.6031
33.8624,35.6063
33.8605,35.6086
33.7093,35.7831
33.7073,35.7853
33.7045,35.7883
33.7024,35.7903
33.6908,35.8013
33.6887,35.8033
33.6856,35.8060
33.6833,35.8079
33.5570,35.9072
31.8952,35.9072
31.8748,35.8941
31.8723,35.8924
31.8690,35.8900
31.8666,35.8882
31.8541,35.8784
31.8518,35.8765
31.8487,35.8738
31.8465,35.8718
31.6794,35.7125
31.6772,35.7103
31.6744,35.7074
31.6724,35.7052
31.6620,35.6931
31.6601,35.6908
31.6575,35.6876
31.6558,35.6852
31.6068,35.6164
31.3744,35.8488
31.0223,35.8488
30.9927,35.8192
30.9437,35.8495
30.9406,35.8513
30.9361,35.8537
30.9329,35.8553
30.9152,35.8635
30.9119,35.8650
30.9072,35.8668
30.9038,35.8681
30.7249,35.9274
30.7217,35.9283
30.7171,35.9296
30.7138,35.9304
30.6959,35.9342
30.6926,35.9348
30.6879,35.9356
30.6845,35.9360
30.5710,35.9476
30.5672,35.9479
30.5572,35.9484
30.5534,35.9485
30.4120,35.9485
29.5075,35.9485
29.4070,35.8480
29.3735,35.7867
29.3785,35.7170
29.4204,35.6611
29.4858,35.6366
29.5337,35.6426
29.6023,35.6653
29.7017,35.6755
30.5483,35.6755
30.5484,35.6755
30.5484,35.6755
30.6147,35.6687
30.6194,35.6682
31.1938,35.6682
31.1983,35.6727
31.4729,35.3982
31.4326,35.3100
31.4181,35.3538
31.4168,35.3572
31.4150,35.3619
31.4135,35.3652
31.4053,35.3829
31.4037,35.3861
31.4013,35.3906
31.3995,35.3937
31.3002,35.5547
31.2982,35.5577
31.2953,35.5618
31.2932,35.5647
31.2811,35.5800
31.2787,35.5828
31.2754,35.5866
31.2729,35.5892
31.1938,35.6682
30.6194,35.6682
30.6477,35.6653
30.8087,35.6120
30.9530,35.5230
31.0730,35.4030
31.1620,35.2587
31.2153,35.0977
31.2255,34.9983
31.2255,34.4517
31.2186,34.3840
31.2274,34.3240
31.2330,34.3103
31.2645,34.2345
31.2940,34.1242
31.3052,34.0824
31.3416,34.0227
31.4044,33.9922
31.4250,33.9905
31.6694,33.9905
31.7365,34.0102
31.7822,34.0630
31.7922,34.1321
31.7768,34.1765
31.6996,34.3103
31.6293,34.5134
31.6292,34.5134
31.5987,34.7262
31.5987,34.7262
31.6089,34.9409
31.6596,35.1498
31.6596,35.1498
31.7363,35.3178
31.7489,35.3453
31.8546,35.4938
31.8735,35.5204
31.8735,35.5204
32.0291,35.6687
32.0291,35.6687
32.0291,35.6687
32.2099,35.7849
32.4095,35.8648
32.4701,35.8765
32.6205,35.9055
32.6205,35.9055
32.7816,35.9055
32.7816,35.9055
32.9420,35.8902
33.1482,35.8296
33.3393,35.7311
33.3630,35.7125
33.4186,35.6687
33.5082,35.5983
33.6490,35.4358
33.6525,35.4296
33.7171,35.3178
34.0296,35.3178
34.3846,35.6727
34.7395,35.3178
34.7395,35.3178
35.0917,35.3178
35.4466,35.6727
35.4474,35.6720
35.3966,35.5401
35.3949,35.5354
35.3910,35.5228
35.3897,35.5180
35.3168,35.2120
35.3158,35.2071
35.3136,35.1941
35.3129,35.1891
35.3045,35.1050
35.0917,35.3178
34.7395,35.3178
34.3846,34.9628
34.0296,35.3178
33.7171,35.3178
33.7314,35.2930
33.7564,35.2497
33.8267,35.0466
33.8573,34.8338
33.8551,34.7867
34.5606,34.7867
34.9156,35.1417
35.2706,34.7867
34.9156,34.4318
34.5606,34.7867
33.8551,34.7867
33.8471,34.6191
33.7964,34.4102
33.7409,34.2885
34.0624,34.2885
34.3846,34.6107
34.7395,34.2557
34.7395,34.2557
35.0917,34.2557
35.3018,34.4659
35.3458,34.2052
35.3468,34.2003
35.3499,34.1874
35.3512,34.1826
35.4350,33.9124
35.0917,34.2557
34.7395,34.2557
34.6633,34.1795
34.6157,34.1982
34.6104,34.2000
34.5962,34.2044
34.5908,34.2059
34.3169,34.2684
34.3114,34.2694
34.2967,34.2716
34.2912,34.2723
34.0797,34.2881
34.0695,34.2885
34.0624,34.2885
33.7409,34.2885
33.7071,34.2147
33.7071,34.2147
33.7071,34.2147
33.6980,34.2018
33.6751,34.1358
33.6916,34.0679
33.7422,34.0197
33.8083,34.0063
33.8426,34.0088
33.9316,34.0155
33.9316,34.0155
34.0644,34.0155
34.2634,34.0006
34.2634,34.0006
34.2634,34.0006
34.2634,34.0006
34.5228,33.9414
34.7705,33.8442
35.0010,33.7111
35.2090,33.5452
35.3900,33.3501
35.5399,33.1302
35.6221,32.9596
35.9198,32.9596
35.9777,33.0176
36.3327,32.6626
36.1933,32.5232
38.9483,32.5232
38.9543,32.5262
38.9587,32.5286
39.2294,32.6889
39.2336,32.6916
39.2445,32.6991
39.2485,32.7021
39.3775,32.8040
39.3942,32.7872
39.2611,32.6076
39.0722,32.3993
38.9483,32.5232
36.1933,32.5232
36.0465,32.3764
36.0465,32.3805
36.0463,32.3861
36.0452,32.4008
36.0446,32.4064
36.0027,32.6842
36.0016,32.6897
35.9983,32.7042
35.9969,32.7096
35.9198,32.9596
35.6221,32.9596
35.6554,32.8905
35.7338,32.6362
35.7386,32.6046
35.7735,32.3731
35.7735,32.3731
35.7735,32.1315
36.1537,32.1315
36.5087,32.4865
36.8637,32.1315
37.2158,32.1315
37.3768,32.2925
37.4595,32.2757
37.4644,32.2749
37.4776,32.2731
37.4826,32.2726
37.7191,32.2568
37.7282,32.2565
37.8008,32.2565
37.9258,32.1315
37.9258,32.1315
38.2779,32.1315
38.4992,32.3529
38.6264,32.3877
38.6311,32.3892
38.6437,32.3936
38.6484,32.3954
38.7015,32.4179
38.8979,32.2215
38.6768,32.0005
38.5806,31.9043
38.5740,31.8972
38.5453,31.8641
38.2779,32.1315
37.9258,32.1315
37.5708,31.7766
37.2158,32.1315
36.8637,32.1315
36.5087,31.7766
36.1537,32.1315
35.7735,32.1315
35.7735,32.1069
35.7735,32.1069
35.7338,31.8438
35.7338,31.8438
35.7226,31.8074
35.6554,31.5895
35.5648,31.4014
35.5499,31.3704
35.8529,31.3704
35.9046,31.4778
35.9068,31.4829
35.9122,31.4967
35.9141,31.5019
35.9969,31.7704
35.9983,31.7758
36.0016,31.7903
36.0027,31.7958
36.0203,31.9128
36.3327,31.6005
36.6848,31.6005
37.0398,31.9555
37.3947,31.6005
37.7469,31.6005
38.1018,31.9555
38.3819,31.6754
38.2924,31.5721
38.2862,31.5646
38.0707,31.2767
37.7469,31.6005
37.3947,31.6005
37.0398,31.2455
36.6848,31.6005
36.3327,31.6005
35.9777,31.2455
35.8529,31.3704
35.5499,31.3704
35.5399,31.3498
35.5399,31.3498
35.3900,31.1299
35.3153,31.0493
35.2090,30.9348
35.0318,30.7935
35.0010,30.7689
34.9693,30.7506
35.4105,30.7506
35.5952,30.9497
35.5988,30.9539
35.6081,30.9655
35.6114,30.9700
35.7289,31.1422
35.8016,31.0695
36.1537,31.0695
36.5087,31.4244
36.8637,31.0695
37.2158,31.0695
37.5708,31.4244
37.9258,31.0695
37.5708,30.7145
37.2158,31.0695
36.8637,31.0695
36.5087,30.7145
36.1537,31.0695
35.8016,31.0695
35.8016,31.0695
35.4466,30.7145
35.4105,30.7506
34.9693,30.7506
34.7705,30.6358
34.7705,30.6358
34.5228,30.5386
34.5228,30.5386
34.5228,30.5386
34.5228,30.5386
34.2634,30.4794
34.0644,30.4645
34.0644,30.4645
33.9316,30.4645
33.9316,30.4645
33.7326,30.4794
33.7326,30.4794
33.4732,30.5386
33.4732,30.5386
33.4732,30.5386
33.4732,30.5386
33.4732,30.5386
33.2255,30.6358
32.9950,30.7689
32.7870,30.9348
32.7870,30.9348
32.6721,31.0586
32.6121,31.0944
32.5422,31.0920
32.4848,31.0522
32.4635,31.0133
32.4491,30.9700
32.4328,30.9207
32.3407,30.7713
32.2167,30.6473
32.0673,30.5552
31.9302,30.5097
32.4652,30.5097
32.5406,30.5852
32.5431,30.5878
32.5465,30.5916
32.5488,30.5944
32.5609,30.6097
32.5630,30.6125
32.5660,30.6167
32.5679,30.6197
32.6261,30.7140
32.8306,30.5508
32.8351,30.5475
32.8474,30.5392
32.8521,30.5362
33.0373,30.4293
32.9466,30.3386
34.7605,30.3386
34.8772,30.3844
34.8823,30.3867
34.8957,30.3931
34.9006,30.3957
35.1439,30.5362
35.1486,30.5392
35.1609,30.5475
35.1654,30.5508
35.2170,30.5920
35.2706,30.5384
35.6227,30.5384
35.9777,30.8934
36.3327,30.5384
36.6848,30.5384
37.0398,30.8934
37.3947,30.5384
37.0398,30.1835
36.6848,30.5384
36.3327,30.5384
35.9777,30.1835
35.6227,30.5384
35.2706,30.5384
35.2706,30.5384
34.9156,30.1835
34.7605,30.3386
32.9466,30.3386
32.7915,30.1835
32.4652,30.5097
31.9302,30.5097
31.9008,30.5000
31.9008,30.5000
31.7980,30.4895
29.6480,30.4895
29.6480,30.4895
29.5452,30.5000
29.5452,30.5000
29.3787,30.5552
29.3787,30.5552
29.2293,30.6473
29.1053,30.7713
29.0132,30.9207
29.0132,30.9207
28.9853,31.0047
28.9580,31.0872
28.9580,31.0872
28.9580,31.0872
28.9475,31.1900
28.9475,33.2900
28.9475,33.2900
28.9580,33.3928
28.9580,33.3928
29.0132,33.5593
29.0132,33.5593
29.0404,33.6035
29.0995,33.6993
29.1053,33.7087
29.2226,33.8260
29.2561,33.8873
29.2511,33.9570
29.2226,34.0014
29.1770,34.0470
29.0880,34.1913
29.0880,34.1913
29.0347,34.3523
29.0245,34.4516
29.0245,34.9983
29.0245,34.9984
29.0346,35.0977
29.0347,35.0977
29.0574,35.1663
29.0598,35.2361
29.0241,35.2962
28.9615,35.3274
28.8921,35.3198
28.8520,35.2930
28.3021,34.7431
28.3021,34.7431
28.2583,34.6993
28.2183,34.6593
28.1849,34.5980
28.1824,34.5809
28.1782,34.5251
28.1759,34.5149
28.4600,34.5149
28.4989,34.5538
28.4989,34.5538
28.7515,34.8064
28.7515,34.6401
28.5432,34.4318
28.4600,34.5149
28.1759,34.5149
28.1747,34.5099
28.1198,34.2693
28.0247,34.0271
28.0196,33.9695
28.4330,33.9695
28.5432,34.0796
28.8340,33.7888
28.7757,33.6944
28.7739,33.6912
28.7715,33.6868
28.7699,33.6835
28.7616,33.6659
28.7602,33.6625
28.7583,33.6578
28.7571,33.6545
28.7220,33.5485
28.5475,33.3740
28.5475,33.6732
28.5517,33.7133
28.5486,33.7467
28.5630,33.7902
28.5610,33.8170
28.5572,33.8374
28.5255,33.8997
28.5051,33.9172
28.4514,33.9538
28.4480,33.9572
28.4330,33.9695
28.0196,33.9695
28.0186,33.9575
28.0510,33.8957
28.0779,33.8746
28.1254,33.8470
28.1321,33.8436
28.1526,33.8348
28.1674,33.8226
28.2123,33.7965
28.2594,33.7572
28.2658,33.7534
28.2681,33.7510
28.2746,33.7456
28.2747,33.7444
28.2747,33.7444
28.2747,33.7444
28.2771,33.7184
28.2754,33.7145
28.2745,33.6993
28.2745,32.3119
28.5475,32.3119
28.5475,33.0132
28.6745,32.8862
28.6745,32.4390
28.5475,32.3119
28.2745,32.3119
28.2745,31.2499
28.5475,31.2499
28.5475,31.9512
28.6745,31.8241
28.6745,31.3769
28.5475,31.2499
28.2745,31.2499
28.2745,30.1878
28.5475,30.1878
28.5475,30.8891
28.8981,30.5384
28.5475,30.1878
28.2745,30.1878
28.2745,30.0074
28.7192,30.0074
29.0742,30.3624
29.4292,30.0074
29.7813,30.0074
29.9904,30.2165
30.2821,30.2165
30.4912,30.0074
30.8434,30.0074
31.0525,30.2165
31.3442,30.2165
31.5533,30.0074
31.9055,30.0074
32.2374,30.3393
32.2659,30.3569
32.6154,30.0074
32.9675,30.0074
33.2809,30.3208
33.3803,30.2818
33.3856,30.2800
33.3998,30.2756
33.4052,30.2741
33.4124,30.2725
33.6775,30.0074
34.0296,30.0074
34.2250,30.2028
34.2912,30.2077
34.2967,30.2084
34.3114,30.2106
34.3169,30.2116
34.4947,30.2522
34.7395,30.0074
35.0917,30.0074
35.4466,30.3624
35.8016,30.0074
36.1538,30.0074
36.5087,30.3624
36.8637,30.0074
37.2158,30.0074
37.4999,30.2915
37.3964,30.0647
37.3926,30.0557
37.3315,29.8918
37.2158,30.0074
36.8637,30.0074
36.5087,29.6524
36.1538,30.0074
35.8016,30.0074
35.4466,29.6524
35.0917,30.0074
34.7395,30.0074
34.7395,30.0074
34.3846,29.6524
34.0296,30.0074
33.6775,30.0074
33.3225,29.6524
32.9675,30.0074
32.6154,30.0074
32.6154,30.0074
32.2604,29.6524
31.9055,30.0074
31.5533,30.0074
31.5533,30.0074
31.1983,29.6524
30.8434,30.0074
30.4912,30.0074
30.4912,30.0074
30.1363,29.6524
29.7813,30.0074
29.4292,30.0074
29.0742,29.6524
28.7192,30.0074
28.2745,30.0074
28.2745,29.1257
28.5475,29.1257
28.5475,29.8270
28.8981,29.4764
28.8981,29.4764
29.2503,29.4764
29.6052,29.8313
29.9602,29.4764
29.9602,29.4764
30.3123,29.4764
30.6673,29.8313
31.0223,29.4764
31.0223,29.4764
31.3744,29.4764
31.7294,29.8313
32.0844,29.4764
32.4365,29.4764
32.7915,29.8313
33.1464,29.4764
33.4986,29.4764
33.8535,29.8313
34.2085,29.4764
34.5606,29.4764
34.9156,29.8313
35.2706,29.4764
35.6227,29.4764
35.9777,29.8313
36.3327,29.4764
36.6848,29.4764
37.0398,29.8313
37.2366,29.6345
37.1181,29.2309
37.1157,29.2215
37.1090,29.1906
37.0398,29.1214
36.6848,29.4764
36.3327,29.4764
35.9777,29.1214
35.6227,29.4764
35.2706,29.4764
35.2706,29.4764
34.9156,29.1214
34.5606,29.4764
34.2085,29.4764
34.2085,29.4764
33.8535,29.1214
33.4986,29.4764
33.1464,29.4764
32.7915,29.1214
32.4365,29.4764
32.0844,29.4764
31.7294,29.1214
31.3744,29.4764
31.0223,29.4764
30.6673,29.1214
30.3123,29.4764
29.9602,29.4764
29.6052,29.1214
29.2503,29.4764
28.8981,29.4764
28.5475,29.1257
28.2745,29.1257
28.2745,28.9453
28.7192,28.9453
29.0742,29.3003
29.4292,28.9453
29.7813,28.9453
30.1363,29.3003
30.4912,28.9453
30.8434,28.9453
31.1983,29.3003
31.5533,28.9453
31.9055,28.9453
32.2604,29.3003
32.6154,28.9453
32.9675,28.9453
33.3225,29.3003
33.6775,28.9453
34.0296,28.9453
34.3846,29.3003
34.7395,28.9453
35.0917,28.9453
35.4466,29.3003
35.8016,28.9453
36.1537,28.9453
36.5087,29.3003
36.8637,28.9453
36.5087,28.5904
36.1537,28.9453
35.8016,28.9453
35.4466,28.5904
35.0917,28.9453
34.7395,28.9453
34.3846,28.5904
34.0296,28.9453
33.6775,28.9453
33.3225,28.5904
32.9675,28.9453
32.6154,28.9453
32.2604,28.5904
31.9055,28.9453
31.5533,28.9453
31.1983,28.5904
30.8434,28.9453
30.4912,28.9453
30.1363,28.5904
29.7813,28.9453
29.4292,28.9453
29.0742,28.5904
28.7192,28.9453
28.2745,28.9453
28.2745,28.0636
28.5475,28.0636
28.5475,28.7649
28.8981,28.4143
29.2503,28.4143
29.6052,28.7693
29.9602,28.4143
29.9602,28.4143
30.3123,28.4143
30.6673,28.7693
31.0223,28.4143
31.3744,28.4143
31.7294,28.7693
32.0844,28.4143
32.4365,28.4143
32.7915,28.7693
33.1464,28.4143
33.4986,28.4143
33.8535,28.7693
34.2085,28.4143
34.5606,28.4143
34.9156,28.7693
35.2706,28.4143
35.6227,28.4143
35.9777,28.7693
36.3326,28.4143
36.6848,28.4143
37.0159,28.7454
36.9613,28.3659
36.9603,28.3563
36.9458,28.1533
36.6848,28.4143
36.3326,28.4143
36.3327,28.4143
35.9777,28.0593
35.6227,28.4143
35.2706,28.4143
35.2706,28.4143
34.9156,28.0593
34.5606,28.4143
34.2085,28.4143
33.8535,28.0593
33.4986,28.4143
33.1464,28.4143
32.7915,28.0593
32.4365,28.4143
32.0844,28.4143
31.7294,28.0593
31.3744,28.4143
31.0223,28.4143
30.6673,28.0593
30.3123,28.4143
29.9602,28.4143
29.6052,28.0593
29.2503,28.4143
28.8981,28.4143
28.5475,28.0636
28.2745,28.0636
28.2745,27.8833
28.7192,27.8833
29.0742,28.2382
29.4292,27.8833
29.7813,27.8833
30.1363,28.2382
30.4912,27.8833
30.4912,27.8833
30.8434,27.8833
31.1983,28.2382
31.5533,27.8833
31.5533,27.8833
31.9055,27.8833
32.2604,28.2382
32.6154,27.8833
32.9675,27.8833
33.3225,28.2382
33.6775,27.8833
34.0296,27.8833
34.3846,28.2382
34.7395,27.8833
35.0917,27.8833
35.4466,28.2382
35.8016,27.8833
36.1538,27.8833
36.5087,28.2382
36.8637,27.8833
36.5087,27.5283
36.1538,27.8833
35.8016,27.8833
35.8016,27.8833
35.4466,27.5283
35.0917,27.8833
34.7395,27.8833
34.3846,27.5283
34.0296,27.8833
33.6775,27.8833
33.3225,27.5283
32.9675,27.8833
32.6154,27.8833
32.2604,27.5283
31.9055,27.8833
31.5533,27.8833
31.1983,27.5283
30.8434,27.8833
30.4912,27.8833
30.1363,27.5283
29.7813,27.8833
29.4292,27.8833
29.0742,27.5283
28.7192,27.8833
28.2745,27.8833
28.2745,27.0016
28.5475,27.0016
28.5475,27.7029
28.8981,27.3522
29.2503,27.3522
29.6052,27.7072
29.9602,27.3522
30.3123,27.3522
30.6673,27.7072
31.0223,27.3522
31.3744,27.3522
31.7294,27.7072
32.0844,27.3522
32.4365,27.3522
32.7915,27.7072
33.1464,27.3522
33.4986,27.3522
33.8535,27.7072
34.2085,27.3522
34.5606,27.3522
34.9156,27.7072
35.2706,27.3522
35.6227,27.3522
35.9777,27.7072
36.3327,27.3522
36.6848,27.3522
36.9293,27.5967
36.9293,27.1077
36.6848,27.3522
36.3327,27.3522
35.9777,26.9972
35.6227,27.3522
35.2706,27.3522
34.9156,26.9972
34.5606,27.3522
34.2085,27.3522
33.8535,26.9972
33.4986,27.3522
33.1464,27.3522
32.7915,26.9972
32.4365,27.3522
32.0844,27.3522
31.7294,26.9972
31.3744,27.3522
31.0223,27.3522
30.6673,26.9972
30.3123,27.3522
29.9602,27.3522
29.6052,26.9972
29.2503,27.3522
28.8981,27.3522
28.5475,27.0016
28.2745,27.0016
28.2745,26.8212
28.7192,26.8212
29.0742,27.1761
29.4292,26.8212
29.7813,26.8212
30.1363,27.1761
30.4912,26.8212
30.8434,26.8212
31.1983,27.1761
31.5533,26.8212
31.9055,26.8212
32.2604,27.1761
32.6154,26.8212
32.9675,26.8212
33.3225,27.1761
33.6775,26.8212
34.0296,26.8212
34.3846,27.1761
34.7395,26.8212
35.0917,26.8212
35.4466,27.1761
35.8016,26.8212
36.1538,26.8212
36.5087,27.1761
36.8637,26.8212
36.5087,26.4662
36.1538,26.8212
35.8016,26.8212
35.4466,26.4662
35.0917,26.8212
34.7395,26.8212
34.3846,26.4662
34.0296,26.8212
33.6775,26.8212
33.3225,26.4662
32.9675,26.8212
32.6154,26.8212
32.2604,26.4662
31.9055,26.8212
31.5533,26.8212
31.1983,26.4662
30.8434,26.8212
30.4912,26.8212
30.1363,26.4662
29.7813,26.8212
29.4292,26.8212
29.0742,26.4662
28.7192,26.8212
28.2745,26.8212
28.2745,26.6408
28.5475,26.6408
28.8981,26.2901
29.2503,26.2901
29.6052,26.6451
29.9602,26.2901
30.3123,26.2901
30.6673,26.6451
31.0223,26.2901
31.0223,26.2901
31.3744,26.2901
31.7294,26.6451
32.0844,26.2901
32.4365,26.2901
32.7915,26.6451
33.1464,26.2901
33.4986,26.2901
33.8535,26.6451
34.2085,26.2901
34.5606,26.2901
34.9156,26.6451
35.2706,26.2901
35.6227,26.2901
35.9777,26.6451
36.3327,26.2901
36.6848,26.2901
36.9293,26.5346
36.9293,26.0457
36.6848,26.2901
36.3327,26.2901
35.9777,25.9352
35.6227,26.2901
35.2706,26.2901
34.9156,25.9352
34.5606,26.2901
34.2085,26.2901
33.8535,25.9352
33.4986,26.2901
33.1464,26.2901
32.7915,25.9352
32.4365,26.2901
32.0844,26.2901
31.7294,25.9352
31.3744,26.2901
31.0223,26.2901
30.6673,25.9352
30.3123,26.2901
29.9602,26.2901
29.6052,25.9352
29.2503,26.2901
28.8981,26.2901
28.6016,25.9936
28.5988,25.9995
28.5749,26.0785
28.5614,26.1289
28.5503,26.2416
28.5475,26.2737
28.5475,26.6408
28.2745,26.6408
28.2745,26.2645
28.2747,26.2590
28.2785,26.2164
28.2909,26.0900
28.2945,26.0700
28.3124,26.0035
28.3407,25.9102
28.3469,25.8938
28.3784,25.8264
28.3798,25.8234
28.4045,25.7772
28.7374,25.7772
29.0742,26.1141
29.4292,25.7591
29.7813,25.7591
30.1363,26.1141
30.4912,25.7591
30.8434,25.7591
31.1983,26.1141
31.5533,25.7591
31.9055,25.7591
32.2604,26.1141
32.6154,25.7591
32.9675,25.7591
33.3225,26.1141
33.6775,25.7591
34.0296,25.7591
34.3846,26.1141
34.7395,25.7591
35.0917,25.7591
35.4466,26.1141
35.8016,25.7591
36.1537,25.7591
36.5087,26.1141
36.8637,25.7591
36.6398,25.5353
36.3776,25.5353
36.1537,25.7591
35.8016,25.7591
35.5778,25.5353
35.3155,25.5353
35.0917,25.7591
34.7395,25.7591
34.5157,25.5353
34.2535,25.5353
34.0296,25.7591
33.6775,25.7591
33.4536,25.5353
33.1914,25.5353
32.9675,25.7591
32.6154,25.7591
32.3915,25.5353
32.1293,25.5353
31.9055,25.7591
31.5533,25.7591
31.3295,25.5353
31.0672,25.5353
30.8434,25.7591
30.4912,25.7591
30.2674,25.5353
30.0052,25.5353
29.7813,25.7591
29.4292,25.7591
29.2122,25.5422
29.1411,25.5492
29.0907,25.5627
29.0118,25.5866
28.9592,25.6111
28.8915,25.6473
28.8424,25.6817
28.7844,25.7293
28.7416,25.7721
28.7374,25.7772
28.4045,25.7772
28.4248,25.7394
28.4287,25.7331
28.4750,25.6669
28.4778,25.6632
28.5371,25.5909
28.5412,25.5864
28.5987,25.5289
28.6031,25.5249
28.6755,25.4655
28.6792,25.4627
28.7453,25.4164
28.7516,25.4125
28.8356,25.3676
28.8386,25.3661
28.9060,25.3347
28.9224,25.3284
29.0157,25.3001
29.0823,25.2823
29.1022,25.2787
29.2287,25.2662
29.2713,25.2625
29.2767,25.2623
36.8024,25.2623
36.8162,25.2663
36.8445,25.2625
36.8445,25.2625
36.8445,25.2624
36.8465,25.2622
36.8496,25.2582
36.8550,25.2487
36.8559,25.2475
36.8938,25.1979
36.9179,25.1518
36.9273,25.1420
36.9373,25.1156
36.9404,25.1088
36.9567,25.0776
37.0052,25.0274
37.0732,25.0113
Z" /> 
<path style="fill:#000000; fill-opacity:1.0000; 
stroke:#000000; stroke-width:0.0000; stroke-opacity:1; 
stroke-linecap:round; stroke-linejoin:round;fill-rule:evenodd;"
d="M 47.2606,36.7563
47.3093,36.8064
47.3236,36.8643
47.3245,43.1201
47.3238,43.2603
47.3235,43.2612
47.3235,43.3090
47.3233,43.3144
47.3196,43.3564
47.3070,43.4837
47.3034,43.5037
47.2859,43.5690
47.2572,43.6636
47.2509,43.6800
47.2199,43.7465
47.2184,43.7495
47.1731,43.8344
47.1692,43.8407
47.1233,43.9062
47.1204,43.9100
47.0606,43.9829
47.0565,43.9874
46.9996,44.0443
46.9951,44.0484
46.9222,44.1082
46.9184,44.1111
46.8529,44.1569
46.8466,44.1608
46.7618,44.2062
46.7587,44.2077
46.6922,44.2387
46.6758,44.2450
46.5812,44.2737
46.5159,44.2912
46.4960,44.2948
46.3660,44.3076
46.3273,44.3110
46.3215,44.3112
46.1323,44.3102
46.1323,44.3102
46.1230,44.3102
46.1223,44.3102
39.7400,44.3111
39.6729,44.2914
39.6272,44.2386
39.6172,44.1695
39.6444,44.1081
39.7025,44.0378
39.7803,43.9439
39.8624,43.8144
40.4020,43.8144
40.6257,44.0380
40.8884,44.0380
41.1120,43.8144
41.4641,43.8144
41.6876,44.0378
41.9506,44.0378
42.1741,43.8144
42.5262,43.8144
42.7495,44.0377
43.0128,44.0377
43.2361,43.8144
43.5883,43.8144
43.8115,44.0376
44.0751,44.0375
44.2982,43.8144
44.6503,43.8144
44.8734,44.0374
45.1373,44.0374
45.3603,43.8144
45.7124,43.8144
45.9353,44.0373
46.1179,44.0372
46.1199,44.0372
46.1331,44.0372
46.1331,44.0372
46.1991,44.0376
46.4224,43.8144
46.7745,43.8144
46.8085,43.8484
46.8139,43.8439
46.8562,43.8017
46.9043,43.7430
46.9383,43.6945
46.9749,43.6260
46.9854,43.6035
46.7745,43.8144
46.4224,43.8144
46.4224,43.8144
46.0674,43.4594
45.7124,43.8144
45.3603,43.8144
45.3603,43.8144
45.0053,43.4594
44.6503,43.8144
44.2982,43.8144
43.9432,43.4594
43.5883,43.8144
43.2361,43.8144
42.8812,43.4594
42.5262,43.8144
42.1741,43.8144
42.1741,43.8144
41.8191,43.4594
41.4641,43.8144
41.1120,43.8144
41.1120,43.8144
40.7570,43.4594
40.4020,43.8144
39.8624,43.8144
39.9489,43.6782
40.0062,43.5564
40.3079,43.5564
40.5809,43.2833
40.9331,43.2833
41.2881,43.6383
41.6430,43.2833
41.9952,43.2833
42.3501,43.6383
42.7051,43.2833
43.0572,43.2833
43.4122,43.6383
43.7672,43.2833
44.1193,43.2833
44.4743,43.6383
44.8292,43.2833
45.1814,43.2833
45.5364,43.6383
45.8913,43.2833
46.2435,43.2833
46.5984,43.6383
46.9534,43.2833
46.5984,42.9284
46.2435,43.2833
45.8913,43.2833
45.5364,42.9284
45.1814,43.2833
44.8292,43.2833
44.4743,42.9284
44.1193,43.2833
43.7672,43.2833
43.4122,42.9284
43.0572,43.2833
42.7051,43.2833
42.3501,42.9284
41.9952,43.2833
41.6430,43.2833
41.2881,42.9284
40.9331,43.2833
40.5809,43.2833
40.4474,43.1498
40.4470,43.1516
40.4460,43.1562
40.4429,43.1682
40.4416,43.1727
40.3405,43.4838
40.3389,43.4882
40.3344,43.4998
40.3325,43.5041
40.3079,43.5564
40.0062,43.5564
40.0828,43.3935
40.1800,43.0943
40.2259,42.8540
40.5038,42.8540
40.7570,43.1073
41.1120,42.7523
41.4641,42.7523
41.8191,43.1073
42.1741,42.7523
42.5262,42.7523
42.8812,43.1073
43.2361,42.7523
43.5883,42.7523
43.9432,43.1073
44.2982,42.7523
44.6503,42.7523
45.0053,43.1073
45.3603,42.7523
45.7124,42.7523
46.0674,43.1073
46.4224,42.7523
46.7745,42.7523
47.0515,43.0293
47.0514,42.4754
46.7745,42.7523
46.4224,42.7523
46.0674,42.3973
45.7124,42.7523
45.3603,42.7523
45.0053,42.3973
44.6503,42.7523
44.2982,42.7523
43.9432,42.3973
43.5883,42.7523
43.2361,42.7523
42.8812,42.3973
42.5262,42.7523
42.1741,42.7523
41.8191,42.3973
41.4641,42.7523
41.1120,42.7523
40.7570,42.3973
40.5222,42.6322
40.5111,42.8086
40.5106,42.8132
40.5091,42.8256
40.5083,42.8303
40.5038,42.8540
40.2259,42.8540
40.2390,42.7852
40.2390,42.7852
40.2588,42.4712
40.2588,42.4712
40.2430,42.2213
40.9331,42.2213
41.2881,42.5762
41.6430,42.2213
41.9952,42.2213
42.3501,42.5762
42.7051,42.2213
43.0572,42.2213
43.4122,42.5762
43.7672,42.2213
44.1193,42.2213
44.4743,42.5762
44.8292,42.2213
45.1814,42.2213
45.5364,42.5762
45.8913,42.2213
46.2435,42.2213
46.5984,42.5762
46.9534,42.2213
46.5984,41.8663
46.2435,42.2213
45.8913,42.2213
45.5364,41.8663
45.1814,42.2213
44.8292,42.2213
44.4743,41.8663
44.1193,42.2213
43.7672,42.2213
43.4122,41.8663
43.0572,42.2213
42.7051,42.2213
42.3501,41.8663
41.9952,42.2213
41.6430,42.2213
41.2881,41.8663
40.9331,42.2213
40.2430,42.2213
40.2390,42.1572
40.2390,42.1572
40.2390,42.1572
40.1800,41.8481
40.1254,41.6798
40.4124,41.6798
40.4224,41.7106
40.7570,42.0452
41.1120,41.6902
41.4641,41.6902
41.8191,42.0452
42.1741,41.6902
42.5262,41.6902
42.8812,42.0452
43.2361,41.6902
43.5883,41.6902
43.9432,42.0452
44.2982,41.6902
44.6503,41.6902
45.0053,42.0452
45.3603,41.6902
45.7124,41.6902
46.0674,42.0452
46.4224,41.6902
46.7745,41.6902
47.0513,41.9671
47.0513,41.4134
46.7745,41.6902
46.4224,41.6902
46.0674,41.3352
45.7124,41.6902
45.3603,41.6902
45.0053,41.3352
44.6503,41.6902
44.2982,41.6902
43.9432,41.3352
43.5883,41.6902
43.2361,41.6902
42.8812,41.3352
42.5262,41.6902
42.1741,41.6902
41.8191,41.3352
41.4641,41.6902
41.1120,41.6902
40.7570,41.3352
40.4124,41.6798
40.1254,41.6798
40.0828,41.5489
40.0644,41.5098
39.9527,41.2724
39.9494,41.2509
40.2443,41.2509
40.3227,41.4174
40.5809,41.1592
40.9331,41.1592
41.2881,41.5141
41.6430,41.1592
41.9952,41.1592
42.3501,41.5141
42.7051,41.1592
43.0572,41.1592
43.4122,41.5141
43.7672,41.1592
44.1193,41.1592
44.4743,41.5141
44.8292,41.1592
45.1814,41.1592
45.5364,41.5141
45.8913,41.1592
46.2435,41.1592
46.5984,41.5141
46.9534,41.1592
46.5984,40.8042
46.2435,41.1592
45.8913,41.1592
45.5364,40.8042
45.1814,41.1592
44.8292,41.1592
44.4743,40.8042
44.1193,41.1592
43.7672,41.1592
43.4122,40.8042
43.0572,41.1592
42.7051,41.1592
42.7051,41.1592
42.3501,40.8042
41.9952,41.1592
41.6430,41.1592
41.2881,40.8042
40.9331,41.1592
40.5809,41.1592
40.5809,41.1592
40.4585,41.0367
40.2443,41.2509
39.9494,41.2509
39.9420,41.2033
39.9703,41.1394
39.9772,41.1319
40.2485,40.8606
40.6345,40.8606
40.7570,40.9831
41.1120,40.6281
41.4641,40.6281
41.8191,40.9831
42.1741,40.6281
42.5262,40.6281
42.8812,40.9831
43.2361,40.6281
43.2361,40.6281
43.5883,40.6281
43.9432,40.9831
44.2982,40.6281
44.6503,40.6281
45.0053,40.9831
45.3603,40.6281
45.7124,40.6281
46.0674,40.9831
46.4224,40.6281
46.4224,40.6281
46.7745,40.6281
47.0512,40.9048
47.0511,40.3515
46.7745,40.6281
46.4224,40.6281
46.0674,40.2732
45.7124,40.6281
45.3603,40.6281
45.0053,40.2732
44.6503,40.6281
44.2982,40.6281
43.9432,40.2732
43.5883,40.6281
43.2361,40.6281
42.8812,40.2732
42.5262,40.6281
42.1741,40.6281
41.8191,40.2732
41.4641,40.6281
41.1120,40.6281
40.9895,40.5057
40.6345,40.8606
40.2485,40.8606
40.7821,40.3270
41.1629,40.3270
41.2881,40.4521
41.6430,40.0971
41.9952,40.0971
42.3501,40.4521
42.7051,40.0971
43.0572,40.0971
43.4122,40.4521
43.7672,40.0971
44.1193,40.0971
44.4743,40.4521
44.8292,40.0971
45.1814,40.0971
45.5364,40.4521
45.8913,40.0971
46.2435,40.0971
46.5984,40.4521
46.9534,40.0971
46.5984,39.7421
46.2435,40.0971
45.8913,40.0971
45.5364,39.7421
45.1814,40.0971
44.8292,40.0971
44.4743,39.7421
44.1193,40.0971
43.7672,40.0971
43.4122,39.7421
43.0572,40.0971
42.7051,40.0971
42.3501,39.7421
41.9952,40.0971
41.6430,40.0971
41.4581,39.9122
41.3312,40.1142
41.3289,40.1176
41.3224,40.1268
41.3199,40.1301
41.1629,40.3270
40.7821,40.3270
40.8728,40.2363
40.8728,40.2363
40.8739,40.2352
40.8744,40.2346
40.9384,40.1707
41.1030,39.9642
41.2436,39.7406
41.2735,39.6784
41.5765,39.6784
41.8191,39.9210
42.1741,39.5661
42.5262,39.5661
42.8812,39.9210
43.2361,39.5661
43.5883,39.5661
43.9432,39.9210
44.2982,39.5661
44.6503,39.5661
45.0053,39.9210
45.3603,39.5661
45.7124,39.5661
46.0674,39.9210
46.4224,39.5661
46.7745,39.5661
47.0510,39.8426
47.0510,39.2896
46.7745,39.5661
46.4224,39.5661
46.0674,39.2111
45.7124,39.5661
45.3603,39.5661
45.0053,39.2111
44.6503,39.5661
44.2982,39.5661
43.9432,39.2111
43.5883,39.5661
43.2361,39.5661
42.8812,39.2111
42.5262,39.5661
42.1741,39.5661
41.8191,39.2111
41.7102,39.3200
41.7093,39.3235
41.7062,39.3342
41.7049,39.3382
41.6140,39.5980
41.6125,39.6019
41.6083,39.6122
41.6066,39.6160
41.5765,39.6784
41.2735,39.6784
41.3582,39.5026
41.4454,39.2533
41.4952,39.0350
41.9952,39.0350
42.3501,39.3900
42.7051,39.0350
43.0572,39.0350
43.4122,39.3900
43.7672,39.0350
44.1193,39.0350
44.4743,39.3900
44.8292,39.0350
45.1814,39.0350
45.5364,39.3900
45.8913,39.0350
46.2435,39.0350
46.5984,39.3900
46.9534,39.0350
46.5984,38.6801
46.2435,39.0350
45.8913,39.0350
45.5364,38.6801
45.1814,39.0350
44.8292,39.0350
44.4743,38.6801
44.1193,39.0350
43.7672,39.0350
43.4122,38.6801
43.0572,39.0350
42.7051,39.0350
42.3501,38.6801
41.9952,39.0350
41.4952,39.0350
41.5042,38.9958
41.5221,38.8367
41.7968,38.8367
41.8191,38.8590
42.1741,38.5040
42.1741,38.5040
42.5262,38.5040
42.8812,38.8590
43.2361,38.5040
43.5883,38.5040
43.9432,38.8590
44.2982,38.5040
44.2982,38.5040
44.6503,38.5040
45.0053,38.8590
45.3603,38.5040
45.3603,38.5040
45.7124,38.5040
46.0674,38.8590
46.4224,38.5040
46.7745,38.5040
47.0509,38.7804
47.0508,38.2277
46.7745,38.5040
46.4224,38.5040
46.0674,38.1490
45.7124,38.5040
45.3603,38.5040
45.0053,38.1490
44.6503,38.5040
44.2982,38.5040
43.9432,38.1490
43.5883,38.5040
43.2361,38.5040
42.8812,38.1490
42.5262,38.5040
42.1741,38.5040
41.9985,38.3284
41.9924,38.3472
41.9913,38.3503
41.9897,38.3545
41.9884,38.3576
41.9813,38.3736
41.9799,38.3765
41.9778,38.3806
41.9763,38.3834
41.8728,38.5626
41.8712,38.5653
41.8687,38.5692
41.8668,38.5718
41.8565,38.5860
41.8545,38.5886
41.8516,38.5922
41.8496,38.5946
41.8068,38.6421
41.8068,38.6948
41.8068,38.6949
41.8068,38.7389
41.8067,38.7431
41.8060,38.7542
41.8057,38.7584
41.7968,38.8367
41.5221,38.8367
41.5327,38.7431
41.5338,38.7333
41.5338,38.7333
41.5338,38.6903
41.5338,38.6902
41.5338,38.5849
41.5535,38.5179
41.5656,38.5020
41.6408,38.4185
41.7355,38.2545
41.7939,38.0745
41.7954,38.0608
42.0830,38.0608
42.3501,38.3279
42.6173,38.0608
43.1450,38.0608
43.4122,38.3279
43.6794,38.0608
43.1450,38.0608
42.6173,38.0608
42.0830,38.0608
41.7954,38.0608
41.7954,38.0602
44.2066,38.0602
44.4743,38.3279
44.8292,37.9730
44.8292,37.9730
45.1814,37.9730
45.5364,38.3279
45.8913,37.9730
46.2435,37.9730
46.5984,38.3279
46.9534,37.9730
46.5984,37.6180
46.2435,37.9730
45.8913,37.9730
45.5829,37.6645
45.3967,37.7640
45.3935,37.7656
45.3847,37.7698
45.3845,37.7699
45.1814,37.9730
44.8292,37.9730
44.8260,37.9698
44.8249,37.9701
44.8154,37.9724
44.8119,37.9732
44.5319,38.0289
44.5283,38.0296
44.5187,38.0310
44.5151,38.0314
44.2310,38.0594
44.2273,38.0597
44.2176,38.0602
44.2139,38.0602
44.2066,38.0602
41.7954,38.0602
41.8124,37.8988
41.8390,37.8342
41.8963,37.7942
41.9357,37.7878
43.9893,37.7878
44.0038,37.7893
44.0039,37.7889
44.0116,37.7897
44.0116,37.7897
44.0116,37.7897
44.0604,37.7881
44.0653,37.7882
44.1045,37.7900
44.1129,37.7887
44.1320,37.7872
44.2091,37.7872
44.2091,37.7872
44.4834,37.7602
44.7538,37.7064
45.0177,37.6264
45.1592,37.5678
45.8383,37.5678
46.0674,37.7969
46.4110,37.4533
46.0981,37.5336
46.0936,37.5346
46.0813,37.5370
46.0767,37.5377
45.8383,37.5678
45.1592,37.5678
45.2724,37.5209
45.4201,37.4419
46.7745,37.4419
47.0508,37.7182
47.0507,37.1657
46.7745,37.4419
45.4201,37.4419
45.5155,37.3909
45.6098,37.3280
45.6765,37.3071
45.6787,37.3071
45.7241,37.3071
45.7241,37.3071
45.7241,37.3071
45.7241,37.3071
45.9104,37.2835
46.0363,37.2676
46.3410,37.1894
46.3410,37.1894
46.6335,37.0736
46.6335,37.0736
46.6335,37.0736
46.6336,37.0736
46.9093,36.9220
47.1268,36.7640
47.1926,36.7405
Z" /> 
<path style="fill:#000000; fill-opacity:1.0000; 
stroke:#000000; stroke-width:0.0000; stroke-opacity:1; 
stroke-linecap:round; stroke-linejoin:round;fill-rule:evenodd;"
d="M 28.4797,36.6903
28.4862,36.6964
28.8634,37.0736
29.0923,37.3025
29.1258,37.3639
29.1208,37.4335
29.1102,37.4553
29.0880,37.4913
29.0880,37.4913
29.0347,37.6523
29.0245,37.7516
29.0245,38.2983
29.0245,38.2984
29.0346,38.3977
29.0347,38.3977
29.0880,38.5587
29.0880,38.5587
29.1770,38.7030
29.1770,38.7030
29.2970,38.8230
29.2970,38.8230
29.4413,38.9120
29.4413,38.9120
29.4413,38.9120
29.6023,38.9653
29.7017,38.9755
30.5483,38.9755
30.5484,38.9755
30.5484,38.9755
30.6028,38.9699
30.6477,38.9653
30.8087,38.9120
30.9530,38.8230
31.0730,38.7030
31.1168,38.6320
31.4253,38.6320
31.5533,38.5040
31.9055,38.5040
32.2604,38.8590
32.6154,38.5040
32.6154,38.5040
32.9675,38.5040
33.3225,38.8590
33.6775,38.5040
34.0296,38.5040
34.3846,38.8590
34.7395,38.5040
35.0917,38.5040
35.4466,38.8590
35.8016,38.5040
36.1537,38.5040
36.5087,38.8590
36.8637,38.5040
37.2158,38.5040
37.5708,38.8590
37.9258,38.5040
38.2779,38.5040
38.6329,38.8590
38.9878,38.5040
39.3400,38.5040
39.6949,38.8590
39.9635,38.5904
39.9620,38.5886
39.9600,38.5860
39.9497,38.5718
39.9479,38.5692
39.9454,38.5653
39.9437,38.5626
39.8403,38.3834
39.8387,38.3806
39.8367,38.3765
39.8353,38.3736
39.8281,38.3576
39.8269,38.3545
39.8252,38.3503
39.8242,38.3472
39.7910,38.2450
39.6949,38.1490
39.3400,38.5040
38.9878,38.5040
38.6329,38.1490
38.2779,38.5040
37.9258,38.5040
37.9258,38.5040
37.5708,38.1490
37.2158,38.5040
36.8637,38.5040
36.8637,38.5040
36.5087,38.1490
36.1537,38.5040
35.8016,38.5040
35.4466,38.1490
35.0917,38.5040
34.7395,38.5040
34.7395,38.5040
34.3846,38.1490
34.0296,38.5040
33.6775,38.5040
33.6775,38.5040
33.3225,38.1490
32.9675,38.5040
32.6154,38.5040
32.2604,38.1490
31.9055,38.5040
31.5533,38.5040
31.4858,38.4364
31.4856,38.4379
31.4848,38.4426
31.4842,38.4459
31.4804,38.4638
31.4796,38.4670
31.4784,38.4716
31.4774,38.4749
31.4253,38.6320
31.1168,38.6320
31.1620,38.5587
31.2153,38.3977
31.2255,38.2983
31.2255,38.0970
31.4985,38.0970
31.7294,38.3279
31.9966,38.0608
32.5243,38.0608
32.7915,38.3279
33.0586,38.0608
33.5864,38.0608
33.8535,38.3279
34.1207,38.0608
34.6484,38.0608
34.9156,38.3279
35.1828,38.0608
35.7105,38.0608
35.9777,38.3279
36.2449,38.0608
36.7726,38.0608
37.0398,38.3279
37.3069,38.0608
37.8347,38.0608
38.1018,38.3279
38.3690,38.0608
38.8967,38.0608
39.1639,38.3279
39.4311,38.0608
38.8967,38.0608
38.3690,38.0608
37.8347,38.0608
37.3069,38.0608
36.7726,38.0608
36.2449,38.0608
35.7105,38.0608
35.1828,38.0608
34.6484,38.0608
34.1207,38.0608
33.5864,38.0608
33.0586,38.0608
32.5243,38.0608
31.9966,38.0608
31.4985,38.0608
31.4985,38.0970
31.2255,38.0970
31.2255,37.9117
31.2452,37.8447
31.2980,37.7990
31.3495,37.7878
39.8808,37.7878
39.9479,37.8074
39.9936,37.8602
40.0041,37.8988
40.0226,38.0745
40.0226,38.0745
40.0811,38.2545
40.0811,38.2545
40.1757,38.4185
40.2090,38.4554
40.2509,38.5020
40.2812,38.5650
40.2828,38.5849
40.2828,38.5988
40.2826,38.6037
40.2700,38.7637
40.2669,38.7829
40.2312,38.9319
40.2252,38.9504
40.1665,39.0919
40.1577,39.1092
40.0777,39.2398
40.0662,39.2556
39.9618,39.3779
39.9584,39.3815
39.9067,39.4332
39.9067,39.4332
39.0896,40.2503
39.0283,40.2838
38.9586,40.2788
38.9422,40.2713
38.8201,40.2042
38.8201,40.2042
38.5275,40.0884
38.5275,40.0884
38.2228,40.0101
38.2228,40.0101
37.9106,39.9707
37.9106,39.9707
37.5960,39.9707
37.5960,39.9707
37.2839,40.0101
37.2838,40.0101
36.9791,40.0884
36.9791,40.0884
36.6866,40.2042
36.6866,40.2042
36.4108,40.3558
36.4108,40.3558
36.1563,40.5407
36.1563,40.5407
35.9269,40.7561
35.9269,40.7561
35.7264,40.9985
35.7264,40.9985
35.5578,41.2642
35.5578,41.2642
35.4238,41.5489
35.4238,41.5489
35.3266,41.8481
35.2676,42.1572
35.2676,42.1572
35.2479,42.4712
35.2479,42.4712
35.2676,42.7852
35.2676,42.7852
35.2958,42.9327
35.3142,43.0293
35.3266,43.0943
35.4238,43.3935
35.4238,43.3935
35.5578,43.6782
35.5578,43.6782
35.7264,43.9439
35.7264,43.9439
35.8623,44.1082
35.8899,44.1724
35.8784,44.2413
35.8314,44.2931
35.7668,44.3113
29.2767,44.3113
29.2713,44.3110
29.2613,44.3101
29.2272,44.3072
29.1026,44.2949
29.0826,44.2913
29.0139,44.2729
28.9228,44.2452
28.9064,44.2390
28.8376,44.2069
28.8346,44.2054
28.7521,44.1613
28.7457,44.1574
28.7064,44.1298
28.6785,44.1103
28.6748,44.1075
28.6036,44.0491
28.5991,44.0450
28.5408,43.9866
28.5367,43.9821
28.4783,43.9110
28.4755,43.9072
28.4284,43.8400
28.4245,43.8337
28.4088,43.8043
28.4045,43.7963
28.7373,43.7963
28.7412,43.8009
28.7848,43.8446
28.8417,43.8913
28.8919,43.9265
28.9582,43.9619
29.0122,43.9871
29.0889,44.0103
29.1414,44.0244
29.2122,44.0314
29.4292,43.8144
29.7813,43.8144
30.0052,44.0383
30.2674,44.0383
30.4912,43.8144
30.8434,43.8144
31.0673,44.0383
31.3294,44.0383
31.5533,43.8144
31.9055,43.8144
32.1293,44.0383
32.3915,44.0383
32.6154,43.8144
32.9675,43.8144
33.1914,44.0383
33.4536,44.0383
33.6775,43.8144
33.6775,43.8144
34.0296,43.8144
34.2535,44.0383
34.5157,44.0383
34.7395,43.8144
35.0917,43.8144
35.3156,44.0383
35.4629,44.0383
35.3239,43.8192
35.3215,43.8152
35.3156,43.8043
35.3134,43.8001
35.2470,43.6590
35.0917,43.8144
34.7395,43.8144
34.3846,43.4594
34.0296,43.8144
33.6775,43.8144
33.3225,43.4594
32.9675,43.8144
32.6154,43.8144
32.2604,43.4594
31.9055,43.8144
31.5533,43.8144
31.1983,43.4594
30.8434,43.8144
30.4912,43.8144
30.1363,43.4594
29.7813,43.8144
29.4292,43.8144
29.4292,43.8144
29.0742,43.4594
28.7373,43.7963
28.4045,43.7963
28.3804,43.7511
28.3789,43.7481
28.3468,43.6793
28.3405,43.6629
28.3129,43.5718
28.2945,43.5031
28.2909,43.4832
28.2790,43.3627
28.2765,43.3335
28.2747,43.3138
28.2745,43.3084
28.2745,42.9327
28.5475,42.9327
28.5475,43.2991
28.5508,43.3374
28.5614,43.4443
28.5755,43.4969
28.5987,43.5736
28.6016,43.5798
28.8981,43.2833
29.2503,43.2833
29.6052,43.6383
29.9602,43.2833
30.3123,43.2833
30.6673,43.6383
31.0223,43.2833
31.3744,43.2833
31.7294,43.6383
32.0844,43.2833
32.4365,43.2833
32.7915,43.6383
33.1464,43.2833
33.4986,43.2833
33.8535,43.6383
34.2085,43.2833
34.5606,43.2833
34.9156,43.6383
35.1426,43.4113
35.0650,43.1727
35.0637,43.1682
35.0606,43.1562
35.0596,43.1516
35.0409,43.0537
34.9156,42.9284
34.5606,43.2833
34.2085,43.2833
33.8535,42.9284
33.4986,43.2833
33.1464,43.2833
32.7915,42.9284
32.4365,43.2833
32.0844,43.2833
31.7294,42.9284
31.3744,43.2833
31.0223,43.2833
30.6673,42.9284
30.3123,43.2833
29.9602,43.2833
29.6052,42.9284
29.2503,43.2833
28.8981,43.2833
28.8981,43.2833
28.5475,42.9327
28.2745,42.9327
28.2745,42.7523
28.7192,42.7523
29.0742,43.1073
29.4292,42.7523
29.7813,42.7523
30.1363,43.1073
30.4912,42.7523
30.8434,42.7523
31.1983,43.1073
31.5533,42.7523
31.9055,42.7523
32.2604,43.1073
32.6154,42.7523
32.9675,42.7523
33.3225,43.1073
33.6775,42.7523
34.0296,42.7523
34.3846,43.1073
34.7395,42.7523
34.3846,42.3973
34.0296,42.7523
33.6775,42.7523
33.3225,42.3973
32.9675,42.7523
32.6154,42.7523
32.2604,42.3973
31.9055,42.7523
31.5533,42.7523
31.1983,42.3973
30.8434,42.7523
30.4912,42.7523
30.1363,42.3973
29.7813,42.7523
29.4292,42.7523
29.0742,42.3973
28.7192,42.7523
28.2745,42.7523
28.2745,41.8706
28.5475,41.8706
28.5475,42.5719
28.8981,42.2213
29.2503,42.2213
29.6052,42.5762
29.9602,42.2213
30.3123,42.2213
30.6673,42.5762
31.0223,42.2213
31.3744,42.2213
31.7294,42.5762
32.0844,42.2213
32.4365,42.2213
32.7915,42.5762
33.1464,42.2213
33.4986,42.2213
33.8535,42.5762
34.2085,42.2213
34.5606,42.2213
34.9156,42.5762
34.9771,42.5148
34.9750,42.4821
34.9749,42.4775
34.9749,42.4649
34.9750,42.4603
34.9956,42.1338
34.9960,42.1292
34.9976,42.1168
34.9983,42.1122
35.0244,41.9751
34.9156,41.8663
34.5606,42.2213
34.2085,42.2213
33.8535,41.8663
33.4986,42.2213
33.1464,42.2213
32.7915,41.8663
32.4365,42.2213
32.0844,42.2213
31.7294,41.8663
31.3744,42.2213
31.0223,42.2213
30.6673,41.8663
30.3123,42.2213
29.9602,42.2213
29.6052,41.8663
29.2503,42.2213
28.8981,42.2213
28.8981,42.2213
28.5475,41.8706
28.2745,41.8706
28.2745,41.6902
28.7192,41.6902
29.0742,42.0452
29.4292,41.6902
29.7813,41.6902
30.1363,42.0452
30.4912,41.6902
30.8434,41.6902
31.1983,42.0452
31.5533,41.6902
31.9055,41.6902
32.2604,42.0452
32.6154,41.6902
32.9675,41.6902
33.3225,42.0452
33.6775,41.6902
34.0296,41.6902
34.3846,42.0452
34.7395,41.6902
34.3846,41.3352
34.0296,41.6902
33.6775,41.6902
33.3225,41.3352
32.9675,41.6902
32.6154,41.6902
32.2604,41.3352
31.9055,41.6902
31.5533,41.6902
31.1983,41.3352
30.8434,41.6902
30.4912,41.6902
30.1363,41.3352
29.7813,41.6902
29.4292,41.6902
29.0742,41.3352
28.7192,41.6902
28.2745,41.6902
28.2745,40.8085
28.5475,40.8085
28.5475,41.5098
28.8981,41.1592
29.2503,41.1592
29.6052,41.5141
29.9602,41.1592
30.3123,41.1592
30.6673,41.5141
31.0223,41.1592
31.3744,41.1592
31.7294,41.5141
32.0844,41.1592
32.4365,41.1592
32.7915,41.5141
33.1464,41.1592
33.4986,41.1592
33.8535,41.5141
34.2085,41.1592
34.5606,41.1592
34.9156,41.5141
35.2706,41.1592
34.9156,40.8042
34.5606,41.1592
34.2085,41.1592
33.8535,40.8042
33.4986,41.1592
33.1464,41.1592
32.7915,40.8042
32.4365,41.1592
32.0844,41.1592
31.7294,40.8042
31.3744,41.1592
31.0223,41.1592
30.6673,40.8042
30.3123,41.1592
29.9602,41.1592
29.6052,40.8042
29.2503,41.1592
28.8981,41.1592
28.5475,40.8085
28.2745,40.8085
28.2745,40.6281
28.7192,40.6281
29.0742,40.9831
29.4292,40.6281
29.7813,40.6281
30.1363,40.9831
30.4912,40.6281
30.4912,40.6281
30.8434,40.6281
31.1983,40.9831
31.5533,40.6281
31.9055,40.6281
32.2604,40.9831
32.6154,40.6281
32.9675,40.6281
33.3225,40.9831
33.6775,40.6281
33.6775,40.6281
34.0296,40.6281
34.3846,40.9831
34.7395,40.6281
34.7395,40.6281
35.0917,40.6281
35.4260,40.9624
35.4992,40.8470
35.5018,40.8431
35.5092,40.8330
35.5120,40.8293
35.7205,40.5773
35.7236,40.5738
35.7322,40.5647
35.7352,40.5617
35.4466,40.2732
35.0917,40.6281
34.7395,40.6281
34.3846,40.2732
34.0296,40.6281
33.6775,40.6281
33.3225,40.2732
32.9675,40.6281
32.6154,40.6281
32.6154,40.6281
32.2604,40.2732
31.9055,40.6281
31.5533,40.6281
31.1983,40.2732
30.8434,40.6281
30.4912,40.6281
30.1363,40.2732
29.7813,40.6281
29.4292,40.6281
29.0742,40.2732
28.7192,40.6281
28.2745,40.6281
28.2745,39.7465
28.5475,39.7465
28.5475,40.4477
28.8981,40.0971
29.2503,40.0971
29.6052,40.4521
29.9602,40.0971
30.3123,40.0971
30.6673,40.4521
31.0223,40.0971
31.3744,40.0971
31.7294,40.4521
32.0844,40.0971
32.4365,40.0971
32.7915,40.4521
33.1464,40.0971
33.4986,40.0971
33.8535,40.4521
34.2085,40.0971
34.5606,40.0971
34.9156,40.4521
35.2706,40.0971
35.6227,40.0971
35.9168,40.3912
35.9740,40.3374
35.9775,40.3343
35.9871,40.3264
35.9908,40.3235
36.2554,40.1313
36.2593,40.1286
36.2698,40.1220
36.2738,40.1196
36.3263,40.0907
35.9777,39.7421
35.6227,40.0971
35.2706,40.0971
34.9156,39.7421
34.5606,40.0971
34.2085,40.0971
33.8535,39.7421
33.4986,40.0971
33.1464,40.0971
32.7915,39.7421
32.4365,40.0971
32.0844,40.0971
31.7294,39.7421
31.3744,40.0971
31.0223,40.0971
30.6673,39.7421
30.3123,40.0971
29.9602,40.0971
29.6052,39.7421
29.2503,40.0971
28.8981,40.0971
28.5475,39.7465
28.2745,39.7465
28.2745,39.5661
28.7192,39.5661
29.0742,39.9210
29.4292,39.5661
29.4292,39.5661
29.7813,39.5661
30.1363,39.9210
30.4912,39.5661
30.8434,39.5661
31.1983,39.9210
31.5533,39.5661
31.9055,39.5661
32.2604,39.9210
32.6154,39.5661
32.9675,39.5661
33.3225,39.9210
33.6775,39.5661
34.0296,39.5661
34.3846,39.9210
34.7395,39.5661
35.0917,39.5661
35.4466,39.9210
35.8016,39.5661
36.1537,39.5661
36.5087,39.9210
36.8637,39.5661
37.2158,39.5661
37.3734,39.7236
37.5680,39.6991
37.5726,39.6986
37.5851,39.6978
37.5897,39.6977
37.7941,39.6977
37.9258,39.5661
38.2779,39.5661
38.5152,39.8034
38.6015,39.8255
38.6060,39.8268
38.6178,39.8307
38.6222,39.8322
38.6935,39.8605
38.9878,39.5661
39.3400,39.5661
39.3639,39.5900
39.7128,39.2411
39.7128,39.2411
39.7188,39.2350
39.6949,39.2111
39.3400,39.5661
38.9878,39.5661
38.6329,39.2111
38.2779,39.5661
37.9258,39.5661
37.5708,39.2111
37.2158,39.5661
36.8637,39.5661
36.5087,39.2111
36.1537,39.5661
35.8016,39.5661
35.4466,39.2111
35.0917,39.5661
34.7395,39.5661
34.3846,39.2111
34.0296,39.5661
33.6775,39.5661
33.3225,39.2111
32.9675,39.5661
32.6154,39.5661
32.2604,39.2111
31.9055,39.5661
31.5533,39.5661
31.1983,39.2111
30.8434,39.5661
30.4912,39.5661
30.1737,39.2485
30.5258,39.2485
30.6673,39.3900
30.8820,39.1753
30.7249,39.2274
30.7217,39.2283
30.7171,39.2296
30.7138,39.2304
30.6959,39.2342
30.6926,39.2348
30.6879,39.2356
30.6845,39.2360
30.5710,39.2476
30.5672,39.2479
30.5572,39.2484
30.5534,39.2485
30.5258,39.2485
30.1737,39.2485
30.0989,39.2485
29.7813,39.5661
29.4292,39.5661
29.0742,39.2111
28.7192,39.5661
28.2745,39.5661
28.2745,38.6844
28.5475,38.6844
28.5475,39.3857
28.7467,39.1865
29.4017,39.1865
29.6052,39.3900
29.7467,39.2485
29.6966,39.2485
29.6928,39.2484
29.6828,39.2479
29.6790,39.2476
29.5655,39.2360
29.5621,39.2356
29.5574,39.2348
29.5541,39.2342
29.5362,39.2304
29.5330,39.2296
29.5284,39.2284
29.5251,39.2274
29.4017,39.1865
28.7467,39.1865
28.8981,39.0350
31.3744,39.0350
31.7294,39.3900
32.0844,39.0350
32.4365,39.0350
32.7915,39.3900
33.1464,39.0350
33.4986,39.0350
33.8535,39.3900
34.2085,39.0350
34.5606,39.0350
34.9156,39.3900
35.2706,39.0350
35.6227,39.0350
35.9777,39.3900
36.3327,39.0350
36.6848,39.0350
37.0398,39.3900
37.3947,39.0350
37.7469,39.0350
38.1018,39.3900
38.4568,39.0350
38.8089,39.0350
39.1639,39.3900
39.5189,39.0350
39.1639,38.6801
38.8089,39.0350
38.4568,39.0350
38.1018,38.6801
37.7469,39.0350
37.3947,39.0350
37.0398,38.6801
36.6848,39.0350
36.3327,39.0350
35.9777,38.6801
35.6227,39.0350
35.2706,39.0350
34.9156,38.6801
34.5606,39.0350
34.2085,39.0350
33.8535,38.6801
33.4986,39.0350
33.1464,39.0350
32.7915,38.6801
32.4365,39.0350
32.0844,39.0350
31.7294,38.6801
31.3744,39.0350
28.8981,39.0350
28.8981,39.0350
28.5475,38.6844
28.2745,38.6844
28.2745,38.5040
28.7192,38.5040
28.8135,38.5983
28.7726,38.4749
28.7717,38.4717
28.7704,38.4671
28.7696,38.4638
28.7678,38.4554
28.7192,38.5040
28.2745,38.5040
28.2745,37.6223
28.5475,37.6223
28.5475,38.3236
28.7515,38.1196
28.7515,37.8263
28.5475,37.6223
28.2745,37.6223
28.2745,36.7840
28.2942,36.7170
28.3470,36.6712
28.4161,36.6613
Z" /> 
</g>
</g>
</g> 
</svg>
