<?xml version="1.0" standalone="no"?>
 <!DOCTYPE svg PUBLIC "-//W3C//DTD SVG 1.1//EN" 
 "http://www.w3.org/Graphics/SVG/1.1/DTD/svg11.dtd"> 
<svg
  xmlns:svg="http://www.w3.org/2000/svg"
  xmlns="http://www.w3.org/2000/svg"
  xmlns:xlink="http://www.w3.org/1999/xlink"
  version="1.1"
  width="297.0022mm" height="210.0072mm" viewBox="0.0000 0.0000 297.0022 210.0072">
<title>SVG Image created as jigsaw-B_Paste.svg date 2023/09/11 22:47:49 </title>
  <desc>Image generated by PCBNEW </desc>
<g style="fill:#000000; fill-opacity:1.0000;stroke:#000000; stroke-opacity:1.0000;
stroke-linecap:round; stroke-linejoin:round;"
 transform="translate(0 0) scale(1 1)">
</g>
<g style="fill:#000000; fill-opacity:0.0; 
stroke:#000000; stroke-width:0.0000; stroke-opacity:1; 
stroke-linecap:round; stroke-linejoin:round;">
<g >
</g>
<g style="fill:#000000; fill-opacity:0.0; 
stroke:#000000; stroke-width:0.0000; stroke-opacity:1; 
stroke-linecap:round; stroke-linejoin:round;">
</g>
<g style="fill:#000000; fill-opacity:1.0000; 
stroke:#000000; stroke-width:0.0000; stroke-opacity:1; 
stroke-linecap:round; stroke-linejoin:round;">
<path style="fill:#000000; fill-opacity:1.0000; 
stroke:#000000; stroke-width:0.0000; stroke-opacity:1; 
stroke-linecap:round; stroke-linejoin:round;fill-rule:evenodd;"
d="M 29.4480,31.2400
29.4670,31.1443
29.5212,31.0632
29.6023,31.0090
29.6980,30.9900
31.7480,30.9900
31.8437,31.0090
31.9248,31.0632
31.9790,31.1443
31.9980,31.2400
31.9980,33.2400
31.9790,33.3357
31.9248,33.4168
31.8437,33.4710
31.7480,33.4900
29.6980,33.4900
29.6023,33.4710
29.5212,33.4168
29.4670,33.3357
29.4480,33.2400
Z" /> 
<path style="fill:#000000; fill-opacity:1.0000; 
stroke:#000000; stroke-width:0.0000; stroke-opacity:1; 
stroke-linecap:round; stroke-linejoin:round;fill-rule:evenodd;"
d="M 42.3750,28.7000
42.3940,28.6043
42.4482,28.5232
42.5293,28.4690
42.6250,28.4500
44.6750,28.4500
44.7707,28.4690
44.8518,28.5232
44.9060,28.6043
44.9250,28.7000
44.9250,30.7000
44.9060,30.7957
44.8518,30.8768
44.7707,30.9310
44.6750,30.9500
42.6250,30.9500
42.5293,30.9310
42.4482,30.8768
42.3940,30.7957
42.3750,30.7000
Z" /> 
</g>
<g >
</g>
<g >
</g>
<g >
</g>
<g >
</g>
<g >
</g>
<g style="fill:#000000; fill-opacity:1.0000; 
stroke:#000000; stroke-width:0.0000; stroke-opacity:1; 
stroke-linecap:round; stroke-linejoin:round;">
<path style="fill:#000000; fill-opacity:1.0000; 
stroke:#000000; stroke-width:0.0000; stroke-opacity:1; 
stroke-linecap:round; stroke-linejoin:round;fill-rule:evenodd;"
d="M 29.7500,38.4750
29.6639,38.4579
29.5909,38.4091
29.5421,38.3361
29.5250,38.2500
29.5250,37.8000
29.5421,37.7139
29.5909,37.6409
29.6639,37.5921
29.7500,37.5750
30.5000,37.5750
30.5861,37.5921
30.6591,37.6409
30.7079,37.7139
30.7250,37.8000
30.7250,38.2500
30.7079,38.3361
30.6591,38.4091
30.5861,38.4579
30.5000,38.4750
Z" /> 
<path style="fill:#000000; fill-opacity:1.0000; 
stroke:#000000; stroke-width:0.0000; stroke-opacity:1; 
stroke-linecap:round; stroke-linejoin:round;fill-rule:evenodd;"
d="M 29.7500,35.1750
29.6639,35.1579
29.5909,35.1091
29.5421,35.0361
29.5250,34.9500
29.5250,34.5000
29.5421,34.4139
29.5909,34.3409
29.6639,34.2921
29.7500,34.2750
30.5000,34.2750
30.5861,34.2921
30.6591,34.3409
30.7079,34.4139
30.7250,34.5000
30.7250,34.9500
30.7079,35.0361
30.6591,35.1091
30.5861,35.1579
30.5000,35.1750
Z" /> 
</g>
<g >
</g>
<g >
</g>
<g >
</g>
</g> 
</svg>
