  0
SECTION
  2
HEADER
  9
$ANGBASE
  50
0.0
  9
$ANGDIR
  70
1
  9
$MEASUREMENT
  70
0
  0
ENDSEC
  0
SECTION
  2
TABLES
  0
TABLE
  2
LTYPE
  70
4
  0
LTYPE
  5
40F
  2
CONTINUOUS
  70
0
  3
Solid line
  72
65
  73
0
  40
0.0
  0
LTYPE
  5
410
  2
DASHDOT
 70
0
  3
Dash Dot ____ _ ____ _
 72
65
 73
4
 40
2.0
 49
1.25
 49
-0.25
 49
0.25
 49
-0.25
  0
LTYPE
  5
411
  2
DASHED
 70
0
  3
Dashed __ __ __ __ __
 72
65
 73
2
 40
0.75
 49
0.5
 49
-0.25
  0
LTYPE
  5
43B
  2
DOTTED
 70
0
  3
Dotted .  .  .  .
 72
65
 73
2
 40
0.2
 49
0.0
 49
-0.2
  0
ENDTAB
  0
TABLE
  2
STYLE
  70
4
  0
STYLE
  2
KICAD
  70
0
  40
0
  41
1
  42
1
  50
0
  71
0
  3
isocp.shx
  0
STYLE
  2
KICADB
  70
0
  40
0
  41
1
  42
1
  50
0
  71
0
  3
isocp.shx
  0
STYLE
  2
KICADI
  70
0
  40
0
  41
1
  42
1
  50
15
  71
0
  3
isocp.shx
  0
STYLE
  2
KICADBI
  70
0
  40
0
  41
1
  42
1
  50
15
  71
0
  3
isocp.shx
  0
ENDTAB
  0
TABLE
  2
LAYER
  70
1
  0
LAYER
  2
BLACK
  70
0
  62
7
  6
CONTINUOUS
  0
ENDTAB
  0
ENDSEC
  0
SECTION
  2
ENTITIES
0
LINE
8
BLACK
6
CONTINUOUS
10
6.00563
20
-0.568031
11
6.01281
21
-0.56866
0
LINE
8
BLACK
6
CONTINUOUS
10
6.01281
20
-0.56866
11
6.01977
21
-0.570525
0
LINE
8
BLACK
6
CONTINUOUS
10
6.01977
20
-0.570525
11
6.0263
21
-0.57357
0
LINE
8
BLACK
6
CONTINUOUS
10
6.0263
20
-0.57357
11
6.0322
21
-0.577703
0
LINE
8
BLACK
6
CONTINUOUS
10
6.0322
20
-0.577703
11
6.0373
21
-0.582798
0
LINE
8
BLACK
6
CONTINUOUS
10
6.0373
20
-0.582798
11
6.04143
21
-0.588701
0
LINE
8
BLACK
6
CONTINUOUS
10
6.04143
20
-0.588701
11
6.04448
21
-0.595231
0
LINE
8
BLACK
6
CONTINUOUS
10
6.04448
20
-0.595231
11
6.04634
21
-0.602192
0
LINE
8
BLACK
6
CONTINUOUS
10
6.04634
20
-0.602192
11
6.04697
21
-0.60937
0
LINE
8
BLACK
6
CONTINUOUS
10
6.04697
20
-0.60937
11
6.04697
21
-0.60937
0
LINE
8
BLACK
6
CONTINUOUS
10
6.04697
20
-0.60937
11
6.04697
21
-0.82563
0
LINE
8
BLACK
6
CONTINUOUS
10
6.04697
20
-0.82563
11
6.04697
21
-0.828902
0
LINE
8
BLACK
6
CONTINUOUS
10
6.04697
20
-0.828902
11
6.0481
21
-0.835347
0
LINE
8
BLACK
6
CONTINUOUS
10
6.0481
20
-0.835347
11
6.05034
21
-0.841497
0
LINE
8
BLACK
6
CONTINUOUS
10
6.05034
20
-0.841497
11
6.05362
21
-0.847165
0
LINE
8
BLACK
6
CONTINUOUS
10
6.05362
20
-0.847165
11
6.05782
21
-0.852178
0
LINE
8
BLACK
6
CONTINUOUS
10
6.05782
20
-0.852178
11
6.06284
21
-0.856385
0
LINE
8
BLACK
6
CONTINUOUS
10
6.06284
20
-0.856385
11
6.0685
21
-0.859657
0
LINE
8
BLACK
6
CONTINUOUS
10
6.0685
20
-0.859657
11
6.07465
21
-0.861895
0
LINE
8
BLACK
6
CONTINUOUS
10
6.07465
20
-0.861895
11
6.0811
21
-0.863031
0
LINE
8
BLACK
6
CONTINUOUS
10
6.0811
20
-0.863031
11
6.08437
21
-0.863031
0
LINE
8
BLACK
6
CONTINUOUS
10
6.08437
20
-0.863031
11
10.6075
21
-0.863031
0
LINE
8
BLACK
6
CONTINUOUS
10
10.6075
20
-0.863031
11
10.6181
21
-0.863722
0
LINE
8
BLACK
6
CONTINUOUS
10
10.6181
20
-0.863722
11
10.6284
21
-0.865782
0
LINE
8
BLACK
6
CONTINUOUS
10
10.6284
20
-0.865782
11
10.6384
21
-0.869175
0
LINE
8
BLACK
6
CONTINUOUS
10
10.6384
20
-0.869175
11
10.6479
21
-0.873844
0
LINE
8
BLACK
6
CONTINUOUS
10
10.6479
20
-0.873844
11
10.6567
21
-0.87971
0
LINE
8
BLACK
6
CONTINUOUS
10
10.6567
20
-0.87971
11
10.6646
21
-0.886671
0
LINE
8
BLACK
6
CONTINUOUS
10
10.6646
20
-0.886671
11
10.6716
21
-0.894608
0
LINE
8
BLACK
6
CONTINUOUS
10
10.6716
20
-0.894608
11
10.6774
21
-0.903386
0
LINE
8
BLACK
6
CONTINUOUS
10
10.6774
20
-0.903386
11
10.6821
21
-0.912854
0
LINE
8
BLACK
6
CONTINUOUS
10
10.6821
20
-0.912854
11
10.6855
21
-0.922851
0
LINE
8
BLACK
6
CONTINUOUS
10
10.6855
20
-0.922851
11
10.6875
21
-0.933206
0
LINE
8
BLACK
6
CONTINUOUS
10
10.6875
20
-0.933206
11
10.6882
21
-0.94374
0
LINE
8
BLACK
6
CONTINUOUS
10
10.6882
20
-0.94374
11
10.6882
21
-0.943741
0
LINE
8
BLACK
6
CONTINUOUS
10
10.6882
20
-0.943741
11
10.6882
21
-0.943741
0
LINE
8
BLACK
6
CONTINUOUS
10
10.6882
20
-0.943741
11
10.6866
21
-3.53126
0
LINE
8
BLACK
6
CONTINUOUS
10
10.6866
20
-3.53126
11
10.6866
21
-3.53126
0
LINE
8
BLACK
6
CONTINUOUS
10
10.6866
20
-3.53126
11
10.6859
21
-3.54179
0
LINE
8
BLACK
6
CONTINUOUS
10
10.6859
20
-3.54179
11
10.6839
21
-3.55215
0
LINE
8
BLACK
6
CONTINUOUS
10
10.6839
20
-3.55215
11
10.6805
21
-3.56215
0
LINE
8
BLACK
6
CONTINUOUS
10
10.6805
20
-3.56215
11
10.6758
21
-3.57161
0
LINE
8
BLACK
6
CONTINUOUS
10
10.6758
20
-3.57161
11
10.6699
21
-3.58039
0
LINE
8
BLACK
6
CONTINUOUS
10
10.6699
20
-3.58039
11
10.663
21
-3.58833
0
LINE
8
BLACK
6
CONTINUOUS
10
10.663
20
-3.58833
11
10.655
21
-3.59529
0
LINE
8
BLACK
6
CONTINUOUS
10
10.655
20
-3.59529
11
10.6463
21
-3.60116
0
LINE
8
BLACK
6
CONTINUOUS
10
10.6463
20
-3.60116
11
10.6368
21
-3.60583
0
LINE
8
BLACK
6
CONTINUOUS
10
10.6368
20
-3.60583
11
10.6268
21
-3.60922
0
LINE
8
BLACK
6
CONTINUOUS
10
10.6268
20
-3.60922
11
10.6164
21
-3.61128
0
LINE
8
BLACK
6
CONTINUOUS
10
10.6164
20
-3.61128
11
10.6059
21
-3.61197
0
LINE
8
BLACK
6
CONTINUOUS
10
10.6059
20
-3.61197
11
10.6059
21
-3.61197
0
LINE
8
BLACK
6
CONTINUOUS
10
10.6059
20
-3.61197
11
10.6059
21
-3.61197
0
LINE
8
BLACK
6
CONTINUOUS
10
10.6059
20
-3.61197
11
10.6059
21
-3.61197
0
LINE
8
BLACK
6
CONTINUOUS
10
10.6059
20
-3.61197
11
8.98514
21
-3.61197
0
LINE
8
BLACK
6
CONTINUOUS
10
8.98514
20
-3.61197
11
6.27493
21
-4.01218
0
LINE
8
BLACK
6
CONTINUOUS
10
6.27493
20
-4.01218
11
6.27478
21
-4.01215
0
LINE
8
BLACK
6
CONTINUOUS
10
6.27478
20
-4.01215
11
6.27464
21
-4.0122
0
LINE
8
BLACK
6
CONTINUOUS
10
6.27464
20
-4.0122
11
5.79964
21
-4.0122
0
LINE
8
BLACK
6
CONTINUOUS
10
5.79964
20
-4.0122
11
5.79951
21
-4.01215
0
LINE
8
BLACK
6
CONTINUOUS
10
5.79951
20
-4.01215
11
5.79938
21
-4.01219
0
LINE
8
BLACK
6
CONTINUOUS
10
5.79938
20
-4.01219
11
2.74987
21
-3.6122
0
LINE
8
BLACK
6
CONTINUOUS
10
2.74987
20
-3.6122
11
1.08838
21
-3.6122
0
LINE
8
BLACK
6
CONTINUOUS
10
1.08838
20
-3.6122
11
1.08838
21
-3.6122
0
LINE
8
BLACK
6
CONTINUOUS
10
1.08838
20
-3.6122
11
1.08838
21
-3.6122
0
LINE
8
BLACK
6
CONTINUOUS
10
1.08838
20
-3.6122
11
1.07784
21
-3.61151
0
LINE
8
BLACK
6
CONTINUOUS
10
1.07784
20
-3.61151
11
1.06749
21
-3.60945
0
LINE
8
BLACK
6
CONTINUOUS
10
1.06749
20
-3.60945
11
1.05749
21
-3.60606
0
LINE
8
BLACK
6
CONTINUOUS
10
1.05749
20
-3.60606
11
1.04802
21
-3.60139
0
LINE
8
BLACK
6
CONTINUOUS
10
1.04802
20
-3.60139
11
1.03925
21
-3.59553
0
LINE
8
BLACK
6
CONTINUOUS
10
1.03925
20
-3.59553
11
1.03131
21
-3.58857
0
LINE
8
BLACK
6
CONTINUOUS
10
1.03131
20
-3.58857
11
1.02435
21
-3.58063
0
LINE
8
BLACK
6
CONTINUOUS
10
1.02435
20
-3.58063
11
1.01848
21
-3.57185
0
LINE
8
BLACK
6
CONTINUOUS
10
1.01848
20
-3.57185
11
1.01381
21
-3.56238
0
LINE
8
BLACK
6
CONTINUOUS
10
1.01381
20
-3.56238
11
1.01042
21
-3.55239
0
LINE
8
BLACK
6
CONTINUOUS
10
1.01042
20
-3.55239
11
1.00836
21
-3.54203
0
LINE
8
BLACK
6
CONTINUOUS
10
1.00836
20
-3.54203
11
1.00767
21
-3.5315
0
LINE
8
BLACK
6
CONTINUOUS
10
1.00767
20
-3.5315
11
1.00767
21
-3.5315
0
LINE
8
BLACK
6
CONTINUOUS
10
1.00767
20
-3.5315
11
1.00767
21
-3.5315
0
LINE
8
BLACK
6
CONTINUOUS
10
1.00767
20
-3.5315
11
1.00767
21
-3.53149
0
LINE
8
BLACK
6
CONTINUOUS
10
1.00767
20
-3.53149
11
1.00929
21
-0.943739
0
LINE
8
BLACK
6
CONTINUOUS
10
1.00929
20
-0.943739
11
1.00929
21
-0.943739
0
LINE
8
BLACK
6
CONTINUOUS
10
1.00929
20
-0.943739
11
1.00998
21
-0.933206
0
LINE
8
BLACK
6
CONTINUOUS
10
1.00998
20
-0.933206
11
1.01204
21
-0.922851
0
LINE
8
BLACK
6
CONTINUOUS
10
1.01204
20
-0.922851
11
1.01543
21
-0.912854
0
LINE
8
BLACK
6
CONTINUOUS
10
1.01543
20
-0.912854
11
1.0201
21
-0.903386
0
LINE
8
BLACK
6
CONTINUOUS
10
1.0201
20
-0.903386
11
1.02597
21
-0.894608
0
LINE
8
BLACK
6
CONTINUOUS
10
1.02597
20
-0.894608
11
1.03293
21
-0.886671
0
LINE
8
BLACK
6
CONTINUOUS
10
1.03293
20
-0.886671
11
1.04087
21
-0.87971
0
LINE
8
BLACK
6
CONTINUOUS
10
1.04087
20
-0.87971
11
1.04965
21
-0.873844
0
LINE
8
BLACK
6
CONTINUOUS
10
1.04965
20
-0.873844
11
1.05911
21
-0.869175
0
LINE
8
BLACK
6
CONTINUOUS
10
1.05911
20
-0.869175
11
1.06911
21
-0.865782
0
LINE
8
BLACK
6
CONTINUOUS
10
1.06911
20
-0.865782
11
1.07947
21
-0.863722
0
LINE
8
BLACK
6
CONTINUOUS
10
1.07947
20
-0.863722
11
1.09
21
-0.863031
0
LINE
8
BLACK
6
CONTINUOUS
10
1.09
20
-0.863031
11
5.62563
21
-0.863031
0
LINE
8
BLACK
6
CONTINUOUS
10
5.62563
20
-0.863031
11
5.6289
21
-0.863031
0
LINE
8
BLACK
6
CONTINUOUS
10
5.6289
20
-0.863031
11
5.63535
21
-0.861895
0
LINE
8
BLACK
6
CONTINUOUS
10
5.63535
20
-0.861895
11
5.6415
21
-0.859657
0
LINE
8
BLACK
6
CONTINUOUS
10
5.6415
20
-0.859657
11
5.64716
21
-0.856385
0
LINE
8
BLACK
6
CONTINUOUS
10
5.64716
20
-0.856385
11
5.65218
21
-0.852178
0
LINE
8
BLACK
6
CONTINUOUS
10
5.65218
20
-0.852178
11
5.65638
21
-0.847165
0
LINE
8
BLACK
6
CONTINUOUS
10
5.65638
20
-0.847165
11
5.65966
21
-0.841497
0
LINE
8
BLACK
6
CONTINUOUS
10
5.65966
20
-0.841497
11
5.6619
21
-0.835347
0
LINE
8
BLACK
6
CONTINUOUS
10
5.6619
20
-0.835347
11
5.66303
21
-0.828902
0
LINE
8
BLACK
6
CONTINUOUS
10
5.66303
20
-0.828902
11
5.66303
21
-0.82563
0
LINE
8
BLACK
6
CONTINUOUS
10
5.66303
20
-0.82563
11
5.66303
21
-0.60937
0
LINE
8
BLACK
6
CONTINUOUS
10
5.66303
20
-0.60937
11
5.66303
21
-0.60937
0
LINE
8
BLACK
6
CONTINUOUS
10
5.66303
20
-0.60937
11
5.66366
21
-0.602192
0
LINE
8
BLACK
6
CONTINUOUS
10
5.66366
20
-0.602192
11
5.66552
21
-0.595231
0
LINE
8
BLACK
6
CONTINUOUS
10
5.66552
20
-0.595231
11
5.66857
21
-0.588701
0
LINE
8
BLACK
6
CONTINUOUS
10
5.66857
20
-0.588701
11
5.6727
21
-0.582798
0
LINE
8
BLACK
6
CONTINUOUS
10
5.6727
20
-0.582798
11
5.6778
21
-0.577703
0
LINE
8
BLACK
6
CONTINUOUS
10
5.6778
20
-0.577703
11
5.6837
21
-0.57357
0
LINE
8
BLACK
6
CONTINUOUS
10
5.6837
20
-0.57357
11
5.69023
21
-0.570525
0
LINE
8
BLACK
6
CONTINUOUS
10
5.69023
20
-0.570525
11
5.69719
21
-0.56866
0
LINE
8
BLACK
6
CONTINUOUS
10
5.69719
20
-0.56866
11
5.70437
21
-0.568031
0
LINE
8
BLACK
6
CONTINUOUS
10
5.70437
20
-0.568031
11
6.00563
21
-0.568031
0
LINE
8
BLACK
6
CONTINUOUS
10
5.70437
20
-0.571969
11
5.7011
21
-0.571969
0
LINE
8
BLACK
6
CONTINUOUS
10
5.7011
20
-0.571969
11
5.69465
21
-0.573105
0
LINE
8
BLACK
6
CONTINUOUS
10
5.69465
20
-0.573105
11
5.6885
21
-0.575343
0
LINE
8
BLACK
6
CONTINUOUS
10
5.6885
20
-0.575343
11
5.68284
21
-0.578615
0
LINE
8
BLACK
6
CONTINUOUS
10
5.68284
20
-0.578615
11
5.67782
21
-0.582822
0
LINE
8
BLACK
6
CONTINUOUS
10
5.67782
20
-0.582822
11
5.67362
21
-0.587835
0
LINE
8
BLACK
6
CONTINUOUS
10
5.67362
20
-0.587835
11
5.67034
21
-0.593503
0
LINE
8
BLACK
6
CONTINUOUS
10
5.67034
20
-0.593503
11
5.6681
21
-0.599653
0
LINE
8
BLACK
6
CONTINUOUS
10
5.6681
20
-0.599653
11
5.66697
21
-0.606098
0
LINE
8
BLACK
6
CONTINUOUS
10
5.66697
20
-0.606098
11
5.66697
21
-0.60937
0
LINE
8
BLACK
6
CONTINUOUS
10
5.66697
20
-0.60937
11
5.66697
21
-0.82563
0
LINE
8
BLACK
6
CONTINUOUS
10
5.66697
20
-0.82563
11
5.66697
21
-0.82563
0
LINE
8
BLACK
6
CONTINUOUS
10
5.66697
20
-0.82563
11
5.66634
21
-0.832808
0
LINE
8
BLACK
6
CONTINUOUS
10
5.66634
20
-0.832808
11
5.66448
21
-0.839769
0
LINE
8
BLACK
6
CONTINUOUS
10
5.66448
20
-0.839769
11
5.66143
21
-0.846299
0
LINE
8
BLACK
6
CONTINUOUS
10
5.66143
20
-0.846299
11
5.6573
21
-0.852202
0
LINE
8
BLACK
6
CONTINUOUS
10
5.6573
20
-0.852202
11
5.6522
21
-0.857297
0
LINE
8
BLACK
6
CONTINUOUS
10
5.6522
20
-0.857297
11
5.6463
21
-0.86143
0
LINE
8
BLACK
6
CONTINUOUS
10
5.6463
20
-0.86143
11
5.63977
21
-0.864475
0
LINE
8
BLACK
6
CONTINUOUS
10
5.63977
20
-0.864475
11
5.63281
21
-0.86634
0
LINE
8
BLACK
6
CONTINUOUS
10
5.63281
20
-0.86634
11
5.62563
21
-0.866969
0
LINE
8
BLACK
6
CONTINUOUS
10
5.62563
20
-0.866969
11
1.09
21
-0.866969
0
LINE
8
BLACK
6
CONTINUOUS
10
1.09
20
-0.866969
11
1.08497
21
-0.866969
0
LINE
8
BLACK
6
CONTINUOUS
10
1.08497
20
-0.866969
11
1.07499
21
-0.868282
0
LINE
8
BLACK
6
CONTINUOUS
10
1.07499
20
-0.868282
11
1.06527
21
-0.870887
0
LINE
8
BLACK
6
CONTINUOUS
10
1.06527
20
-0.870887
11
1.05597
21
-0.874738
0
LINE
8
BLACK
6
CONTINUOUS
10
1.05597
20
-0.874738
11
1.04726
21
-0.87977
0
LINE
8
BLACK
6
CONTINUOUS
10
1.04726
20
-0.87977
11
1.03927
21
-0.885896
0
LINE
8
BLACK
6
CONTINUOUS
10
1.03927
20
-0.885896
11
1.03216
21
-0.893012
0
LINE
8
BLACK
6
CONTINUOUS
10
1.03216
20
-0.893012
11
1.02603
21
-0.900997
0
LINE
8
BLACK
6
CONTINUOUS
10
1.02603
20
-0.900997
11
1.021
21
-0.909712
0
LINE
8
BLACK
6
CONTINUOUS
10
1.021
20
-0.909712
11
1.01715
21
-0.91901
0
LINE
8
BLACK
6
CONTINUOUS
10
1.01715
20
-0.91901
11
1.01454
21
-0.928731
0
LINE
8
BLACK
6
CONTINUOUS
10
1.01454
20
-0.928731
11
1.01323
21
-0.938708
0
LINE
8
BLACK
6
CONTINUOUS
10
1.01323
20
-0.938708
11
1.01323
21
-0.94374
0
LINE
8
BLACK
6
CONTINUOUS
10
1.01323
20
-0.94374
11
1.01323
21
-0.943741
0
LINE
8
BLACK
6
CONTINUOUS
10
1.01323
20
-0.943741
11
1.01323
21
-0.943741
0
LINE
8
BLACK
6
CONTINUOUS
10
1.01323
20
-0.943741
11
1.01161
21
-3.5315
0
LINE
8
BLACK
6
CONTINUOUS
10
1.01161
20
-3.5315
11
1.01161
21
-3.5315
0
LINE
8
BLACK
6
CONTINUOUS
10
1.01161
20
-3.5315
11
1.01161
21
-3.53653
0
LINE
8
BLACK
6
CONTINUOUS
10
1.01161
20
-3.53653
11
1.01292
21
-3.54651
0
LINE
8
BLACK
6
CONTINUOUS
10
1.01292
20
-3.54651
11
1.01552
21
-3.55623
0
LINE
8
BLACK
6
CONTINUOUS
10
1.01552
20
-3.55623
11
1.01938
21
-3.56552
0
LINE
8
BLACK
6
CONTINUOUS
10
1.01938
20
-3.56552
11
1.02441
21
-3.57424
0
LINE
8
BLACK
6
CONTINUOUS
10
1.02441
20
-3.57424
11
1.03053
21
-3.58222
0
LINE
8
BLACK
6
CONTINUOUS
10
1.03053
20
-3.58222
11
1.03765
21
-3.58934
0
LINE
8
BLACK
6
CONTINUOUS
10
1.03765
20
-3.58934
11
1.04564
21
-3.59547
0
LINE
8
BLACK
6
CONTINUOUS
10
1.04564
20
-3.59547
11
1.05435
21
-3.6005
0
LINE
8
BLACK
6
CONTINUOUS
10
1.05435
20
-3.6005
11
1.06365
21
-3.60435
0
LINE
8
BLACK
6
CONTINUOUS
10
1.06365
20
-3.60435
11
1.07337
21
-3.60695
0
LINE
8
BLACK
6
CONTINUOUS
10
1.07337
20
-3.60695
11
1.08335
21
-3.60827
0
LINE
8
BLACK
6
CONTINUOUS
10
1.08335
20
-3.60827
11
1.08838
21
-3.60827
0
LINE
8
BLACK
6
CONTINUOUS
10
1.08838
20
-3.60827
11
1.08838
21
-3.60827
0
LINE
8
BLACK
6
CONTINUOUS
10
1.08838
20
-3.60827
11
2.75
21
-3.60827
0
LINE
8
BLACK
6
CONTINUOUS
10
2.75
20
-3.60827
11
2.75013
21
-3.60832
0
LINE
8
BLACK
6
CONTINUOUS
10
2.75013
20
-3.60832
11
2.75026
21
-3.60828
0
LINE
8
BLACK
6
CONTINUOUS
10
2.75026
20
-3.60828
11
5.79977
21
-4.00827
0
LINE
8
BLACK
6
CONTINUOUS
10
5.79977
20
-4.00827
11
6.27449
21
-4.00827
0
LINE
8
BLACK
6
CONTINUOUS
10
6.27449
20
-4.00827
11
8.98471
21
-3.60805
0
LINE
8
BLACK
6
CONTINUOUS
10
8.98471
20
-3.60805
11
8.98486
21
-3.60809
0
LINE
8
BLACK
6
CONTINUOUS
10
8.98486
20
-3.60809
11
8.985
21
-3.60803
0
LINE
8
BLACK
6
CONTINUOUS
10
8.985
20
-3.60803
11
10.6059
21
-3.60803
0
LINE
8
BLACK
6
CONTINUOUS
10
10.6059
20
-3.60803
11
10.6059
21
-3.60803
0
LINE
8
BLACK
6
CONTINUOUS
10
10.6059
20
-3.60803
11
10.6109
21
-3.60803
0
LINE
8
BLACK
6
CONTINUOUS
10
10.6109
20
-3.60803
11
10.6209
21
-3.60672
0
LINE
8
BLACK
6
CONTINUOUS
10
10.6209
20
-3.60672
11
10.6306
21
-3.60411
0
LINE
8
BLACK
6
CONTINUOUS
10
10.6306
20
-3.60411
11
10.6399
21
-3.60026
0
LINE
8
BLACK
6
CONTINUOUS
10
10.6399
20
-3.60026
11
10.6486
21
-3.59523
0
LINE
8
BLACK
6
CONTINUOUS
10
10.6486
20
-3.59523
11
10.6566
21
-3.5891
0
LINE
8
BLACK
6
CONTINUOUS
10
10.6566
20
-3.5891
11
10.6637
21
-3.58199
0
LINE
8
BLACK
6
CONTINUOUS
10
10.6637
20
-3.58199
11
10.6699
21
-3.574
0
LINE
8
BLACK
6
CONTINUOUS
10
10.6699
20
-3.574
11
10.6749
21
-3.56529
0
LINE
8
BLACK
6
CONTINUOUS
10
10.6749
20
-3.56529
11
10.6788
21
-3.55599
0
LINE
8
BLACK
6
CONTINUOUS
10
10.6788
20
-3.55599
11
10.6814
21
-3.54627
0
LINE
8
BLACK
6
CONTINUOUS
10
10.6814
20
-3.54627
11
10.6827
21
-3.53629
0
LINE
8
BLACK
6
CONTINUOUS
10
10.6827
20
-3.53629
11
10.6827
21
-3.53126
0
LINE
8
BLACK
6
CONTINUOUS
10
10.6827
20
-3.53126
11
10.6827
21
-3.53126
0
LINE
8
BLACK
6
CONTINUOUS
10
10.6827
20
-3.53126
11
10.6827
21
-3.53126
0
LINE
8
BLACK
6
CONTINUOUS
10
10.6827
20
-3.53126
11
10.6843
21
-0.943739
0
LINE
8
BLACK
6
CONTINUOUS
10
10.6843
20
-0.943739
11
10.6843
21
-0.938708
0
LINE
8
BLACK
6
CONTINUOUS
10
10.6843
20
-0.938708
11
10.683
21
-0.928731
0
LINE
8
BLACK
6
CONTINUOUS
10
10.683
20
-0.928731
11
10.6804
21
-0.91901
0
LINE
8
BLACK
6
CONTINUOUS
10
10.6804
20
-0.91901
11
10.6765
21
-0.909712
0
LINE
8
BLACK
6
CONTINUOUS
10
10.6765
20
-0.909712
11
10.6715
21
-0.900997
0
LINE
8
BLACK
6
CONTINUOUS
10
10.6715
20
-0.900997
11
10.6654
21
-0.893012
0
LINE
8
BLACK
6
CONTINUOUS
10
10.6654
20
-0.893012
11
10.6582
21
-0.885896
0
LINE
8
BLACK
6
CONTINUOUS
10
10.6582
20
-0.885896
11
10.6503
21
-0.87977
0
LINE
8
BLACK
6
CONTINUOUS
10
10.6503
20
-0.87977
11
10.6415
21
-0.874738
0
LINE
8
BLACK
6
CONTINUOUS
10
10.6415
20
-0.874738
11
10.6323
21
-0.870887
0
LINE
8
BLACK
6
CONTINUOUS
10
10.6323
20
-0.870887
11
10.6225
21
-0.868282
0
LINE
8
BLACK
6
CONTINUOUS
10
10.6225
20
-0.868282
11
10.6126
21
-0.866969
0
LINE
8
BLACK
6
CONTINUOUS
10
10.6126
20
-0.866969
11
10.6075
21
-0.866969
0
LINE
8
BLACK
6
CONTINUOUS
10
10.6075
20
-0.866969
11
6.08437
21
-0.866969
0
LINE
8
BLACK
6
CONTINUOUS
10
6.08437
20
-0.866969
11
6.07719
21
-0.86634
0
LINE
8
BLACK
6
CONTINUOUS
10
6.07719
20
-0.86634
11
6.07023
21
-0.864475
0
LINE
8
BLACK
6
CONTINUOUS
10
6.07023
20
-0.864475
11
6.0637
21
-0.86143
0
LINE
8
BLACK
6
CONTINUOUS
10
6.0637
20
-0.86143
11
6.0578
21
-0.857297
0
LINE
8
BLACK
6
CONTINUOUS
10
6.0578
20
-0.857297
11
6.0527
21
-0.852202
0
LINE
8
BLACK
6
CONTINUOUS
10
6.0527
20
-0.852202
11
6.04857
21
-0.846299
0
LINE
8
BLACK
6
CONTINUOUS
10
6.04857
20
-0.846299
11
6.04552
21
-0.839769
0
LINE
8
BLACK
6
CONTINUOUS
10
6.04552
20
-0.839769
11
6.04366
21
-0.832808
0
LINE
8
BLACK
6
CONTINUOUS
10
6.04366
20
-0.832808
11
6.04303
21
-0.82563
0
LINE
8
BLACK
6
CONTINUOUS
10
6.04303
20
-0.82563
11
6.04303
21
-0.82563
0
LINE
8
BLACK
6
CONTINUOUS
10
6.04303
20
-0.82563
11
6.04303
21
-0.60937
0
LINE
8
BLACK
6
CONTINUOUS
10
6.04303
20
-0.60937
11
6.04303
21
-0.60937
0
LINE
8
BLACK
6
CONTINUOUS
10
6.04303
20
-0.60937
11
6.04303
21
-0.606098
0
LINE
8
BLACK
6
CONTINUOUS
10
6.04303
20
-0.606098
11
6.0419
21
-0.599653
0
LINE
8
BLACK
6
CONTINUOUS
10
6.0419
20
-0.599653
11
6.03966
21
-0.593503
0
LINE
8
BLACK
6
CONTINUOUS
10
6.03966
20
-0.593503
11
6.03638
21
-0.587835
0
LINE
8
BLACK
6
CONTINUOUS
10
6.03638
20
-0.587835
11
6.03218
21
-0.582822
0
LINE
8
BLACK
6
CONTINUOUS
10
6.03218
20
-0.582822
11
6.02716
21
-0.578615
0
LINE
8
BLACK
6
CONTINUOUS
10
6.02716
20
-0.578615
11
6.0215
21
-0.575343
0
LINE
8
BLACK
6
CONTINUOUS
10
6.0215
20
-0.575343
11
6.01535
21
-0.573105
0
LINE
8
BLACK
6
CONTINUOUS
10
6.01535
20
-0.573105
11
6.0089
21
-0.571969
0
LINE
8
BLACK
6
CONTINUOUS
10
6.0089
20
-0.571969
11
6.00563
21
-0.571969
0
LINE
8
BLACK
6
CONTINUOUS
10
6.00563
20
-0.571969
11
5.70437
21
-0.571969
  0
ENDSEC
  0
EOF
