  0
SECTION
  2
HEADER
  9
$ANGBASE
  50
0.0
  9
$ANGDIR
  70
1
  9
$MEASUREMENT
  70
1
  0
ENDSEC
  0
SECTION
  2
TABLES
  0
TABLE
  2
LTYPE
  70
4
  0
LTYPE
  5
40F
  2
CONTINUOUS
  70
0
  3
Solid line
  72
65
  73
0
  40
0.0
  0
LTYPE
  5
410
  2
DASHDOT
 70
0
  3
Dash Dot ____ _ ____ _
 72
65
 73
4
 40
2.0
 49
1.25
 49
-0.25
 49
0.25
 49
-0.25
  0
LTYPE
  5
411
  2
DASHED
 70
0
  3
Dashed __ __ __ __ __
 72
65
 73
2
 40
0.75
 49
0.5
 49
-0.25
  0
LTYPE
  5
43B
  2
DOTTED
 70
0
  3
Dotted .  .  .  .
 72
65
 73
2
 40
0.2
 49
0.0
 49
-0.2
  0
ENDTAB
  0
TABLE
  2
STYLE
  70
4
  0
STYLE
  2
KICAD
  70
0
  40
0
  41
1
  42
1
  50
0
  71
0
  3
isocp.shx
  0
STYLE
  2
KICADB
  70
0
  40
0
  41
1
  42
1
  50
0
  71
0
  3
isocp.shx
  0
STYLE
  2
KICADI
  70
0
  40
0
  41
1
  42
1
  50
15
  71
0
  3
isocp.shx
  0
STYLE
  2
KICADBI
  70
0
  40
0
  41
1
  42
1
  50
15
  71
0
  3
isocp.shx
  0
ENDTAB
  0
TABLE
  2
LAYER
  70
1
  0
LAYER
  2
BLACK
  70
0
  62
7
  6
CONTINUOUS
  0
ENDTAB
  0
ENDSEC
  0
SECTION
  2
ENTITIES
0
LINE
8
BLACK
6
CONTINUOUS
10
142.398
20
-89.7102
11
142.414
21
-89.7205
0
LINE
8
BLACK
6
CONTINUOUS
10
142.414
20
-89.7205
11
142.418
21
-89.7392
0
LINE
8
BLACK
6
CONTINUOUS
10
142.418
20
-89.7392
11
142.418
21
-89.7392
0
LINE
8
BLACK
6
CONTINUOUS
10
142.418
20
-89.7392
11
139.996
21
-103.477
0
LINE
8
BLACK
6
CONTINUOUS
10
139.996
20
-103.477
11
139.996
21
-103.477
0
LINE
8
BLACK
6
CONTINUOUS
10
139.996
20
-103.477
11
139.989
21
-103.487
0
LINE
8
BLACK
6
CONTINUOUS
10
139.989
20
-103.487
11
139.986
21
-103.493
0
LINE
8
BLACK
6
CONTINUOUS
10
139.986
20
-103.493
11
139.967
21
-103.498
0
LINE
8
BLACK
6
CONTINUOUS
10
139.967
20
-103.498
11
126.18
21
-101.066
0
LINE
8
BLACK
6
CONTINUOUS
10
126.18
20
-101.066
11
126.163
21
-101.056
0
LINE
8
BLACK
6
CONTINUOUS
10
126.163
20
-101.056
11
126.159
21
-101.037
0
LINE
8
BLACK
6
CONTINUOUS
10
126.159
20
-101.037
11
126.159
21
-101.037
0
LINE
8
BLACK
6
CONTINUOUS
10
126.159
20
-101.037
11
128.582
21
-87.2994
0
LINE
8
BLACK
6
CONTINUOUS
10
128.582
20
-87.2994
11
128.592
21
-87.2833
0
LINE
8
BLACK
6
CONTINUOUS
10
128.592
20
-87.2833
11
128.611
21
-87.2791
0
LINE
8
BLACK
6
CONTINUOUS
10
128.611
20
-87.2791
11
142.398
21
-89.7102
0
LINE
8
BLACK
6
CONTINUOUS
10
126.213
20
-101.022
11
139.951
21
-103.444
0
LINE
8
BLACK
6
CONTINUOUS
10
139.951
20
-103.444
11
142.365
21
-89.7551
0
LINE
8
BLACK
6
CONTINUOUS
10
142.365
20
-89.7551
11
128.627
21
-87.3327
0
LINE
8
BLACK
6
CONTINUOUS
10
128.627
20
-87.3327
11
126.213
21
-101.022
0
LINE
8
BLACK
6
CONTINUOUS
10
172.418
20
-86.4322
11
172.428
21
-86.4483
0
LINE
8
BLACK
6
CONTINUOUS
10
172.428
20
-86.4483
11
174.851
21
-100.186
0
LINE
8
BLACK
6
CONTINUOUS
10
174.851
20
-100.186
11
174.851
21
-100.186
0
LINE
8
BLACK
6
CONTINUOUS
10
174.851
20
-100.186
11
174.847
21
-100.205
0
LINE
8
BLACK
6
CONTINUOUS
10
174.847
20
-100.205
11
174.831
21
-100.215
0
LINE
8
BLACK
6
CONTINUOUS
10
174.831
20
-100.215
11
161.043
21
-102.646
0
LINE
8
BLACK
6
CONTINUOUS
10
161.043
20
-102.646
11
161.025
21
-102.642
0
LINE
8
BLACK
6
CONTINUOUS
10
161.025
20
-102.642
11
161.014
21
-102.626
0
LINE
8
BLACK
6
CONTINUOUS
10
161.014
20
-102.626
11
158.592
21
-88.8881
0
LINE
8
BLACK
6
CONTINUOUS
10
158.592
20
-88.8881
11
158.596
21
-88.8694
0
LINE
8
BLACK
6
CONTINUOUS
10
158.596
20
-88.8694
11
158.612
21
-88.8591
0
LINE
8
BLACK
6
CONTINUOUS
10
158.612
20
-88.8591
11
172.399
21
-86.428
0
LINE
8
BLACK
6
CONTINUOUS
10
172.399
20
-86.428
11
172.399
21
-86.428
0
LINE
8
BLACK
6
CONTINUOUS
10
172.399
20
-86.428
11
172.418
21
-86.4322
0
LINE
8
BLACK
6
CONTINUOUS
10
158.645
20
-88.904
11
161.059
21
-102.593
0
LINE
8
BLACK
6
CONTINUOUS
10
161.059
20
-102.593
11
174.797
21
-100.17
0
LINE
8
BLACK
6
CONTINUOUS
10
174.797
20
-100.17
11
172.384
21
-86.4816
0
LINE
8
BLACK
6
CONTINUOUS
10
172.384
20
-86.4816
11
158.645
21
-88.904
0
LINE
8
BLACK
6
CONTINUOUS
10
123.637
20
-86.4022
11
123.653
21
-86.4125
0
LINE
8
BLACK
6
CONTINUOUS
10
123.653
20
-86.4125
11
123.658
21
-86.4312
0
LINE
8
BLACK
6
CONTINUOUS
10
123.658
20
-86.4312
11
123.658
21
-86.4312
0
LINE
8
BLACK
6
CONTINUOUS
10
123.658
20
-86.4312
11
121.235
21
-100.169
0
LINE
8
BLACK
6
CONTINUOUS
10
121.235
20
-100.169
11
121.235
21
-100.169
0
LINE
8
BLACK
6
CONTINUOUS
10
121.235
20
-100.169
11
121.229
21
-100.179
0
LINE
8
BLACK
6
CONTINUOUS
10
121.229
20
-100.179
11
121.225
21
-100.185
0
LINE
8
BLACK
6
CONTINUOUS
10
121.225
20
-100.185
11
121.206
21
-100.19
0
LINE
8
BLACK
6
CONTINUOUS
10
121.206
20
-100.19
11
107.419
21
-97.7584
0
LINE
8
BLACK
6
CONTINUOUS
10
107.419
20
-97.7584
11
107.403
21
-97.7482
0
LINE
8
BLACK
6
CONTINUOUS
10
107.403
20
-97.7482
11
107.399
21
-97.7295
0
LINE
8
BLACK
6
CONTINUOUS
10
107.399
20
-97.7295
11
107.399
21
-97.7295
0
LINE
8
BLACK
6
CONTINUOUS
10
107.399
20
-97.7295
11
109.821
21
-83.9914
0
LINE
8
BLACK
6
CONTINUOUS
10
109.821
20
-83.9914
11
109.831
21
-83.9753
0
LINE
8
BLACK
6
CONTINUOUS
10
109.831
20
-83.9753
11
109.85
21
-83.9711
0
LINE
8
BLACK
6
CONTINUOUS
10
109.85
20
-83.9711
11
123.637
21
-86.4022
0
LINE
8
BLACK
6
CONTINUOUS
10
107.452
20
-97.7135
11
121.19
21
-100.136
0
LINE
8
BLACK
6
CONTINUOUS
10
121.19
20
-100.136
11
123.604
21
-86.4471
0
LINE
8
BLACK
6
CONTINUOUS
10
123.604
20
-86.4471
11
109.866
21
-84.0247
0
LINE
8
BLACK
6
CONTINUOUS
10
109.866
20
-84.0247
11
107.452
21
-97.7135
0
LINE
8
BLACK
6
CONTINUOUS
10
195.915
20
-82.3201
11
195.926
21
-82.3362
0
LINE
8
BLACK
6
CONTINUOUS
10
195.926
20
-82.3362
11
198.348
21
-96.0743
0
LINE
8
BLACK
6
CONTINUOUS
10
198.348
20
-96.0743
11
198.348
21
-96.0743
0
LINE
8
BLACK
6
CONTINUOUS
10
198.348
20
-96.0743
11
198.344
21
-96.093
0
LINE
8
BLACK
6
CONTINUOUS
10
198.344
20
-96.093
11
198.328
21
-96.1032
0
LINE
8
BLACK
6
CONTINUOUS
10
198.328
20
-96.1032
11
184.54
21
-98.5343
0
LINE
8
BLACK
6
CONTINUOUS
10
184.54
20
-98.5343
11
184.522
21
-98.5302
0
LINE
8
BLACK
6
CONTINUOUS
10
184.522
20
-98.5302
11
184.511
21
-98.514
0
LINE
8
BLACK
6
CONTINUOUS
10
184.511
20
-98.514
11
184.511
21
-98.514
0
LINE
8
BLACK
6
CONTINUOUS
10
184.511
20
-98.514
11
182.089
21
-84.776
0
LINE
8
BLACK
6
CONTINUOUS
10
182.089
20
-84.776
11
182.093
21
-84.7573
0
LINE
8
BLACK
6
CONTINUOUS
10
182.093
20
-84.7573
11
182.109
21
-84.747
0
LINE
8
BLACK
6
CONTINUOUS
10
182.109
20
-84.747
11
195.897
21
-82.3159
0
LINE
8
BLACK
6
CONTINUOUS
10
195.897
20
-82.3159
11
195.897
21
-82.3159
0
LINE
8
BLACK
6
CONTINUOUS
10
195.897
20
-82.3159
11
195.915
21
-82.3201
0
LINE
8
BLACK
6
CONTINUOUS
10
182.143
20
-84.7919
11
184.556
21
-98.4807
0
LINE
8
BLACK
6
CONTINUOUS
10
184.556
20
-98.4807
11
198.294
21
-96.0583
0
LINE
8
BLACK
6
CONTINUOUS
10
198.294
20
-96.0583
11
195.881
21
-82.3695
0
LINE
8
BLACK
6
CONTINUOUS
10
195.881
20
-82.3695
11
182.143
21
-84.7919
0
LINE
8
BLACK
6
CONTINUOUS
10
103.313
20
-83.0595
11
103.329
21
-83.0683
0
LINE
8
BLACK
6
CONTINUOUS
10
103.329
20
-83.0683
11
103.335
21
-83.0866
0
LINE
8
BLACK
6
CONTINUOUS
10
103.335
20
-83.0866
11
102.119
21
-96.9835
0
LINE
8
BLACK
6
CONTINUOUS
10
102.119
20
-96.9835
11
102.111
21
-97.0005
0
LINE
8
BLACK
6
CONTINUOUS
10
102.111
20
-97.0005
11
102.092
21
-97.0062
0
LINE
8
BLACK
6
CONTINUOUS
10
102.092
20
-97.0062
11
88.1456
21
-95.7861
0
LINE
8
BLACK
6
CONTINUOUS
10
88.1456
20
-95.7861
11
88.1286
21
-95.7772
0
LINE
8
BLACK
6
CONTINUOUS
10
88.1286
20
-95.7772
11
88.1229
21
-95.759
0
LINE
8
BLACK
6
CONTINUOUS
10
88.1229
20
-95.759
11
89.3387
21
-81.8621
0
LINE
8
BLACK
6
CONTINUOUS
10
89.3387
20
-81.8621
11
89.3475
21
-81.8451
0
LINE
8
BLACK
6
CONTINUOUS
10
89.3475
20
-81.8451
11
89.3658
21
-81.8393
0
LINE
8
BLACK
6
CONTINUOUS
10
89.3658
20
-81.8393
11
103.313
21
-83.0595
0
LINE
8
BLACK
6
CONTINUOUS
10
88.1749
20
-95.7384
11
102.072
21
-96.9542
0
LINE
8
BLACK
6
CONTINUOUS
10
102.072
20
-96.9542
11
103.283
21
-83.1071
0
LINE
8
BLACK
6
CONTINUOUS
10
103.283
20
-83.1071
11
89.3863
21
-81.8913
0
LINE
8
BLACK
6
CONTINUOUS
10
89.3863
20
-81.8913
11
88.1749
21
-95.7384
0
LINE
8
BLACK
6
CONTINUOUS
10
216.476
20
-80.296
11
216.485
21
-80.313
0
LINE
8
BLACK
6
CONTINUOUS
10
216.485
20
-80.313
11
217.701
21
-94.2099
0
LINE
8
BLACK
6
CONTINUOUS
10
217.701
20
-94.2099
11
217.695
21
-94.2282
0
LINE
8
BLACK
6
CONTINUOUS
10
217.695
20
-94.2282
11
217.678
21
-94.237
0
LINE
8
BLACK
6
CONTINUOUS
10
217.678
20
-94.237
11
203.731
21
-95.4572
0
LINE
8
BLACK
6
CONTINUOUS
10
203.731
20
-95.4572
11
203.713
21
-95.4514
0
LINE
8
BLACK
6
CONTINUOUS
10
203.713
20
-95.4514
11
203.704
21
-95.4345
0
LINE
8
BLACK
6
CONTINUOUS
10
203.704
20
-95.4345
11
202.489
21
-81.5376
0
LINE
8
BLACK
6
CONTINUOUS
10
202.489
20
-81.5376
11
202.494
21
-81.5193
0
LINE
8
BLACK
6
CONTINUOUS
10
202.494
20
-81.5193
11
202.511
21
-81.5105
0
LINE
8
BLACK
6
CONTINUOUS
10
202.511
20
-81.5105
11
216.458
21
-80.2903
0
LINE
8
BLACK
6
CONTINUOUS
10
216.458
20
-80.2903
11
216.476
21
-80.296
0
LINE
8
BLACK
6
CONTINUOUS
10
202.54
20
-81.5581
11
203.752
21
-95.4052
0
LINE
8
BLACK
6
CONTINUOUS
10
203.752
20
-95.4052
11
217.649
21
-94.1894
0
LINE
8
BLACK
6
CONTINUOUS
10
217.649
20
-94.1894
11
216.437
21
-80.3423
0
LINE
8
BLACK
6
CONTINUOUS
10
216.437
20
-80.3423
11
202.54
21
-81.5581
0
LINE
8
BLACK
6
CONTINUOUS
10
84.335
20
-81.3992
11
84.352
21
-81.408
0
LINE
8
BLACK
6
CONTINUOUS
10
84.352
20
-81.408
11
84.3577
21
-81.4263
0
LINE
8
BLACK
6
CONTINUOUS
10
84.3577
20
-81.4263
11
83.1419
21
-95.3232
0
LINE
8
BLACK
6
CONTINUOUS
10
83.1419
20
-95.3232
11
83.1331
21
-95.3402
0
LINE
8
BLACK
6
CONTINUOUS
10
83.1331
20
-95.3402
11
83.1148
21
-95.3459
0
LINE
8
BLACK
6
CONTINUOUS
10
83.1148
20
-95.3459
11
69.1681
21
-94.1257
0
LINE
8
BLACK
6
CONTINUOUS
10
69.1681
20
-94.1257
11
69.1511
21
-94.1169
0
LINE
8
BLACK
6
CONTINUOUS
10
69.1511
20
-94.1169
11
69.1454
21
-94.0987
0
LINE
8
BLACK
6
CONTINUOUS
10
69.1454
20
-94.0987
11
69.1454
21
-94.0987
0
LINE
8
BLACK
6
CONTINUOUS
10
69.1454
20
-94.0987
11
70.3612
21
-80.2017
0
LINE
8
BLACK
6
CONTINUOUS
10
70.3612
20
-80.2017
11
70.37
21
-80.1848
0
LINE
8
BLACK
6
CONTINUOUS
10
70.37
20
-80.1848
11
70.3883
21
-80.179
0
LINE
8
BLACK
6
CONTINUOUS
10
70.3883
20
-80.179
11
84.335
21
-81.3992
0
LINE
8
BLACK
6
CONTINUOUS
10
69.1974
20
-94.0781
11
83.0943
21
-95.2939
0
LINE
8
BLACK
6
CONTINUOUS
10
83.0943
20
-95.2939
11
84.3057
21
-81.4468
0
LINE
8
BLACK
6
CONTINUOUS
10
84.3057
20
-81.4468
11
70.4088
21
-80.231
0
LINE
8
BLACK
6
CONTINUOUS
10
70.4088
20
-80.231
11
69.1974
21
-94.0781
0
LINE
8
BLACK
6
CONTINUOUS
10
42.3246
20
-79.8055
11
42.3422
21
-79.8128
0
LINE
8
BLACK
6
CONTINUOUS
10
42.3422
20
-79.8128
11
42.3496
21
-79.8305
0
LINE
8
BLACK
6
CONTINUOUS
10
42.3496
20
-79.8305
11
42.3496
21
-93.7805
0
LINE
8
BLACK
6
CONTINUOUS
10
42.3496
20
-93.7805
11
42.3422
21
-93.7982
0
LINE
8
BLACK
6
CONTINUOUS
10
42.3422
20
-93.7982
11
42.3246
21
-93.8055
0
LINE
8
BLACK
6
CONTINUOUS
10
42.3246
20
-93.8055
11
28.3246
21
-93.8055
0
LINE
8
BLACK
6
CONTINUOUS
10
28.3246
20
-93.8055
11
28.3069
21
-93.7982
0
LINE
8
BLACK
6
CONTINUOUS
10
28.3069
20
-93.7982
11
28.2996
21
-93.7805
0
LINE
8
BLACK
6
CONTINUOUS
10
28.2996
20
-93.7805
11
28.2996
21
-79.8305
0
LINE
8
BLACK
6
CONTINUOUS
10
28.2996
20
-79.8305
11
28.3069
21
-79.8128
0
LINE
8
BLACK
6
CONTINUOUS
10
28.3069
20
-79.8128
11
28.3246
21
-79.8055
0
LINE
8
BLACK
6
CONTINUOUS
10
28.3246
20
-79.8055
11
42.3246
21
-79.8055
0
LINE
8
BLACK
6
CONTINUOUS
10
28.3496
20
-79.8555
11
28.3496
21
-93.7555
0
LINE
8
BLACK
6
CONTINUOUS
10
28.3496
20
-93.7555
11
42.2996
21
-93.7555
0
LINE
8
BLACK
6
CONTINUOUS
10
42.2996
20
-93.7555
11
42.2996
21
-79.8555
0
LINE
8
BLACK
6
CONTINUOUS
10
42.2996
20
-79.8555
11
28.3496
21
-79.8555
0
LINE
8
BLACK
6
CONTINUOUS
10
63.7558
20
-79.8055
11
63.7735
21
-79.8128
0
LINE
8
BLACK
6
CONTINUOUS
10
63.7735
20
-79.8128
11
63.7808
21
-79.8305
0
LINE
8
BLACK
6
CONTINUOUS
10
63.7808
20
-79.8305
11
63.7808
21
-93.7805
0
LINE
8
BLACK
6
CONTINUOUS
10
63.7808
20
-93.7805
11
63.7735
21
-93.7982
0
LINE
8
BLACK
6
CONTINUOUS
10
63.7735
20
-93.7982
11
63.7558
21
-93.8055
0
LINE
8
BLACK
6
CONTINUOUS
10
63.7558
20
-93.8055
11
49.7558
21
-93.8055
0
LINE
8
BLACK
6
CONTINUOUS
10
49.7558
20
-93.8055
11
49.7381
21
-93.7982
0
LINE
8
BLACK
6
CONTINUOUS
10
49.7381
20
-93.7982
11
49.7308
21
-93.7805
0
LINE
8
BLACK
6
CONTINUOUS
10
49.7308
20
-93.7805
11
49.7308
21
-79.8305
0
LINE
8
BLACK
6
CONTINUOUS
10
49.7308
20
-79.8305
11
49.7381
21
-79.8128
0
LINE
8
BLACK
6
CONTINUOUS
10
49.7381
20
-79.8128
11
49.7558
21
-79.8055
0
LINE
8
BLACK
6
CONTINUOUS
10
49.7558
20
-79.8055
11
63.7558
21
-79.8055
0
LINE
8
BLACK
6
CONTINUOUS
10
49.7808
20
-79.8555
11
49.7808
21
-93.7555
0
LINE
8
BLACK
6
CONTINUOUS
10
49.7808
20
-93.7555
11
63.7308
21
-93.7555
0
LINE
8
BLACK
6
CONTINUOUS
10
63.7308
20
-93.7555
11
63.7308
21
-79.8555
0
LINE
8
BLACK
6
CONTINUOUS
10
63.7308
20
-79.8555
11
49.7808
21
-79.8555
0
LINE
8
BLACK
6
CONTINUOUS
10
235.454
20
-78.6357
11
235.463
21
-78.6527
0
LINE
8
BLACK
6
CONTINUOUS
10
235.463
20
-78.6527
11
236.678
21
-92.5496
0
LINE
8
BLACK
6
CONTINUOUS
10
236.678
20
-92.5496
11
236.678
21
-92.5496
0
LINE
8
BLACK
6
CONTINUOUS
10
236.678
20
-92.5496
11
236.673
21
-92.5679
0
LINE
8
BLACK
6
CONTINUOUS
10
236.673
20
-92.5679
11
236.656
21
-92.5767
0
LINE
8
BLACK
6
CONTINUOUS
10
236.656
20
-92.5767
11
222.709
21
-93.7969
0
LINE
8
BLACK
6
CONTINUOUS
10
222.709
20
-93.7969
11
222.691
21
-93.7911
0
LINE
8
BLACK
6
CONTINUOUS
10
222.691
20
-93.7911
11
222.682
21
-93.7742
0
LINE
8
BLACK
6
CONTINUOUS
10
222.682
20
-93.7742
11
221.466
21
-79.8772
0
LINE
8
BLACK
6
CONTINUOUS
10
221.466
20
-79.8772
11
221.472
21
-79.859
0
LINE
8
BLACK
6
CONTINUOUS
10
221.472
20
-79.859
11
221.489
21
-79.8502
0
LINE
8
BLACK
6
CONTINUOUS
10
221.489
20
-79.8502
11
235.435
21
-78.63
0
LINE
8
BLACK
6
CONTINUOUS
10
235.435
20
-78.63
11
235.454
21
-78.6357
0
LINE
8
BLACK
6
CONTINUOUS
10
221.518
20
-79.8978
11
222.729
21
-93.7449
0
LINE
8
BLACK
6
CONTINUOUS
10
222.729
20
-93.7449
11
236.626
21
-92.5291
0
LINE
8
BLACK
6
CONTINUOUS
10
236.626
20
-92.5291
11
235.415
21
-78.682
0
LINE
8
BLACK
6
CONTINUOUS
10
235.415
20
-78.682
11
221.518
21
-79.8978
0
LINE
8
BLACK
6
CONTINUOUS
10
263.276
20
-78.2815
11
263.294
21
-78.2888
0
LINE
8
BLACK
6
CONTINUOUS
10
263.294
20
-78.2888
11
263.301
21
-78.3065
0
LINE
8
BLACK
6
CONTINUOUS
10
263.301
20
-78.3065
11
263.301
21
-92.2565
0
LINE
8
BLACK
6
CONTINUOUS
10
263.301
20
-92.2565
11
263.294
21
-92.2742
0
LINE
8
BLACK
6
CONTINUOUS
10
263.294
20
-92.2742
11
263.276
21
-92.2815
0
LINE
8
BLACK
6
CONTINUOUS
10
263.276
20
-92.2815
11
249.276
21
-92.2815
0
LINE
8
BLACK
6
CONTINUOUS
10
249.276
20
-92.2815
11
249.258
21
-92.2742
0
LINE
8
BLACK
6
CONTINUOUS
10
249.258
20
-92.2742
11
249.251
21
-92.2565
0
LINE
8
BLACK
6
CONTINUOUS
10
249.251
20
-92.2565
11
249.251
21
-78.3065
0
LINE
8
BLACK
6
CONTINUOUS
10
249.251
20
-78.3065
11
249.258
21
-78.2888
0
LINE
8
BLACK
6
CONTINUOUS
10
249.258
20
-78.2888
11
249.276
21
-78.2815
0
LINE
8
BLACK
6
CONTINUOUS
10
249.276
20
-78.2815
11
263.276
21
-78.2815
0
LINE
8
BLACK
6
CONTINUOUS
10
249.301
20
-78.3315
11
249.301
21
-92.2315
0
LINE
8
BLACK
6
CONTINUOUS
10
249.301
20
-92.2315
11
263.251
21
-92.2315
0
LINE
8
BLACK
6
CONTINUOUS
10
263.251
20
-92.2315
11
263.251
21
-78.3315
0
LINE
8
BLACK
6
CONTINUOUS
10
263.251
20
-78.3315
11
249.301
21
-78.3315
0
LINE
8
BLACK
6
CONTINUOUS
10
170.499
20
-67.3984
11
170.509
21
-67.4145
0
LINE
8
BLACK
6
CONTINUOUS
10
170.509
20
-67.4145
11
172.931
21
-81.1526
0
LINE
8
BLACK
6
CONTINUOUS
10
172.931
20
-81.1526
11
172.931
21
-81.1526
0
LINE
8
BLACK
6
CONTINUOUS
10
172.931
20
-81.1526
11
172.927
21
-81.1713
0
LINE
8
BLACK
6
CONTINUOUS
10
172.927
20
-81.1713
11
172.911
21
-81.1816
0
LINE
8
BLACK
6
CONTINUOUS
10
172.911
20
-81.1816
11
159.124
21
-83.6126
0
LINE
8
BLACK
6
CONTINUOUS
10
159.124
20
-83.6126
11
159.105
21
-83.6085
0
LINE
8
BLACK
6
CONTINUOUS
10
159.105
20
-83.6085
11
159.095
21
-83.5924
0
LINE
8
BLACK
6
CONTINUOUS
10
159.095
20
-83.5924
11
156.672
21
-69.8543
0
LINE
8
BLACK
6
CONTINUOUS
10
156.672
20
-69.8543
11
156.677
21
-69.8356
0
LINE
8
BLACK
6
CONTINUOUS
10
156.677
20
-69.8356
11
156.693
21
-69.8253
0
LINE
8
BLACK
6
CONTINUOUS
10
156.693
20
-69.8253
11
170.48
21
-67.3943
0
LINE
8
BLACK
6
CONTINUOUS
10
170.48
20
-67.3943
11
170.48
21
-67.3943
0
LINE
8
BLACK
6
CONTINUOUS
10
170.48
20
-67.3943
11
170.499
21
-67.3984
0
LINE
8
BLACK
6
CONTINUOUS
10
156.726
20
-69.8702
11
159.14
21
-83.5591
0
LINE
8
BLACK
6
CONTINUOUS
10
159.14
20
-83.5591
11
172.878
21
-81.1367
0
LINE
8
BLACK
6
CONTINUOUS
10
172.878
20
-81.1367
11
170.464
21
-67.4478
0
LINE
8
BLACK
6
CONTINUOUS
10
170.464
20
-67.4478
11
156.726
21
-69.8702
0
LINE
8
BLACK
6
CONTINUOUS
10
139.35
20
-69.8107
11
139.366
21
-69.821
0
LINE
8
BLACK
6
CONTINUOUS
10
139.366
20
-69.821
11
139.371
21
-69.8397
0
LINE
8
BLACK
6
CONTINUOUS
10
139.371
20
-69.8397
11
139.371
21
-69.8397
0
LINE
8
BLACK
6
CONTINUOUS
10
139.371
20
-69.8397
11
136.948
21
-83.5778
0
LINE
8
BLACK
6
CONTINUOUS
10
136.948
20
-83.5778
11
136.948
21
-83.5778
0
LINE
8
BLACK
6
CONTINUOUS
10
136.948
20
-83.5778
11
136.942
21
-83.5878
0
LINE
8
BLACK
6
CONTINUOUS
10
136.942
20
-83.5878
11
136.938
21
-83.5939
0
LINE
8
BLACK
6
CONTINUOUS
10
136.938
20
-83.5939
11
136.919
21
-83.598
0
LINE
8
BLACK
6
CONTINUOUS
10
136.919
20
-83.598
11
123.132
21
-81.167
0
LINE
8
BLACK
6
CONTINUOUS
10
123.132
20
-81.167
11
123.116
21
-81.1567
0
LINE
8
BLACK
6
CONTINUOUS
10
123.116
20
-81.1567
11
123.112
21
-81.138
0
LINE
8
BLACK
6
CONTINUOUS
10
123.112
20
-81.138
11
125.534
21
-67.3999
0
LINE
8
BLACK
6
CONTINUOUS
10
125.534
20
-67.3999
11
125.544
21
-67.3838
0
LINE
8
BLACK
6
CONTINUOUS
10
125.544
20
-67.3838
11
125.563
21
-67.3797
0
LINE
8
BLACK
6
CONTINUOUS
10
125.563
20
-67.3797
11
139.35
21
-69.8107
0
LINE
8
BLACK
6
CONTINUOUS
10
123.165
20
-81.1221
11
136.903
21
-83.5445
0
LINE
8
BLACK
6
CONTINUOUS
10
136.903
20
-83.5445
11
139.317
21
-69.8556
0
LINE
8
BLACK
6
CONTINUOUS
10
139.317
20
-69.8556
11
125.579
21
-67.4332
0
LINE
8
BLACK
6
CONTINUOUS
10
125.579
20
-67.4332
11
123.165
21
-81.1221
0
LINE
8
BLACK
6
CONTINUOUS
10
189.259
20
-64.0904
11
189.27
21
-64.1065
0
LINE
8
BLACK
6
CONTINUOUS
10
189.27
20
-64.1065
11
191.692
21
-77.8446
0
LINE
8
BLACK
6
CONTINUOUS
10
191.692
20
-77.8446
11
191.692
21
-77.8446
0
LINE
8
BLACK
6
CONTINUOUS
10
191.692
20
-77.8446
11
191.688
21
-77.8633
0
LINE
8
BLACK
6
CONTINUOUS
10
191.688
20
-77.8633
11
191.672
21
-77.8736
0
LINE
8
BLACK
6
CONTINUOUS
10
191.672
20
-77.8736
11
177.884
21
-80.3046
0
LINE
8
BLACK
6
CONTINUOUS
10
177.884
20
-80.3046
11
177.866
21
-80.3005
0
LINE
8
BLACK
6
CONTINUOUS
10
177.866
20
-80.3005
11
177.855
21
-80.2844
0
LINE
8
BLACK
6
CONTINUOUS
10
177.855
20
-80.2844
11
177.855
21
-80.2844
0
LINE
8
BLACK
6
CONTINUOUS
10
177.855
20
-80.2844
11
175.433
21
-66.5463
0
LINE
8
BLACK
6
CONTINUOUS
10
175.433
20
-66.5463
11
175.437
21
-66.5276
0
LINE
8
BLACK
6
CONTINUOUS
10
175.437
20
-66.5276
11
175.453
21
-66.5173
0
LINE
8
BLACK
6
CONTINUOUS
10
175.453
20
-66.5173
11
189.241
21
-64.0863
0
LINE
8
BLACK
6
CONTINUOUS
10
189.241
20
-64.0863
11
189.241
21
-64.0863
0
LINE
8
BLACK
6
CONTINUOUS
10
189.241
20
-64.0863
11
189.259
21
-64.0904
0
LINE
8
BLACK
6
CONTINUOUS
10
175.487
20
-66.5622
11
177.9
21
-80.2511
0
LINE
8
BLACK
6
CONTINUOUS
10
177.9
20
-80.2511
11
191.638
21
-77.8287
0
LINE
8
BLACK
6
CONTINUOUS
10
191.638
20
-77.8287
11
189.225
21
-64.1398
0
LINE
8
BLACK
6
CONTINUOUS
10
189.225
20
-64.1398
11
175.487
21
-66.5622
0
LINE
8
BLACK
6
CONTINUOUS
10
120.59
20
-66.5027
11
120.606
21
-66.513
0
LINE
8
BLACK
6
CONTINUOUS
10
120.606
20
-66.513
11
120.61
21
-66.5317
0
LINE
8
BLACK
6
CONTINUOUS
10
120.61
20
-66.5317
11
120.61
21
-66.5317
0
LINE
8
BLACK
6
CONTINUOUS
10
120.61
20
-66.5317
11
118.188
21
-80.2698
0
LINE
8
BLACK
6
CONTINUOUS
10
118.188
20
-80.2698
11
118.188
21
-80.2698
0
LINE
8
BLACK
6
CONTINUOUS
10
118.188
20
-80.2698
11
118.184
21
-80.2757
0
LINE
8
BLACK
6
CONTINUOUS
10
118.184
20
-80.2757
11
118.177
21
-80.2859
0
LINE
8
BLACK
6
CONTINUOUS
10
118.177
20
-80.2859
11
118.159
21
-80.29
0
LINE
8
BLACK
6
CONTINUOUS
10
118.159
20
-80.29
11
104.371
21
-77.859
0
LINE
8
BLACK
6
CONTINUOUS
10
104.371
20
-77.859
11
104.355
21
-77.8487
0
LINE
8
BLACK
6
CONTINUOUS
10
104.355
20
-77.8487
11
104.351
21
-77.83
0
LINE
8
BLACK
6
CONTINUOUS
10
104.351
20
-77.83
11
104.351
21
-77.83
0
LINE
8
BLACK
6
CONTINUOUS
10
104.351
20
-77.83
11
106.773
21
-64.0919
0
LINE
8
BLACK
6
CONTINUOUS
10
106.773
20
-64.0919
11
106.784
21
-64.0758
0
LINE
8
BLACK
6
CONTINUOUS
10
106.784
20
-64.0758
11
106.802
21
-64.0717
0
LINE
8
BLACK
6
CONTINUOUS
10
106.802
20
-64.0717
11
120.59
21
-66.5027
0
LINE
8
BLACK
6
CONTINUOUS
10
104.405
20
-77.8141
11
118.143
21
-80.2365
0
LINE
8
BLACK
6
CONTINUOUS
10
118.143
20
-80.2365
11
120.556
21
-66.5476
0
LINE
8
BLACK
6
CONTINUOUS
10
120.556
20
-66.5476
11
106.818
21
-64.1252
0
LINE
8
BLACK
6
CONTINUOUS
10
106.818
20
-64.1252
11
104.405
21
-77.8141
0
LINE
8
BLACK
6
CONTINUOUS
10
100.228
20
-63.6669
11
100.245
21
-63.6758
0
LINE
8
BLACK
6
CONTINUOUS
10
100.245
20
-63.6758
11
100.251
21
-63.694
0
LINE
8
BLACK
6
CONTINUOUS
10
100.251
20
-63.694
11
99.0354
21
-77.5909
0
LINE
8
BLACK
6
CONTINUOUS
10
99.0354
20
-77.5909
11
99.0265
21
-77.6079
0
LINE
8
BLACK
6
CONTINUOUS
10
99.0265
20
-77.6079
11
99.0083
21
-77.6136
0
LINE
8
BLACK
6
CONTINUOUS
10
99.0083
20
-77.6136
11
85.0615
21
-76.3935
0
LINE
8
BLACK
6
CONTINUOUS
10
85.0615
20
-76.3935
11
85.0446
21
-76.3846
0
LINE
8
BLACK
6
CONTINUOUS
10
85.0446
20
-76.3846
11
85.0388
21
-76.3664
0
LINE
8
BLACK
6
CONTINUOUS
10
85.0388
20
-76.3664
11
85.0388
21
-76.3664
0
LINE
8
BLACK
6
CONTINUOUS
10
85.0388
20
-76.3664
11
86.2546
21
-62.4695
0
LINE
8
BLACK
6
CONTINUOUS
10
86.2546
20
-62.4695
11
86.2635
21
-62.4525
0
LINE
8
BLACK
6
CONTINUOUS
10
86.2635
20
-62.4525
11
86.2817
21
-62.4467
0
LINE
8
BLACK
6
CONTINUOUS
10
86.2817
20
-62.4467
11
100.228
21
-63.6669
0
LINE
8
BLACK
6
CONTINUOUS
10
85.0908
20
-76.3458
11
98.9877
21
-77.5617
0
LINE
8
BLACK
6
CONTINUOUS
10
98.9877
20
-77.5617
11
100.199
21
-63.7145
0
LINE
8
BLACK
6
CONTINUOUS
10
100.199
20
-63.7145
11
86.3023
21
-62.4987
0
LINE
8
BLACK
6
CONTINUOUS
10
86.3023
20
-62.4987
11
85.0908
21
-76.3458
0
LINE
8
BLACK
6
CONTINUOUS
10
209.787
20
-61.7679
11
209.796
21
-61.7849
0
LINE
8
BLACK
6
CONTINUOUS
10
209.796
20
-61.7849
11
211.012
21
-75.6818
0
LINE
8
BLACK
6
CONTINUOUS
10
211.012
20
-75.6818
11
211.006
21
-75.7001
0
LINE
8
BLACK
6
CONTINUOUS
10
211.006
20
-75.7001
11
210.989
21
-75.7089
0
LINE
8
BLACK
6
CONTINUOUS
10
210.989
20
-75.7089
11
197.042
21
-76.9291
0
LINE
8
BLACK
6
CONTINUOUS
10
197.042
20
-76.9291
11
197.024
21
-76.9233
0
LINE
8
BLACK
6
CONTINUOUS
10
197.024
20
-76.9233
11
197.015
21
-76.9064
0
LINE
8
BLACK
6
CONTINUOUS
10
197.015
20
-76.9064
11
195.799
21
-63.0095
0
LINE
8
BLACK
6
CONTINUOUS
10
195.799
20
-63.0095
11
195.805
21
-62.9912
0
LINE
8
BLACK
6
CONTINUOUS
10
195.805
20
-62.9912
11
195.822
21
-62.9824
0
LINE
8
BLACK
6
CONTINUOUS
10
195.822
20
-62.9824
11
209.769
21
-61.7622
0
LINE
8
BLACK
6
CONTINUOUS
10
209.769
20
-61.7622
11
209.787
21
-61.7679
0
LINE
8
BLACK
6
CONTINUOUS
10
195.851
20
-63.03
11
197.063
21
-76.8771
0
LINE
8
BLACK
6
CONTINUOUS
10
197.063
20
-76.8771
11
210.96
21
-75.6613
0
LINE
8
BLACK
6
CONTINUOUS
10
210.96
20
-75.6613
11
209.748
21
-61.8142
0
LINE
8
BLACK
6
CONTINUOUS
10
209.748
20
-61.8142
11
195.851
21
-63.03
0
LINE
8
BLACK
6
CONTINUOUS
10
81.2509
20
-62.0066
11
81.2679
21
-62.0154
0
LINE
8
BLACK
6
CONTINUOUS
10
81.2679
20
-62.0154
11
81.2737
21
-62.0337
0
LINE
8
BLACK
6
CONTINUOUS
10
81.2737
20
-62.0337
11
80.0578
21
-75.9306
0
LINE
8
BLACK
6
CONTINUOUS
10
80.0578
20
-75.9306
11
80.049
21
-75.9476
0
LINE
8
BLACK
6
CONTINUOUS
10
80.049
20
-75.9476
11
80.0308
21
-75.9533
0
LINE
8
BLACK
6
CONTINUOUS
10
80.0308
20
-75.9533
11
66.084
21
-74.7331
0
LINE
8
BLACK
6
CONTINUOUS
10
66.084
20
-74.7331
11
66.0671
21
-74.7243
0
LINE
8
BLACK
6
CONTINUOUS
10
66.0671
20
-74.7243
11
66.0613
21
-74.7061
0
LINE
8
BLACK
6
CONTINUOUS
10
66.0613
20
-74.7061
11
66.0613
21
-74.7061
0
LINE
8
BLACK
6
CONTINUOUS
10
66.0613
20
-74.7061
11
67.2771
21
-60.8091
0
LINE
8
BLACK
6
CONTINUOUS
10
67.2771
20
-60.8091
11
67.286
21
-60.7922
0
LINE
8
BLACK
6
CONTINUOUS
10
67.286
20
-60.7922
11
67.3042
21
-60.7864
0
LINE
8
BLACK
6
CONTINUOUS
10
67.3042
20
-60.7864
11
81.2509
21
-62.0066
0
LINE
8
BLACK
6
CONTINUOUS
10
66.1133
20
-74.6855
11
80.0102
21
-75.9013
0
LINE
8
BLACK
6
CONTINUOUS
10
80.0102
20
-75.9013
11
81.2217
21
-62.0542
0
LINE
8
BLACK
6
CONTINUOUS
10
81.2217
20
-62.0542
11
67.3248
21
-60.8384
0
LINE
8
BLACK
6
CONTINUOUS
10
67.3248
20
-60.8384
11
66.1133
21
-74.6855
0
LINE
8
BLACK
6
CONTINUOUS
10
228.764
20
-60.1076
11
228.773
21
-60.1246
0
LINE
8
BLACK
6
CONTINUOUS
10
228.773
20
-60.1246
11
229.989
21
-74.0215
0
LINE
8
BLACK
6
CONTINUOUS
10
229.989
20
-74.0215
11
229.983
21
-74.0398
0
LINE
8
BLACK
6
CONTINUOUS
10
229.983
20
-74.0398
11
229.966
21
-74.0486
0
LINE
8
BLACK
6
CONTINUOUS
10
229.966
20
-74.0486
11
216.02
21
-75.2688
0
LINE
8
BLACK
6
CONTINUOUS
10
216.02
20
-75.2688
11
216.001
21
-75.263
0
LINE
8
BLACK
6
CONTINUOUS
10
216.001
20
-75.263
11
215.993
21
-75.2461
0
LINE
8
BLACK
6
CONTINUOUS
10
215.993
20
-75.2461
11
214.777
21
-61.3491
0
LINE
8
BLACK
6
CONTINUOUS
10
214.777
20
-61.3491
11
214.782
21
-61.3309
0
LINE
8
BLACK
6
CONTINUOUS
10
214.782
20
-61.3309
11
214.799
21
-61.3221
0
LINE
8
BLACK
6
CONTINUOUS
10
214.799
20
-61.3221
11
228.746
21
-60.1019
0
LINE
8
BLACK
6
CONTINUOUS
10
228.746
20
-60.1019
11
228.764
21
-60.1076
0
LINE
8
BLACK
6
CONTINUOUS
10
214.829
20
-61.3697
11
216.04
21
-75.2168
0
LINE
8
BLACK
6
CONTINUOUS
10
216.04
20
-75.2168
11
229.937
21
-74.001
0
LINE
8
BLACK
6
CONTINUOUS
10
229.937
20
-74.001
11
228.726
21
-60.1539
0
LINE
8
BLACK
6
CONTINUOUS
10
228.726
20
-60.1539
11
214.829
21
-61.3697
0
LINE
8
BLACK
6
CONTINUOUS
10
39.3115
20
-60.686
11
39.3292
21
-60.6933
0
LINE
8
BLACK
6
CONTINUOUS
10
39.3292
20
-60.6933
11
39.3365
21
-60.711
0
LINE
8
BLACK
6
CONTINUOUS
10
39.3365
20
-60.711
11
39.3365
21
-74.661
0
LINE
8
BLACK
6
CONTINUOUS
10
39.3365
20
-74.661
11
39.3292
21
-74.6787
0
LINE
8
BLACK
6
CONTINUOUS
10
39.3292
20
-74.6787
11
39.3115
21
-74.686
0
LINE
8
BLACK
6
CONTINUOUS
10
39.3115
20
-74.686
11
25.3115
21
-74.686
0
LINE
8
BLACK
6
CONTINUOUS
10
25.3115
20
-74.686
11
25.2938
21
-74.6787
0
LINE
8
BLACK
6
CONTINUOUS
10
25.2938
20
-74.6787
11
25.2865
21
-74.661
0
LINE
8
BLACK
6
CONTINUOUS
10
25.2865
20
-74.661
11
25.2865
21
-60.711
0
LINE
8
BLACK
6
CONTINUOUS
10
25.2865
20
-60.711
11
25.2938
21
-60.6933
0
LINE
8
BLACK
6
CONTINUOUS
10
25.2938
20
-60.6933
11
25.3115
21
-60.686
0
LINE
8
BLACK
6
CONTINUOUS
10
25.3115
20
-60.686
11
39.3115
21
-60.686
0
LINE
8
BLACK
6
CONTINUOUS
10
25.3365
20
-60.736
11
25.3365
21
-74.636
0
LINE
8
BLACK
6
CONTINUOUS
10
25.3365
20
-74.636
11
39.2865
21
-74.636
0
LINE
8
BLACK
6
CONTINUOUS
10
39.2865
20
-74.636
11
39.2865
21
-60.736
0
LINE
8
BLACK
6
CONTINUOUS
10
39.2865
20
-60.736
11
25.3365
21
-60.736
0
LINE
8
BLACK
6
CONTINUOUS
10
60.7427
20
-60.686
11
60.7604
21
-60.6933
0
LINE
8
BLACK
6
CONTINUOUS
10
60.7604
20
-60.6933
11
60.7677
21
-60.711
0
LINE
8
BLACK
6
CONTINUOUS
10
60.7677
20
-60.711
11
60.7677
21
-74.661
0
LINE
8
BLACK
6
CONTINUOUS
10
60.7677
20
-74.661
11
60.7604
21
-74.6787
0
LINE
8
BLACK
6
CONTINUOUS
10
60.7604
20
-74.6787
11
60.7427
21
-74.686
0
LINE
8
BLACK
6
CONTINUOUS
10
60.7427
20
-74.686
11
46.7428
21
-74.686
0
LINE
8
BLACK
6
CONTINUOUS
10
46.7428
20
-74.686
11
46.7251
21
-74.6787
0
LINE
8
BLACK
6
CONTINUOUS
10
46.7251
20
-74.6787
11
46.7177
21
-74.661
0
LINE
8
BLACK
6
CONTINUOUS
10
46.7177
20
-74.661
11
46.7177
21
-74.661
0
LINE
8
BLACK
6
CONTINUOUS
10
46.7177
20
-74.661
11
46.7177
21
-60.711
0
LINE
8
BLACK
6
CONTINUOUS
10
46.7177
20
-60.711
11
46.7251
21
-60.6933
0
LINE
8
BLACK
6
CONTINUOUS
10
46.7251
20
-60.6933
11
46.7428
21
-60.686
0
LINE
8
BLACK
6
CONTINUOUS
10
46.7428
20
-60.686
11
60.7427
21
-60.686
0
LINE
8
BLACK
6
CONTINUOUS
10
46.7677
20
-60.736
11
46.7677
21
-74.636
0
LINE
8
BLACK
6
CONTINUOUS
10
46.7677
20
-74.636
11
60.7177
21
-74.636
0
LINE
8
BLACK
6
CONTINUOUS
10
60.7177
20
-74.636
11
60.7177
21
-60.736
0
LINE
8
BLACK
6
CONTINUOUS
10
60.7177
20
-60.736
11
46.7677
21
-60.736
0
LINE
8
BLACK
6
CONTINUOUS
10
249.242
20
-59.2255
11
249.26
21
-59.2328
0
LINE
8
BLACK
6
CONTINUOUS
10
249.26
20
-59.2328
11
249.267
21
-59.2505
0
LINE
8
BLACK
6
CONTINUOUS
10
249.267
20
-59.2505
11
249.267
21
-73.2005
0
LINE
8
BLACK
6
CONTINUOUS
10
249.267
20
-73.2005
11
249.26
21
-73.2182
0
LINE
8
BLACK
6
CONTINUOUS
10
249.26
20
-73.2182
11
249.242
21
-73.2255
0
LINE
8
BLACK
6
CONTINUOUS
10
249.242
20
-73.2255
11
235.242
21
-73.2255
0
LINE
8
BLACK
6
CONTINUOUS
10
235.242
20
-73.2255
11
235.225
21
-73.2182
0
LINE
8
BLACK
6
CONTINUOUS
10
235.225
20
-73.2182
11
235.218
21
-73.2005
0
LINE
8
BLACK
6
CONTINUOUS
10
235.218
20
-73.2005
11
235.218
21
-73.2005
0
LINE
8
BLACK
6
CONTINUOUS
10
235.218
20
-73.2005
11
235.218
21
-59.2505
0
LINE
8
BLACK
6
CONTINUOUS
10
235.218
20
-59.2505
11
235.225
21
-59.2328
0
LINE
8
BLACK
6
CONTINUOUS
10
235.225
20
-59.2328
11
235.242
21
-59.2255
0
LINE
8
BLACK
6
CONTINUOUS
10
235.242
20
-59.2255
11
249.242
21
-59.2255
0
LINE
8
BLACK
6
CONTINUOUS
10
235.267
20
-59.2755
11
235.267
21
-73.1755
0
LINE
8
BLACK
6
CONTINUOUS
10
235.267
20
-73.1755
11
249.218
21
-73.1755
0
LINE
8
BLACK
6
CONTINUOUS
10
249.218
20
-73.1755
11
249.218
21
-59.2755
0
LINE
8
BLACK
6
CONTINUOUS
10
249.218
20
-59.2755
11
235.267
21
-59.2755
0
LINE
8
BLACK
6
CONTINUOUS
10
270.705
20
-59.2255
11
270.723
21
-59.2328
0
LINE
8
BLACK
6
CONTINUOUS
10
270.723
20
-59.2328
11
270.731
21
-59.2505
0
LINE
8
BLACK
6
CONTINUOUS
10
270.731
20
-59.2505
11
270.731
21
-73.2005
0
LINE
8
BLACK
6
CONTINUOUS
10
270.731
20
-73.2005
11
270.723
21
-73.2182
0
LINE
8
BLACK
6
CONTINUOUS
10
270.723
20
-73.2182
11
270.705
21
-73.2255
0
LINE
8
BLACK
6
CONTINUOUS
10
270.705
20
-73.2255
11
256.705
21
-73.2255
0
LINE
8
BLACK
6
CONTINUOUS
10
256.705
20
-73.2255
11
256.688
21
-73.2182
0
LINE
8
BLACK
6
CONTINUOUS
10
256.688
20
-73.2182
11
256.68
21
-73.2005
0
LINE
8
BLACK
6
CONTINUOUS
10
256.68
20
-73.2005
11
256.68
21
-59.2505
0
LINE
8
BLACK
6
CONTINUOUS
10
256.68
20
-59.2505
11
256.688
21
-59.2328
0
LINE
8
BLACK
6
CONTINUOUS
10
256.688
20
-59.2328
11
256.705
21
-59.2255
0
LINE
8
BLACK
6
CONTINUOUS
10
256.705
20
-59.2255
11
270.705
21
-59.2255
0
LINE
8
BLACK
6
CONTINUOUS
10
256.731
20
-59.2755
11
256.731
21
-73.1755
0
LINE
8
BLACK
6
CONTINUOUS
10
256.731
20
-73.1755
11
270.68
21
-73.1755
0
LINE
8
BLACK
6
CONTINUOUS
10
270.68
20
-73.1755
11
270.68
21
-59.2755
0
LINE
8
BLACK
6
CONTINUOUS
10
270.68
20
-59.2755
11
256.731
21
-59.2755
0
LINE
8
BLACK
6
CONTINUOUS
10
164.113
20
-49.124
11
164.123
21
-49.1401
0
LINE
8
BLACK
6
CONTINUOUS
10
164.123
20
-49.1401
11
166.545
21
-62.8782
0
LINE
8
BLACK
6
CONTINUOUS
10
166.545
20
-62.8782
11
166.545
21
-62.8782
0
LINE
8
BLACK
6
CONTINUOUS
10
166.545
20
-62.8782
11
166.541
21
-62.8968
0
LINE
8
BLACK
6
CONTINUOUS
10
166.541
20
-62.8968
11
166.525
21
-62.9071
0
LINE
8
BLACK
6
CONTINUOUS
10
166.525
20
-62.9071
11
152.738
21
-65.3382
0
LINE
8
BLACK
6
CONTINUOUS
10
152.738
20
-65.3382
11
152.719
21
-65.3341
0
LINE
8
BLACK
6
CONTINUOUS
10
152.719
20
-65.3341
11
152.709
21
-65.3179
0
LINE
8
BLACK
6
CONTINUOUS
10
152.709
20
-65.3179
11
150.286
21
-51.5799
0
LINE
8
BLACK
6
CONTINUOUS
10
150.286
20
-51.5799
11
150.29
21
-51.5612
0
LINE
8
BLACK
6
CONTINUOUS
10
150.29
20
-51.5612
11
150.307
21
-51.5509
0
LINE
8
BLACK
6
CONTINUOUS
10
150.307
20
-51.5509
11
164.094
21
-49.1198
0
LINE
8
BLACK
6
CONTINUOUS
10
164.094
20
-49.1198
11
164.094
21
-49.1198
0
LINE
8
BLACK
6
CONTINUOUS
10
164.094
20
-49.1198
11
164.113
21
-49.124
0
LINE
8
BLACK
6
CONTINUOUS
10
150.34
20
-51.5958
11
152.754
21
-65.2846
0
LINE
8
BLACK
6
CONTINUOUS
10
152.754
20
-65.2846
11
166.492
21
-62.8622
0
LINE
8
BLACK
6
CONTINUOUS
10
166.492
20
-62.8622
11
164.078
21
-49.1734
0
LINE
8
BLACK
6
CONTINUOUS
10
164.078
20
-49.1734
11
150.34
21
-51.5958
0
LINE
8
BLACK
6
CONTINUOUS
10
136.344
20
-49.9
11
136.36
21
-49.9103
0
LINE
8
BLACK
6
CONTINUOUS
10
136.36
20
-49.9103
11
136.364
21
-49.929
0
LINE
8
BLACK
6
CONTINUOUS
10
136.364
20
-49.929
11
136.364
21
-49.929
0
LINE
8
BLACK
6
CONTINUOUS
10
136.364
20
-49.929
11
133.942
21
-63.6671
0
LINE
8
BLACK
6
CONTINUOUS
10
133.942
20
-63.6671
11
133.942
21
-63.6671
0
LINE
8
BLACK
6
CONTINUOUS
10
133.942
20
-63.6671
11
133.935
21
-63.6771
0
LINE
8
BLACK
6
CONTINUOUS
10
133.935
20
-63.6771
11
133.931
21
-63.6832
0
LINE
8
BLACK
6
CONTINUOUS
10
133.931
20
-63.6832
11
133.913
21
-63.6873
0
LINE
8
BLACK
6
CONTINUOUS
10
133.913
20
-63.6873
11
120.125
21
-61.2563
0
LINE
8
BLACK
6
CONTINUOUS
10
120.125
20
-61.2563
11
120.109
21
-61.246
0
LINE
8
BLACK
6
CONTINUOUS
10
120.109
20
-61.246
11
120.105
21
-61.2273
0
LINE
8
BLACK
6
CONTINUOUS
10
120.105
20
-61.2273
11
120.105
21
-61.2273
0
LINE
8
BLACK
6
CONTINUOUS
10
120.105
20
-61.2273
11
122.528
21
-47.4892
0
LINE
8
BLACK
6
CONTINUOUS
10
122.528
20
-47.4892
11
122.538
21
-47.4731
0
LINE
8
BLACK
6
CONTINUOUS
10
122.538
20
-47.4731
11
122.556
21
-47.469
0
LINE
8
BLACK
6
CONTINUOUS
10
122.556
20
-47.469
11
136.344
21
-49.9
0
LINE
8
BLACK
6
CONTINUOUS
10
120.159
20
-61.2114
11
133.897
21
-63.6338
0
LINE
8
BLACK
6
CONTINUOUS
10
133.897
20
-63.6338
11
136.31
21
-49.9449
0
LINE
8
BLACK
6
CONTINUOUS
10
136.31
20
-49.9449
11
122.572
21
-47.5225
0
LINE
8
BLACK
6
CONTINUOUS
10
122.572
20
-47.5225
11
120.159
21
-61.2114
0
LINE
8
BLACK
6
CONTINUOUS
10
182.873
20
-45.816
11
182.883
21
-45.8321
0
LINE
8
BLACK
6
CONTINUOUS
10
182.883
20
-45.8321
11
185.306
21
-59.5702
0
LINE
8
BLACK
6
CONTINUOUS
10
185.306
20
-59.5702
11
185.306
21
-59.5702
0
LINE
8
BLACK
6
CONTINUOUS
10
185.306
20
-59.5702
11
185.302
21
-59.5888
0
LINE
8
BLACK
6
CONTINUOUS
10
185.302
20
-59.5888
11
185.286
21
-59.5991
0
LINE
8
BLACK
6
CONTINUOUS
10
185.286
20
-59.5991
11
171.498
21
-62.0302
0
LINE
8
BLACK
6
CONTINUOUS
10
171.498
20
-62.0302
11
171.48
21
-62.0261
0
LINE
8
BLACK
6
CONTINUOUS
10
171.48
20
-62.0261
11
171.469
21
-62.0099
0
LINE
8
BLACK
6
CONTINUOUS
10
171.469
20
-62.0099
11
171.469
21
-62.0099
0
LINE
8
BLACK
6
CONTINUOUS
10
171.469
20
-62.0099
11
169.047
21
-48.2719
0
LINE
8
BLACK
6
CONTINUOUS
10
169.047
20
-48.2719
11
169.051
21
-48.2532
0
LINE
8
BLACK
6
CONTINUOUS
10
169.051
20
-48.2532
11
169.067
21
-48.2429
0
LINE
8
BLACK
6
CONTINUOUS
10
169.067
20
-48.2429
11
182.855
21
-45.8118
0
LINE
8
BLACK
6
CONTINUOUS
10
182.855
20
-45.8118
11
182.855
21
-45.8118
0
LINE
8
BLACK
6
CONTINUOUS
10
182.855
20
-45.8118
11
182.873
21
-45.816
0
LINE
8
BLACK
6
CONTINUOUS
10
169.101
20
-48.2878
11
171.514
21
-61.9766
0
LINE
8
BLACK
6
CONTINUOUS
10
171.514
20
-61.9766
11
185.252
21
-59.5542
0
LINE
8
BLACK
6
CONTINUOUS
10
185.252
20
-59.5542
11
182.839
21
-45.8654
0
LINE
8
BLACK
6
CONTINUOUS
10
182.839
20
-45.8654
11
169.101
21
-48.2878
0
LINE
8
BLACK
6
CONTINUOUS
10
117.583
20
-46.592
11
117.599
21
-46.6023
0
LINE
8
BLACK
6
CONTINUOUS
10
117.599
20
-46.6023
11
117.603
21
-46.621
0
LINE
8
BLACK
6
CONTINUOUS
10
117.603
20
-46.621
11
117.603
21
-46.621
0
LINE
8
BLACK
6
CONTINUOUS
10
117.603
20
-46.621
11
115.181
21
-60.3591
0
LINE
8
BLACK
6
CONTINUOUS
10
115.181
20
-60.3591
11
115.181
21
-60.3591
0
LINE
8
BLACK
6
CONTINUOUS
10
115.181
20
-60.3591
11
115.175
21
-60.3691
0
LINE
8
BLACK
6
CONTINUOUS
10
115.175
20
-60.3691
11
115.171
21
-60.3752
0
LINE
8
BLACK
6
CONTINUOUS
10
115.171
20
-60.3752
11
115.152
21
-60.3793
0
LINE
8
BLACK
6
CONTINUOUS
10
115.152
20
-60.3793
11
101.365
21
-57.9483
0
LINE
8
BLACK
6
CONTINUOUS
10
101.365
20
-57.9483
11
101.349
21
-57.938
0
LINE
8
BLACK
6
CONTINUOUS
10
101.349
20
-57.938
11
101.345
21
-57.9193
0
LINE
8
BLACK
6
CONTINUOUS
10
101.345
20
-57.9193
11
101.345
21
-57.9193
0
LINE
8
BLACK
6
CONTINUOUS
10
101.345
20
-57.9193
11
103.767
21
-44.1812
0
LINE
8
BLACK
6
CONTINUOUS
10
103.767
20
-44.1812
11
103.777
21
-44.1651
0
LINE
8
BLACK
6
CONTINUOUS
10
103.777
20
-44.1651
11
103.796
21
-44.161
0
LINE
8
BLACK
6
CONTINUOUS
10
103.796
20
-44.161
11
117.583
21
-46.592
0
LINE
8
BLACK
6
CONTINUOUS
10
101.398
20
-57.9034
11
115.136
21
-60.3258
0
LINE
8
BLACK
6
CONTINUOUS
10
115.136
20
-60.3258
11
117.55
21
-46.6369
0
LINE
8
BLACK
6
CONTINUOUS
10
117.55
20
-46.6369
11
103.812
21
-44.2145
0
LINE
8
BLACK
6
CONTINUOUS
10
103.812
20
-44.2145
11
101.398
21
-57.9034
0
LINE
8
BLACK
6
CONTINUOUS
10
203.382
20
-43.2055
11
203.391
21
-43.2225
0
LINE
8
BLACK
6
CONTINUOUS
10
203.391
20
-43.2225
11
204.607
21
-57.1194
0
LINE
8
BLACK
6
CONTINUOUS
10
204.607
20
-57.1194
11
204.607
21
-57.1194
0
LINE
8
BLACK
6
CONTINUOUS
10
204.607
20
-57.1194
11
204.601
21
-57.1377
0
LINE
8
BLACK
6
CONTINUOUS
10
204.601
20
-57.1377
11
204.584
21
-57.1465
0
LINE
8
BLACK
6
CONTINUOUS
10
204.584
20
-57.1465
11
190.637
21
-58.3667
0
LINE
8
BLACK
6
CONTINUOUS
10
190.637
20
-58.3667
11
190.619
21
-58.3609
0
LINE
8
BLACK
6
CONTINUOUS
10
190.619
20
-58.3609
11
190.61
21
-58.3439
0
LINE
8
BLACK
6
CONTINUOUS
10
190.61
20
-58.3439
11
189.394
21
-44.447
0
LINE
8
BLACK
6
CONTINUOUS
10
189.394
20
-44.447
11
189.4
21
-44.4288
0
LINE
8
BLACK
6
CONTINUOUS
10
189.4
20
-44.4288
11
189.417
21
-44.4199
0
LINE
8
BLACK
6
CONTINUOUS
10
189.417
20
-44.4199
11
203.364
21
-43.1998
0
LINE
8
BLACK
6
CONTINUOUS
10
203.364
20
-43.1998
11
203.382
21
-43.2055
0
LINE
8
BLACK
6
CONTINUOUS
10
189.446
20
-44.4676
11
190.658
21
-58.3147
0
LINE
8
BLACK
6
CONTINUOUS
10
190.658
20
-58.3147
11
204.555
21
-57.0989
0
LINE
8
BLACK
6
CONTINUOUS
10
204.555
20
-57.0989
11
203.343
21
-43.2517
0
LINE
8
BLACK
6
CONTINUOUS
10
203.343
20
-43.2517
11
189.446
21
-44.4676
0
LINE
8
BLACK
6
CONTINUOUS
10
97.1834
20
-44.3127
11
97.2004
21
-44.3215
0
LINE
8
BLACK
6
CONTINUOUS
10
97.2004
20
-44.3215
11
97.2061
21
-44.3397
0
LINE
8
BLACK
6
CONTINUOUS
10
97.2061
20
-44.3397
11
95.9903
21
-58.2367
0
LINE
8
BLACK
6
CONTINUOUS
10
95.9903
20
-58.2367
11
95.9815
21
-58.2536
0
LINE
8
BLACK
6
CONTINUOUS
10
95.9815
20
-58.2536
11
95.9632
21
-58.2594
0
LINE
8
BLACK
6
CONTINUOUS
10
95.9632
20
-58.2594
11
82.0165
21
-57.0392
0
LINE
8
BLACK
6
CONTINUOUS
10
82.0165
20
-57.0392
11
81.9995
21
-57.0304
0
LINE
8
BLACK
6
CONTINUOUS
10
81.9995
20
-57.0304
11
81.9938
21
-57.0121
0
LINE
8
BLACK
6
CONTINUOUS
10
81.9938
20
-57.0121
11
83.2096
21
-43.1152
0
LINE
8
BLACK
6
CONTINUOUS
10
83.2096
20
-43.1152
11
83.2184
21
-43.0982
0
LINE
8
BLACK
6
CONTINUOUS
10
83.2184
20
-43.0982
11
83.2367
21
-43.0925
0
LINE
8
BLACK
6
CONTINUOUS
10
83.2367
20
-43.0925
11
97.1834
21
-44.3127
0
LINE
8
BLACK
6
CONTINUOUS
10
82.0458
20
-56.9916
11
95.9427
21
-58.2074
0
LINE
8
BLACK
6
CONTINUOUS
10
95.9427
20
-58.2074
11
97.1541
21
-44.3603
0
LINE
8
BLACK
6
CONTINUOUS
10
97.1541
20
-44.3603
11
83.2572
21
-43.1445
0
LINE
8
BLACK
6
CONTINUOUS
10
83.2572
20
-43.1445
11
82.0458
21
-56.9916
0
LINE
8
BLACK
6
CONTINUOUS
10
222.36
20
-41.5452
11
222.369
21
-41.5622
0
LINE
8
BLACK
6
CONTINUOUS
10
222.369
20
-41.5622
11
223.584
21
-55.4591
0
LINE
8
BLACK
6
CONTINUOUS
10
223.584
20
-55.4591
11
223.579
21
-55.4773
0
LINE
8
BLACK
6
CONTINUOUS
10
223.579
20
-55.4773
11
223.562
21
-55.4862
0
LINE
8
BLACK
6
CONTINUOUS
10
223.562
20
-55.4862
11
209.615
21
-56.7064
0
LINE
8
BLACK
6
CONTINUOUS
10
209.615
20
-56.7064
11
209.597
21
-56.7006
0
LINE
8
BLACK
6
CONTINUOUS
10
209.597
20
-56.7006
11
209.588
21
-56.6836
0
LINE
8
BLACK
6
CONTINUOUS
10
209.588
20
-56.6836
11
208.372
21
-42.7867
0
LINE
8
BLACK
6
CONTINUOUS
10
208.372
20
-42.7867
11
208.378
21
-42.7685
0
LINE
8
BLACK
6
CONTINUOUS
10
208.378
20
-42.7685
11
208.395
21
-42.7596
0
LINE
8
BLACK
6
CONTINUOUS
10
208.395
20
-42.7596
11
222.341
21
-41.5394
0
LINE
8
BLACK
6
CONTINUOUS
10
222.341
20
-41.5394
11
222.36
21
-41.5452
0
LINE
8
BLACK
6
CONTINUOUS
10
208.424
20
-42.8073
11
209.635
21
-56.6544
0
LINE
8
BLACK
6
CONTINUOUS
10
209.635
20
-56.6544
11
223.532
21
-55.4385
0
LINE
8
BLACK
6
CONTINUOUS
10
223.532
20
-55.4385
11
222.321
21
-41.5914
0
LINE
8
BLACK
6
CONTINUOUS
10
222.321
20
-41.5914
11
208.424
21
-42.8073
0
LINE
8
BLACK
6
CONTINUOUS
10
78.1669
20
-42.614
11
78.1839
21
-42.6228
0
LINE
8
BLACK
6
CONTINUOUS
10
78.1839
20
-42.6228
11
78.1896
21
-42.6411
0
LINE
8
BLACK
6
CONTINUOUS
10
78.1896
20
-42.6411
11
76.9738
21
-56.538
0
LINE
8
BLACK
6
CONTINUOUS
10
76.9738
20
-56.538
11
76.965
21
-56.555
0
LINE
8
BLACK
6
CONTINUOUS
10
76.965
20
-56.555
11
76.9467
21
-56.5607
0
LINE
8
BLACK
6
CONTINUOUS
10
76.9467
20
-56.5607
11
63
21
-55.3406
0
LINE
8
BLACK
6
CONTINUOUS
10
63
20
-55.3406
11
62.983
21
-55.3317
0
LINE
8
BLACK
6
CONTINUOUS
10
62.983
20
-55.3317
11
62.9773
21
-55.3135
0
LINE
8
BLACK
6
CONTINUOUS
10
62.9773
20
-55.3135
11
64.1931
21
-41.4166
0
LINE
8
BLACK
6
CONTINUOUS
10
64.1931
20
-41.4166
11
64.2019
21
-41.3996
0
LINE
8
BLACK
6
CONTINUOUS
10
64.2019
20
-41.3996
11
64.2202
21
-41.3938
0
LINE
8
BLACK
6
CONTINUOUS
10
64.2202
20
-41.3938
11
78.1669
21
-42.614
0
LINE
8
BLACK
6
CONTINUOUS
10
63.0292
20
-55.2929
11
76.9262
21
-56.5087
0
LINE
8
BLACK
6
CONTINUOUS
10
76.9262
20
-56.5087
11
78.1376
21
-42.6616
0
LINE
8
BLACK
6
CONTINUOUS
10
78.1376
20
-42.6616
11
64.2407
21
-41.4458
0
LINE
8
BLACK
6
CONTINUOUS
10
64.2407
20
-41.4458
11
63.0292
21
-55.2929
0
LINE
8
BLACK
6
CONTINUOUS
10
38.613
20
-41.636
11
38.6307
21
-41.6433
0
LINE
8
BLACK
6
CONTINUOUS
10
38.6307
20
-41.6433
11
38.638
21
-41.661
0
LINE
8
BLACK
6
CONTINUOUS
10
38.638
20
-41.661
11
38.638
21
-55.611
0
LINE
8
BLACK
6
CONTINUOUS
10
38.638
20
-55.611
11
38.6307
21
-55.6287
0
LINE
8
BLACK
6
CONTINUOUS
10
38.6307
20
-55.6287
11
38.613
21
-55.636
0
LINE
8
BLACK
6
CONTINUOUS
10
38.613
20
-55.636
11
24.613
21
-55.636
0
LINE
8
BLACK
6
CONTINUOUS
10
24.613
20
-55.636
11
24.5953
21
-55.6287
0
LINE
8
BLACK
6
CONTINUOUS
10
24.5953
20
-55.6287
11
24.588
21
-55.611
0
LINE
8
BLACK
6
CONTINUOUS
10
24.588
20
-55.611
11
24.588
21
-41.661
0
LINE
8
BLACK
6
CONTINUOUS
10
24.588
20
-41.661
11
24.5953
21
-41.6433
0
LINE
8
BLACK
6
CONTINUOUS
10
24.5953
20
-41.6433
11
24.613
21
-41.636
0
LINE
8
BLACK
6
CONTINUOUS
10
24.613
20
-41.636
11
38.613
21
-41.636
0
LINE
8
BLACK
6
CONTINUOUS
10
24.638
20
-41.686
11
24.638
21
-55.586
0
LINE
8
BLACK
6
CONTINUOUS
10
24.638
20
-55.586
11
38.588
21
-55.586
0
LINE
8
BLACK
6
CONTINUOUS
10
38.588
20
-55.586
11
38.588
21
-41.686
0
LINE
8
BLACK
6
CONTINUOUS
10
38.588
20
-41.686
11
24.638
21
-41.686
0
LINE
8
BLACK
6
CONTINUOUS
10
57.663
20
-41.636
11
57.6807
21
-41.6433
0
LINE
8
BLACK
6
CONTINUOUS
10
57.6807
20
-41.6433
11
57.688
21
-41.661
0
LINE
8
BLACK
6
CONTINUOUS
10
57.688
20
-41.661
11
57.688
21
-55.611
0
LINE
8
BLACK
6
CONTINUOUS
10
57.688
20
-55.611
11
57.6807
21
-55.6287
0
LINE
8
BLACK
6
CONTINUOUS
10
57.6807
20
-55.6287
11
57.663
21
-55.636
0
LINE
8
BLACK
6
CONTINUOUS
10
57.663
20
-55.636
11
43.663
21
-55.636
0
LINE
8
BLACK
6
CONTINUOUS
10
43.663
20
-55.636
11
43.6453
21
-55.6287
0
LINE
8
BLACK
6
CONTINUOUS
10
43.6453
20
-55.6287
11
43.638
21
-55.611
0
LINE
8
BLACK
6
CONTINUOUS
10
43.638
20
-55.611
11
43.638
21
-41.661
0
LINE
8
BLACK
6
CONTINUOUS
10
43.638
20
-41.661
11
43.6453
21
-41.6433
0
LINE
8
BLACK
6
CONTINUOUS
10
43.6453
20
-41.6433
11
43.663
21
-41.636
0
LINE
8
BLACK
6
CONTINUOUS
10
43.663
20
-41.636
11
57.663
21
-41.636
0
LINE
8
BLACK
6
CONTINUOUS
10
43.688
20
-41.686
11
43.688
21
-55.586
0
LINE
8
BLACK
6
CONTINUOUS
10
43.688
20
-55.586
11
57.638
21
-55.586
0
LINE
8
BLACK
6
CONTINUOUS
10
57.638
20
-55.586
11
57.638
21
-41.686
0
LINE
8
BLACK
6
CONTINUOUS
10
57.638
20
-41.686
11
43.688
21
-41.686
0
LINE
8
BLACK
6
CONTINUOUS
10
242.81
20
-40.1815
11
242.828
21
-40.1888
0
LINE
8
BLACK
6
CONTINUOUS
10
242.828
20
-40.1888
11
242.835
21
-40.2065
0
LINE
8
BLACK
6
CONTINUOUS
10
242.835
20
-40.2065
11
242.835
21
-54.1565
0
LINE
8
BLACK
6
CONTINUOUS
10
242.835
20
-54.1565
11
242.828
21
-54.1742
0
LINE
8
BLACK
6
CONTINUOUS
10
242.828
20
-54.1742
11
242.81
21
-54.1815
0
LINE
8
BLACK
6
CONTINUOUS
10
242.81
20
-54.1815
11
228.81
21
-54.1815
0
LINE
8
BLACK
6
CONTINUOUS
10
228.81
20
-54.1815
11
228.792
21
-54.1742
0
LINE
8
BLACK
6
CONTINUOUS
10
228.792
20
-54.1742
11
228.785
21
-54.1565
0
LINE
8
BLACK
6
CONTINUOUS
10
228.785
20
-54.1565
11
228.785
21
-54.1565
0
LINE
8
BLACK
6
CONTINUOUS
10
228.785
20
-54.1565
11
228.785
21
-40.2065
0
LINE
8
BLACK
6
CONTINUOUS
10
228.785
20
-40.2065
11
228.792
21
-40.1888
0
LINE
8
BLACK
6
CONTINUOUS
10
228.792
20
-40.1888
11
228.81
21
-40.1815
0
LINE
8
BLACK
6
CONTINUOUS
10
228.81
20
-40.1815
11
242.81
21
-40.1815
0
LINE
8
BLACK
6
CONTINUOUS
10
228.835
20
-40.2315
11
228.835
21
-54.1315
0
LINE
8
BLACK
6
CONTINUOUS
10
228.835
20
-54.1315
11
242.785
21
-54.1315
0
LINE
8
BLACK
6
CONTINUOUS
10
242.785
20
-54.1315
11
242.785
21
-40.2315
0
LINE
8
BLACK
6
CONTINUOUS
10
242.785
20
-40.2315
11
228.835
21
-40.2315
0
LINE
8
BLACK
6
CONTINUOUS
10
266.642
20
-40.1755
11
266.659
21
-40.1828
0
LINE
8
BLACK
6
CONTINUOUS
10
266.659
20
-40.1828
11
266.666
21
-40.2005
0
LINE
8
BLACK
6
CONTINUOUS
10
266.666
20
-40.2005
11
266.666
21
-54.1505
0
LINE
8
BLACK
6
CONTINUOUS
10
266.666
20
-54.1505
11
266.659
21
-54.1682
0
LINE
8
BLACK
6
CONTINUOUS
10
266.659
20
-54.1682
11
266.642
21
-54.1755
0
LINE
8
BLACK
6
CONTINUOUS
10
266.642
20
-54.1755
11
252.641
21
-54.1755
0
LINE
8
BLACK
6
CONTINUOUS
10
252.641
20
-54.1755
11
252.624
21
-54.1682
0
LINE
8
BLACK
6
CONTINUOUS
10
252.624
20
-54.1682
11
252.617
21
-54.1505
0
LINE
8
BLACK
6
CONTINUOUS
10
252.617
20
-54.1505
11
252.617
21
-54.1505
0
LINE
8
BLACK
6
CONTINUOUS
10
252.617
20
-54.1505
11
252.617
21
-40.2005
0
LINE
8
BLACK
6
CONTINUOUS
10
252.617
20
-40.2005
11
252.624
21
-40.1828
0
LINE
8
BLACK
6
CONTINUOUS
10
252.624
20
-40.1828
11
252.641
21
-40.1755
0
LINE
8
BLACK
6
CONTINUOUS
10
252.641
20
-40.1755
11
266.642
21
-40.1755
0
LINE
8
BLACK
6
CONTINUOUS
10
252.666
20
-40.2255
11
252.666
21
-54.1255
0
LINE
8
BLACK
6
CONTINUOUS
10
252.666
20
-54.1255
11
266.616
21
-54.1255
0
LINE
8
BLACK
6
CONTINUOUS
10
266.616
20
-54.1255
11
266.616
21
-40.2255
0
LINE
8
BLACK
6
CONTINUOUS
10
266.616
20
-40.2255
11
252.666
21
-40.2255
0
LINE
8
BLACK
6
CONTINUOUS
10
273.177
20
-37.542
11
273.463
21
-37.558
0
LINE
8
BLACK
6
CONTINUOUS
10
273.463
20
-37.558
11
273.744
21
-37.6059
0
LINE
8
BLACK
6
CONTINUOUS
10
273.744
20
-37.6059
11
274.019
21
-37.6851
0
LINE
8
BLACK
6
CONTINUOUS
10
274.019
20
-37.6851
11
274.283
21
-37.7945
0
LINE
8
BLACK
6
CONTINUOUS
10
274.283
20
-37.7945
11
274.534
21
-37.9329
0
LINE
8
BLACK
6
CONTINUOUS
10
274.534
20
-37.9329
11
274.767
21
-38.0983
0
LINE
8
BLACK
6
CONTINUOUS
10
274.767
20
-38.0983
11
274.98
21
-38.2889
0
LINE
8
BLACK
6
CONTINUOUS
10
274.98
20
-38.2889
11
275.171
21
-38.5021
0
LINE
8
BLACK
6
CONTINUOUS
10
275.171
20
-38.5021
11
275.336
21
-38.7353
0
LINE
8
BLACK
6
CONTINUOUS
10
275.336
20
-38.7353
11
275.474
21
-38.9856
0
LINE
8
BLACK
6
CONTINUOUS
10
275.474
20
-38.9856
11
275.584
21
-39.2498
0
LINE
8
BLACK
6
CONTINUOUS
10
275.584
20
-39.2498
11
275.663
21
-39.5246
0
LINE
8
BLACK
6
CONTINUOUS
10
275.663
20
-39.5246
11
275.711
21
-39.8065
0
LINE
8
BLACK
6
CONTINUOUS
10
275.711
20
-39.8065
11
275.727
21
-40.092
0
LINE
8
BLACK
6
CONTINUOUS
10
275.727
20
-40.092
11
275.727
21
-40.092
0
LINE
8
BLACK
6
CONTINUOUS
10
275.727
20
-40.092
11
275.727
21
-93.893
0
LINE
8
BLACK
6
CONTINUOUS
10
275.727
20
-93.893
11
275.711
21
-94.1785
0
LINE
8
BLACK
6
CONTINUOUS
10
275.711
20
-94.1785
11
275.663
21
-94.4604
0
LINE
8
BLACK
6
CONTINUOUS
10
275.663
20
-94.4604
11
275.584
21
-94.7352
0
LINE
8
BLACK
6
CONTINUOUS
10
275.584
20
-94.7352
11
275.474
21
-94.9994
0
LINE
8
BLACK
6
CONTINUOUS
10
275.474
20
-94.9994
11
275.336
21
-95.2497
0
LINE
8
BLACK
6
CONTINUOUS
10
275.336
20
-95.2497
11
275.171
21
-95.4829
0
LINE
8
BLACK
6
CONTINUOUS
10
275.171
20
-95.4829
11
274.98
21
-95.6961
0
LINE
8
BLACK
6
CONTINUOUS
10
274.98
20
-95.6961
11
274.767
21
-95.8867
0
LINE
8
BLACK
6
CONTINUOUS
10
274.767
20
-95.8867
11
274.534
21
-96.0521
0
LINE
8
BLACK
6
CONTINUOUS
10
274.534
20
-96.0521
11
274.283
21
-96.1905
0
LINE
8
BLACK
6
CONTINUOUS
10
274.283
20
-96.1905
11
274.019
21
-96.2999
0
LINE
8
BLACK
6
CONTINUOUS
10
274.019
20
-96.2999
11
273.744
21
-96.3791
0
LINE
8
BLACK
6
CONTINUOUS
10
273.744
20
-96.3791
11
273.463
21
-96.427
0
LINE
8
BLACK
6
CONTINUOUS
10
273.463
20
-96.427
11
273.177
21
-96.443
0
LINE
8
BLACK
6
CONTINUOUS
10
273.177
20
-96.443
11
229.897
21
-96.443
0
LINE
8
BLACK
6
CONTINUOUS
10
229.897
20
-96.443
11
154.335
21
-106.603
0
LINE
8
BLACK
6
CONTINUOUS
10
154.335
20
-106.603
11
154.332
21
-106.602
0
LINE
8
BLACK
6
CONTINUOUS
10
154.332
20
-106.602
11
154.328
21
-106.603
0
LINE
8
BLACK
6
CONTINUOUS
10
154.328
20
-106.603
11
147.978
21
-106.603
0
LINE
8
BLACK
6
CONTINUOUS
10
147.978
20
-106.603
11
141.629
21
-106.603
0
LINE
8
BLACK
6
CONTINUOUS
10
141.629
20
-106.603
11
141.625
21
-106.602
0
LINE
8
BLACK
6
CONTINUOUS
10
141.625
20
-106.602
11
141.622
21
-106.603
0
LINE
8
BLACK
6
CONTINUOUS
10
141.622
20
-106.603
11
66.0602
21
-96.443
0
LINE
8
BLACK
6
CONTINUOUS
10
66.0602
20
-96.443
11
22.78
21
-96.443
0
LINE
8
BLACK
6
CONTINUOUS
10
22.78
20
-96.443
11
22.4945
21
-96.427
0
LINE
8
BLACK
6
CONTINUOUS
10
22.4945
20
-96.427
11
22.2126
21
-96.3791
0
LINE
8
BLACK
6
CONTINUOUS
10
22.2126
20
-96.3791
11
21.9378
21
-96.2999
0
LINE
8
BLACK
6
CONTINUOUS
10
21.9378
20
-96.2999
11
21.6736
21
-96.1905
0
LINE
8
BLACK
6
CONTINUOUS
10
21.6736
20
-96.1905
11
21.4233
21
-96.0521
0
LINE
8
BLACK
6
CONTINUOUS
10
21.4233
20
-96.0521
11
21.1901
21
-95.8867
0
LINE
8
BLACK
6
CONTINUOUS
10
21.1901
20
-95.8867
11
20.9769
21
-95.6961
0
LINE
8
BLACK
6
CONTINUOUS
10
20.9769
20
-95.6961
11
20.7863
21
-95.4829
0
LINE
8
BLACK
6
CONTINUOUS
10
20.7863
20
-95.4829
11
20.6209
21
-95.2497
0
LINE
8
BLACK
6
CONTINUOUS
10
20.6209
20
-95.2497
11
20.4825
21
-94.9994
0
LINE
8
BLACK
6
CONTINUOUS
10
20.4825
20
-94.9994
11
20.3731
21
-94.7352
0
LINE
8
BLACK
6
CONTINUOUS
10
20.3731
20
-94.7352
11
20.2939
21
-94.4604
0
LINE
8
BLACK
6
CONTINUOUS
10
20.2939
20
-94.4604
11
20.246
21
-94.1785
0
LINE
8
BLACK
6
CONTINUOUS
10
20.246
20
-94.1785
11
20.23
21
-93.893
0
LINE
8
BLACK
6
CONTINUOUS
10
20.23
20
-93.893
11
20.23
21
-40.092
0
LINE
8
BLACK
6
CONTINUOUS
10
20.23
20
-40.092
11
20.246
21
-39.8065
0
LINE
8
BLACK
6
CONTINUOUS
10
20.246
20
-39.8065
11
20.2939
21
-39.5246
0
LINE
8
BLACK
6
CONTINUOUS
10
20.2939
20
-39.5246
11
20.3731
21
-39.2498
0
LINE
8
BLACK
6
CONTINUOUS
10
20.3731
20
-39.2498
11
20.4825
21
-38.9856
0
LINE
8
BLACK
6
CONTINUOUS
10
20.4825
20
-38.9856
11
20.6209
21
-38.7353
0
LINE
8
BLACK
6
CONTINUOUS
10
20.6209
20
-38.7353
11
20.7863
21
-38.5021
0
LINE
8
BLACK
6
CONTINUOUS
10
20.7863
20
-38.5021
11
20.9769
21
-38.2889
0
LINE
8
BLACK
6
CONTINUOUS
10
20.9769
20
-38.2889
11
21.1901
21
-38.0983
0
LINE
8
BLACK
6
CONTINUOUS
10
21.1901
20
-38.0983
11
21.4233
21
-37.9329
0
LINE
8
BLACK
6
CONTINUOUS
10
21.4233
20
-37.9329
11
21.6736
21
-37.7945
0
LINE
8
BLACK
6
CONTINUOUS
10
21.6736
20
-37.7945
11
21.9378
21
-37.6851
0
LINE
8
BLACK
6
CONTINUOUS
10
21.9378
20
-37.6851
11
22.2126
21
-37.6059
0
LINE
8
BLACK
6
CONTINUOUS
10
22.2126
20
-37.6059
11
22.4945
21
-37.558
0
LINE
8
BLACK
6
CONTINUOUS
10
22.4945
20
-37.558
11
22.78
21
-37.542
0
LINE
8
BLACK
6
CONTINUOUS
10
22.78
20
-37.542
11
273.177
21
-37.542
0
LINE
8
BLACK
6
CONTINUOUS
10
22.78
20
-37.642
11
22.6318
21
-37.642
0
LINE
8
BLACK
6
CONTINUOUS
10
22.6318
20
-37.642
11
22.3376
21
-37.6777
0
LINE
8
BLACK
6
CONTINUOUS
10
22.3376
20
-37.6777
11
22.0498
21
-37.7487
0
LINE
8
BLACK
6
CONTINUOUS
10
22.0498
20
-37.7487
11
21.7727
21
-37.8538
0
LINE
8
BLACK
6
CONTINUOUS
10
21.7727
20
-37.8538
11
21.5102
21
-37.9915
0
LINE
8
BLACK
6
CONTINUOUS
10
21.5102
20
-37.9915
11
21.2663
21
-38.1599
0
LINE
8
BLACK
6
CONTINUOUS
10
21.2663
20
-38.1599
11
21.0444
21
-38.3564
0
LINE
8
BLACK
6
CONTINUOUS
10
21.0444
20
-38.3564
11
20.8479
21
-38.5783
0
LINE
8
BLACK
6
CONTINUOUS
10
20.8479
20
-38.5783
11
20.6795
21
-38.8222
0
LINE
8
BLACK
6
CONTINUOUS
10
20.6795
20
-38.8222
11
20.5418
21
-39.0847
0
LINE
8
BLACK
6
CONTINUOUS
10
20.5418
20
-39.0847
11
20.4367
21
-39.3618
0
LINE
8
BLACK
6
CONTINUOUS
10
20.4367
20
-39.3618
11
20.3657
21
-39.6496
0
LINE
8
BLACK
6
CONTINUOUS
10
20.3657
20
-39.6496
11
20.33
21
-39.9438
0
LINE
8
BLACK
6
CONTINUOUS
10
20.33
20
-39.9438
11
20.33
21
-40.092
0
LINE
8
BLACK
6
CONTINUOUS
10
20.33
20
-40.092
11
20.33
21
-93.893
0
LINE
8
BLACK
6
CONTINUOUS
10
20.33
20
-93.893
11
20.33
21
-94.0412
0
LINE
8
BLACK
6
CONTINUOUS
10
20.33
20
-94.0412
11
20.3657
21
-94.3354
0
LINE
8
BLACK
6
CONTINUOUS
10
20.3657
20
-94.3354
11
20.4367
21
-94.6232
0
LINE
8
BLACK
6
CONTINUOUS
10
20.4367
20
-94.6232
11
20.5418
21
-94.9003
0
LINE
8
BLACK
6
CONTINUOUS
10
20.5418
20
-94.9003
11
20.6795
21
-95.1628
0
LINE
8
BLACK
6
CONTINUOUS
10
20.6795
20
-95.1628
11
20.8479
21
-95.4067
0
LINE
8
BLACK
6
CONTINUOUS
10
20.8479
20
-95.4067
11
21.0444
21
-95.6286
0
LINE
8
BLACK
6
CONTINUOUS
10
21.0444
20
-95.6286
11
21.2663
21
-95.8251
0
LINE
8
BLACK
6
CONTINUOUS
10
21.2663
20
-95.8251
11
21.5102
21
-95.9935
0
LINE
8
BLACK
6
CONTINUOUS
10
21.5102
20
-95.9935
11
21.7727
21
-96.1312
0
LINE
8
BLACK
6
CONTINUOUS
10
21.7727
20
-96.1312
11
22.0498
21
-96.2363
0
LINE
8
BLACK
6
CONTINUOUS
10
22.0498
20
-96.2363
11
22.3376
21
-96.3073
0
LINE
8
BLACK
6
CONTINUOUS
10
22.3376
20
-96.3073
11
22.6318
21
-96.343
0
LINE
8
BLACK
6
CONTINUOUS
10
22.6318
20
-96.343
11
22.78
21
-96.343
0
LINE
8
BLACK
6
CONTINUOUS
10
22.78
20
-96.343
11
66.0635
21
-96.343
0
LINE
8
BLACK
6
CONTINUOUS
10
66.0635
20
-96.343
11
66.0668
21
-96.3443
0
LINE
8
BLACK
6
CONTINUOUS
10
66.0668
20
-96.3443
11
66.0702
21
-96.3434
0
LINE
8
BLACK
6
CONTINUOUS
10
66.0702
20
-96.3434
11
141.632
21
-106.503
0
LINE
8
BLACK
6
CONTINUOUS
10
141.632
20
-106.503
11
147.978
21
-106.503
0
LINE
8
BLACK
6
CONTINUOUS
10
147.978
20
-106.503
11
154.325
21
-106.503
0
LINE
8
BLACK
6
CONTINUOUS
10
154.325
20
-106.503
11
229.887
21
-96.3434
0
LINE
8
BLACK
6
CONTINUOUS
10
229.887
20
-96.3434
11
229.89
21
-96.3443
0
LINE
8
BLACK
6
CONTINUOUS
10
229.89
20
-96.3443
11
229.893
21
-96.343
0
LINE
8
BLACK
6
CONTINUOUS
10
229.893
20
-96.343
11
273.177
21
-96.343
0
LINE
8
BLACK
6
CONTINUOUS
10
273.177
20
-96.343
11
273.325
21
-96.343
0
LINE
8
BLACK
6
CONTINUOUS
10
273.325
20
-96.343
11
273.619
21
-96.3073
0
LINE
8
BLACK
6
CONTINUOUS
10
273.619
20
-96.3073
11
273.907
21
-96.2363
0
LINE
8
BLACK
6
CONTINUOUS
10
273.907
20
-96.2363
11
274.184
21
-96.1312
0
LINE
8
BLACK
6
CONTINUOUS
10
274.184
20
-96.1312
11
274.447
21
-95.9935
0
LINE
8
BLACK
6
CONTINUOUS
10
274.447
20
-95.9935
11
274.691
21
-95.8251
0
LINE
8
BLACK
6
CONTINUOUS
10
274.691
20
-95.8251
11
274.913
21
-95.6286
0
LINE
8
BLACK
6
CONTINUOUS
10
274.913
20
-95.6286
11
275.109
21
-95.4067
0
LINE
8
BLACK
6
CONTINUOUS
10
275.109
20
-95.4067
11
275.277
21
-95.1628
0
LINE
8
BLACK
6
CONTINUOUS
10
275.277
20
-95.1628
11
275.415
21
-94.9003
0
LINE
8
BLACK
6
CONTINUOUS
10
275.415
20
-94.9003
11
275.52
21
-94.6232
0
LINE
8
BLACK
6
CONTINUOUS
10
275.52
20
-94.6232
11
275.591
21
-94.3354
0
LINE
8
BLACK
6
CONTINUOUS
10
275.591
20
-94.3354
11
275.627
21
-94.0412
0
LINE
8
BLACK
6
CONTINUOUS
10
275.627
20
-94.0412
11
275.627
21
-93.893
0
LINE
8
BLACK
6
CONTINUOUS
10
275.627
20
-93.893
11
275.627
21
-40.092
0
LINE
8
BLACK
6
CONTINUOUS
10
275.627
20
-40.092
11
275.627
21
-40.092
0
LINE
8
BLACK
6
CONTINUOUS
10
275.627
20
-40.092
11
275.627
21
-39.9438
0
LINE
8
BLACK
6
CONTINUOUS
10
275.627
20
-39.9438
11
275.591
21
-39.6496
0
LINE
8
BLACK
6
CONTINUOUS
10
275.591
20
-39.6496
11
275.52
21
-39.3618
0
LINE
8
BLACK
6
CONTINUOUS
10
275.52
20
-39.3618
11
275.415
21
-39.0847
0
LINE
8
BLACK
6
CONTINUOUS
10
275.415
20
-39.0847
11
275.277
21
-38.8222
0
LINE
8
BLACK
6
CONTINUOUS
10
275.277
20
-38.8222
11
275.109
21
-38.5783
0
LINE
8
BLACK
6
CONTINUOUS
10
275.109
20
-38.5783
11
274.913
21
-38.3564
0
LINE
8
BLACK
6
CONTINUOUS
10
274.913
20
-38.3564
11
274.691
21
-38.1599
0
LINE
8
BLACK
6
CONTINUOUS
10
274.691
20
-38.1599
11
274.447
21
-37.9915
0
LINE
8
BLACK
6
CONTINUOUS
10
274.447
20
-37.9915
11
274.184
21
-37.8538
0
LINE
8
BLACK
6
CONTINUOUS
10
274.184
20
-37.8538
11
273.907
21
-37.7487
0
LINE
8
BLACK
6
CONTINUOUS
10
273.907
20
-37.7487
11
273.619
21
-37.6777
0
LINE
8
BLACK
6
CONTINUOUS
10
273.619
20
-37.6777
11
273.325
21
-37.642
0
LINE
8
BLACK
6
CONTINUOUS
10
273.325
20
-37.642
11
273.177
21
-37.642
0
LINE
8
BLACK
6
CONTINUOUS
10
273.177
20
-37.642
11
22.78
21
-37.642
  0
ENDSEC
  0
EOF
