M48
; DRILL file {KiCad 7.0.7} date Fri 01 Sep 2023 12:35:14
; FORMAT={-:-/ absolute / inch / decimal}
; #@! TF.CreationDate,2023-09-01T12:35:14+10:00
; #@! TF.GenerationSoftware,Kicad,Pcbnew,7.0.7
; #@! TF.FileFunction,Plated,1,2,PTH
FMAT,2
INCH
; #@! TA.AperFunction,Plated,PTH,ViaDrill
T1C0.0157
; #@! TA.AperFunction,Plated,PTH,ComponentDrill
T2C0.0394
; #@! TA.AperFunction,Plated,PTH,ComponentDrill
T3C0.0472
; #@! TA.AperFunction,Plated,PTH,ComponentDrill
T4C0.0600
; #@! TA.AperFunction,Plated,PTH,ComponentDrill
T5C0.0866
%
G90
G05
T1
X1.4297Y-2.2665
X2.2572Y-2.2842
X2.9838Y-2.3041
X3.7221Y-2.3196
X4.4532Y-2.3373
X5.6719Y-2.3551
X6.4275Y-2.3728
X7.2071Y-2.3906
X8.5313Y-2.4082
X8.6199Y-1.9922
X8.6485Y-1.143
X8.6485Y-1.243
X8.6719Y-1.9922
X8.9485Y-1.843
X9.0485Y-1.843
X9.1485Y-1.843
X9.2485Y-1.043
X9.2485Y-1.143
X9.2485Y-1.243
X9.2485Y-1.343
X9.2485Y-1.443
X9.2485Y-1.543
X9.2485Y-1.643
X9.2485Y-1.743
X9.2485Y-1.843
T2
X8.8Y-3.0703
X8.9Y-3.0703
X9.0Y-3.0703
X9.1Y-3.0703
T3
X1.3593Y-1.127
X1.453Y-1.877
X1.5468Y-2.627
X1.5561Y-1.2096
X1.6499Y-1.9596
X1.7436Y-2.7096
X2.1093Y-1.127
X2.2968Y-1.877
X2.3061Y-1.2096
X2.4843Y-2.627
X2.4936Y-1.9596
X2.6811Y-2.7096
X2.8593Y-1.127
X3.0468Y-1.877
X3.0561Y-1.2096
X3.2343Y-2.627
X3.2436Y-1.9596
X3.4311Y-2.7096
X3.6093Y-1.127
X3.7968Y-1.877
X3.8061Y-1.2096
X3.9843Y-2.627
X3.9936Y-1.9596
X4.1811Y-2.7096
X4.3593Y-1.127
X4.5468Y-1.877
X4.5561Y-1.2096
X4.7436Y-1.9596
X4.9218Y-2.627
X5.1093Y-1.127
X5.1186Y-2.7096
X5.2968Y-1.877
X5.3061Y-1.2096
X5.4936Y-1.9596
X5.8593Y-1.127
X5.8593Y-2.627
X6.0468Y-1.877
X6.0561Y-1.2096
X6.0561Y-2.7096
X6.2436Y-1.9596
X6.6093Y-1.127
X6.6093Y-2.627
X6.7968Y-1.877
X6.8061Y-1.2096
X6.8061Y-2.7096
X6.9936Y-1.9596
X7.3593Y-1.127
X7.3593Y-2.627
X7.5561Y-1.2096
X7.5561Y-2.7096
X7.828Y-1.877
X8.0249Y-1.9596
X8.1093Y-1.127
X8.1093Y-2.627
X8.3061Y-1.2096
X8.3061Y-2.7096
T4
X1.2093Y-1.2593
X1.303Y-2.0093
X1.3968Y-2.7593
X1.4593Y-1.1593
X1.553Y-1.9093
X1.6468Y-2.6593
X1.9593Y-1.2593
X2.1468Y-2.0093
X2.2093Y-1.1593
X2.3343Y-2.7593
X2.3968Y-1.9093
X2.5843Y-2.6593
X2.7093Y-1.2593
X2.8968Y-2.0093
X2.9593Y-1.1593
X3.0843Y-2.7593
X3.1468Y-1.9093
X3.3343Y-2.6593
X3.4593Y-1.2593
X3.6468Y-2.0093
X3.7093Y-1.1593
X3.8343Y-2.7593
X3.8968Y-1.9093
X4.0843Y-2.6593
X4.2093Y-1.2593
X4.3968Y-2.0093
X4.4593Y-1.1593
X4.6468Y-1.9093
X4.7718Y-2.7593
X4.9593Y-1.2593
X5.0218Y-2.6593
X5.1468Y-2.0093
X5.2093Y-1.1593
X5.3968Y-1.9093
X5.7093Y-1.2593
X5.7093Y-2.7593
X5.8968Y-2.0093
X5.9593Y-1.1593
X5.9593Y-2.6593
X6.1468Y-1.9093
X6.4593Y-1.2593
X6.4593Y-2.7593
X6.6468Y-2.0093
X6.7093Y-1.1593
X6.7093Y-2.6593
X6.8968Y-1.9093
X7.2093Y-1.2593
X7.2093Y-2.7593
X7.4593Y-1.1593
X7.4593Y-2.6593
X7.678Y-2.0093
X7.928Y-1.9093
X7.9593Y-1.2593
X7.9593Y-2.7593
X8.2093Y-1.1593
X8.2093Y-2.6593
T5
X0.8438Y-1.4062
X0.8438Y-2.8125
X9.5156Y-1.4063
X9.5157Y-2.8125
T0
M30
