%TF.GenerationSoftware,KiCad,Pcbnew,7.0.7*%
%TF.CreationDate,2023-09-01T12:35:23+10:00*%
%TF.ProjectId,qaz,71617a2e-6b69-4636-9164-5f7063625858,rev?*%
%TF.SameCoordinates,Original*%
%TF.FileFunction,Soldermask,Top*%
%TF.FilePolarity,Negative*%
%FSLAX46Y46*%
G04 Gerber Fmt 4.6, Leading zero omitted, Abs format (unit mm)*
G04 Created by KiCad (PCBNEW 7.0.7) date 2023-09-01 12:35:23*
%MOMM*%
%LPD*%
G01*
G04 APERTURE LIST*
%ADD10O,2.500000X1.500000*%
%ADD11O,1.500000X2.500000*%
%ADD12C,1.700000*%
%ADD13C,1.750000*%
%ADD14C,3.987800*%
%ADD15C,2.300000*%
%ADD16C,2.000000*%
%ADD17C,3.500000*%
%ADD18R,1.700000X1.700000*%
%ADD19O,1.700000X1.700000*%
G04 APERTURE END LIST*
D10*
%TO.C,U1*%
X235411604Y-26491473D03*
X235411604Y-29031473D03*
X235411604Y-31571473D03*
X235411604Y-34111473D03*
X235411604Y-36651473D03*
X235411604Y-39191473D03*
X235411604Y-41731473D03*
X235411604Y-44271473D03*
X235411604Y-46811473D03*
D11*
X232371604Y-47311473D03*
X229831604Y-47311473D03*
X227291604Y-47311473D03*
X224751604Y-47311473D03*
X222211604Y-47311473D03*
D10*
X219171604Y-46811473D03*
X219171604Y-44271473D03*
X219171604Y-41731473D03*
X219171604Y-39191473D03*
X219171604Y-36651473D03*
X219171604Y-34111473D03*
X219171604Y-31571473D03*
X219171604Y-29031473D03*
X219171604Y-26491473D03*
%TD*%
D12*
%TO.C,SW13*%
X71887500Y-53575000D03*
D13*
X72307500Y-53575000D03*
D14*
X77387500Y-53575000D03*
D13*
X82467500Y-53575000D03*
D12*
X82887500Y-53575000D03*
D15*
X73577500Y-51035000D03*
D16*
X77387500Y-47675000D03*
D15*
X79927500Y-48495000D03*
D16*
X82387500Y-49775000D03*
%TD*%
D12*
%TO.C,SW11*%
X31406250Y-53575000D03*
D13*
X31826250Y-53575000D03*
D14*
X36906250Y-53575000D03*
D13*
X41986250Y-53575000D03*
D12*
X42406250Y-53575000D03*
D15*
X33096250Y-51035000D03*
D16*
X36906250Y-47675000D03*
D15*
X39446250Y-48495000D03*
D16*
X41906250Y-49775000D03*
%TD*%
D12*
%TO.C,SW10*%
X200475000Y-34525000D03*
D13*
X200895000Y-34525000D03*
D14*
X205975000Y-34525000D03*
D13*
X211055000Y-34525000D03*
D12*
X211475000Y-34525000D03*
D15*
X202165000Y-31985000D03*
D16*
X205975000Y-28625000D03*
D15*
X208515000Y-29445000D03*
D16*
X210975000Y-30725000D03*
%TD*%
D12*
%TO.C,SW24*%
X119512500Y-72625000D03*
D13*
X119932500Y-72625000D03*
D14*
X125012500Y-72625000D03*
D13*
X130092500Y-72625000D03*
D12*
X130512500Y-72625000D03*
D15*
X121202500Y-70085000D03*
D16*
X125012500Y-66725000D03*
D15*
X127552500Y-67545000D03*
D16*
X130012500Y-68825000D03*
%TD*%
D12*
%TO.C,SW22*%
X76650000Y-72625000D03*
D13*
X77070000Y-72625000D03*
D14*
X82150000Y-72625000D03*
D13*
X87230000Y-72625000D03*
D12*
X87650000Y-72625000D03*
D15*
X78340000Y-70085000D03*
D16*
X82150000Y-66725000D03*
D15*
X84690000Y-67545000D03*
D16*
X87150000Y-68825000D03*
%TD*%
D12*
%TO.C,SW23*%
X95700000Y-72625000D03*
D13*
X96120000Y-72625000D03*
D14*
X101200000Y-72625000D03*
D13*
X106280000Y-72625000D03*
D12*
X106700000Y-72625000D03*
D15*
X97390000Y-70085000D03*
D16*
X101200000Y-66725000D03*
D15*
X103740000Y-67545000D03*
D16*
X106200000Y-68825000D03*
%TD*%
D12*
%TO.C,SW6*%
X124275000Y-34525000D03*
D13*
X124695000Y-34525000D03*
D14*
X129775000Y-34525000D03*
D13*
X134855000Y-34525000D03*
D12*
X135275000Y-34525000D03*
D15*
X125965000Y-31985000D03*
D16*
X129775000Y-28625000D03*
D15*
X132315000Y-29445000D03*
D16*
X134775000Y-30725000D03*
%TD*%
D12*
%TO.C,SW18*%
X167137500Y-53575000D03*
D13*
X167557500Y-53575000D03*
D14*
X172637500Y-53575000D03*
D13*
X177717500Y-53575000D03*
D12*
X178137500Y-53575000D03*
D15*
X168827500Y-51035000D03*
D16*
X172637500Y-47675000D03*
D15*
X175177500Y-48495000D03*
D16*
X177637500Y-49775000D03*
%TD*%
D12*
%TO.C,SW20*%
X33787500Y-72625000D03*
D13*
X34207500Y-72625000D03*
D14*
X39287500Y-72625000D03*
D13*
X44367500Y-72625000D03*
D12*
X44787500Y-72625000D03*
D15*
X35477500Y-70085000D03*
D16*
X39287500Y-66725000D03*
D15*
X41827500Y-67545000D03*
D16*
X44287500Y-68825000D03*
%TD*%
D17*
%TO.C,REF\u002A\u002A*%
X241697484Y-35718840D03*
%TD*%
D12*
%TO.C,SW9*%
X181425000Y-34525000D03*
D13*
X181845000Y-34525000D03*
D14*
X186925000Y-34525000D03*
D13*
X192005000Y-34525000D03*
D12*
X192425000Y-34525000D03*
D15*
X183115000Y-31985000D03*
D16*
X186925000Y-28625000D03*
D15*
X189465000Y-29445000D03*
D16*
X191925000Y-30725000D03*
%TD*%
D12*
%TO.C,SW8*%
X162375000Y-34525000D03*
D13*
X162795000Y-34525000D03*
D14*
X167875000Y-34525000D03*
D13*
X172955000Y-34525000D03*
D12*
X173375000Y-34525000D03*
D15*
X164065000Y-31985000D03*
D16*
X167875000Y-28625000D03*
D15*
X170415000Y-29445000D03*
D16*
X172875000Y-30725000D03*
%TD*%
D17*
%TO.C,REF\u002A\u002A*%
X21431250Y-71437500D03*
%TD*%
D12*
%TO.C,SW26*%
X162375000Y-72625000D03*
D13*
X162795000Y-72625000D03*
D14*
X167875000Y-72625000D03*
D13*
X172955000Y-72625000D03*
D12*
X173375000Y-72625000D03*
D15*
X164065000Y-70085000D03*
D16*
X167875000Y-66725000D03*
D15*
X170415000Y-67545000D03*
D16*
X172875000Y-68825000D03*
%TD*%
D12*
%TO.C,SW12*%
X52837500Y-53575000D03*
D13*
X53257500Y-53575000D03*
D14*
X58337500Y-53575000D03*
D13*
X63417500Y-53575000D03*
D12*
X63837500Y-53575000D03*
D15*
X54527500Y-51035000D03*
D16*
X58337500Y-47675000D03*
D15*
X60877500Y-48495000D03*
D16*
X63337500Y-49775000D03*
%TD*%
D12*
%TO.C,SW21*%
X57600000Y-72625000D03*
D13*
X58020000Y-72625000D03*
D14*
X63100000Y-72625000D03*
D13*
X68180000Y-72625000D03*
D12*
X68600000Y-72625000D03*
D15*
X59290000Y-70085000D03*
D16*
X63100000Y-66725000D03*
D15*
X65640000Y-67545000D03*
D16*
X68100000Y-68825000D03*
%TD*%
D12*
%TO.C,SW3*%
X67125000Y-34525000D03*
D13*
X67545000Y-34525000D03*
D14*
X72625000Y-34525000D03*
D13*
X77705000Y-34525000D03*
D12*
X78125000Y-34525000D03*
D15*
X68815000Y-31985000D03*
D16*
X72625000Y-28625000D03*
D15*
X75165000Y-29445000D03*
D16*
X77625000Y-30725000D03*
%TD*%
D12*
%TO.C,SW4*%
X86175000Y-34525000D03*
D13*
X86595000Y-34525000D03*
D14*
X91675000Y-34525000D03*
D13*
X96755000Y-34525000D03*
D12*
X97175000Y-34525000D03*
D15*
X87865000Y-31985000D03*
D16*
X91675000Y-28625000D03*
D15*
X94215000Y-29445000D03*
D16*
X96675000Y-30725000D03*
%TD*%
D12*
%TO.C,SW25*%
X143325000Y-72625000D03*
D13*
X143745000Y-72625000D03*
D14*
X148825000Y-72625000D03*
D13*
X153905000Y-72625000D03*
D12*
X154325000Y-72625000D03*
D15*
X145015000Y-70085000D03*
D16*
X148825000Y-66725000D03*
D15*
X151365000Y-67545000D03*
D16*
X153825000Y-68825000D03*
%TD*%
D12*
%TO.C,SW16*%
X129037500Y-53575000D03*
D13*
X129457500Y-53575000D03*
D14*
X134537500Y-53575000D03*
D13*
X139617500Y-53575000D03*
D12*
X140037500Y-53575000D03*
D15*
X130727500Y-51035000D03*
D16*
X134537500Y-47675000D03*
D15*
X137077500Y-48495000D03*
D16*
X139537500Y-49775000D03*
%TD*%
D17*
%TO.C,REF\u002A\u002A*%
X21431250Y-35718750D03*
%TD*%
D12*
%TO.C,SW15*%
X109987500Y-53575000D03*
D13*
X110407500Y-53575000D03*
D14*
X115487500Y-53575000D03*
D13*
X120567500Y-53575000D03*
D12*
X120987500Y-53575000D03*
D15*
X111677500Y-51035000D03*
D16*
X115487500Y-47675000D03*
D15*
X118027500Y-48495000D03*
D16*
X120487500Y-49775000D03*
%TD*%
D12*
%TO.C,SW2*%
X48075000Y-34525000D03*
D13*
X48495000Y-34525000D03*
D14*
X53575000Y-34525000D03*
D13*
X58655000Y-34525000D03*
D12*
X59075000Y-34525000D03*
D15*
X49765000Y-31985000D03*
D16*
X53575000Y-28625000D03*
D15*
X56115000Y-29445000D03*
D16*
X58575000Y-30725000D03*
%TD*%
D18*
%TO.C,J1*%
X231140576Y-77986134D03*
D19*
X228600576Y-77986134D03*
X226060576Y-77986134D03*
X223520576Y-77986134D03*
%TD*%
D12*
%TO.C,SW5*%
X105225000Y-34525000D03*
D13*
X105645000Y-34525000D03*
D14*
X110725000Y-34525000D03*
D13*
X115805000Y-34525000D03*
D12*
X116225000Y-34525000D03*
D15*
X106915000Y-31985000D03*
D16*
X110725000Y-28625000D03*
D15*
X113265000Y-29445000D03*
D16*
X115725000Y-30725000D03*
%TD*%
D12*
%TO.C,SW28*%
X200475000Y-72625000D03*
D13*
X200895000Y-72625000D03*
D14*
X205975000Y-72625000D03*
D13*
X211055000Y-72625000D03*
D12*
X211475000Y-72625000D03*
D15*
X202165000Y-70085000D03*
D16*
X205975000Y-66725000D03*
D15*
X208515000Y-67545000D03*
D16*
X210975000Y-68825000D03*
%TD*%
D12*
%TO.C,SW14*%
X90937500Y-53575000D03*
D13*
X91357500Y-53575000D03*
D14*
X96437500Y-53575000D03*
D13*
X101517500Y-53575000D03*
D12*
X101937500Y-53575000D03*
D15*
X92627500Y-51035000D03*
D16*
X96437500Y-47675000D03*
D15*
X98977500Y-48495000D03*
D16*
X101437500Y-49775000D03*
%TD*%
D12*
%TO.C,SW7*%
X143325000Y-34525000D03*
D13*
X143745000Y-34525000D03*
D14*
X148825000Y-34525000D03*
D13*
X153905000Y-34525000D03*
D12*
X154325000Y-34525000D03*
D15*
X145015000Y-31985000D03*
D16*
X148825000Y-28625000D03*
D15*
X151365000Y-29445000D03*
D16*
X153825000Y-30725000D03*
%TD*%
D12*
%TO.C,SW17*%
X148087500Y-53575000D03*
D13*
X148507500Y-53575000D03*
D14*
X153587500Y-53575000D03*
D13*
X158667500Y-53575000D03*
D12*
X159087500Y-53575000D03*
D15*
X149777500Y-51035000D03*
D16*
X153587500Y-47675000D03*
D15*
X156127500Y-48495000D03*
D16*
X158587500Y-49775000D03*
%TD*%
D12*
%TO.C,SW19*%
X193331250Y-53575000D03*
D13*
X193751250Y-53575000D03*
D14*
X198831250Y-53575000D03*
D13*
X203911250Y-53575000D03*
D12*
X204331250Y-53575000D03*
D15*
X195021250Y-51035000D03*
D16*
X198831250Y-47675000D03*
D15*
X201371250Y-48495000D03*
D16*
X203831250Y-49775000D03*
%TD*%
D17*
%TO.C,REF\u002A\u002A*%
X241698296Y-71437920D03*
%TD*%
D12*
%TO.C,SW1*%
X29025000Y-34525000D03*
D13*
X29445000Y-34525000D03*
D14*
X34525000Y-34525000D03*
D13*
X39605000Y-34525000D03*
D12*
X40025000Y-34525000D03*
D15*
X30715000Y-31985000D03*
D16*
X34525000Y-28625000D03*
D15*
X37065000Y-29445000D03*
D16*
X39525000Y-30725000D03*
%TD*%
D12*
%TO.C,SW27*%
X181425000Y-72625000D03*
D13*
X181845000Y-72625000D03*
D14*
X186925000Y-72625000D03*
D13*
X192005000Y-72625000D03*
D12*
X192425000Y-72625000D03*
D15*
X183115000Y-70085000D03*
D16*
X186925000Y-66725000D03*
D15*
X189465000Y-67545000D03*
D16*
X191925000Y-68825000D03*
%TD*%
M02*
