%TF.GenerationSoftware,KiCad,Pcbnew,7.0.7*%
%TF.CreationDate,2023-09-01T12:35:23+10:00*%
%TF.ProjectId,qaz,71617a2e-6b69-4636-9164-5f7063625858,rev?*%
%TF.SameCoordinates,Original*%
%TF.FileFunction,Soldermask,Bot*%
%TF.FilePolarity,Negative*%
%FSLAX46Y46*%
G04 Gerber Fmt 4.6, Leading zero omitted, Abs format (unit mm)*
G04 Created by KiCad (PCBNEW 7.0.7) date 2023-09-01 12:35:23*
%MOMM*%
%LPD*%
G01*
G04 APERTURE LIST*
G04 Aperture macros list*
%AMRoundRect*
0 Rectangle with rounded corners*
0 $1 Rounding radius*
0 $2 $3 $4 $5 $6 $7 $8 $9 X,Y pos of 4 corners*
0 Add a 4 corners polygon primitive as box body*
4,1,4,$2,$3,$4,$5,$6,$7,$8,$9,$2,$3,0*
0 Add four circle primitives for the rounded corners*
1,1,$1+$1,$2,$3*
1,1,$1+$1,$4,$5*
1,1,$1+$1,$6,$7*
1,1,$1+$1,$8,$9*
0 Add four rect primitives between the rounded corners*
20,1,$1+$1,$2,$3,$4,$5,0*
20,1,$1+$1,$4,$5,$6,$7,0*
20,1,$1+$1,$6,$7,$8,$9,0*
20,1,$1+$1,$8,$9,$2,$3,0*%
G04 Aperture macros list end*
%ADD10C,1.700000*%
%ADD11C,1.750000*%
%ADD12C,3.987800*%
%ADD13C,2.300000*%
%ADD14C,2.000000*%
%ADD15C,3.500000*%
%ADD16R,1.700000X1.700000*%
%ADD17O,1.700000X1.700000*%
%ADD18RoundRect,0.150000X-0.150000X0.587500X-0.150000X-0.587500X0.150000X-0.587500X0.150000X0.587500X0*%
G04 APERTURE END LIST*
D10*
%TO.C,SW13*%
X71887500Y-53575000D03*
D11*
X72307500Y-53575000D03*
D12*
X77387500Y-53575000D03*
D11*
X82467500Y-53575000D03*
D10*
X82887500Y-53575000D03*
D13*
X73577500Y-51035000D03*
D14*
X77387500Y-47675000D03*
D13*
X79927500Y-48495000D03*
D14*
X82387500Y-49775000D03*
%TD*%
D10*
%TO.C,SW11*%
X31406250Y-53575000D03*
D11*
X31826250Y-53575000D03*
D12*
X36906250Y-53575000D03*
D11*
X41986250Y-53575000D03*
D10*
X42406250Y-53575000D03*
D13*
X33096250Y-51035000D03*
D14*
X36906250Y-47675000D03*
D13*
X39446250Y-48495000D03*
D14*
X41906250Y-49775000D03*
%TD*%
D10*
%TO.C,SW10*%
X200475000Y-34525000D03*
D11*
X200895000Y-34525000D03*
D12*
X205975000Y-34525000D03*
D11*
X211055000Y-34525000D03*
D10*
X211475000Y-34525000D03*
D13*
X202165000Y-31985000D03*
D14*
X205975000Y-28625000D03*
D13*
X208515000Y-29445000D03*
D14*
X210975000Y-30725000D03*
%TD*%
D10*
%TO.C,SW24*%
X119512500Y-72625000D03*
D11*
X119932500Y-72625000D03*
D12*
X125012500Y-72625000D03*
D11*
X130092500Y-72625000D03*
D10*
X130512500Y-72625000D03*
D13*
X121202500Y-70085000D03*
D14*
X125012500Y-66725000D03*
D13*
X127552500Y-67545000D03*
D14*
X130012500Y-68825000D03*
%TD*%
D10*
%TO.C,SW22*%
X76650000Y-72625000D03*
D11*
X77070000Y-72625000D03*
D12*
X82150000Y-72625000D03*
D11*
X87230000Y-72625000D03*
D10*
X87650000Y-72625000D03*
D13*
X78340000Y-70085000D03*
D14*
X82150000Y-66725000D03*
D13*
X84690000Y-67545000D03*
D14*
X87150000Y-68825000D03*
%TD*%
D10*
%TO.C,SW23*%
X95700000Y-72625000D03*
D11*
X96120000Y-72625000D03*
D12*
X101200000Y-72625000D03*
D11*
X106280000Y-72625000D03*
D10*
X106700000Y-72625000D03*
D13*
X97390000Y-70085000D03*
D14*
X101200000Y-66725000D03*
D13*
X103740000Y-67545000D03*
D14*
X106200000Y-68825000D03*
%TD*%
D10*
%TO.C,SW6*%
X124275000Y-34525000D03*
D11*
X124695000Y-34525000D03*
D12*
X129775000Y-34525000D03*
D11*
X134855000Y-34525000D03*
D10*
X135275000Y-34525000D03*
D13*
X125965000Y-31985000D03*
D14*
X129775000Y-28625000D03*
D13*
X132315000Y-29445000D03*
D14*
X134775000Y-30725000D03*
%TD*%
D10*
%TO.C,SW18*%
X167137500Y-53575000D03*
D11*
X167557500Y-53575000D03*
D12*
X172637500Y-53575000D03*
D11*
X177717500Y-53575000D03*
D10*
X178137500Y-53575000D03*
D13*
X168827500Y-51035000D03*
D14*
X172637500Y-47675000D03*
D13*
X175177500Y-48495000D03*
D14*
X177637500Y-49775000D03*
%TD*%
D10*
%TO.C,SW20*%
X33787500Y-72625000D03*
D11*
X34207500Y-72625000D03*
D12*
X39287500Y-72625000D03*
D11*
X44367500Y-72625000D03*
D10*
X44787500Y-72625000D03*
D13*
X35477500Y-70085000D03*
D14*
X39287500Y-66725000D03*
D13*
X41827500Y-67545000D03*
D14*
X44287500Y-68825000D03*
%TD*%
D15*
%TO.C,REF\u002A\u002A*%
X241697484Y-35718840D03*
%TD*%
D10*
%TO.C,SW9*%
X181425000Y-34525000D03*
D11*
X181845000Y-34525000D03*
D12*
X186925000Y-34525000D03*
D11*
X192005000Y-34525000D03*
D10*
X192425000Y-34525000D03*
D13*
X183115000Y-31985000D03*
D14*
X186925000Y-28625000D03*
D13*
X189465000Y-29445000D03*
D14*
X191925000Y-30725000D03*
%TD*%
D10*
%TO.C,SW8*%
X162375000Y-34525000D03*
D11*
X162795000Y-34525000D03*
D12*
X167875000Y-34525000D03*
D11*
X172955000Y-34525000D03*
D10*
X173375000Y-34525000D03*
D13*
X164065000Y-31985000D03*
D14*
X167875000Y-28625000D03*
D13*
X170415000Y-29445000D03*
D14*
X172875000Y-30725000D03*
%TD*%
D15*
%TO.C,REF\u002A\u002A*%
X21431250Y-71437500D03*
%TD*%
D10*
%TO.C,SW26*%
X162375000Y-72625000D03*
D11*
X162795000Y-72625000D03*
D12*
X167875000Y-72625000D03*
D11*
X172955000Y-72625000D03*
D10*
X173375000Y-72625000D03*
D13*
X164065000Y-70085000D03*
D14*
X167875000Y-66725000D03*
D13*
X170415000Y-67545000D03*
D14*
X172875000Y-68825000D03*
%TD*%
D10*
%TO.C,SW12*%
X52837500Y-53575000D03*
D11*
X53257500Y-53575000D03*
D12*
X58337500Y-53575000D03*
D11*
X63417500Y-53575000D03*
D10*
X63837500Y-53575000D03*
D13*
X54527500Y-51035000D03*
D14*
X58337500Y-47675000D03*
D13*
X60877500Y-48495000D03*
D14*
X63337500Y-49775000D03*
%TD*%
D10*
%TO.C,SW21*%
X57600000Y-72625000D03*
D11*
X58020000Y-72625000D03*
D12*
X63100000Y-72625000D03*
D11*
X68180000Y-72625000D03*
D10*
X68600000Y-72625000D03*
D13*
X59290000Y-70085000D03*
D14*
X63100000Y-66725000D03*
D13*
X65640000Y-67545000D03*
D14*
X68100000Y-68825000D03*
%TD*%
D10*
%TO.C,SW3*%
X67125000Y-34525000D03*
D11*
X67545000Y-34525000D03*
D12*
X72625000Y-34525000D03*
D11*
X77705000Y-34525000D03*
D10*
X78125000Y-34525000D03*
D13*
X68815000Y-31985000D03*
D14*
X72625000Y-28625000D03*
D13*
X75165000Y-29445000D03*
D14*
X77625000Y-30725000D03*
%TD*%
D10*
%TO.C,SW4*%
X86175000Y-34525000D03*
D11*
X86595000Y-34525000D03*
D12*
X91675000Y-34525000D03*
D11*
X96755000Y-34525000D03*
D10*
X97175000Y-34525000D03*
D13*
X87865000Y-31985000D03*
D14*
X91675000Y-28625000D03*
D13*
X94215000Y-29445000D03*
D14*
X96675000Y-30725000D03*
%TD*%
D10*
%TO.C,SW25*%
X143325000Y-72625000D03*
D11*
X143745000Y-72625000D03*
D12*
X148825000Y-72625000D03*
D11*
X153905000Y-72625000D03*
D10*
X154325000Y-72625000D03*
D13*
X145015000Y-70085000D03*
D14*
X148825000Y-66725000D03*
D13*
X151365000Y-67545000D03*
D14*
X153825000Y-68825000D03*
%TD*%
D10*
%TO.C,SW16*%
X129037500Y-53575000D03*
D11*
X129457500Y-53575000D03*
D12*
X134537500Y-53575000D03*
D11*
X139617500Y-53575000D03*
D10*
X140037500Y-53575000D03*
D13*
X130727500Y-51035000D03*
D14*
X134537500Y-47675000D03*
D13*
X137077500Y-48495000D03*
D14*
X139537500Y-49775000D03*
%TD*%
D15*
%TO.C,REF\u002A\u002A*%
X21431250Y-35718750D03*
%TD*%
D10*
%TO.C,SW15*%
X109987500Y-53575000D03*
D11*
X110407500Y-53575000D03*
D12*
X115487500Y-53575000D03*
D11*
X120567500Y-53575000D03*
D10*
X120987500Y-53575000D03*
D13*
X111677500Y-51035000D03*
D14*
X115487500Y-47675000D03*
D13*
X118027500Y-48495000D03*
D14*
X120487500Y-49775000D03*
%TD*%
D10*
%TO.C,SW2*%
X48075000Y-34525000D03*
D11*
X48495000Y-34525000D03*
D12*
X53575000Y-34525000D03*
D11*
X58655000Y-34525000D03*
D10*
X59075000Y-34525000D03*
D13*
X49765000Y-31985000D03*
D14*
X53575000Y-28625000D03*
D13*
X56115000Y-29445000D03*
D14*
X58575000Y-30725000D03*
%TD*%
D16*
%TO.C,J1*%
X231140576Y-77986134D03*
D17*
X228600576Y-77986134D03*
X226060576Y-77986134D03*
X223520576Y-77986134D03*
%TD*%
D10*
%TO.C,SW5*%
X105225000Y-34525000D03*
D11*
X105645000Y-34525000D03*
D12*
X110725000Y-34525000D03*
D11*
X115805000Y-34525000D03*
D10*
X116225000Y-34525000D03*
D13*
X106915000Y-31985000D03*
D14*
X110725000Y-28625000D03*
D13*
X113265000Y-29445000D03*
D14*
X115725000Y-30725000D03*
%TD*%
D10*
%TO.C,SW28*%
X200475000Y-72625000D03*
D11*
X200895000Y-72625000D03*
D12*
X205975000Y-72625000D03*
D11*
X211055000Y-72625000D03*
D10*
X211475000Y-72625000D03*
D13*
X202165000Y-70085000D03*
D14*
X205975000Y-66725000D03*
D13*
X208515000Y-67545000D03*
D14*
X210975000Y-68825000D03*
%TD*%
D10*
%TO.C,SW14*%
X90937500Y-53575000D03*
D11*
X91357500Y-53575000D03*
D12*
X96437500Y-53575000D03*
D11*
X101517500Y-53575000D03*
D10*
X101937500Y-53575000D03*
D13*
X92627500Y-51035000D03*
D14*
X96437500Y-47675000D03*
D13*
X98977500Y-48495000D03*
D14*
X101437500Y-49775000D03*
%TD*%
D10*
%TO.C,SW7*%
X143325000Y-34525000D03*
D11*
X143745000Y-34525000D03*
D12*
X148825000Y-34525000D03*
D11*
X153905000Y-34525000D03*
D10*
X154325000Y-34525000D03*
D13*
X145015000Y-31985000D03*
D14*
X148825000Y-28625000D03*
D13*
X151365000Y-29445000D03*
D14*
X153825000Y-30725000D03*
%TD*%
D10*
%TO.C,SW17*%
X148087500Y-53575000D03*
D11*
X148507500Y-53575000D03*
D12*
X153587500Y-53575000D03*
D11*
X158667500Y-53575000D03*
D10*
X159087500Y-53575000D03*
D13*
X149777500Y-51035000D03*
D14*
X153587500Y-47675000D03*
D13*
X156127500Y-48495000D03*
D14*
X158587500Y-49775000D03*
%TD*%
D10*
%TO.C,SW19*%
X193331250Y-53575000D03*
D11*
X193751250Y-53575000D03*
D12*
X198831250Y-53575000D03*
D11*
X203911250Y-53575000D03*
D10*
X204331250Y-53575000D03*
D13*
X195021250Y-51035000D03*
D14*
X198831250Y-47675000D03*
D13*
X201371250Y-48495000D03*
D14*
X203831250Y-49775000D03*
%TD*%
D15*
%TO.C,REF\u002A\u002A*%
X241698296Y-71437920D03*
%TD*%
D10*
%TO.C,SW1*%
X29025000Y-34525000D03*
D11*
X29445000Y-34525000D03*
D12*
X34525000Y-34525000D03*
D11*
X39605000Y-34525000D03*
D10*
X40025000Y-34525000D03*
D13*
X30715000Y-31985000D03*
D14*
X34525000Y-28625000D03*
D13*
X37065000Y-29445000D03*
D14*
X39525000Y-30725000D03*
%TD*%
D10*
%TO.C,SW27*%
X181425000Y-72625000D03*
D11*
X181845000Y-72625000D03*
D12*
X186925000Y-72625000D03*
D11*
X192005000Y-72625000D03*
D10*
X192425000Y-72625000D03*
D13*
X183115000Y-70085000D03*
D14*
X186925000Y-66725000D03*
D13*
X189465000Y-67545000D03*
D14*
X191925000Y-68825000D03*
%TD*%
D18*
%TO.C,D15*%
X195446591Y-72032994D03*
X197346591Y-72032994D03*
X196396591Y-73907994D03*
%TD*%
%TO.C,D12*%
X90785385Y-72032994D03*
X92685385Y-72032994D03*
X91735385Y-73907994D03*
%TD*%
%TO.C,D2*%
X81146303Y-33932898D03*
X83046303Y-33932898D03*
X82096303Y-35807898D03*
%TD*%
%TO.C,D3*%
X119246399Y-33932898D03*
X121146399Y-33932898D03*
X120196399Y-35807898D03*
%TD*%
%TO.C,D1*%
X43046207Y-33932898D03*
X44946207Y-33932898D03*
X43996207Y-35807898D03*
%TD*%
%TO.C,D11*%
X52685289Y-72032994D03*
X54585289Y-72032994D03*
X53635289Y-73907994D03*
%TD*%
%TO.C,D13*%
X138410505Y-72032994D03*
X140310505Y-72032994D03*
X139360505Y-73907994D03*
%TD*%
%TO.C,D8*%
X124008911Y-52982946D03*
X125908911Y-52982946D03*
X124958911Y-54857946D03*
%TD*%
%TO.C,D14*%
X176510601Y-72032994D03*
X178410601Y-72032994D03*
X177460601Y-73907994D03*
%TD*%
%TO.C,D10*%
X188302823Y-52982946D03*
X190202823Y-52982946D03*
X189252823Y-54857946D03*
%TD*%
%TO.C,D4*%
X157403524Y-33932898D03*
X159303524Y-33932898D03*
X158353524Y-35807898D03*
%TD*%
%TO.C,D9*%
X162223065Y-52982946D03*
X164123065Y-52982946D03*
X163173065Y-54857946D03*
%TD*%
%TO.C,D5*%
X195446591Y-33932898D03*
X197346591Y-33932898D03*
X196396591Y-35807898D03*
%TD*%
%TO.C,D6*%
X47922777Y-52982946D03*
X49822777Y-52982946D03*
X48872777Y-54857946D03*
%TD*%
%TO.C,D7*%
X86022873Y-52982946D03*
X87922873Y-52982946D03*
X86972873Y-54857946D03*
%TD*%
M02*
