%TF.GenerationSoftware,KiCad,Pcbnew,7.0.7*%
%TF.CreationDate,2023-09-01T12:35:13+10:00*%
%TF.ProjectId,qaz,71617a2e-6b69-4636-9164-5f7063625858,rev?*%
%TF.SameCoordinates,Original*%
%TF.FileFunction,Drillmap*%
%TF.FilePolarity,Positive*%
%FSLAX45Y45*%
G04 Gerber Fmt 4.5, Leading zero omitted, Abs format (unit mm)*
G04 Created by KiCad (PCBNEW 7.0.7) date 2023-09-01 12:35:13*
%MOMM*%
%LPD*%
G01*
G04 APERTURE LIST*
%ADD10C,0.100000*%
%ADD11C,0.200000*%
%ADD12C,0.040000*%
%ADD13C,0.120000*%
%ADD14C,0.152400*%
%ADD15C,0.220000*%
G04 APERTURE END LIST*
D10*
X21525367Y-4435089D02*
X2525319Y-4435089D01*
X2285938Y-2500313D02*
X22129160Y-2490147D01*
X2525319Y-6280563D02*
X21525367Y-6280563D01*
X21550372Y-4400558D02*
G75*
G03*
X21525367Y-4375558I-25002J-2D01*
G01*
X2525319Y-6280569D02*
G75*
G03*
X2500319Y-6305563I-9J-24991D01*
G01*
X1785937Y-7715312D02*
X1785937Y-3000312D01*
X24027019Y-8215339D02*
G75*
G03*
X24527019Y-7715333I-9J500009D01*
G01*
X24027019Y-8215333D02*
X2285938Y-8215312D01*
X24527019Y-3000333D02*
X24527019Y-7715333D01*
X24527016Y-3000333D02*
G75*
G03*
X24027019Y-2500334I-499997J4D01*
G01*
X2500319Y-4410089D02*
X2500319Y-4400558D01*
X21550367Y-6305563D02*
X21550367Y-6315094D01*
X24027019Y-2500334D02*
X23329160Y-2490147D01*
X2500319Y-6315094D02*
X2500319Y-6305563D01*
X21550367Y-6305563D02*
G75*
G03*
X21525367Y-6280563I-24997J3D01*
G01*
X21525367Y-6340087D02*
G75*
G03*
X21550367Y-6315094I3J24997D01*
G01*
X21525367Y-4435087D02*
G75*
G03*
X21550367Y-4410089I3J24997D01*
G01*
X21525367Y-6340094D02*
X2525319Y-6340094D01*
X2285938Y-2500313D02*
G75*
G03*
X1785937Y-3000312I-1J-499999D01*
G01*
X2525319Y-4375558D02*
X21525367Y-4375558D01*
X1785937Y-7715312D02*
G75*
G03*
X2285938Y-8215312I500000J-1D01*
G01*
X21550367Y-4400558D02*
X21550367Y-4410089D01*
X2500316Y-6315094D02*
G75*
G03*
X2525319Y-6340094I25004J4D01*
G01*
X2525319Y-4375559D02*
G75*
G03*
X2500319Y-4400558I1J-25001D01*
G01*
X2500321Y-4410089D02*
G75*
G03*
X2525319Y-4435089I24999J-1D01*
G01*
D11*
D12*
X3611428Y-5736840D02*
X3651428Y-5776840D01*
X3651428Y-5736840D02*
X3611428Y-5776840D01*
X5713366Y-5781840D02*
X5753366Y-5821840D01*
X5753366Y-5781840D02*
X5713366Y-5821840D01*
X7558840Y-5832423D02*
X7598840Y-5872423D01*
X7598840Y-5832423D02*
X7558840Y-5872423D01*
X9434080Y-5871840D02*
X9474080Y-5911840D01*
X9474080Y-5871840D02*
X9434080Y-5911840D01*
X11291004Y-5916840D02*
X11331004Y-5956840D01*
X11331004Y-5916840D02*
X11291004Y-5956840D01*
X14386647Y-5961840D02*
X14426647Y-6001840D01*
X14426647Y-5961840D02*
X14386647Y-6001840D01*
X16305772Y-6006840D02*
X16345772Y-6046840D01*
X16345772Y-6006840D02*
X16305772Y-6046840D01*
X18285926Y-6052223D02*
X18325926Y-6092223D01*
X18325926Y-6052223D02*
X18285926Y-6092223D01*
X21649502Y-6096840D02*
X21689502Y-6136840D01*
X21689502Y-6096840D02*
X21649502Y-6136840D01*
X21874660Y-5040169D02*
X21914660Y-5080169D01*
X21914660Y-5040169D02*
X21874660Y-5080169D01*
X21947160Y-2883147D02*
X21987160Y-2923147D01*
X21987160Y-2883147D02*
X21947160Y-2923147D01*
X21947160Y-3137147D02*
X21987160Y-3177147D01*
X21987160Y-3137147D02*
X21947160Y-3177147D01*
X22006618Y-5040169D02*
X22046618Y-5080169D01*
X22046618Y-5040169D02*
X22006618Y-5080169D01*
X22709160Y-4661147D02*
X22749160Y-4701147D01*
X22749160Y-4661147D02*
X22709160Y-4701147D01*
X22963160Y-4661147D02*
X23003160Y-4701147D01*
X23003160Y-4661147D02*
X22963160Y-4701147D01*
X23217160Y-4661147D02*
X23257160Y-4701147D01*
X23257160Y-4661147D02*
X23217160Y-4701147D01*
X23471160Y-2629147D02*
X23511160Y-2669147D01*
X23511160Y-2629147D02*
X23471160Y-2669147D01*
X23471160Y-2883147D02*
X23511160Y-2923147D01*
X23511160Y-2883147D02*
X23471160Y-2923147D01*
X23471160Y-3137147D02*
X23511160Y-3177147D01*
X23511160Y-3137147D02*
X23471160Y-3177147D01*
X23471160Y-3391147D02*
X23511160Y-3431147D01*
X23511160Y-3391147D02*
X23471160Y-3431147D01*
X23471160Y-3645147D02*
X23511160Y-3685147D01*
X23511160Y-3645147D02*
X23471160Y-3685147D01*
X23471160Y-3899147D02*
X23511160Y-3939147D01*
X23511160Y-3899147D02*
X23471160Y-3939147D01*
X23471160Y-4153147D02*
X23511160Y-4193147D01*
X23511160Y-4153147D02*
X23471160Y-4193147D01*
X23471160Y-4407147D02*
X23511160Y-4447147D01*
X23511160Y-4407147D02*
X23471160Y-4447147D01*
X23471160Y-4661147D02*
X23511160Y-4701147D01*
X23511160Y-4661147D02*
X23471160Y-4701147D01*
D10*
X22402058Y-7798613D02*
G75*
G03*
X22402058Y-7798613I-50000J0D01*
G01*
X22656058Y-7798613D02*
G75*
G03*
X22656058Y-7798613I-50000J0D01*
G01*
X22910058Y-7798613D02*
G75*
G03*
X22910058Y-7798613I-50000J0D01*
G01*
X23164058Y-7798613D02*
G75*
G03*
X23164058Y-7798613I-50000J0D01*
G01*
D13*
X3452500Y-2802500D02*
X3452500Y-2922500D01*
X3392500Y-2862500D02*
X3512500Y-2862500D01*
X3690625Y-4707500D02*
X3690625Y-4827500D01*
X3630625Y-4767500D02*
X3750625Y-4767500D01*
X3928750Y-6612500D02*
X3928750Y-6732500D01*
X3868750Y-6672500D02*
X3988750Y-6672500D01*
X3952500Y-3012500D02*
X3952500Y-3132500D01*
X3892500Y-3072500D02*
X4012500Y-3072500D01*
X4190625Y-4917500D02*
X4190625Y-5037500D01*
X4130625Y-4977500D02*
X4250625Y-4977500D01*
X4428750Y-6822500D02*
X4428750Y-6942500D01*
X4368750Y-6882500D02*
X4488750Y-6882500D01*
X5357500Y-2802500D02*
X5357500Y-2922500D01*
X5297500Y-2862500D02*
X5417500Y-2862500D01*
X5833750Y-4707500D02*
X5833750Y-4827500D01*
X5773750Y-4767500D02*
X5893750Y-4767500D01*
X5857500Y-3012500D02*
X5857500Y-3132500D01*
X5797500Y-3072500D02*
X5917500Y-3072500D01*
X6310000Y-6612500D02*
X6310000Y-6732500D01*
X6250000Y-6672500D02*
X6370000Y-6672500D01*
X6333750Y-4917500D02*
X6333750Y-5037500D01*
X6273750Y-4977500D02*
X6393750Y-4977500D01*
X6810000Y-6822500D02*
X6810000Y-6942500D01*
X6750000Y-6882500D02*
X6870000Y-6882500D01*
X7262500Y-2802500D02*
X7262500Y-2922500D01*
X7202500Y-2862500D02*
X7322500Y-2862500D01*
X7738750Y-4707500D02*
X7738750Y-4827500D01*
X7678750Y-4767500D02*
X7798750Y-4767500D01*
X7762500Y-3012500D02*
X7762500Y-3132500D01*
X7702500Y-3072500D02*
X7822500Y-3072500D01*
X8215000Y-6612500D02*
X8215000Y-6732500D01*
X8155000Y-6672500D02*
X8275000Y-6672500D01*
X8238750Y-4917500D02*
X8238750Y-5037500D01*
X8178750Y-4977500D02*
X8298750Y-4977500D01*
X8715000Y-6822500D02*
X8715000Y-6942500D01*
X8655000Y-6882500D02*
X8775000Y-6882500D01*
X9167500Y-2802500D02*
X9167500Y-2922500D01*
X9107500Y-2862500D02*
X9227500Y-2862500D01*
X9643750Y-4707500D02*
X9643750Y-4827500D01*
X9583750Y-4767500D02*
X9703750Y-4767500D01*
X9667500Y-3012500D02*
X9667500Y-3132500D01*
X9607500Y-3072500D02*
X9727500Y-3072500D01*
X10120000Y-6612500D02*
X10120000Y-6732500D01*
X10060000Y-6672500D02*
X10180000Y-6672500D01*
X10143750Y-4917500D02*
X10143750Y-5037500D01*
X10083750Y-4977500D02*
X10203750Y-4977500D01*
X10620000Y-6822500D02*
X10620000Y-6942500D01*
X10560000Y-6882500D02*
X10680000Y-6882500D01*
X11072500Y-2802500D02*
X11072500Y-2922500D01*
X11012500Y-2862500D02*
X11132500Y-2862500D01*
X11548750Y-4707500D02*
X11548750Y-4827500D01*
X11488750Y-4767500D02*
X11608750Y-4767500D01*
X11572500Y-3012500D02*
X11572500Y-3132500D01*
X11512500Y-3072500D02*
X11632500Y-3072500D01*
X12048750Y-4917500D02*
X12048750Y-5037500D01*
X11988750Y-4977500D02*
X12108750Y-4977500D01*
X12501250Y-6612500D02*
X12501250Y-6732500D01*
X12441250Y-6672500D02*
X12561250Y-6672500D01*
X12977500Y-2802500D02*
X12977500Y-2922500D01*
X12917500Y-2862500D02*
X13037500Y-2862500D01*
X13001250Y-6822500D02*
X13001250Y-6942500D01*
X12941250Y-6882500D02*
X13061250Y-6882500D01*
X13453750Y-4707500D02*
X13453750Y-4827500D01*
X13393750Y-4767500D02*
X13513750Y-4767500D01*
X13477500Y-3012500D02*
X13477500Y-3132500D01*
X13417500Y-3072500D02*
X13537500Y-3072500D01*
X13953750Y-4917500D02*
X13953750Y-5037500D01*
X13893750Y-4977500D02*
X14013750Y-4977500D01*
X14882500Y-2802500D02*
X14882500Y-2922500D01*
X14822500Y-2862500D02*
X14942500Y-2862500D01*
X14882500Y-6612500D02*
X14882500Y-6732500D01*
X14822500Y-6672500D02*
X14942500Y-6672500D01*
X15358750Y-4707500D02*
X15358750Y-4827500D01*
X15298750Y-4767500D02*
X15418750Y-4767500D01*
X15382500Y-3012500D02*
X15382500Y-3132500D01*
X15322500Y-3072500D02*
X15442500Y-3072500D01*
X15382500Y-6822500D02*
X15382500Y-6942500D01*
X15322500Y-6882500D02*
X15442500Y-6882500D01*
X15858750Y-4917500D02*
X15858750Y-5037500D01*
X15798750Y-4977500D02*
X15918750Y-4977500D01*
X16787500Y-2802500D02*
X16787500Y-2922500D01*
X16727500Y-2862500D02*
X16847500Y-2862500D01*
X16787500Y-6612500D02*
X16787500Y-6732500D01*
X16727500Y-6672500D02*
X16847500Y-6672500D01*
X17263750Y-4707500D02*
X17263750Y-4827500D01*
X17203750Y-4767500D02*
X17323750Y-4767500D01*
X17287500Y-3012500D02*
X17287500Y-3132500D01*
X17227500Y-3072500D02*
X17347500Y-3072500D01*
X17287500Y-6822500D02*
X17287500Y-6942500D01*
X17227500Y-6882500D02*
X17347500Y-6882500D01*
X17763750Y-4917500D02*
X17763750Y-5037500D01*
X17703750Y-4977500D02*
X17823750Y-4977500D01*
X18692500Y-2802500D02*
X18692500Y-2922500D01*
X18632500Y-2862500D02*
X18752500Y-2862500D01*
X18692500Y-6612500D02*
X18692500Y-6732500D01*
X18632500Y-6672500D02*
X18752500Y-6672500D01*
X19192500Y-3012500D02*
X19192500Y-3132500D01*
X19132500Y-3072500D02*
X19252500Y-3072500D01*
X19192500Y-6822500D02*
X19192500Y-6942500D01*
X19132500Y-6882500D02*
X19252500Y-6882500D01*
X19883125Y-4707500D02*
X19883125Y-4827500D01*
X19823125Y-4767500D02*
X19943125Y-4767500D01*
X20383125Y-4917500D02*
X20383125Y-5037500D01*
X20323125Y-4977500D02*
X20443125Y-4977500D01*
X20597500Y-2802500D02*
X20597500Y-2922500D01*
X20537500Y-2862500D02*
X20657500Y-2862500D01*
X20597500Y-6612500D02*
X20597500Y-6732500D01*
X20537500Y-6672500D02*
X20657500Y-6672500D01*
X21097500Y-3012500D02*
X21097500Y-3132500D01*
X21037500Y-3072500D02*
X21157500Y-3072500D01*
X21097500Y-6822500D02*
X21097500Y-6942500D01*
X21037500Y-6882500D02*
X21157500Y-6882500D01*
D14*
X3125382Y-3252382D02*
X3125382Y-3144618D01*
X3017618Y-3144618D01*
X3017618Y-3252382D01*
X3125382Y-3252382D01*
X3363507Y-5157382D02*
X3363507Y-5049618D01*
X3255743Y-5049618D01*
X3255743Y-5157382D01*
X3363507Y-5157382D01*
X3601632Y-7062382D02*
X3601632Y-6954618D01*
X3493868Y-6954618D01*
X3493868Y-7062382D01*
X3601632Y-7062382D01*
X3760382Y-2998382D02*
X3760382Y-2890618D01*
X3652618Y-2890618D01*
X3652618Y-2998382D01*
X3760382Y-2998382D01*
X3998507Y-4903382D02*
X3998507Y-4795618D01*
X3890743Y-4795618D01*
X3890743Y-4903382D01*
X3998507Y-4903382D01*
X4236632Y-6808382D02*
X4236632Y-6700618D01*
X4128868Y-6700618D01*
X4128868Y-6808382D01*
X4236632Y-6808382D01*
X5030382Y-3252382D02*
X5030382Y-3144618D01*
X4922618Y-3144618D01*
X4922618Y-3252382D01*
X5030382Y-3252382D01*
X5506632Y-5157382D02*
X5506632Y-5049618D01*
X5398868Y-5049618D01*
X5398868Y-5157382D01*
X5506632Y-5157382D01*
X5665382Y-2998382D02*
X5665382Y-2890618D01*
X5557618Y-2890618D01*
X5557618Y-2998382D01*
X5665382Y-2998382D01*
X5982882Y-7062382D02*
X5982882Y-6954618D01*
X5875118Y-6954618D01*
X5875118Y-7062382D01*
X5982882Y-7062382D01*
X6141632Y-4903382D02*
X6141632Y-4795618D01*
X6033868Y-4795618D01*
X6033868Y-4903382D01*
X6141632Y-4903382D01*
X6617882Y-6808382D02*
X6617882Y-6700618D01*
X6510118Y-6700618D01*
X6510118Y-6808382D01*
X6617882Y-6808382D01*
X6935382Y-3252382D02*
X6935382Y-3144618D01*
X6827618Y-3144618D01*
X6827618Y-3252382D01*
X6935382Y-3252382D01*
X7411632Y-5157382D02*
X7411632Y-5049618D01*
X7303868Y-5049618D01*
X7303868Y-5157382D01*
X7411632Y-5157382D01*
X7570382Y-2998382D02*
X7570382Y-2890618D01*
X7462618Y-2890618D01*
X7462618Y-2998382D01*
X7570382Y-2998382D01*
X7887882Y-7062382D02*
X7887882Y-6954618D01*
X7780118Y-6954618D01*
X7780118Y-7062382D01*
X7887882Y-7062382D01*
X8046632Y-4903382D02*
X8046632Y-4795618D01*
X7938868Y-4795618D01*
X7938868Y-4903382D01*
X8046632Y-4903382D01*
X8522882Y-6808382D02*
X8522882Y-6700618D01*
X8415118Y-6700618D01*
X8415118Y-6808382D01*
X8522882Y-6808382D01*
X8840382Y-3252382D02*
X8840382Y-3144618D01*
X8732618Y-3144618D01*
X8732618Y-3252382D01*
X8840382Y-3252382D01*
X9316632Y-5157382D02*
X9316632Y-5049618D01*
X9208868Y-5049618D01*
X9208868Y-5157382D01*
X9316632Y-5157382D01*
X9475382Y-2998382D02*
X9475382Y-2890618D01*
X9367618Y-2890618D01*
X9367618Y-2998382D01*
X9475382Y-2998382D01*
X9792882Y-7062382D02*
X9792882Y-6954618D01*
X9685118Y-6954618D01*
X9685118Y-7062382D01*
X9792882Y-7062382D01*
X9951632Y-4903382D02*
X9951632Y-4795618D01*
X9843868Y-4795618D01*
X9843868Y-4903382D01*
X9951632Y-4903382D01*
X10427882Y-6808382D02*
X10427882Y-6700618D01*
X10320118Y-6700618D01*
X10320118Y-6808382D01*
X10427882Y-6808382D01*
X10745382Y-3252382D02*
X10745382Y-3144618D01*
X10637618Y-3144618D01*
X10637618Y-3252382D01*
X10745382Y-3252382D01*
X11221632Y-5157382D02*
X11221632Y-5049618D01*
X11113868Y-5049618D01*
X11113868Y-5157382D01*
X11221632Y-5157382D01*
X11380382Y-2998382D02*
X11380382Y-2890618D01*
X11272618Y-2890618D01*
X11272618Y-2998382D01*
X11380382Y-2998382D01*
X11856632Y-4903382D02*
X11856632Y-4795618D01*
X11748868Y-4795618D01*
X11748868Y-4903382D01*
X11856632Y-4903382D01*
X12174132Y-7062382D02*
X12174132Y-6954618D01*
X12066368Y-6954618D01*
X12066368Y-7062382D01*
X12174132Y-7062382D01*
X12650382Y-3252382D02*
X12650382Y-3144618D01*
X12542618Y-3144618D01*
X12542618Y-3252382D01*
X12650382Y-3252382D01*
X12809132Y-6808382D02*
X12809132Y-6700618D01*
X12701368Y-6700618D01*
X12701368Y-6808382D01*
X12809132Y-6808382D01*
X13126632Y-5157382D02*
X13126632Y-5049618D01*
X13018868Y-5049618D01*
X13018868Y-5157382D01*
X13126632Y-5157382D01*
X13285382Y-2998382D02*
X13285382Y-2890618D01*
X13177618Y-2890618D01*
X13177618Y-2998382D01*
X13285382Y-2998382D01*
X13761632Y-4903382D02*
X13761632Y-4795618D01*
X13653868Y-4795618D01*
X13653868Y-4903382D01*
X13761632Y-4903382D01*
X14555382Y-3252382D02*
X14555382Y-3144618D01*
X14447618Y-3144618D01*
X14447618Y-3252382D01*
X14555382Y-3252382D01*
X14555382Y-7062382D02*
X14555382Y-6954618D01*
X14447618Y-6954618D01*
X14447618Y-7062382D01*
X14555382Y-7062382D01*
X15031632Y-5157382D02*
X15031632Y-5049618D01*
X14923868Y-5049618D01*
X14923868Y-5157382D01*
X15031632Y-5157382D01*
X15190382Y-2998382D02*
X15190382Y-2890618D01*
X15082618Y-2890618D01*
X15082618Y-2998382D01*
X15190382Y-2998382D01*
X15190382Y-6808382D02*
X15190382Y-6700618D01*
X15082618Y-6700618D01*
X15082618Y-6808382D01*
X15190382Y-6808382D01*
X15666632Y-4903382D02*
X15666632Y-4795618D01*
X15558868Y-4795618D01*
X15558868Y-4903382D01*
X15666632Y-4903382D01*
X16460382Y-3252382D02*
X16460382Y-3144618D01*
X16352618Y-3144618D01*
X16352618Y-3252382D01*
X16460382Y-3252382D01*
X16460382Y-7062382D02*
X16460382Y-6954618D01*
X16352618Y-6954618D01*
X16352618Y-7062382D01*
X16460382Y-7062382D01*
X16936632Y-5157382D02*
X16936632Y-5049618D01*
X16828868Y-5049618D01*
X16828868Y-5157382D01*
X16936632Y-5157382D01*
X17095382Y-2998382D02*
X17095382Y-2890618D01*
X16987618Y-2890618D01*
X16987618Y-2998382D01*
X17095382Y-2998382D01*
X17095382Y-6808382D02*
X17095382Y-6700618D01*
X16987618Y-6700618D01*
X16987618Y-6808382D01*
X17095382Y-6808382D01*
X17571632Y-4903382D02*
X17571632Y-4795618D01*
X17463868Y-4795618D01*
X17463868Y-4903382D01*
X17571632Y-4903382D01*
X18365382Y-3252382D02*
X18365382Y-3144618D01*
X18257618Y-3144618D01*
X18257618Y-3252382D01*
X18365382Y-3252382D01*
X18365382Y-7062382D02*
X18365382Y-6954618D01*
X18257618Y-6954618D01*
X18257618Y-7062382D01*
X18365382Y-7062382D01*
X19000382Y-2998382D02*
X19000382Y-2890618D01*
X18892618Y-2890618D01*
X18892618Y-2998382D01*
X19000382Y-2998382D01*
X19000382Y-6808382D02*
X19000382Y-6700618D01*
X18892618Y-6700618D01*
X18892618Y-6808382D01*
X19000382Y-6808382D01*
X19556007Y-5157382D02*
X19556007Y-5049618D01*
X19448243Y-5049618D01*
X19448243Y-5157382D01*
X19556007Y-5157382D01*
X20191007Y-4903382D02*
X20191007Y-4795618D01*
X20083243Y-4795618D01*
X20083243Y-4903382D01*
X20191007Y-4903382D01*
X20270382Y-3252382D02*
X20270382Y-3144618D01*
X20162618Y-3144618D01*
X20162618Y-3252382D01*
X20270382Y-3252382D01*
X20270382Y-7062382D02*
X20270382Y-6954618D01*
X20162618Y-6954618D01*
X20162618Y-7062382D01*
X20270382Y-7062382D01*
X20905382Y-2998382D02*
X20905382Y-2890618D01*
X20797618Y-2890618D01*
X20797618Y-2998382D01*
X20905382Y-2998382D01*
X20905382Y-6808382D02*
X20905382Y-6700618D01*
X20797618Y-6700618D01*
X20797618Y-6808382D01*
X20905382Y-6808382D01*
D15*
X2143125Y-3681875D02*
X2253125Y-3571875D01*
X2143125Y-3461875D01*
X2033125Y-3571875D01*
X2143125Y-3681875D01*
X2143125Y-7253750D02*
X2253125Y-7143750D01*
X2143125Y-7033750D01*
X2033125Y-7143750D01*
X2143125Y-7253750D01*
X24169748Y-3681884D02*
X24279748Y-3571884D01*
X24169748Y-3461884D01*
X24059748Y-3571884D01*
X24169748Y-3681884D01*
X24169830Y-7253792D02*
X24279830Y-7143792D01*
X24169830Y-7033792D01*
X24059830Y-7143792D01*
X24169830Y-7253792D01*
D11*
X2041714Y-8531817D02*
X2041714Y-8331817D01*
X2041714Y-8331817D02*
X2089333Y-8331817D01*
X2089333Y-8331817D02*
X2117905Y-8341341D01*
X2117905Y-8341341D02*
X2136952Y-8360389D01*
X2136952Y-8360389D02*
X2146476Y-8379436D01*
X2146476Y-8379436D02*
X2156000Y-8417532D01*
X2156000Y-8417532D02*
X2156000Y-8446103D01*
X2156000Y-8446103D02*
X2146476Y-8484198D01*
X2146476Y-8484198D02*
X2136952Y-8503246D01*
X2136952Y-8503246D02*
X2117905Y-8522294D01*
X2117905Y-8522294D02*
X2089333Y-8531817D01*
X2089333Y-8531817D02*
X2041714Y-8531817D01*
X2241714Y-8531817D02*
X2241714Y-8398484D01*
X2241714Y-8436579D02*
X2251238Y-8417532D01*
X2251238Y-8417532D02*
X2260762Y-8408008D01*
X2260762Y-8408008D02*
X2279810Y-8398484D01*
X2279810Y-8398484D02*
X2298857Y-8398484D01*
X2365524Y-8531817D02*
X2365524Y-8398484D01*
X2365524Y-8331817D02*
X2356000Y-8341341D01*
X2356000Y-8341341D02*
X2365524Y-8350865D01*
X2365524Y-8350865D02*
X2375048Y-8341341D01*
X2375048Y-8341341D02*
X2365524Y-8331817D01*
X2365524Y-8331817D02*
X2365524Y-8350865D01*
X2489333Y-8531817D02*
X2470286Y-8522294D01*
X2470286Y-8522294D02*
X2460762Y-8503246D01*
X2460762Y-8503246D02*
X2460762Y-8331817D01*
X2594095Y-8531817D02*
X2575048Y-8522294D01*
X2575048Y-8522294D02*
X2565524Y-8503246D01*
X2565524Y-8503246D02*
X2565524Y-8331817D01*
X2822667Y-8531817D02*
X2822667Y-8331817D01*
X2822667Y-8331817D02*
X2889333Y-8474674D01*
X2889333Y-8474674D02*
X2956000Y-8331817D01*
X2956000Y-8331817D02*
X2956000Y-8531817D01*
X3136952Y-8531817D02*
X3136952Y-8427055D01*
X3136952Y-8427055D02*
X3127429Y-8408008D01*
X3127429Y-8408008D02*
X3108381Y-8398484D01*
X3108381Y-8398484D02*
X3070286Y-8398484D01*
X3070286Y-8398484D02*
X3051238Y-8408008D01*
X3136952Y-8522294D02*
X3117905Y-8531817D01*
X3117905Y-8531817D02*
X3070286Y-8531817D01*
X3070286Y-8531817D02*
X3051238Y-8522294D01*
X3051238Y-8522294D02*
X3041714Y-8503246D01*
X3041714Y-8503246D02*
X3041714Y-8484198D01*
X3041714Y-8484198D02*
X3051238Y-8465151D01*
X3051238Y-8465151D02*
X3070286Y-8455627D01*
X3070286Y-8455627D02*
X3117905Y-8455627D01*
X3117905Y-8455627D02*
X3136952Y-8446103D01*
X3232190Y-8398484D02*
X3232190Y-8598484D01*
X3232190Y-8408008D02*
X3251238Y-8398484D01*
X3251238Y-8398484D02*
X3289333Y-8398484D01*
X3289333Y-8398484D02*
X3308381Y-8408008D01*
X3308381Y-8408008D02*
X3317905Y-8417532D01*
X3317905Y-8417532D02*
X3327429Y-8436579D01*
X3327429Y-8436579D02*
X3327429Y-8493722D01*
X3327429Y-8493722D02*
X3317905Y-8512770D01*
X3317905Y-8512770D02*
X3308381Y-8522294D01*
X3308381Y-8522294D02*
X3289333Y-8531817D01*
X3289333Y-8531817D02*
X3251238Y-8531817D01*
X3251238Y-8531817D02*
X3232190Y-8522294D01*
X3413143Y-8512770D02*
X3422667Y-8522294D01*
X3422667Y-8522294D02*
X3413143Y-8531817D01*
X3413143Y-8531817D02*
X3403619Y-8522294D01*
X3403619Y-8522294D02*
X3413143Y-8512770D01*
X3413143Y-8512770D02*
X3413143Y-8531817D01*
X3413143Y-8408008D02*
X3422667Y-8417532D01*
X3422667Y-8417532D02*
X3413143Y-8427055D01*
X3413143Y-8427055D02*
X3403619Y-8417532D01*
X3403619Y-8417532D02*
X3413143Y-8408008D01*
X3413143Y-8408008D02*
X3413143Y-8427055D01*
D12*
X1740937Y-8840334D02*
X1780937Y-8880334D01*
X1780937Y-8840334D02*
X1740937Y-8880334D01*
D11*
X2079809Y-8751817D02*
X2098857Y-8751817D01*
X2098857Y-8751817D02*
X2117905Y-8761341D01*
X2117905Y-8761341D02*
X2127429Y-8770865D01*
X2127429Y-8770865D02*
X2136952Y-8789913D01*
X2136952Y-8789913D02*
X2146476Y-8828008D01*
X2146476Y-8828008D02*
X2146476Y-8875627D01*
X2146476Y-8875627D02*
X2136952Y-8913722D01*
X2136952Y-8913722D02*
X2127429Y-8932770D01*
X2127429Y-8932770D02*
X2117905Y-8942294D01*
X2117905Y-8942294D02*
X2098857Y-8951817D01*
X2098857Y-8951817D02*
X2079809Y-8951817D01*
X2079809Y-8951817D02*
X2060762Y-8942294D01*
X2060762Y-8942294D02*
X2051238Y-8932770D01*
X2051238Y-8932770D02*
X2041714Y-8913722D01*
X2041714Y-8913722D02*
X2032190Y-8875627D01*
X2032190Y-8875627D02*
X2032190Y-8828008D01*
X2032190Y-8828008D02*
X2041714Y-8789913D01*
X2041714Y-8789913D02*
X2051238Y-8770865D01*
X2051238Y-8770865D02*
X2060762Y-8761341D01*
X2060762Y-8761341D02*
X2079809Y-8751817D01*
X2232191Y-8932770D02*
X2241714Y-8942294D01*
X2241714Y-8942294D02*
X2232191Y-8951817D01*
X2232191Y-8951817D02*
X2222667Y-8942294D01*
X2222667Y-8942294D02*
X2232191Y-8932770D01*
X2232191Y-8932770D02*
X2232191Y-8951817D01*
X2413143Y-8818484D02*
X2413143Y-8951817D01*
X2365524Y-8742294D02*
X2317905Y-8885151D01*
X2317905Y-8885151D02*
X2441714Y-8885151D01*
X2556000Y-8751817D02*
X2575048Y-8751817D01*
X2575048Y-8751817D02*
X2594095Y-8761341D01*
X2594095Y-8761341D02*
X2603619Y-8770865D01*
X2603619Y-8770865D02*
X2613143Y-8789913D01*
X2613143Y-8789913D02*
X2622667Y-8828008D01*
X2622667Y-8828008D02*
X2622667Y-8875627D01*
X2622667Y-8875627D02*
X2613143Y-8913722D01*
X2613143Y-8913722D02*
X2603619Y-8932770D01*
X2603619Y-8932770D02*
X2594095Y-8942294D01*
X2594095Y-8942294D02*
X2575048Y-8951817D01*
X2575048Y-8951817D02*
X2556000Y-8951817D01*
X2556000Y-8951817D02*
X2536952Y-8942294D01*
X2536952Y-8942294D02*
X2527429Y-8932770D01*
X2527429Y-8932770D02*
X2517905Y-8913722D01*
X2517905Y-8913722D02*
X2508381Y-8875627D01*
X2508381Y-8875627D02*
X2508381Y-8828008D01*
X2508381Y-8828008D02*
X2517905Y-8789913D01*
X2517905Y-8789913D02*
X2527429Y-8770865D01*
X2527429Y-8770865D02*
X2536952Y-8761341D01*
X2536952Y-8761341D02*
X2556000Y-8751817D01*
X2746476Y-8751817D02*
X2765524Y-8751817D01*
X2765524Y-8751817D02*
X2784572Y-8761341D01*
X2784572Y-8761341D02*
X2794095Y-8770865D01*
X2794095Y-8770865D02*
X2803619Y-8789913D01*
X2803619Y-8789913D02*
X2813143Y-8828008D01*
X2813143Y-8828008D02*
X2813143Y-8875627D01*
X2813143Y-8875627D02*
X2803619Y-8913722D01*
X2803619Y-8913722D02*
X2794095Y-8932770D01*
X2794095Y-8932770D02*
X2784572Y-8942294D01*
X2784572Y-8942294D02*
X2765524Y-8951817D01*
X2765524Y-8951817D02*
X2746476Y-8951817D01*
X2746476Y-8951817D02*
X2727429Y-8942294D01*
X2727429Y-8942294D02*
X2717905Y-8932770D01*
X2717905Y-8932770D02*
X2708381Y-8913722D01*
X2708381Y-8913722D02*
X2698857Y-8875627D01*
X2698857Y-8875627D02*
X2698857Y-8828008D01*
X2698857Y-8828008D02*
X2708381Y-8789913D01*
X2708381Y-8789913D02*
X2717905Y-8770865D01*
X2717905Y-8770865D02*
X2727429Y-8761341D01*
X2727429Y-8761341D02*
X2746476Y-8751817D01*
X2898857Y-8951817D02*
X2898857Y-8818484D01*
X2898857Y-8837532D02*
X2908381Y-8828008D01*
X2908381Y-8828008D02*
X2927429Y-8818484D01*
X2927429Y-8818484D02*
X2956000Y-8818484D01*
X2956000Y-8818484D02*
X2975048Y-8828008D01*
X2975048Y-8828008D02*
X2984571Y-8847055D01*
X2984571Y-8847055D02*
X2984571Y-8951817D01*
X2984571Y-8847055D02*
X2994095Y-8828008D01*
X2994095Y-8828008D02*
X3013143Y-8818484D01*
X3013143Y-8818484D02*
X3041714Y-8818484D01*
X3041714Y-8818484D02*
X3060762Y-8828008D01*
X3060762Y-8828008D02*
X3070286Y-8847055D01*
X3070286Y-8847055D02*
X3070286Y-8951817D01*
X3165524Y-8951817D02*
X3165524Y-8818484D01*
X3165524Y-8837532D02*
X3175048Y-8828008D01*
X3175048Y-8828008D02*
X3194095Y-8818484D01*
X3194095Y-8818484D02*
X3222667Y-8818484D01*
X3222667Y-8818484D02*
X3241714Y-8828008D01*
X3241714Y-8828008D02*
X3251238Y-8847055D01*
X3251238Y-8847055D02*
X3251238Y-8951817D01*
X3251238Y-8847055D02*
X3260762Y-8828008D01*
X3260762Y-8828008D02*
X3279810Y-8818484D01*
X3279810Y-8818484D02*
X3308381Y-8818484D01*
X3308381Y-8818484D02*
X3327429Y-8828008D01*
X3327429Y-8828008D02*
X3336952Y-8847055D01*
X3336952Y-8847055D02*
X3336952Y-8951817D01*
X3727429Y-8742294D02*
X3556000Y-8999436D01*
X3984572Y-8751817D02*
X4003619Y-8751817D01*
X4003619Y-8751817D02*
X4022667Y-8761341D01*
X4022667Y-8761341D02*
X4032191Y-8770865D01*
X4032191Y-8770865D02*
X4041714Y-8789913D01*
X4041714Y-8789913D02*
X4051238Y-8828008D01*
X4051238Y-8828008D02*
X4051238Y-8875627D01*
X4051238Y-8875627D02*
X4041714Y-8913722D01*
X4041714Y-8913722D02*
X4032191Y-8932770D01*
X4032191Y-8932770D02*
X4022667Y-8942294D01*
X4022667Y-8942294D02*
X4003619Y-8951817D01*
X4003619Y-8951817D02*
X3984572Y-8951817D01*
X3984572Y-8951817D02*
X3965524Y-8942294D01*
X3965524Y-8942294D02*
X3956000Y-8932770D01*
X3956000Y-8932770D02*
X3946476Y-8913722D01*
X3946476Y-8913722D02*
X3936953Y-8875627D01*
X3936953Y-8875627D02*
X3936953Y-8828008D01*
X3936953Y-8828008D02*
X3946476Y-8789913D01*
X3946476Y-8789913D02*
X3956000Y-8770865D01*
X3956000Y-8770865D02*
X3965524Y-8761341D01*
X3965524Y-8761341D02*
X3984572Y-8751817D01*
X4136953Y-8932770D02*
X4146476Y-8942294D01*
X4146476Y-8942294D02*
X4136953Y-8951817D01*
X4136953Y-8951817D02*
X4127429Y-8942294D01*
X4127429Y-8942294D02*
X4136953Y-8932770D01*
X4136953Y-8932770D02*
X4136953Y-8951817D01*
X4270286Y-8751817D02*
X4289334Y-8751817D01*
X4289334Y-8751817D02*
X4308381Y-8761341D01*
X4308381Y-8761341D02*
X4317905Y-8770865D01*
X4317905Y-8770865D02*
X4327429Y-8789913D01*
X4327429Y-8789913D02*
X4336953Y-8828008D01*
X4336953Y-8828008D02*
X4336953Y-8875627D01*
X4336953Y-8875627D02*
X4327429Y-8913722D01*
X4327429Y-8913722D02*
X4317905Y-8932770D01*
X4317905Y-8932770D02*
X4308381Y-8942294D01*
X4308381Y-8942294D02*
X4289334Y-8951817D01*
X4289334Y-8951817D02*
X4270286Y-8951817D01*
X4270286Y-8951817D02*
X4251238Y-8942294D01*
X4251238Y-8942294D02*
X4241715Y-8932770D01*
X4241715Y-8932770D02*
X4232191Y-8913722D01*
X4232191Y-8913722D02*
X4222667Y-8875627D01*
X4222667Y-8875627D02*
X4222667Y-8828008D01*
X4222667Y-8828008D02*
X4232191Y-8789913D01*
X4232191Y-8789913D02*
X4241715Y-8770865D01*
X4241715Y-8770865D02*
X4251238Y-8761341D01*
X4251238Y-8761341D02*
X4270286Y-8751817D01*
X4527429Y-8951817D02*
X4413143Y-8951817D01*
X4470286Y-8951817D02*
X4470286Y-8751817D01*
X4470286Y-8751817D02*
X4451238Y-8780389D01*
X4451238Y-8780389D02*
X4432191Y-8799436D01*
X4432191Y-8799436D02*
X4413143Y-8808960D01*
X4708381Y-8751817D02*
X4613143Y-8751817D01*
X4613143Y-8751817D02*
X4603619Y-8847055D01*
X4603619Y-8847055D02*
X4613143Y-8837532D01*
X4613143Y-8837532D02*
X4632191Y-8828008D01*
X4632191Y-8828008D02*
X4679810Y-8828008D01*
X4679810Y-8828008D02*
X4698857Y-8837532D01*
X4698857Y-8837532D02*
X4708381Y-8847055D01*
X4708381Y-8847055D02*
X4717905Y-8866103D01*
X4717905Y-8866103D02*
X4717905Y-8913722D01*
X4717905Y-8913722D02*
X4708381Y-8932770D01*
X4708381Y-8932770D02*
X4698857Y-8942294D01*
X4698857Y-8942294D02*
X4679810Y-8951817D01*
X4679810Y-8951817D02*
X4632191Y-8951817D01*
X4632191Y-8951817D02*
X4613143Y-8942294D01*
X4613143Y-8942294D02*
X4603619Y-8932770D01*
X4784572Y-8751817D02*
X4917905Y-8751817D01*
X4917905Y-8751817D02*
X4832191Y-8951817D01*
X4984572Y-8751817D02*
X4984572Y-8789913D01*
X5060762Y-8751817D02*
X5060762Y-8789913D01*
X5356000Y-9028008D02*
X5346477Y-9018484D01*
X5346477Y-9018484D02*
X5327429Y-8989913D01*
X5327429Y-8989913D02*
X5317905Y-8970865D01*
X5317905Y-8970865D02*
X5308381Y-8942294D01*
X5308381Y-8942294D02*
X5298858Y-8894674D01*
X5298858Y-8894674D02*
X5298858Y-8856579D01*
X5298858Y-8856579D02*
X5308381Y-8808960D01*
X5308381Y-8808960D02*
X5317905Y-8780389D01*
X5317905Y-8780389D02*
X5327429Y-8761341D01*
X5327429Y-8761341D02*
X5346477Y-8732770D01*
X5346477Y-8732770D02*
X5356000Y-8723246D01*
X5422667Y-8770865D02*
X5432191Y-8761341D01*
X5432191Y-8761341D02*
X5451238Y-8751817D01*
X5451238Y-8751817D02*
X5498858Y-8751817D01*
X5498858Y-8751817D02*
X5517905Y-8761341D01*
X5517905Y-8761341D02*
X5527429Y-8770865D01*
X5527429Y-8770865D02*
X5536953Y-8789913D01*
X5536953Y-8789913D02*
X5536953Y-8808960D01*
X5536953Y-8808960D02*
X5527429Y-8837532D01*
X5527429Y-8837532D02*
X5413143Y-8951817D01*
X5413143Y-8951817D02*
X5536953Y-8951817D01*
X5717905Y-8751817D02*
X5622667Y-8751817D01*
X5622667Y-8751817D02*
X5613143Y-8847055D01*
X5613143Y-8847055D02*
X5622667Y-8837532D01*
X5622667Y-8837532D02*
X5641715Y-8828008D01*
X5641715Y-8828008D02*
X5689334Y-8828008D01*
X5689334Y-8828008D02*
X5708381Y-8837532D01*
X5708381Y-8837532D02*
X5717905Y-8847055D01*
X5717905Y-8847055D02*
X5727429Y-8866103D01*
X5727429Y-8866103D02*
X5727429Y-8913722D01*
X5727429Y-8913722D02*
X5717905Y-8932770D01*
X5717905Y-8932770D02*
X5708381Y-8942294D01*
X5708381Y-8942294D02*
X5689334Y-8951817D01*
X5689334Y-8951817D02*
X5641715Y-8951817D01*
X5641715Y-8951817D02*
X5622667Y-8942294D01*
X5622667Y-8942294D02*
X5613143Y-8932770D01*
X5965524Y-8951817D02*
X5965524Y-8751817D01*
X6051238Y-8951817D02*
X6051238Y-8847055D01*
X6051238Y-8847055D02*
X6041715Y-8828008D01*
X6041715Y-8828008D02*
X6022667Y-8818484D01*
X6022667Y-8818484D02*
X5994096Y-8818484D01*
X5994096Y-8818484D02*
X5975048Y-8828008D01*
X5975048Y-8828008D02*
X5965524Y-8837532D01*
X6175048Y-8951817D02*
X6156000Y-8942294D01*
X6156000Y-8942294D02*
X6146477Y-8932770D01*
X6146477Y-8932770D02*
X6136953Y-8913722D01*
X6136953Y-8913722D02*
X6136953Y-8856579D01*
X6136953Y-8856579D02*
X6146477Y-8837532D01*
X6146477Y-8837532D02*
X6156000Y-8828008D01*
X6156000Y-8828008D02*
X6175048Y-8818484D01*
X6175048Y-8818484D02*
X6203619Y-8818484D01*
X6203619Y-8818484D02*
X6222667Y-8828008D01*
X6222667Y-8828008D02*
X6232191Y-8837532D01*
X6232191Y-8837532D02*
X6241715Y-8856579D01*
X6241715Y-8856579D02*
X6241715Y-8913722D01*
X6241715Y-8913722D02*
X6232191Y-8932770D01*
X6232191Y-8932770D02*
X6222667Y-8942294D01*
X6222667Y-8942294D02*
X6203619Y-8951817D01*
X6203619Y-8951817D02*
X6175048Y-8951817D01*
X6356000Y-8951817D02*
X6336953Y-8942294D01*
X6336953Y-8942294D02*
X6327429Y-8923246D01*
X6327429Y-8923246D02*
X6327429Y-8751817D01*
X6508381Y-8942294D02*
X6489334Y-8951817D01*
X6489334Y-8951817D02*
X6451238Y-8951817D01*
X6451238Y-8951817D02*
X6432191Y-8942294D01*
X6432191Y-8942294D02*
X6422667Y-8923246D01*
X6422667Y-8923246D02*
X6422667Y-8847055D01*
X6422667Y-8847055D02*
X6432191Y-8828008D01*
X6432191Y-8828008D02*
X6451238Y-8818484D01*
X6451238Y-8818484D02*
X6489334Y-8818484D01*
X6489334Y-8818484D02*
X6508381Y-8828008D01*
X6508381Y-8828008D02*
X6517905Y-8847055D01*
X6517905Y-8847055D02*
X6517905Y-8866103D01*
X6517905Y-8866103D02*
X6422667Y-8885151D01*
X6594096Y-8942294D02*
X6613143Y-8951817D01*
X6613143Y-8951817D02*
X6651238Y-8951817D01*
X6651238Y-8951817D02*
X6670286Y-8942294D01*
X6670286Y-8942294D02*
X6679810Y-8923246D01*
X6679810Y-8923246D02*
X6679810Y-8913722D01*
X6679810Y-8913722D02*
X6670286Y-8894674D01*
X6670286Y-8894674D02*
X6651238Y-8885151D01*
X6651238Y-8885151D02*
X6622667Y-8885151D01*
X6622667Y-8885151D02*
X6603619Y-8875627D01*
X6603619Y-8875627D02*
X6594096Y-8856579D01*
X6594096Y-8856579D02*
X6594096Y-8847055D01*
X6594096Y-8847055D02*
X6603619Y-8828008D01*
X6603619Y-8828008D02*
X6622667Y-8818484D01*
X6622667Y-8818484D02*
X6651238Y-8818484D01*
X6651238Y-8818484D02*
X6670286Y-8828008D01*
X6746477Y-9028008D02*
X6756000Y-9018484D01*
X6756000Y-9018484D02*
X6775048Y-8989913D01*
X6775048Y-8989913D02*
X6784572Y-8970865D01*
X6784572Y-8970865D02*
X6794096Y-8942294D01*
X6794096Y-8942294D02*
X6803619Y-8894674D01*
X6803619Y-8894674D02*
X6803619Y-8856579D01*
X6803619Y-8856579D02*
X6794096Y-8808960D01*
X6794096Y-8808960D02*
X6784572Y-8780389D01*
X6784572Y-8780389D02*
X6775048Y-8761341D01*
X6775048Y-8761341D02*
X6756000Y-8732770D01*
X6756000Y-8732770D02*
X6746477Y-8723246D01*
D10*
X1780937Y-9124334D02*
G75*
G03*
X1780937Y-9124334I-50000J0D01*
G01*
D11*
X2146476Y-9215817D02*
X2032190Y-9215817D01*
X2089333Y-9215817D02*
X2089333Y-9015817D01*
X2089333Y-9015817D02*
X2070286Y-9044389D01*
X2070286Y-9044389D02*
X2051238Y-9063436D01*
X2051238Y-9063436D02*
X2032190Y-9072960D01*
X2232191Y-9196770D02*
X2241714Y-9206294D01*
X2241714Y-9206294D02*
X2232191Y-9215817D01*
X2232191Y-9215817D02*
X2222667Y-9206294D01*
X2222667Y-9206294D02*
X2232191Y-9196770D01*
X2232191Y-9196770D02*
X2232191Y-9215817D01*
X2365524Y-9015817D02*
X2384572Y-9015817D01*
X2384572Y-9015817D02*
X2403619Y-9025341D01*
X2403619Y-9025341D02*
X2413143Y-9034865D01*
X2413143Y-9034865D02*
X2422667Y-9053913D01*
X2422667Y-9053913D02*
X2432191Y-9092008D01*
X2432191Y-9092008D02*
X2432191Y-9139627D01*
X2432191Y-9139627D02*
X2422667Y-9177722D01*
X2422667Y-9177722D02*
X2413143Y-9196770D01*
X2413143Y-9196770D02*
X2403619Y-9206294D01*
X2403619Y-9206294D02*
X2384572Y-9215817D01*
X2384572Y-9215817D02*
X2365524Y-9215817D01*
X2365524Y-9215817D02*
X2346476Y-9206294D01*
X2346476Y-9206294D02*
X2336952Y-9196770D01*
X2336952Y-9196770D02*
X2327429Y-9177722D01*
X2327429Y-9177722D02*
X2317905Y-9139627D01*
X2317905Y-9139627D02*
X2317905Y-9092008D01*
X2317905Y-9092008D02*
X2327429Y-9053913D01*
X2327429Y-9053913D02*
X2336952Y-9034865D01*
X2336952Y-9034865D02*
X2346476Y-9025341D01*
X2346476Y-9025341D02*
X2365524Y-9015817D01*
X2556000Y-9015817D02*
X2575048Y-9015817D01*
X2575048Y-9015817D02*
X2594095Y-9025341D01*
X2594095Y-9025341D02*
X2603619Y-9034865D01*
X2603619Y-9034865D02*
X2613143Y-9053913D01*
X2613143Y-9053913D02*
X2622667Y-9092008D01*
X2622667Y-9092008D02*
X2622667Y-9139627D01*
X2622667Y-9139627D02*
X2613143Y-9177722D01*
X2613143Y-9177722D02*
X2603619Y-9196770D01*
X2603619Y-9196770D02*
X2594095Y-9206294D01*
X2594095Y-9206294D02*
X2575048Y-9215817D01*
X2575048Y-9215817D02*
X2556000Y-9215817D01*
X2556000Y-9215817D02*
X2536952Y-9206294D01*
X2536952Y-9206294D02*
X2527429Y-9196770D01*
X2527429Y-9196770D02*
X2517905Y-9177722D01*
X2517905Y-9177722D02*
X2508381Y-9139627D01*
X2508381Y-9139627D02*
X2508381Y-9092008D01*
X2508381Y-9092008D02*
X2517905Y-9053913D01*
X2517905Y-9053913D02*
X2527429Y-9034865D01*
X2527429Y-9034865D02*
X2536952Y-9025341D01*
X2536952Y-9025341D02*
X2556000Y-9015817D01*
X2746476Y-9015817D02*
X2765524Y-9015817D01*
X2765524Y-9015817D02*
X2784572Y-9025341D01*
X2784572Y-9025341D02*
X2794095Y-9034865D01*
X2794095Y-9034865D02*
X2803619Y-9053913D01*
X2803619Y-9053913D02*
X2813143Y-9092008D01*
X2813143Y-9092008D02*
X2813143Y-9139627D01*
X2813143Y-9139627D02*
X2803619Y-9177722D01*
X2803619Y-9177722D02*
X2794095Y-9196770D01*
X2794095Y-9196770D02*
X2784572Y-9206294D01*
X2784572Y-9206294D02*
X2765524Y-9215817D01*
X2765524Y-9215817D02*
X2746476Y-9215817D01*
X2746476Y-9215817D02*
X2727429Y-9206294D01*
X2727429Y-9206294D02*
X2717905Y-9196770D01*
X2717905Y-9196770D02*
X2708381Y-9177722D01*
X2708381Y-9177722D02*
X2698857Y-9139627D01*
X2698857Y-9139627D02*
X2698857Y-9092008D01*
X2698857Y-9092008D02*
X2708381Y-9053913D01*
X2708381Y-9053913D02*
X2717905Y-9034865D01*
X2717905Y-9034865D02*
X2727429Y-9025341D01*
X2727429Y-9025341D02*
X2746476Y-9015817D01*
X2898857Y-9215817D02*
X2898857Y-9082484D01*
X2898857Y-9101532D02*
X2908381Y-9092008D01*
X2908381Y-9092008D02*
X2927429Y-9082484D01*
X2927429Y-9082484D02*
X2956000Y-9082484D01*
X2956000Y-9082484D02*
X2975048Y-9092008D01*
X2975048Y-9092008D02*
X2984571Y-9111055D01*
X2984571Y-9111055D02*
X2984571Y-9215817D01*
X2984571Y-9111055D02*
X2994095Y-9092008D01*
X2994095Y-9092008D02*
X3013143Y-9082484D01*
X3013143Y-9082484D02*
X3041714Y-9082484D01*
X3041714Y-9082484D02*
X3060762Y-9092008D01*
X3060762Y-9092008D02*
X3070286Y-9111055D01*
X3070286Y-9111055D02*
X3070286Y-9215817D01*
X3165524Y-9215817D02*
X3165524Y-9082484D01*
X3165524Y-9101532D02*
X3175048Y-9092008D01*
X3175048Y-9092008D02*
X3194095Y-9082484D01*
X3194095Y-9082484D02*
X3222667Y-9082484D01*
X3222667Y-9082484D02*
X3241714Y-9092008D01*
X3241714Y-9092008D02*
X3251238Y-9111055D01*
X3251238Y-9111055D02*
X3251238Y-9215817D01*
X3251238Y-9111055D02*
X3260762Y-9092008D01*
X3260762Y-9092008D02*
X3279810Y-9082484D01*
X3279810Y-9082484D02*
X3308381Y-9082484D01*
X3308381Y-9082484D02*
X3327429Y-9092008D01*
X3327429Y-9092008D02*
X3336952Y-9111055D01*
X3336952Y-9111055D02*
X3336952Y-9215817D01*
X3727429Y-9006294D02*
X3556000Y-9263436D01*
X3984572Y-9015817D02*
X4003619Y-9015817D01*
X4003619Y-9015817D02*
X4022667Y-9025341D01*
X4022667Y-9025341D02*
X4032191Y-9034865D01*
X4032191Y-9034865D02*
X4041714Y-9053913D01*
X4041714Y-9053913D02*
X4051238Y-9092008D01*
X4051238Y-9092008D02*
X4051238Y-9139627D01*
X4051238Y-9139627D02*
X4041714Y-9177722D01*
X4041714Y-9177722D02*
X4032191Y-9196770D01*
X4032191Y-9196770D02*
X4022667Y-9206294D01*
X4022667Y-9206294D02*
X4003619Y-9215817D01*
X4003619Y-9215817D02*
X3984572Y-9215817D01*
X3984572Y-9215817D02*
X3965524Y-9206294D01*
X3965524Y-9206294D02*
X3956000Y-9196770D01*
X3956000Y-9196770D02*
X3946476Y-9177722D01*
X3946476Y-9177722D02*
X3936953Y-9139627D01*
X3936953Y-9139627D02*
X3936953Y-9092008D01*
X3936953Y-9092008D02*
X3946476Y-9053913D01*
X3946476Y-9053913D02*
X3956000Y-9034865D01*
X3956000Y-9034865D02*
X3965524Y-9025341D01*
X3965524Y-9025341D02*
X3984572Y-9015817D01*
X4136953Y-9196770D02*
X4146476Y-9206294D01*
X4146476Y-9206294D02*
X4136953Y-9215817D01*
X4136953Y-9215817D02*
X4127429Y-9206294D01*
X4127429Y-9206294D02*
X4136953Y-9196770D01*
X4136953Y-9196770D02*
X4136953Y-9215817D01*
X4270286Y-9015817D02*
X4289334Y-9015817D01*
X4289334Y-9015817D02*
X4308381Y-9025341D01*
X4308381Y-9025341D02*
X4317905Y-9034865D01*
X4317905Y-9034865D02*
X4327429Y-9053913D01*
X4327429Y-9053913D02*
X4336953Y-9092008D01*
X4336953Y-9092008D02*
X4336953Y-9139627D01*
X4336953Y-9139627D02*
X4327429Y-9177722D01*
X4327429Y-9177722D02*
X4317905Y-9196770D01*
X4317905Y-9196770D02*
X4308381Y-9206294D01*
X4308381Y-9206294D02*
X4289334Y-9215817D01*
X4289334Y-9215817D02*
X4270286Y-9215817D01*
X4270286Y-9215817D02*
X4251238Y-9206294D01*
X4251238Y-9206294D02*
X4241715Y-9196770D01*
X4241715Y-9196770D02*
X4232191Y-9177722D01*
X4232191Y-9177722D02*
X4222667Y-9139627D01*
X4222667Y-9139627D02*
X4222667Y-9092008D01*
X4222667Y-9092008D02*
X4232191Y-9053913D01*
X4232191Y-9053913D02*
X4241715Y-9034865D01*
X4241715Y-9034865D02*
X4251238Y-9025341D01*
X4251238Y-9025341D02*
X4270286Y-9015817D01*
X4403619Y-9015817D02*
X4527429Y-9015817D01*
X4527429Y-9015817D02*
X4460762Y-9092008D01*
X4460762Y-9092008D02*
X4489334Y-9092008D01*
X4489334Y-9092008D02*
X4508381Y-9101532D01*
X4508381Y-9101532D02*
X4517905Y-9111055D01*
X4517905Y-9111055D02*
X4527429Y-9130103D01*
X4527429Y-9130103D02*
X4527429Y-9177722D01*
X4527429Y-9177722D02*
X4517905Y-9196770D01*
X4517905Y-9196770D02*
X4508381Y-9206294D01*
X4508381Y-9206294D02*
X4489334Y-9215817D01*
X4489334Y-9215817D02*
X4432191Y-9215817D01*
X4432191Y-9215817D02*
X4413143Y-9206294D01*
X4413143Y-9206294D02*
X4403619Y-9196770D01*
X4622667Y-9215817D02*
X4660762Y-9215817D01*
X4660762Y-9215817D02*
X4679810Y-9206294D01*
X4679810Y-9206294D02*
X4689334Y-9196770D01*
X4689334Y-9196770D02*
X4708381Y-9168198D01*
X4708381Y-9168198D02*
X4717905Y-9130103D01*
X4717905Y-9130103D02*
X4717905Y-9053913D01*
X4717905Y-9053913D02*
X4708381Y-9034865D01*
X4708381Y-9034865D02*
X4698857Y-9025341D01*
X4698857Y-9025341D02*
X4679810Y-9015817D01*
X4679810Y-9015817D02*
X4641715Y-9015817D01*
X4641715Y-9015817D02*
X4622667Y-9025341D01*
X4622667Y-9025341D02*
X4613143Y-9034865D01*
X4613143Y-9034865D02*
X4603619Y-9053913D01*
X4603619Y-9053913D02*
X4603619Y-9101532D01*
X4603619Y-9101532D02*
X4613143Y-9120579D01*
X4613143Y-9120579D02*
X4622667Y-9130103D01*
X4622667Y-9130103D02*
X4641715Y-9139627D01*
X4641715Y-9139627D02*
X4679810Y-9139627D01*
X4679810Y-9139627D02*
X4698857Y-9130103D01*
X4698857Y-9130103D02*
X4708381Y-9120579D01*
X4708381Y-9120579D02*
X4717905Y-9101532D01*
X4889334Y-9082484D02*
X4889334Y-9215817D01*
X4841715Y-9006294D02*
X4794096Y-9149151D01*
X4794096Y-9149151D02*
X4917905Y-9149151D01*
X4984572Y-9015817D02*
X4984572Y-9053913D01*
X5060762Y-9015817D02*
X5060762Y-9053913D01*
X5356000Y-9292008D02*
X5346477Y-9282484D01*
X5346477Y-9282484D02*
X5327429Y-9253913D01*
X5327429Y-9253913D02*
X5317905Y-9234865D01*
X5317905Y-9234865D02*
X5308381Y-9206294D01*
X5308381Y-9206294D02*
X5298858Y-9158674D01*
X5298858Y-9158674D02*
X5298858Y-9120579D01*
X5298858Y-9120579D02*
X5308381Y-9072960D01*
X5308381Y-9072960D02*
X5317905Y-9044389D01*
X5317905Y-9044389D02*
X5327429Y-9025341D01*
X5327429Y-9025341D02*
X5346477Y-8996770D01*
X5346477Y-8996770D02*
X5356000Y-8987246D01*
X5517905Y-9082484D02*
X5517905Y-9215817D01*
X5470286Y-9006294D02*
X5422667Y-9149151D01*
X5422667Y-9149151D02*
X5546477Y-9149151D01*
X5775048Y-9215817D02*
X5775048Y-9015817D01*
X5860762Y-9215817D02*
X5860762Y-9111055D01*
X5860762Y-9111055D02*
X5851238Y-9092008D01*
X5851238Y-9092008D02*
X5832191Y-9082484D01*
X5832191Y-9082484D02*
X5803619Y-9082484D01*
X5803619Y-9082484D02*
X5784572Y-9092008D01*
X5784572Y-9092008D02*
X5775048Y-9101532D01*
X5984572Y-9215817D02*
X5965524Y-9206294D01*
X5965524Y-9206294D02*
X5956000Y-9196770D01*
X5956000Y-9196770D02*
X5946477Y-9177722D01*
X5946477Y-9177722D02*
X5946477Y-9120579D01*
X5946477Y-9120579D02*
X5956000Y-9101532D01*
X5956000Y-9101532D02*
X5965524Y-9092008D01*
X5965524Y-9092008D02*
X5984572Y-9082484D01*
X5984572Y-9082484D02*
X6013143Y-9082484D01*
X6013143Y-9082484D02*
X6032191Y-9092008D01*
X6032191Y-9092008D02*
X6041715Y-9101532D01*
X6041715Y-9101532D02*
X6051238Y-9120579D01*
X6051238Y-9120579D02*
X6051238Y-9177722D01*
X6051238Y-9177722D02*
X6041715Y-9196770D01*
X6041715Y-9196770D02*
X6032191Y-9206294D01*
X6032191Y-9206294D02*
X6013143Y-9215817D01*
X6013143Y-9215817D02*
X5984572Y-9215817D01*
X6165524Y-9215817D02*
X6146477Y-9206294D01*
X6146477Y-9206294D02*
X6136953Y-9187246D01*
X6136953Y-9187246D02*
X6136953Y-9015817D01*
X6317905Y-9206294D02*
X6298858Y-9215817D01*
X6298858Y-9215817D02*
X6260762Y-9215817D01*
X6260762Y-9215817D02*
X6241715Y-9206294D01*
X6241715Y-9206294D02*
X6232191Y-9187246D01*
X6232191Y-9187246D02*
X6232191Y-9111055D01*
X6232191Y-9111055D02*
X6241715Y-9092008D01*
X6241715Y-9092008D02*
X6260762Y-9082484D01*
X6260762Y-9082484D02*
X6298858Y-9082484D01*
X6298858Y-9082484D02*
X6317905Y-9092008D01*
X6317905Y-9092008D02*
X6327429Y-9111055D01*
X6327429Y-9111055D02*
X6327429Y-9130103D01*
X6327429Y-9130103D02*
X6232191Y-9149151D01*
X6403619Y-9206294D02*
X6422667Y-9215817D01*
X6422667Y-9215817D02*
X6460762Y-9215817D01*
X6460762Y-9215817D02*
X6479810Y-9206294D01*
X6479810Y-9206294D02*
X6489334Y-9187246D01*
X6489334Y-9187246D02*
X6489334Y-9177722D01*
X6489334Y-9177722D02*
X6479810Y-9158674D01*
X6479810Y-9158674D02*
X6460762Y-9149151D01*
X6460762Y-9149151D02*
X6432191Y-9149151D01*
X6432191Y-9149151D02*
X6413143Y-9139627D01*
X6413143Y-9139627D02*
X6403619Y-9120579D01*
X6403619Y-9120579D02*
X6403619Y-9111055D01*
X6403619Y-9111055D02*
X6413143Y-9092008D01*
X6413143Y-9092008D02*
X6432191Y-9082484D01*
X6432191Y-9082484D02*
X6460762Y-9082484D01*
X6460762Y-9082484D02*
X6479810Y-9092008D01*
X6556000Y-9292008D02*
X6565524Y-9282484D01*
X6565524Y-9282484D02*
X6584572Y-9253913D01*
X6584572Y-9253913D02*
X6594096Y-9234865D01*
X6594096Y-9234865D02*
X6603619Y-9206294D01*
X6603619Y-9206294D02*
X6613143Y-9158674D01*
X6613143Y-9158674D02*
X6613143Y-9120579D01*
X6613143Y-9120579D02*
X6603619Y-9072960D01*
X6603619Y-9072960D02*
X6594096Y-9044389D01*
X6594096Y-9044389D02*
X6584572Y-9025341D01*
X6584572Y-9025341D02*
X6565524Y-8996770D01*
X6565524Y-8996770D02*
X6556000Y-8987246D01*
D13*
X1720937Y-9328334D02*
X1720937Y-9448334D01*
X1660937Y-9388334D02*
X1780937Y-9388334D01*
D11*
X2146476Y-9479817D02*
X2032190Y-9479817D01*
X2089333Y-9479817D02*
X2089333Y-9279817D01*
X2089333Y-9279817D02*
X2070286Y-9308389D01*
X2070286Y-9308389D02*
X2051238Y-9327436D01*
X2051238Y-9327436D02*
X2032190Y-9336960D01*
X2232191Y-9460770D02*
X2241714Y-9470294D01*
X2241714Y-9470294D02*
X2232191Y-9479817D01*
X2232191Y-9479817D02*
X2222667Y-9470294D01*
X2222667Y-9470294D02*
X2232191Y-9460770D01*
X2232191Y-9460770D02*
X2232191Y-9479817D01*
X2317905Y-9298865D02*
X2327429Y-9289341D01*
X2327429Y-9289341D02*
X2346476Y-9279817D01*
X2346476Y-9279817D02*
X2394095Y-9279817D01*
X2394095Y-9279817D02*
X2413143Y-9289341D01*
X2413143Y-9289341D02*
X2422667Y-9298865D01*
X2422667Y-9298865D02*
X2432191Y-9317913D01*
X2432191Y-9317913D02*
X2432191Y-9336960D01*
X2432191Y-9336960D02*
X2422667Y-9365532D01*
X2422667Y-9365532D02*
X2308381Y-9479817D01*
X2308381Y-9479817D02*
X2432191Y-9479817D01*
X2556000Y-9279817D02*
X2575048Y-9279817D01*
X2575048Y-9279817D02*
X2594095Y-9289341D01*
X2594095Y-9289341D02*
X2603619Y-9298865D01*
X2603619Y-9298865D02*
X2613143Y-9317913D01*
X2613143Y-9317913D02*
X2622667Y-9356008D01*
X2622667Y-9356008D02*
X2622667Y-9403627D01*
X2622667Y-9403627D02*
X2613143Y-9441722D01*
X2613143Y-9441722D02*
X2603619Y-9460770D01*
X2603619Y-9460770D02*
X2594095Y-9470294D01*
X2594095Y-9470294D02*
X2575048Y-9479817D01*
X2575048Y-9479817D02*
X2556000Y-9479817D01*
X2556000Y-9479817D02*
X2536952Y-9470294D01*
X2536952Y-9470294D02*
X2527429Y-9460770D01*
X2527429Y-9460770D02*
X2517905Y-9441722D01*
X2517905Y-9441722D02*
X2508381Y-9403627D01*
X2508381Y-9403627D02*
X2508381Y-9356008D01*
X2508381Y-9356008D02*
X2517905Y-9317913D01*
X2517905Y-9317913D02*
X2527429Y-9298865D01*
X2527429Y-9298865D02*
X2536952Y-9289341D01*
X2536952Y-9289341D02*
X2556000Y-9279817D01*
X2746476Y-9279817D02*
X2765524Y-9279817D01*
X2765524Y-9279817D02*
X2784572Y-9289341D01*
X2784572Y-9289341D02*
X2794095Y-9298865D01*
X2794095Y-9298865D02*
X2803619Y-9317913D01*
X2803619Y-9317913D02*
X2813143Y-9356008D01*
X2813143Y-9356008D02*
X2813143Y-9403627D01*
X2813143Y-9403627D02*
X2803619Y-9441722D01*
X2803619Y-9441722D02*
X2794095Y-9460770D01*
X2794095Y-9460770D02*
X2784572Y-9470294D01*
X2784572Y-9470294D02*
X2765524Y-9479817D01*
X2765524Y-9479817D02*
X2746476Y-9479817D01*
X2746476Y-9479817D02*
X2727429Y-9470294D01*
X2727429Y-9470294D02*
X2717905Y-9460770D01*
X2717905Y-9460770D02*
X2708381Y-9441722D01*
X2708381Y-9441722D02*
X2698857Y-9403627D01*
X2698857Y-9403627D02*
X2698857Y-9356008D01*
X2698857Y-9356008D02*
X2708381Y-9317913D01*
X2708381Y-9317913D02*
X2717905Y-9298865D01*
X2717905Y-9298865D02*
X2727429Y-9289341D01*
X2727429Y-9289341D02*
X2746476Y-9279817D01*
X2898857Y-9479817D02*
X2898857Y-9346484D01*
X2898857Y-9365532D02*
X2908381Y-9356008D01*
X2908381Y-9356008D02*
X2927429Y-9346484D01*
X2927429Y-9346484D02*
X2956000Y-9346484D01*
X2956000Y-9346484D02*
X2975048Y-9356008D01*
X2975048Y-9356008D02*
X2984571Y-9375055D01*
X2984571Y-9375055D02*
X2984571Y-9479817D01*
X2984571Y-9375055D02*
X2994095Y-9356008D01*
X2994095Y-9356008D02*
X3013143Y-9346484D01*
X3013143Y-9346484D02*
X3041714Y-9346484D01*
X3041714Y-9346484D02*
X3060762Y-9356008D01*
X3060762Y-9356008D02*
X3070286Y-9375055D01*
X3070286Y-9375055D02*
X3070286Y-9479817D01*
X3165524Y-9479817D02*
X3165524Y-9346484D01*
X3165524Y-9365532D02*
X3175048Y-9356008D01*
X3175048Y-9356008D02*
X3194095Y-9346484D01*
X3194095Y-9346484D02*
X3222667Y-9346484D01*
X3222667Y-9346484D02*
X3241714Y-9356008D01*
X3241714Y-9356008D02*
X3251238Y-9375055D01*
X3251238Y-9375055D02*
X3251238Y-9479817D01*
X3251238Y-9375055D02*
X3260762Y-9356008D01*
X3260762Y-9356008D02*
X3279810Y-9346484D01*
X3279810Y-9346484D02*
X3308381Y-9346484D01*
X3308381Y-9346484D02*
X3327429Y-9356008D01*
X3327429Y-9356008D02*
X3336952Y-9375055D01*
X3336952Y-9375055D02*
X3336952Y-9479817D01*
X3727429Y-9270294D02*
X3556000Y-9527436D01*
X3984572Y-9279817D02*
X4003619Y-9279817D01*
X4003619Y-9279817D02*
X4022667Y-9289341D01*
X4022667Y-9289341D02*
X4032191Y-9298865D01*
X4032191Y-9298865D02*
X4041714Y-9317913D01*
X4041714Y-9317913D02*
X4051238Y-9356008D01*
X4051238Y-9356008D02*
X4051238Y-9403627D01*
X4051238Y-9403627D02*
X4041714Y-9441722D01*
X4041714Y-9441722D02*
X4032191Y-9460770D01*
X4032191Y-9460770D02*
X4022667Y-9470294D01*
X4022667Y-9470294D02*
X4003619Y-9479817D01*
X4003619Y-9479817D02*
X3984572Y-9479817D01*
X3984572Y-9479817D02*
X3965524Y-9470294D01*
X3965524Y-9470294D02*
X3956000Y-9460770D01*
X3956000Y-9460770D02*
X3946476Y-9441722D01*
X3946476Y-9441722D02*
X3936953Y-9403627D01*
X3936953Y-9403627D02*
X3936953Y-9356008D01*
X3936953Y-9356008D02*
X3946476Y-9317913D01*
X3946476Y-9317913D02*
X3956000Y-9298865D01*
X3956000Y-9298865D02*
X3965524Y-9289341D01*
X3965524Y-9289341D02*
X3984572Y-9279817D01*
X4136953Y-9460770D02*
X4146476Y-9470294D01*
X4146476Y-9470294D02*
X4136953Y-9479817D01*
X4136953Y-9479817D02*
X4127429Y-9470294D01*
X4127429Y-9470294D02*
X4136953Y-9460770D01*
X4136953Y-9460770D02*
X4136953Y-9479817D01*
X4270286Y-9279817D02*
X4289334Y-9279817D01*
X4289334Y-9279817D02*
X4308381Y-9289341D01*
X4308381Y-9289341D02*
X4317905Y-9298865D01*
X4317905Y-9298865D02*
X4327429Y-9317913D01*
X4327429Y-9317913D02*
X4336953Y-9356008D01*
X4336953Y-9356008D02*
X4336953Y-9403627D01*
X4336953Y-9403627D02*
X4327429Y-9441722D01*
X4327429Y-9441722D02*
X4317905Y-9460770D01*
X4317905Y-9460770D02*
X4308381Y-9470294D01*
X4308381Y-9470294D02*
X4289334Y-9479817D01*
X4289334Y-9479817D02*
X4270286Y-9479817D01*
X4270286Y-9479817D02*
X4251238Y-9470294D01*
X4251238Y-9470294D02*
X4241715Y-9460770D01*
X4241715Y-9460770D02*
X4232191Y-9441722D01*
X4232191Y-9441722D02*
X4222667Y-9403627D01*
X4222667Y-9403627D02*
X4222667Y-9356008D01*
X4222667Y-9356008D02*
X4232191Y-9317913D01*
X4232191Y-9317913D02*
X4241715Y-9298865D01*
X4241715Y-9298865D02*
X4251238Y-9289341D01*
X4251238Y-9289341D02*
X4270286Y-9279817D01*
X4508381Y-9346484D02*
X4508381Y-9479817D01*
X4460762Y-9270294D02*
X4413143Y-9413151D01*
X4413143Y-9413151D02*
X4536953Y-9413151D01*
X4594096Y-9279817D02*
X4727429Y-9279817D01*
X4727429Y-9279817D02*
X4641715Y-9479817D01*
X4794096Y-9298865D02*
X4803619Y-9289341D01*
X4803619Y-9289341D02*
X4822667Y-9279817D01*
X4822667Y-9279817D02*
X4870286Y-9279817D01*
X4870286Y-9279817D02*
X4889334Y-9289341D01*
X4889334Y-9289341D02*
X4898857Y-9298865D01*
X4898857Y-9298865D02*
X4908381Y-9317913D01*
X4908381Y-9317913D02*
X4908381Y-9336960D01*
X4908381Y-9336960D02*
X4898857Y-9365532D01*
X4898857Y-9365532D02*
X4784572Y-9479817D01*
X4784572Y-9479817D02*
X4908381Y-9479817D01*
X4984572Y-9279817D02*
X4984572Y-9317913D01*
X5060762Y-9279817D02*
X5060762Y-9317913D01*
X5356000Y-9556008D02*
X5346477Y-9546484D01*
X5346477Y-9546484D02*
X5327429Y-9517913D01*
X5327429Y-9517913D02*
X5317905Y-9498865D01*
X5317905Y-9498865D02*
X5308381Y-9470294D01*
X5308381Y-9470294D02*
X5298858Y-9422674D01*
X5298858Y-9422674D02*
X5298858Y-9384579D01*
X5298858Y-9384579D02*
X5308381Y-9336960D01*
X5308381Y-9336960D02*
X5317905Y-9308389D01*
X5317905Y-9308389D02*
X5327429Y-9289341D01*
X5327429Y-9289341D02*
X5346477Y-9260770D01*
X5346477Y-9260770D02*
X5356000Y-9251246D01*
X5527429Y-9279817D02*
X5432191Y-9279817D01*
X5432191Y-9279817D02*
X5422667Y-9375055D01*
X5422667Y-9375055D02*
X5432191Y-9365532D01*
X5432191Y-9365532D02*
X5451238Y-9356008D01*
X5451238Y-9356008D02*
X5498858Y-9356008D01*
X5498858Y-9356008D02*
X5517905Y-9365532D01*
X5517905Y-9365532D02*
X5527429Y-9375055D01*
X5527429Y-9375055D02*
X5536953Y-9394103D01*
X5536953Y-9394103D02*
X5536953Y-9441722D01*
X5536953Y-9441722D02*
X5527429Y-9460770D01*
X5527429Y-9460770D02*
X5517905Y-9470294D01*
X5517905Y-9470294D02*
X5498858Y-9479817D01*
X5498858Y-9479817D02*
X5451238Y-9479817D01*
X5451238Y-9479817D02*
X5432191Y-9470294D01*
X5432191Y-9470294D02*
X5422667Y-9460770D01*
X5708381Y-9279817D02*
X5670286Y-9279817D01*
X5670286Y-9279817D02*
X5651238Y-9289341D01*
X5651238Y-9289341D02*
X5641715Y-9298865D01*
X5641715Y-9298865D02*
X5622667Y-9327436D01*
X5622667Y-9327436D02*
X5613143Y-9365532D01*
X5613143Y-9365532D02*
X5613143Y-9441722D01*
X5613143Y-9441722D02*
X5622667Y-9460770D01*
X5622667Y-9460770D02*
X5632191Y-9470294D01*
X5632191Y-9470294D02*
X5651238Y-9479817D01*
X5651238Y-9479817D02*
X5689334Y-9479817D01*
X5689334Y-9479817D02*
X5708381Y-9470294D01*
X5708381Y-9470294D02*
X5717905Y-9460770D01*
X5717905Y-9460770D02*
X5727429Y-9441722D01*
X5727429Y-9441722D02*
X5727429Y-9394103D01*
X5727429Y-9394103D02*
X5717905Y-9375055D01*
X5717905Y-9375055D02*
X5708381Y-9365532D01*
X5708381Y-9365532D02*
X5689334Y-9356008D01*
X5689334Y-9356008D02*
X5651238Y-9356008D01*
X5651238Y-9356008D02*
X5632191Y-9365532D01*
X5632191Y-9365532D02*
X5622667Y-9375055D01*
X5622667Y-9375055D02*
X5613143Y-9394103D01*
X5965524Y-9479817D02*
X5965524Y-9279817D01*
X6051238Y-9479817D02*
X6051238Y-9375055D01*
X6051238Y-9375055D02*
X6041715Y-9356008D01*
X6041715Y-9356008D02*
X6022667Y-9346484D01*
X6022667Y-9346484D02*
X5994096Y-9346484D01*
X5994096Y-9346484D02*
X5975048Y-9356008D01*
X5975048Y-9356008D02*
X5965524Y-9365532D01*
X6175048Y-9479817D02*
X6156000Y-9470294D01*
X6156000Y-9470294D02*
X6146477Y-9460770D01*
X6146477Y-9460770D02*
X6136953Y-9441722D01*
X6136953Y-9441722D02*
X6136953Y-9384579D01*
X6136953Y-9384579D02*
X6146477Y-9365532D01*
X6146477Y-9365532D02*
X6156000Y-9356008D01*
X6156000Y-9356008D02*
X6175048Y-9346484D01*
X6175048Y-9346484D02*
X6203619Y-9346484D01*
X6203619Y-9346484D02*
X6222667Y-9356008D01*
X6222667Y-9356008D02*
X6232191Y-9365532D01*
X6232191Y-9365532D02*
X6241715Y-9384579D01*
X6241715Y-9384579D02*
X6241715Y-9441722D01*
X6241715Y-9441722D02*
X6232191Y-9460770D01*
X6232191Y-9460770D02*
X6222667Y-9470294D01*
X6222667Y-9470294D02*
X6203619Y-9479817D01*
X6203619Y-9479817D02*
X6175048Y-9479817D01*
X6356000Y-9479817D02*
X6336953Y-9470294D01*
X6336953Y-9470294D02*
X6327429Y-9451246D01*
X6327429Y-9451246D02*
X6327429Y-9279817D01*
X6508381Y-9470294D02*
X6489334Y-9479817D01*
X6489334Y-9479817D02*
X6451238Y-9479817D01*
X6451238Y-9479817D02*
X6432191Y-9470294D01*
X6432191Y-9470294D02*
X6422667Y-9451246D01*
X6422667Y-9451246D02*
X6422667Y-9375055D01*
X6422667Y-9375055D02*
X6432191Y-9356008D01*
X6432191Y-9356008D02*
X6451238Y-9346484D01*
X6451238Y-9346484D02*
X6489334Y-9346484D01*
X6489334Y-9346484D02*
X6508381Y-9356008D01*
X6508381Y-9356008D02*
X6517905Y-9375055D01*
X6517905Y-9375055D02*
X6517905Y-9394103D01*
X6517905Y-9394103D02*
X6422667Y-9413151D01*
X6594096Y-9470294D02*
X6613143Y-9479817D01*
X6613143Y-9479817D02*
X6651238Y-9479817D01*
X6651238Y-9479817D02*
X6670286Y-9470294D01*
X6670286Y-9470294D02*
X6679810Y-9451246D01*
X6679810Y-9451246D02*
X6679810Y-9441722D01*
X6679810Y-9441722D02*
X6670286Y-9422674D01*
X6670286Y-9422674D02*
X6651238Y-9413151D01*
X6651238Y-9413151D02*
X6622667Y-9413151D01*
X6622667Y-9413151D02*
X6603619Y-9403627D01*
X6603619Y-9403627D02*
X6594096Y-9384579D01*
X6594096Y-9384579D02*
X6594096Y-9375055D01*
X6594096Y-9375055D02*
X6603619Y-9356008D01*
X6603619Y-9356008D02*
X6622667Y-9346484D01*
X6622667Y-9346484D02*
X6651238Y-9346484D01*
X6651238Y-9346484D02*
X6670286Y-9356008D01*
X6746477Y-9556008D02*
X6756000Y-9546484D01*
X6756000Y-9546484D02*
X6775048Y-9517913D01*
X6775048Y-9517913D02*
X6784572Y-9498865D01*
X6784572Y-9498865D02*
X6794096Y-9470294D01*
X6794096Y-9470294D02*
X6803619Y-9422674D01*
X6803619Y-9422674D02*
X6803619Y-9384579D01*
X6803619Y-9384579D02*
X6794096Y-9336960D01*
X6794096Y-9336960D02*
X6784572Y-9308389D01*
X6784572Y-9308389D02*
X6775048Y-9289341D01*
X6775048Y-9289341D02*
X6756000Y-9260770D01*
X6756000Y-9260770D02*
X6746477Y-9251246D01*
D14*
X1758620Y-9706216D02*
X1758620Y-9598451D01*
X1650855Y-9598451D01*
X1650855Y-9706216D01*
X1758620Y-9706216D01*
D11*
X2146476Y-9743817D02*
X2032190Y-9743817D01*
X2089333Y-9743817D02*
X2089333Y-9543817D01*
X2089333Y-9543817D02*
X2070286Y-9572389D01*
X2070286Y-9572389D02*
X2051238Y-9591436D01*
X2051238Y-9591436D02*
X2032190Y-9600960D01*
X2232191Y-9724770D02*
X2241714Y-9734294D01*
X2241714Y-9734294D02*
X2232191Y-9743817D01*
X2232191Y-9743817D02*
X2222667Y-9734294D01*
X2222667Y-9734294D02*
X2232191Y-9724770D01*
X2232191Y-9724770D02*
X2232191Y-9743817D01*
X2422667Y-9543817D02*
X2327429Y-9543817D01*
X2327429Y-9543817D02*
X2317905Y-9639055D01*
X2317905Y-9639055D02*
X2327429Y-9629532D01*
X2327429Y-9629532D02*
X2346476Y-9620008D01*
X2346476Y-9620008D02*
X2394095Y-9620008D01*
X2394095Y-9620008D02*
X2413143Y-9629532D01*
X2413143Y-9629532D02*
X2422667Y-9639055D01*
X2422667Y-9639055D02*
X2432191Y-9658103D01*
X2432191Y-9658103D02*
X2432191Y-9705722D01*
X2432191Y-9705722D02*
X2422667Y-9724770D01*
X2422667Y-9724770D02*
X2413143Y-9734294D01*
X2413143Y-9734294D02*
X2394095Y-9743817D01*
X2394095Y-9743817D02*
X2346476Y-9743817D01*
X2346476Y-9743817D02*
X2327429Y-9734294D01*
X2327429Y-9734294D02*
X2317905Y-9724770D01*
X2508381Y-9562865D02*
X2517905Y-9553341D01*
X2517905Y-9553341D02*
X2536952Y-9543817D01*
X2536952Y-9543817D02*
X2584572Y-9543817D01*
X2584572Y-9543817D02*
X2603619Y-9553341D01*
X2603619Y-9553341D02*
X2613143Y-9562865D01*
X2613143Y-9562865D02*
X2622667Y-9581913D01*
X2622667Y-9581913D02*
X2622667Y-9600960D01*
X2622667Y-9600960D02*
X2613143Y-9629532D01*
X2613143Y-9629532D02*
X2498857Y-9743817D01*
X2498857Y-9743817D02*
X2622667Y-9743817D01*
X2794095Y-9610484D02*
X2794095Y-9743817D01*
X2746476Y-9534294D02*
X2698857Y-9677151D01*
X2698857Y-9677151D02*
X2822667Y-9677151D01*
X2898857Y-9743817D02*
X2898857Y-9610484D01*
X2898857Y-9629532D02*
X2908381Y-9620008D01*
X2908381Y-9620008D02*
X2927429Y-9610484D01*
X2927429Y-9610484D02*
X2956000Y-9610484D01*
X2956000Y-9610484D02*
X2975048Y-9620008D01*
X2975048Y-9620008D02*
X2984571Y-9639055D01*
X2984571Y-9639055D02*
X2984571Y-9743817D01*
X2984571Y-9639055D02*
X2994095Y-9620008D01*
X2994095Y-9620008D02*
X3013143Y-9610484D01*
X3013143Y-9610484D02*
X3041714Y-9610484D01*
X3041714Y-9610484D02*
X3060762Y-9620008D01*
X3060762Y-9620008D02*
X3070286Y-9639055D01*
X3070286Y-9639055D02*
X3070286Y-9743817D01*
X3165524Y-9743817D02*
X3165524Y-9610484D01*
X3165524Y-9629532D02*
X3175048Y-9620008D01*
X3175048Y-9620008D02*
X3194095Y-9610484D01*
X3194095Y-9610484D02*
X3222667Y-9610484D01*
X3222667Y-9610484D02*
X3241714Y-9620008D01*
X3241714Y-9620008D02*
X3251238Y-9639055D01*
X3251238Y-9639055D02*
X3251238Y-9743817D01*
X3251238Y-9639055D02*
X3260762Y-9620008D01*
X3260762Y-9620008D02*
X3279810Y-9610484D01*
X3279810Y-9610484D02*
X3308381Y-9610484D01*
X3308381Y-9610484D02*
X3327429Y-9620008D01*
X3327429Y-9620008D02*
X3336952Y-9639055D01*
X3336952Y-9639055D02*
X3336952Y-9743817D01*
X3727429Y-9534294D02*
X3556000Y-9791436D01*
X3984572Y-9543817D02*
X4003619Y-9543817D01*
X4003619Y-9543817D02*
X4022667Y-9553341D01*
X4022667Y-9553341D02*
X4032191Y-9562865D01*
X4032191Y-9562865D02*
X4041714Y-9581913D01*
X4041714Y-9581913D02*
X4051238Y-9620008D01*
X4051238Y-9620008D02*
X4051238Y-9667627D01*
X4051238Y-9667627D02*
X4041714Y-9705722D01*
X4041714Y-9705722D02*
X4032191Y-9724770D01*
X4032191Y-9724770D02*
X4022667Y-9734294D01*
X4022667Y-9734294D02*
X4003619Y-9743817D01*
X4003619Y-9743817D02*
X3984572Y-9743817D01*
X3984572Y-9743817D02*
X3965524Y-9734294D01*
X3965524Y-9734294D02*
X3956000Y-9724770D01*
X3956000Y-9724770D02*
X3946476Y-9705722D01*
X3946476Y-9705722D02*
X3936953Y-9667627D01*
X3936953Y-9667627D02*
X3936953Y-9620008D01*
X3936953Y-9620008D02*
X3946476Y-9581913D01*
X3946476Y-9581913D02*
X3956000Y-9562865D01*
X3956000Y-9562865D02*
X3965524Y-9553341D01*
X3965524Y-9553341D02*
X3984572Y-9543817D01*
X4136953Y-9724770D02*
X4146476Y-9734294D01*
X4146476Y-9734294D02*
X4136953Y-9743817D01*
X4136953Y-9743817D02*
X4127429Y-9734294D01*
X4127429Y-9734294D02*
X4136953Y-9724770D01*
X4136953Y-9724770D02*
X4136953Y-9743817D01*
X4270286Y-9543817D02*
X4289334Y-9543817D01*
X4289334Y-9543817D02*
X4308381Y-9553341D01*
X4308381Y-9553341D02*
X4317905Y-9562865D01*
X4317905Y-9562865D02*
X4327429Y-9581913D01*
X4327429Y-9581913D02*
X4336953Y-9620008D01*
X4336953Y-9620008D02*
X4336953Y-9667627D01*
X4336953Y-9667627D02*
X4327429Y-9705722D01*
X4327429Y-9705722D02*
X4317905Y-9724770D01*
X4317905Y-9724770D02*
X4308381Y-9734294D01*
X4308381Y-9734294D02*
X4289334Y-9743817D01*
X4289334Y-9743817D02*
X4270286Y-9743817D01*
X4270286Y-9743817D02*
X4251238Y-9734294D01*
X4251238Y-9734294D02*
X4241715Y-9724770D01*
X4241715Y-9724770D02*
X4232191Y-9705722D01*
X4232191Y-9705722D02*
X4222667Y-9667627D01*
X4222667Y-9667627D02*
X4222667Y-9620008D01*
X4222667Y-9620008D02*
X4232191Y-9581913D01*
X4232191Y-9581913D02*
X4241715Y-9562865D01*
X4241715Y-9562865D02*
X4251238Y-9553341D01*
X4251238Y-9553341D02*
X4270286Y-9543817D01*
X4508381Y-9543817D02*
X4470286Y-9543817D01*
X4470286Y-9543817D02*
X4451238Y-9553341D01*
X4451238Y-9553341D02*
X4441715Y-9562865D01*
X4441715Y-9562865D02*
X4422667Y-9591436D01*
X4422667Y-9591436D02*
X4413143Y-9629532D01*
X4413143Y-9629532D02*
X4413143Y-9705722D01*
X4413143Y-9705722D02*
X4422667Y-9724770D01*
X4422667Y-9724770D02*
X4432191Y-9734294D01*
X4432191Y-9734294D02*
X4451238Y-9743817D01*
X4451238Y-9743817D02*
X4489334Y-9743817D01*
X4489334Y-9743817D02*
X4508381Y-9734294D01*
X4508381Y-9734294D02*
X4517905Y-9724770D01*
X4517905Y-9724770D02*
X4527429Y-9705722D01*
X4527429Y-9705722D02*
X4527429Y-9658103D01*
X4527429Y-9658103D02*
X4517905Y-9639055D01*
X4517905Y-9639055D02*
X4508381Y-9629532D01*
X4508381Y-9629532D02*
X4489334Y-9620008D01*
X4489334Y-9620008D02*
X4451238Y-9620008D01*
X4451238Y-9620008D02*
X4432191Y-9629532D01*
X4432191Y-9629532D02*
X4422667Y-9639055D01*
X4422667Y-9639055D02*
X4413143Y-9658103D01*
X4651238Y-9543817D02*
X4670286Y-9543817D01*
X4670286Y-9543817D02*
X4689334Y-9553341D01*
X4689334Y-9553341D02*
X4698857Y-9562865D01*
X4698857Y-9562865D02*
X4708381Y-9581913D01*
X4708381Y-9581913D02*
X4717905Y-9620008D01*
X4717905Y-9620008D02*
X4717905Y-9667627D01*
X4717905Y-9667627D02*
X4708381Y-9705722D01*
X4708381Y-9705722D02*
X4698857Y-9724770D01*
X4698857Y-9724770D02*
X4689334Y-9734294D01*
X4689334Y-9734294D02*
X4670286Y-9743817D01*
X4670286Y-9743817D02*
X4651238Y-9743817D01*
X4651238Y-9743817D02*
X4632191Y-9734294D01*
X4632191Y-9734294D02*
X4622667Y-9724770D01*
X4622667Y-9724770D02*
X4613143Y-9705722D01*
X4613143Y-9705722D02*
X4603619Y-9667627D01*
X4603619Y-9667627D02*
X4603619Y-9620008D01*
X4603619Y-9620008D02*
X4613143Y-9581913D01*
X4613143Y-9581913D02*
X4622667Y-9562865D01*
X4622667Y-9562865D02*
X4632191Y-9553341D01*
X4632191Y-9553341D02*
X4651238Y-9543817D01*
X4841715Y-9543817D02*
X4860762Y-9543817D01*
X4860762Y-9543817D02*
X4879810Y-9553341D01*
X4879810Y-9553341D02*
X4889334Y-9562865D01*
X4889334Y-9562865D02*
X4898857Y-9581913D01*
X4898857Y-9581913D02*
X4908381Y-9620008D01*
X4908381Y-9620008D02*
X4908381Y-9667627D01*
X4908381Y-9667627D02*
X4898857Y-9705722D01*
X4898857Y-9705722D02*
X4889334Y-9724770D01*
X4889334Y-9724770D02*
X4879810Y-9734294D01*
X4879810Y-9734294D02*
X4860762Y-9743817D01*
X4860762Y-9743817D02*
X4841715Y-9743817D01*
X4841715Y-9743817D02*
X4822667Y-9734294D01*
X4822667Y-9734294D02*
X4813143Y-9724770D01*
X4813143Y-9724770D02*
X4803619Y-9705722D01*
X4803619Y-9705722D02*
X4794096Y-9667627D01*
X4794096Y-9667627D02*
X4794096Y-9620008D01*
X4794096Y-9620008D02*
X4803619Y-9581913D01*
X4803619Y-9581913D02*
X4813143Y-9562865D01*
X4813143Y-9562865D02*
X4822667Y-9553341D01*
X4822667Y-9553341D02*
X4841715Y-9543817D01*
X4984572Y-9543817D02*
X4984572Y-9581913D01*
X5060762Y-9543817D02*
X5060762Y-9581913D01*
X5356000Y-9820008D02*
X5346477Y-9810484D01*
X5346477Y-9810484D02*
X5327429Y-9781913D01*
X5327429Y-9781913D02*
X5317905Y-9762865D01*
X5317905Y-9762865D02*
X5308381Y-9734294D01*
X5308381Y-9734294D02*
X5298858Y-9686674D01*
X5298858Y-9686674D02*
X5298858Y-9648579D01*
X5298858Y-9648579D02*
X5308381Y-9600960D01*
X5308381Y-9600960D02*
X5317905Y-9572389D01*
X5317905Y-9572389D02*
X5327429Y-9553341D01*
X5327429Y-9553341D02*
X5346477Y-9524770D01*
X5346477Y-9524770D02*
X5356000Y-9515246D01*
X5527429Y-9543817D02*
X5432191Y-9543817D01*
X5432191Y-9543817D02*
X5422667Y-9639055D01*
X5422667Y-9639055D02*
X5432191Y-9629532D01*
X5432191Y-9629532D02*
X5451238Y-9620008D01*
X5451238Y-9620008D02*
X5498858Y-9620008D01*
X5498858Y-9620008D02*
X5517905Y-9629532D01*
X5517905Y-9629532D02*
X5527429Y-9639055D01*
X5527429Y-9639055D02*
X5536953Y-9658103D01*
X5536953Y-9658103D02*
X5536953Y-9705722D01*
X5536953Y-9705722D02*
X5527429Y-9724770D01*
X5527429Y-9724770D02*
X5517905Y-9734294D01*
X5517905Y-9734294D02*
X5498858Y-9743817D01*
X5498858Y-9743817D02*
X5451238Y-9743817D01*
X5451238Y-9743817D02*
X5432191Y-9734294D01*
X5432191Y-9734294D02*
X5422667Y-9724770D01*
X5708381Y-9543817D02*
X5670286Y-9543817D01*
X5670286Y-9543817D02*
X5651238Y-9553341D01*
X5651238Y-9553341D02*
X5641715Y-9562865D01*
X5641715Y-9562865D02*
X5622667Y-9591436D01*
X5622667Y-9591436D02*
X5613143Y-9629532D01*
X5613143Y-9629532D02*
X5613143Y-9705722D01*
X5613143Y-9705722D02*
X5622667Y-9724770D01*
X5622667Y-9724770D02*
X5632191Y-9734294D01*
X5632191Y-9734294D02*
X5651238Y-9743817D01*
X5651238Y-9743817D02*
X5689334Y-9743817D01*
X5689334Y-9743817D02*
X5708381Y-9734294D01*
X5708381Y-9734294D02*
X5717905Y-9724770D01*
X5717905Y-9724770D02*
X5727429Y-9705722D01*
X5727429Y-9705722D02*
X5727429Y-9658103D01*
X5727429Y-9658103D02*
X5717905Y-9639055D01*
X5717905Y-9639055D02*
X5708381Y-9629532D01*
X5708381Y-9629532D02*
X5689334Y-9620008D01*
X5689334Y-9620008D02*
X5651238Y-9620008D01*
X5651238Y-9620008D02*
X5632191Y-9629532D01*
X5632191Y-9629532D02*
X5622667Y-9639055D01*
X5622667Y-9639055D02*
X5613143Y-9658103D01*
X5965524Y-9743817D02*
X5965524Y-9543817D01*
X6051238Y-9743817D02*
X6051238Y-9639055D01*
X6051238Y-9639055D02*
X6041715Y-9620008D01*
X6041715Y-9620008D02*
X6022667Y-9610484D01*
X6022667Y-9610484D02*
X5994096Y-9610484D01*
X5994096Y-9610484D02*
X5975048Y-9620008D01*
X5975048Y-9620008D02*
X5965524Y-9629532D01*
X6175048Y-9743817D02*
X6156000Y-9734294D01*
X6156000Y-9734294D02*
X6146477Y-9724770D01*
X6146477Y-9724770D02*
X6136953Y-9705722D01*
X6136953Y-9705722D02*
X6136953Y-9648579D01*
X6136953Y-9648579D02*
X6146477Y-9629532D01*
X6146477Y-9629532D02*
X6156000Y-9620008D01*
X6156000Y-9620008D02*
X6175048Y-9610484D01*
X6175048Y-9610484D02*
X6203619Y-9610484D01*
X6203619Y-9610484D02*
X6222667Y-9620008D01*
X6222667Y-9620008D02*
X6232191Y-9629532D01*
X6232191Y-9629532D02*
X6241715Y-9648579D01*
X6241715Y-9648579D02*
X6241715Y-9705722D01*
X6241715Y-9705722D02*
X6232191Y-9724770D01*
X6232191Y-9724770D02*
X6222667Y-9734294D01*
X6222667Y-9734294D02*
X6203619Y-9743817D01*
X6203619Y-9743817D02*
X6175048Y-9743817D01*
X6356000Y-9743817D02*
X6336953Y-9734294D01*
X6336953Y-9734294D02*
X6327429Y-9715246D01*
X6327429Y-9715246D02*
X6327429Y-9543817D01*
X6508381Y-9734294D02*
X6489334Y-9743817D01*
X6489334Y-9743817D02*
X6451238Y-9743817D01*
X6451238Y-9743817D02*
X6432191Y-9734294D01*
X6432191Y-9734294D02*
X6422667Y-9715246D01*
X6422667Y-9715246D02*
X6422667Y-9639055D01*
X6422667Y-9639055D02*
X6432191Y-9620008D01*
X6432191Y-9620008D02*
X6451238Y-9610484D01*
X6451238Y-9610484D02*
X6489334Y-9610484D01*
X6489334Y-9610484D02*
X6508381Y-9620008D01*
X6508381Y-9620008D02*
X6517905Y-9639055D01*
X6517905Y-9639055D02*
X6517905Y-9658103D01*
X6517905Y-9658103D02*
X6422667Y-9677151D01*
X6594096Y-9734294D02*
X6613143Y-9743817D01*
X6613143Y-9743817D02*
X6651238Y-9743817D01*
X6651238Y-9743817D02*
X6670286Y-9734294D01*
X6670286Y-9734294D02*
X6679810Y-9715246D01*
X6679810Y-9715246D02*
X6679810Y-9705722D01*
X6679810Y-9705722D02*
X6670286Y-9686674D01*
X6670286Y-9686674D02*
X6651238Y-9677151D01*
X6651238Y-9677151D02*
X6622667Y-9677151D01*
X6622667Y-9677151D02*
X6603619Y-9667627D01*
X6603619Y-9667627D02*
X6594096Y-9648579D01*
X6594096Y-9648579D02*
X6594096Y-9639055D01*
X6594096Y-9639055D02*
X6603619Y-9620008D01*
X6603619Y-9620008D02*
X6622667Y-9610484D01*
X6622667Y-9610484D02*
X6651238Y-9610484D01*
X6651238Y-9610484D02*
X6670286Y-9620008D01*
X6746477Y-9820008D02*
X6756000Y-9810484D01*
X6756000Y-9810484D02*
X6775048Y-9781913D01*
X6775048Y-9781913D02*
X6784572Y-9762865D01*
X6784572Y-9762865D02*
X6794096Y-9734294D01*
X6794096Y-9734294D02*
X6803619Y-9686674D01*
X6803619Y-9686674D02*
X6803619Y-9648579D01*
X6803619Y-9648579D02*
X6794096Y-9600960D01*
X6794096Y-9600960D02*
X6784572Y-9572389D01*
X6784572Y-9572389D02*
X6775048Y-9553341D01*
X6775048Y-9553341D02*
X6756000Y-9524770D01*
X6756000Y-9524770D02*
X6746477Y-9515246D01*
X1680937Y-10024734D02*
X1780937Y-9924734D01*
X1680937Y-9824734D01*
X1580937Y-9924734D01*
X1680937Y-10024734D01*
X2032190Y-9835265D02*
X2041714Y-9825741D01*
X2041714Y-9825741D02*
X2060762Y-9816217D01*
X2060762Y-9816217D02*
X2108381Y-9816217D01*
X2108381Y-9816217D02*
X2127429Y-9825741D01*
X2127429Y-9825741D02*
X2136952Y-9835265D01*
X2136952Y-9835265D02*
X2146476Y-9854313D01*
X2146476Y-9854313D02*
X2146476Y-9873360D01*
X2146476Y-9873360D02*
X2136952Y-9901932D01*
X2136952Y-9901932D02*
X2022667Y-10016217D01*
X2022667Y-10016217D02*
X2146476Y-10016217D01*
X2232191Y-9997170D02*
X2241714Y-10006694D01*
X2241714Y-10006694D02*
X2232191Y-10016217D01*
X2232191Y-10016217D02*
X2222667Y-10006694D01*
X2222667Y-10006694D02*
X2232191Y-9997170D01*
X2232191Y-9997170D02*
X2232191Y-10016217D01*
X2317905Y-9835265D02*
X2327429Y-9825741D01*
X2327429Y-9825741D02*
X2346476Y-9816217D01*
X2346476Y-9816217D02*
X2394095Y-9816217D01*
X2394095Y-9816217D02*
X2413143Y-9825741D01*
X2413143Y-9825741D02*
X2422667Y-9835265D01*
X2422667Y-9835265D02*
X2432191Y-9854313D01*
X2432191Y-9854313D02*
X2432191Y-9873360D01*
X2432191Y-9873360D02*
X2422667Y-9901932D01*
X2422667Y-9901932D02*
X2308381Y-10016217D01*
X2308381Y-10016217D02*
X2432191Y-10016217D01*
X2556000Y-9816217D02*
X2575048Y-9816217D01*
X2575048Y-9816217D02*
X2594095Y-9825741D01*
X2594095Y-9825741D02*
X2603619Y-9835265D01*
X2603619Y-9835265D02*
X2613143Y-9854313D01*
X2613143Y-9854313D02*
X2622667Y-9892408D01*
X2622667Y-9892408D02*
X2622667Y-9940027D01*
X2622667Y-9940027D02*
X2613143Y-9978122D01*
X2613143Y-9978122D02*
X2603619Y-9997170D01*
X2603619Y-9997170D02*
X2594095Y-10006694D01*
X2594095Y-10006694D02*
X2575048Y-10016217D01*
X2575048Y-10016217D02*
X2556000Y-10016217D01*
X2556000Y-10016217D02*
X2536952Y-10006694D01*
X2536952Y-10006694D02*
X2527429Y-9997170D01*
X2527429Y-9997170D02*
X2517905Y-9978122D01*
X2517905Y-9978122D02*
X2508381Y-9940027D01*
X2508381Y-9940027D02*
X2508381Y-9892408D01*
X2508381Y-9892408D02*
X2517905Y-9854313D01*
X2517905Y-9854313D02*
X2527429Y-9835265D01*
X2527429Y-9835265D02*
X2536952Y-9825741D01*
X2536952Y-9825741D02*
X2556000Y-9816217D01*
X2746476Y-9816217D02*
X2765524Y-9816217D01*
X2765524Y-9816217D02*
X2784572Y-9825741D01*
X2784572Y-9825741D02*
X2794095Y-9835265D01*
X2794095Y-9835265D02*
X2803619Y-9854313D01*
X2803619Y-9854313D02*
X2813143Y-9892408D01*
X2813143Y-9892408D02*
X2813143Y-9940027D01*
X2813143Y-9940027D02*
X2803619Y-9978122D01*
X2803619Y-9978122D02*
X2794095Y-9997170D01*
X2794095Y-9997170D02*
X2784572Y-10006694D01*
X2784572Y-10006694D02*
X2765524Y-10016217D01*
X2765524Y-10016217D02*
X2746476Y-10016217D01*
X2746476Y-10016217D02*
X2727429Y-10006694D01*
X2727429Y-10006694D02*
X2717905Y-9997170D01*
X2717905Y-9997170D02*
X2708381Y-9978122D01*
X2708381Y-9978122D02*
X2698857Y-9940027D01*
X2698857Y-9940027D02*
X2698857Y-9892408D01*
X2698857Y-9892408D02*
X2708381Y-9854313D01*
X2708381Y-9854313D02*
X2717905Y-9835265D01*
X2717905Y-9835265D02*
X2727429Y-9825741D01*
X2727429Y-9825741D02*
X2746476Y-9816217D01*
X2898857Y-10016217D02*
X2898857Y-9882884D01*
X2898857Y-9901932D02*
X2908381Y-9892408D01*
X2908381Y-9892408D02*
X2927429Y-9882884D01*
X2927429Y-9882884D02*
X2956000Y-9882884D01*
X2956000Y-9882884D02*
X2975048Y-9892408D01*
X2975048Y-9892408D02*
X2984571Y-9911455D01*
X2984571Y-9911455D02*
X2984571Y-10016217D01*
X2984571Y-9911455D02*
X2994095Y-9892408D01*
X2994095Y-9892408D02*
X3013143Y-9882884D01*
X3013143Y-9882884D02*
X3041714Y-9882884D01*
X3041714Y-9882884D02*
X3060762Y-9892408D01*
X3060762Y-9892408D02*
X3070286Y-9911455D01*
X3070286Y-9911455D02*
X3070286Y-10016217D01*
X3165524Y-10016217D02*
X3165524Y-9882884D01*
X3165524Y-9901932D02*
X3175048Y-9892408D01*
X3175048Y-9892408D02*
X3194095Y-9882884D01*
X3194095Y-9882884D02*
X3222667Y-9882884D01*
X3222667Y-9882884D02*
X3241714Y-9892408D01*
X3241714Y-9892408D02*
X3251238Y-9911455D01*
X3251238Y-9911455D02*
X3251238Y-10016217D01*
X3251238Y-9911455D02*
X3260762Y-9892408D01*
X3260762Y-9892408D02*
X3279810Y-9882884D01*
X3279810Y-9882884D02*
X3308381Y-9882884D01*
X3308381Y-9882884D02*
X3327429Y-9892408D01*
X3327429Y-9892408D02*
X3336952Y-9911455D01*
X3336952Y-9911455D02*
X3336952Y-10016217D01*
X3727429Y-9806694D02*
X3556000Y-10063836D01*
X3984572Y-9816217D02*
X4003619Y-9816217D01*
X4003619Y-9816217D02*
X4022667Y-9825741D01*
X4022667Y-9825741D02*
X4032191Y-9835265D01*
X4032191Y-9835265D02*
X4041714Y-9854313D01*
X4041714Y-9854313D02*
X4051238Y-9892408D01*
X4051238Y-9892408D02*
X4051238Y-9940027D01*
X4051238Y-9940027D02*
X4041714Y-9978122D01*
X4041714Y-9978122D02*
X4032191Y-9997170D01*
X4032191Y-9997170D02*
X4022667Y-10006694D01*
X4022667Y-10006694D02*
X4003619Y-10016217D01*
X4003619Y-10016217D02*
X3984572Y-10016217D01*
X3984572Y-10016217D02*
X3965524Y-10006694D01*
X3965524Y-10006694D02*
X3956000Y-9997170D01*
X3956000Y-9997170D02*
X3946476Y-9978122D01*
X3946476Y-9978122D02*
X3936953Y-9940027D01*
X3936953Y-9940027D02*
X3936953Y-9892408D01*
X3936953Y-9892408D02*
X3946476Y-9854313D01*
X3946476Y-9854313D02*
X3956000Y-9835265D01*
X3956000Y-9835265D02*
X3965524Y-9825741D01*
X3965524Y-9825741D02*
X3984572Y-9816217D01*
X4136953Y-9997170D02*
X4146476Y-10006694D01*
X4146476Y-10006694D02*
X4136953Y-10016217D01*
X4136953Y-10016217D02*
X4127429Y-10006694D01*
X4127429Y-10006694D02*
X4136953Y-9997170D01*
X4136953Y-9997170D02*
X4136953Y-10016217D01*
X4270286Y-9816217D02*
X4289334Y-9816217D01*
X4289334Y-9816217D02*
X4308381Y-9825741D01*
X4308381Y-9825741D02*
X4317905Y-9835265D01*
X4317905Y-9835265D02*
X4327429Y-9854313D01*
X4327429Y-9854313D02*
X4336953Y-9892408D01*
X4336953Y-9892408D02*
X4336953Y-9940027D01*
X4336953Y-9940027D02*
X4327429Y-9978122D01*
X4327429Y-9978122D02*
X4317905Y-9997170D01*
X4317905Y-9997170D02*
X4308381Y-10006694D01*
X4308381Y-10006694D02*
X4289334Y-10016217D01*
X4289334Y-10016217D02*
X4270286Y-10016217D01*
X4270286Y-10016217D02*
X4251238Y-10006694D01*
X4251238Y-10006694D02*
X4241715Y-9997170D01*
X4241715Y-9997170D02*
X4232191Y-9978122D01*
X4232191Y-9978122D02*
X4222667Y-9940027D01*
X4222667Y-9940027D02*
X4222667Y-9892408D01*
X4222667Y-9892408D02*
X4232191Y-9854313D01*
X4232191Y-9854313D02*
X4241715Y-9835265D01*
X4241715Y-9835265D02*
X4251238Y-9825741D01*
X4251238Y-9825741D02*
X4270286Y-9816217D01*
X4451238Y-9901932D02*
X4432191Y-9892408D01*
X4432191Y-9892408D02*
X4422667Y-9882884D01*
X4422667Y-9882884D02*
X4413143Y-9863836D01*
X4413143Y-9863836D02*
X4413143Y-9854313D01*
X4413143Y-9854313D02*
X4422667Y-9835265D01*
X4422667Y-9835265D02*
X4432191Y-9825741D01*
X4432191Y-9825741D02*
X4451238Y-9816217D01*
X4451238Y-9816217D02*
X4489334Y-9816217D01*
X4489334Y-9816217D02*
X4508381Y-9825741D01*
X4508381Y-9825741D02*
X4517905Y-9835265D01*
X4517905Y-9835265D02*
X4527429Y-9854313D01*
X4527429Y-9854313D02*
X4527429Y-9863836D01*
X4527429Y-9863836D02*
X4517905Y-9882884D01*
X4517905Y-9882884D02*
X4508381Y-9892408D01*
X4508381Y-9892408D02*
X4489334Y-9901932D01*
X4489334Y-9901932D02*
X4451238Y-9901932D01*
X4451238Y-9901932D02*
X4432191Y-9911455D01*
X4432191Y-9911455D02*
X4422667Y-9920979D01*
X4422667Y-9920979D02*
X4413143Y-9940027D01*
X4413143Y-9940027D02*
X4413143Y-9978122D01*
X4413143Y-9978122D02*
X4422667Y-9997170D01*
X4422667Y-9997170D02*
X4432191Y-10006694D01*
X4432191Y-10006694D02*
X4451238Y-10016217D01*
X4451238Y-10016217D02*
X4489334Y-10016217D01*
X4489334Y-10016217D02*
X4508381Y-10006694D01*
X4508381Y-10006694D02*
X4517905Y-9997170D01*
X4517905Y-9997170D02*
X4527429Y-9978122D01*
X4527429Y-9978122D02*
X4527429Y-9940027D01*
X4527429Y-9940027D02*
X4517905Y-9920979D01*
X4517905Y-9920979D02*
X4508381Y-9911455D01*
X4508381Y-9911455D02*
X4489334Y-9901932D01*
X4698857Y-9816217D02*
X4660762Y-9816217D01*
X4660762Y-9816217D02*
X4641715Y-9825741D01*
X4641715Y-9825741D02*
X4632191Y-9835265D01*
X4632191Y-9835265D02*
X4613143Y-9863836D01*
X4613143Y-9863836D02*
X4603619Y-9901932D01*
X4603619Y-9901932D02*
X4603619Y-9978122D01*
X4603619Y-9978122D02*
X4613143Y-9997170D01*
X4613143Y-9997170D02*
X4622667Y-10006694D01*
X4622667Y-10006694D02*
X4641715Y-10016217D01*
X4641715Y-10016217D02*
X4679810Y-10016217D01*
X4679810Y-10016217D02*
X4698857Y-10006694D01*
X4698857Y-10006694D02*
X4708381Y-9997170D01*
X4708381Y-9997170D02*
X4717905Y-9978122D01*
X4717905Y-9978122D02*
X4717905Y-9930503D01*
X4717905Y-9930503D02*
X4708381Y-9911455D01*
X4708381Y-9911455D02*
X4698857Y-9901932D01*
X4698857Y-9901932D02*
X4679810Y-9892408D01*
X4679810Y-9892408D02*
X4641715Y-9892408D01*
X4641715Y-9892408D02*
X4622667Y-9901932D01*
X4622667Y-9901932D02*
X4613143Y-9911455D01*
X4613143Y-9911455D02*
X4603619Y-9930503D01*
X4889334Y-9816217D02*
X4851238Y-9816217D01*
X4851238Y-9816217D02*
X4832191Y-9825741D01*
X4832191Y-9825741D02*
X4822667Y-9835265D01*
X4822667Y-9835265D02*
X4803619Y-9863836D01*
X4803619Y-9863836D02*
X4794096Y-9901932D01*
X4794096Y-9901932D02*
X4794096Y-9978122D01*
X4794096Y-9978122D02*
X4803619Y-9997170D01*
X4803619Y-9997170D02*
X4813143Y-10006694D01*
X4813143Y-10006694D02*
X4832191Y-10016217D01*
X4832191Y-10016217D02*
X4870286Y-10016217D01*
X4870286Y-10016217D02*
X4889334Y-10006694D01*
X4889334Y-10006694D02*
X4898857Y-9997170D01*
X4898857Y-9997170D02*
X4908381Y-9978122D01*
X4908381Y-9978122D02*
X4908381Y-9930503D01*
X4908381Y-9930503D02*
X4898857Y-9911455D01*
X4898857Y-9911455D02*
X4889334Y-9901932D01*
X4889334Y-9901932D02*
X4870286Y-9892408D01*
X4870286Y-9892408D02*
X4832191Y-9892408D01*
X4832191Y-9892408D02*
X4813143Y-9901932D01*
X4813143Y-9901932D02*
X4803619Y-9911455D01*
X4803619Y-9911455D02*
X4794096Y-9930503D01*
X4984572Y-9816217D02*
X4984572Y-9854313D01*
X5060762Y-9816217D02*
X5060762Y-9854313D01*
X5356000Y-10092408D02*
X5346477Y-10082884D01*
X5346477Y-10082884D02*
X5327429Y-10054313D01*
X5327429Y-10054313D02*
X5317905Y-10035265D01*
X5317905Y-10035265D02*
X5308381Y-10006694D01*
X5308381Y-10006694D02*
X5298858Y-9959074D01*
X5298858Y-9959074D02*
X5298858Y-9920979D01*
X5298858Y-9920979D02*
X5308381Y-9873360D01*
X5308381Y-9873360D02*
X5317905Y-9844789D01*
X5317905Y-9844789D02*
X5327429Y-9825741D01*
X5327429Y-9825741D02*
X5346477Y-9797170D01*
X5346477Y-9797170D02*
X5356000Y-9787646D01*
X5517905Y-9882884D02*
X5517905Y-10016217D01*
X5470286Y-9806694D02*
X5422667Y-9949551D01*
X5422667Y-9949551D02*
X5546477Y-9949551D01*
X5775048Y-10016217D02*
X5775048Y-9816217D01*
X5860762Y-10016217D02*
X5860762Y-9911455D01*
X5860762Y-9911455D02*
X5851238Y-9892408D01*
X5851238Y-9892408D02*
X5832191Y-9882884D01*
X5832191Y-9882884D02*
X5803619Y-9882884D01*
X5803619Y-9882884D02*
X5784572Y-9892408D01*
X5784572Y-9892408D02*
X5775048Y-9901932D01*
X5984572Y-10016217D02*
X5965524Y-10006694D01*
X5965524Y-10006694D02*
X5956000Y-9997170D01*
X5956000Y-9997170D02*
X5946477Y-9978122D01*
X5946477Y-9978122D02*
X5946477Y-9920979D01*
X5946477Y-9920979D02*
X5956000Y-9901932D01*
X5956000Y-9901932D02*
X5965524Y-9892408D01*
X5965524Y-9892408D02*
X5984572Y-9882884D01*
X5984572Y-9882884D02*
X6013143Y-9882884D01*
X6013143Y-9882884D02*
X6032191Y-9892408D01*
X6032191Y-9892408D02*
X6041715Y-9901932D01*
X6041715Y-9901932D02*
X6051238Y-9920979D01*
X6051238Y-9920979D02*
X6051238Y-9978122D01*
X6051238Y-9978122D02*
X6041715Y-9997170D01*
X6041715Y-9997170D02*
X6032191Y-10006694D01*
X6032191Y-10006694D02*
X6013143Y-10016217D01*
X6013143Y-10016217D02*
X5984572Y-10016217D01*
X6165524Y-10016217D02*
X6146477Y-10006694D01*
X6146477Y-10006694D02*
X6136953Y-9987646D01*
X6136953Y-9987646D02*
X6136953Y-9816217D01*
X6317905Y-10006694D02*
X6298858Y-10016217D01*
X6298858Y-10016217D02*
X6260762Y-10016217D01*
X6260762Y-10016217D02*
X6241715Y-10006694D01*
X6241715Y-10006694D02*
X6232191Y-9987646D01*
X6232191Y-9987646D02*
X6232191Y-9911455D01*
X6232191Y-9911455D02*
X6241715Y-9892408D01*
X6241715Y-9892408D02*
X6260762Y-9882884D01*
X6260762Y-9882884D02*
X6298858Y-9882884D01*
X6298858Y-9882884D02*
X6317905Y-9892408D01*
X6317905Y-9892408D02*
X6327429Y-9911455D01*
X6327429Y-9911455D02*
X6327429Y-9930503D01*
X6327429Y-9930503D02*
X6232191Y-9949551D01*
X6403619Y-10006694D02*
X6422667Y-10016217D01*
X6422667Y-10016217D02*
X6460762Y-10016217D01*
X6460762Y-10016217D02*
X6479810Y-10006694D01*
X6479810Y-10006694D02*
X6489334Y-9987646D01*
X6489334Y-9987646D02*
X6489334Y-9978122D01*
X6489334Y-9978122D02*
X6479810Y-9959074D01*
X6479810Y-9959074D02*
X6460762Y-9949551D01*
X6460762Y-9949551D02*
X6432191Y-9949551D01*
X6432191Y-9949551D02*
X6413143Y-9940027D01*
X6413143Y-9940027D02*
X6403619Y-9920979D01*
X6403619Y-9920979D02*
X6403619Y-9911455D01*
X6403619Y-9911455D02*
X6413143Y-9892408D01*
X6413143Y-9892408D02*
X6432191Y-9882884D01*
X6432191Y-9882884D02*
X6460762Y-9882884D01*
X6460762Y-9882884D02*
X6479810Y-9892408D01*
X6556000Y-10092408D02*
X6565524Y-10082884D01*
X6565524Y-10082884D02*
X6584572Y-10054313D01*
X6584572Y-10054313D02*
X6594096Y-10035265D01*
X6594096Y-10035265D02*
X6603619Y-10006694D01*
X6603619Y-10006694D02*
X6613143Y-9959074D01*
X6613143Y-9959074D02*
X6613143Y-9920979D01*
X6613143Y-9920979D02*
X6603619Y-9873360D01*
X6603619Y-9873360D02*
X6594096Y-9844789D01*
X6594096Y-9844789D02*
X6584572Y-9825741D01*
X6584572Y-9825741D02*
X6565524Y-9797170D01*
X6565524Y-9797170D02*
X6556000Y-9787646D01*
M02*
