M48
; DRILL file {KiCad 7.0.7} date Fri 01 Sep 2023 12:35:14
; FORMAT={-:-/ absolute / inch / decimal}
; #@! TF.CreationDate,2023-09-01T12:35:14+10:00
; #@! TF.GenerationSoftware,Kicad,Pcbnew,7.0.7
; #@! TF.FileFunction,NonPlated,1,2,NPTH
FMAT,2
INCH
; #@! TA.AperFunction,NonPlated,NPTH,ComponentDrill
T1C0.0669
; #@! TA.AperFunction,NonPlated,NPTH,ComponentDrill
T2C0.0689
; #@! TA.AperFunction,NonPlated,NPTH,ComponentDrill
T3C0.1570
%
G90
G05
T1
X1.1427Y-1.3593
X1.2365Y-2.1093
X1.3302Y-2.8593
X1.5758Y-1.3593
X1.6695Y-2.1093
X1.7633Y-2.8593
X1.8927Y-1.3593
X2.0802Y-2.1093
X2.2677Y-2.8593
X2.3258Y-1.3593
X2.5133Y-2.1093
X2.6427Y-1.3593
X2.7008Y-2.8593
X2.8302Y-2.1093
X3.0177Y-2.8593
X3.0758Y-1.3593
X3.2633Y-2.1093
X3.3927Y-1.3593
X3.4508Y-2.8593
X3.5802Y-2.1093
X3.7677Y-2.8593
X3.8258Y-1.3593
X4.0133Y-2.1093
X4.1427Y-1.3593
X4.2008Y-2.8593
X4.3302Y-2.1093
X4.5758Y-1.3593
X4.7052Y-2.8593
X4.7633Y-2.1093
X4.8927Y-1.3593
X5.0802Y-2.1093
X5.1383Y-2.8593
X5.3258Y-1.3593
X5.5133Y-2.1093
X5.6427Y-1.3593
X5.6427Y-2.8593
X5.8302Y-2.1093
X6.0758Y-1.3593
X6.0758Y-2.8593
X6.2633Y-2.1093
X6.3927Y-1.3593
X6.3927Y-2.8593
X6.5802Y-2.1093
X6.8258Y-1.3593
X6.8258Y-2.8593
X7.0133Y-2.1093
X7.1427Y-1.3593
X7.1427Y-2.8593
X7.5758Y-1.3593
X7.5758Y-2.8593
X7.6115Y-2.1093
X7.8927Y-1.3593
X7.8927Y-2.8593
X8.0445Y-2.1093
X8.3258Y-1.3593
X8.3258Y-2.8593
T2
X1.1593Y-1.3593
X1.253Y-2.1093
X1.3468Y-2.8593
X1.5593Y-1.3593
X1.653Y-2.1093
X1.7468Y-2.8593
X1.9093Y-1.3593
X2.0968Y-2.1093
X2.2843Y-2.8593
X2.3093Y-1.3593
X2.4968Y-2.1093
X2.6593Y-1.3593
X2.6843Y-2.8593
X2.8468Y-2.1093
X3.0343Y-2.8593
X3.0593Y-1.3593
X3.2468Y-2.1093
X3.4093Y-1.3593
X3.4343Y-2.8593
X3.5968Y-2.1093
X3.7843Y-2.8593
X3.8093Y-1.3593
X3.9968Y-2.1093
X4.1593Y-1.3593
X4.1843Y-2.8593
X4.3468Y-2.1093
X4.5593Y-1.3593
X4.7218Y-2.8593
X4.7468Y-2.1093
X4.9093Y-1.3593
X5.0968Y-2.1093
X5.1218Y-2.8593
X5.3093Y-1.3593
X5.4968Y-2.1093
X5.6593Y-1.3593
X5.6593Y-2.8593
X5.8468Y-2.1093
X6.0593Y-1.3593
X6.0593Y-2.8593
X6.2468Y-2.1093
X6.4093Y-1.3593
X6.4093Y-2.8593
X6.5968Y-2.1093
X6.8093Y-1.3593
X6.8093Y-2.8593
X6.9968Y-2.1093
X7.1593Y-1.3593
X7.1593Y-2.8593
X7.5593Y-1.3593
X7.5593Y-2.8593
X7.628Y-2.1093
X7.9093Y-1.3593
X7.9093Y-2.8593
X8.028Y-2.1093
X8.3093Y-1.3593
X8.3093Y-2.8593
T3
X1.3593Y-1.3593
X1.453Y-2.1093
X1.5468Y-2.8593
X2.1093Y-1.3593
X2.2968Y-2.1093
X2.4843Y-2.8593
X2.8593Y-1.3593
X3.0468Y-2.1093
X3.2343Y-2.8593
X3.6093Y-1.3593
X3.7968Y-2.1093
X3.9843Y-2.8593
X4.3593Y-1.3593
X4.5468Y-2.1093
X4.9218Y-2.8593
X5.1093Y-1.3593
X5.2968Y-2.1093
X5.8593Y-1.3593
X5.8593Y-2.8593
X6.0468Y-2.1093
X6.6093Y-1.3593
X6.6093Y-2.8593
X6.7968Y-2.1093
X7.3593Y-1.3593
X7.3593Y-2.8593
X7.828Y-2.1093
X8.1093Y-1.3593
X8.1093Y-2.8593
T0
M30
