%TF.GenerationSoftware,KiCad,Pcbnew,7.0.7*%
%TF.CreationDate,2023-09-01T12:35:24+10:00*%
%TF.ProjectId,qaz,71617a2e-6b69-4636-9164-5f7063625858,rev?*%
%TF.SameCoordinates,Original*%
%TF.FileFunction,Profile,NP*%
%FSLAX46Y46*%
G04 Gerber Fmt 4.6, Leading zero omitted, Abs format (unit mm)*
G04 Created by KiCad (PCBNEW 7.0.7) date 2023-09-01 12:35:24*
%MOMM*%
%LPD*%
G01*
G04 APERTURE LIST*
%TA.AperFunction,Profile*%
%ADD10C,0.100000*%
%TD*%
%TA.AperFunction,Profile*%
%ADD11C,0.120000*%
%TD*%
G04 APERTURE END LIST*
D10*
X215253668Y-44350893D02*
X25253188Y-44350893D01*
X22859375Y-25003125D02*
X221291604Y-24901473D01*
X25253188Y-62805627D02*
X215253668Y-62805627D01*
X215503721Y-44005579D02*
G75*
G03*
X215253668Y-43755579I-250021J-21D01*
G01*
X25253188Y-62805688D02*
G75*
G03*
X25003188Y-63055627I-88J-249912D01*
G01*
X17859375Y-77153125D02*
X17859375Y-30003125D01*
X240270192Y-82153392D02*
G75*
G03*
X245270192Y-77153335I-92J5000092D01*
G01*
X240270192Y-82153335D02*
X22859375Y-82153125D01*
X245270192Y-30003335D02*
X245270192Y-77153335D01*
X245270165Y-30003335D02*
G75*
G03*
X240270192Y-25003335I-4999965J35D01*
G01*
X25003188Y-44100893D02*
X25003188Y-44005579D01*
X215503668Y-63055627D02*
X215503668Y-63150941D01*
X240270192Y-25003335D02*
X233291604Y-24901473D01*
X25003188Y-63150941D02*
X25003188Y-63055627D01*
X215503673Y-63055627D02*
G75*
G03*
X215253668Y-62805627I-249973J27D01*
G01*
X215253668Y-63400868D02*
G75*
G03*
X215503668Y-63150941I32J249968D01*
G01*
X215253668Y-44350868D02*
G75*
G03*
X215503668Y-44100893I32J249968D01*
G01*
X215253668Y-63400941D02*
X25253188Y-63400941D01*
X22859375Y-25003125D02*
G75*
G03*
X17859375Y-30003125I-5J-4999995D01*
G01*
X25253188Y-43755579D02*
X215253668Y-43755579D01*
X17859375Y-77153125D02*
G75*
G03*
X22859375Y-82153125I4999995J-5D01*
G01*
X215503668Y-44005579D02*
X215503668Y-44100893D01*
X25003159Y-63150941D02*
G75*
G03*
X25253188Y-63400941I250041J41D01*
G01*
X25253188Y-43755588D02*
G75*
G03*
X25003188Y-44005579I12J-250012D01*
G01*
X25003207Y-44100893D02*
G75*
G03*
X25253188Y-44350893I249993J-7D01*
G01*
D11*
%TO.C,U1*%
X221291604Y-24901473D02*
X221291604Y-45901473D01*
X221291604Y-45901473D02*
X233291604Y-45901473D01*
X233291604Y-45901473D02*
X233291604Y-24901473D01*
%TD*%
M02*
