%TF.GenerationSoftware,KiCad,Pcbnew,7.0.7*%
%TF.CreationDate,2023-09-01T12:35:23+10:00*%
%TF.ProjectId,qaz,71617a2e-6b69-4636-9164-5f7063625858,rev?*%
%TF.SameCoordinates,Original*%
%TF.FileFunction,Paste,Bot*%
%TF.FilePolarity,Positive*%
%FSLAX46Y46*%
G04 Gerber Fmt 4.6, Leading zero omitted, Abs format (unit mm)*
G04 Created by KiCad (PCBNEW 7.0.7) date 2023-09-01 12:35:23*
%MOMM*%
%LPD*%
G01*
G04 APERTURE LIST*
G04 Aperture macros list*
%AMRoundRect*
0 Rectangle with rounded corners*
0 $1 Rounding radius*
0 $2 $3 $4 $5 $6 $7 $8 $9 X,Y pos of 4 corners*
0 Add a 4 corners polygon primitive as box body*
4,1,4,$2,$3,$4,$5,$6,$7,$8,$9,$2,$3,0*
0 Add four circle primitives for the rounded corners*
1,1,$1+$1,$2,$3*
1,1,$1+$1,$4,$5*
1,1,$1+$1,$6,$7*
1,1,$1+$1,$8,$9*
0 Add four rect primitives between the rounded corners*
20,1,$1+$1,$2,$3,$4,$5,0*
20,1,$1+$1,$4,$5,$6,$7,0*
20,1,$1+$1,$6,$7,$8,$9,0*
20,1,$1+$1,$8,$9,$2,$3,0*%
G04 Aperture macros list end*
%ADD10RoundRect,0.150000X-0.150000X0.587500X-0.150000X-0.587500X0.150000X-0.587500X0.150000X0.587500X0*%
G04 APERTURE END LIST*
D10*
%TO.C,D15*%
X195446591Y-72032994D03*
X197346591Y-72032994D03*
X196396591Y-73907994D03*
%TD*%
%TO.C,D12*%
X90785385Y-72032994D03*
X92685385Y-72032994D03*
X91735385Y-73907994D03*
%TD*%
%TO.C,D2*%
X81146303Y-33932898D03*
X83046303Y-33932898D03*
X82096303Y-35807898D03*
%TD*%
%TO.C,D3*%
X119246399Y-33932898D03*
X121146399Y-33932898D03*
X120196399Y-35807898D03*
%TD*%
%TO.C,D1*%
X43046207Y-33932898D03*
X44946207Y-33932898D03*
X43996207Y-35807898D03*
%TD*%
%TO.C,D11*%
X52685289Y-72032994D03*
X54585289Y-72032994D03*
X53635289Y-73907994D03*
%TD*%
%TO.C,D13*%
X138410505Y-72032994D03*
X140310505Y-72032994D03*
X139360505Y-73907994D03*
%TD*%
%TO.C,D8*%
X124008911Y-52982946D03*
X125908911Y-52982946D03*
X124958911Y-54857946D03*
%TD*%
%TO.C,D14*%
X176510601Y-72032994D03*
X178410601Y-72032994D03*
X177460601Y-73907994D03*
%TD*%
%TO.C,D10*%
X188302823Y-52982946D03*
X190202823Y-52982946D03*
X189252823Y-54857946D03*
%TD*%
%TO.C,D4*%
X157403524Y-33932898D03*
X159303524Y-33932898D03*
X158353524Y-35807898D03*
%TD*%
%TO.C,D9*%
X162223065Y-52982946D03*
X164123065Y-52982946D03*
X163173065Y-54857946D03*
%TD*%
%TO.C,D5*%
X195446591Y-33932898D03*
X197346591Y-33932898D03*
X196396591Y-35807898D03*
%TD*%
%TO.C,D6*%
X47922777Y-52982946D03*
X49822777Y-52982946D03*
X48872777Y-54857946D03*
%TD*%
%TO.C,D7*%
X86022873Y-52982946D03*
X87922873Y-52982946D03*
X86972873Y-54857946D03*
%TD*%
M02*
