%TF.GenerationSoftware,KiCad,Pcbnew,7.0.7*%
%TF.CreationDate,2023-08-31T12:53:35+10:00*%
%TF.ProjectId,qaz,71617a2e-6b69-4636-9164-5f7063625858,rev?*%
%TF.SameCoordinates,Original*%
%TF.FileFunction,Drillmap*%
%TF.FilePolarity,Positive*%
%FSLAX45Y45*%
G04 Gerber Fmt 4.5, Leading zero omitted, Abs format (unit mm)*
G04 Created by KiCad (PCBNEW 7.0.7) date 2023-08-31 12:53:35*
%MOMM*%
%LPD*%
G01*
G04 APERTURE LIST*
%ADD10C,0.100000*%
%ADD11C,0.200000*%
%ADD12C,0.170000*%
%ADD13C,0.400000*%
G04 APERTURE END LIST*
D10*
X27440187Y-3454400D02*
X27440187Y-7899400D01*
X5080000Y-7899400D02*
G75*
G03*
X5715000Y-8534400I635000J0D01*
G01*
X27440190Y-3454400D02*
G75*
G03*
X26805187Y-2819400I-635000J0D01*
G01*
X5080000Y-7899400D02*
X5080000Y-3454400D01*
X5715000Y-2819400D02*
X26805187Y-2819400D01*
X5715000Y-2819400D02*
G75*
G03*
X5080000Y-3454400I0J-635000D01*
G01*
X26805187Y-8534397D02*
G75*
G03*
X27440187Y-7899400I3J634997D01*
G01*
X26805187Y-8534400D02*
X5715000Y-8534400D01*
D11*
D12*
X6074500Y-3686900D02*
X6244500Y-3856900D01*
X6244500Y-3686900D02*
X6074500Y-3856900D01*
X6312625Y-5591900D02*
X6482625Y-5761900D01*
X6482625Y-5591900D02*
X6312625Y-5761900D01*
X6550750Y-7496900D02*
X6720750Y-7666900D01*
X6720750Y-7496900D02*
X6550750Y-7666900D01*
X7090500Y-3686900D02*
X7260500Y-3856900D01*
X7260500Y-3686900D02*
X7090500Y-3856900D01*
X7328625Y-5591900D02*
X7498625Y-5761900D01*
X7498625Y-5591900D02*
X7328625Y-5761900D01*
X7566750Y-7496900D02*
X7736750Y-7666900D01*
X7736750Y-7496900D02*
X7566750Y-7666900D01*
X7979500Y-3686900D02*
X8149500Y-3856900D01*
X8149500Y-3686900D02*
X7979500Y-3856900D01*
X8455750Y-5591900D02*
X8625750Y-5761900D01*
X8625750Y-5591900D02*
X8455750Y-5761900D01*
X8932000Y-7496900D02*
X9102000Y-7666900D01*
X9102000Y-7496900D02*
X8932000Y-7666900D01*
X8995500Y-3686900D02*
X9165500Y-3856900D01*
X9165500Y-3686900D02*
X8995500Y-3856900D01*
X9471750Y-5591900D02*
X9641750Y-5761900D01*
X9641750Y-5591900D02*
X9471750Y-5761900D01*
X9884500Y-3686900D02*
X10054500Y-3856900D01*
X10054500Y-3686900D02*
X9884500Y-3856900D01*
X9948000Y-7496900D02*
X10118000Y-7666900D01*
X10118000Y-7496900D02*
X9948000Y-7666900D01*
X10360750Y-5591900D02*
X10530750Y-5761900D01*
X10530750Y-5591900D02*
X10360750Y-5761900D01*
X10837000Y-7496900D02*
X11007000Y-7666900D01*
X11007000Y-7496900D02*
X10837000Y-7666900D01*
X10900500Y-3686900D02*
X11070500Y-3856900D01*
X11070500Y-3686900D02*
X10900500Y-3856900D01*
X11376750Y-5591900D02*
X11546750Y-5761900D01*
X11546750Y-5591900D02*
X11376750Y-5761900D01*
X11789500Y-3686900D02*
X11959500Y-3856900D01*
X11959500Y-3686900D02*
X11789500Y-3856900D01*
X11853000Y-7496900D02*
X12023000Y-7666900D01*
X12023000Y-7496900D02*
X11853000Y-7666900D01*
X12265750Y-5591900D02*
X12435750Y-5761900D01*
X12435750Y-5591900D02*
X12265750Y-5761900D01*
X12742000Y-7496900D02*
X12912000Y-7666900D01*
X12912000Y-7496900D02*
X12742000Y-7666900D01*
X12805500Y-3686900D02*
X12975500Y-3856900D01*
X12975500Y-3686900D02*
X12805500Y-3856900D01*
X13281750Y-5591900D02*
X13451750Y-5761900D01*
X13451750Y-5591900D02*
X13281750Y-5761900D01*
X13694500Y-3686900D02*
X13864500Y-3856900D01*
X13864500Y-3686900D02*
X13694500Y-3856900D01*
X13758000Y-7496900D02*
X13928000Y-7666900D01*
X13928000Y-7496900D02*
X13758000Y-7666900D01*
X14170750Y-5591900D02*
X14340750Y-5761900D01*
X14340750Y-5591900D02*
X14170750Y-5761900D01*
X14710500Y-3686900D02*
X14880500Y-3856900D01*
X14880500Y-3686900D02*
X14710500Y-3856900D01*
X15123250Y-7496900D02*
X15293250Y-7666900D01*
X15293250Y-7496900D02*
X15123250Y-7666900D01*
X15186750Y-5591900D02*
X15356750Y-5761900D01*
X15356750Y-5591900D02*
X15186750Y-5761900D01*
X15599500Y-3686900D02*
X15769500Y-3856900D01*
X15769500Y-3686900D02*
X15599500Y-3856900D01*
X16075750Y-5591900D02*
X16245750Y-5761900D01*
X16245750Y-5591900D02*
X16075750Y-5761900D01*
X16139250Y-7496900D02*
X16309250Y-7666900D01*
X16309250Y-7496900D02*
X16139250Y-7666900D01*
X16615500Y-3686900D02*
X16785500Y-3856900D01*
X16785500Y-3686900D02*
X16615500Y-3856900D01*
X17091750Y-5591900D02*
X17261750Y-5761900D01*
X17261750Y-5591900D02*
X17091750Y-5761900D01*
X17504500Y-3686900D02*
X17674500Y-3856900D01*
X17674500Y-3686900D02*
X17504500Y-3856900D01*
X17504500Y-7496900D02*
X17674500Y-7666900D01*
X17674500Y-7496900D02*
X17504500Y-7666900D01*
X17980750Y-5591900D02*
X18150750Y-5761900D01*
X18150750Y-5591900D02*
X17980750Y-5761900D01*
X18520500Y-3686900D02*
X18690500Y-3856900D01*
X18690500Y-3686900D02*
X18520500Y-3856900D01*
X18520500Y-7496900D02*
X18690500Y-7666900D01*
X18690500Y-7496900D02*
X18520500Y-7666900D01*
X18996750Y-5591900D02*
X19166750Y-5761900D01*
X19166750Y-5591900D02*
X18996750Y-5761900D01*
X19409500Y-3686900D02*
X19579500Y-3856900D01*
X19579500Y-3686900D02*
X19409500Y-3856900D01*
X19409500Y-7496900D02*
X19579500Y-7666900D01*
X19579500Y-7496900D02*
X19409500Y-7666900D01*
X19885750Y-5591900D02*
X20055750Y-5761900D01*
X20055750Y-5591900D02*
X19885750Y-5761900D01*
X20425500Y-3686900D02*
X20595500Y-3856900D01*
X20595500Y-3686900D02*
X20425500Y-3856900D01*
X20425500Y-7496900D02*
X20595500Y-7666900D01*
X20595500Y-7496900D02*
X20425500Y-7666900D01*
X20901750Y-5591900D02*
X21071750Y-5761900D01*
X21071750Y-5591900D02*
X20901750Y-5761900D01*
X21314500Y-3686900D02*
X21484500Y-3856900D01*
X21484500Y-3686900D02*
X21314500Y-3856900D01*
X21314500Y-7496900D02*
X21484500Y-7666900D01*
X21484500Y-7496900D02*
X21314500Y-7666900D01*
X22330500Y-3686900D02*
X22500500Y-3856900D01*
X22500500Y-3686900D02*
X22330500Y-3856900D01*
X22330500Y-7496900D02*
X22500500Y-7666900D01*
X22500500Y-7496900D02*
X22330500Y-7666900D01*
X22505125Y-5591900D02*
X22675125Y-5761900D01*
X22675125Y-5591900D02*
X22505125Y-5761900D01*
X23219500Y-3686900D02*
X23389500Y-3856900D01*
X23389500Y-3686900D02*
X23219500Y-3856900D01*
X23219500Y-7496900D02*
X23389500Y-7666900D01*
X23389500Y-7496900D02*
X23219500Y-7666900D01*
X23521125Y-5591900D02*
X23691125Y-5761900D01*
X23691125Y-5591900D02*
X23521125Y-5761900D01*
X24235500Y-3686900D02*
X24405500Y-3856900D01*
X24405500Y-3686900D02*
X24235500Y-3856900D01*
X24235500Y-7496900D02*
X24405500Y-7666900D01*
X24405500Y-7496900D02*
X24235500Y-7666900D01*
D13*
X6867500Y-3771900D02*
G75*
G03*
X6867500Y-3771900I-200000J0D01*
G01*
X7105625Y-5676900D02*
G75*
G03*
X7105625Y-5676900I-200000J0D01*
G01*
X7343750Y-7581900D02*
G75*
G03*
X7343750Y-7581900I-200000J0D01*
G01*
X8772500Y-3771900D02*
G75*
G03*
X8772500Y-3771900I-200000J0D01*
G01*
X9248750Y-5676900D02*
G75*
G03*
X9248750Y-5676900I-200000J0D01*
G01*
X9725000Y-7581900D02*
G75*
G03*
X9725000Y-7581900I-200000J0D01*
G01*
X10677500Y-3771900D02*
G75*
G03*
X10677500Y-3771900I-200000J0D01*
G01*
X11153750Y-5676900D02*
G75*
G03*
X11153750Y-5676900I-200000J0D01*
G01*
X11630000Y-7581900D02*
G75*
G03*
X11630000Y-7581900I-200000J0D01*
G01*
X12582500Y-3771900D02*
G75*
G03*
X12582500Y-3771900I-200000J0D01*
G01*
X13058750Y-5676900D02*
G75*
G03*
X13058750Y-5676900I-200000J0D01*
G01*
X13535000Y-7581900D02*
G75*
G03*
X13535000Y-7581900I-200000J0D01*
G01*
X14487500Y-3771900D02*
G75*
G03*
X14487500Y-3771900I-200000J0D01*
G01*
X14963750Y-5676900D02*
G75*
G03*
X14963750Y-5676900I-200000J0D01*
G01*
X15916250Y-7581900D02*
G75*
G03*
X15916250Y-7581900I-200000J0D01*
G01*
X16392500Y-3771900D02*
G75*
G03*
X16392500Y-3771900I-200000J0D01*
G01*
X16868750Y-5676900D02*
G75*
G03*
X16868750Y-5676900I-200000J0D01*
G01*
X18297500Y-3771900D02*
G75*
G03*
X18297500Y-3771900I-200000J0D01*
G01*
X18297500Y-7581900D02*
G75*
G03*
X18297500Y-7581900I-200000J0D01*
G01*
X18773750Y-5676900D02*
G75*
G03*
X18773750Y-5676900I-200000J0D01*
G01*
X20202500Y-3771900D02*
G75*
G03*
X20202500Y-3771900I-200000J0D01*
G01*
X20202500Y-7581900D02*
G75*
G03*
X20202500Y-7581900I-200000J0D01*
G01*
X20678750Y-5676900D02*
G75*
G03*
X20678750Y-5676900I-200000J0D01*
G01*
X22107500Y-3771900D02*
G75*
G03*
X22107500Y-3771900I-200000J0D01*
G01*
X22107500Y-7581900D02*
G75*
G03*
X22107500Y-7581900I-200000J0D01*
G01*
X23298125Y-5676900D02*
G75*
G03*
X23298125Y-5676900I-200000J0D01*
G01*
X24012500Y-3771900D02*
G75*
G03*
X24012500Y-3771900I-200000J0D01*
G01*
X24012500Y-7581900D02*
G75*
G03*
X24012500Y-7581900I-200000J0D01*
G01*
D11*
X5335777Y-8850884D02*
X5335777Y-8650884D01*
X5335777Y-8650884D02*
X5383396Y-8650884D01*
X5383396Y-8650884D02*
X5411967Y-8660408D01*
X5411967Y-8660408D02*
X5431015Y-8679455D01*
X5431015Y-8679455D02*
X5440539Y-8698503D01*
X5440539Y-8698503D02*
X5450063Y-8736598D01*
X5450063Y-8736598D02*
X5450063Y-8765170D01*
X5450063Y-8765170D02*
X5440539Y-8803265D01*
X5440539Y-8803265D02*
X5431015Y-8822312D01*
X5431015Y-8822312D02*
X5411967Y-8841360D01*
X5411967Y-8841360D02*
X5383396Y-8850884D01*
X5383396Y-8850884D02*
X5335777Y-8850884D01*
X5535777Y-8850884D02*
X5535777Y-8717550D01*
X5535777Y-8755646D02*
X5545301Y-8736598D01*
X5545301Y-8736598D02*
X5554824Y-8727074D01*
X5554824Y-8727074D02*
X5573872Y-8717550D01*
X5573872Y-8717550D02*
X5592920Y-8717550D01*
X5659586Y-8850884D02*
X5659586Y-8717550D01*
X5659586Y-8650884D02*
X5650062Y-8660408D01*
X5650062Y-8660408D02*
X5659586Y-8669931D01*
X5659586Y-8669931D02*
X5669110Y-8660408D01*
X5669110Y-8660408D02*
X5659586Y-8650884D01*
X5659586Y-8650884D02*
X5659586Y-8669931D01*
X5783396Y-8850884D02*
X5764348Y-8841360D01*
X5764348Y-8841360D02*
X5754824Y-8822312D01*
X5754824Y-8822312D02*
X5754824Y-8650884D01*
X5888158Y-8850884D02*
X5869110Y-8841360D01*
X5869110Y-8841360D02*
X5859586Y-8822312D01*
X5859586Y-8822312D02*
X5859586Y-8650884D01*
X6116729Y-8850884D02*
X6116729Y-8650884D01*
X6116729Y-8650884D02*
X6183396Y-8793741D01*
X6183396Y-8793741D02*
X6250062Y-8650884D01*
X6250062Y-8650884D02*
X6250062Y-8850884D01*
X6431015Y-8850884D02*
X6431015Y-8746122D01*
X6431015Y-8746122D02*
X6421491Y-8727074D01*
X6421491Y-8727074D02*
X6402443Y-8717550D01*
X6402443Y-8717550D02*
X6364348Y-8717550D01*
X6364348Y-8717550D02*
X6345301Y-8727074D01*
X6431015Y-8841360D02*
X6411967Y-8850884D01*
X6411967Y-8850884D02*
X6364348Y-8850884D01*
X6364348Y-8850884D02*
X6345301Y-8841360D01*
X6345301Y-8841360D02*
X6335777Y-8822312D01*
X6335777Y-8822312D02*
X6335777Y-8803265D01*
X6335777Y-8803265D02*
X6345301Y-8784217D01*
X6345301Y-8784217D02*
X6364348Y-8774693D01*
X6364348Y-8774693D02*
X6411967Y-8774693D01*
X6411967Y-8774693D02*
X6431015Y-8765170D01*
X6526253Y-8717550D02*
X6526253Y-8917550D01*
X6526253Y-8727074D02*
X6545301Y-8717550D01*
X6545301Y-8717550D02*
X6583396Y-8717550D01*
X6583396Y-8717550D02*
X6602443Y-8727074D01*
X6602443Y-8727074D02*
X6611967Y-8736598D01*
X6611967Y-8736598D02*
X6621491Y-8755646D01*
X6621491Y-8755646D02*
X6621491Y-8812789D01*
X6621491Y-8812789D02*
X6611967Y-8831836D01*
X6611967Y-8831836D02*
X6602443Y-8841360D01*
X6602443Y-8841360D02*
X6583396Y-8850884D01*
X6583396Y-8850884D02*
X6545301Y-8850884D01*
X6545301Y-8850884D02*
X6526253Y-8841360D01*
X6707205Y-8831836D02*
X6716729Y-8841360D01*
X6716729Y-8841360D02*
X6707205Y-8850884D01*
X6707205Y-8850884D02*
X6697682Y-8841360D01*
X6697682Y-8841360D02*
X6707205Y-8831836D01*
X6707205Y-8831836D02*
X6707205Y-8850884D01*
X6707205Y-8727074D02*
X6716729Y-8736598D01*
X6716729Y-8736598D02*
X6707205Y-8746122D01*
X6707205Y-8746122D02*
X6697682Y-8736598D01*
X6697682Y-8736598D02*
X6707205Y-8727074D01*
X6707205Y-8727074D02*
X6707205Y-8746122D01*
D12*
X4905000Y-9094400D02*
X5075000Y-9264400D01*
X5075000Y-9094400D02*
X4905000Y-9264400D01*
D11*
X5440539Y-9270884D02*
X5326253Y-9270884D01*
X5383396Y-9270884D02*
X5383396Y-9070884D01*
X5383396Y-9070884D02*
X5364348Y-9099455D01*
X5364348Y-9099455D02*
X5345301Y-9118503D01*
X5345301Y-9118503D02*
X5326253Y-9128027D01*
X5526253Y-9251836D02*
X5535777Y-9261360D01*
X5535777Y-9261360D02*
X5526253Y-9270884D01*
X5526253Y-9270884D02*
X5516729Y-9261360D01*
X5516729Y-9261360D02*
X5526253Y-9251836D01*
X5526253Y-9251836D02*
X5526253Y-9270884D01*
X5602443Y-9070884D02*
X5735777Y-9070884D01*
X5735777Y-9070884D02*
X5650062Y-9270884D01*
X5850062Y-9070884D02*
X5869110Y-9070884D01*
X5869110Y-9070884D02*
X5888158Y-9080408D01*
X5888158Y-9080408D02*
X5897682Y-9089931D01*
X5897682Y-9089931D02*
X5907205Y-9108979D01*
X5907205Y-9108979D02*
X5916729Y-9147074D01*
X5916729Y-9147074D02*
X5916729Y-9194693D01*
X5916729Y-9194693D02*
X5907205Y-9232789D01*
X5907205Y-9232789D02*
X5897682Y-9251836D01*
X5897682Y-9251836D02*
X5888158Y-9261360D01*
X5888158Y-9261360D02*
X5869110Y-9270884D01*
X5869110Y-9270884D02*
X5850062Y-9270884D01*
X5850062Y-9270884D02*
X5831015Y-9261360D01*
X5831015Y-9261360D02*
X5821491Y-9251836D01*
X5821491Y-9251836D02*
X5811967Y-9232789D01*
X5811967Y-9232789D02*
X5802443Y-9194693D01*
X5802443Y-9194693D02*
X5802443Y-9147074D01*
X5802443Y-9147074D02*
X5811967Y-9108979D01*
X5811967Y-9108979D02*
X5821491Y-9089931D01*
X5821491Y-9089931D02*
X5831015Y-9080408D01*
X5831015Y-9080408D02*
X5850062Y-9070884D01*
X6040539Y-9070884D02*
X6059586Y-9070884D01*
X6059586Y-9070884D02*
X6078634Y-9080408D01*
X6078634Y-9080408D02*
X6088158Y-9089931D01*
X6088158Y-9089931D02*
X6097682Y-9108979D01*
X6097682Y-9108979D02*
X6107205Y-9147074D01*
X6107205Y-9147074D02*
X6107205Y-9194693D01*
X6107205Y-9194693D02*
X6097682Y-9232789D01*
X6097682Y-9232789D02*
X6088158Y-9251836D01*
X6088158Y-9251836D02*
X6078634Y-9261360D01*
X6078634Y-9261360D02*
X6059586Y-9270884D01*
X6059586Y-9270884D02*
X6040539Y-9270884D01*
X6040539Y-9270884D02*
X6021491Y-9261360D01*
X6021491Y-9261360D02*
X6011967Y-9251836D01*
X6011967Y-9251836D02*
X6002443Y-9232789D01*
X6002443Y-9232789D02*
X5992920Y-9194693D01*
X5992920Y-9194693D02*
X5992920Y-9147074D01*
X5992920Y-9147074D02*
X6002443Y-9108979D01*
X6002443Y-9108979D02*
X6011967Y-9089931D01*
X6011967Y-9089931D02*
X6021491Y-9080408D01*
X6021491Y-9080408D02*
X6040539Y-9070884D01*
X6192920Y-9270884D02*
X6192920Y-9137550D01*
X6192920Y-9156598D02*
X6202443Y-9147074D01*
X6202443Y-9147074D02*
X6221491Y-9137550D01*
X6221491Y-9137550D02*
X6250063Y-9137550D01*
X6250063Y-9137550D02*
X6269110Y-9147074D01*
X6269110Y-9147074D02*
X6278634Y-9166122D01*
X6278634Y-9166122D02*
X6278634Y-9270884D01*
X6278634Y-9166122D02*
X6288158Y-9147074D01*
X6288158Y-9147074D02*
X6307205Y-9137550D01*
X6307205Y-9137550D02*
X6335777Y-9137550D01*
X6335777Y-9137550D02*
X6354824Y-9147074D01*
X6354824Y-9147074D02*
X6364348Y-9166122D01*
X6364348Y-9166122D02*
X6364348Y-9270884D01*
X6459586Y-9270884D02*
X6459586Y-9137550D01*
X6459586Y-9156598D02*
X6469110Y-9147074D01*
X6469110Y-9147074D02*
X6488158Y-9137550D01*
X6488158Y-9137550D02*
X6516729Y-9137550D01*
X6516729Y-9137550D02*
X6535777Y-9147074D01*
X6535777Y-9147074D02*
X6545301Y-9166122D01*
X6545301Y-9166122D02*
X6545301Y-9270884D01*
X6545301Y-9166122D02*
X6554824Y-9147074D01*
X6554824Y-9147074D02*
X6573872Y-9137550D01*
X6573872Y-9137550D02*
X6602443Y-9137550D01*
X6602443Y-9137550D02*
X6621491Y-9147074D01*
X6621491Y-9147074D02*
X6631015Y-9166122D01*
X6631015Y-9166122D02*
X6631015Y-9270884D01*
X7021491Y-9061360D02*
X6850063Y-9318503D01*
X7278634Y-9070884D02*
X7297682Y-9070884D01*
X7297682Y-9070884D02*
X7316729Y-9080408D01*
X7316729Y-9080408D02*
X7326253Y-9089931D01*
X7326253Y-9089931D02*
X7335777Y-9108979D01*
X7335777Y-9108979D02*
X7345301Y-9147074D01*
X7345301Y-9147074D02*
X7345301Y-9194693D01*
X7345301Y-9194693D02*
X7335777Y-9232789D01*
X7335777Y-9232789D02*
X7326253Y-9251836D01*
X7326253Y-9251836D02*
X7316729Y-9261360D01*
X7316729Y-9261360D02*
X7297682Y-9270884D01*
X7297682Y-9270884D02*
X7278634Y-9270884D01*
X7278634Y-9270884D02*
X7259586Y-9261360D01*
X7259586Y-9261360D02*
X7250063Y-9251836D01*
X7250063Y-9251836D02*
X7240539Y-9232789D01*
X7240539Y-9232789D02*
X7231015Y-9194693D01*
X7231015Y-9194693D02*
X7231015Y-9147074D01*
X7231015Y-9147074D02*
X7240539Y-9108979D01*
X7240539Y-9108979D02*
X7250063Y-9089931D01*
X7250063Y-9089931D02*
X7259586Y-9080408D01*
X7259586Y-9080408D02*
X7278634Y-9070884D01*
X7431015Y-9251836D02*
X7440539Y-9261360D01*
X7440539Y-9261360D02*
X7431015Y-9270884D01*
X7431015Y-9270884D02*
X7421491Y-9261360D01*
X7421491Y-9261360D02*
X7431015Y-9251836D01*
X7431015Y-9251836D02*
X7431015Y-9270884D01*
X7564348Y-9070884D02*
X7583396Y-9070884D01*
X7583396Y-9070884D02*
X7602444Y-9080408D01*
X7602444Y-9080408D02*
X7611967Y-9089931D01*
X7611967Y-9089931D02*
X7621491Y-9108979D01*
X7621491Y-9108979D02*
X7631015Y-9147074D01*
X7631015Y-9147074D02*
X7631015Y-9194693D01*
X7631015Y-9194693D02*
X7621491Y-9232789D01*
X7621491Y-9232789D02*
X7611967Y-9251836D01*
X7611967Y-9251836D02*
X7602444Y-9261360D01*
X7602444Y-9261360D02*
X7583396Y-9270884D01*
X7583396Y-9270884D02*
X7564348Y-9270884D01*
X7564348Y-9270884D02*
X7545301Y-9261360D01*
X7545301Y-9261360D02*
X7535777Y-9251836D01*
X7535777Y-9251836D02*
X7526253Y-9232789D01*
X7526253Y-9232789D02*
X7516729Y-9194693D01*
X7516729Y-9194693D02*
X7516729Y-9147074D01*
X7516729Y-9147074D02*
X7526253Y-9108979D01*
X7526253Y-9108979D02*
X7535777Y-9089931D01*
X7535777Y-9089931D02*
X7545301Y-9080408D01*
X7545301Y-9080408D02*
X7564348Y-9070884D01*
X7802444Y-9070884D02*
X7764348Y-9070884D01*
X7764348Y-9070884D02*
X7745301Y-9080408D01*
X7745301Y-9080408D02*
X7735777Y-9089931D01*
X7735777Y-9089931D02*
X7716729Y-9118503D01*
X7716729Y-9118503D02*
X7707206Y-9156598D01*
X7707206Y-9156598D02*
X7707206Y-9232789D01*
X7707206Y-9232789D02*
X7716729Y-9251836D01*
X7716729Y-9251836D02*
X7726253Y-9261360D01*
X7726253Y-9261360D02*
X7745301Y-9270884D01*
X7745301Y-9270884D02*
X7783396Y-9270884D01*
X7783396Y-9270884D02*
X7802444Y-9261360D01*
X7802444Y-9261360D02*
X7811967Y-9251836D01*
X7811967Y-9251836D02*
X7821491Y-9232789D01*
X7821491Y-9232789D02*
X7821491Y-9185170D01*
X7821491Y-9185170D02*
X7811967Y-9166122D01*
X7811967Y-9166122D02*
X7802444Y-9156598D01*
X7802444Y-9156598D02*
X7783396Y-9147074D01*
X7783396Y-9147074D02*
X7745301Y-9147074D01*
X7745301Y-9147074D02*
X7726253Y-9156598D01*
X7726253Y-9156598D02*
X7716729Y-9166122D01*
X7716729Y-9166122D02*
X7707206Y-9185170D01*
X7992920Y-9070884D02*
X7954825Y-9070884D01*
X7954825Y-9070884D02*
X7935777Y-9080408D01*
X7935777Y-9080408D02*
X7926253Y-9089931D01*
X7926253Y-9089931D02*
X7907206Y-9118503D01*
X7907206Y-9118503D02*
X7897682Y-9156598D01*
X7897682Y-9156598D02*
X7897682Y-9232789D01*
X7897682Y-9232789D02*
X7907206Y-9251836D01*
X7907206Y-9251836D02*
X7916729Y-9261360D01*
X7916729Y-9261360D02*
X7935777Y-9270884D01*
X7935777Y-9270884D02*
X7973872Y-9270884D01*
X7973872Y-9270884D02*
X7992920Y-9261360D01*
X7992920Y-9261360D02*
X8002444Y-9251836D01*
X8002444Y-9251836D02*
X8011967Y-9232789D01*
X8011967Y-9232789D02*
X8011967Y-9185170D01*
X8011967Y-9185170D02*
X8002444Y-9166122D01*
X8002444Y-9166122D02*
X7992920Y-9156598D01*
X7992920Y-9156598D02*
X7973872Y-9147074D01*
X7973872Y-9147074D02*
X7935777Y-9147074D01*
X7935777Y-9147074D02*
X7916729Y-9156598D01*
X7916729Y-9156598D02*
X7907206Y-9166122D01*
X7907206Y-9166122D02*
X7897682Y-9185170D01*
X8107206Y-9270884D02*
X8145301Y-9270884D01*
X8145301Y-9270884D02*
X8164348Y-9261360D01*
X8164348Y-9261360D02*
X8173872Y-9251836D01*
X8173872Y-9251836D02*
X8192920Y-9223265D01*
X8192920Y-9223265D02*
X8202444Y-9185170D01*
X8202444Y-9185170D02*
X8202444Y-9108979D01*
X8202444Y-9108979D02*
X8192920Y-9089931D01*
X8192920Y-9089931D02*
X8183396Y-9080408D01*
X8183396Y-9080408D02*
X8164348Y-9070884D01*
X8164348Y-9070884D02*
X8126253Y-9070884D01*
X8126253Y-9070884D02*
X8107206Y-9080408D01*
X8107206Y-9080408D02*
X8097682Y-9089931D01*
X8097682Y-9089931D02*
X8088158Y-9108979D01*
X8088158Y-9108979D02*
X8088158Y-9156598D01*
X8088158Y-9156598D02*
X8097682Y-9175646D01*
X8097682Y-9175646D02*
X8107206Y-9185170D01*
X8107206Y-9185170D02*
X8126253Y-9194693D01*
X8126253Y-9194693D02*
X8164348Y-9194693D01*
X8164348Y-9194693D02*
X8183396Y-9185170D01*
X8183396Y-9185170D02*
X8192920Y-9175646D01*
X8192920Y-9175646D02*
X8202444Y-9156598D01*
X8278634Y-9070884D02*
X8278634Y-9108979D01*
X8354825Y-9070884D02*
X8354825Y-9108979D01*
X8650063Y-9347074D02*
X8640539Y-9337550D01*
X8640539Y-9337550D02*
X8621491Y-9308979D01*
X8621491Y-9308979D02*
X8611968Y-9289931D01*
X8611968Y-9289931D02*
X8602444Y-9261360D01*
X8602444Y-9261360D02*
X8592920Y-9213741D01*
X8592920Y-9213741D02*
X8592920Y-9175646D01*
X8592920Y-9175646D02*
X8602444Y-9128027D01*
X8602444Y-9128027D02*
X8611968Y-9099455D01*
X8611968Y-9099455D02*
X8621491Y-9080408D01*
X8621491Y-9080408D02*
X8640539Y-9051836D01*
X8640539Y-9051836D02*
X8650063Y-9042312D01*
X8821491Y-9070884D02*
X8726253Y-9070884D01*
X8726253Y-9070884D02*
X8716730Y-9166122D01*
X8716730Y-9166122D02*
X8726253Y-9156598D01*
X8726253Y-9156598D02*
X8745301Y-9147074D01*
X8745301Y-9147074D02*
X8792920Y-9147074D01*
X8792920Y-9147074D02*
X8811968Y-9156598D01*
X8811968Y-9156598D02*
X8821491Y-9166122D01*
X8821491Y-9166122D02*
X8831015Y-9185170D01*
X8831015Y-9185170D02*
X8831015Y-9232789D01*
X8831015Y-9232789D02*
X8821491Y-9251836D01*
X8821491Y-9251836D02*
X8811968Y-9261360D01*
X8811968Y-9261360D02*
X8792920Y-9270884D01*
X8792920Y-9270884D02*
X8745301Y-9270884D01*
X8745301Y-9270884D02*
X8726253Y-9261360D01*
X8726253Y-9261360D02*
X8716730Y-9251836D01*
X9002444Y-9070884D02*
X8964349Y-9070884D01*
X8964349Y-9070884D02*
X8945301Y-9080408D01*
X8945301Y-9080408D02*
X8935777Y-9089931D01*
X8935777Y-9089931D02*
X8916730Y-9118503D01*
X8916730Y-9118503D02*
X8907206Y-9156598D01*
X8907206Y-9156598D02*
X8907206Y-9232789D01*
X8907206Y-9232789D02*
X8916730Y-9251836D01*
X8916730Y-9251836D02*
X8926253Y-9261360D01*
X8926253Y-9261360D02*
X8945301Y-9270884D01*
X8945301Y-9270884D02*
X8983396Y-9270884D01*
X8983396Y-9270884D02*
X9002444Y-9261360D01*
X9002444Y-9261360D02*
X9011968Y-9251836D01*
X9011968Y-9251836D02*
X9021491Y-9232789D01*
X9021491Y-9232789D02*
X9021491Y-9185170D01*
X9021491Y-9185170D02*
X9011968Y-9166122D01*
X9011968Y-9166122D02*
X9002444Y-9156598D01*
X9002444Y-9156598D02*
X8983396Y-9147074D01*
X8983396Y-9147074D02*
X8945301Y-9147074D01*
X8945301Y-9147074D02*
X8926253Y-9156598D01*
X8926253Y-9156598D02*
X8916730Y-9166122D01*
X8916730Y-9166122D02*
X8907206Y-9185170D01*
X9259587Y-9270884D02*
X9259587Y-9070884D01*
X9345301Y-9270884D02*
X9345301Y-9166122D01*
X9345301Y-9166122D02*
X9335777Y-9147074D01*
X9335777Y-9147074D02*
X9316730Y-9137550D01*
X9316730Y-9137550D02*
X9288158Y-9137550D01*
X9288158Y-9137550D02*
X9269111Y-9147074D01*
X9269111Y-9147074D02*
X9259587Y-9156598D01*
X9469111Y-9270884D02*
X9450063Y-9261360D01*
X9450063Y-9261360D02*
X9440539Y-9251836D01*
X9440539Y-9251836D02*
X9431015Y-9232789D01*
X9431015Y-9232789D02*
X9431015Y-9175646D01*
X9431015Y-9175646D02*
X9440539Y-9156598D01*
X9440539Y-9156598D02*
X9450063Y-9147074D01*
X9450063Y-9147074D02*
X9469111Y-9137550D01*
X9469111Y-9137550D02*
X9497682Y-9137550D01*
X9497682Y-9137550D02*
X9516730Y-9147074D01*
X9516730Y-9147074D02*
X9526253Y-9156598D01*
X9526253Y-9156598D02*
X9535777Y-9175646D01*
X9535777Y-9175646D02*
X9535777Y-9232789D01*
X9535777Y-9232789D02*
X9526253Y-9251836D01*
X9526253Y-9251836D02*
X9516730Y-9261360D01*
X9516730Y-9261360D02*
X9497682Y-9270884D01*
X9497682Y-9270884D02*
X9469111Y-9270884D01*
X9650063Y-9270884D02*
X9631015Y-9261360D01*
X9631015Y-9261360D02*
X9621492Y-9242312D01*
X9621492Y-9242312D02*
X9621492Y-9070884D01*
X9802444Y-9261360D02*
X9783396Y-9270884D01*
X9783396Y-9270884D02*
X9745301Y-9270884D01*
X9745301Y-9270884D02*
X9726253Y-9261360D01*
X9726253Y-9261360D02*
X9716730Y-9242312D01*
X9716730Y-9242312D02*
X9716730Y-9166122D01*
X9716730Y-9166122D02*
X9726253Y-9147074D01*
X9726253Y-9147074D02*
X9745301Y-9137550D01*
X9745301Y-9137550D02*
X9783396Y-9137550D01*
X9783396Y-9137550D02*
X9802444Y-9147074D01*
X9802444Y-9147074D02*
X9811968Y-9166122D01*
X9811968Y-9166122D02*
X9811968Y-9185170D01*
X9811968Y-9185170D02*
X9716730Y-9204217D01*
X9888158Y-9261360D02*
X9907206Y-9270884D01*
X9907206Y-9270884D02*
X9945301Y-9270884D01*
X9945301Y-9270884D02*
X9964349Y-9261360D01*
X9964349Y-9261360D02*
X9973873Y-9242312D01*
X9973873Y-9242312D02*
X9973873Y-9232789D01*
X9973873Y-9232789D02*
X9964349Y-9213741D01*
X9964349Y-9213741D02*
X9945301Y-9204217D01*
X9945301Y-9204217D02*
X9916730Y-9204217D01*
X9916730Y-9204217D02*
X9897682Y-9194693D01*
X9897682Y-9194693D02*
X9888158Y-9175646D01*
X9888158Y-9175646D02*
X9888158Y-9166122D01*
X9888158Y-9166122D02*
X9897682Y-9147074D01*
X9897682Y-9147074D02*
X9916730Y-9137550D01*
X9916730Y-9137550D02*
X9945301Y-9137550D01*
X9945301Y-9137550D02*
X9964349Y-9147074D01*
X10040539Y-9347074D02*
X10050063Y-9337550D01*
X10050063Y-9337550D02*
X10069111Y-9308979D01*
X10069111Y-9308979D02*
X10078634Y-9289931D01*
X10078634Y-9289931D02*
X10088158Y-9261360D01*
X10088158Y-9261360D02*
X10097682Y-9213741D01*
X10097682Y-9213741D02*
X10097682Y-9175646D01*
X10097682Y-9175646D02*
X10088158Y-9128027D01*
X10088158Y-9128027D02*
X10078634Y-9099455D01*
X10078634Y-9099455D02*
X10069111Y-9080408D01*
X10069111Y-9080408D02*
X10050063Y-9051836D01*
X10050063Y-9051836D02*
X10040539Y-9042312D01*
X10402444Y-9347074D02*
X10392920Y-9337550D01*
X10392920Y-9337550D02*
X10373873Y-9308979D01*
X10373873Y-9308979D02*
X10364349Y-9289931D01*
X10364349Y-9289931D02*
X10354825Y-9261360D01*
X10354825Y-9261360D02*
X10345301Y-9213741D01*
X10345301Y-9213741D02*
X10345301Y-9175646D01*
X10345301Y-9175646D02*
X10354825Y-9128027D01*
X10354825Y-9128027D02*
X10364349Y-9099455D01*
X10364349Y-9099455D02*
X10373873Y-9080408D01*
X10373873Y-9080408D02*
X10392920Y-9051836D01*
X10392920Y-9051836D02*
X10402444Y-9042312D01*
X10478634Y-9137550D02*
X10478634Y-9270884D01*
X10478634Y-9156598D02*
X10488158Y-9147074D01*
X10488158Y-9147074D02*
X10507206Y-9137550D01*
X10507206Y-9137550D02*
X10535777Y-9137550D01*
X10535777Y-9137550D02*
X10554825Y-9147074D01*
X10554825Y-9147074D02*
X10564349Y-9166122D01*
X10564349Y-9166122D02*
X10564349Y-9270884D01*
X10688158Y-9270884D02*
X10669111Y-9261360D01*
X10669111Y-9261360D02*
X10659587Y-9251836D01*
X10659587Y-9251836D02*
X10650063Y-9232789D01*
X10650063Y-9232789D02*
X10650063Y-9175646D01*
X10650063Y-9175646D02*
X10659587Y-9156598D01*
X10659587Y-9156598D02*
X10669111Y-9147074D01*
X10669111Y-9147074D02*
X10688158Y-9137550D01*
X10688158Y-9137550D02*
X10716730Y-9137550D01*
X10716730Y-9137550D02*
X10735777Y-9147074D01*
X10735777Y-9147074D02*
X10745301Y-9156598D01*
X10745301Y-9156598D02*
X10754825Y-9175646D01*
X10754825Y-9175646D02*
X10754825Y-9232789D01*
X10754825Y-9232789D02*
X10745301Y-9251836D01*
X10745301Y-9251836D02*
X10735777Y-9261360D01*
X10735777Y-9261360D02*
X10716730Y-9270884D01*
X10716730Y-9270884D02*
X10688158Y-9270884D01*
X10811968Y-9137550D02*
X10888158Y-9137550D01*
X10840539Y-9070884D02*
X10840539Y-9242312D01*
X10840539Y-9242312D02*
X10850063Y-9261360D01*
X10850063Y-9261360D02*
X10869111Y-9270884D01*
X10869111Y-9270884D02*
X10888158Y-9270884D01*
X11107206Y-9137550D02*
X11107206Y-9337550D01*
X11107206Y-9147074D02*
X11126254Y-9137550D01*
X11126254Y-9137550D02*
X11164349Y-9137550D01*
X11164349Y-9137550D02*
X11183396Y-9147074D01*
X11183396Y-9147074D02*
X11192920Y-9156598D01*
X11192920Y-9156598D02*
X11202444Y-9175646D01*
X11202444Y-9175646D02*
X11202444Y-9232789D01*
X11202444Y-9232789D02*
X11192920Y-9251836D01*
X11192920Y-9251836D02*
X11183396Y-9261360D01*
X11183396Y-9261360D02*
X11164349Y-9270884D01*
X11164349Y-9270884D02*
X11126254Y-9270884D01*
X11126254Y-9270884D02*
X11107206Y-9261360D01*
X11316730Y-9270884D02*
X11297682Y-9261360D01*
X11297682Y-9261360D02*
X11288158Y-9242312D01*
X11288158Y-9242312D02*
X11288158Y-9070884D01*
X11478634Y-9270884D02*
X11478634Y-9166122D01*
X11478634Y-9166122D02*
X11469111Y-9147074D01*
X11469111Y-9147074D02*
X11450063Y-9137550D01*
X11450063Y-9137550D02*
X11411968Y-9137550D01*
X11411968Y-9137550D02*
X11392920Y-9147074D01*
X11478634Y-9261360D02*
X11459587Y-9270884D01*
X11459587Y-9270884D02*
X11411968Y-9270884D01*
X11411968Y-9270884D02*
X11392920Y-9261360D01*
X11392920Y-9261360D02*
X11383396Y-9242312D01*
X11383396Y-9242312D02*
X11383396Y-9223265D01*
X11383396Y-9223265D02*
X11392920Y-9204217D01*
X11392920Y-9204217D02*
X11411968Y-9194693D01*
X11411968Y-9194693D02*
X11459587Y-9194693D01*
X11459587Y-9194693D02*
X11478634Y-9185170D01*
X11545301Y-9137550D02*
X11621492Y-9137550D01*
X11573873Y-9070884D02*
X11573873Y-9242312D01*
X11573873Y-9242312D02*
X11583396Y-9261360D01*
X11583396Y-9261360D02*
X11602444Y-9270884D01*
X11602444Y-9270884D02*
X11621492Y-9270884D01*
X11764349Y-9261360D02*
X11745301Y-9270884D01*
X11745301Y-9270884D02*
X11707206Y-9270884D01*
X11707206Y-9270884D02*
X11688158Y-9261360D01*
X11688158Y-9261360D02*
X11678634Y-9242312D01*
X11678634Y-9242312D02*
X11678634Y-9166122D01*
X11678634Y-9166122D02*
X11688158Y-9147074D01*
X11688158Y-9147074D02*
X11707206Y-9137550D01*
X11707206Y-9137550D02*
X11745301Y-9137550D01*
X11745301Y-9137550D02*
X11764349Y-9147074D01*
X11764349Y-9147074D02*
X11773873Y-9166122D01*
X11773873Y-9166122D02*
X11773873Y-9185170D01*
X11773873Y-9185170D02*
X11678634Y-9204217D01*
X11945301Y-9270884D02*
X11945301Y-9070884D01*
X11945301Y-9261360D02*
X11926254Y-9270884D01*
X11926254Y-9270884D02*
X11888158Y-9270884D01*
X11888158Y-9270884D02*
X11869111Y-9261360D01*
X11869111Y-9261360D02*
X11859587Y-9251836D01*
X11859587Y-9251836D02*
X11850063Y-9232789D01*
X11850063Y-9232789D02*
X11850063Y-9175646D01*
X11850063Y-9175646D02*
X11859587Y-9156598D01*
X11859587Y-9156598D02*
X11869111Y-9147074D01*
X11869111Y-9147074D02*
X11888158Y-9137550D01*
X11888158Y-9137550D02*
X11926254Y-9137550D01*
X11926254Y-9137550D02*
X11945301Y-9147074D01*
X12021492Y-9347074D02*
X12031015Y-9337550D01*
X12031015Y-9337550D02*
X12050063Y-9308979D01*
X12050063Y-9308979D02*
X12059587Y-9289931D01*
X12059587Y-9289931D02*
X12069111Y-9261360D01*
X12069111Y-9261360D02*
X12078634Y-9213741D01*
X12078634Y-9213741D02*
X12078634Y-9175646D01*
X12078634Y-9175646D02*
X12069111Y-9128027D01*
X12069111Y-9128027D02*
X12059587Y-9099455D01*
X12059587Y-9099455D02*
X12050063Y-9080408D01*
X12050063Y-9080408D02*
X12031015Y-9051836D01*
X12031015Y-9051836D02*
X12021492Y-9042312D01*
X5075000Y-9469400D02*
G75*
G03*
X5075000Y-9469400I-100000J0D01*
G01*
X5421491Y-9427550D02*
X5421491Y-9560884D01*
X5373872Y-9351360D02*
X5326253Y-9494217D01*
X5326253Y-9494217D02*
X5450063Y-9494217D01*
X5526253Y-9541836D02*
X5535777Y-9551360D01*
X5535777Y-9551360D02*
X5526253Y-9560884D01*
X5526253Y-9560884D02*
X5516729Y-9551360D01*
X5516729Y-9551360D02*
X5526253Y-9541836D01*
X5526253Y-9541836D02*
X5526253Y-9560884D01*
X5659586Y-9360884D02*
X5678634Y-9360884D01*
X5678634Y-9360884D02*
X5697682Y-9370408D01*
X5697682Y-9370408D02*
X5707205Y-9379931D01*
X5707205Y-9379931D02*
X5716729Y-9398979D01*
X5716729Y-9398979D02*
X5726253Y-9437074D01*
X5726253Y-9437074D02*
X5726253Y-9484693D01*
X5726253Y-9484693D02*
X5716729Y-9522789D01*
X5716729Y-9522789D02*
X5707205Y-9541836D01*
X5707205Y-9541836D02*
X5697682Y-9551360D01*
X5697682Y-9551360D02*
X5678634Y-9560884D01*
X5678634Y-9560884D02*
X5659586Y-9560884D01*
X5659586Y-9560884D02*
X5640539Y-9551360D01*
X5640539Y-9551360D02*
X5631015Y-9541836D01*
X5631015Y-9541836D02*
X5621491Y-9522789D01*
X5621491Y-9522789D02*
X5611967Y-9484693D01*
X5611967Y-9484693D02*
X5611967Y-9437074D01*
X5611967Y-9437074D02*
X5621491Y-9398979D01*
X5621491Y-9398979D02*
X5631015Y-9379931D01*
X5631015Y-9379931D02*
X5640539Y-9370408D01*
X5640539Y-9370408D02*
X5659586Y-9360884D01*
X5850062Y-9360884D02*
X5869110Y-9360884D01*
X5869110Y-9360884D02*
X5888158Y-9370408D01*
X5888158Y-9370408D02*
X5897682Y-9379931D01*
X5897682Y-9379931D02*
X5907205Y-9398979D01*
X5907205Y-9398979D02*
X5916729Y-9437074D01*
X5916729Y-9437074D02*
X5916729Y-9484693D01*
X5916729Y-9484693D02*
X5907205Y-9522789D01*
X5907205Y-9522789D02*
X5897682Y-9541836D01*
X5897682Y-9541836D02*
X5888158Y-9551360D01*
X5888158Y-9551360D02*
X5869110Y-9560884D01*
X5869110Y-9560884D02*
X5850062Y-9560884D01*
X5850062Y-9560884D02*
X5831015Y-9551360D01*
X5831015Y-9551360D02*
X5821491Y-9541836D01*
X5821491Y-9541836D02*
X5811967Y-9522789D01*
X5811967Y-9522789D02*
X5802443Y-9484693D01*
X5802443Y-9484693D02*
X5802443Y-9437074D01*
X5802443Y-9437074D02*
X5811967Y-9398979D01*
X5811967Y-9398979D02*
X5821491Y-9379931D01*
X5821491Y-9379931D02*
X5831015Y-9370408D01*
X5831015Y-9370408D02*
X5850062Y-9360884D01*
X6040539Y-9360884D02*
X6059586Y-9360884D01*
X6059586Y-9360884D02*
X6078634Y-9370408D01*
X6078634Y-9370408D02*
X6088158Y-9379931D01*
X6088158Y-9379931D02*
X6097682Y-9398979D01*
X6097682Y-9398979D02*
X6107205Y-9437074D01*
X6107205Y-9437074D02*
X6107205Y-9484693D01*
X6107205Y-9484693D02*
X6097682Y-9522789D01*
X6097682Y-9522789D02*
X6088158Y-9541836D01*
X6088158Y-9541836D02*
X6078634Y-9551360D01*
X6078634Y-9551360D02*
X6059586Y-9560884D01*
X6059586Y-9560884D02*
X6040539Y-9560884D01*
X6040539Y-9560884D02*
X6021491Y-9551360D01*
X6021491Y-9551360D02*
X6011967Y-9541836D01*
X6011967Y-9541836D02*
X6002443Y-9522789D01*
X6002443Y-9522789D02*
X5992920Y-9484693D01*
X5992920Y-9484693D02*
X5992920Y-9437074D01*
X5992920Y-9437074D02*
X6002443Y-9398979D01*
X6002443Y-9398979D02*
X6011967Y-9379931D01*
X6011967Y-9379931D02*
X6021491Y-9370408D01*
X6021491Y-9370408D02*
X6040539Y-9360884D01*
X6192920Y-9560884D02*
X6192920Y-9427550D01*
X6192920Y-9446598D02*
X6202443Y-9437074D01*
X6202443Y-9437074D02*
X6221491Y-9427550D01*
X6221491Y-9427550D02*
X6250063Y-9427550D01*
X6250063Y-9427550D02*
X6269110Y-9437074D01*
X6269110Y-9437074D02*
X6278634Y-9456122D01*
X6278634Y-9456122D02*
X6278634Y-9560884D01*
X6278634Y-9456122D02*
X6288158Y-9437074D01*
X6288158Y-9437074D02*
X6307205Y-9427550D01*
X6307205Y-9427550D02*
X6335777Y-9427550D01*
X6335777Y-9427550D02*
X6354824Y-9437074D01*
X6354824Y-9437074D02*
X6364348Y-9456122D01*
X6364348Y-9456122D02*
X6364348Y-9560884D01*
X6459586Y-9560884D02*
X6459586Y-9427550D01*
X6459586Y-9446598D02*
X6469110Y-9437074D01*
X6469110Y-9437074D02*
X6488158Y-9427550D01*
X6488158Y-9427550D02*
X6516729Y-9427550D01*
X6516729Y-9427550D02*
X6535777Y-9437074D01*
X6535777Y-9437074D02*
X6545301Y-9456122D01*
X6545301Y-9456122D02*
X6545301Y-9560884D01*
X6545301Y-9456122D02*
X6554824Y-9437074D01*
X6554824Y-9437074D02*
X6573872Y-9427550D01*
X6573872Y-9427550D02*
X6602443Y-9427550D01*
X6602443Y-9427550D02*
X6621491Y-9437074D01*
X6621491Y-9437074D02*
X6631015Y-9456122D01*
X6631015Y-9456122D02*
X6631015Y-9560884D01*
X7021491Y-9351360D02*
X6850063Y-9608503D01*
X7278634Y-9360884D02*
X7297682Y-9360884D01*
X7297682Y-9360884D02*
X7316729Y-9370408D01*
X7316729Y-9370408D02*
X7326253Y-9379931D01*
X7326253Y-9379931D02*
X7335777Y-9398979D01*
X7335777Y-9398979D02*
X7345301Y-9437074D01*
X7345301Y-9437074D02*
X7345301Y-9484693D01*
X7345301Y-9484693D02*
X7335777Y-9522789D01*
X7335777Y-9522789D02*
X7326253Y-9541836D01*
X7326253Y-9541836D02*
X7316729Y-9551360D01*
X7316729Y-9551360D02*
X7297682Y-9560884D01*
X7297682Y-9560884D02*
X7278634Y-9560884D01*
X7278634Y-9560884D02*
X7259586Y-9551360D01*
X7259586Y-9551360D02*
X7250063Y-9541836D01*
X7250063Y-9541836D02*
X7240539Y-9522789D01*
X7240539Y-9522789D02*
X7231015Y-9484693D01*
X7231015Y-9484693D02*
X7231015Y-9437074D01*
X7231015Y-9437074D02*
X7240539Y-9398979D01*
X7240539Y-9398979D02*
X7250063Y-9379931D01*
X7250063Y-9379931D02*
X7259586Y-9370408D01*
X7259586Y-9370408D02*
X7278634Y-9360884D01*
X7431015Y-9541836D02*
X7440539Y-9551360D01*
X7440539Y-9551360D02*
X7431015Y-9560884D01*
X7431015Y-9560884D02*
X7421491Y-9551360D01*
X7421491Y-9551360D02*
X7431015Y-9541836D01*
X7431015Y-9541836D02*
X7431015Y-9560884D01*
X7631015Y-9560884D02*
X7516729Y-9560884D01*
X7573872Y-9560884D02*
X7573872Y-9360884D01*
X7573872Y-9360884D02*
X7554825Y-9389455D01*
X7554825Y-9389455D02*
X7535777Y-9408503D01*
X7535777Y-9408503D02*
X7516729Y-9418027D01*
X7811967Y-9360884D02*
X7716729Y-9360884D01*
X7716729Y-9360884D02*
X7707206Y-9456122D01*
X7707206Y-9456122D02*
X7716729Y-9446598D01*
X7716729Y-9446598D02*
X7735777Y-9437074D01*
X7735777Y-9437074D02*
X7783396Y-9437074D01*
X7783396Y-9437074D02*
X7802444Y-9446598D01*
X7802444Y-9446598D02*
X7811967Y-9456122D01*
X7811967Y-9456122D02*
X7821491Y-9475170D01*
X7821491Y-9475170D02*
X7821491Y-9522789D01*
X7821491Y-9522789D02*
X7811967Y-9541836D01*
X7811967Y-9541836D02*
X7802444Y-9551360D01*
X7802444Y-9551360D02*
X7783396Y-9560884D01*
X7783396Y-9560884D02*
X7735777Y-9560884D01*
X7735777Y-9560884D02*
X7716729Y-9551360D01*
X7716729Y-9551360D02*
X7707206Y-9541836D01*
X7888158Y-9360884D02*
X8021491Y-9360884D01*
X8021491Y-9360884D02*
X7935777Y-9560884D01*
X8192920Y-9360884D02*
X8097682Y-9360884D01*
X8097682Y-9360884D02*
X8088158Y-9456122D01*
X8088158Y-9456122D02*
X8097682Y-9446598D01*
X8097682Y-9446598D02*
X8116729Y-9437074D01*
X8116729Y-9437074D02*
X8164348Y-9437074D01*
X8164348Y-9437074D02*
X8183396Y-9446598D01*
X8183396Y-9446598D02*
X8192920Y-9456122D01*
X8192920Y-9456122D02*
X8202444Y-9475170D01*
X8202444Y-9475170D02*
X8202444Y-9522789D01*
X8202444Y-9522789D02*
X8192920Y-9541836D01*
X8192920Y-9541836D02*
X8183396Y-9551360D01*
X8183396Y-9551360D02*
X8164348Y-9560884D01*
X8164348Y-9560884D02*
X8116729Y-9560884D01*
X8116729Y-9560884D02*
X8097682Y-9551360D01*
X8097682Y-9551360D02*
X8088158Y-9541836D01*
X8278634Y-9360884D02*
X8278634Y-9398979D01*
X8354825Y-9360884D02*
X8354825Y-9398979D01*
X8650063Y-9637074D02*
X8640539Y-9627550D01*
X8640539Y-9627550D02*
X8621491Y-9598979D01*
X8621491Y-9598979D02*
X8611968Y-9579931D01*
X8611968Y-9579931D02*
X8602444Y-9551360D01*
X8602444Y-9551360D02*
X8592920Y-9503741D01*
X8592920Y-9503741D02*
X8592920Y-9465646D01*
X8592920Y-9465646D02*
X8602444Y-9418027D01*
X8602444Y-9418027D02*
X8611968Y-9389455D01*
X8611968Y-9389455D02*
X8621491Y-9370408D01*
X8621491Y-9370408D02*
X8640539Y-9341836D01*
X8640539Y-9341836D02*
X8650063Y-9332312D01*
X8716730Y-9379931D02*
X8726253Y-9370408D01*
X8726253Y-9370408D02*
X8745301Y-9360884D01*
X8745301Y-9360884D02*
X8792920Y-9360884D01*
X8792920Y-9360884D02*
X8811968Y-9370408D01*
X8811968Y-9370408D02*
X8821491Y-9379931D01*
X8821491Y-9379931D02*
X8831015Y-9398979D01*
X8831015Y-9398979D02*
X8831015Y-9418027D01*
X8831015Y-9418027D02*
X8821491Y-9446598D01*
X8821491Y-9446598D02*
X8707206Y-9560884D01*
X8707206Y-9560884D02*
X8831015Y-9560884D01*
X8945301Y-9446598D02*
X8926253Y-9437074D01*
X8926253Y-9437074D02*
X8916730Y-9427550D01*
X8916730Y-9427550D02*
X8907206Y-9408503D01*
X8907206Y-9408503D02*
X8907206Y-9398979D01*
X8907206Y-9398979D02*
X8916730Y-9379931D01*
X8916730Y-9379931D02*
X8926253Y-9370408D01*
X8926253Y-9370408D02*
X8945301Y-9360884D01*
X8945301Y-9360884D02*
X8983396Y-9360884D01*
X8983396Y-9360884D02*
X9002444Y-9370408D01*
X9002444Y-9370408D02*
X9011968Y-9379931D01*
X9011968Y-9379931D02*
X9021491Y-9398979D01*
X9021491Y-9398979D02*
X9021491Y-9408503D01*
X9021491Y-9408503D02*
X9011968Y-9427550D01*
X9011968Y-9427550D02*
X9002444Y-9437074D01*
X9002444Y-9437074D02*
X8983396Y-9446598D01*
X8983396Y-9446598D02*
X8945301Y-9446598D01*
X8945301Y-9446598D02*
X8926253Y-9456122D01*
X8926253Y-9456122D02*
X8916730Y-9465646D01*
X8916730Y-9465646D02*
X8907206Y-9484693D01*
X8907206Y-9484693D02*
X8907206Y-9522789D01*
X8907206Y-9522789D02*
X8916730Y-9541836D01*
X8916730Y-9541836D02*
X8926253Y-9551360D01*
X8926253Y-9551360D02*
X8945301Y-9560884D01*
X8945301Y-9560884D02*
X8983396Y-9560884D01*
X8983396Y-9560884D02*
X9002444Y-9551360D01*
X9002444Y-9551360D02*
X9011968Y-9541836D01*
X9011968Y-9541836D02*
X9021491Y-9522789D01*
X9021491Y-9522789D02*
X9021491Y-9484693D01*
X9021491Y-9484693D02*
X9011968Y-9465646D01*
X9011968Y-9465646D02*
X9002444Y-9456122D01*
X9002444Y-9456122D02*
X8983396Y-9446598D01*
X9259587Y-9560884D02*
X9259587Y-9360884D01*
X9345301Y-9560884D02*
X9345301Y-9456122D01*
X9345301Y-9456122D02*
X9335777Y-9437074D01*
X9335777Y-9437074D02*
X9316730Y-9427550D01*
X9316730Y-9427550D02*
X9288158Y-9427550D01*
X9288158Y-9427550D02*
X9269111Y-9437074D01*
X9269111Y-9437074D02*
X9259587Y-9446598D01*
X9469111Y-9560884D02*
X9450063Y-9551360D01*
X9450063Y-9551360D02*
X9440539Y-9541836D01*
X9440539Y-9541836D02*
X9431015Y-9522789D01*
X9431015Y-9522789D02*
X9431015Y-9465646D01*
X9431015Y-9465646D02*
X9440539Y-9446598D01*
X9440539Y-9446598D02*
X9450063Y-9437074D01*
X9450063Y-9437074D02*
X9469111Y-9427550D01*
X9469111Y-9427550D02*
X9497682Y-9427550D01*
X9497682Y-9427550D02*
X9516730Y-9437074D01*
X9516730Y-9437074D02*
X9526253Y-9446598D01*
X9526253Y-9446598D02*
X9535777Y-9465646D01*
X9535777Y-9465646D02*
X9535777Y-9522789D01*
X9535777Y-9522789D02*
X9526253Y-9541836D01*
X9526253Y-9541836D02*
X9516730Y-9551360D01*
X9516730Y-9551360D02*
X9497682Y-9560884D01*
X9497682Y-9560884D02*
X9469111Y-9560884D01*
X9650063Y-9560884D02*
X9631015Y-9551360D01*
X9631015Y-9551360D02*
X9621492Y-9532312D01*
X9621492Y-9532312D02*
X9621492Y-9360884D01*
X9802444Y-9551360D02*
X9783396Y-9560884D01*
X9783396Y-9560884D02*
X9745301Y-9560884D01*
X9745301Y-9560884D02*
X9726253Y-9551360D01*
X9726253Y-9551360D02*
X9716730Y-9532312D01*
X9716730Y-9532312D02*
X9716730Y-9456122D01*
X9716730Y-9456122D02*
X9726253Y-9437074D01*
X9726253Y-9437074D02*
X9745301Y-9427550D01*
X9745301Y-9427550D02*
X9783396Y-9427550D01*
X9783396Y-9427550D02*
X9802444Y-9437074D01*
X9802444Y-9437074D02*
X9811968Y-9456122D01*
X9811968Y-9456122D02*
X9811968Y-9475170D01*
X9811968Y-9475170D02*
X9716730Y-9494217D01*
X9888158Y-9551360D02*
X9907206Y-9560884D01*
X9907206Y-9560884D02*
X9945301Y-9560884D01*
X9945301Y-9560884D02*
X9964349Y-9551360D01*
X9964349Y-9551360D02*
X9973873Y-9532312D01*
X9973873Y-9532312D02*
X9973873Y-9522789D01*
X9973873Y-9522789D02*
X9964349Y-9503741D01*
X9964349Y-9503741D02*
X9945301Y-9494217D01*
X9945301Y-9494217D02*
X9916730Y-9494217D01*
X9916730Y-9494217D02*
X9897682Y-9484693D01*
X9897682Y-9484693D02*
X9888158Y-9465646D01*
X9888158Y-9465646D02*
X9888158Y-9456122D01*
X9888158Y-9456122D02*
X9897682Y-9437074D01*
X9897682Y-9437074D02*
X9916730Y-9427550D01*
X9916730Y-9427550D02*
X9945301Y-9427550D01*
X9945301Y-9427550D02*
X9964349Y-9437074D01*
X10040539Y-9637074D02*
X10050063Y-9627550D01*
X10050063Y-9627550D02*
X10069111Y-9598979D01*
X10069111Y-9598979D02*
X10078634Y-9579931D01*
X10078634Y-9579931D02*
X10088158Y-9551360D01*
X10088158Y-9551360D02*
X10097682Y-9503741D01*
X10097682Y-9503741D02*
X10097682Y-9465646D01*
X10097682Y-9465646D02*
X10088158Y-9418027D01*
X10088158Y-9418027D02*
X10078634Y-9389455D01*
X10078634Y-9389455D02*
X10069111Y-9370408D01*
X10069111Y-9370408D02*
X10050063Y-9341836D01*
X10050063Y-9341836D02*
X10040539Y-9332312D01*
X10402444Y-9637074D02*
X10392920Y-9627550D01*
X10392920Y-9627550D02*
X10373873Y-9598979D01*
X10373873Y-9598979D02*
X10364349Y-9579931D01*
X10364349Y-9579931D02*
X10354825Y-9551360D01*
X10354825Y-9551360D02*
X10345301Y-9503741D01*
X10345301Y-9503741D02*
X10345301Y-9465646D01*
X10345301Y-9465646D02*
X10354825Y-9418027D01*
X10354825Y-9418027D02*
X10364349Y-9389455D01*
X10364349Y-9389455D02*
X10373873Y-9370408D01*
X10373873Y-9370408D02*
X10392920Y-9341836D01*
X10392920Y-9341836D02*
X10402444Y-9332312D01*
X10478634Y-9427550D02*
X10478634Y-9560884D01*
X10478634Y-9446598D02*
X10488158Y-9437074D01*
X10488158Y-9437074D02*
X10507206Y-9427550D01*
X10507206Y-9427550D02*
X10535777Y-9427550D01*
X10535777Y-9427550D02*
X10554825Y-9437074D01*
X10554825Y-9437074D02*
X10564349Y-9456122D01*
X10564349Y-9456122D02*
X10564349Y-9560884D01*
X10688158Y-9560884D02*
X10669111Y-9551360D01*
X10669111Y-9551360D02*
X10659587Y-9541836D01*
X10659587Y-9541836D02*
X10650063Y-9522789D01*
X10650063Y-9522789D02*
X10650063Y-9465646D01*
X10650063Y-9465646D02*
X10659587Y-9446598D01*
X10659587Y-9446598D02*
X10669111Y-9437074D01*
X10669111Y-9437074D02*
X10688158Y-9427550D01*
X10688158Y-9427550D02*
X10716730Y-9427550D01*
X10716730Y-9427550D02*
X10735777Y-9437074D01*
X10735777Y-9437074D02*
X10745301Y-9446598D01*
X10745301Y-9446598D02*
X10754825Y-9465646D01*
X10754825Y-9465646D02*
X10754825Y-9522789D01*
X10754825Y-9522789D02*
X10745301Y-9541836D01*
X10745301Y-9541836D02*
X10735777Y-9551360D01*
X10735777Y-9551360D02*
X10716730Y-9560884D01*
X10716730Y-9560884D02*
X10688158Y-9560884D01*
X10811968Y-9427550D02*
X10888158Y-9427550D01*
X10840539Y-9360884D02*
X10840539Y-9532312D01*
X10840539Y-9532312D02*
X10850063Y-9551360D01*
X10850063Y-9551360D02*
X10869111Y-9560884D01*
X10869111Y-9560884D02*
X10888158Y-9560884D01*
X11107206Y-9427550D02*
X11107206Y-9627550D01*
X11107206Y-9437074D02*
X11126254Y-9427550D01*
X11126254Y-9427550D02*
X11164349Y-9427550D01*
X11164349Y-9427550D02*
X11183396Y-9437074D01*
X11183396Y-9437074D02*
X11192920Y-9446598D01*
X11192920Y-9446598D02*
X11202444Y-9465646D01*
X11202444Y-9465646D02*
X11202444Y-9522789D01*
X11202444Y-9522789D02*
X11192920Y-9541836D01*
X11192920Y-9541836D02*
X11183396Y-9551360D01*
X11183396Y-9551360D02*
X11164349Y-9560884D01*
X11164349Y-9560884D02*
X11126254Y-9560884D01*
X11126254Y-9560884D02*
X11107206Y-9551360D01*
X11316730Y-9560884D02*
X11297682Y-9551360D01*
X11297682Y-9551360D02*
X11288158Y-9532312D01*
X11288158Y-9532312D02*
X11288158Y-9360884D01*
X11478634Y-9560884D02*
X11478634Y-9456122D01*
X11478634Y-9456122D02*
X11469111Y-9437074D01*
X11469111Y-9437074D02*
X11450063Y-9427550D01*
X11450063Y-9427550D02*
X11411968Y-9427550D01*
X11411968Y-9427550D02*
X11392920Y-9437074D01*
X11478634Y-9551360D02*
X11459587Y-9560884D01*
X11459587Y-9560884D02*
X11411968Y-9560884D01*
X11411968Y-9560884D02*
X11392920Y-9551360D01*
X11392920Y-9551360D02*
X11383396Y-9532312D01*
X11383396Y-9532312D02*
X11383396Y-9513265D01*
X11383396Y-9513265D02*
X11392920Y-9494217D01*
X11392920Y-9494217D02*
X11411968Y-9484693D01*
X11411968Y-9484693D02*
X11459587Y-9484693D01*
X11459587Y-9484693D02*
X11478634Y-9475170D01*
X11545301Y-9427550D02*
X11621492Y-9427550D01*
X11573873Y-9360884D02*
X11573873Y-9532312D01*
X11573873Y-9532312D02*
X11583396Y-9551360D01*
X11583396Y-9551360D02*
X11602444Y-9560884D01*
X11602444Y-9560884D02*
X11621492Y-9560884D01*
X11764349Y-9551360D02*
X11745301Y-9560884D01*
X11745301Y-9560884D02*
X11707206Y-9560884D01*
X11707206Y-9560884D02*
X11688158Y-9551360D01*
X11688158Y-9551360D02*
X11678634Y-9532312D01*
X11678634Y-9532312D02*
X11678634Y-9456122D01*
X11678634Y-9456122D02*
X11688158Y-9437074D01*
X11688158Y-9437074D02*
X11707206Y-9427550D01*
X11707206Y-9427550D02*
X11745301Y-9427550D01*
X11745301Y-9427550D02*
X11764349Y-9437074D01*
X11764349Y-9437074D02*
X11773873Y-9456122D01*
X11773873Y-9456122D02*
X11773873Y-9475170D01*
X11773873Y-9475170D02*
X11678634Y-9494217D01*
X11945301Y-9560884D02*
X11945301Y-9360884D01*
X11945301Y-9551360D02*
X11926254Y-9560884D01*
X11926254Y-9560884D02*
X11888158Y-9560884D01*
X11888158Y-9560884D02*
X11869111Y-9551360D01*
X11869111Y-9551360D02*
X11859587Y-9541836D01*
X11859587Y-9541836D02*
X11850063Y-9522789D01*
X11850063Y-9522789D02*
X11850063Y-9465646D01*
X11850063Y-9465646D02*
X11859587Y-9446598D01*
X11859587Y-9446598D02*
X11869111Y-9437074D01*
X11869111Y-9437074D02*
X11888158Y-9427550D01*
X11888158Y-9427550D02*
X11926254Y-9427550D01*
X11926254Y-9427550D02*
X11945301Y-9437074D01*
X12021492Y-9637074D02*
X12031015Y-9627550D01*
X12031015Y-9627550D02*
X12050063Y-9598979D01*
X12050063Y-9598979D02*
X12059587Y-9579931D01*
X12059587Y-9579931D02*
X12069111Y-9551360D01*
X12069111Y-9551360D02*
X12078634Y-9503741D01*
X12078634Y-9503741D02*
X12078634Y-9465646D01*
X12078634Y-9465646D02*
X12069111Y-9418027D01*
X12069111Y-9418027D02*
X12059587Y-9389455D01*
X12059587Y-9389455D02*
X12050063Y-9370408D01*
X12050063Y-9370408D02*
X12031015Y-9341836D01*
X12031015Y-9341836D02*
X12021492Y-9332312D01*
M02*
