%TF.GenerationSoftware,KiCad,Pcbnew,7.0.7*%
%TF.CreationDate,2023-08-31T12:53:35+10:00*%
%TF.ProjectId,qaz,71617a2e-6b69-4636-9164-5f7063625858,rev?*%
%TF.SameCoordinates,Original*%
%TF.FileFunction,Drillmap*%
%TF.FilePolarity,Positive*%
%FSLAX45Y45*%
G04 Gerber Fmt 4.5, Leading zero omitted, Abs format (unit mm)*
G04 Created by KiCad (PCBNEW 7.0.7) date 2023-08-31 12:53:35*
%MOMM*%
%LPD*%
G01*
G04 APERTURE LIST*
%ADD10C,0.100000*%
%ADD11C,0.200000*%
%ADD12C,0.040000*%
%ADD13C,0.150000*%
%ADD14C,0.220000*%
G04 APERTURE END LIST*
D10*
X27440187Y-3454400D02*
X27440187Y-7899400D01*
X5080000Y-7899400D02*
G75*
G03*
X5715000Y-8534400I635000J0D01*
G01*
X27440190Y-3454400D02*
G75*
G03*
X26805187Y-2819400I-635000J0D01*
G01*
X5080000Y-7899400D02*
X5080000Y-3454400D01*
X5715000Y-2819400D02*
X26805187Y-2819400D01*
X5715000Y-2819400D02*
G75*
G03*
X5080000Y-3454400I0J-635000D01*
G01*
X26805187Y-8534397D02*
G75*
G03*
X27440187Y-7899400I3J634997D01*
G01*
X26805187Y-8534400D02*
X5715000Y-8534400D01*
D11*
D12*
X23555000Y-5475350D02*
X23595000Y-5515350D01*
X23595000Y-5475350D02*
X23555000Y-5515350D01*
X24030000Y-4178350D02*
X24070000Y-4218350D01*
X24070000Y-4178350D02*
X24030000Y-4218350D01*
X24122270Y-4223350D02*
X24162270Y-4263350D01*
X24162270Y-4223350D02*
X24122270Y-4263350D01*
X25151400Y-4221800D02*
X25191400Y-4261800D01*
X25191400Y-4221800D02*
X25151400Y-4261800D01*
X25255000Y-5530000D02*
X25295000Y-5570000D01*
X25295000Y-5530000D02*
X25255000Y-5570000D01*
X26573800Y-3967800D02*
X26613800Y-4007800D01*
X26613800Y-3967800D02*
X26573800Y-4007800D01*
D10*
X25458500Y-6730500D02*
G75*
G03*
X25458500Y-6730500I-50000J0D01*
G01*
X25712500Y-6730500D02*
G75*
G03*
X25712500Y-6730500I-50000J0D01*
G01*
X25966500Y-6730500D02*
G75*
G03*
X25966500Y-6730500I-50000J0D01*
G01*
X26220500Y-6730500D02*
G75*
G03*
X26220500Y-6730500I-50000J0D01*
G01*
D13*
X6286500Y-3442900D02*
X6286500Y-3592900D01*
X6211500Y-3517900D02*
X6361500Y-3517900D01*
X6524625Y-5347900D02*
X6524625Y-5497900D01*
X6449625Y-5422900D02*
X6599625Y-5422900D01*
X6762750Y-7252900D02*
X6762750Y-7402900D01*
X6687750Y-7327900D02*
X6837750Y-7327900D01*
X6921500Y-3188900D02*
X6921500Y-3338900D01*
X6846500Y-3263900D02*
X6996500Y-3263900D01*
X7159625Y-5093900D02*
X7159625Y-5243900D01*
X7084625Y-5168900D02*
X7234625Y-5168900D01*
X7397750Y-6998900D02*
X7397750Y-7148900D01*
X7322750Y-7073900D02*
X7472750Y-7073900D01*
X8191500Y-3442900D02*
X8191500Y-3592900D01*
X8116500Y-3517900D02*
X8266500Y-3517900D01*
X8667750Y-5347900D02*
X8667750Y-5497900D01*
X8592750Y-5422900D02*
X8742750Y-5422900D01*
X8826500Y-3188900D02*
X8826500Y-3338900D01*
X8751500Y-3263900D02*
X8901500Y-3263900D01*
X9144000Y-7252900D02*
X9144000Y-7402900D01*
X9069000Y-7327900D02*
X9219000Y-7327900D01*
X9302750Y-5093900D02*
X9302750Y-5243900D01*
X9227750Y-5168900D02*
X9377750Y-5168900D01*
X9779000Y-6998900D02*
X9779000Y-7148900D01*
X9704000Y-7073900D02*
X9854000Y-7073900D01*
X10096500Y-3442900D02*
X10096500Y-3592900D01*
X10021500Y-3517900D02*
X10171500Y-3517900D01*
X10572750Y-5347900D02*
X10572750Y-5497900D01*
X10497750Y-5422900D02*
X10647750Y-5422900D01*
X10731500Y-3188900D02*
X10731500Y-3338900D01*
X10656500Y-3263900D02*
X10806500Y-3263900D01*
X11049000Y-7252900D02*
X11049000Y-7402900D01*
X10974000Y-7327900D02*
X11124000Y-7327900D01*
X11207750Y-5093900D02*
X11207750Y-5243900D01*
X11132750Y-5168900D02*
X11282750Y-5168900D01*
X11684000Y-6998900D02*
X11684000Y-7148900D01*
X11609000Y-7073900D02*
X11759000Y-7073900D01*
X12001500Y-3442900D02*
X12001500Y-3592900D01*
X11926500Y-3517900D02*
X12076500Y-3517900D01*
X12477750Y-5347900D02*
X12477750Y-5497900D01*
X12402750Y-5422900D02*
X12552750Y-5422900D01*
X12636500Y-3188900D02*
X12636500Y-3338900D01*
X12561500Y-3263900D02*
X12711500Y-3263900D01*
X12954000Y-7252900D02*
X12954000Y-7402900D01*
X12879000Y-7327900D02*
X13029000Y-7327900D01*
X13112750Y-5093900D02*
X13112750Y-5243900D01*
X13037750Y-5168900D02*
X13187750Y-5168900D01*
X13589000Y-6998900D02*
X13589000Y-7148900D01*
X13514000Y-7073900D02*
X13664000Y-7073900D01*
X13906500Y-3442900D02*
X13906500Y-3592900D01*
X13831500Y-3517900D02*
X13981500Y-3517900D01*
X14382750Y-5347900D02*
X14382750Y-5497900D01*
X14307750Y-5422900D02*
X14457750Y-5422900D01*
X14541500Y-3188900D02*
X14541500Y-3338900D01*
X14466500Y-3263900D02*
X14616500Y-3263900D01*
X15017750Y-5093900D02*
X15017750Y-5243900D01*
X14942750Y-5168900D02*
X15092750Y-5168900D01*
X15335250Y-7252900D02*
X15335250Y-7402900D01*
X15260250Y-7327900D02*
X15410250Y-7327900D01*
X15811500Y-3442900D02*
X15811500Y-3592900D01*
X15736500Y-3517900D02*
X15886500Y-3517900D01*
X15970250Y-6998900D02*
X15970250Y-7148900D01*
X15895250Y-7073900D02*
X16045250Y-7073900D01*
X16287750Y-5347900D02*
X16287750Y-5497900D01*
X16212750Y-5422900D02*
X16362750Y-5422900D01*
X16446500Y-3188900D02*
X16446500Y-3338900D01*
X16371500Y-3263900D02*
X16521500Y-3263900D01*
X16922750Y-5093900D02*
X16922750Y-5243900D01*
X16847750Y-5168900D02*
X16997750Y-5168900D01*
X17716500Y-3442900D02*
X17716500Y-3592900D01*
X17641500Y-3517900D02*
X17791500Y-3517900D01*
X17716500Y-7252900D02*
X17716500Y-7402900D01*
X17641500Y-7327900D02*
X17791500Y-7327900D01*
X18192750Y-5347900D02*
X18192750Y-5497900D01*
X18117750Y-5422900D02*
X18267750Y-5422900D01*
X18351500Y-3188900D02*
X18351500Y-3338900D01*
X18276500Y-3263900D02*
X18426500Y-3263900D01*
X18351500Y-6998900D02*
X18351500Y-7148900D01*
X18276500Y-7073900D02*
X18426500Y-7073900D01*
X18827750Y-5093900D02*
X18827750Y-5243900D01*
X18752750Y-5168900D02*
X18902750Y-5168900D01*
X19621500Y-3442900D02*
X19621500Y-3592900D01*
X19546500Y-3517900D02*
X19696500Y-3517900D01*
X19621500Y-7252900D02*
X19621500Y-7402900D01*
X19546500Y-7327900D02*
X19696500Y-7327900D01*
X20097750Y-5347900D02*
X20097750Y-5497900D01*
X20022750Y-5422900D02*
X20172750Y-5422900D01*
X20256500Y-3188900D02*
X20256500Y-3338900D01*
X20181500Y-3263900D02*
X20331500Y-3263900D01*
X20256500Y-6998900D02*
X20256500Y-7148900D01*
X20181500Y-7073900D02*
X20331500Y-7073900D01*
X20732750Y-5093900D02*
X20732750Y-5243900D01*
X20657750Y-5168900D02*
X20807750Y-5168900D01*
X21526500Y-3442900D02*
X21526500Y-3592900D01*
X21451500Y-3517900D02*
X21601500Y-3517900D01*
X21526500Y-7252900D02*
X21526500Y-7402900D01*
X21451500Y-7327900D02*
X21601500Y-7327900D01*
X22161500Y-3188900D02*
X22161500Y-3338900D01*
X22086500Y-3263900D02*
X22236500Y-3263900D01*
X22161500Y-6998900D02*
X22161500Y-7148900D01*
X22086500Y-7073900D02*
X22236500Y-7073900D01*
X22717125Y-5347900D02*
X22717125Y-5497900D01*
X22642125Y-5422900D02*
X22792125Y-5422900D01*
X23352125Y-5093900D02*
X23352125Y-5243900D01*
X23277125Y-5168900D02*
X23427125Y-5168900D01*
X23431500Y-3442900D02*
X23431500Y-3592900D01*
X23356500Y-3517900D02*
X23506500Y-3517900D01*
X23431500Y-7252900D02*
X23431500Y-7402900D01*
X23356500Y-7327900D02*
X23506500Y-7327900D01*
X24066500Y-3188900D02*
X24066500Y-3338900D01*
X23991500Y-3263900D02*
X24141500Y-3263900D01*
X24066500Y-6998900D02*
X24066500Y-7148900D01*
X23991500Y-7073900D02*
X24141500Y-7073900D01*
D14*
X5475283Y-4167182D02*
X5475283Y-4011617D01*
X5319718Y-4011617D01*
X5319718Y-4167182D01*
X5475283Y-4167182D01*
X5475283Y-7342182D02*
X5475283Y-7186617D01*
X5319718Y-7186617D01*
X5319718Y-7342182D01*
X5475283Y-7342182D01*
X27202782Y-4152782D02*
X27202782Y-3997217D01*
X27047217Y-3997217D01*
X27047217Y-4152782D01*
X27202782Y-4152782D01*
X27202782Y-7327782D02*
X27202782Y-7172217D01*
X27047217Y-7172217D01*
X27047217Y-7327782D01*
X27202782Y-7327782D01*
D11*
X5335777Y-8850884D02*
X5335777Y-8650884D01*
X5335777Y-8650884D02*
X5383396Y-8650884D01*
X5383396Y-8650884D02*
X5411967Y-8660408D01*
X5411967Y-8660408D02*
X5431015Y-8679455D01*
X5431015Y-8679455D02*
X5440539Y-8698503D01*
X5440539Y-8698503D02*
X5450063Y-8736598D01*
X5450063Y-8736598D02*
X5450063Y-8765170D01*
X5450063Y-8765170D02*
X5440539Y-8803265D01*
X5440539Y-8803265D02*
X5431015Y-8822312D01*
X5431015Y-8822312D02*
X5411967Y-8841360D01*
X5411967Y-8841360D02*
X5383396Y-8850884D01*
X5383396Y-8850884D02*
X5335777Y-8850884D01*
X5535777Y-8850884D02*
X5535777Y-8717550D01*
X5535777Y-8755646D02*
X5545301Y-8736598D01*
X5545301Y-8736598D02*
X5554824Y-8727074D01*
X5554824Y-8727074D02*
X5573872Y-8717550D01*
X5573872Y-8717550D02*
X5592920Y-8717550D01*
X5659586Y-8850884D02*
X5659586Y-8717550D01*
X5659586Y-8650884D02*
X5650062Y-8660408D01*
X5650062Y-8660408D02*
X5659586Y-8669931D01*
X5659586Y-8669931D02*
X5669110Y-8660408D01*
X5669110Y-8660408D02*
X5659586Y-8650884D01*
X5659586Y-8650884D02*
X5659586Y-8669931D01*
X5783396Y-8850884D02*
X5764348Y-8841360D01*
X5764348Y-8841360D02*
X5754824Y-8822312D01*
X5754824Y-8822312D02*
X5754824Y-8650884D01*
X5888158Y-8850884D02*
X5869110Y-8841360D01*
X5869110Y-8841360D02*
X5859586Y-8822312D01*
X5859586Y-8822312D02*
X5859586Y-8650884D01*
X6116729Y-8850884D02*
X6116729Y-8650884D01*
X6116729Y-8650884D02*
X6183396Y-8793741D01*
X6183396Y-8793741D02*
X6250062Y-8650884D01*
X6250062Y-8650884D02*
X6250062Y-8850884D01*
X6431015Y-8850884D02*
X6431015Y-8746122D01*
X6431015Y-8746122D02*
X6421491Y-8727074D01*
X6421491Y-8727074D02*
X6402443Y-8717550D01*
X6402443Y-8717550D02*
X6364348Y-8717550D01*
X6364348Y-8717550D02*
X6345301Y-8727074D01*
X6431015Y-8841360D02*
X6411967Y-8850884D01*
X6411967Y-8850884D02*
X6364348Y-8850884D01*
X6364348Y-8850884D02*
X6345301Y-8841360D01*
X6345301Y-8841360D02*
X6335777Y-8822312D01*
X6335777Y-8822312D02*
X6335777Y-8803265D01*
X6335777Y-8803265D02*
X6345301Y-8784217D01*
X6345301Y-8784217D02*
X6364348Y-8774693D01*
X6364348Y-8774693D02*
X6411967Y-8774693D01*
X6411967Y-8774693D02*
X6431015Y-8765170D01*
X6526253Y-8717550D02*
X6526253Y-8917550D01*
X6526253Y-8727074D02*
X6545301Y-8717550D01*
X6545301Y-8717550D02*
X6583396Y-8717550D01*
X6583396Y-8717550D02*
X6602443Y-8727074D01*
X6602443Y-8727074D02*
X6611967Y-8736598D01*
X6611967Y-8736598D02*
X6621491Y-8755646D01*
X6621491Y-8755646D02*
X6621491Y-8812789D01*
X6621491Y-8812789D02*
X6611967Y-8831836D01*
X6611967Y-8831836D02*
X6602443Y-8841360D01*
X6602443Y-8841360D02*
X6583396Y-8850884D01*
X6583396Y-8850884D02*
X6545301Y-8850884D01*
X6545301Y-8850884D02*
X6526253Y-8841360D01*
X6707205Y-8831836D02*
X6716729Y-8841360D01*
X6716729Y-8841360D02*
X6707205Y-8850884D01*
X6707205Y-8850884D02*
X6697682Y-8841360D01*
X6697682Y-8841360D02*
X6707205Y-8831836D01*
X6707205Y-8831836D02*
X6707205Y-8850884D01*
X6707205Y-8727074D02*
X6716729Y-8736598D01*
X6716729Y-8736598D02*
X6707205Y-8746122D01*
X6707205Y-8746122D02*
X6697682Y-8736598D01*
X6697682Y-8736598D02*
X6707205Y-8727074D01*
X6707205Y-8727074D02*
X6707205Y-8746122D01*
D12*
X5035000Y-9159400D02*
X5075000Y-9199400D01*
X5075000Y-9159400D02*
X5035000Y-9199400D01*
D11*
X5373872Y-9070884D02*
X5392920Y-9070884D01*
X5392920Y-9070884D02*
X5411967Y-9080408D01*
X5411967Y-9080408D02*
X5421491Y-9089931D01*
X5421491Y-9089931D02*
X5431015Y-9108979D01*
X5431015Y-9108979D02*
X5440539Y-9147074D01*
X5440539Y-9147074D02*
X5440539Y-9194693D01*
X5440539Y-9194693D02*
X5431015Y-9232789D01*
X5431015Y-9232789D02*
X5421491Y-9251836D01*
X5421491Y-9251836D02*
X5411967Y-9261360D01*
X5411967Y-9261360D02*
X5392920Y-9270884D01*
X5392920Y-9270884D02*
X5373872Y-9270884D01*
X5373872Y-9270884D02*
X5354824Y-9261360D01*
X5354824Y-9261360D02*
X5345301Y-9251836D01*
X5345301Y-9251836D02*
X5335777Y-9232789D01*
X5335777Y-9232789D02*
X5326253Y-9194693D01*
X5326253Y-9194693D02*
X5326253Y-9147074D01*
X5326253Y-9147074D02*
X5335777Y-9108979D01*
X5335777Y-9108979D02*
X5345301Y-9089931D01*
X5345301Y-9089931D02*
X5354824Y-9080408D01*
X5354824Y-9080408D02*
X5373872Y-9070884D01*
X5526253Y-9251836D02*
X5535777Y-9261360D01*
X5535777Y-9261360D02*
X5526253Y-9270884D01*
X5526253Y-9270884D02*
X5516729Y-9261360D01*
X5516729Y-9261360D02*
X5526253Y-9251836D01*
X5526253Y-9251836D02*
X5526253Y-9270884D01*
X5707205Y-9137550D02*
X5707205Y-9270884D01*
X5659586Y-9061360D02*
X5611967Y-9204217D01*
X5611967Y-9204217D02*
X5735777Y-9204217D01*
X5850062Y-9070884D02*
X5869110Y-9070884D01*
X5869110Y-9070884D02*
X5888158Y-9080408D01*
X5888158Y-9080408D02*
X5897682Y-9089931D01*
X5897682Y-9089931D02*
X5907205Y-9108979D01*
X5907205Y-9108979D02*
X5916729Y-9147074D01*
X5916729Y-9147074D02*
X5916729Y-9194693D01*
X5916729Y-9194693D02*
X5907205Y-9232789D01*
X5907205Y-9232789D02*
X5897682Y-9251836D01*
X5897682Y-9251836D02*
X5888158Y-9261360D01*
X5888158Y-9261360D02*
X5869110Y-9270884D01*
X5869110Y-9270884D02*
X5850062Y-9270884D01*
X5850062Y-9270884D02*
X5831015Y-9261360D01*
X5831015Y-9261360D02*
X5821491Y-9251836D01*
X5821491Y-9251836D02*
X5811967Y-9232789D01*
X5811967Y-9232789D02*
X5802443Y-9194693D01*
X5802443Y-9194693D02*
X5802443Y-9147074D01*
X5802443Y-9147074D02*
X5811967Y-9108979D01*
X5811967Y-9108979D02*
X5821491Y-9089931D01*
X5821491Y-9089931D02*
X5831015Y-9080408D01*
X5831015Y-9080408D02*
X5850062Y-9070884D01*
X6040539Y-9070884D02*
X6059586Y-9070884D01*
X6059586Y-9070884D02*
X6078634Y-9080408D01*
X6078634Y-9080408D02*
X6088158Y-9089931D01*
X6088158Y-9089931D02*
X6097682Y-9108979D01*
X6097682Y-9108979D02*
X6107205Y-9147074D01*
X6107205Y-9147074D02*
X6107205Y-9194693D01*
X6107205Y-9194693D02*
X6097682Y-9232789D01*
X6097682Y-9232789D02*
X6088158Y-9251836D01*
X6088158Y-9251836D02*
X6078634Y-9261360D01*
X6078634Y-9261360D02*
X6059586Y-9270884D01*
X6059586Y-9270884D02*
X6040539Y-9270884D01*
X6040539Y-9270884D02*
X6021491Y-9261360D01*
X6021491Y-9261360D02*
X6011967Y-9251836D01*
X6011967Y-9251836D02*
X6002443Y-9232789D01*
X6002443Y-9232789D02*
X5992920Y-9194693D01*
X5992920Y-9194693D02*
X5992920Y-9147074D01*
X5992920Y-9147074D02*
X6002443Y-9108979D01*
X6002443Y-9108979D02*
X6011967Y-9089931D01*
X6011967Y-9089931D02*
X6021491Y-9080408D01*
X6021491Y-9080408D02*
X6040539Y-9070884D01*
X6192920Y-9270884D02*
X6192920Y-9137550D01*
X6192920Y-9156598D02*
X6202443Y-9147074D01*
X6202443Y-9147074D02*
X6221491Y-9137550D01*
X6221491Y-9137550D02*
X6250063Y-9137550D01*
X6250063Y-9137550D02*
X6269110Y-9147074D01*
X6269110Y-9147074D02*
X6278634Y-9166122D01*
X6278634Y-9166122D02*
X6278634Y-9270884D01*
X6278634Y-9166122D02*
X6288158Y-9147074D01*
X6288158Y-9147074D02*
X6307205Y-9137550D01*
X6307205Y-9137550D02*
X6335777Y-9137550D01*
X6335777Y-9137550D02*
X6354824Y-9147074D01*
X6354824Y-9147074D02*
X6364348Y-9166122D01*
X6364348Y-9166122D02*
X6364348Y-9270884D01*
X6459586Y-9270884D02*
X6459586Y-9137550D01*
X6459586Y-9156598D02*
X6469110Y-9147074D01*
X6469110Y-9147074D02*
X6488158Y-9137550D01*
X6488158Y-9137550D02*
X6516729Y-9137550D01*
X6516729Y-9137550D02*
X6535777Y-9147074D01*
X6535777Y-9147074D02*
X6545301Y-9166122D01*
X6545301Y-9166122D02*
X6545301Y-9270884D01*
X6545301Y-9166122D02*
X6554824Y-9147074D01*
X6554824Y-9147074D02*
X6573872Y-9137550D01*
X6573872Y-9137550D02*
X6602443Y-9137550D01*
X6602443Y-9137550D02*
X6621491Y-9147074D01*
X6621491Y-9147074D02*
X6631015Y-9166122D01*
X6631015Y-9166122D02*
X6631015Y-9270884D01*
X7021491Y-9061360D02*
X6850063Y-9318503D01*
X7278634Y-9070884D02*
X7297682Y-9070884D01*
X7297682Y-9070884D02*
X7316729Y-9080408D01*
X7316729Y-9080408D02*
X7326253Y-9089931D01*
X7326253Y-9089931D02*
X7335777Y-9108979D01*
X7335777Y-9108979D02*
X7345301Y-9147074D01*
X7345301Y-9147074D02*
X7345301Y-9194693D01*
X7345301Y-9194693D02*
X7335777Y-9232789D01*
X7335777Y-9232789D02*
X7326253Y-9251836D01*
X7326253Y-9251836D02*
X7316729Y-9261360D01*
X7316729Y-9261360D02*
X7297682Y-9270884D01*
X7297682Y-9270884D02*
X7278634Y-9270884D01*
X7278634Y-9270884D02*
X7259586Y-9261360D01*
X7259586Y-9261360D02*
X7250063Y-9251836D01*
X7250063Y-9251836D02*
X7240539Y-9232789D01*
X7240539Y-9232789D02*
X7231015Y-9194693D01*
X7231015Y-9194693D02*
X7231015Y-9147074D01*
X7231015Y-9147074D02*
X7240539Y-9108979D01*
X7240539Y-9108979D02*
X7250063Y-9089931D01*
X7250063Y-9089931D02*
X7259586Y-9080408D01*
X7259586Y-9080408D02*
X7278634Y-9070884D01*
X7431015Y-9251836D02*
X7440539Y-9261360D01*
X7440539Y-9261360D02*
X7431015Y-9270884D01*
X7431015Y-9270884D02*
X7421491Y-9261360D01*
X7421491Y-9261360D02*
X7431015Y-9251836D01*
X7431015Y-9251836D02*
X7431015Y-9270884D01*
X7564348Y-9070884D02*
X7583396Y-9070884D01*
X7583396Y-9070884D02*
X7602444Y-9080408D01*
X7602444Y-9080408D02*
X7611967Y-9089931D01*
X7611967Y-9089931D02*
X7621491Y-9108979D01*
X7621491Y-9108979D02*
X7631015Y-9147074D01*
X7631015Y-9147074D02*
X7631015Y-9194693D01*
X7631015Y-9194693D02*
X7621491Y-9232789D01*
X7621491Y-9232789D02*
X7611967Y-9251836D01*
X7611967Y-9251836D02*
X7602444Y-9261360D01*
X7602444Y-9261360D02*
X7583396Y-9270884D01*
X7583396Y-9270884D02*
X7564348Y-9270884D01*
X7564348Y-9270884D02*
X7545301Y-9261360D01*
X7545301Y-9261360D02*
X7535777Y-9251836D01*
X7535777Y-9251836D02*
X7526253Y-9232789D01*
X7526253Y-9232789D02*
X7516729Y-9194693D01*
X7516729Y-9194693D02*
X7516729Y-9147074D01*
X7516729Y-9147074D02*
X7526253Y-9108979D01*
X7526253Y-9108979D02*
X7535777Y-9089931D01*
X7535777Y-9089931D02*
X7545301Y-9080408D01*
X7545301Y-9080408D02*
X7564348Y-9070884D01*
X7821491Y-9270884D02*
X7707206Y-9270884D01*
X7764348Y-9270884D02*
X7764348Y-9070884D01*
X7764348Y-9070884D02*
X7745301Y-9099455D01*
X7745301Y-9099455D02*
X7726253Y-9118503D01*
X7726253Y-9118503D02*
X7707206Y-9128027D01*
X8002444Y-9070884D02*
X7907206Y-9070884D01*
X7907206Y-9070884D02*
X7897682Y-9166122D01*
X7897682Y-9166122D02*
X7907206Y-9156598D01*
X7907206Y-9156598D02*
X7926253Y-9147074D01*
X7926253Y-9147074D02*
X7973872Y-9147074D01*
X7973872Y-9147074D02*
X7992920Y-9156598D01*
X7992920Y-9156598D02*
X8002444Y-9166122D01*
X8002444Y-9166122D02*
X8011967Y-9185170D01*
X8011967Y-9185170D02*
X8011967Y-9232789D01*
X8011967Y-9232789D02*
X8002444Y-9251836D01*
X8002444Y-9251836D02*
X7992920Y-9261360D01*
X7992920Y-9261360D02*
X7973872Y-9270884D01*
X7973872Y-9270884D02*
X7926253Y-9270884D01*
X7926253Y-9270884D02*
X7907206Y-9261360D01*
X7907206Y-9261360D02*
X7897682Y-9251836D01*
X8078634Y-9070884D02*
X8211967Y-9070884D01*
X8211967Y-9070884D02*
X8126253Y-9270884D01*
X8278634Y-9070884D02*
X8278634Y-9108979D01*
X8354825Y-9070884D02*
X8354825Y-9108979D01*
X8650063Y-9347074D02*
X8640539Y-9337550D01*
X8640539Y-9337550D02*
X8621491Y-9308979D01*
X8621491Y-9308979D02*
X8611968Y-9289931D01*
X8611968Y-9289931D02*
X8602444Y-9261360D01*
X8602444Y-9261360D02*
X8592920Y-9213741D01*
X8592920Y-9213741D02*
X8592920Y-9175646D01*
X8592920Y-9175646D02*
X8602444Y-9128027D01*
X8602444Y-9128027D02*
X8611968Y-9099455D01*
X8611968Y-9099455D02*
X8621491Y-9080408D01*
X8621491Y-9080408D02*
X8640539Y-9051836D01*
X8640539Y-9051836D02*
X8650063Y-9042312D01*
X8811968Y-9070884D02*
X8773872Y-9070884D01*
X8773872Y-9070884D02*
X8754825Y-9080408D01*
X8754825Y-9080408D02*
X8745301Y-9089931D01*
X8745301Y-9089931D02*
X8726253Y-9118503D01*
X8726253Y-9118503D02*
X8716730Y-9156598D01*
X8716730Y-9156598D02*
X8716730Y-9232789D01*
X8716730Y-9232789D02*
X8726253Y-9251836D01*
X8726253Y-9251836D02*
X8735777Y-9261360D01*
X8735777Y-9261360D02*
X8754825Y-9270884D01*
X8754825Y-9270884D02*
X8792920Y-9270884D01*
X8792920Y-9270884D02*
X8811968Y-9261360D01*
X8811968Y-9261360D02*
X8821491Y-9251836D01*
X8821491Y-9251836D02*
X8831015Y-9232789D01*
X8831015Y-9232789D02*
X8831015Y-9185170D01*
X8831015Y-9185170D02*
X8821491Y-9166122D01*
X8821491Y-9166122D02*
X8811968Y-9156598D01*
X8811968Y-9156598D02*
X8792920Y-9147074D01*
X8792920Y-9147074D02*
X8754825Y-9147074D01*
X8754825Y-9147074D02*
X8735777Y-9156598D01*
X8735777Y-9156598D02*
X8726253Y-9166122D01*
X8726253Y-9166122D02*
X8716730Y-9185170D01*
X9069111Y-9270884D02*
X9069111Y-9070884D01*
X9154825Y-9270884D02*
X9154825Y-9166122D01*
X9154825Y-9166122D02*
X9145301Y-9147074D01*
X9145301Y-9147074D02*
X9126253Y-9137550D01*
X9126253Y-9137550D02*
X9097682Y-9137550D01*
X9097682Y-9137550D02*
X9078634Y-9147074D01*
X9078634Y-9147074D02*
X9069111Y-9156598D01*
X9278634Y-9270884D02*
X9259587Y-9261360D01*
X9259587Y-9261360D02*
X9250063Y-9251836D01*
X9250063Y-9251836D02*
X9240539Y-9232789D01*
X9240539Y-9232789D02*
X9240539Y-9175646D01*
X9240539Y-9175646D02*
X9250063Y-9156598D01*
X9250063Y-9156598D02*
X9259587Y-9147074D01*
X9259587Y-9147074D02*
X9278634Y-9137550D01*
X9278634Y-9137550D02*
X9307206Y-9137550D01*
X9307206Y-9137550D02*
X9326253Y-9147074D01*
X9326253Y-9147074D02*
X9335777Y-9156598D01*
X9335777Y-9156598D02*
X9345301Y-9175646D01*
X9345301Y-9175646D02*
X9345301Y-9232789D01*
X9345301Y-9232789D02*
X9335777Y-9251836D01*
X9335777Y-9251836D02*
X9326253Y-9261360D01*
X9326253Y-9261360D02*
X9307206Y-9270884D01*
X9307206Y-9270884D02*
X9278634Y-9270884D01*
X9459587Y-9270884D02*
X9440539Y-9261360D01*
X9440539Y-9261360D02*
X9431015Y-9242312D01*
X9431015Y-9242312D02*
X9431015Y-9070884D01*
X9611968Y-9261360D02*
X9592920Y-9270884D01*
X9592920Y-9270884D02*
X9554825Y-9270884D01*
X9554825Y-9270884D02*
X9535777Y-9261360D01*
X9535777Y-9261360D02*
X9526253Y-9242312D01*
X9526253Y-9242312D02*
X9526253Y-9166122D01*
X9526253Y-9166122D02*
X9535777Y-9147074D01*
X9535777Y-9147074D02*
X9554825Y-9137550D01*
X9554825Y-9137550D02*
X9592920Y-9137550D01*
X9592920Y-9137550D02*
X9611968Y-9147074D01*
X9611968Y-9147074D02*
X9621492Y-9166122D01*
X9621492Y-9166122D02*
X9621492Y-9185170D01*
X9621492Y-9185170D02*
X9526253Y-9204217D01*
X9697682Y-9261360D02*
X9716730Y-9270884D01*
X9716730Y-9270884D02*
X9754825Y-9270884D01*
X9754825Y-9270884D02*
X9773873Y-9261360D01*
X9773873Y-9261360D02*
X9783396Y-9242312D01*
X9783396Y-9242312D02*
X9783396Y-9232789D01*
X9783396Y-9232789D02*
X9773873Y-9213741D01*
X9773873Y-9213741D02*
X9754825Y-9204217D01*
X9754825Y-9204217D02*
X9726253Y-9204217D01*
X9726253Y-9204217D02*
X9707206Y-9194693D01*
X9707206Y-9194693D02*
X9697682Y-9175646D01*
X9697682Y-9175646D02*
X9697682Y-9166122D01*
X9697682Y-9166122D02*
X9707206Y-9147074D01*
X9707206Y-9147074D02*
X9726253Y-9137550D01*
X9726253Y-9137550D02*
X9754825Y-9137550D01*
X9754825Y-9137550D02*
X9773873Y-9147074D01*
X9850063Y-9347074D02*
X9859587Y-9337550D01*
X9859587Y-9337550D02*
X9878634Y-9308979D01*
X9878634Y-9308979D02*
X9888158Y-9289931D01*
X9888158Y-9289931D02*
X9897682Y-9261360D01*
X9897682Y-9261360D02*
X9907206Y-9213741D01*
X9907206Y-9213741D02*
X9907206Y-9175646D01*
X9907206Y-9175646D02*
X9897682Y-9128027D01*
X9897682Y-9128027D02*
X9888158Y-9099455D01*
X9888158Y-9099455D02*
X9878634Y-9080408D01*
X9878634Y-9080408D02*
X9859587Y-9051836D01*
X9859587Y-9051836D02*
X9850063Y-9042312D01*
D10*
X5075000Y-9443400D02*
G75*
G03*
X5075000Y-9443400I-50000J0D01*
G01*
D11*
X5440539Y-9534884D02*
X5326253Y-9534884D01*
X5383396Y-9534884D02*
X5383396Y-9334884D01*
X5383396Y-9334884D02*
X5364348Y-9363455D01*
X5364348Y-9363455D02*
X5345301Y-9382503D01*
X5345301Y-9382503D02*
X5326253Y-9392027D01*
X5526253Y-9515836D02*
X5535777Y-9525360D01*
X5535777Y-9525360D02*
X5526253Y-9534884D01*
X5526253Y-9534884D02*
X5516729Y-9525360D01*
X5516729Y-9525360D02*
X5526253Y-9515836D01*
X5526253Y-9515836D02*
X5526253Y-9534884D01*
X5659586Y-9334884D02*
X5678634Y-9334884D01*
X5678634Y-9334884D02*
X5697682Y-9344408D01*
X5697682Y-9344408D02*
X5707205Y-9353931D01*
X5707205Y-9353931D02*
X5716729Y-9372979D01*
X5716729Y-9372979D02*
X5726253Y-9411074D01*
X5726253Y-9411074D02*
X5726253Y-9458693D01*
X5726253Y-9458693D02*
X5716729Y-9496789D01*
X5716729Y-9496789D02*
X5707205Y-9515836D01*
X5707205Y-9515836D02*
X5697682Y-9525360D01*
X5697682Y-9525360D02*
X5678634Y-9534884D01*
X5678634Y-9534884D02*
X5659586Y-9534884D01*
X5659586Y-9534884D02*
X5640539Y-9525360D01*
X5640539Y-9525360D02*
X5631015Y-9515836D01*
X5631015Y-9515836D02*
X5621491Y-9496789D01*
X5621491Y-9496789D02*
X5611967Y-9458693D01*
X5611967Y-9458693D02*
X5611967Y-9411074D01*
X5611967Y-9411074D02*
X5621491Y-9372979D01*
X5621491Y-9372979D02*
X5631015Y-9353931D01*
X5631015Y-9353931D02*
X5640539Y-9344408D01*
X5640539Y-9344408D02*
X5659586Y-9334884D01*
X5850062Y-9334884D02*
X5869110Y-9334884D01*
X5869110Y-9334884D02*
X5888158Y-9344408D01*
X5888158Y-9344408D02*
X5897682Y-9353931D01*
X5897682Y-9353931D02*
X5907205Y-9372979D01*
X5907205Y-9372979D02*
X5916729Y-9411074D01*
X5916729Y-9411074D02*
X5916729Y-9458693D01*
X5916729Y-9458693D02*
X5907205Y-9496789D01*
X5907205Y-9496789D02*
X5897682Y-9515836D01*
X5897682Y-9515836D02*
X5888158Y-9525360D01*
X5888158Y-9525360D02*
X5869110Y-9534884D01*
X5869110Y-9534884D02*
X5850062Y-9534884D01*
X5850062Y-9534884D02*
X5831015Y-9525360D01*
X5831015Y-9525360D02*
X5821491Y-9515836D01*
X5821491Y-9515836D02*
X5811967Y-9496789D01*
X5811967Y-9496789D02*
X5802443Y-9458693D01*
X5802443Y-9458693D02*
X5802443Y-9411074D01*
X5802443Y-9411074D02*
X5811967Y-9372979D01*
X5811967Y-9372979D02*
X5821491Y-9353931D01*
X5821491Y-9353931D02*
X5831015Y-9344408D01*
X5831015Y-9344408D02*
X5850062Y-9334884D01*
X6040539Y-9334884D02*
X6059586Y-9334884D01*
X6059586Y-9334884D02*
X6078634Y-9344408D01*
X6078634Y-9344408D02*
X6088158Y-9353931D01*
X6088158Y-9353931D02*
X6097682Y-9372979D01*
X6097682Y-9372979D02*
X6107205Y-9411074D01*
X6107205Y-9411074D02*
X6107205Y-9458693D01*
X6107205Y-9458693D02*
X6097682Y-9496789D01*
X6097682Y-9496789D02*
X6088158Y-9515836D01*
X6088158Y-9515836D02*
X6078634Y-9525360D01*
X6078634Y-9525360D02*
X6059586Y-9534884D01*
X6059586Y-9534884D02*
X6040539Y-9534884D01*
X6040539Y-9534884D02*
X6021491Y-9525360D01*
X6021491Y-9525360D02*
X6011967Y-9515836D01*
X6011967Y-9515836D02*
X6002443Y-9496789D01*
X6002443Y-9496789D02*
X5992920Y-9458693D01*
X5992920Y-9458693D02*
X5992920Y-9411074D01*
X5992920Y-9411074D02*
X6002443Y-9372979D01*
X6002443Y-9372979D02*
X6011967Y-9353931D01*
X6011967Y-9353931D02*
X6021491Y-9344408D01*
X6021491Y-9344408D02*
X6040539Y-9334884D01*
X6192920Y-9534884D02*
X6192920Y-9401550D01*
X6192920Y-9420598D02*
X6202443Y-9411074D01*
X6202443Y-9411074D02*
X6221491Y-9401550D01*
X6221491Y-9401550D02*
X6250063Y-9401550D01*
X6250063Y-9401550D02*
X6269110Y-9411074D01*
X6269110Y-9411074D02*
X6278634Y-9430122D01*
X6278634Y-9430122D02*
X6278634Y-9534884D01*
X6278634Y-9430122D02*
X6288158Y-9411074D01*
X6288158Y-9411074D02*
X6307205Y-9401550D01*
X6307205Y-9401550D02*
X6335777Y-9401550D01*
X6335777Y-9401550D02*
X6354824Y-9411074D01*
X6354824Y-9411074D02*
X6364348Y-9430122D01*
X6364348Y-9430122D02*
X6364348Y-9534884D01*
X6459586Y-9534884D02*
X6459586Y-9401550D01*
X6459586Y-9420598D02*
X6469110Y-9411074D01*
X6469110Y-9411074D02*
X6488158Y-9401550D01*
X6488158Y-9401550D02*
X6516729Y-9401550D01*
X6516729Y-9401550D02*
X6535777Y-9411074D01*
X6535777Y-9411074D02*
X6545301Y-9430122D01*
X6545301Y-9430122D02*
X6545301Y-9534884D01*
X6545301Y-9430122D02*
X6554824Y-9411074D01*
X6554824Y-9411074D02*
X6573872Y-9401550D01*
X6573872Y-9401550D02*
X6602443Y-9401550D01*
X6602443Y-9401550D02*
X6621491Y-9411074D01*
X6621491Y-9411074D02*
X6631015Y-9430122D01*
X6631015Y-9430122D02*
X6631015Y-9534884D01*
X7021491Y-9325360D02*
X6850063Y-9582503D01*
X7278634Y-9334884D02*
X7297682Y-9334884D01*
X7297682Y-9334884D02*
X7316729Y-9344408D01*
X7316729Y-9344408D02*
X7326253Y-9353931D01*
X7326253Y-9353931D02*
X7335777Y-9372979D01*
X7335777Y-9372979D02*
X7345301Y-9411074D01*
X7345301Y-9411074D02*
X7345301Y-9458693D01*
X7345301Y-9458693D02*
X7335777Y-9496789D01*
X7335777Y-9496789D02*
X7326253Y-9515836D01*
X7326253Y-9515836D02*
X7316729Y-9525360D01*
X7316729Y-9525360D02*
X7297682Y-9534884D01*
X7297682Y-9534884D02*
X7278634Y-9534884D01*
X7278634Y-9534884D02*
X7259586Y-9525360D01*
X7259586Y-9525360D02*
X7250063Y-9515836D01*
X7250063Y-9515836D02*
X7240539Y-9496789D01*
X7240539Y-9496789D02*
X7231015Y-9458693D01*
X7231015Y-9458693D02*
X7231015Y-9411074D01*
X7231015Y-9411074D02*
X7240539Y-9372979D01*
X7240539Y-9372979D02*
X7250063Y-9353931D01*
X7250063Y-9353931D02*
X7259586Y-9344408D01*
X7259586Y-9344408D02*
X7278634Y-9334884D01*
X7431015Y-9515836D02*
X7440539Y-9525360D01*
X7440539Y-9525360D02*
X7431015Y-9534884D01*
X7431015Y-9534884D02*
X7421491Y-9525360D01*
X7421491Y-9525360D02*
X7431015Y-9515836D01*
X7431015Y-9515836D02*
X7431015Y-9534884D01*
X7564348Y-9334884D02*
X7583396Y-9334884D01*
X7583396Y-9334884D02*
X7602444Y-9344408D01*
X7602444Y-9344408D02*
X7611967Y-9353931D01*
X7611967Y-9353931D02*
X7621491Y-9372979D01*
X7621491Y-9372979D02*
X7631015Y-9411074D01*
X7631015Y-9411074D02*
X7631015Y-9458693D01*
X7631015Y-9458693D02*
X7621491Y-9496789D01*
X7621491Y-9496789D02*
X7611967Y-9515836D01*
X7611967Y-9515836D02*
X7602444Y-9525360D01*
X7602444Y-9525360D02*
X7583396Y-9534884D01*
X7583396Y-9534884D02*
X7564348Y-9534884D01*
X7564348Y-9534884D02*
X7545301Y-9525360D01*
X7545301Y-9525360D02*
X7535777Y-9515836D01*
X7535777Y-9515836D02*
X7526253Y-9496789D01*
X7526253Y-9496789D02*
X7516729Y-9458693D01*
X7516729Y-9458693D02*
X7516729Y-9411074D01*
X7516729Y-9411074D02*
X7526253Y-9372979D01*
X7526253Y-9372979D02*
X7535777Y-9353931D01*
X7535777Y-9353931D02*
X7545301Y-9344408D01*
X7545301Y-9344408D02*
X7564348Y-9334884D01*
X7697682Y-9334884D02*
X7821491Y-9334884D01*
X7821491Y-9334884D02*
X7754825Y-9411074D01*
X7754825Y-9411074D02*
X7783396Y-9411074D01*
X7783396Y-9411074D02*
X7802444Y-9420598D01*
X7802444Y-9420598D02*
X7811967Y-9430122D01*
X7811967Y-9430122D02*
X7821491Y-9449170D01*
X7821491Y-9449170D02*
X7821491Y-9496789D01*
X7821491Y-9496789D02*
X7811967Y-9515836D01*
X7811967Y-9515836D02*
X7802444Y-9525360D01*
X7802444Y-9525360D02*
X7783396Y-9534884D01*
X7783396Y-9534884D02*
X7726253Y-9534884D01*
X7726253Y-9534884D02*
X7707206Y-9525360D01*
X7707206Y-9525360D02*
X7697682Y-9515836D01*
X7916729Y-9534884D02*
X7954825Y-9534884D01*
X7954825Y-9534884D02*
X7973872Y-9525360D01*
X7973872Y-9525360D02*
X7983396Y-9515836D01*
X7983396Y-9515836D02*
X8002444Y-9487265D01*
X8002444Y-9487265D02*
X8011967Y-9449170D01*
X8011967Y-9449170D02*
X8011967Y-9372979D01*
X8011967Y-9372979D02*
X8002444Y-9353931D01*
X8002444Y-9353931D02*
X7992920Y-9344408D01*
X7992920Y-9344408D02*
X7973872Y-9334884D01*
X7973872Y-9334884D02*
X7935777Y-9334884D01*
X7935777Y-9334884D02*
X7916729Y-9344408D01*
X7916729Y-9344408D02*
X7907206Y-9353931D01*
X7907206Y-9353931D02*
X7897682Y-9372979D01*
X7897682Y-9372979D02*
X7897682Y-9420598D01*
X7897682Y-9420598D02*
X7907206Y-9439646D01*
X7907206Y-9439646D02*
X7916729Y-9449170D01*
X7916729Y-9449170D02*
X7935777Y-9458693D01*
X7935777Y-9458693D02*
X7973872Y-9458693D01*
X7973872Y-9458693D02*
X7992920Y-9449170D01*
X7992920Y-9449170D02*
X8002444Y-9439646D01*
X8002444Y-9439646D02*
X8011967Y-9420598D01*
X8183396Y-9401550D02*
X8183396Y-9534884D01*
X8135777Y-9325360D02*
X8088158Y-9468217D01*
X8088158Y-9468217D02*
X8211967Y-9468217D01*
X8278634Y-9334884D02*
X8278634Y-9372979D01*
X8354825Y-9334884D02*
X8354825Y-9372979D01*
X8650063Y-9611074D02*
X8640539Y-9601550D01*
X8640539Y-9601550D02*
X8621491Y-9572979D01*
X8621491Y-9572979D02*
X8611968Y-9553931D01*
X8611968Y-9553931D02*
X8602444Y-9525360D01*
X8602444Y-9525360D02*
X8592920Y-9477741D01*
X8592920Y-9477741D02*
X8592920Y-9439646D01*
X8592920Y-9439646D02*
X8602444Y-9392027D01*
X8602444Y-9392027D02*
X8611968Y-9363455D01*
X8611968Y-9363455D02*
X8621491Y-9344408D01*
X8621491Y-9344408D02*
X8640539Y-9315836D01*
X8640539Y-9315836D02*
X8650063Y-9306312D01*
X8811968Y-9401550D02*
X8811968Y-9534884D01*
X8764349Y-9325360D02*
X8716730Y-9468217D01*
X8716730Y-9468217D02*
X8840539Y-9468217D01*
X9069111Y-9534884D02*
X9069111Y-9334884D01*
X9154825Y-9534884D02*
X9154825Y-9430122D01*
X9154825Y-9430122D02*
X9145301Y-9411074D01*
X9145301Y-9411074D02*
X9126253Y-9401550D01*
X9126253Y-9401550D02*
X9097682Y-9401550D01*
X9097682Y-9401550D02*
X9078634Y-9411074D01*
X9078634Y-9411074D02*
X9069111Y-9420598D01*
X9278634Y-9534884D02*
X9259587Y-9525360D01*
X9259587Y-9525360D02*
X9250063Y-9515836D01*
X9250063Y-9515836D02*
X9240539Y-9496789D01*
X9240539Y-9496789D02*
X9240539Y-9439646D01*
X9240539Y-9439646D02*
X9250063Y-9420598D01*
X9250063Y-9420598D02*
X9259587Y-9411074D01*
X9259587Y-9411074D02*
X9278634Y-9401550D01*
X9278634Y-9401550D02*
X9307206Y-9401550D01*
X9307206Y-9401550D02*
X9326253Y-9411074D01*
X9326253Y-9411074D02*
X9335777Y-9420598D01*
X9335777Y-9420598D02*
X9345301Y-9439646D01*
X9345301Y-9439646D02*
X9345301Y-9496789D01*
X9345301Y-9496789D02*
X9335777Y-9515836D01*
X9335777Y-9515836D02*
X9326253Y-9525360D01*
X9326253Y-9525360D02*
X9307206Y-9534884D01*
X9307206Y-9534884D02*
X9278634Y-9534884D01*
X9459587Y-9534884D02*
X9440539Y-9525360D01*
X9440539Y-9525360D02*
X9431015Y-9506312D01*
X9431015Y-9506312D02*
X9431015Y-9334884D01*
X9611968Y-9525360D02*
X9592920Y-9534884D01*
X9592920Y-9534884D02*
X9554825Y-9534884D01*
X9554825Y-9534884D02*
X9535777Y-9525360D01*
X9535777Y-9525360D02*
X9526253Y-9506312D01*
X9526253Y-9506312D02*
X9526253Y-9430122D01*
X9526253Y-9430122D02*
X9535777Y-9411074D01*
X9535777Y-9411074D02*
X9554825Y-9401550D01*
X9554825Y-9401550D02*
X9592920Y-9401550D01*
X9592920Y-9401550D02*
X9611968Y-9411074D01*
X9611968Y-9411074D02*
X9621492Y-9430122D01*
X9621492Y-9430122D02*
X9621492Y-9449170D01*
X9621492Y-9449170D02*
X9526253Y-9468217D01*
X9697682Y-9525360D02*
X9716730Y-9534884D01*
X9716730Y-9534884D02*
X9754825Y-9534884D01*
X9754825Y-9534884D02*
X9773873Y-9525360D01*
X9773873Y-9525360D02*
X9783396Y-9506312D01*
X9783396Y-9506312D02*
X9783396Y-9496789D01*
X9783396Y-9496789D02*
X9773873Y-9477741D01*
X9773873Y-9477741D02*
X9754825Y-9468217D01*
X9754825Y-9468217D02*
X9726253Y-9468217D01*
X9726253Y-9468217D02*
X9707206Y-9458693D01*
X9707206Y-9458693D02*
X9697682Y-9439646D01*
X9697682Y-9439646D02*
X9697682Y-9430122D01*
X9697682Y-9430122D02*
X9707206Y-9411074D01*
X9707206Y-9411074D02*
X9726253Y-9401550D01*
X9726253Y-9401550D02*
X9754825Y-9401550D01*
X9754825Y-9401550D02*
X9773873Y-9411074D01*
X9850063Y-9611074D02*
X9859587Y-9601550D01*
X9859587Y-9601550D02*
X9878634Y-9572979D01*
X9878634Y-9572979D02*
X9888158Y-9553931D01*
X9888158Y-9553931D02*
X9897682Y-9525360D01*
X9897682Y-9525360D02*
X9907206Y-9477741D01*
X9907206Y-9477741D02*
X9907206Y-9439646D01*
X9907206Y-9439646D02*
X9897682Y-9392027D01*
X9897682Y-9392027D02*
X9888158Y-9363455D01*
X9888158Y-9363455D02*
X9878634Y-9344408D01*
X9878634Y-9344408D02*
X9859587Y-9315836D01*
X9859587Y-9315836D02*
X9850063Y-9306312D01*
D13*
X5000000Y-9632400D02*
X5000000Y-9782400D01*
X4925000Y-9707400D02*
X5075000Y-9707400D01*
D11*
X5440539Y-9798884D02*
X5326253Y-9798884D01*
X5383396Y-9798884D02*
X5383396Y-9598884D01*
X5383396Y-9598884D02*
X5364348Y-9627455D01*
X5364348Y-9627455D02*
X5345301Y-9646503D01*
X5345301Y-9646503D02*
X5326253Y-9656027D01*
X5526253Y-9779836D02*
X5535777Y-9789360D01*
X5535777Y-9789360D02*
X5526253Y-9798884D01*
X5526253Y-9798884D02*
X5516729Y-9789360D01*
X5516729Y-9789360D02*
X5526253Y-9779836D01*
X5526253Y-9779836D02*
X5526253Y-9798884D01*
X5716729Y-9598884D02*
X5621491Y-9598884D01*
X5621491Y-9598884D02*
X5611967Y-9694122D01*
X5611967Y-9694122D02*
X5621491Y-9684598D01*
X5621491Y-9684598D02*
X5640539Y-9675074D01*
X5640539Y-9675074D02*
X5688158Y-9675074D01*
X5688158Y-9675074D02*
X5707205Y-9684598D01*
X5707205Y-9684598D02*
X5716729Y-9694122D01*
X5716729Y-9694122D02*
X5726253Y-9713170D01*
X5726253Y-9713170D02*
X5726253Y-9760789D01*
X5726253Y-9760789D02*
X5716729Y-9779836D01*
X5716729Y-9779836D02*
X5707205Y-9789360D01*
X5707205Y-9789360D02*
X5688158Y-9798884D01*
X5688158Y-9798884D02*
X5640539Y-9798884D01*
X5640539Y-9798884D02*
X5621491Y-9789360D01*
X5621491Y-9789360D02*
X5611967Y-9779836D01*
X5850062Y-9598884D02*
X5869110Y-9598884D01*
X5869110Y-9598884D02*
X5888158Y-9608408D01*
X5888158Y-9608408D02*
X5897682Y-9617931D01*
X5897682Y-9617931D02*
X5907205Y-9636979D01*
X5907205Y-9636979D02*
X5916729Y-9675074D01*
X5916729Y-9675074D02*
X5916729Y-9722693D01*
X5916729Y-9722693D02*
X5907205Y-9760789D01*
X5907205Y-9760789D02*
X5897682Y-9779836D01*
X5897682Y-9779836D02*
X5888158Y-9789360D01*
X5888158Y-9789360D02*
X5869110Y-9798884D01*
X5869110Y-9798884D02*
X5850062Y-9798884D01*
X5850062Y-9798884D02*
X5831015Y-9789360D01*
X5831015Y-9789360D02*
X5821491Y-9779836D01*
X5821491Y-9779836D02*
X5811967Y-9760789D01*
X5811967Y-9760789D02*
X5802443Y-9722693D01*
X5802443Y-9722693D02*
X5802443Y-9675074D01*
X5802443Y-9675074D02*
X5811967Y-9636979D01*
X5811967Y-9636979D02*
X5821491Y-9617931D01*
X5821491Y-9617931D02*
X5831015Y-9608408D01*
X5831015Y-9608408D02*
X5850062Y-9598884D01*
X6040539Y-9598884D02*
X6059586Y-9598884D01*
X6059586Y-9598884D02*
X6078634Y-9608408D01*
X6078634Y-9608408D02*
X6088158Y-9617931D01*
X6088158Y-9617931D02*
X6097682Y-9636979D01*
X6097682Y-9636979D02*
X6107205Y-9675074D01*
X6107205Y-9675074D02*
X6107205Y-9722693D01*
X6107205Y-9722693D02*
X6097682Y-9760789D01*
X6097682Y-9760789D02*
X6088158Y-9779836D01*
X6088158Y-9779836D02*
X6078634Y-9789360D01*
X6078634Y-9789360D02*
X6059586Y-9798884D01*
X6059586Y-9798884D02*
X6040539Y-9798884D01*
X6040539Y-9798884D02*
X6021491Y-9789360D01*
X6021491Y-9789360D02*
X6011967Y-9779836D01*
X6011967Y-9779836D02*
X6002443Y-9760789D01*
X6002443Y-9760789D02*
X5992920Y-9722693D01*
X5992920Y-9722693D02*
X5992920Y-9675074D01*
X5992920Y-9675074D02*
X6002443Y-9636979D01*
X6002443Y-9636979D02*
X6011967Y-9617931D01*
X6011967Y-9617931D02*
X6021491Y-9608408D01*
X6021491Y-9608408D02*
X6040539Y-9598884D01*
X6192920Y-9798884D02*
X6192920Y-9665550D01*
X6192920Y-9684598D02*
X6202443Y-9675074D01*
X6202443Y-9675074D02*
X6221491Y-9665550D01*
X6221491Y-9665550D02*
X6250063Y-9665550D01*
X6250063Y-9665550D02*
X6269110Y-9675074D01*
X6269110Y-9675074D02*
X6278634Y-9694122D01*
X6278634Y-9694122D02*
X6278634Y-9798884D01*
X6278634Y-9694122D02*
X6288158Y-9675074D01*
X6288158Y-9675074D02*
X6307205Y-9665550D01*
X6307205Y-9665550D02*
X6335777Y-9665550D01*
X6335777Y-9665550D02*
X6354824Y-9675074D01*
X6354824Y-9675074D02*
X6364348Y-9694122D01*
X6364348Y-9694122D02*
X6364348Y-9798884D01*
X6459586Y-9798884D02*
X6459586Y-9665550D01*
X6459586Y-9684598D02*
X6469110Y-9675074D01*
X6469110Y-9675074D02*
X6488158Y-9665550D01*
X6488158Y-9665550D02*
X6516729Y-9665550D01*
X6516729Y-9665550D02*
X6535777Y-9675074D01*
X6535777Y-9675074D02*
X6545301Y-9694122D01*
X6545301Y-9694122D02*
X6545301Y-9798884D01*
X6545301Y-9694122D02*
X6554824Y-9675074D01*
X6554824Y-9675074D02*
X6573872Y-9665550D01*
X6573872Y-9665550D02*
X6602443Y-9665550D01*
X6602443Y-9665550D02*
X6621491Y-9675074D01*
X6621491Y-9675074D02*
X6631015Y-9694122D01*
X6631015Y-9694122D02*
X6631015Y-9798884D01*
X7021491Y-9589360D02*
X6850063Y-9846503D01*
X7278634Y-9598884D02*
X7297682Y-9598884D01*
X7297682Y-9598884D02*
X7316729Y-9608408D01*
X7316729Y-9608408D02*
X7326253Y-9617931D01*
X7326253Y-9617931D02*
X7335777Y-9636979D01*
X7335777Y-9636979D02*
X7345301Y-9675074D01*
X7345301Y-9675074D02*
X7345301Y-9722693D01*
X7345301Y-9722693D02*
X7335777Y-9760789D01*
X7335777Y-9760789D02*
X7326253Y-9779836D01*
X7326253Y-9779836D02*
X7316729Y-9789360D01*
X7316729Y-9789360D02*
X7297682Y-9798884D01*
X7297682Y-9798884D02*
X7278634Y-9798884D01*
X7278634Y-9798884D02*
X7259586Y-9789360D01*
X7259586Y-9789360D02*
X7250063Y-9779836D01*
X7250063Y-9779836D02*
X7240539Y-9760789D01*
X7240539Y-9760789D02*
X7231015Y-9722693D01*
X7231015Y-9722693D02*
X7231015Y-9675074D01*
X7231015Y-9675074D02*
X7240539Y-9636979D01*
X7240539Y-9636979D02*
X7250063Y-9617931D01*
X7250063Y-9617931D02*
X7259586Y-9608408D01*
X7259586Y-9608408D02*
X7278634Y-9598884D01*
X7431015Y-9779836D02*
X7440539Y-9789360D01*
X7440539Y-9789360D02*
X7431015Y-9798884D01*
X7431015Y-9798884D02*
X7421491Y-9789360D01*
X7421491Y-9789360D02*
X7431015Y-9779836D01*
X7431015Y-9779836D02*
X7431015Y-9798884D01*
X7564348Y-9598884D02*
X7583396Y-9598884D01*
X7583396Y-9598884D02*
X7602444Y-9608408D01*
X7602444Y-9608408D02*
X7611967Y-9617931D01*
X7611967Y-9617931D02*
X7621491Y-9636979D01*
X7621491Y-9636979D02*
X7631015Y-9675074D01*
X7631015Y-9675074D02*
X7631015Y-9722693D01*
X7631015Y-9722693D02*
X7621491Y-9760789D01*
X7621491Y-9760789D02*
X7611967Y-9779836D01*
X7611967Y-9779836D02*
X7602444Y-9789360D01*
X7602444Y-9789360D02*
X7583396Y-9798884D01*
X7583396Y-9798884D02*
X7564348Y-9798884D01*
X7564348Y-9798884D02*
X7545301Y-9789360D01*
X7545301Y-9789360D02*
X7535777Y-9779836D01*
X7535777Y-9779836D02*
X7526253Y-9760789D01*
X7526253Y-9760789D02*
X7516729Y-9722693D01*
X7516729Y-9722693D02*
X7516729Y-9675074D01*
X7516729Y-9675074D02*
X7526253Y-9636979D01*
X7526253Y-9636979D02*
X7535777Y-9617931D01*
X7535777Y-9617931D02*
X7545301Y-9608408D01*
X7545301Y-9608408D02*
X7564348Y-9598884D01*
X7811967Y-9598884D02*
X7716729Y-9598884D01*
X7716729Y-9598884D02*
X7707206Y-9694122D01*
X7707206Y-9694122D02*
X7716729Y-9684598D01*
X7716729Y-9684598D02*
X7735777Y-9675074D01*
X7735777Y-9675074D02*
X7783396Y-9675074D01*
X7783396Y-9675074D02*
X7802444Y-9684598D01*
X7802444Y-9684598D02*
X7811967Y-9694122D01*
X7811967Y-9694122D02*
X7821491Y-9713170D01*
X7821491Y-9713170D02*
X7821491Y-9760789D01*
X7821491Y-9760789D02*
X7811967Y-9779836D01*
X7811967Y-9779836D02*
X7802444Y-9789360D01*
X7802444Y-9789360D02*
X7783396Y-9798884D01*
X7783396Y-9798884D02*
X7735777Y-9798884D01*
X7735777Y-9798884D02*
X7716729Y-9789360D01*
X7716729Y-9789360D02*
X7707206Y-9779836D01*
X7916729Y-9798884D02*
X7954825Y-9798884D01*
X7954825Y-9798884D02*
X7973872Y-9789360D01*
X7973872Y-9789360D02*
X7983396Y-9779836D01*
X7983396Y-9779836D02*
X8002444Y-9751265D01*
X8002444Y-9751265D02*
X8011967Y-9713170D01*
X8011967Y-9713170D02*
X8011967Y-9636979D01*
X8011967Y-9636979D02*
X8002444Y-9617931D01*
X8002444Y-9617931D02*
X7992920Y-9608408D01*
X7992920Y-9608408D02*
X7973872Y-9598884D01*
X7973872Y-9598884D02*
X7935777Y-9598884D01*
X7935777Y-9598884D02*
X7916729Y-9608408D01*
X7916729Y-9608408D02*
X7907206Y-9617931D01*
X7907206Y-9617931D02*
X7897682Y-9636979D01*
X7897682Y-9636979D02*
X7897682Y-9684598D01*
X7897682Y-9684598D02*
X7907206Y-9703646D01*
X7907206Y-9703646D02*
X7916729Y-9713170D01*
X7916729Y-9713170D02*
X7935777Y-9722693D01*
X7935777Y-9722693D02*
X7973872Y-9722693D01*
X7973872Y-9722693D02*
X7992920Y-9713170D01*
X7992920Y-9713170D02*
X8002444Y-9703646D01*
X8002444Y-9703646D02*
X8011967Y-9684598D01*
X8202444Y-9798884D02*
X8088158Y-9798884D01*
X8145301Y-9798884D02*
X8145301Y-9598884D01*
X8145301Y-9598884D02*
X8126253Y-9627455D01*
X8126253Y-9627455D02*
X8107206Y-9646503D01*
X8107206Y-9646503D02*
X8088158Y-9656027D01*
X8278634Y-9598884D02*
X8278634Y-9636979D01*
X8354825Y-9598884D02*
X8354825Y-9636979D01*
X8650063Y-9875074D02*
X8640539Y-9865550D01*
X8640539Y-9865550D02*
X8621491Y-9836979D01*
X8621491Y-9836979D02*
X8611968Y-9817931D01*
X8611968Y-9817931D02*
X8602444Y-9789360D01*
X8602444Y-9789360D02*
X8592920Y-9741741D01*
X8592920Y-9741741D02*
X8592920Y-9703646D01*
X8592920Y-9703646D02*
X8602444Y-9656027D01*
X8602444Y-9656027D02*
X8611968Y-9627455D01*
X8611968Y-9627455D02*
X8621491Y-9608408D01*
X8621491Y-9608408D02*
X8640539Y-9579836D01*
X8640539Y-9579836D02*
X8650063Y-9570312D01*
X8821491Y-9598884D02*
X8726253Y-9598884D01*
X8726253Y-9598884D02*
X8716730Y-9694122D01*
X8716730Y-9694122D02*
X8726253Y-9684598D01*
X8726253Y-9684598D02*
X8745301Y-9675074D01*
X8745301Y-9675074D02*
X8792920Y-9675074D01*
X8792920Y-9675074D02*
X8811968Y-9684598D01*
X8811968Y-9684598D02*
X8821491Y-9694122D01*
X8821491Y-9694122D02*
X8831015Y-9713170D01*
X8831015Y-9713170D02*
X8831015Y-9760789D01*
X8831015Y-9760789D02*
X8821491Y-9779836D01*
X8821491Y-9779836D02*
X8811968Y-9789360D01*
X8811968Y-9789360D02*
X8792920Y-9798884D01*
X8792920Y-9798884D02*
X8745301Y-9798884D01*
X8745301Y-9798884D02*
X8726253Y-9789360D01*
X8726253Y-9789360D02*
X8716730Y-9779836D01*
X9002444Y-9598884D02*
X8964349Y-9598884D01*
X8964349Y-9598884D02*
X8945301Y-9608408D01*
X8945301Y-9608408D02*
X8935777Y-9617931D01*
X8935777Y-9617931D02*
X8916730Y-9646503D01*
X8916730Y-9646503D02*
X8907206Y-9684598D01*
X8907206Y-9684598D02*
X8907206Y-9760789D01*
X8907206Y-9760789D02*
X8916730Y-9779836D01*
X8916730Y-9779836D02*
X8926253Y-9789360D01*
X8926253Y-9789360D02*
X8945301Y-9798884D01*
X8945301Y-9798884D02*
X8983396Y-9798884D01*
X8983396Y-9798884D02*
X9002444Y-9789360D01*
X9002444Y-9789360D02*
X9011968Y-9779836D01*
X9011968Y-9779836D02*
X9021491Y-9760789D01*
X9021491Y-9760789D02*
X9021491Y-9713170D01*
X9021491Y-9713170D02*
X9011968Y-9694122D01*
X9011968Y-9694122D02*
X9002444Y-9684598D01*
X9002444Y-9684598D02*
X8983396Y-9675074D01*
X8983396Y-9675074D02*
X8945301Y-9675074D01*
X8945301Y-9675074D02*
X8926253Y-9684598D01*
X8926253Y-9684598D02*
X8916730Y-9694122D01*
X8916730Y-9694122D02*
X8907206Y-9713170D01*
X9259587Y-9798884D02*
X9259587Y-9598884D01*
X9345301Y-9798884D02*
X9345301Y-9694122D01*
X9345301Y-9694122D02*
X9335777Y-9675074D01*
X9335777Y-9675074D02*
X9316730Y-9665550D01*
X9316730Y-9665550D02*
X9288158Y-9665550D01*
X9288158Y-9665550D02*
X9269111Y-9675074D01*
X9269111Y-9675074D02*
X9259587Y-9684598D01*
X9469111Y-9798884D02*
X9450063Y-9789360D01*
X9450063Y-9789360D02*
X9440539Y-9779836D01*
X9440539Y-9779836D02*
X9431015Y-9760789D01*
X9431015Y-9760789D02*
X9431015Y-9703646D01*
X9431015Y-9703646D02*
X9440539Y-9684598D01*
X9440539Y-9684598D02*
X9450063Y-9675074D01*
X9450063Y-9675074D02*
X9469111Y-9665550D01*
X9469111Y-9665550D02*
X9497682Y-9665550D01*
X9497682Y-9665550D02*
X9516730Y-9675074D01*
X9516730Y-9675074D02*
X9526253Y-9684598D01*
X9526253Y-9684598D02*
X9535777Y-9703646D01*
X9535777Y-9703646D02*
X9535777Y-9760789D01*
X9535777Y-9760789D02*
X9526253Y-9779836D01*
X9526253Y-9779836D02*
X9516730Y-9789360D01*
X9516730Y-9789360D02*
X9497682Y-9798884D01*
X9497682Y-9798884D02*
X9469111Y-9798884D01*
X9650063Y-9798884D02*
X9631015Y-9789360D01*
X9631015Y-9789360D02*
X9621492Y-9770312D01*
X9621492Y-9770312D02*
X9621492Y-9598884D01*
X9802444Y-9789360D02*
X9783396Y-9798884D01*
X9783396Y-9798884D02*
X9745301Y-9798884D01*
X9745301Y-9798884D02*
X9726253Y-9789360D01*
X9726253Y-9789360D02*
X9716730Y-9770312D01*
X9716730Y-9770312D02*
X9716730Y-9694122D01*
X9716730Y-9694122D02*
X9726253Y-9675074D01*
X9726253Y-9675074D02*
X9745301Y-9665550D01*
X9745301Y-9665550D02*
X9783396Y-9665550D01*
X9783396Y-9665550D02*
X9802444Y-9675074D01*
X9802444Y-9675074D02*
X9811968Y-9694122D01*
X9811968Y-9694122D02*
X9811968Y-9713170D01*
X9811968Y-9713170D02*
X9716730Y-9732217D01*
X9888158Y-9789360D02*
X9907206Y-9798884D01*
X9907206Y-9798884D02*
X9945301Y-9798884D01*
X9945301Y-9798884D02*
X9964349Y-9789360D01*
X9964349Y-9789360D02*
X9973873Y-9770312D01*
X9973873Y-9770312D02*
X9973873Y-9760789D01*
X9973873Y-9760789D02*
X9964349Y-9741741D01*
X9964349Y-9741741D02*
X9945301Y-9732217D01*
X9945301Y-9732217D02*
X9916730Y-9732217D01*
X9916730Y-9732217D02*
X9897682Y-9722693D01*
X9897682Y-9722693D02*
X9888158Y-9703646D01*
X9888158Y-9703646D02*
X9888158Y-9694122D01*
X9888158Y-9694122D02*
X9897682Y-9675074D01*
X9897682Y-9675074D02*
X9916730Y-9665550D01*
X9916730Y-9665550D02*
X9945301Y-9665550D01*
X9945301Y-9665550D02*
X9964349Y-9675074D01*
X10040539Y-9875074D02*
X10050063Y-9865550D01*
X10050063Y-9865550D02*
X10069111Y-9836979D01*
X10069111Y-9836979D02*
X10078634Y-9817931D01*
X10078634Y-9817931D02*
X10088158Y-9789360D01*
X10088158Y-9789360D02*
X10097682Y-9741741D01*
X10097682Y-9741741D02*
X10097682Y-9703646D01*
X10097682Y-9703646D02*
X10088158Y-9656027D01*
X10088158Y-9656027D02*
X10078634Y-9627455D01*
X10078634Y-9627455D02*
X10069111Y-9608408D01*
X10069111Y-9608408D02*
X10050063Y-9579836D01*
X10050063Y-9579836D02*
X10040539Y-9570312D01*
X5045711Y-10048111D02*
X5045711Y-9906689D01*
X4904289Y-9906689D01*
X4904289Y-10048111D01*
X5045711Y-10048111D01*
X5326253Y-9887931D02*
X5335777Y-9878408D01*
X5335777Y-9878408D02*
X5354824Y-9868884D01*
X5354824Y-9868884D02*
X5402444Y-9868884D01*
X5402444Y-9868884D02*
X5421491Y-9878408D01*
X5421491Y-9878408D02*
X5431015Y-9887931D01*
X5431015Y-9887931D02*
X5440539Y-9906979D01*
X5440539Y-9906979D02*
X5440539Y-9926027D01*
X5440539Y-9926027D02*
X5431015Y-9954598D01*
X5431015Y-9954598D02*
X5316729Y-10068884D01*
X5316729Y-10068884D02*
X5440539Y-10068884D01*
X5526253Y-10049836D02*
X5535777Y-10059360D01*
X5535777Y-10059360D02*
X5526253Y-10068884D01*
X5526253Y-10068884D02*
X5516729Y-10059360D01*
X5516729Y-10059360D02*
X5526253Y-10049836D01*
X5526253Y-10049836D02*
X5526253Y-10068884D01*
X5611967Y-9887931D02*
X5621491Y-9878408D01*
X5621491Y-9878408D02*
X5640539Y-9868884D01*
X5640539Y-9868884D02*
X5688158Y-9868884D01*
X5688158Y-9868884D02*
X5707205Y-9878408D01*
X5707205Y-9878408D02*
X5716729Y-9887931D01*
X5716729Y-9887931D02*
X5726253Y-9906979D01*
X5726253Y-9906979D02*
X5726253Y-9926027D01*
X5726253Y-9926027D02*
X5716729Y-9954598D01*
X5716729Y-9954598D02*
X5602443Y-10068884D01*
X5602443Y-10068884D02*
X5726253Y-10068884D01*
X5850062Y-9868884D02*
X5869110Y-9868884D01*
X5869110Y-9868884D02*
X5888158Y-9878408D01*
X5888158Y-9878408D02*
X5897682Y-9887931D01*
X5897682Y-9887931D02*
X5907205Y-9906979D01*
X5907205Y-9906979D02*
X5916729Y-9945074D01*
X5916729Y-9945074D02*
X5916729Y-9992693D01*
X5916729Y-9992693D02*
X5907205Y-10030789D01*
X5907205Y-10030789D02*
X5897682Y-10049836D01*
X5897682Y-10049836D02*
X5888158Y-10059360D01*
X5888158Y-10059360D02*
X5869110Y-10068884D01*
X5869110Y-10068884D02*
X5850062Y-10068884D01*
X5850062Y-10068884D02*
X5831015Y-10059360D01*
X5831015Y-10059360D02*
X5821491Y-10049836D01*
X5821491Y-10049836D02*
X5811967Y-10030789D01*
X5811967Y-10030789D02*
X5802443Y-9992693D01*
X5802443Y-9992693D02*
X5802443Y-9945074D01*
X5802443Y-9945074D02*
X5811967Y-9906979D01*
X5811967Y-9906979D02*
X5821491Y-9887931D01*
X5821491Y-9887931D02*
X5831015Y-9878408D01*
X5831015Y-9878408D02*
X5850062Y-9868884D01*
X6040539Y-9868884D02*
X6059586Y-9868884D01*
X6059586Y-9868884D02*
X6078634Y-9878408D01*
X6078634Y-9878408D02*
X6088158Y-9887931D01*
X6088158Y-9887931D02*
X6097682Y-9906979D01*
X6097682Y-9906979D02*
X6107205Y-9945074D01*
X6107205Y-9945074D02*
X6107205Y-9992693D01*
X6107205Y-9992693D02*
X6097682Y-10030789D01*
X6097682Y-10030789D02*
X6088158Y-10049836D01*
X6088158Y-10049836D02*
X6078634Y-10059360D01*
X6078634Y-10059360D02*
X6059586Y-10068884D01*
X6059586Y-10068884D02*
X6040539Y-10068884D01*
X6040539Y-10068884D02*
X6021491Y-10059360D01*
X6021491Y-10059360D02*
X6011967Y-10049836D01*
X6011967Y-10049836D02*
X6002443Y-10030789D01*
X6002443Y-10030789D02*
X5992920Y-9992693D01*
X5992920Y-9992693D02*
X5992920Y-9945074D01*
X5992920Y-9945074D02*
X6002443Y-9906979D01*
X6002443Y-9906979D02*
X6011967Y-9887931D01*
X6011967Y-9887931D02*
X6021491Y-9878408D01*
X6021491Y-9878408D02*
X6040539Y-9868884D01*
X6192920Y-10068884D02*
X6192920Y-9935550D01*
X6192920Y-9954598D02*
X6202443Y-9945074D01*
X6202443Y-9945074D02*
X6221491Y-9935550D01*
X6221491Y-9935550D02*
X6250063Y-9935550D01*
X6250063Y-9935550D02*
X6269110Y-9945074D01*
X6269110Y-9945074D02*
X6278634Y-9964122D01*
X6278634Y-9964122D02*
X6278634Y-10068884D01*
X6278634Y-9964122D02*
X6288158Y-9945074D01*
X6288158Y-9945074D02*
X6307205Y-9935550D01*
X6307205Y-9935550D02*
X6335777Y-9935550D01*
X6335777Y-9935550D02*
X6354824Y-9945074D01*
X6354824Y-9945074D02*
X6364348Y-9964122D01*
X6364348Y-9964122D02*
X6364348Y-10068884D01*
X6459586Y-10068884D02*
X6459586Y-9935550D01*
X6459586Y-9954598D02*
X6469110Y-9945074D01*
X6469110Y-9945074D02*
X6488158Y-9935550D01*
X6488158Y-9935550D02*
X6516729Y-9935550D01*
X6516729Y-9935550D02*
X6535777Y-9945074D01*
X6535777Y-9945074D02*
X6545301Y-9964122D01*
X6545301Y-9964122D02*
X6545301Y-10068884D01*
X6545301Y-9964122D02*
X6554824Y-9945074D01*
X6554824Y-9945074D02*
X6573872Y-9935550D01*
X6573872Y-9935550D02*
X6602443Y-9935550D01*
X6602443Y-9935550D02*
X6621491Y-9945074D01*
X6621491Y-9945074D02*
X6631015Y-9964122D01*
X6631015Y-9964122D02*
X6631015Y-10068884D01*
X7021491Y-9859360D02*
X6850063Y-10116503D01*
X7278634Y-9868884D02*
X7297682Y-9868884D01*
X7297682Y-9868884D02*
X7316729Y-9878408D01*
X7316729Y-9878408D02*
X7326253Y-9887931D01*
X7326253Y-9887931D02*
X7335777Y-9906979D01*
X7335777Y-9906979D02*
X7345301Y-9945074D01*
X7345301Y-9945074D02*
X7345301Y-9992693D01*
X7345301Y-9992693D02*
X7335777Y-10030789D01*
X7335777Y-10030789D02*
X7326253Y-10049836D01*
X7326253Y-10049836D02*
X7316729Y-10059360D01*
X7316729Y-10059360D02*
X7297682Y-10068884D01*
X7297682Y-10068884D02*
X7278634Y-10068884D01*
X7278634Y-10068884D02*
X7259586Y-10059360D01*
X7259586Y-10059360D02*
X7250063Y-10049836D01*
X7250063Y-10049836D02*
X7240539Y-10030789D01*
X7240539Y-10030789D02*
X7231015Y-9992693D01*
X7231015Y-9992693D02*
X7231015Y-9945074D01*
X7231015Y-9945074D02*
X7240539Y-9906979D01*
X7240539Y-9906979D02*
X7250063Y-9887931D01*
X7250063Y-9887931D02*
X7259586Y-9878408D01*
X7259586Y-9878408D02*
X7278634Y-9868884D01*
X7431015Y-10049836D02*
X7440539Y-10059360D01*
X7440539Y-10059360D02*
X7431015Y-10068884D01*
X7431015Y-10068884D02*
X7421491Y-10059360D01*
X7421491Y-10059360D02*
X7431015Y-10049836D01*
X7431015Y-10049836D02*
X7431015Y-10068884D01*
X7564348Y-9868884D02*
X7583396Y-9868884D01*
X7583396Y-9868884D02*
X7602444Y-9878408D01*
X7602444Y-9878408D02*
X7611967Y-9887931D01*
X7611967Y-9887931D02*
X7621491Y-9906979D01*
X7621491Y-9906979D02*
X7631015Y-9945074D01*
X7631015Y-9945074D02*
X7631015Y-9992693D01*
X7631015Y-9992693D02*
X7621491Y-10030789D01*
X7621491Y-10030789D02*
X7611967Y-10049836D01*
X7611967Y-10049836D02*
X7602444Y-10059360D01*
X7602444Y-10059360D02*
X7583396Y-10068884D01*
X7583396Y-10068884D02*
X7564348Y-10068884D01*
X7564348Y-10068884D02*
X7545301Y-10059360D01*
X7545301Y-10059360D02*
X7535777Y-10049836D01*
X7535777Y-10049836D02*
X7526253Y-10030789D01*
X7526253Y-10030789D02*
X7516729Y-9992693D01*
X7516729Y-9992693D02*
X7516729Y-9945074D01*
X7516729Y-9945074D02*
X7526253Y-9906979D01*
X7526253Y-9906979D02*
X7535777Y-9887931D01*
X7535777Y-9887931D02*
X7545301Y-9878408D01*
X7545301Y-9878408D02*
X7564348Y-9868884D01*
X7745301Y-9954598D02*
X7726253Y-9945074D01*
X7726253Y-9945074D02*
X7716729Y-9935550D01*
X7716729Y-9935550D02*
X7707206Y-9916503D01*
X7707206Y-9916503D02*
X7707206Y-9906979D01*
X7707206Y-9906979D02*
X7716729Y-9887931D01*
X7716729Y-9887931D02*
X7726253Y-9878408D01*
X7726253Y-9878408D02*
X7745301Y-9868884D01*
X7745301Y-9868884D02*
X7783396Y-9868884D01*
X7783396Y-9868884D02*
X7802444Y-9878408D01*
X7802444Y-9878408D02*
X7811967Y-9887931D01*
X7811967Y-9887931D02*
X7821491Y-9906979D01*
X7821491Y-9906979D02*
X7821491Y-9916503D01*
X7821491Y-9916503D02*
X7811967Y-9935550D01*
X7811967Y-9935550D02*
X7802444Y-9945074D01*
X7802444Y-9945074D02*
X7783396Y-9954598D01*
X7783396Y-9954598D02*
X7745301Y-9954598D01*
X7745301Y-9954598D02*
X7726253Y-9964122D01*
X7726253Y-9964122D02*
X7716729Y-9973646D01*
X7716729Y-9973646D02*
X7707206Y-9992693D01*
X7707206Y-9992693D02*
X7707206Y-10030789D01*
X7707206Y-10030789D02*
X7716729Y-10049836D01*
X7716729Y-10049836D02*
X7726253Y-10059360D01*
X7726253Y-10059360D02*
X7745301Y-10068884D01*
X7745301Y-10068884D02*
X7783396Y-10068884D01*
X7783396Y-10068884D02*
X7802444Y-10059360D01*
X7802444Y-10059360D02*
X7811967Y-10049836D01*
X7811967Y-10049836D02*
X7821491Y-10030789D01*
X7821491Y-10030789D02*
X7821491Y-9992693D01*
X7821491Y-9992693D02*
X7811967Y-9973646D01*
X7811967Y-9973646D02*
X7802444Y-9964122D01*
X7802444Y-9964122D02*
X7783396Y-9954598D01*
X7992920Y-9868884D02*
X7954825Y-9868884D01*
X7954825Y-9868884D02*
X7935777Y-9878408D01*
X7935777Y-9878408D02*
X7926253Y-9887931D01*
X7926253Y-9887931D02*
X7907206Y-9916503D01*
X7907206Y-9916503D02*
X7897682Y-9954598D01*
X7897682Y-9954598D02*
X7897682Y-10030789D01*
X7897682Y-10030789D02*
X7907206Y-10049836D01*
X7907206Y-10049836D02*
X7916729Y-10059360D01*
X7916729Y-10059360D02*
X7935777Y-10068884D01*
X7935777Y-10068884D02*
X7973872Y-10068884D01*
X7973872Y-10068884D02*
X7992920Y-10059360D01*
X7992920Y-10059360D02*
X8002444Y-10049836D01*
X8002444Y-10049836D02*
X8011967Y-10030789D01*
X8011967Y-10030789D02*
X8011967Y-9983170D01*
X8011967Y-9983170D02*
X8002444Y-9964122D01*
X8002444Y-9964122D02*
X7992920Y-9954598D01*
X7992920Y-9954598D02*
X7973872Y-9945074D01*
X7973872Y-9945074D02*
X7935777Y-9945074D01*
X7935777Y-9945074D02*
X7916729Y-9954598D01*
X7916729Y-9954598D02*
X7907206Y-9964122D01*
X7907206Y-9964122D02*
X7897682Y-9983170D01*
X8183396Y-9868884D02*
X8145301Y-9868884D01*
X8145301Y-9868884D02*
X8126253Y-9878408D01*
X8126253Y-9878408D02*
X8116729Y-9887931D01*
X8116729Y-9887931D02*
X8097682Y-9916503D01*
X8097682Y-9916503D02*
X8088158Y-9954598D01*
X8088158Y-9954598D02*
X8088158Y-10030789D01*
X8088158Y-10030789D02*
X8097682Y-10049836D01*
X8097682Y-10049836D02*
X8107206Y-10059360D01*
X8107206Y-10059360D02*
X8126253Y-10068884D01*
X8126253Y-10068884D02*
X8164348Y-10068884D01*
X8164348Y-10068884D02*
X8183396Y-10059360D01*
X8183396Y-10059360D02*
X8192920Y-10049836D01*
X8192920Y-10049836D02*
X8202444Y-10030789D01*
X8202444Y-10030789D02*
X8202444Y-9983170D01*
X8202444Y-9983170D02*
X8192920Y-9964122D01*
X8192920Y-9964122D02*
X8183396Y-9954598D01*
X8183396Y-9954598D02*
X8164348Y-9945074D01*
X8164348Y-9945074D02*
X8126253Y-9945074D01*
X8126253Y-9945074D02*
X8107206Y-9954598D01*
X8107206Y-9954598D02*
X8097682Y-9964122D01*
X8097682Y-9964122D02*
X8088158Y-9983170D01*
X8278634Y-9868884D02*
X8278634Y-9906979D01*
X8354825Y-9868884D02*
X8354825Y-9906979D01*
X8650063Y-10145074D02*
X8640539Y-10135550D01*
X8640539Y-10135550D02*
X8621491Y-10106979D01*
X8621491Y-10106979D02*
X8611968Y-10087931D01*
X8611968Y-10087931D02*
X8602444Y-10059360D01*
X8602444Y-10059360D02*
X8592920Y-10011741D01*
X8592920Y-10011741D02*
X8592920Y-9973646D01*
X8592920Y-9973646D02*
X8602444Y-9926027D01*
X8602444Y-9926027D02*
X8611968Y-9897455D01*
X8611968Y-9897455D02*
X8621491Y-9878408D01*
X8621491Y-9878408D02*
X8640539Y-9849836D01*
X8640539Y-9849836D02*
X8650063Y-9840312D01*
X8811968Y-9935550D02*
X8811968Y-10068884D01*
X8764349Y-9859360D02*
X8716730Y-10002217D01*
X8716730Y-10002217D02*
X8840539Y-10002217D01*
X9069111Y-10068884D02*
X9069111Y-9868884D01*
X9154825Y-10068884D02*
X9154825Y-9964122D01*
X9154825Y-9964122D02*
X9145301Y-9945074D01*
X9145301Y-9945074D02*
X9126253Y-9935550D01*
X9126253Y-9935550D02*
X9097682Y-9935550D01*
X9097682Y-9935550D02*
X9078634Y-9945074D01*
X9078634Y-9945074D02*
X9069111Y-9954598D01*
X9278634Y-10068884D02*
X9259587Y-10059360D01*
X9259587Y-10059360D02*
X9250063Y-10049836D01*
X9250063Y-10049836D02*
X9240539Y-10030789D01*
X9240539Y-10030789D02*
X9240539Y-9973646D01*
X9240539Y-9973646D02*
X9250063Y-9954598D01*
X9250063Y-9954598D02*
X9259587Y-9945074D01*
X9259587Y-9945074D02*
X9278634Y-9935550D01*
X9278634Y-9935550D02*
X9307206Y-9935550D01*
X9307206Y-9935550D02*
X9326253Y-9945074D01*
X9326253Y-9945074D02*
X9335777Y-9954598D01*
X9335777Y-9954598D02*
X9345301Y-9973646D01*
X9345301Y-9973646D02*
X9345301Y-10030789D01*
X9345301Y-10030789D02*
X9335777Y-10049836D01*
X9335777Y-10049836D02*
X9326253Y-10059360D01*
X9326253Y-10059360D02*
X9307206Y-10068884D01*
X9307206Y-10068884D02*
X9278634Y-10068884D01*
X9459587Y-10068884D02*
X9440539Y-10059360D01*
X9440539Y-10059360D02*
X9431015Y-10040312D01*
X9431015Y-10040312D02*
X9431015Y-9868884D01*
X9611968Y-10059360D02*
X9592920Y-10068884D01*
X9592920Y-10068884D02*
X9554825Y-10068884D01*
X9554825Y-10068884D02*
X9535777Y-10059360D01*
X9535777Y-10059360D02*
X9526253Y-10040312D01*
X9526253Y-10040312D02*
X9526253Y-9964122D01*
X9526253Y-9964122D02*
X9535777Y-9945074D01*
X9535777Y-9945074D02*
X9554825Y-9935550D01*
X9554825Y-9935550D02*
X9592920Y-9935550D01*
X9592920Y-9935550D02*
X9611968Y-9945074D01*
X9611968Y-9945074D02*
X9621492Y-9964122D01*
X9621492Y-9964122D02*
X9621492Y-9983170D01*
X9621492Y-9983170D02*
X9526253Y-10002217D01*
X9697682Y-10059360D02*
X9716730Y-10068884D01*
X9716730Y-10068884D02*
X9754825Y-10068884D01*
X9754825Y-10068884D02*
X9773873Y-10059360D01*
X9773873Y-10059360D02*
X9783396Y-10040312D01*
X9783396Y-10040312D02*
X9783396Y-10030789D01*
X9783396Y-10030789D02*
X9773873Y-10011741D01*
X9773873Y-10011741D02*
X9754825Y-10002217D01*
X9754825Y-10002217D02*
X9726253Y-10002217D01*
X9726253Y-10002217D02*
X9707206Y-9992693D01*
X9707206Y-9992693D02*
X9697682Y-9973646D01*
X9697682Y-9973646D02*
X9697682Y-9964122D01*
X9697682Y-9964122D02*
X9707206Y-9945074D01*
X9707206Y-9945074D02*
X9726253Y-9935550D01*
X9726253Y-9935550D02*
X9754825Y-9935550D01*
X9754825Y-9935550D02*
X9773873Y-9945074D01*
X9850063Y-10145074D02*
X9859587Y-10135550D01*
X9859587Y-10135550D02*
X9878634Y-10106979D01*
X9878634Y-10106979D02*
X9888158Y-10087931D01*
X9888158Y-10087931D02*
X9897682Y-10059360D01*
X9897682Y-10059360D02*
X9907206Y-10011741D01*
X9907206Y-10011741D02*
X9907206Y-9973646D01*
X9907206Y-9973646D02*
X9897682Y-9926027D01*
X9897682Y-9926027D02*
X9888158Y-9897455D01*
X9888158Y-9897455D02*
X9878634Y-9878408D01*
X9878634Y-9878408D02*
X9859587Y-9849836D01*
X9859587Y-9849836D02*
X9850063Y-9840312D01*
M02*
