M48
; DRILL file {KiCad 7.0.7} date Thu 31 Aug 2023 12:53:36
; FORMAT={-:-/ absolute / inch / decimal}
; #@! TF.CreationDate,2023-08-31T12:53:36+10:00
; #@! TF.GenerationSoftware,Kicad,Pcbnew,7.0.7
; #@! TF.FileFunction,NonPlated,1,2,NPTH
FMAT,2
INCH
; #@! TA.AperFunction,NonPlated,NPTH,ComponentDrill
T1C0.0669
; #@! TA.AperFunction,NonPlated,NPTH,ComponentDrill
T2C0.1575
%
G90
G05
T1
X2.425Y-1.485
X2.5187Y-2.235
X2.6125Y-2.985
X2.825Y-1.485
X2.9187Y-2.235
X3.0125Y-2.985
X3.175Y-1.485
X3.3625Y-2.235
X3.55Y-2.985
X3.575Y-1.485
X3.7625Y-2.235
X3.925Y-1.485
X3.95Y-2.985
X4.1125Y-2.235
X4.3Y-2.985
X4.325Y-1.485
X4.5125Y-2.235
X4.675Y-1.485
X4.7Y-2.985
X4.8625Y-2.235
X5.05Y-2.985
X5.075Y-1.485
X5.2625Y-2.235
X5.425Y-1.485
X5.45Y-2.985
X5.6125Y-2.235
X5.825Y-1.485
X5.9875Y-2.985
X6.0125Y-2.235
X6.175Y-1.485
X6.3625Y-2.235
X6.3875Y-2.985
X6.575Y-1.485
X6.7625Y-2.235
X6.925Y-1.485
X6.925Y-2.985
X7.1125Y-2.235
X7.325Y-1.485
X7.325Y-2.985
X7.5125Y-2.235
X7.675Y-1.485
X7.675Y-2.985
X7.8625Y-2.235
X8.075Y-1.485
X8.075Y-2.985
X8.2625Y-2.235
X8.425Y-1.485
X8.425Y-2.985
X8.825Y-1.485
X8.825Y-2.985
X8.8937Y-2.235
X9.175Y-1.485
X9.175Y-2.985
X9.2937Y-2.235
X9.575Y-1.485
X9.575Y-2.985
T2
X2.625Y-1.485
X2.7188Y-2.235
X2.8125Y-2.985
X3.375Y-1.485
X3.5625Y-2.235
X3.75Y-2.985
X4.125Y-1.485
X4.3125Y-2.235
X4.5Y-2.985
X4.875Y-1.485
X5.0625Y-2.235
X5.25Y-2.985
X5.625Y-1.485
X5.8125Y-2.235
X6.1875Y-2.985
X6.375Y-1.485
X6.5625Y-2.235
X7.125Y-1.485
X7.125Y-2.985
X7.3125Y-2.235
X7.875Y-1.485
X7.875Y-2.985
X8.0625Y-2.235
X8.625Y-1.485
X8.625Y-2.985
X9.0938Y-2.235
X9.375Y-1.485
X9.375Y-2.985
T0
M30
