M48
; DRILL file {KiCad 7.0.7} date Thu 31 Aug 2023 12:53:36
; FORMAT={-:-/ absolute / inch / decimal}
; #@! TF.CreationDate,2023-08-31T12:53:36+10:00
; #@! TF.GenerationSoftware,Kicad,Pcbnew,7.0.7
; #@! TF.FileFunction,Plated,1,2,PTH
FMAT,2
INCH
; #@! TA.AperFunction,Plated,PTH,ViaDrill
T1C0.0157
; #@! TA.AperFunction,Plated,PTH,ComponentDrill
T2C0.0394
; #@! TA.AperFunction,Plated,PTH,ComponentDrill
T3C0.0591
; #@! TA.AperFunction,Plated,PTH,ComponentDrill
T4C0.0866
%
G90
G05
T1
X9.2815Y-2.1635
X9.4685Y-1.6529
X9.5048Y-1.6706
X9.91Y-1.67
X9.9508Y-2.185
X10.47Y-1.57
T2
X10.0033Y-2.6498
X10.1033Y-2.6498
X10.2033Y-2.6498
X10.3033Y-2.6498
T3
X2.475Y-1.385
X2.5688Y-2.135
X2.6625Y-2.885
X2.725Y-1.285
X2.8188Y-2.035
X2.9125Y-2.785
X3.225Y-1.385
X3.4125Y-2.135
X3.475Y-1.285
X3.6Y-2.885
X3.6625Y-2.035
X3.85Y-2.785
X3.975Y-1.385
X4.1625Y-2.135
X4.225Y-1.285
X4.35Y-2.885
X4.4125Y-2.035
X4.6Y-2.785
X4.725Y-1.385
X4.9125Y-2.135
X4.975Y-1.285
X5.1Y-2.885
X5.1625Y-2.035
X5.35Y-2.785
X5.475Y-1.385
X5.6625Y-2.135
X5.725Y-1.285
X5.9125Y-2.035
X6.0375Y-2.885
X6.225Y-1.385
X6.2875Y-2.785
X6.4125Y-2.135
X6.475Y-1.285
X6.6625Y-2.035
X6.975Y-1.385
X6.975Y-2.885
X7.1625Y-2.135
X7.225Y-1.285
X7.225Y-2.785
X7.4125Y-2.035
X7.725Y-1.385
X7.725Y-2.885
X7.9125Y-2.135
X7.975Y-1.285
X7.975Y-2.785
X8.1625Y-2.035
X8.475Y-1.385
X8.475Y-2.885
X8.725Y-1.285
X8.725Y-2.785
X8.9437Y-2.135
X9.1937Y-2.035
X9.225Y-1.385
X9.225Y-2.885
X9.475Y-1.285
X9.475Y-2.785
T4
X2.125Y-1.61
X2.125Y-2.86
X10.6791Y-1.6043
X10.6791Y-2.8543
T0
M30
