%TF.GenerationSoftware,KiCad,Pcbnew,7.0.7*%
%TF.CreationDate,2023-08-31T12:53:40+10:00*%
%TF.ProjectId,qaz,71617a2e-6b69-4636-9164-5f7063625858,rev?*%
%TF.SameCoordinates,Original*%
%TF.FileFunction,Soldermask,Top*%
%TF.FilePolarity,Negative*%
%FSLAX46Y46*%
G04 Gerber Fmt 4.6, Leading zero omitted, Abs format (unit mm)*
G04 Created by KiCad (PCBNEW 7.0.7) date 2023-08-31 12:53:40*
%MOMM*%
%LPD*%
G01*
G04 APERTURE LIST*
%ADD10O,1.700000X1.700000*%
%ADD11R,1.700000X1.700000*%
%ADD12C,1.700000*%
%ADD13C,4.000000*%
%ADD14C,2.200000*%
%ADD15C,3.500000*%
G04 APERTURE END LIST*
D10*
%TO.C,J1*%
X254085000Y-67305000D03*
X256625000Y-67305000D03*
X259165000Y-67305000D03*
D11*
X261705000Y-67305000D03*
%TD*%
D12*
%TO.C,SW24*%
X152082500Y-75819000D03*
D13*
X157162500Y-75819000D03*
D12*
X162242500Y-75819000D03*
D14*
X159702500Y-70739000D03*
X153352500Y-73279000D03*
%TD*%
D12*
%TO.C,SW11*%
X63976250Y-56769000D03*
D13*
X69056250Y-56769000D03*
D12*
X74136250Y-56769000D03*
D14*
X71596250Y-51689000D03*
X65246250Y-54229000D03*
%TD*%
D12*
%TO.C,SW27*%
X213995000Y-75819000D03*
D13*
X219075000Y-75819000D03*
D12*
X224155000Y-75819000D03*
D14*
X221615000Y-70739000D03*
X215265000Y-73279000D03*
%TD*%
D12*
%TO.C,SW19*%
X225901250Y-56769000D03*
D13*
X230981250Y-56769000D03*
D12*
X236061250Y-56769000D03*
D14*
X233521250Y-51689000D03*
X227171250Y-54229000D03*
%TD*%
D12*
%TO.C,SW21*%
X90170000Y-75819000D03*
D13*
X95250000Y-75819000D03*
D12*
X100330000Y-75819000D03*
D14*
X97790000Y-70739000D03*
X91440000Y-73279000D03*
%TD*%
D15*
%TO.C,REF\u002A\u002A*%
X271250000Y-72500000D03*
%TD*%
D12*
%TO.C,SW5*%
X137795000Y-37719000D03*
D13*
X142875000Y-37719000D03*
D12*
X147955000Y-37719000D03*
D14*
X145415000Y-32639000D03*
X139065000Y-35179000D03*
%TD*%
D12*
%TO.C,SW7*%
X175895000Y-37719000D03*
D13*
X180975000Y-37719000D03*
D12*
X186055000Y-37719000D03*
D14*
X183515000Y-32639000D03*
X177165000Y-35179000D03*
%TD*%
D15*
%TO.C,REF\u002A\u002A*%
X53975000Y-72644000D03*
%TD*%
D12*
%TO.C,SW1*%
X61595000Y-37719000D03*
D13*
X66675000Y-37719000D03*
D12*
X71755000Y-37719000D03*
D14*
X69215000Y-32639000D03*
X62865000Y-35179000D03*
%TD*%
D12*
%TO.C,SW26*%
X194945000Y-75819000D03*
D13*
X200025000Y-75819000D03*
D12*
X205105000Y-75819000D03*
D14*
X202565000Y-70739000D03*
X196215000Y-73279000D03*
%TD*%
D12*
%TO.C,SW9*%
X213995000Y-37719000D03*
D13*
X219075000Y-37719000D03*
D12*
X224155000Y-37719000D03*
D14*
X221615000Y-32639000D03*
X215265000Y-35179000D03*
%TD*%
D12*
%TO.C,SW18*%
X199707500Y-56769000D03*
D13*
X204787500Y-56769000D03*
D12*
X209867500Y-56769000D03*
D14*
X207327500Y-51689000D03*
X200977500Y-54229000D03*
%TD*%
D12*
%TO.C,SW13*%
X104457500Y-56769000D03*
D13*
X109537500Y-56769000D03*
D12*
X114617500Y-56769000D03*
D14*
X112077500Y-51689000D03*
X105727500Y-54229000D03*
%TD*%
D12*
%TO.C,SW2*%
X80645000Y-37719000D03*
D13*
X85725000Y-37719000D03*
D12*
X90805000Y-37719000D03*
D14*
X88265000Y-32639000D03*
X81915000Y-35179000D03*
%TD*%
D12*
%TO.C,SW12*%
X85407500Y-56769000D03*
D13*
X90487500Y-56769000D03*
D12*
X95567500Y-56769000D03*
D14*
X93027500Y-51689000D03*
X86677500Y-54229000D03*
%TD*%
D12*
%TO.C,SW20*%
X66357500Y-75819000D03*
D13*
X71437500Y-75819000D03*
D12*
X76517500Y-75819000D03*
D14*
X73977500Y-70739000D03*
X67627500Y-73279000D03*
%TD*%
D12*
%TO.C,SW17*%
X180657500Y-56769000D03*
D13*
X185737500Y-56769000D03*
D12*
X190817500Y-56769000D03*
D14*
X188277500Y-51689000D03*
X181927500Y-54229000D03*
%TD*%
D12*
%TO.C,SW28*%
X233045000Y-75819000D03*
D13*
X238125000Y-75819000D03*
D12*
X243205000Y-75819000D03*
D14*
X240665000Y-70739000D03*
X234315000Y-73279000D03*
%TD*%
D12*
%TO.C,SW10*%
X233045000Y-37719000D03*
D13*
X238125000Y-37719000D03*
D12*
X243205000Y-37719000D03*
D14*
X240665000Y-32639000D03*
X234315000Y-35179000D03*
%TD*%
D12*
%TO.C,SW6*%
X156845000Y-37719000D03*
D13*
X161925000Y-37719000D03*
D12*
X167005000Y-37719000D03*
D14*
X164465000Y-32639000D03*
X158115000Y-35179000D03*
%TD*%
D15*
%TO.C,REF\u002A\u002A*%
X53975000Y-40894000D03*
%TD*%
D12*
%TO.C,SW16*%
X161607500Y-56769000D03*
D13*
X166687500Y-56769000D03*
D12*
X171767500Y-56769000D03*
D14*
X169227500Y-51689000D03*
X162877500Y-54229000D03*
%TD*%
D12*
%TO.C,SW14*%
X123507500Y-56769000D03*
D13*
X128587500Y-56769000D03*
D12*
X133667500Y-56769000D03*
D14*
X131127500Y-51689000D03*
X124777500Y-54229000D03*
%TD*%
D15*
%TO.C,REF\u002A\u002A*%
X271250000Y-40750000D03*
%TD*%
D12*
%TO.C,SW22*%
X109220000Y-75819000D03*
D13*
X114300000Y-75819000D03*
D12*
X119380000Y-75819000D03*
D14*
X116840000Y-70739000D03*
X110490000Y-73279000D03*
%TD*%
D12*
%TO.C,SW23*%
X128270000Y-75819000D03*
D13*
X133350000Y-75819000D03*
D12*
X138430000Y-75819000D03*
D14*
X135890000Y-70739000D03*
X129540000Y-73279000D03*
%TD*%
D12*
%TO.C,SW3*%
X99695000Y-37719000D03*
D13*
X104775000Y-37719000D03*
D12*
X109855000Y-37719000D03*
D14*
X107315000Y-32639000D03*
X100965000Y-35179000D03*
%TD*%
D12*
%TO.C,SW4*%
X118745000Y-37719000D03*
D13*
X123825000Y-37719000D03*
D12*
X128905000Y-37719000D03*
D14*
X126365000Y-32639000D03*
X120015000Y-35179000D03*
%TD*%
D12*
%TO.C,SW8*%
X194945000Y-37719000D03*
D13*
X200025000Y-37719000D03*
D12*
X205105000Y-37719000D03*
D14*
X202565000Y-32639000D03*
X196215000Y-35179000D03*
%TD*%
D12*
%TO.C,SW15*%
X142557500Y-56769000D03*
D13*
X147637500Y-56769000D03*
D12*
X152717500Y-56769000D03*
D14*
X150177500Y-51689000D03*
X143827500Y-54229000D03*
%TD*%
D12*
%TO.C,SW25*%
X175895000Y-75819000D03*
D13*
X180975000Y-75819000D03*
D12*
X186055000Y-75819000D03*
D14*
X183515000Y-70739000D03*
X177165000Y-73279000D03*
%TD*%
M02*
