%TF.GenerationSoftware,KiCad,Pcbnew,7.0.7*%
%TF.CreationDate,2023-08-31T12:53:39+10:00*%
%TF.ProjectId,qaz,71617a2e-6b69-4636-9164-5f7063625858,rev?*%
%TF.SameCoordinates,Original*%
%TF.FileFunction,Legend,Bot*%
%TF.FilePolarity,Positive*%
%FSLAX46Y46*%
G04 Gerber Fmt 4.6, Leading zero omitted, Abs format (unit mm)*
G04 Created by KiCad (PCBNEW 7.0.7) date 2023-08-31 12:53:39*
%MOMM*%
%LPD*%
G01*
G04 APERTURE LIST*
%ADD10C,0.150000*%
%ADD11C,0.120000*%
G04 APERTURE END LIST*
D10*
X116884819Y-56098405D02*
X115884819Y-56098405D01*
X115884819Y-56098405D02*
X115884819Y-56336500D01*
X115884819Y-56336500D02*
X115932438Y-56479357D01*
X115932438Y-56479357D02*
X116027676Y-56574595D01*
X116027676Y-56574595D02*
X116122914Y-56622214D01*
X116122914Y-56622214D02*
X116313390Y-56669833D01*
X116313390Y-56669833D02*
X116456247Y-56669833D01*
X116456247Y-56669833D02*
X116646723Y-56622214D01*
X116646723Y-56622214D02*
X116741961Y-56574595D01*
X116741961Y-56574595D02*
X116837200Y-56479357D01*
X116837200Y-56479357D02*
X116884819Y-56336500D01*
X116884819Y-56336500D02*
X116884819Y-56098405D01*
X115884819Y-57003167D02*
X115884819Y-57669833D01*
X115884819Y-57669833D02*
X116884819Y-57241262D01*
X141009819Y-74672214D02*
X140009819Y-74672214D01*
X140009819Y-74672214D02*
X140009819Y-74910309D01*
X140009819Y-74910309D02*
X140057438Y-75053166D01*
X140057438Y-75053166D02*
X140152676Y-75148404D01*
X140152676Y-75148404D02*
X140247914Y-75196023D01*
X140247914Y-75196023D02*
X140438390Y-75243642D01*
X140438390Y-75243642D02*
X140581247Y-75243642D01*
X140581247Y-75243642D02*
X140771723Y-75196023D01*
X140771723Y-75196023D02*
X140866961Y-75148404D01*
X140866961Y-75148404D02*
X140962200Y-75053166D01*
X140962200Y-75053166D02*
X141009819Y-74910309D01*
X141009819Y-74910309D02*
X141009819Y-74672214D01*
X141009819Y-76196023D02*
X141009819Y-75624595D01*
X141009819Y-75910309D02*
X140009819Y-75910309D01*
X140009819Y-75910309D02*
X140152676Y-75815071D01*
X140152676Y-75815071D02*
X140247914Y-75719833D01*
X140247914Y-75719833D02*
X140295533Y-75624595D01*
X140009819Y-76529357D02*
X140009819Y-77148404D01*
X140009819Y-77148404D02*
X140390771Y-76815071D01*
X140390771Y-76815071D02*
X140390771Y-76957928D01*
X140390771Y-76957928D02*
X140438390Y-77053166D01*
X140438390Y-77053166D02*
X140486009Y-77100785D01*
X140486009Y-77100785D02*
X140581247Y-77148404D01*
X140581247Y-77148404D02*
X140819342Y-77148404D01*
X140819342Y-77148404D02*
X140914580Y-77100785D01*
X140914580Y-77100785D02*
X140962200Y-77053166D01*
X140962200Y-77053166D02*
X141009819Y-76957928D01*
X141009819Y-76957928D02*
X141009819Y-76672214D01*
X141009819Y-76672214D02*
X140962200Y-76576976D01*
X140962200Y-76576976D02*
X140914580Y-76529357D01*
X112434819Y-37048405D02*
X111434819Y-37048405D01*
X111434819Y-37048405D02*
X111434819Y-37286500D01*
X111434819Y-37286500D02*
X111482438Y-37429357D01*
X111482438Y-37429357D02*
X111577676Y-37524595D01*
X111577676Y-37524595D02*
X111672914Y-37572214D01*
X111672914Y-37572214D02*
X111863390Y-37619833D01*
X111863390Y-37619833D02*
X112006247Y-37619833D01*
X112006247Y-37619833D02*
X112196723Y-37572214D01*
X112196723Y-37572214D02*
X112291961Y-37524595D01*
X112291961Y-37524595D02*
X112387200Y-37429357D01*
X112387200Y-37429357D02*
X112434819Y-37286500D01*
X112434819Y-37286500D02*
X112434819Y-37048405D01*
X111530057Y-38000786D02*
X111482438Y-38048405D01*
X111482438Y-38048405D02*
X111434819Y-38143643D01*
X111434819Y-38143643D02*
X111434819Y-38381738D01*
X111434819Y-38381738D02*
X111482438Y-38476976D01*
X111482438Y-38476976D02*
X111530057Y-38524595D01*
X111530057Y-38524595D02*
X111625295Y-38572214D01*
X111625295Y-38572214D02*
X111720533Y-38572214D01*
X111720533Y-38572214D02*
X111863390Y-38524595D01*
X111863390Y-38524595D02*
X112434819Y-37953167D01*
X112434819Y-37953167D02*
X112434819Y-38572214D01*
X121959819Y-74672214D02*
X120959819Y-74672214D01*
X120959819Y-74672214D02*
X120959819Y-74910309D01*
X120959819Y-74910309D02*
X121007438Y-75053166D01*
X121007438Y-75053166D02*
X121102676Y-75148404D01*
X121102676Y-75148404D02*
X121197914Y-75196023D01*
X121197914Y-75196023D02*
X121388390Y-75243642D01*
X121388390Y-75243642D02*
X121531247Y-75243642D01*
X121531247Y-75243642D02*
X121721723Y-75196023D01*
X121721723Y-75196023D02*
X121816961Y-75148404D01*
X121816961Y-75148404D02*
X121912200Y-75053166D01*
X121912200Y-75053166D02*
X121959819Y-74910309D01*
X121959819Y-74910309D02*
X121959819Y-74672214D01*
X121959819Y-76196023D02*
X121959819Y-75624595D01*
X121959819Y-75910309D02*
X120959819Y-75910309D01*
X120959819Y-75910309D02*
X121102676Y-75815071D01*
X121102676Y-75815071D02*
X121197914Y-75719833D01*
X121197914Y-75719833D02*
X121245533Y-75624595D01*
X121055057Y-76576976D02*
X121007438Y-76624595D01*
X121007438Y-76624595D02*
X120959819Y-76719833D01*
X120959819Y-76719833D02*
X120959819Y-76957928D01*
X120959819Y-76957928D02*
X121007438Y-77053166D01*
X121007438Y-77053166D02*
X121055057Y-77100785D01*
X121055057Y-77100785D02*
X121150295Y-77148404D01*
X121150295Y-77148404D02*
X121245533Y-77148404D01*
X121245533Y-77148404D02*
X121388390Y-77100785D01*
X121388390Y-77100785D02*
X121959819Y-76529357D01*
X121959819Y-76529357D02*
X121959819Y-77148404D01*
X188639819Y-74672214D02*
X187639819Y-74672214D01*
X187639819Y-74672214D02*
X187639819Y-74910309D01*
X187639819Y-74910309D02*
X187687438Y-75053166D01*
X187687438Y-75053166D02*
X187782676Y-75148404D01*
X187782676Y-75148404D02*
X187877914Y-75196023D01*
X187877914Y-75196023D02*
X188068390Y-75243642D01*
X188068390Y-75243642D02*
X188211247Y-75243642D01*
X188211247Y-75243642D02*
X188401723Y-75196023D01*
X188401723Y-75196023D02*
X188496961Y-75148404D01*
X188496961Y-75148404D02*
X188592200Y-75053166D01*
X188592200Y-75053166D02*
X188639819Y-74910309D01*
X188639819Y-74910309D02*
X188639819Y-74672214D01*
X188639819Y-76196023D02*
X188639819Y-75624595D01*
X188639819Y-75910309D02*
X187639819Y-75910309D01*
X187639819Y-75910309D02*
X187782676Y-75815071D01*
X187782676Y-75815071D02*
X187877914Y-75719833D01*
X187877914Y-75719833D02*
X187925533Y-75624595D01*
X187973152Y-77053166D02*
X188639819Y-77053166D01*
X187592200Y-76815071D02*
X188306485Y-76576976D01*
X188306485Y-76576976D02*
X188306485Y-77196023D01*
X154984819Y-56098405D02*
X153984819Y-56098405D01*
X153984819Y-56098405D02*
X153984819Y-56336500D01*
X153984819Y-56336500D02*
X154032438Y-56479357D01*
X154032438Y-56479357D02*
X154127676Y-56574595D01*
X154127676Y-56574595D02*
X154222914Y-56622214D01*
X154222914Y-56622214D02*
X154413390Y-56669833D01*
X154413390Y-56669833D02*
X154556247Y-56669833D01*
X154556247Y-56669833D02*
X154746723Y-56622214D01*
X154746723Y-56622214D02*
X154841961Y-56574595D01*
X154841961Y-56574595D02*
X154937200Y-56479357D01*
X154937200Y-56479357D02*
X154984819Y-56336500D01*
X154984819Y-56336500D02*
X154984819Y-56098405D01*
X154413390Y-57241262D02*
X154365771Y-57146024D01*
X154365771Y-57146024D02*
X154318152Y-57098405D01*
X154318152Y-57098405D02*
X154222914Y-57050786D01*
X154222914Y-57050786D02*
X154175295Y-57050786D01*
X154175295Y-57050786D02*
X154080057Y-57098405D01*
X154080057Y-57098405D02*
X154032438Y-57146024D01*
X154032438Y-57146024D02*
X153984819Y-57241262D01*
X153984819Y-57241262D02*
X153984819Y-57431738D01*
X153984819Y-57431738D02*
X154032438Y-57526976D01*
X154032438Y-57526976D02*
X154080057Y-57574595D01*
X154080057Y-57574595D02*
X154175295Y-57622214D01*
X154175295Y-57622214D02*
X154222914Y-57622214D01*
X154222914Y-57622214D02*
X154318152Y-57574595D01*
X154318152Y-57574595D02*
X154365771Y-57526976D01*
X154365771Y-57526976D02*
X154413390Y-57431738D01*
X154413390Y-57431738D02*
X154413390Y-57241262D01*
X154413390Y-57241262D02*
X154461009Y-57146024D01*
X154461009Y-57146024D02*
X154508628Y-57098405D01*
X154508628Y-57098405D02*
X154603866Y-57050786D01*
X154603866Y-57050786D02*
X154794342Y-57050786D01*
X154794342Y-57050786D02*
X154889580Y-57098405D01*
X154889580Y-57098405D02*
X154937200Y-57146024D01*
X154937200Y-57146024D02*
X154984819Y-57241262D01*
X154984819Y-57241262D02*
X154984819Y-57431738D01*
X154984819Y-57431738D02*
X154937200Y-57526976D01*
X154937200Y-57526976D02*
X154889580Y-57574595D01*
X154889580Y-57574595D02*
X154794342Y-57622214D01*
X154794342Y-57622214D02*
X154603866Y-57622214D01*
X154603866Y-57622214D02*
X154508628Y-57574595D01*
X154508628Y-57574595D02*
X154461009Y-57526976D01*
X154461009Y-57526976D02*
X154413390Y-57431738D01*
X212129819Y-55622214D02*
X211129819Y-55622214D01*
X211129819Y-55622214D02*
X211129819Y-55860309D01*
X211129819Y-55860309D02*
X211177438Y-56003166D01*
X211177438Y-56003166D02*
X211272676Y-56098404D01*
X211272676Y-56098404D02*
X211367914Y-56146023D01*
X211367914Y-56146023D02*
X211558390Y-56193642D01*
X211558390Y-56193642D02*
X211701247Y-56193642D01*
X211701247Y-56193642D02*
X211891723Y-56146023D01*
X211891723Y-56146023D02*
X211986961Y-56098404D01*
X211986961Y-56098404D02*
X212082200Y-56003166D01*
X212082200Y-56003166D02*
X212129819Y-55860309D01*
X212129819Y-55860309D02*
X212129819Y-55622214D01*
X212129819Y-57146023D02*
X212129819Y-56574595D01*
X212129819Y-56860309D02*
X211129819Y-56860309D01*
X211129819Y-56860309D02*
X211272676Y-56765071D01*
X211272676Y-56765071D02*
X211367914Y-56669833D01*
X211367914Y-56669833D02*
X211415533Y-56574595D01*
X211129819Y-57765071D02*
X211129819Y-57860309D01*
X211129819Y-57860309D02*
X211177438Y-57955547D01*
X211177438Y-57955547D02*
X211225057Y-58003166D01*
X211225057Y-58003166D02*
X211320295Y-58050785D01*
X211320295Y-58050785D02*
X211510771Y-58098404D01*
X211510771Y-58098404D02*
X211748866Y-58098404D01*
X211748866Y-58098404D02*
X211939342Y-58050785D01*
X211939342Y-58050785D02*
X212034580Y-58003166D01*
X212034580Y-58003166D02*
X212082200Y-57955547D01*
X212082200Y-57955547D02*
X212129819Y-57860309D01*
X212129819Y-57860309D02*
X212129819Y-57765071D01*
X212129819Y-57765071D02*
X212082200Y-57669833D01*
X212082200Y-57669833D02*
X212034580Y-57622214D01*
X212034580Y-57622214D02*
X211939342Y-57574595D01*
X211939342Y-57574595D02*
X211748866Y-57526976D01*
X211748866Y-57526976D02*
X211510771Y-57526976D01*
X211510771Y-57526976D02*
X211320295Y-57574595D01*
X211320295Y-57574595D02*
X211225057Y-57622214D01*
X211225057Y-57622214D02*
X211177438Y-57669833D01*
X211177438Y-57669833D02*
X211129819Y-57765071D01*
X226739819Y-74672214D02*
X225739819Y-74672214D01*
X225739819Y-74672214D02*
X225739819Y-74910309D01*
X225739819Y-74910309D02*
X225787438Y-75053166D01*
X225787438Y-75053166D02*
X225882676Y-75148404D01*
X225882676Y-75148404D02*
X225977914Y-75196023D01*
X225977914Y-75196023D02*
X226168390Y-75243642D01*
X226168390Y-75243642D02*
X226311247Y-75243642D01*
X226311247Y-75243642D02*
X226501723Y-75196023D01*
X226501723Y-75196023D02*
X226596961Y-75148404D01*
X226596961Y-75148404D02*
X226692200Y-75053166D01*
X226692200Y-75053166D02*
X226739819Y-74910309D01*
X226739819Y-74910309D02*
X226739819Y-74672214D01*
X226739819Y-76196023D02*
X226739819Y-75624595D01*
X226739819Y-75910309D02*
X225739819Y-75910309D01*
X225739819Y-75910309D02*
X225882676Y-75815071D01*
X225882676Y-75815071D02*
X225977914Y-75719833D01*
X225977914Y-75719833D02*
X226025533Y-75624595D01*
X225739819Y-77100785D02*
X225739819Y-76624595D01*
X225739819Y-76624595D02*
X226216009Y-76576976D01*
X226216009Y-76576976D02*
X226168390Y-76624595D01*
X226168390Y-76624595D02*
X226120771Y-76719833D01*
X226120771Y-76719833D02*
X226120771Y-76957928D01*
X226120771Y-76957928D02*
X226168390Y-77053166D01*
X226168390Y-77053166D02*
X226216009Y-77100785D01*
X226216009Y-77100785D02*
X226311247Y-77148404D01*
X226311247Y-77148404D02*
X226549342Y-77148404D01*
X226549342Y-77148404D02*
X226644580Y-77100785D01*
X226644580Y-77100785D02*
X226692200Y-77053166D01*
X226692200Y-77053166D02*
X226739819Y-76957928D01*
X226739819Y-76957928D02*
X226739819Y-76719833D01*
X226739819Y-76719833D02*
X226692200Y-76624595D01*
X226692200Y-76624595D02*
X226644580Y-76576976D01*
X226739819Y-37048405D02*
X225739819Y-37048405D01*
X225739819Y-37048405D02*
X225739819Y-37286500D01*
X225739819Y-37286500D02*
X225787438Y-37429357D01*
X225787438Y-37429357D02*
X225882676Y-37524595D01*
X225882676Y-37524595D02*
X225977914Y-37572214D01*
X225977914Y-37572214D02*
X226168390Y-37619833D01*
X226168390Y-37619833D02*
X226311247Y-37619833D01*
X226311247Y-37619833D02*
X226501723Y-37572214D01*
X226501723Y-37572214D02*
X226596961Y-37524595D01*
X226596961Y-37524595D02*
X226692200Y-37429357D01*
X226692200Y-37429357D02*
X226739819Y-37286500D01*
X226739819Y-37286500D02*
X226739819Y-37048405D01*
X225739819Y-38524595D02*
X225739819Y-38048405D01*
X225739819Y-38048405D02*
X226216009Y-38000786D01*
X226216009Y-38000786D02*
X226168390Y-38048405D01*
X226168390Y-38048405D02*
X226120771Y-38143643D01*
X226120771Y-38143643D02*
X226120771Y-38381738D01*
X226120771Y-38381738D02*
X226168390Y-38476976D01*
X226168390Y-38476976D02*
X226216009Y-38524595D01*
X226216009Y-38524595D02*
X226311247Y-38572214D01*
X226311247Y-38572214D02*
X226549342Y-38572214D01*
X226549342Y-38572214D02*
X226644580Y-38524595D01*
X226644580Y-38524595D02*
X226692200Y-38476976D01*
X226692200Y-38476976D02*
X226739819Y-38381738D01*
X226739819Y-38381738D02*
X226739819Y-38143643D01*
X226739819Y-38143643D02*
X226692200Y-38048405D01*
X226692200Y-38048405D02*
X226644580Y-38000786D01*
X78784819Y-56098405D02*
X77784819Y-56098405D01*
X77784819Y-56098405D02*
X77784819Y-56336500D01*
X77784819Y-56336500D02*
X77832438Y-56479357D01*
X77832438Y-56479357D02*
X77927676Y-56574595D01*
X77927676Y-56574595D02*
X78022914Y-56622214D01*
X78022914Y-56622214D02*
X78213390Y-56669833D01*
X78213390Y-56669833D02*
X78356247Y-56669833D01*
X78356247Y-56669833D02*
X78546723Y-56622214D01*
X78546723Y-56622214D02*
X78641961Y-56574595D01*
X78641961Y-56574595D02*
X78737200Y-56479357D01*
X78737200Y-56479357D02*
X78784819Y-56336500D01*
X78784819Y-56336500D02*
X78784819Y-56098405D01*
X77784819Y-57526976D02*
X77784819Y-57336500D01*
X77784819Y-57336500D02*
X77832438Y-57241262D01*
X77832438Y-57241262D02*
X77880057Y-57193643D01*
X77880057Y-57193643D02*
X78022914Y-57098405D01*
X78022914Y-57098405D02*
X78213390Y-57050786D01*
X78213390Y-57050786D02*
X78594342Y-57050786D01*
X78594342Y-57050786D02*
X78689580Y-57098405D01*
X78689580Y-57098405D02*
X78737200Y-57146024D01*
X78737200Y-57146024D02*
X78784819Y-57241262D01*
X78784819Y-57241262D02*
X78784819Y-57431738D01*
X78784819Y-57431738D02*
X78737200Y-57526976D01*
X78737200Y-57526976D02*
X78689580Y-57574595D01*
X78689580Y-57574595D02*
X78594342Y-57622214D01*
X78594342Y-57622214D02*
X78356247Y-57622214D01*
X78356247Y-57622214D02*
X78261009Y-57574595D01*
X78261009Y-57574595D02*
X78213390Y-57526976D01*
X78213390Y-57526976D02*
X78165771Y-57431738D01*
X78165771Y-57431738D02*
X78165771Y-57241262D01*
X78165771Y-57241262D02*
X78213390Y-57146024D01*
X78213390Y-57146024D02*
X78261009Y-57098405D01*
X78261009Y-57098405D02*
X78356247Y-57050786D01*
X74334819Y-37048405D02*
X73334819Y-37048405D01*
X73334819Y-37048405D02*
X73334819Y-37286500D01*
X73334819Y-37286500D02*
X73382438Y-37429357D01*
X73382438Y-37429357D02*
X73477676Y-37524595D01*
X73477676Y-37524595D02*
X73572914Y-37572214D01*
X73572914Y-37572214D02*
X73763390Y-37619833D01*
X73763390Y-37619833D02*
X73906247Y-37619833D01*
X73906247Y-37619833D02*
X74096723Y-37572214D01*
X74096723Y-37572214D02*
X74191961Y-37524595D01*
X74191961Y-37524595D02*
X74287200Y-37429357D01*
X74287200Y-37429357D02*
X74334819Y-37286500D01*
X74334819Y-37286500D02*
X74334819Y-37048405D01*
X74334819Y-38572214D02*
X74334819Y-38000786D01*
X74334819Y-38286500D02*
X73334819Y-38286500D01*
X73334819Y-38286500D02*
X73477676Y-38191262D01*
X73477676Y-38191262D02*
X73572914Y-38096024D01*
X73572914Y-38096024D02*
X73620533Y-38000786D01*
X193084819Y-56098405D02*
X192084819Y-56098405D01*
X192084819Y-56098405D02*
X192084819Y-56336500D01*
X192084819Y-56336500D02*
X192132438Y-56479357D01*
X192132438Y-56479357D02*
X192227676Y-56574595D01*
X192227676Y-56574595D02*
X192322914Y-56622214D01*
X192322914Y-56622214D02*
X192513390Y-56669833D01*
X192513390Y-56669833D02*
X192656247Y-56669833D01*
X192656247Y-56669833D02*
X192846723Y-56622214D01*
X192846723Y-56622214D02*
X192941961Y-56574595D01*
X192941961Y-56574595D02*
X193037200Y-56479357D01*
X193037200Y-56479357D02*
X193084819Y-56336500D01*
X193084819Y-56336500D02*
X193084819Y-56098405D01*
X193084819Y-57146024D02*
X193084819Y-57336500D01*
X193084819Y-57336500D02*
X193037200Y-57431738D01*
X193037200Y-57431738D02*
X192989580Y-57479357D01*
X192989580Y-57479357D02*
X192846723Y-57574595D01*
X192846723Y-57574595D02*
X192656247Y-57622214D01*
X192656247Y-57622214D02*
X192275295Y-57622214D01*
X192275295Y-57622214D02*
X192180057Y-57574595D01*
X192180057Y-57574595D02*
X192132438Y-57526976D01*
X192132438Y-57526976D02*
X192084819Y-57431738D01*
X192084819Y-57431738D02*
X192084819Y-57241262D01*
X192084819Y-57241262D02*
X192132438Y-57146024D01*
X192132438Y-57146024D02*
X192180057Y-57098405D01*
X192180057Y-57098405D02*
X192275295Y-57050786D01*
X192275295Y-57050786D02*
X192513390Y-57050786D01*
X192513390Y-57050786D02*
X192608628Y-57098405D01*
X192608628Y-57098405D02*
X192656247Y-57146024D01*
X192656247Y-57146024D02*
X192703866Y-57241262D01*
X192703866Y-57241262D02*
X192703866Y-57431738D01*
X192703866Y-57431738D02*
X192656247Y-57526976D01*
X192656247Y-57526976D02*
X192608628Y-57574595D01*
X192608628Y-57574595D02*
X192513390Y-57622214D01*
X83859819Y-74672214D02*
X82859819Y-74672214D01*
X82859819Y-74672214D02*
X82859819Y-74910309D01*
X82859819Y-74910309D02*
X82907438Y-75053166D01*
X82907438Y-75053166D02*
X83002676Y-75148404D01*
X83002676Y-75148404D02*
X83097914Y-75196023D01*
X83097914Y-75196023D02*
X83288390Y-75243642D01*
X83288390Y-75243642D02*
X83431247Y-75243642D01*
X83431247Y-75243642D02*
X83621723Y-75196023D01*
X83621723Y-75196023D02*
X83716961Y-75148404D01*
X83716961Y-75148404D02*
X83812200Y-75053166D01*
X83812200Y-75053166D02*
X83859819Y-74910309D01*
X83859819Y-74910309D02*
X83859819Y-74672214D01*
X83859819Y-76196023D02*
X83859819Y-75624595D01*
X83859819Y-75910309D02*
X82859819Y-75910309D01*
X82859819Y-75910309D02*
X83002676Y-75815071D01*
X83002676Y-75815071D02*
X83097914Y-75719833D01*
X83097914Y-75719833D02*
X83145533Y-75624595D01*
X83859819Y-77148404D02*
X83859819Y-76576976D01*
X83859819Y-76862690D02*
X82859819Y-76862690D01*
X82859819Y-76862690D02*
X83002676Y-76767452D01*
X83002676Y-76767452D02*
X83097914Y-76672214D01*
X83097914Y-76672214D02*
X83145533Y-76576976D01*
X188639819Y-37048405D02*
X187639819Y-37048405D01*
X187639819Y-37048405D02*
X187639819Y-37286500D01*
X187639819Y-37286500D02*
X187687438Y-37429357D01*
X187687438Y-37429357D02*
X187782676Y-37524595D01*
X187782676Y-37524595D02*
X187877914Y-37572214D01*
X187877914Y-37572214D02*
X188068390Y-37619833D01*
X188068390Y-37619833D02*
X188211247Y-37619833D01*
X188211247Y-37619833D02*
X188401723Y-37572214D01*
X188401723Y-37572214D02*
X188496961Y-37524595D01*
X188496961Y-37524595D02*
X188592200Y-37429357D01*
X188592200Y-37429357D02*
X188639819Y-37286500D01*
X188639819Y-37286500D02*
X188639819Y-37048405D01*
X187973152Y-38476976D02*
X188639819Y-38476976D01*
X187592200Y-38238881D02*
X188306485Y-38000786D01*
X188306485Y-38000786D02*
X188306485Y-38619833D01*
X150539819Y-37048405D02*
X149539819Y-37048405D01*
X149539819Y-37048405D02*
X149539819Y-37286500D01*
X149539819Y-37286500D02*
X149587438Y-37429357D01*
X149587438Y-37429357D02*
X149682676Y-37524595D01*
X149682676Y-37524595D02*
X149777914Y-37572214D01*
X149777914Y-37572214D02*
X149968390Y-37619833D01*
X149968390Y-37619833D02*
X150111247Y-37619833D01*
X150111247Y-37619833D02*
X150301723Y-37572214D01*
X150301723Y-37572214D02*
X150396961Y-37524595D01*
X150396961Y-37524595D02*
X150492200Y-37429357D01*
X150492200Y-37429357D02*
X150539819Y-37286500D01*
X150539819Y-37286500D02*
X150539819Y-37048405D01*
X149539819Y-37953167D02*
X149539819Y-38572214D01*
X149539819Y-38572214D02*
X149920771Y-38238881D01*
X149920771Y-38238881D02*
X149920771Y-38381738D01*
X149920771Y-38381738D02*
X149968390Y-38476976D01*
X149968390Y-38476976D02*
X150016009Y-38524595D01*
X150016009Y-38524595D02*
X150111247Y-38572214D01*
X150111247Y-38572214D02*
X150349342Y-38572214D01*
X150349342Y-38572214D02*
X150444580Y-38524595D01*
X150444580Y-38524595D02*
X150492200Y-38476976D01*
X150492200Y-38476976D02*
X150539819Y-38381738D01*
X150539819Y-38381738D02*
X150539819Y-38096024D01*
X150539819Y-38096024D02*
X150492200Y-38000786D01*
X150492200Y-38000786D02*
X150444580Y-37953167D01*
D11*
%TO.C,D7*%
X120390000Y-56836500D02*
X120390000Y-56186500D01*
X120390000Y-56836500D02*
X120390000Y-57486500D01*
X117270000Y-56836500D02*
X117270000Y-55161500D01*
X117270000Y-56836500D02*
X117270000Y-57486500D01*
%TO.C,D13*%
X144515000Y-75886500D02*
X144515000Y-75236500D01*
X144515000Y-75886500D02*
X144515000Y-76536500D01*
X141395000Y-75886500D02*
X141395000Y-74211500D01*
X141395000Y-75886500D02*
X141395000Y-76536500D01*
%TO.C,D2*%
X115940000Y-37786500D02*
X115940000Y-37136500D01*
X115940000Y-37786500D02*
X115940000Y-38436500D01*
X112820000Y-37786500D02*
X112820000Y-36111500D01*
X112820000Y-37786500D02*
X112820000Y-38436500D01*
%TO.C,D12*%
X125465000Y-75886500D02*
X125465000Y-75236500D01*
X125465000Y-75886500D02*
X125465000Y-76536500D01*
X122345000Y-75886500D02*
X122345000Y-74211500D01*
X122345000Y-75886500D02*
X122345000Y-76536500D01*
%TO.C,D14*%
X192145000Y-75886500D02*
X192145000Y-75236500D01*
X192145000Y-75886500D02*
X192145000Y-76536500D01*
X189025000Y-75886500D02*
X189025000Y-74211500D01*
X189025000Y-75886500D02*
X189025000Y-76536500D01*
%TO.C,D8*%
X158490000Y-56836500D02*
X158490000Y-56186500D01*
X158490000Y-56836500D02*
X158490000Y-57486500D01*
X155370000Y-56836500D02*
X155370000Y-55161500D01*
X155370000Y-56836500D02*
X155370000Y-57486500D01*
%TO.C,D10*%
X215635000Y-56836500D02*
X215635000Y-56186500D01*
X215635000Y-56836500D02*
X215635000Y-57486500D01*
X212515000Y-56836500D02*
X212515000Y-55161500D01*
X212515000Y-56836500D02*
X212515000Y-57486500D01*
%TO.C,D15*%
X230245000Y-75886500D02*
X230245000Y-75236500D01*
X230245000Y-75886500D02*
X230245000Y-76536500D01*
X227125000Y-75886500D02*
X227125000Y-74211500D01*
X227125000Y-75886500D02*
X227125000Y-76536500D01*
%TO.C,D5*%
X230245000Y-37786500D02*
X230245000Y-37136500D01*
X230245000Y-37786500D02*
X230245000Y-38436500D01*
X227125000Y-37786500D02*
X227125000Y-36111500D01*
X227125000Y-37786500D02*
X227125000Y-38436500D01*
%TO.C,D6*%
X82290000Y-56836500D02*
X82290000Y-56186500D01*
X82290000Y-56836500D02*
X82290000Y-57486500D01*
X79170000Y-56836500D02*
X79170000Y-55161500D01*
X79170000Y-56836500D02*
X79170000Y-57486500D01*
%TO.C,D1*%
X74720000Y-37786500D02*
X74720000Y-38436500D01*
X74720000Y-37786500D02*
X74720000Y-36111500D01*
X77840000Y-37786500D02*
X77840000Y-38436500D01*
X77840000Y-37786500D02*
X77840000Y-37136500D01*
%TO.C,D9*%
X196590000Y-56836500D02*
X196590000Y-56186500D01*
X196590000Y-56836500D02*
X196590000Y-57486500D01*
X193470000Y-56836500D02*
X193470000Y-55161500D01*
X193470000Y-56836500D02*
X193470000Y-57486500D01*
%TO.C,D11*%
X87365000Y-75886500D02*
X87365000Y-75236500D01*
X87365000Y-75886500D02*
X87365000Y-76536500D01*
X84245000Y-75886500D02*
X84245000Y-74211500D01*
X84245000Y-75886500D02*
X84245000Y-76536500D01*
%TO.C,D4*%
X192145000Y-37786500D02*
X192145000Y-37136500D01*
X192145000Y-37786500D02*
X192145000Y-38436500D01*
X189025000Y-37786500D02*
X189025000Y-36111500D01*
X189025000Y-37786500D02*
X189025000Y-38436500D01*
%TO.C,D3*%
X154045000Y-37786500D02*
X154045000Y-37136500D01*
X154045000Y-37786500D02*
X154045000Y-38436500D01*
X150925000Y-37786500D02*
X150925000Y-36111500D01*
X150925000Y-37786500D02*
X150925000Y-38436500D01*
%TD*%
M02*
