%TF.GenerationSoftware,KiCad,Pcbnew,7.0.7*%
%TF.CreationDate,2023-08-31T12:53:39+10:00*%
%TF.ProjectId,qaz,71617a2e-6b69-4636-9164-5f7063625858,rev?*%
%TF.SameCoordinates,Original*%
%TF.FileFunction,Paste,Bot*%
%TF.FilePolarity,Positive*%
%FSLAX46Y46*%
G04 Gerber Fmt 4.6, Leading zero omitted, Abs format (unit mm)*
G04 Created by KiCad (PCBNEW 7.0.7) date 2023-08-31 12:53:39*
%MOMM*%
%LPD*%
G01*
G04 APERTURE LIST*
G04 Aperture macros list*
%AMRoundRect*
0 Rectangle with rounded corners*
0 $1 Rounding radius*
0 $2 $3 $4 $5 $6 $7 $8 $9 X,Y pos of 4 corners*
0 Add a 4 corners polygon primitive as box body*
4,1,4,$2,$3,$4,$5,$6,$7,$8,$9,$2,$3,0*
0 Add four circle primitives for the rounded corners*
1,1,$1+$1,$2,$3*
1,1,$1+$1,$4,$5*
1,1,$1+$1,$6,$7*
1,1,$1+$1,$8,$9*
0 Add four rect primitives between the rounded corners*
20,1,$1+$1,$2,$3,$4,$5,0*
20,1,$1+$1,$4,$5,$6,$7,0*
20,1,$1+$1,$6,$7,$8,$9,0*
20,1,$1+$1,$8,$9,$2,$3,0*%
G04 Aperture macros list end*
%ADD10RoundRect,0.150000X-0.150000X0.587500X-0.150000X-0.587500X0.150000X-0.587500X0.150000X0.587500X0*%
%ADD11O,2.500000X1.500000*%
%ADD12O,1.500000X2.500000*%
G04 APERTURE END LIST*
D10*
%TO.C,D7*%
X117880000Y-55899000D03*
X119780000Y-55899000D03*
X118830000Y-57774000D03*
%TD*%
%TO.C,D13*%
X142005000Y-74949000D03*
X143905000Y-74949000D03*
X142955000Y-76824000D03*
%TD*%
%TO.C,D2*%
X113430000Y-36849000D03*
X115330000Y-36849000D03*
X114380000Y-38724000D03*
%TD*%
%TO.C,D12*%
X122955000Y-74949000D03*
X124855000Y-74949000D03*
X123905000Y-76824000D03*
%TD*%
%TO.C,D14*%
X189635000Y-74949000D03*
X191535000Y-74949000D03*
X190585000Y-76824000D03*
%TD*%
%TO.C,D8*%
X155980000Y-55899000D03*
X157880000Y-55899000D03*
X156930000Y-57774000D03*
%TD*%
%TO.C,D10*%
X213125000Y-55899000D03*
X215025000Y-55899000D03*
X214075000Y-57774000D03*
%TD*%
%TO.C,D15*%
X227735000Y-74949000D03*
X229635000Y-74949000D03*
X228685000Y-76824000D03*
%TD*%
%TO.C,D5*%
X227735000Y-36849000D03*
X229635000Y-36849000D03*
X228685000Y-38724000D03*
%TD*%
%TO.C,D6*%
X79780000Y-55899000D03*
X81680000Y-55899000D03*
X80730000Y-57774000D03*
%TD*%
%TO.C,D1*%
X76280000Y-38724000D03*
X77230000Y-36849000D03*
X75330000Y-36849000D03*
%TD*%
D11*
%TO.C,U1*%
X249690000Y-34798000D03*
X249690000Y-37338000D03*
X249690000Y-39878000D03*
X249690000Y-42418000D03*
X249690000Y-44958000D03*
X249690000Y-47498000D03*
X249690000Y-50038000D03*
X249690000Y-52578000D03*
X249690000Y-55118000D03*
D12*
X252730000Y-55618000D03*
X255270000Y-55618000D03*
X257810000Y-55618000D03*
X260350000Y-55618000D03*
X262890000Y-55618000D03*
D11*
X265930000Y-55118000D03*
X265930000Y-52578000D03*
X265930000Y-50038000D03*
X265930000Y-47498000D03*
X265930000Y-44958000D03*
X265930000Y-42418000D03*
X265930000Y-39878000D03*
X265930000Y-37338000D03*
X265930000Y-34798000D03*
%TD*%
D10*
%TO.C,D9*%
X194080000Y-55899000D03*
X195980000Y-55899000D03*
X195030000Y-57774000D03*
%TD*%
%TO.C,D11*%
X84855000Y-74949000D03*
X86755000Y-74949000D03*
X85805000Y-76824000D03*
%TD*%
%TO.C,D4*%
X189635000Y-36849000D03*
X191535000Y-36849000D03*
X190585000Y-38724000D03*
%TD*%
%TO.C,D3*%
X151535000Y-36849000D03*
X153435000Y-36849000D03*
X152485000Y-38724000D03*
%TD*%
M02*
