%TF.GenerationSoftware,KiCad,Pcbnew,7.0.7*%
%TF.CreationDate,2023-08-31T12:53:39+10:00*%
%TF.ProjectId,qaz,71617a2e-6b69-4636-9164-5f7063625858,rev?*%
%TF.SameCoordinates,Original*%
%TF.FileFunction,Legend,Top*%
%TF.FilePolarity,Positive*%
%FSLAX46Y46*%
G04 Gerber Fmt 4.6, Leading zero omitted, Abs format (unit mm)*
G04 Created by KiCad (PCBNEW 7.0.7) date 2023-08-31 12:53:39*
%MOMM*%
%LPD*%
G01*
G04 APERTURE LIST*
%ADD10C,0.500000*%
%ADD11C,0.100000*%
G04 APERTURE END LIST*
D10*
G36*
X249962953Y-75516000D02*
G01*
X250746484Y-75516000D01*
X250746484Y-74664080D01*
X250746258Y-74622272D01*
X250745595Y-74577400D01*
X250744515Y-74529670D01*
X250743038Y-74479288D01*
X250741184Y-74426458D01*
X250738975Y-74371387D01*
X250736430Y-74314279D01*
X250733570Y-74255340D01*
X250730415Y-74194775D01*
X250726985Y-74132790D01*
X250723302Y-74069590D01*
X250719385Y-74005380D01*
X250715254Y-73940366D01*
X250710931Y-73874753D01*
X250706435Y-73808747D01*
X250701788Y-73742552D01*
X250697008Y-73676375D01*
X250692118Y-73610420D01*
X250687136Y-73544893D01*
X250682084Y-73479999D01*
X250676982Y-73415944D01*
X250671850Y-73352932D01*
X250666709Y-73291171D01*
X250661579Y-73230863D01*
X250656481Y-73172216D01*
X250651434Y-73115435D01*
X250646460Y-73060724D01*
X250641578Y-73008289D01*
X250636809Y-72958336D01*
X250632174Y-72911070D01*
X250627693Y-72866697D01*
X250623386Y-72825420D01*
X250645856Y-72825420D01*
X250926247Y-73901066D01*
X251127503Y-74558568D01*
X251553462Y-74558568D01*
X251742995Y-73901066D01*
X252051718Y-72825420D01*
X252068326Y-72825420D01*
X252064019Y-72866697D01*
X252059538Y-72911070D01*
X252054903Y-72958336D01*
X252050134Y-73008289D01*
X252045252Y-73060724D01*
X252040278Y-73115435D01*
X252035231Y-73172216D01*
X252030133Y-73230863D01*
X252025003Y-73291171D01*
X252019862Y-73352932D01*
X252014730Y-73415944D01*
X252009628Y-73479999D01*
X252004576Y-73544893D01*
X251999594Y-73610420D01*
X251994704Y-73676375D01*
X251989924Y-73742552D01*
X251985277Y-73808747D01*
X251980781Y-73874753D01*
X251976458Y-73940366D01*
X251972327Y-74005380D01*
X251968410Y-74069590D01*
X251964727Y-74132790D01*
X251961297Y-74194775D01*
X251958142Y-74255340D01*
X251955282Y-74314279D01*
X251952737Y-74371387D01*
X251950528Y-74426458D01*
X251948674Y-74479288D01*
X251947197Y-74529670D01*
X251946117Y-74577400D01*
X251945454Y-74622272D01*
X251945228Y-74664080D01*
X251945228Y-75516000D01*
X252740483Y-75516000D01*
X252740483Y-71889482D01*
X251760580Y-71889482D01*
X251463581Y-73076502D01*
X251362953Y-73544471D01*
X251340483Y-73544471D01*
X251239855Y-73076502D01*
X250942855Y-71889482D01*
X249962953Y-71889482D01*
X249962953Y-75516000D01*
G37*
G36*
X253397984Y-75516000D02*
G01*
X256019199Y-75516000D01*
X256019199Y-74709998D01*
X255189750Y-74709998D01*
X255189750Y-72696460D01*
X256019199Y-72696460D01*
X256019199Y-71889482D01*
X253397984Y-71889482D01*
X253397984Y-72696460D01*
X254226456Y-72696460D01*
X254226456Y-74709998D01*
X253397984Y-74709998D01*
X253397984Y-75516000D01*
G37*
G36*
X258390308Y-75578526D02*
G01*
X258436274Y-75578002D01*
X258481839Y-75576430D01*
X258526995Y-75573811D01*
X258571729Y-75570143D01*
X258616032Y-75565427D01*
X258659893Y-75559663D01*
X258703301Y-75552850D01*
X258746246Y-75544988D01*
X258788718Y-75536077D01*
X258830705Y-75526117D01*
X258872197Y-75515108D01*
X258913184Y-75503049D01*
X258953656Y-75489940D01*
X258993600Y-75475782D01*
X259033008Y-75460573D01*
X259071868Y-75444314D01*
X259110170Y-75427005D01*
X259147903Y-75408645D01*
X259185057Y-75389234D01*
X259221621Y-75368773D01*
X259257585Y-75347260D01*
X259292938Y-75324696D01*
X259327669Y-75301080D01*
X259361769Y-75276413D01*
X259395226Y-75250693D01*
X259428029Y-75223922D01*
X259460170Y-75196099D01*
X259491635Y-75167223D01*
X259522416Y-75137294D01*
X259552502Y-75106313D01*
X259581882Y-75074279D01*
X259610545Y-75041191D01*
X259084935Y-74453055D01*
X259054930Y-74484726D01*
X259023908Y-74515184D01*
X258991885Y-74544314D01*
X258958875Y-74572001D01*
X258924891Y-74598131D01*
X258889949Y-74622590D01*
X258854062Y-74645262D01*
X258817245Y-74666034D01*
X258779512Y-74684791D01*
X258740877Y-74701419D01*
X258701355Y-74715803D01*
X258660960Y-74727828D01*
X258619706Y-74737380D01*
X258577608Y-74744345D01*
X258534680Y-74748608D01*
X258490936Y-74750054D01*
X258445118Y-74748920D01*
X258400195Y-74745528D01*
X258356205Y-74739893D01*
X258313183Y-74732030D01*
X258271166Y-74721952D01*
X258230191Y-74709675D01*
X258190296Y-74695214D01*
X258151515Y-74678582D01*
X258113886Y-74659796D01*
X258077447Y-74638869D01*
X258042232Y-74615815D01*
X258008280Y-74590651D01*
X257975626Y-74563390D01*
X257944308Y-74534047D01*
X257914362Y-74502637D01*
X257885825Y-74469175D01*
X257858733Y-74433674D01*
X257833123Y-74396150D01*
X257809032Y-74356618D01*
X257786496Y-74315092D01*
X257765552Y-74271586D01*
X257746238Y-74226116D01*
X257728588Y-74178696D01*
X257712641Y-74129341D01*
X257698433Y-74078066D01*
X257686000Y-74024884D01*
X257675379Y-73969811D01*
X257666607Y-73912862D01*
X257659721Y-73854051D01*
X257654756Y-73793392D01*
X257651751Y-73730901D01*
X257650741Y-73666593D01*
X257651749Y-73604292D01*
X257654745Y-73543617D01*
X257659684Y-73484591D01*
X257666519Y-73427237D01*
X257675208Y-73371578D01*
X257685704Y-73317637D01*
X257697962Y-73265438D01*
X257711939Y-73215003D01*
X257727589Y-73166355D01*
X257744866Y-73119518D01*
X257763727Y-73074515D01*
X257784126Y-73031369D01*
X257806018Y-72990102D01*
X257829359Y-72950738D01*
X257854104Y-72913300D01*
X257880207Y-72877810D01*
X257907624Y-72844293D01*
X257936310Y-72812771D01*
X257966219Y-72783268D01*
X257997308Y-72755805D01*
X258029531Y-72730407D01*
X258062843Y-72707097D01*
X258097200Y-72685897D01*
X258132556Y-72666830D01*
X258168866Y-72649921D01*
X258206086Y-72635191D01*
X258244171Y-72622664D01*
X258283076Y-72612362D01*
X258322756Y-72604310D01*
X258363165Y-72598530D01*
X258404260Y-72595045D01*
X258445996Y-72593878D01*
X258491392Y-72594935D01*
X258535312Y-72598072D01*
X258577835Y-72603242D01*
X258619042Y-72610395D01*
X258659012Y-72619483D01*
X258697825Y-72630457D01*
X258735563Y-72643269D01*
X258772304Y-72657870D01*
X258808129Y-72674211D01*
X258843119Y-72692243D01*
X258877353Y-72711918D01*
X258910912Y-72733188D01*
X258943875Y-72756003D01*
X258976323Y-72780316D01*
X259008336Y-72806076D01*
X259039994Y-72833236D01*
X259566582Y-72235330D01*
X259516667Y-72189469D01*
X259463694Y-72144410D01*
X259407746Y-72100450D01*
X259348900Y-72057887D01*
X259287239Y-72017018D01*
X259222840Y-71978142D01*
X259155786Y-71941555D01*
X259086156Y-71907556D01*
X259050400Y-71891619D01*
X259014030Y-71876441D01*
X258977056Y-71862059D01*
X258939488Y-71848510D01*
X258901336Y-71835831D01*
X258862611Y-71824059D01*
X258823321Y-71813232D01*
X258783478Y-71803386D01*
X258743091Y-71794559D01*
X258702170Y-71786789D01*
X258660725Y-71780112D01*
X258618767Y-71774565D01*
X258576305Y-71770187D01*
X258533349Y-71767013D01*
X258489909Y-71765081D01*
X258445996Y-71764429D01*
X258354157Y-71766460D01*
X258263545Y-71772534D01*
X258174271Y-71782623D01*
X258086445Y-71796702D01*
X258000179Y-71814743D01*
X257915582Y-71836718D01*
X257832767Y-71862602D01*
X257751842Y-71892367D01*
X257672920Y-71925986D01*
X257596110Y-71963431D01*
X257521524Y-72004677D01*
X257449273Y-72049695D01*
X257379466Y-72098460D01*
X257312216Y-72150943D01*
X257247632Y-72207119D01*
X257185825Y-72266959D01*
X257126906Y-72330437D01*
X257070985Y-72397526D01*
X257018175Y-72468199D01*
X256968584Y-72542429D01*
X256922324Y-72620188D01*
X256879506Y-72701451D01*
X256840240Y-72786189D01*
X256804638Y-72874376D01*
X256772809Y-72965984D01*
X256744865Y-73060988D01*
X256720916Y-73159359D01*
X256701073Y-73261071D01*
X256685447Y-73366097D01*
X256674148Y-73474410D01*
X256667288Y-73585982D01*
X256664977Y-73700787D01*
X256667350Y-73817228D01*
X256674382Y-73929886D01*
X256685938Y-74038766D01*
X256701886Y-74143874D01*
X256722092Y-74245214D01*
X256746423Y-74342794D01*
X256774746Y-74436619D01*
X256806928Y-74526694D01*
X256842834Y-74613025D01*
X256882333Y-74695618D01*
X256925290Y-74774479D01*
X256971572Y-74849613D01*
X257021047Y-74921027D01*
X257073580Y-74988725D01*
X257129039Y-75052714D01*
X257187290Y-75112999D01*
X257248200Y-75169586D01*
X257311636Y-75222481D01*
X257377464Y-75271689D01*
X257445552Y-75317216D01*
X257515766Y-75359069D01*
X257587972Y-75397252D01*
X257662037Y-75431771D01*
X257737829Y-75462632D01*
X257815213Y-75489842D01*
X257894057Y-75513404D01*
X257974227Y-75533326D01*
X258055591Y-75549613D01*
X258138014Y-75562271D01*
X258221363Y-75571305D01*
X258305506Y-75576722D01*
X258390308Y-75578526D01*
G37*
G36*
X261495052Y-71890283D02*
G01*
X261567492Y-71892733D01*
X261639070Y-71896901D01*
X261709681Y-71902856D01*
X261779224Y-71910666D01*
X261847596Y-71920400D01*
X261914695Y-71932128D01*
X261980419Y-71945917D01*
X262044663Y-71961837D01*
X262107327Y-71979958D01*
X262168308Y-72000347D01*
X262227503Y-72023073D01*
X262284809Y-72048206D01*
X262340125Y-72075814D01*
X262393347Y-72105966D01*
X262444373Y-72138732D01*
X262493101Y-72174179D01*
X262539428Y-72212377D01*
X262583252Y-72253394D01*
X262624470Y-72297300D01*
X262662979Y-72344164D01*
X262698678Y-72394054D01*
X262731463Y-72447039D01*
X262761232Y-72503188D01*
X262787883Y-72562569D01*
X262811313Y-72625253D01*
X262831420Y-72691307D01*
X262848101Y-72760801D01*
X262861253Y-72833803D01*
X262870775Y-72910382D01*
X262876563Y-72990608D01*
X262878515Y-73074548D01*
X262877829Y-73123819D01*
X262875784Y-73171987D01*
X262872404Y-73219059D01*
X262867709Y-73265040D01*
X262861721Y-73309939D01*
X262854461Y-73353763D01*
X262845952Y-73396517D01*
X262836215Y-73438210D01*
X262825271Y-73478849D01*
X262813143Y-73518439D01*
X262799851Y-73556989D01*
X262785418Y-73594505D01*
X262769865Y-73630994D01*
X262753214Y-73666463D01*
X262716704Y-73734370D01*
X262676061Y-73798281D01*
X262631457Y-73858253D01*
X262583067Y-73914340D01*
X262531064Y-73966599D01*
X262475620Y-74015086D01*
X262416909Y-74059856D01*
X262355104Y-74100965D01*
X262290378Y-74138470D01*
X263079771Y-75516000D01*
X262004125Y-75516000D01*
X261376910Y-74328002D01*
X261030085Y-74328002D01*
X261030085Y-75516000D01*
X260066791Y-75516000D01*
X260066791Y-72651519D01*
X261030085Y-72651519D01*
X261030085Y-73566942D01*
X261354439Y-73566942D01*
X261423780Y-73564932D01*
X261488895Y-73558927D01*
X261549752Y-73548961D01*
X261606315Y-73535068D01*
X261658550Y-73517282D01*
X261706424Y-73495638D01*
X261749901Y-73470170D01*
X261788947Y-73440912D01*
X261823529Y-73407899D01*
X261853611Y-73371166D01*
X261879159Y-73330745D01*
X261900139Y-73286673D01*
X261916517Y-73238983D01*
X261928257Y-73187709D01*
X261935327Y-73132886D01*
X261937691Y-73074548D01*
X261935327Y-73017150D01*
X261928257Y-72964648D01*
X261916517Y-72916878D01*
X261900139Y-72873674D01*
X261879159Y-72834872D01*
X261853611Y-72800307D01*
X261823529Y-72769816D01*
X261788947Y-72743233D01*
X261749901Y-72720393D01*
X261706424Y-72701133D01*
X261658550Y-72685288D01*
X261606315Y-72672692D01*
X261549752Y-72663182D01*
X261488895Y-72656593D01*
X261423780Y-72652760D01*
X261354439Y-72651519D01*
X261030085Y-72651519D01*
X260066791Y-72651519D01*
X260066791Y-71889482D01*
X261421850Y-71889482D01*
X261495052Y-71890283D01*
G37*
G36*
X264860874Y-71766300D02*
G01*
X264941322Y-71771910D01*
X265020008Y-71781255D01*
X265096873Y-71794328D01*
X265171858Y-71811126D01*
X265244903Y-71831644D01*
X265315948Y-71855876D01*
X265384935Y-71883818D01*
X265451804Y-71915466D01*
X265516495Y-71950814D01*
X265578949Y-71989857D01*
X265639108Y-72032591D01*
X265696910Y-72079011D01*
X265752298Y-72129111D01*
X265805211Y-72182888D01*
X265855591Y-72240337D01*
X265903377Y-72301451D01*
X265948511Y-72366228D01*
X265990933Y-72434661D01*
X266030583Y-72506746D01*
X266067403Y-72582479D01*
X266101332Y-72661854D01*
X266132313Y-72744866D01*
X266160284Y-72831511D01*
X266185187Y-72921784D01*
X266206962Y-73015680D01*
X266225550Y-73113194D01*
X266240892Y-73214322D01*
X266252927Y-73319058D01*
X266261598Y-73427398D01*
X266266844Y-73539336D01*
X266268605Y-73654869D01*
X266266844Y-73773505D01*
X266261598Y-73888348D01*
X266252927Y-73999400D01*
X266240892Y-74106661D01*
X266225550Y-74210134D01*
X266206962Y-74309821D01*
X266185187Y-74405723D01*
X266160284Y-74497843D01*
X266132313Y-74586181D01*
X266101332Y-74670740D01*
X266067403Y-74751522D01*
X266030583Y-74828528D01*
X265990933Y-74901761D01*
X265948511Y-74971221D01*
X265903377Y-75036911D01*
X265855591Y-75098833D01*
X265805211Y-75156988D01*
X265752298Y-75211378D01*
X265696910Y-75262005D01*
X265639108Y-75308870D01*
X265578949Y-75351976D01*
X265516495Y-75391324D01*
X265451804Y-75426917D01*
X265384935Y-75458755D01*
X265315948Y-75486841D01*
X265244903Y-75511176D01*
X265171858Y-75531763D01*
X265096873Y-75548602D01*
X265020008Y-75561696D01*
X264941322Y-75571047D01*
X264860874Y-75576656D01*
X264778724Y-75578526D01*
X264696660Y-75576656D01*
X264616287Y-75571047D01*
X264537666Y-75561696D01*
X264460855Y-75548602D01*
X264385916Y-75531763D01*
X264312908Y-75511176D01*
X264241891Y-75486841D01*
X264172925Y-75458755D01*
X264106070Y-75426917D01*
X264041386Y-75391324D01*
X263978933Y-75351976D01*
X263918770Y-75308870D01*
X263860958Y-75262005D01*
X263805556Y-75211378D01*
X263752625Y-75156988D01*
X263702224Y-75098833D01*
X263654413Y-75036911D01*
X263609253Y-74971221D01*
X263566803Y-74901761D01*
X263527123Y-74828528D01*
X263490273Y-74751522D01*
X263456312Y-74670740D01*
X263425302Y-74586181D01*
X263397302Y-74497843D01*
X263372371Y-74405723D01*
X263350570Y-74309821D01*
X263331959Y-74210134D01*
X263316597Y-74106661D01*
X263304544Y-73999400D01*
X263295861Y-73888348D01*
X263290607Y-73773505D01*
X263288843Y-73654869D01*
X264274607Y-73654869D01*
X264275163Y-73723251D01*
X264276823Y-73789367D01*
X264279574Y-73853223D01*
X264283405Y-73914825D01*
X264288303Y-73974180D01*
X264294255Y-74031293D01*
X264301250Y-74086171D01*
X264309274Y-74138821D01*
X264318316Y-74189248D01*
X264328363Y-74237459D01*
X264339403Y-74283459D01*
X264351423Y-74327256D01*
X264364412Y-74368856D01*
X264378356Y-74408264D01*
X264409063Y-74480532D01*
X264443444Y-74544110D01*
X264481402Y-74599049D01*
X264522838Y-74645398D01*
X264567652Y-74683208D01*
X264615747Y-74712528D01*
X264667023Y-74733409D01*
X264721382Y-74745901D01*
X264778724Y-74750054D01*
X264807762Y-74749017D01*
X264863625Y-74740701D01*
X264916455Y-74724020D01*
X264966152Y-74698926D01*
X265012619Y-74665367D01*
X265055757Y-74623294D01*
X265095466Y-74572656D01*
X265131648Y-74513404D01*
X265164205Y-74445487D01*
X265179092Y-74408264D01*
X265193037Y-74368856D01*
X265206025Y-74327256D01*
X265218045Y-74283459D01*
X265229085Y-74237459D01*
X265239132Y-74189248D01*
X265248174Y-74138821D01*
X265256198Y-74086171D01*
X265263193Y-74031293D01*
X265269145Y-73974180D01*
X265274043Y-73914825D01*
X265277874Y-73853223D01*
X265280625Y-73789367D01*
X265282285Y-73723251D01*
X265282841Y-73654869D01*
X265282285Y-73589593D01*
X265280625Y-73526390D01*
X265277874Y-73465258D01*
X265274043Y-73406199D01*
X265269145Y-73349212D01*
X265263193Y-73294298D01*
X265256198Y-73241456D01*
X265248174Y-73190685D01*
X265239132Y-73141988D01*
X265229085Y-73095362D01*
X265218045Y-73050809D01*
X265206025Y-73008328D01*
X265193037Y-72967919D01*
X265179092Y-72929582D01*
X265148386Y-72859126D01*
X265114004Y-72796958D01*
X265076046Y-72743080D01*
X265034610Y-72697490D01*
X264989796Y-72660190D01*
X264941701Y-72631179D01*
X264890425Y-72610456D01*
X264836067Y-72598023D01*
X264778724Y-72593878D01*
X264749686Y-72594914D01*
X264693823Y-72603203D01*
X264640994Y-72619781D01*
X264591296Y-72644648D01*
X264544829Y-72677804D01*
X264501692Y-72719249D01*
X264461982Y-72768983D01*
X264425800Y-72827006D01*
X264393244Y-72893318D01*
X264378356Y-72929582D01*
X264364412Y-72967919D01*
X264351423Y-73008328D01*
X264339403Y-73050809D01*
X264328363Y-73095362D01*
X264318316Y-73141988D01*
X264309274Y-73190685D01*
X264301250Y-73241456D01*
X264294255Y-73294298D01*
X264288303Y-73349212D01*
X264283405Y-73406199D01*
X264279574Y-73465258D01*
X264276823Y-73526390D01*
X264275163Y-73589593D01*
X264274607Y-73654869D01*
X263288843Y-73654869D01*
X263290607Y-73539336D01*
X263295861Y-73427398D01*
X263304544Y-73319058D01*
X263316597Y-73214322D01*
X263331959Y-73113194D01*
X263350570Y-73015680D01*
X263372371Y-72921784D01*
X263397302Y-72831511D01*
X263425302Y-72744866D01*
X263456312Y-72661854D01*
X263490273Y-72582479D01*
X263527123Y-72506746D01*
X263566803Y-72434661D01*
X263609253Y-72366228D01*
X263654413Y-72301451D01*
X263702224Y-72240337D01*
X263752625Y-72182888D01*
X263805556Y-72129111D01*
X263860958Y-72079011D01*
X263918770Y-72032591D01*
X263978933Y-71989857D01*
X264041386Y-71950814D01*
X264106070Y-71915466D01*
X264172925Y-71883818D01*
X264241891Y-71855876D01*
X264312908Y-71831644D01*
X264385916Y-71811126D01*
X264460855Y-71794328D01*
X264537666Y-71781255D01*
X264616287Y-71771910D01*
X264696660Y-71766300D01*
X264778724Y-71764429D01*
X264860874Y-71766300D01*
G37*
G36*
X254790253Y-78486301D02*
G01*
X254870701Y-78491912D01*
X254949387Y-78501259D01*
X255026253Y-78514340D01*
X255101237Y-78531148D01*
X255174282Y-78551682D01*
X255245327Y-78575937D01*
X255314314Y-78603910D01*
X255381183Y-78635596D01*
X255445874Y-78670993D01*
X255508329Y-78710095D01*
X255568487Y-78752900D01*
X255626290Y-78799404D01*
X255681677Y-78849602D01*
X255734591Y-78903492D01*
X255784970Y-78961069D01*
X255832756Y-79022330D01*
X255877890Y-79087271D01*
X255920312Y-79155888D01*
X255959962Y-79228177D01*
X255996782Y-79304136D01*
X256030712Y-79383758D01*
X256061692Y-79467043D01*
X256089663Y-79553984D01*
X256114566Y-79644579D01*
X256136341Y-79738824D01*
X256154929Y-79836715D01*
X256170271Y-79938249D01*
X256182307Y-80043421D01*
X256190977Y-80152228D01*
X256196223Y-80264666D01*
X256197985Y-80380731D01*
X256196939Y-80473226D01*
X256193818Y-80563498D01*
X256188651Y-80651545D01*
X256181462Y-80737365D01*
X256172279Y-80820957D01*
X256161129Y-80902317D01*
X256148037Y-80981444D01*
X256133031Y-81058337D01*
X256116138Y-81132993D01*
X256097384Y-81205409D01*
X256076795Y-81275586D01*
X256054399Y-81343519D01*
X256030221Y-81409208D01*
X256004289Y-81472650D01*
X255976630Y-81533843D01*
X255947269Y-81592786D01*
X255916234Y-81649476D01*
X255883552Y-81703912D01*
X255849248Y-81756091D01*
X255813350Y-81806012D01*
X255775884Y-81853672D01*
X255736877Y-81899070D01*
X255696355Y-81942204D01*
X255654346Y-81983071D01*
X255610875Y-82021670D01*
X255565970Y-82057998D01*
X255519657Y-82092055D01*
X255471963Y-82123837D01*
X255422915Y-82153343D01*
X255372538Y-82180570D01*
X255320860Y-82205518D01*
X255267908Y-82228184D01*
X255293679Y-82272234D01*
X255322447Y-82312177D01*
X255353933Y-82348187D01*
X255387862Y-82380439D01*
X255423954Y-82409107D01*
X255461932Y-82434367D01*
X255501519Y-82456392D01*
X255542437Y-82475357D01*
X255584408Y-82491438D01*
X255627155Y-82504808D01*
X255670400Y-82515642D01*
X255713865Y-82524114D01*
X255757273Y-82530400D01*
X255800346Y-82534674D01*
X255842806Y-82537110D01*
X255884377Y-82537884D01*
X255905424Y-82537424D01*
X255947266Y-82533923D01*
X255988466Y-82527371D01*
X256028660Y-82518237D01*
X256067479Y-82506991D01*
X256104558Y-82494102D01*
X256147902Y-82476395D01*
X256187238Y-82457772D01*
X256355277Y-83165099D01*
X256318363Y-83186461D01*
X256277480Y-83206474D01*
X256232730Y-83224974D01*
X256184214Y-83241795D01*
X256132033Y-83256775D01*
X256076290Y-83269749D01*
X256037198Y-83277203D01*
X255996599Y-83283643D01*
X255954520Y-83289022D01*
X255910994Y-83293290D01*
X255866049Y-83296399D01*
X255819716Y-83298300D01*
X255772025Y-83298944D01*
X255703406Y-83297723D01*
X255636042Y-83294088D01*
X255569947Y-83288080D01*
X255505135Y-83279741D01*
X255441618Y-83269112D01*
X255379411Y-83256234D01*
X255318526Y-83241150D01*
X255258978Y-83223901D01*
X255200779Y-83204528D01*
X255143943Y-83183072D01*
X255088483Y-83159576D01*
X255034414Y-83134080D01*
X254981747Y-83106627D01*
X254930497Y-83077258D01*
X254880677Y-83046013D01*
X254832301Y-83012936D01*
X254785381Y-82978067D01*
X254739932Y-82941447D01*
X254695966Y-82903119D01*
X254653498Y-82863124D01*
X254612540Y-82821502D01*
X254573106Y-82778297D01*
X254535209Y-82733549D01*
X254498864Y-82687299D01*
X254464082Y-82639590D01*
X254430878Y-82590463D01*
X254399265Y-82539959D01*
X254369256Y-82488119D01*
X254340866Y-82434986D01*
X254314106Y-82380601D01*
X254288992Y-82325005D01*
X254265535Y-82268240D01*
X254206402Y-82249177D01*
X254148641Y-82227529D01*
X254092285Y-82203295D01*
X254037369Y-82176477D01*
X253983924Y-82147075D01*
X253931984Y-82115092D01*
X253881583Y-82080528D01*
X253832752Y-82043383D01*
X253785526Y-82003660D01*
X253739937Y-81961359D01*
X253696019Y-81916482D01*
X253653804Y-81869028D01*
X253613326Y-81819001D01*
X253574618Y-81766399D01*
X253537712Y-81711225D01*
X253502643Y-81653480D01*
X253469442Y-81593165D01*
X253438144Y-81530280D01*
X253408781Y-81464828D01*
X253381386Y-81396808D01*
X253355992Y-81326222D01*
X253332633Y-81253071D01*
X253311342Y-81177357D01*
X253292151Y-81099080D01*
X253275094Y-81018241D01*
X253260204Y-80934841D01*
X253247514Y-80848882D01*
X253237057Y-80760364D01*
X253228866Y-80669289D01*
X253222975Y-80575658D01*
X253219416Y-80479472D01*
X253218222Y-80380731D01*
X254203986Y-80380731D01*
X254204542Y-80455708D01*
X254206202Y-80527886D01*
X254208954Y-80597290D01*
X254212785Y-80663949D01*
X254217682Y-80727891D01*
X254223635Y-80789143D01*
X254230629Y-80847731D01*
X254238653Y-80903685D01*
X254247695Y-80957032D01*
X254257742Y-81007798D01*
X254268782Y-81056012D01*
X254280802Y-81101701D01*
X254293791Y-81144893D01*
X254307735Y-81185615D01*
X254322623Y-81223895D01*
X254338442Y-81259761D01*
X254372823Y-81324358D01*
X254410782Y-81379627D01*
X254452217Y-81425788D01*
X254497032Y-81463062D01*
X254545126Y-81491670D01*
X254596402Y-81511831D01*
X254650761Y-81523766D01*
X254708103Y-81527695D01*
X254765446Y-81523766D01*
X254819804Y-81511831D01*
X254871080Y-81491670D01*
X254919175Y-81463062D01*
X254963989Y-81425788D01*
X255005425Y-81379627D01*
X255043383Y-81324358D01*
X255077765Y-81259761D01*
X255093584Y-81223895D01*
X255108471Y-81185615D01*
X255122416Y-81144893D01*
X255135404Y-81101701D01*
X255147425Y-81056012D01*
X255158464Y-81007798D01*
X255168511Y-80957032D01*
X255177553Y-80903685D01*
X255185578Y-80847731D01*
X255192572Y-80789143D01*
X255198524Y-80727891D01*
X255203422Y-80663949D01*
X255207253Y-80597290D01*
X255210004Y-80527886D01*
X255211664Y-80455708D01*
X255212221Y-80380731D01*
X255211664Y-80315094D01*
X255210004Y-80251542D01*
X255207253Y-80190073D01*
X255203422Y-80130687D01*
X255198524Y-80073386D01*
X255192572Y-80018168D01*
X255185578Y-79965033D01*
X255177553Y-79913983D01*
X255168511Y-79865016D01*
X255158464Y-79818133D01*
X255147425Y-79773333D01*
X255135404Y-79730617D01*
X255122416Y-79689985D01*
X255108471Y-79651437D01*
X255077765Y-79580591D01*
X255043383Y-79518080D01*
X255005425Y-79463904D01*
X254963989Y-79418063D01*
X254919175Y-79380556D01*
X254871080Y-79351385D01*
X254819804Y-79330548D01*
X254765446Y-79318045D01*
X254708103Y-79313878D01*
X254679065Y-79314920D01*
X254623202Y-79323255D01*
X254570373Y-79339924D01*
X254520675Y-79364929D01*
X254474208Y-79398268D01*
X254431071Y-79439942D01*
X254391362Y-79489950D01*
X254355179Y-79548294D01*
X254322623Y-79614972D01*
X254307735Y-79651437D01*
X254293791Y-79689985D01*
X254280802Y-79730617D01*
X254268782Y-79773333D01*
X254257742Y-79818133D01*
X254247695Y-79865016D01*
X254238653Y-79913983D01*
X254230629Y-79965033D01*
X254223635Y-80018168D01*
X254217682Y-80073386D01*
X254212785Y-80130687D01*
X254208954Y-80190073D01*
X254206202Y-80251542D01*
X254204542Y-80315094D01*
X254203986Y-80380731D01*
X253218222Y-80380731D01*
X253219987Y-80264666D01*
X253225240Y-80152228D01*
X253233923Y-80043421D01*
X253245976Y-79938249D01*
X253261338Y-79836715D01*
X253279949Y-79738824D01*
X253301750Y-79644579D01*
X253326681Y-79553984D01*
X253354681Y-79467043D01*
X253385692Y-79383758D01*
X253419652Y-79304136D01*
X253456502Y-79228177D01*
X253496182Y-79155888D01*
X253538632Y-79087271D01*
X253583792Y-79022330D01*
X253631603Y-78961069D01*
X253682004Y-78903492D01*
X253734935Y-78849602D01*
X253790337Y-78799404D01*
X253848149Y-78752900D01*
X253908312Y-78710095D01*
X253970765Y-78670993D01*
X254035450Y-78635596D01*
X254102305Y-78603910D01*
X254171271Y-78575937D01*
X254242288Y-78551682D01*
X254315296Y-78531148D01*
X254390235Y-78514340D01*
X254467045Y-78501259D01*
X254545666Y-78491912D01*
X254626039Y-78486301D01*
X254708103Y-78484429D01*
X254790253Y-78486301D01*
G37*
G36*
X259745368Y-82236000D02*
G01*
X258726387Y-82236000D01*
X258546624Y-81480801D01*
X257550113Y-81480801D01*
X257370350Y-82236000D01*
X256385563Y-82236000D01*
X256839552Y-80735371D01*
X257724014Y-80735371D01*
X258373700Y-80735371D01*
X258317036Y-80483313D01*
X258302063Y-80417074D01*
X258286509Y-80348939D01*
X258270457Y-80279141D01*
X258253990Y-80207914D01*
X258237192Y-80135490D01*
X258220144Y-80062103D01*
X258202930Y-79987986D01*
X258185633Y-79913372D01*
X258168336Y-79838495D01*
X258151122Y-79763588D01*
X258134074Y-79688885D01*
X258117276Y-79614617D01*
X258100809Y-79541020D01*
X258084757Y-79468325D01*
X258069203Y-79396767D01*
X258054230Y-79326579D01*
X258031760Y-79326579D01*
X258016908Y-79396767D01*
X258001695Y-79468325D01*
X257986173Y-79541020D01*
X257970394Y-79614617D01*
X257954408Y-79688885D01*
X257938268Y-79763588D01*
X257922025Y-79838495D01*
X257905731Y-79913372D01*
X257889436Y-79987986D01*
X257873193Y-80062103D01*
X257857053Y-80135490D01*
X257841067Y-80207914D01*
X257825288Y-80279141D01*
X257809766Y-80348939D01*
X257794553Y-80417074D01*
X257779701Y-80483313D01*
X257724014Y-80735371D01*
X256839552Y-80735371D01*
X257482702Y-78609482D01*
X258647252Y-78609482D01*
X259745368Y-82236000D01*
G37*
G36*
X260038459Y-82236000D02*
G01*
X262821851Y-82236000D01*
X262821851Y-81429998D01*
X261231341Y-81429998D01*
X262805242Y-79192734D01*
X262805242Y-78609482D01*
X260189890Y-78609482D01*
X260189890Y-79416460D01*
X261612360Y-79416460D01*
X260038459Y-81653725D01*
X260038459Y-82236000D01*
G37*
D11*
%TO.C,J1*%
X251905000Y-65905000D02*
G75*
G03*
X254905000Y-68905000I3000000J0D01*
G01*
X260970000Y-68905000D02*
G75*
G03*
X263970000Y-65905000I0J3000000D01*
G01*
X260970000Y-68905000D02*
X254905000Y-68905000D01*
X254905000Y-30805000D02*
G75*
G03*
X251905000Y-33805000I0J-3000000D01*
G01*
X251905000Y-65905000D02*
X251905000Y-33805000D01*
X263970000Y-33805000D02*
G75*
G03*
X260970000Y-30805000I-3000000J0D01*
G01*
X263970000Y-33805000D02*
X263970000Y-65905000D01*
X254905000Y-30805000D02*
X260970000Y-30805000D01*
%TO.C,SW24*%
X150177500Y-80304000D02*
X150177500Y-71334000D01*
X152677500Y-68834000D02*
X161647500Y-68834000D01*
X161647500Y-82804000D02*
X152677500Y-82804000D01*
X164147500Y-71334000D02*
X164147500Y-80304000D01*
X152677500Y-68834000D02*
G75*
G03*
X150177500Y-71334000I0J-2500000D01*
G01*
X150177500Y-80304000D02*
G75*
G03*
X152677500Y-82804000I2500000J0D01*
G01*
X164147500Y-71334000D02*
G75*
G03*
X161647500Y-68834000I-2500000J0D01*
G01*
X161647500Y-82804000D02*
G75*
G03*
X164147500Y-80304000I0J2500000D01*
G01*
%TO.C,SW11*%
X62071250Y-61254000D02*
X62071250Y-52284000D01*
X64571250Y-49784000D02*
X73541250Y-49784000D01*
X73541250Y-63754000D02*
X64571250Y-63754000D01*
X76041250Y-52284000D02*
X76041250Y-61254000D01*
X64571250Y-49784000D02*
G75*
G03*
X62071250Y-52284000I0J-2500000D01*
G01*
X62071250Y-61254000D02*
G75*
G03*
X64571250Y-63754000I2500000J0D01*
G01*
X76041250Y-52284000D02*
G75*
G03*
X73541250Y-49784000I-2500000J0D01*
G01*
X73541250Y-63754000D02*
G75*
G03*
X76041250Y-61254000I0J2500000D01*
G01*
%TO.C,SW27*%
X212090000Y-80304000D02*
X212090000Y-71334000D01*
X214590000Y-68834000D02*
X223560000Y-68834000D01*
X223560000Y-82804000D02*
X214590000Y-82804000D01*
X226060000Y-71334000D02*
X226060000Y-80304000D01*
X214590000Y-68834000D02*
G75*
G03*
X212090000Y-71334000I0J-2500000D01*
G01*
X212090000Y-80304000D02*
G75*
G03*
X214590000Y-82804000I2500000J0D01*
G01*
X226060000Y-71334000D02*
G75*
G03*
X223560000Y-68834000I-2500000J0D01*
G01*
X223560000Y-82804000D02*
G75*
G03*
X226060000Y-80304000I0J2500000D01*
G01*
%TO.C,SW19*%
X223996250Y-61254000D02*
X223996250Y-52284000D01*
X226496250Y-49784000D02*
X235466250Y-49784000D01*
X235466250Y-63754000D02*
X226496250Y-63754000D01*
X237966250Y-52284000D02*
X237966250Y-61254000D01*
X226496250Y-49784000D02*
G75*
G03*
X223996250Y-52284000I0J-2500000D01*
G01*
X223996250Y-61254000D02*
G75*
G03*
X226496250Y-63754000I2500000J0D01*
G01*
X237966250Y-52284000D02*
G75*
G03*
X235466250Y-49784000I-2500000J0D01*
G01*
X235466250Y-63754000D02*
G75*
G03*
X237966250Y-61254000I0J2500000D01*
G01*
%TO.C,SW21*%
X88265000Y-80304000D02*
X88265000Y-71334000D01*
X90765000Y-68834000D02*
X99735000Y-68834000D01*
X99735000Y-82804000D02*
X90765000Y-82804000D01*
X102235000Y-71334000D02*
X102235000Y-80304000D01*
X90765000Y-68834000D02*
G75*
G03*
X88265000Y-71334000I0J-2500000D01*
G01*
X88265000Y-80304000D02*
G75*
G03*
X90765000Y-82804000I2500000J0D01*
G01*
X102235000Y-71334000D02*
G75*
G03*
X99735000Y-68834000I-2500000J0D01*
G01*
X99735000Y-82804000D02*
G75*
G03*
X102235000Y-80304000I0J2500000D01*
G01*
%TO.C,SW5*%
X135890000Y-42204000D02*
X135890000Y-33234000D01*
X138390000Y-30734000D02*
X147360000Y-30734000D01*
X147360000Y-44704000D02*
X138390000Y-44704000D01*
X149860000Y-33234000D02*
X149860000Y-42204000D01*
X138390000Y-30734000D02*
G75*
G03*
X135890000Y-33234000I0J-2500000D01*
G01*
X135890000Y-42204000D02*
G75*
G03*
X138390000Y-44704000I2500000J0D01*
G01*
X149860000Y-33234000D02*
G75*
G03*
X147360000Y-30734000I-2500000J0D01*
G01*
X147360000Y-44704000D02*
G75*
G03*
X149860000Y-42204000I0J2500000D01*
G01*
%TO.C,SW7*%
X173990000Y-42204000D02*
X173990000Y-33234000D01*
X176490000Y-30734000D02*
X185460000Y-30734000D01*
X185460000Y-44704000D02*
X176490000Y-44704000D01*
X187960000Y-33234000D02*
X187960000Y-42204000D01*
X176490000Y-30734000D02*
G75*
G03*
X173990000Y-33234000I0J-2500000D01*
G01*
X173990000Y-42204000D02*
G75*
G03*
X176490000Y-44704000I2500000J0D01*
G01*
X187960000Y-33234000D02*
G75*
G03*
X185460000Y-30734000I-2500000J0D01*
G01*
X185460000Y-44704000D02*
G75*
G03*
X187960000Y-42204000I0J2500000D01*
G01*
%TO.C,SW1*%
X59690000Y-42204000D02*
X59690000Y-33234000D01*
X62190000Y-30734000D02*
X71160000Y-30734000D01*
X71160000Y-44704000D02*
X62190000Y-44704000D01*
X73660000Y-33234000D02*
X73660000Y-42204000D01*
X62190000Y-30734000D02*
G75*
G03*
X59690000Y-33234000I0J-2500000D01*
G01*
X59690000Y-42204000D02*
G75*
G03*
X62190000Y-44704000I2500000J0D01*
G01*
X73660000Y-33234000D02*
G75*
G03*
X71160000Y-30734000I-2500000J0D01*
G01*
X71160000Y-44704000D02*
G75*
G03*
X73660000Y-42204000I0J2500000D01*
G01*
%TO.C,SW26*%
X193040000Y-80304000D02*
X193040000Y-71334000D01*
X195540000Y-68834000D02*
X204510000Y-68834000D01*
X204510000Y-82804000D02*
X195540000Y-82804000D01*
X207010000Y-71334000D02*
X207010000Y-80304000D01*
X195540000Y-68834000D02*
G75*
G03*
X193040000Y-71334000I0J-2500000D01*
G01*
X193040000Y-80304000D02*
G75*
G03*
X195540000Y-82804000I2500000J0D01*
G01*
X207010000Y-71334000D02*
G75*
G03*
X204510000Y-68834000I-2500000J0D01*
G01*
X204510000Y-82804000D02*
G75*
G03*
X207010000Y-80304000I0J2500000D01*
G01*
%TO.C,SW9*%
X212090000Y-42204000D02*
X212090000Y-33234000D01*
X214590000Y-30734000D02*
X223560000Y-30734000D01*
X223560000Y-44704000D02*
X214590000Y-44704000D01*
X226060000Y-33234000D02*
X226060000Y-42204000D01*
X214590000Y-30734000D02*
G75*
G03*
X212090000Y-33234000I0J-2500000D01*
G01*
X212090000Y-42204000D02*
G75*
G03*
X214590000Y-44704000I2500000J0D01*
G01*
X226060000Y-33234000D02*
G75*
G03*
X223560000Y-30734000I-2500000J0D01*
G01*
X223560000Y-44704000D02*
G75*
G03*
X226060000Y-42204000I0J2500000D01*
G01*
%TO.C,SW18*%
X197802500Y-61254000D02*
X197802500Y-52284000D01*
X200302500Y-49784000D02*
X209272500Y-49784000D01*
X209272500Y-63754000D02*
X200302500Y-63754000D01*
X211772500Y-52284000D02*
X211772500Y-61254000D01*
X200302500Y-49784000D02*
G75*
G03*
X197802500Y-52284000I0J-2500000D01*
G01*
X197802500Y-61254000D02*
G75*
G03*
X200302500Y-63754000I2500000J0D01*
G01*
X211772500Y-52284000D02*
G75*
G03*
X209272500Y-49784000I-2500000J0D01*
G01*
X209272500Y-63754000D02*
G75*
G03*
X211772500Y-61254000I0J2500000D01*
G01*
%TO.C,SW13*%
X102552500Y-61254000D02*
X102552500Y-52284000D01*
X105052500Y-49784000D02*
X114022500Y-49784000D01*
X114022500Y-63754000D02*
X105052500Y-63754000D01*
X116522500Y-52284000D02*
X116522500Y-61254000D01*
X105052500Y-49784000D02*
G75*
G03*
X102552500Y-52284000I0J-2500000D01*
G01*
X102552500Y-61254000D02*
G75*
G03*
X105052500Y-63754000I2500000J0D01*
G01*
X116522500Y-52284000D02*
G75*
G03*
X114022500Y-49784000I-2500000J0D01*
G01*
X114022500Y-63754000D02*
G75*
G03*
X116522500Y-61254000I0J2500000D01*
G01*
%TO.C,SW2*%
X78740000Y-42204000D02*
X78740000Y-33234000D01*
X81240000Y-30734000D02*
X90210000Y-30734000D01*
X90210000Y-44704000D02*
X81240000Y-44704000D01*
X92710000Y-33234000D02*
X92710000Y-42204000D01*
X81240000Y-30734000D02*
G75*
G03*
X78740000Y-33234000I0J-2500000D01*
G01*
X78740000Y-42204000D02*
G75*
G03*
X81240000Y-44704000I2500000J0D01*
G01*
X92710000Y-33234000D02*
G75*
G03*
X90210000Y-30734000I-2500000J0D01*
G01*
X90210000Y-44704000D02*
G75*
G03*
X92710000Y-42204000I0J2500000D01*
G01*
%TO.C,SW12*%
X83502500Y-61254000D02*
X83502500Y-52284000D01*
X86002500Y-49784000D02*
X94972500Y-49784000D01*
X94972500Y-63754000D02*
X86002500Y-63754000D01*
X97472500Y-52284000D02*
X97472500Y-61254000D01*
X86002500Y-49784000D02*
G75*
G03*
X83502500Y-52284000I0J-2500000D01*
G01*
X83502500Y-61254000D02*
G75*
G03*
X86002500Y-63754000I2500000J0D01*
G01*
X97472500Y-52284000D02*
G75*
G03*
X94972500Y-49784000I-2500000J0D01*
G01*
X94972500Y-63754000D02*
G75*
G03*
X97472500Y-61254000I0J2500000D01*
G01*
%TO.C,SW20*%
X64452500Y-80304000D02*
X64452500Y-71334000D01*
X66952500Y-68834000D02*
X75922500Y-68834000D01*
X75922500Y-82804000D02*
X66952500Y-82804000D01*
X78422500Y-71334000D02*
X78422500Y-80304000D01*
X66952500Y-68834000D02*
G75*
G03*
X64452500Y-71334000I0J-2500000D01*
G01*
X64452500Y-80304000D02*
G75*
G03*
X66952500Y-82804000I2500000J0D01*
G01*
X78422500Y-71334000D02*
G75*
G03*
X75922500Y-68834000I-2500000J0D01*
G01*
X75922500Y-82804000D02*
G75*
G03*
X78422500Y-80304000I0J2500000D01*
G01*
%TO.C,SW17*%
X178752500Y-61254000D02*
X178752500Y-52284000D01*
X181252500Y-49784000D02*
X190222500Y-49784000D01*
X190222500Y-63754000D02*
X181252500Y-63754000D01*
X192722500Y-52284000D02*
X192722500Y-61254000D01*
X181252500Y-49784000D02*
G75*
G03*
X178752500Y-52284000I0J-2500000D01*
G01*
X178752500Y-61254000D02*
G75*
G03*
X181252500Y-63754000I2500000J0D01*
G01*
X192722500Y-52284000D02*
G75*
G03*
X190222500Y-49784000I-2500000J0D01*
G01*
X190222500Y-63754000D02*
G75*
G03*
X192722500Y-61254000I0J2500000D01*
G01*
%TO.C,SW28*%
X231140000Y-80304000D02*
X231140000Y-71334000D01*
X233640000Y-68834000D02*
X242610000Y-68834000D01*
X242610000Y-82804000D02*
X233640000Y-82804000D01*
X245110000Y-71334000D02*
X245110000Y-80304000D01*
X233640000Y-68834000D02*
G75*
G03*
X231140000Y-71334000I0J-2500000D01*
G01*
X231140000Y-80304000D02*
G75*
G03*
X233640000Y-82804000I2500000J0D01*
G01*
X245110000Y-71334000D02*
G75*
G03*
X242610000Y-68834000I-2500000J0D01*
G01*
X242610000Y-82804000D02*
G75*
G03*
X245110000Y-80304000I0J2500000D01*
G01*
%TO.C,SW10*%
X231140000Y-42204000D02*
X231140000Y-33234000D01*
X233640000Y-30734000D02*
X242610000Y-30734000D01*
X242610000Y-44704000D02*
X233640000Y-44704000D01*
X245110000Y-33234000D02*
X245110000Y-42204000D01*
X233640000Y-30734000D02*
G75*
G03*
X231140000Y-33234000I0J-2500000D01*
G01*
X231140000Y-42204000D02*
G75*
G03*
X233640000Y-44704000I2500000J0D01*
G01*
X245110000Y-33234000D02*
G75*
G03*
X242610000Y-30734000I-2500000J0D01*
G01*
X242610000Y-44704000D02*
G75*
G03*
X245110000Y-42204000I0J2500000D01*
G01*
%TO.C,SW6*%
X154940000Y-42204000D02*
X154940000Y-33234000D01*
X157440000Y-30734000D02*
X166410000Y-30734000D01*
X166410000Y-44704000D02*
X157440000Y-44704000D01*
X168910000Y-33234000D02*
X168910000Y-42204000D01*
X157440000Y-30734000D02*
G75*
G03*
X154940000Y-33234000I0J-2500000D01*
G01*
X154940000Y-42204000D02*
G75*
G03*
X157440000Y-44704000I2500000J0D01*
G01*
X168910000Y-33234000D02*
G75*
G03*
X166410000Y-30734000I-2500000J0D01*
G01*
X166410000Y-44704000D02*
G75*
G03*
X168910000Y-42204000I0J2500000D01*
G01*
%TO.C,SW16*%
X159702500Y-61254000D02*
X159702500Y-52284000D01*
X162202500Y-49784000D02*
X171172500Y-49784000D01*
X171172500Y-63754000D02*
X162202500Y-63754000D01*
X173672500Y-52284000D02*
X173672500Y-61254000D01*
X162202500Y-49784000D02*
G75*
G03*
X159702500Y-52284000I0J-2500000D01*
G01*
X159702500Y-61254000D02*
G75*
G03*
X162202500Y-63754000I2500000J0D01*
G01*
X173672500Y-52284000D02*
G75*
G03*
X171172500Y-49784000I-2500000J0D01*
G01*
X171172500Y-63754000D02*
G75*
G03*
X173672500Y-61254000I0J2500000D01*
G01*
%TO.C,SW14*%
X121602500Y-61254000D02*
X121602500Y-52284000D01*
X124102500Y-49784000D02*
X133072500Y-49784000D01*
X133072500Y-63754000D02*
X124102500Y-63754000D01*
X135572500Y-52284000D02*
X135572500Y-61254000D01*
X124102500Y-49784000D02*
G75*
G03*
X121602500Y-52284000I0J-2500000D01*
G01*
X121602500Y-61254000D02*
G75*
G03*
X124102500Y-63754000I2500000J0D01*
G01*
X135572500Y-52284000D02*
G75*
G03*
X133072500Y-49784000I-2500000J0D01*
G01*
X133072500Y-63754000D02*
G75*
G03*
X135572500Y-61254000I0J2500000D01*
G01*
%TO.C,SW22*%
X107315000Y-80304000D02*
X107315000Y-71334000D01*
X109815000Y-68834000D02*
X118785000Y-68834000D01*
X118785000Y-82804000D02*
X109815000Y-82804000D01*
X121285000Y-71334000D02*
X121285000Y-80304000D01*
X109815000Y-68834000D02*
G75*
G03*
X107315000Y-71334000I0J-2500000D01*
G01*
X107315000Y-80304000D02*
G75*
G03*
X109815000Y-82804000I2500000J0D01*
G01*
X121285000Y-71334000D02*
G75*
G03*
X118785000Y-68834000I-2500000J0D01*
G01*
X118785000Y-82804000D02*
G75*
G03*
X121285000Y-80304000I0J2500000D01*
G01*
%TO.C,SW23*%
X126365000Y-80304000D02*
X126365000Y-71334000D01*
X128865000Y-68834000D02*
X137835000Y-68834000D01*
X137835000Y-82804000D02*
X128865000Y-82804000D01*
X140335000Y-71334000D02*
X140335000Y-80304000D01*
X128865000Y-68834000D02*
G75*
G03*
X126365000Y-71334000I0J-2500000D01*
G01*
X126365000Y-80304000D02*
G75*
G03*
X128865000Y-82804000I2500000J0D01*
G01*
X140335000Y-71334000D02*
G75*
G03*
X137835000Y-68834000I-2500000J0D01*
G01*
X137835000Y-82804000D02*
G75*
G03*
X140335000Y-80304000I0J2500000D01*
G01*
%TO.C,SW3*%
X97790000Y-42204000D02*
X97790000Y-33234000D01*
X100290000Y-30734000D02*
X109260000Y-30734000D01*
X109260000Y-44704000D02*
X100290000Y-44704000D01*
X111760000Y-33234000D02*
X111760000Y-42204000D01*
X100290000Y-30734000D02*
G75*
G03*
X97790000Y-33234000I0J-2500000D01*
G01*
X97790000Y-42204000D02*
G75*
G03*
X100290000Y-44704000I2500000J0D01*
G01*
X111760000Y-33234000D02*
G75*
G03*
X109260000Y-30734000I-2500000J0D01*
G01*
X109260000Y-44704000D02*
G75*
G03*
X111760000Y-42204000I0J2500000D01*
G01*
%TO.C,SW4*%
X116840000Y-42204000D02*
X116840000Y-33234000D01*
X119340000Y-30734000D02*
X128310000Y-30734000D01*
X128310000Y-44704000D02*
X119340000Y-44704000D01*
X130810000Y-33234000D02*
X130810000Y-42204000D01*
X119340000Y-30734000D02*
G75*
G03*
X116840000Y-33234000I0J-2500000D01*
G01*
X116840000Y-42204000D02*
G75*
G03*
X119340000Y-44704000I2500000J0D01*
G01*
X130810000Y-33234000D02*
G75*
G03*
X128310000Y-30734000I-2500000J0D01*
G01*
X128310000Y-44704000D02*
G75*
G03*
X130810000Y-42204000I0J2500000D01*
G01*
%TO.C,SW8*%
X193040000Y-42204000D02*
X193040000Y-33234000D01*
X195540000Y-30734000D02*
X204510000Y-30734000D01*
X204510000Y-44704000D02*
X195540000Y-44704000D01*
X207010000Y-33234000D02*
X207010000Y-42204000D01*
X195540000Y-30734000D02*
G75*
G03*
X193040000Y-33234000I0J-2500000D01*
G01*
X193040000Y-42204000D02*
G75*
G03*
X195540000Y-44704000I2500000J0D01*
G01*
X207010000Y-33234000D02*
G75*
G03*
X204510000Y-30734000I-2500000J0D01*
G01*
X204510000Y-44704000D02*
G75*
G03*
X207010000Y-42204000I0J2500000D01*
G01*
%TO.C,SW15*%
X140652500Y-61254000D02*
X140652500Y-52284000D01*
X143152500Y-49784000D02*
X152122500Y-49784000D01*
X152122500Y-63754000D02*
X143152500Y-63754000D01*
X154622500Y-52284000D02*
X154622500Y-61254000D01*
X143152500Y-49784000D02*
G75*
G03*
X140652500Y-52284000I0J-2500000D01*
G01*
X140652500Y-61254000D02*
G75*
G03*
X143152500Y-63754000I2500000J0D01*
G01*
X154622500Y-52284000D02*
G75*
G03*
X152122500Y-49784000I-2500000J0D01*
G01*
X152122500Y-63754000D02*
G75*
G03*
X154622500Y-61254000I0J2500000D01*
G01*
%TO.C,SW25*%
X173990000Y-80304000D02*
X173990000Y-71334000D01*
X176490000Y-68834000D02*
X185460000Y-68834000D01*
X185460000Y-82804000D02*
X176490000Y-82804000D01*
X187960000Y-71334000D02*
X187960000Y-80304000D01*
X176490000Y-68834000D02*
G75*
G03*
X173990000Y-71334000I0J-2500000D01*
G01*
X173990000Y-80304000D02*
G75*
G03*
X176490000Y-82804000I2500000J0D01*
G01*
X187960000Y-71334000D02*
G75*
G03*
X185460000Y-68834000I-2500000J0D01*
G01*
X185460000Y-82804000D02*
G75*
G03*
X187960000Y-80304000I0J2500000D01*
G01*
%TD*%
M02*
