<?xml version="1.0" standalone="no"?>
 <!DOCTYPE svg PUBLIC "-//W3C//DTD SVG 1.1//EN" 
 "http://www.w3.org/Graphics/SVG/1.1/DTD/svg11.dtd"> 
<svg
  xmlns:svg="http://www.w3.org/2000/svg"
  xmlns="http://www.w3.org/2000/svg"
  xmlns:xlink="http://www.w3.org/1999/xlink"
  version="1.1"
  width="297.0022mm" height="210.0072mm" viewBox="0.0000 0.0000 297.0022 210.0072">
<title>SVG Image created as jigsaw-NPTH-drl_map.svg date 2023/09/11 19:57:49 </title>
  <desc>Image generated by PCBNEW </desc>
<g style="fill:#000000; fill-opacity:1.0000;stroke:#000000; stroke-opacity:1.0000;
stroke-linecap:round; stroke-linejoin:round;"
 transform="translate(0 0) scale(1 1)">
</g>
<g style="fill:#000000; fill-opacity:0.0; 
stroke:#000000; stroke-width:0.0000; stroke-opacity:1; 
stroke-linecap:round; stroke-linejoin:round;">
</g>
<g style="fill:#000000; fill-opacity:0.0; 
stroke:#000000; stroke-width:0.2564; stroke-opacity:1; 
stroke-linecap:round; stroke-linejoin:round;">
<path d="M152.8379 64.2865
L152.3464 64.2839
" />
<path d="M125.3388 113.1189 A2.4551 2.4551 0.0 0 0 125.4064 116.1769" />
<path d="M98.3844 85.9395
L98.3844 66.8474
" />
<path d="M120.1973 116.1769 A3.0714 3.0714 0.0 1 0 125.4064 116.1769" />
<path d="M147.2193 91.3537 A2.4547 2.4547 0.0 0 0 144.1613 91.4213" />
<path d="M144.6558 113.1189
L125.3388 113.1189
" />
<path d="M125.3516 64.2839 A2.4552 2.4552 0.0 0 0 125.4192 67.3419" />
<path d="M144.1613 86.2122 A3.0714 3.0714 0.0 1 0 144.1613 91.4213" />
<path d="M149.7803 67.3390
L149.7829 66.8474
" />
<path d="M95.3264 86.0071 A2.4547 2.4547 0.0 0 0 98.3844 85.9395" />
<path d="M144.1643 64.2813
L144.6558 64.2839
" />
<path d="M147.2193 91.3536
L147.2193 110.5554
" />
<path d="M147.2168 81.4383
L147.2193 86.1446
" />
<path d="M120.1973 116.1769 A2.4551 2.4551 0.0 0 0 120.1297 113.1189" />
<path d="M98.3844 110.5554 A2.5635 2.5635 0.0 0 0 100.9479 113.1189" />
<path d="M95.3264 86.0072 A3.0714 3.0714 0.0 1 0 95.3264 91.2162" />
<path d="M120.1297 113.1189
L100.9479 113.1189
" />
<path d="M100.9479 64.2839 A2.5630 2.5630 0.0 0 0 98.3844 66.8474" />
<path d="M144.1614 86.2122 A2.4547 2.4547 0.0 0 0 147.2193 86.1446" />
<path d="M125.3516 64.2839
L130.0649 64.2813
" />
<path d="M100.9479 64.2839
L120.1425 64.2839
" />
<path d="M98.3844 91.1486 A2.4547 2.4547 0.0 0 0 95.3264 91.2162" />
<path d="M147.2194 66.8474 A2.5633 2.5633 0.0 0 0 144.6558 64.2839" />
<path d="M98.3844 110.5554
L98.3844 91.1486
" />
<path d="M120.2101 67.3419 A2.4551 2.4551 0.0 0 0 120.1425 64.2839" />
<path d="M196.0543 113.1189
L176.6475 113.1189
" />
<path d="M171.7112 67.3419 A3.0714 3.0714 0.0 1 0 176.9202 67.3419" />
<path d="M149.7826 110.5554 A2.5635 2.5635 0.0 0 0 152.3464 113.1189" />
<path d="M198.6178 66.8474 A2.5637 2.5637 0.0 0 0 196.0543 64.2839" />
<path d="M152.8409 91.2931 A3.0714 3.0714 0.0 1 0 152.8409 86.0840" />
<path d="M201.6758 91.3059 A2.4552 2.4552 0.0 0 0 198.6178 91.3736" />
<path d="M152.8408 91.2931 A2.4551 2.4551 0.0 0 0 149.7829 91.3607" />
<path d="M149.7829 86.1516 A2.4550 2.4550 0.0 0 0 152.8409 86.0840" />
<path d="M152.3464 64.2839 A2.5633 2.5633 0.0 0 0 149.7829 66.8474" />
<path d="M166.9373 64.2865
L171.6435 64.2839
" />
<path d="M176.6475 113.1189 A2.4547 2.4547 0.0 0 0 176.7151 116.1769" />
<path d="M176.8526 64.2839
L196.0543 64.2839
" />
<path d="M149.7829 86.1517
L149.7803 81.4383
" />
<path d="M171.7111 67.3419 A2.4547 2.4547 0.0 0 0 171.6435 64.2839" />
<path d="M171.5061 116.1769 A3.0714 3.0714 0.0 1 0 176.7151 116.1769" />
<path d="M196.0543 113.1189 A2.5635 2.5635 0.0 0 0 198.6178 110.5554" />
<path d="M171.5061 116.1769 A2.4547 2.4547 0.0 0 0 171.4384 113.1189" />
<path d="M198.6178 66.8474
L198.6178 86.1645
" />
<path d="M176.8526 64.2839 A2.4547 2.4547 0.0 0 0 176.9202 67.3419" />
<path d="M201.6758 91.3059 A3.0714 3.0714 0.0 1 0 201.6758 86.0969" />
<path d="M171.4384 113.1189
L152.3464 113.1189
" />
<path d="M198.6178 86.1645 A2.4550 2.4550 0.0 0 0 201.6758 86.0969" />
<path d="M149.7829 110.5554
L149.7829 91.3607
" />
<path d="M198.6178 91.3736
L198.6178 110.5554
" />
<path d="M144.6558 113.1189 A2.5637 2.5637 0.0 0 0 147.2193 110.5554" />
<path d="M120.2102 67.3419 A3.0714 3.0714 0.0 1 0 125.4192 67.3419" />
<path d="M147.2168 67.3390
L147.2193 66.8474
" />
<path d="M144.1643 61.7178
L144.6558 61.7204
" />
<path d="M152.8379 61.7230
L152.3464 61.7204
" />
<path d="M149.7854 58.6653
L149.7829 59.1569
" />
<path d="M147.2219 58.6653
L147.2193 59.1569
" />
<path d="M198.6178 15.4490
L198.6178 34.8558
" />
<path d="M152.8409 39.7921 A3.0714 3.0714 0.0 1 0 152.8409 34.5830" />
<path d="M196.0543 61.7206 A2.5635 2.5635 0.0 0 0 198.6178 59.1569" />
<path d="M152.3464 12.8854 A2.5637 2.5637 0.0 0 0 149.7829 15.4490" />
<path d="M176.7921 58.6624 A3.0714 3.0714 0.0 1 0 171.5830 58.6624" />
<path d="M176.8049 9.8274 A2.4552 2.4552 0.0 0 0 176.8725 12.8855" />
<path d="M176.7921 58.6624 A2.4551 2.4551 0.0 0 0 176.8597 61.7204" />
<path d="M171.6506 61.7204 A2.4550 2.4550 0.0 0 0 171.5830 58.6624" />
<path d="M149.7829 59.1569 A2.5633 2.5633 0.0 0 0 152.3464 61.7204" />
<path d="M149.7854 44.5660
L149.7829 39.8597
" />
<path d="M198.6178 34.8558 A2.4547 2.4547 0.0 0 0 201.6758 34.7881" />
<path d="M149.7829 34.6507
L149.7829 15.4490
" />
<path d="M171.6506 61.7204
L166.9373 61.7230
" />
<path d="M152.8409 39.7921 A2.4547 2.4547 0.0 0 0 149.7829 39.8597" />
<path d="M201.6758 39.9972 A3.0714 3.0714 0.0 1 0 201.6758 34.7881" />
<path d="M198.6178 15.4490 A2.5635 2.5635 0.0 0 0 196.0543 12.8855" />
<path d="M201.6758 39.9972 A2.4547 2.4547 0.0 0 0 198.6178 40.0648" />
<path d="M152.3464 12.8855
L171.6634 12.8855
" />
<path d="M149.7829 34.6507 A2.4547 2.4547 0.0 0 0 152.8409 34.5830" />
<path d="M176.8049 9.8274 A3.0714 3.0714 0.0 1 0 171.5958 9.8274" />
<path d="M198.6178 40.0648
L198.6178 59.1569
" />
<path d="M171.6634 12.8855 A2.4550 2.4550 0.0 0 0 171.5958 9.8274" />
<path d="M196.0543 61.7204
L176.8597 61.7204
" />
<path d="M176.8725 12.8855
L196.0543 12.8855
" />
<path d="M98.3844 34.6308
L98.3844 15.4490
" />
<path d="M147.2193 15.4490
L147.2193 34.6436
" />
<path d="M98.3844 39.8398 A2.4550 2.4550 0.0 0 0 95.3264 39.9075" />
<path d="M125.5638 12.8855
L144.6558 12.8855
" />
<path d="M95.3264 34.6984 A3.0714 3.0714 0.0 1 0 95.3264 39.9075" />
<path d="M120.1497 61.7205 A2.4549 2.4549 0.0 0 0 120.0820 58.6624" />
<path d="M98.3844 59.1569
L98.3844 39.8398
" />
<path d="M125.4960 9.8274 A2.4550 2.4550 0.0 0 0 125.5638 12.8855" />
<path d="M125.4961 9.8274 A3.0714 3.0714 0.0 1 0 120.2871 9.8274" />
<path d="M125.2909 58.6623 A2.4550 2.4550 0.0 0 0 125.3587 61.7204" />
<path d="M147.2193 39.8526
L147.2219 44.5660
" />
<path d="M120.1496 61.7204
L100.9479 61.7204
" />
<path d="M120.3548 12.8855 A2.4549 2.4549 0.0 0 0 120.2871 9.8274" />
<path d="M130.0649 61.7178
L125.3587 61.7204
" />
<path d="M144.6558 61.7205 A2.5635 2.5635 0.0 0 0 147.2193 59.1569" />
<path d="M147.2193 39.8526 A2.4550 2.4550 0.0 0 0 144.1613 39.9203" />
<path d="M144.1614 34.7111 A2.4550 2.4550 0.0 0 0 147.2193 34.6436" />
<path d="M95.3264 34.6983 A2.4550 2.4550 0.0 0 0 98.3844 34.6308" />
<path d="M144.1613 34.7112 A3.0714 3.0714 0.0 1 0 144.1613 39.9203" />
<path d="M98.3845 59.1569 A2.5634 2.5634 0.0 0 0 100.9479 61.7204" />
<path d="M147.2195 15.4490 A2.5636 2.5636 0.0 0 0 144.6558 12.8855" />
<path d="M100.9479 12.8854 A2.5635 2.5635 0.0 0 0 98.3844 15.4490" />
<path d="M125.2910 58.6624 A3.0714 3.0714 0.0 1 0 120.0820 58.6624" />
<path d="M100.9479 12.8855
L120.3547 12.8855
" />
</g>
<g style="fill:#000000; fill-opacity:0.0; 
stroke:#000000; stroke-width:0.5127; stroke-opacity:1; 
stroke-linecap:round; stroke-linejoin:round;">
</g>
<g style="fill:#000000; fill-opacity:0.0; 
stroke:#000000; stroke-width:0.1923; stroke-opacity:1; 
stroke-linecap:round; stroke-linejoin:round;">
<path d="M131.2698 60.1156
L133.1924 62.0382
" />
<path d="M133.1924 60.1156
L131.2698 62.0382
" />
<path d="M131.2698 63.8327
L133.1924 65.7553
" />
<path d="M133.1924 63.8327
L131.2698 65.7553
" />
<path d="M134.5255 60.1156
L136.4481 62.0382
" />
<path d="M136.4481 60.1156
L134.5255 62.0382
" />
<path d="M134.5255 63.8327
L136.4481 65.7553
" />
<path d="M136.4481 63.8327
L134.5255 65.7553
" />
<path d="M137.7811 60.1156
L139.7038 62.0382
" />
<path d="M139.7038 60.1156
L137.7811 62.0382
" />
<path d="M137.7811 63.8327
L139.7038 65.7553
" />
<path d="M139.7038 63.8327
L137.7811 65.7553
" />
<path d="M141.0368 60.1156
L142.9594 62.0382
" />
<path d="M142.9594 60.1156
L141.0368 62.0382
" />
<path d="M141.0368 63.8327
L142.9594 65.7553
" />
<path d="M142.9594 63.8327
L141.0368 65.7553
" />
<path d="M145.6146 68.5438
L147.5372 70.4665
" />
<path d="M147.5372 68.5438
L145.6146 70.4665
" />
<path d="M145.6146 71.7995
L147.5372 73.7221
" />
<path d="M147.5372 71.7995
L145.6146 73.7221
" />
<path d="M145.6146 75.0552
L147.5372 76.9778
" />
<path d="M147.5372 75.0552
L145.6146 76.9778
" />
<path d="M145.6146 78.3108
L147.5372 80.2335
" />
<path d="M147.5372 78.3108
L145.6146 80.2335
" />
<path d="M145.7479 45.7709
L147.6706 47.6935
" />
<path d="M147.6706 45.7709
L145.7479 47.6935
" />
<path d="M145.7479 49.0265
L147.6706 50.9492
" />
<path d="M147.6706 49.0265
L145.7479 50.9492
" />
<path d="M145.7479 52.2822
L147.6706 54.2048
" />
<path d="M147.6706 52.2822
L145.7479 54.2048
" />
<path d="M145.7479 55.5378
L147.6706 57.4605
" />
<path d="M147.6706 55.5378
L145.7479 57.4605
" />
<path d="M149.3317 68.5438
L151.2543 70.4665
" />
<path d="M151.2543 68.5438
L149.3317 70.4665
" />
<path d="M149.3317 71.7995
L151.2543 73.7221
" />
<path d="M151.2543 71.7995
L149.3317 73.7221
" />
<path d="M149.3317 75.0552
L151.2543 76.9778
" />
<path d="M151.2543 75.0552
L149.3317 76.9778
" />
<path d="M149.3317 78.3108
L151.2543 80.2335
" />
<path d="M151.2543 78.3108
L149.3317 80.2335
" />
<path d="M149.4650 45.7709
L151.3876 47.6935
" />
<path d="M151.3876 45.7709
L149.4650 47.6935
" />
<path d="M149.4650 49.0265
L151.3876 50.9492
" />
<path d="M151.3876 49.0265
L149.4650 50.9492
" />
<path d="M149.4650 52.2822
L151.3876 54.2048
" />
<path d="M151.3876 52.2822
L149.4650 54.2048
" />
<path d="M149.4650 55.5378
L151.3876 57.4605
" />
<path d="M151.3876 55.5378
L149.4650 57.4605
" />
<path d="M154.0428 60.2490
L155.9654 62.1716
" />
<path d="M155.9654 60.2490
L154.0428 62.1716
" />
<path d="M154.0428 63.9661
L155.9654 65.8887
" />
<path d="M155.9654 63.9661
L154.0428 65.8887
" />
<path d="M157.2984 60.2490
L159.2211 62.1716
" />
<path d="M159.2211 60.2490
L157.2984 62.1716
" />
<path d="M157.2984 63.9661
L159.2211 65.8887
" />
<path d="M159.2211 63.9661
L157.2984 65.8887
" />
<path d="M160.5541 60.2490
L162.4767 62.1716
" />
<path d="M162.4767 60.2490
L160.5541 62.1716
" />
<path d="M160.5541 63.9661
L162.4767 65.8887
" />
<path d="M162.4767 63.9661
L160.5541 65.8887
" />
<path d="M163.8098 60.2490
L165.7324 62.1716
" />
<path d="M165.7324 60.2490
L163.8098 62.1716
" />
<path d="M163.8098 63.9661
L165.7324 65.8887
" />
<path d="M165.7324 63.9661
L163.8098 65.8887
" />
</g>
<g style="fill:#000000; fill-opacity:0.0; 
stroke:#000000; stroke-width:0.4486; stroke-opacity:1; 
stroke-linecap:round; stroke-linejoin:round;">
<circle cx="109.8023" cy="37.2856" r="2.2431" /> 
<circle cx="122.7846" cy="75.6556" r="2.2431" /> 
<circle cx="122.7846" cy="101.7009" r="2.2431" /> 
<circle cx="135.8476" cy="37.2856" r="2.2431" /> 
<circle cx="161.1546" cy="88.7187" r="2.2431" /> 
<circle cx="174.2176" cy="24.3034" r="2.2431" /> 
<circle cx="174.2176" cy="50.3487" r="2.2431" /> 
<circle cx="187.1999" cy="88.7187" r="2.2431" /> 
</g>
<g style="fill:#000000; fill-opacity:0.0; 
stroke:#000000; stroke-width:0.7819; stroke-opacity:1; 
stroke-linecap:round; stroke-linejoin:round;">
<path d="M109.7619 78.2576
L109.7619 86.0763
" />
<path d="M105.8525 82.1670
L113.6713 82.1670
" />
<path d="M113.0580 26.8649
L113.0580 34.6837
" />
<path d="M109.1486 30.7743
L116.9673 30.7743
" />
<path d="M116.2732 94.5359
L116.2732 102.3546
" />
<path d="M112.3639 98.4453
L120.1826 98.4453
" />
<path d="M129.3363 20.3536
L129.3363 28.1723
" />
<path d="M125.4269 24.2630
L133.2457 24.2630
" />
<path d="M167.6659 97.8320
L167.6659 105.6507
" />
<path d="M163.7565 101.7414
L171.5753 101.7414
" />
<path d="M180.7290 23.6497
L180.7290 31.4684
" />
<path d="M176.8196 27.5590
L184.6383 27.5590
" />
<path d="M183.9442 91.3207
L183.9442 99.1394
" />
<path d="M180.0349 95.2300
L187.8536 95.2300
" />
<path d="M187.2403 39.9280
L187.2403 47.7467
" />
<path d="M183.3309 43.8374
L191.1497 43.8374
" />
</g>
<g style="fill:#000000; fill-opacity:0.0; 
stroke:#000000; stroke-width:1.0254; stroke-opacity:1; 
stroke-linecap:round; stroke-linejoin:round;">
<path style="fill:#000000; fill-opacity:0.0; 
stroke:#000000; stroke-width:1.0254; stroke-opacity:1; 
stroke-linecap:round; stroke-linejoin:round;fill:none"
d="M 126.4100,92.3037
126.4100,85.0529
119.1592,85.0529
119.1592,92.3037
Z" /> 
<path style="fill:#000000; fill-opacity:0.0; 
stroke:#000000; stroke-width:1.0254; stroke-opacity:1; 
stroke-linecap:round; stroke-linejoin:round;fill:none"
d="M 126.4504,40.9110
126.4504,33.6602
119.1996,33.6602
119.1996,40.9110
Z" /> 
<path style="fill:#000000; fill-opacity:0.0; 
stroke:#000000; stroke-width:1.0254; stroke-opacity:1; 
stroke-linecap:round; stroke-linejoin:round;fill:none"
d="M 177.8026,92.3441
177.8026,85.0933
170.5518,85.0933
170.5518,92.3441
Z" /> 
<path style="fill:#000000; fill-opacity:0.0; 
stroke:#000000; stroke-width:1.0254; stroke-opacity:1; 
stroke-linecap:round; stroke-linejoin:round;fill:none"
d="M 177.8430,40.9514
177.8430,33.7006
170.5922,33.7006
170.5922,40.9514
Z" /> 
</g>
<g style="fill:#000000; fill-opacity:0.0; 
stroke:#000000; stroke-width:0.5127; stroke-opacity:1; 
stroke-linecap:round; stroke-linejoin:round;">
</g>
<g style="fill:#000000; fill-opacity:0.0; 
stroke:#000000; stroke-width:0.2000; stroke-opacity:1; 
stroke-linecap:round; stroke-linejoin:round;">
<text x="92.4989" y="124.2043"
textLength="14.8667" font-size="2.6667" lengthAdjust="spacingAndGlyphs"
text-anchor="start" opacity="0">Drill Map:</text>
<g class="stroked-text"><desc>Drill Map:</desc>
<path d="M93.1067 124.1192
L93.1067 122.1192
" />
<path d="M93.1067 122.1192
L93.5829 122.1192
" />
<path d="M93.5829 122.1192
L93.8686 122.2144
" />
<path d="M93.8686 122.2144
L94.0591 122.4049
" />
<path d="M94.0591 122.4049
L94.1543 122.5953
" />
<path d="M94.1543 122.5953
L94.2496 122.9763
" />
<path d="M94.2496 122.9763
L94.2496 123.2620
" />
<path d="M94.2496 123.2620
L94.1543 123.6430
" />
<path d="M94.1543 123.6430
L94.0591 123.8334
" />
<path d="M94.0591 123.8334
L93.8686 124.0239
" />
<path d="M93.8686 124.0239
L93.5829 124.1192
" />
<path d="M93.5829 124.1192
L93.1067 124.1192
" />
<path d="M95.1067 124.1192
L95.1067 122.7858
" />
<path d="M95.1067 123.1668
L95.2019 122.9763
" />
<path d="M95.2019 122.9763
L95.2972 122.8811
" />
<path d="M95.2972 122.8811
L95.4877 122.7858
" />
<path d="M95.4877 122.7858
L95.6781 122.7858
" />
<path d="M96.3448 124.1192
L96.3448 122.7858
" />
<path d="M96.3448 122.1192
L96.2496 122.2144
" />
<path d="M96.2496 122.2144
L96.3448 122.3096
" />
<path d="M96.3448 122.3096
L96.4400 122.2144
" />
<path d="M96.4400 122.2144
L96.3448 122.1192
" />
<path d="M96.3448 122.1192
L96.3448 122.3096
" />
<path d="M97.5829 124.1192
L97.3924 124.0239
" />
<path d="M97.3924 124.0239
L97.2972 123.8334
" />
<path d="M97.2972 123.8334
L97.2972 122.1192
" />
<path d="M98.6305 124.1192
L98.4400 124.0239
" />
<path d="M98.4400 124.0239
L98.3448 123.8334
" />
<path d="M98.3448 123.8334
L98.3448 122.1192
" />
<path d="M100.9162 124.1192
L100.9162 122.1192
" />
<path d="M100.9162 122.1192
L101.5829 123.5477
" />
<path d="M101.5829 123.5477
L102.2496 122.1192
" />
<path d="M102.2496 122.1192
L102.2496 124.1192
" />
<path d="M104.0591 124.1192
L104.0591 123.0715
" />
<path d="M104.0591 123.0715
L103.9639 122.8811
" />
<path d="M103.9639 122.8811
L103.7734 122.7858
" />
<path d="M103.7734 122.7858
L103.3924 122.7858
" />
<path d="M103.3924 122.7858
L103.2019 122.8811
" />
<path d="M104.0591 124.0239
L103.8686 124.1192
" />
<path d="M103.8686 124.1192
L103.3924 124.1192
" />
<path d="M103.3924 124.1192
L103.2019 124.0239
" />
<path d="M103.2019 124.0239
L103.1067 123.8334
" />
<path d="M103.1067 123.8334
L103.1067 123.6430
" />
<path d="M103.1067 123.6430
L103.2019 123.4525
" />
<path d="M103.2019 123.4525
L103.3924 123.3573
" />
<path d="M103.3924 123.3573
L103.8686 123.3573
" />
<path d="M103.8686 123.3573
L104.0591 123.2620
" />
<path d="M105.0115 122.7858
L105.0115 124.7858
" />
<path d="M105.0115 122.8811
L105.2019 122.7858
" />
<path d="M105.2019 122.7858
L105.5829 122.7858
" />
<path d="M105.5829 122.7858
L105.7734 122.8811
" />
<path d="M105.7734 122.8811
L105.8686 122.9763
" />
<path d="M105.8686 122.9763
L105.9639 123.1668
" />
<path d="M105.9639 123.1668
L105.9639 123.7382
" />
<path d="M105.9639 123.7382
L105.8686 123.9287
" />
<path d="M105.8686 123.9287
L105.7734 124.0239
" />
<path d="M105.7734 124.0239
L105.5829 124.1192
" />
<path d="M105.5829 124.1192
L105.2019 124.1192
" />
<path d="M105.2019 124.1192
L105.0115 124.0239
" />
<path d="M106.8210 123.9287
L106.9162 124.0239
" />
<path d="M106.9162 124.0239
L106.8210 124.1192
" />
<path d="M106.8210 124.1192
L106.7258 124.0239
" />
<path d="M106.7258 124.0239
L106.8210 123.9287
" />
<path d="M106.8210 123.9287
L106.8210 124.1192
" />
<path d="M106.8210 122.8811
L106.9162 122.9763
" />
<path d="M106.9162 122.9763
L106.8210 123.0715
" />
<path d="M106.8210 123.0715
L106.7258 122.9763
" />
<path d="M106.7258 122.9763
L106.8210 122.8811
" />
<path d="M106.8210 122.8811
L106.8210 123.0715
" />
</g></g>
<g style="fill:#000000; fill-opacity:0.0; 
stroke:#000000; stroke-width:0.1923; stroke-opacity:1; 
stroke-linecap:round; stroke-linejoin:round;">
<path d="M88.5763 126.4430
L90.4989 128.3656
" />
<path d="M90.4989 126.4430
L88.5763 128.3656
" />
</g>
<g style="fill:#000000; fill-opacity:0.0; 
stroke:#000000; stroke-width:0.5127; stroke-opacity:1; 
stroke-linecap:round; stroke-linejoin:round;">
</g>
<g style="fill:#000000; fill-opacity:0.0; 
stroke:#000000; stroke-width:0.2000; stroke-opacity:1; 
stroke-linecap:round; stroke-linejoin:round;">
<text x="92.4989" y="128.4043"
textLength="68.5810" font-size="2.6667" lengthAdjust="spacingAndGlyphs"
text-anchor="start" opacity="0">0.750mm / 0.0295" (32 holes) (not plated)</text>
<g class="stroked-text"><desc>0.750mm / 0.0295" (32 holes) (not plated)</desc>
<path d="M93.4877 126.3192
L93.6781 126.3192
" />
<path d="M93.6781 126.3192
L93.8686 126.4144
" />
<path d="M93.8686 126.4144
L93.9639 126.5096
" />
<path d="M93.9639 126.5096
L94.0591 126.7001
" />
<path d="M94.0591 126.7001
L94.1543 127.0811
" />
<path d="M94.1543 127.0811
L94.1543 127.5573
" />
<path d="M94.1543 127.5573
L94.0591 127.9382
" />
<path d="M94.0591 127.9382
L93.9639 128.1287
" />
<path d="M93.9639 128.1287
L93.8686 128.2239
" />
<path d="M93.8686 128.2239
L93.6781 128.3192
" />
<path d="M93.6781 128.3192
L93.4877 128.3192
" />
<path d="M93.4877 128.3192
L93.2972 128.2239
" />
<path d="M93.2972 128.2239
L93.2019 128.1287
" />
<path d="M93.2019 128.1287
L93.1067 127.9382
" />
<path d="M93.1067 127.9382
L93.0115 127.5573
" />
<path d="M93.0115 127.5573
L93.0115 127.0811
" />
<path d="M93.0115 127.0811
L93.1067 126.7001
" />
<path d="M93.1067 126.7001
L93.2019 126.5096
" />
<path d="M93.2019 126.5096
L93.2972 126.4144
" />
<path d="M93.2972 126.4144
L93.4877 126.3192
" />
<path d="M95.0115 128.1287
L95.1067 128.2239
" />
<path d="M95.1067 128.2239
L95.0115 128.3192
" />
<path d="M95.0115 128.3192
L94.9162 128.2239
" />
<path d="M94.9162 128.2239
L95.0115 128.1287
" />
<path d="M95.0115 128.1287
L95.0115 128.3192
" />
<path d="M95.7734 126.3192
L97.1067 126.3192
" />
<path d="M97.1067 126.3192
L96.2496 128.3192
" />
<path d="M98.8210 126.3192
L97.8686 126.3192
" />
<path d="M97.8686 126.3192
L97.7734 127.2715
" />
<path d="M97.7734 127.2715
L97.8686 127.1763
" />
<path d="M97.8686 127.1763
L98.0591 127.0811
" />
<path d="M98.0591 127.0811
L98.5353 127.0811
" />
<path d="M98.5353 127.0811
L98.7258 127.1763
" />
<path d="M98.7258 127.1763
L98.8210 127.2715
" />
<path d="M98.8210 127.2715
L98.9162 127.4620
" />
<path d="M98.9162 127.4620
L98.9162 127.9382
" />
<path d="M98.9162 127.9382
L98.8210 128.1287
" />
<path d="M98.8210 128.1287
L98.7258 128.2239
" />
<path d="M98.7258 128.2239
L98.5353 128.3192
" />
<path d="M98.5353 128.3192
L98.0591 128.3192
" />
<path d="M98.0591 128.3192
L97.8686 128.2239
" />
<path d="M97.8686 128.2239
L97.7734 128.1287
" />
<path d="M100.1543 126.3192
L100.3448 126.3192
" />
<path d="M100.3448 126.3192
L100.5353 126.4144
" />
<path d="M100.5353 126.4144
L100.6305 126.5096
" />
<path d="M100.6305 126.5096
L100.7258 126.7001
" />
<path d="M100.7258 126.7001
L100.8210 127.0811
" />
<path d="M100.8210 127.0811
L100.8210 127.5573
" />
<path d="M100.8210 127.5573
L100.7258 127.9382
" />
<path d="M100.7258 127.9382
L100.6305 128.1287
" />
<path d="M100.6305 128.1287
L100.5353 128.2239
" />
<path d="M100.5353 128.2239
L100.3448 128.3192
" />
<path d="M100.3448 128.3192
L100.1543 128.3192
" />
<path d="M100.1543 128.3192
L99.9639 128.2239
" />
<path d="M99.9639 128.2239
L99.8686 128.1287
" />
<path d="M99.8686 128.1287
L99.7734 127.9382
" />
<path d="M99.7734 127.9382
L99.6781 127.5573
" />
<path d="M99.6781 127.5573
L99.6781 127.0811
" />
<path d="M99.6781 127.0811
L99.7734 126.7001
" />
<path d="M99.7734 126.7001
L99.8686 126.5096
" />
<path d="M99.8686 126.5096
L99.9639 126.4144
" />
<path d="M99.9639 126.4144
L100.1543 126.3192
" />
<path d="M101.6781 128.3192
L101.6781 126.9858
" />
<path d="M101.6781 127.1763
L101.7734 127.0811
" />
<path d="M101.7734 127.0811
L101.9639 126.9858
" />
<path d="M101.9639 126.9858
L102.2496 126.9858
" />
<path d="M102.2496 126.9858
L102.4400 127.0811
" />
<path d="M102.4400 127.0811
L102.5353 127.2715
" />
<path d="M102.5353 127.2715
L102.5353 128.3192
" />
<path d="M102.5353 127.2715
L102.6305 127.0811
" />
<path d="M102.6305 127.0811
L102.8210 126.9858
" />
<path d="M102.8210 126.9858
L103.1067 126.9858
" />
<path d="M103.1067 126.9858
L103.2972 127.0811
" />
<path d="M103.2972 127.0811
L103.3924 127.2715
" />
<path d="M103.3924 127.2715
L103.3924 128.3192
" />
<path d="M104.3448 128.3192
L104.3448 126.9858
" />
<path d="M104.3448 127.1763
L104.4400 127.0811
" />
<path d="M104.4400 127.0811
L104.6305 126.9858
" />
<path d="M104.6305 126.9858
L104.9162 126.9858
" />
<path d="M104.9162 126.9858
L105.1067 127.0811
" />
<path d="M105.1067 127.0811
L105.2020 127.2715
" />
<path d="M105.2020 127.2715
L105.2020 128.3192
" />
<path d="M105.2020 127.2715
L105.2972 127.0811
" />
<path d="M105.2972 127.0811
L105.4877 126.9858
" />
<path d="M105.4877 126.9858
L105.7734 126.9858
" />
<path d="M105.7734 126.9858
L105.9639 127.0811
" />
<path d="M105.9639 127.0811
L106.0591 127.2715
" />
<path d="M106.0591 127.2715
L106.0591 128.3192
" />
<path d="M109.9639 126.2239
L108.2496 128.7953
" />
<path d="M112.5353 126.3192
L112.7258 126.3192
" />
<path d="M112.7258 126.3192
L112.9162 126.4144
" />
<path d="M112.9162 126.4144
L113.0115 126.5096
" />
<path d="M113.0115 126.5096
L113.1067 126.7001
" />
<path d="M113.1067 126.7001
L113.2020 127.0811
" />
<path d="M113.2020 127.0811
L113.2020 127.5573
" />
<path d="M113.2020 127.5573
L113.1067 127.9382
" />
<path d="M113.1067 127.9382
L113.0115 128.1287
" />
<path d="M113.0115 128.1287
L112.9162 128.2239
" />
<path d="M112.9162 128.2239
L112.7258 128.3192
" />
<path d="M112.7258 128.3192
L112.5353 128.3192
" />
<path d="M112.5353 128.3192
L112.3448 128.2239
" />
<path d="M112.3448 128.2239
L112.2496 128.1287
" />
<path d="M112.2496 128.1287
L112.1543 127.9382
" />
<path d="M112.1543 127.9382
L112.0591 127.5573
" />
<path d="M112.0591 127.5573
L112.0591 127.0811
" />
<path d="M112.0591 127.0811
L112.1543 126.7001
" />
<path d="M112.1543 126.7001
L112.2496 126.5096
" />
<path d="M112.2496 126.5096
L112.3448 126.4144
" />
<path d="M112.3448 126.4144
L112.5353 126.3192
" />
<path d="M114.0591 128.1287
L114.1543 128.2239
" />
<path d="M114.1543 128.2239
L114.0591 128.3192
" />
<path d="M114.0591 128.3192
L113.9639 128.2239
" />
<path d="M113.9639 128.2239
L114.0591 128.1287
" />
<path d="M114.0591 128.1287
L114.0591 128.3192
" />
<path d="M115.3924 126.3192
L115.5829 126.3192
" />
<path d="M115.5829 126.3192
L115.7734 126.4144
" />
<path d="M115.7734 126.4144
L115.8686 126.5096
" />
<path d="M115.8686 126.5096
L115.9639 126.7001
" />
<path d="M115.9639 126.7001
L116.0591 127.0811
" />
<path d="M116.0591 127.0811
L116.0591 127.5573
" />
<path d="M116.0591 127.5573
L115.9639 127.9382
" />
<path d="M115.9639 127.9382
L115.8686 128.1287
" />
<path d="M115.8686 128.1287
L115.7734 128.2239
" />
<path d="M115.7734 128.2239
L115.5829 128.3192
" />
<path d="M115.5829 128.3192
L115.3924 128.3192
" />
<path d="M115.3924 128.3192
L115.2020 128.2239
" />
<path d="M115.2020 128.2239
L115.1067 128.1287
" />
<path d="M115.1067 128.1287
L115.0115 127.9382
" />
<path d="M115.0115 127.9382
L114.9162 127.5573
" />
<path d="M114.9162 127.5573
L114.9162 127.0811
" />
<path d="M114.9162 127.0811
L115.0115 126.7001
" />
<path d="M115.0115 126.7001
L115.1067 126.5096
" />
<path d="M115.1067 126.5096
L115.2020 126.4144
" />
<path d="M115.2020 126.4144
L115.3924 126.3192
" />
<path d="M116.8210 126.5096
L116.9162 126.4144
" />
<path d="M116.9162 126.4144
L117.1067 126.3192
" />
<path d="M117.1067 126.3192
L117.5829 126.3192
" />
<path d="M117.5829 126.3192
L117.7734 126.4144
" />
<path d="M117.7734 126.4144
L117.8686 126.5096
" />
<path d="M117.8686 126.5096
L117.9639 126.7001
" />
<path d="M117.9639 126.7001
L117.9639 126.8906
" />
<path d="M117.9639 126.8906
L117.8686 127.1763
" />
<path d="M117.8686 127.1763
L116.7258 128.3192
" />
<path d="M116.7258 128.3192
L117.9639 128.3192
" />
<path d="M118.9162 128.3192
L119.2972 128.3192
" />
<path d="M119.2972 128.3192
L119.4877 128.2239
" />
<path d="M119.4877 128.2239
L119.5829 128.1287
" />
<path d="M119.5829 128.1287
L119.7734 127.8430
" />
<path d="M119.7734 127.8430
L119.8686 127.4620
" />
<path d="M119.8686 127.4620
L119.8686 126.7001
" />
<path d="M119.8686 126.7001
L119.7734 126.5096
" />
<path d="M119.7734 126.5096
L119.6781 126.4144
" />
<path d="M119.6781 126.4144
L119.4877 126.3192
" />
<path d="M119.4877 126.3192
L119.1067 126.3192
" />
<path d="M119.1067 126.3192
L118.9162 126.4144
" />
<path d="M118.9162 126.4144
L118.8210 126.5096
" />
<path d="M118.8210 126.5096
L118.7258 126.7001
" />
<path d="M118.7258 126.7001
L118.7258 127.1763
" />
<path d="M118.7258 127.1763
L118.8210 127.3668
" />
<path d="M118.8210 127.3668
L118.9162 127.4620
" />
<path d="M118.9162 127.4620
L119.1067 127.5573
" />
<path d="M119.1067 127.5573
L119.4877 127.5573
" />
<path d="M119.4877 127.5573
L119.6781 127.4620
" />
<path d="M119.6781 127.4620
L119.7734 127.3668
" />
<path d="M119.7734 127.3668
L119.8686 127.1763
" />
<path d="M121.6781 126.3192
L120.7258 126.3192
" />
<path d="M120.7258 126.3192
L120.6305 127.2715
" />
<path d="M120.6305 127.2715
L120.7258 127.1763
" />
<path d="M120.7258 127.1763
L120.9162 127.0811
" />
<path d="M120.9162 127.0811
L121.3924 127.0811
" />
<path d="M121.3924 127.0811
L121.5829 127.1763
" />
<path d="M121.5829 127.1763
L121.6781 127.2715
" />
<path d="M121.6781 127.2715
L121.7734 127.4620
" />
<path d="M121.7734 127.4620
L121.7734 127.9382
" />
<path d="M121.7734 127.9382
L121.6781 128.1287
" />
<path d="M121.6781 128.1287
L121.5829 128.2239
" />
<path d="M121.5829 128.2239
L121.3924 128.3192
" />
<path d="M121.3924 128.3192
L120.9162 128.3192
" />
<path d="M120.9162 128.3192
L120.7258 128.2239
" />
<path d="M120.7258 128.2239
L120.6305 128.1287
" />
<path d="M122.5353 126.3192
L122.5353 126.7001
" />
<path d="M123.2972 126.3192
L123.2972 126.7001
" />
<path d="M126.2496 129.0811
L126.1543 128.9858
" />
<path d="M126.1543 128.9858
L125.9639 128.7001
" />
<path d="M125.9639 128.7001
L125.8686 128.5096
" />
<path d="M125.8686 128.5096
L125.7734 128.2239
" />
<path d="M125.7734 128.2239
L125.6781 127.7477
" />
<path d="M125.6781 127.7477
L125.6781 127.3668
" />
<path d="M125.6781 127.3668
L125.7734 126.8906
" />
<path d="M125.7734 126.8906
L125.8686 126.6049
" />
<path d="M125.8686 126.6049
L125.9639 126.4144
" />
<path d="M125.9639 126.4144
L126.1543 126.1287
" />
<path d="M126.1543 126.1287
L126.2496 126.0334
" />
<path d="M126.8210 126.3192
L128.0591 126.3192
" />
<path d="M128.0591 126.3192
L127.3924 127.0811
" />
<path d="M127.3924 127.0811
L127.6781 127.0811
" />
<path d="M127.6781 127.0811
L127.8686 127.1763
" />
<path d="M127.8686 127.1763
L127.9639 127.2715
" />
<path d="M127.9639 127.2715
L128.0591 127.4620
" />
<path d="M128.0591 127.4620
L128.0591 127.9382
" />
<path d="M128.0591 127.9382
L127.9639 128.1287
" />
<path d="M127.9639 128.1287
L127.8686 128.2239
" />
<path d="M127.8686 128.2239
L127.6781 128.3192
" />
<path d="M127.6781 128.3192
L127.1067 128.3192
" />
<path d="M127.1067 128.3192
L126.9162 128.2239
" />
<path d="M126.9162 128.2239
L126.8210 128.1287
" />
<path d="M128.8210 126.5096
L128.9162 126.4144
" />
<path d="M128.9162 126.4144
L129.1067 126.3192
" />
<path d="M129.1067 126.3192
L129.5829 126.3192
" />
<path d="M129.5829 126.3192
L129.7734 126.4144
" />
<path d="M129.7734 126.4144
L129.8686 126.5096
" />
<path d="M129.8686 126.5096
L129.9639 126.7001
" />
<path d="M129.9639 126.7001
L129.9639 126.8906
" />
<path d="M129.9639 126.8906
L129.8686 127.1763
" />
<path d="M129.8686 127.1763
L128.7258 128.3192
" />
<path d="M128.7258 128.3192
L129.9639 128.3192
" />
<path d="M132.3448 128.3192
L132.3448 126.3192
" />
<path d="M133.2020 128.3192
L133.2020 127.2715
" />
<path d="M133.2020 127.2715
L133.1067 127.0811
" />
<path d="M133.1067 127.0811
L132.9162 126.9858
" />
<path d="M132.9162 126.9858
L132.6305 126.9858
" />
<path d="M132.6305 126.9858
L132.4401 127.0811
" />
<path d="M132.4401 127.0811
L132.3448 127.1763
" />
<path d="M134.4401 128.3192
L134.2496 128.2239
" />
<path d="M134.2496 128.2239
L134.1543 128.1287
" />
<path d="M134.1543 128.1287
L134.0591 127.9382
" />
<path d="M134.0591 127.9382
L134.0591 127.3668
" />
<path d="M134.0591 127.3668
L134.1543 127.1763
" />
<path d="M134.1543 127.1763
L134.2496 127.0811
" />
<path d="M134.2496 127.0811
L134.4401 126.9858
" />
<path d="M134.4401 126.9858
L134.7258 126.9858
" />
<path d="M134.7258 126.9858
L134.9162 127.0811
" />
<path d="M134.9162 127.0811
L135.0115 127.1763
" />
<path d="M135.0115 127.1763
L135.1067 127.3668
" />
<path d="M135.1067 127.3668
L135.1067 127.9382
" />
<path d="M135.1067 127.9382
L135.0115 128.1287
" />
<path d="M135.0115 128.1287
L134.9162 128.2239
" />
<path d="M134.9162 128.2239
L134.7258 128.3192
" />
<path d="M134.7258 128.3192
L134.4401 128.3192
" />
<path d="M136.2496 128.3192
L136.0591 128.2239
" />
<path d="M136.0591 128.2239
L135.9639 128.0334
" />
<path d="M135.9639 128.0334
L135.9639 126.3192
" />
<path d="M137.7734 128.2239
L137.5829 128.3192
" />
<path d="M137.5829 128.3192
L137.2020 128.3192
" />
<path d="M137.2020 128.3192
L137.0115 128.2239
" />
<path d="M137.0115 128.2239
L136.9162 128.0334
" />
<path d="M136.9162 128.0334
L136.9162 127.2715
" />
<path d="M136.9162 127.2715
L137.0115 127.0811
" />
<path d="M137.0115 127.0811
L137.2020 126.9858
" />
<path d="M137.2020 126.9858
L137.5829 126.9858
" />
<path d="M137.5829 126.9858
L137.7734 127.0811
" />
<path d="M137.7734 127.0811
L137.8686 127.2715
" />
<path d="M137.8686 127.2715
L137.8686 127.4620
" />
<path d="M137.8686 127.4620
L136.9162 127.6525
" />
<path d="M138.6305 128.2239
L138.8210 128.3192
" />
<path d="M138.8210 128.3192
L139.2020 128.3192
" />
<path d="M139.2020 128.3192
L139.3924 128.2239
" />
<path d="M139.3924 128.2239
L139.4877 128.0334
" />
<path d="M139.4877 128.0334
L139.4877 127.9382
" />
<path d="M139.4877 127.9382
L139.3924 127.7477
" />
<path d="M139.3924 127.7477
L139.2020 127.6525
" />
<path d="M139.2020 127.6525
L138.9162 127.6525
" />
<path d="M138.9162 127.6525
L138.7258 127.5573
" />
<path d="M138.7258 127.5573
L138.6305 127.3668
" />
<path d="M138.6305 127.3668
L138.6305 127.2715
" />
<path d="M138.6305 127.2715
L138.7258 127.0811
" />
<path d="M138.7258 127.0811
L138.9162 126.9858
" />
<path d="M138.9162 126.9858
L139.2020 126.9858
" />
<path d="M139.2020 126.9858
L139.3924 127.0811
" />
<path d="M140.1543 129.0811
L140.2496 128.9858
" />
<path d="M140.2496 128.9858
L140.4401 128.7001
" />
<path d="M140.4401 128.7001
L140.5353 128.5096
" />
<path d="M140.5353 128.5096
L140.6305 128.2239
" />
<path d="M140.6305 128.2239
L140.7258 127.7477
" />
<path d="M140.7258 127.7477
L140.7258 127.3668
" />
<path d="M140.7258 127.3668
L140.6305 126.8906
" />
<path d="M140.6305 126.8906
L140.5353 126.6049
" />
<path d="M140.5353 126.6049
L140.4401 126.4144
" />
<path d="M140.4401 126.4144
L140.2496 126.1287
" />
<path d="M140.2496 126.1287
L140.1543 126.0334
" />
<path d="M143.7734 129.0811
L143.6781 128.9858
" />
<path d="M143.6781 128.9858
L143.4877 128.7001
" />
<path d="M143.4877 128.7001
L143.3924 128.5096
" />
<path d="M143.3924 128.5096
L143.2972 128.2239
" />
<path d="M143.2972 128.2239
L143.2020 127.7477
" />
<path d="M143.2020 127.7477
L143.2020 127.3668
" />
<path d="M143.2020 127.3668
L143.2972 126.8906
" />
<path d="M143.2972 126.8906
L143.3924 126.6049
" />
<path d="M143.3924 126.6049
L143.4877 126.4144
" />
<path d="M143.4877 126.4144
L143.6781 126.1287
" />
<path d="M143.6781 126.1287
L143.7734 126.0334
" />
<path d="M144.5353 126.9858
L144.5353 128.3192
" />
<path d="M144.5353 127.1763
L144.6305 127.0811
" />
<path d="M144.6305 127.0811
L144.8210 126.9858
" />
<path d="M144.8210 126.9858
L145.1067 126.9858
" />
<path d="M145.1067 126.9858
L145.2972 127.0811
" />
<path d="M145.2972 127.0811
L145.3924 127.2715
" />
<path d="M145.3924 127.2715
L145.3924 128.3192
" />
<path d="M146.6305 128.3192
L146.4401 128.2239
" />
<path d="M146.4401 128.2239
L146.3448 128.1287
" />
<path d="M146.3448 128.1287
L146.2496 127.9382
" />
<path d="M146.2496 127.9382
L146.2496 127.3668
" />
<path d="M146.2496 127.3668
L146.3448 127.1763
" />
<path d="M146.3448 127.1763
L146.4401 127.0811
" />
<path d="M146.4401 127.0811
L146.6305 126.9858
" />
<path d="M146.6305 126.9858
L146.9162 126.9858
" />
<path d="M146.9162 126.9858
L147.1067 127.0811
" />
<path d="M147.1067 127.0811
L147.2020 127.1763
" />
<path d="M147.2020 127.1763
L147.2972 127.3668
" />
<path d="M147.2972 127.3668
L147.2972 127.9382
" />
<path d="M147.2972 127.9382
L147.2020 128.1287
" />
<path d="M147.2020 128.1287
L147.1067 128.2239
" />
<path d="M147.1067 128.2239
L146.9162 128.3192
" />
<path d="M146.9162 128.3192
L146.6305 128.3192
" />
<path d="M147.8686 126.9858
L148.6305 126.9858
" />
<path d="M148.1543 126.3192
L148.1543 128.0334
" />
<path d="M148.1543 128.0334
L148.2496 128.2239
" />
<path d="M148.2496 128.2239
L148.4401 128.3192
" />
<path d="M148.4401 128.3192
L148.6305 128.3192
" />
<path d="M150.8210 126.9858
L150.8210 128.9858
" />
<path d="M150.8210 127.0811
L151.0115 126.9858
" />
<path d="M151.0115 126.9858
L151.3924 126.9858
" />
<path d="M151.3924 126.9858
L151.5829 127.0811
" />
<path d="M151.5829 127.0811
L151.6781 127.1763
" />
<path d="M151.6781 127.1763
L151.7734 127.3668
" />
<path d="M151.7734 127.3668
L151.7734 127.9382
" />
<path d="M151.7734 127.9382
L151.6781 128.1287
" />
<path d="M151.6781 128.1287
L151.5829 128.2239
" />
<path d="M151.5829 128.2239
L151.3924 128.3192
" />
<path d="M151.3924 128.3192
L151.0115 128.3192
" />
<path d="M151.0115 128.3192
L150.8210 128.2239
" />
<path d="M152.9162 128.3192
L152.7258 128.2239
" />
<path d="M152.7258 128.2239
L152.6305 128.0334
" />
<path d="M152.6305 128.0334
L152.6305 126.3192
" />
<path d="M154.5353 128.3192
L154.5353 127.2715
" />
<path d="M154.5353 127.2715
L154.4401 127.0811
" />
<path d="M154.4401 127.0811
L154.2496 126.9858
" />
<path d="M154.2496 126.9858
L153.8686 126.9858
" />
<path d="M153.8686 126.9858
L153.6781 127.0811
" />
<path d="M154.5353 128.2239
L154.3448 128.3192
" />
<path d="M154.3448 128.3192
L153.8686 128.3192
" />
<path d="M153.8686 128.3192
L153.6781 128.2239
" />
<path d="M153.6781 128.2239
L153.5829 128.0334
" />
<path d="M153.5829 128.0334
L153.5829 127.8430
" />
<path d="M153.5829 127.8430
L153.6781 127.6525
" />
<path d="M153.6781 127.6525
L153.8686 127.5573
" />
<path d="M153.8686 127.5573
L154.3448 127.5573
" />
<path d="M154.3448 127.5573
L154.5353 127.4620
" />
<path d="M155.2020 126.9858
L155.9639 126.9858
" />
<path d="M155.4877 126.3192
L155.4877 128.0334
" />
<path d="M155.4877 128.0334
L155.5829 128.2239
" />
<path d="M155.5829 128.2239
L155.7734 128.3192
" />
<path d="M155.7734 128.3192
L155.9639 128.3192
" />
<path d="M157.3924 128.2239
L157.2020 128.3192
" />
<path d="M157.2020 128.3192
L156.8210 128.3192
" />
<path d="M156.8210 128.3192
L156.6305 128.2239
" />
<path d="M156.6305 128.2239
L156.5353 128.0334
" />
<path d="M156.5353 128.0334
L156.5353 127.2715
" />
<path d="M156.5353 127.2715
L156.6305 127.0811
" />
<path d="M156.6305 127.0811
L156.8210 126.9858
" />
<path d="M156.8210 126.9858
L157.2020 126.9858
" />
<path d="M157.2020 126.9858
L157.3924 127.0811
" />
<path d="M157.3924 127.0811
L157.4877 127.2715
" />
<path d="M157.4877 127.2715
L157.4877 127.4620
" />
<path d="M157.4877 127.4620
L156.5353 127.6525
" />
<path d="M159.2020 128.3192
L159.2020 126.3192
" />
<path d="M159.2020 128.2239
L159.0115 128.3192
" />
<path d="M159.0115 128.3192
L158.6305 128.3192
" />
<path d="M158.6305 128.3192
L158.4401 128.2239
" />
<path d="M158.4401 128.2239
L158.3448 128.1287
" />
<path d="M158.3448 128.1287
L158.2496 127.9382
" />
<path d="M158.2496 127.9382
L158.2496 127.3668
" />
<path d="M158.2496 127.3668
L158.3448 127.1763
" />
<path d="M158.3448 127.1763
L158.4401 127.0811
" />
<path d="M158.4401 127.0811
L158.6305 126.9858
" />
<path d="M158.6305 126.9858
L159.0115 126.9858
" />
<path d="M159.0115 126.9858
L159.2020 127.0811
" />
<path d="M159.9639 129.0811
L160.0591 128.9858
" />
<path d="M160.0591 128.9858
L160.2496 128.7001
" />
<path d="M160.2496 128.7001
L160.3448 128.5096
" />
<path d="M160.3448 128.5096
L160.4401 128.2239
" />
<path d="M160.4401 128.2239
L160.5353 127.7477
" />
<path d="M160.5353 127.7477
L160.5353 127.3668
" />
<path d="M160.5353 127.3668
L160.4401 126.8906
" />
<path d="M160.4401 126.8906
L160.3448 126.6049
" />
<path d="M160.3448 126.6049
L160.2496 126.4144
" />
<path d="M160.2496 126.4144
L160.0591 126.1287
" />
<path d="M160.0591 126.1287
L159.9639 126.0334
" />
</g></g>
<g style="fill:#000000; fill-opacity:0.0; 
stroke:#000000; stroke-width:0.2000; stroke-opacity:1; 
stroke-linecap:round; stroke-linejoin:round;">
<circle cx="89.4989" cy="130.5270" r="1.0000" /> 
</g>
<g style="fill:#000000; fill-opacity:0.0; 
stroke:#000000; stroke-width:0.5127; stroke-opacity:1; 
stroke-linecap:round; stroke-linejoin:round;">
</g>
<g style="fill:#000000; fill-opacity:0.0; 
stroke:#000000; stroke-width:0.2000; stroke-opacity:1; 
stroke-linecap:round; stroke-linejoin:round;">
<text x="92.4989" y="131.5270"
textLength="66.6762" font-size="2.6667" lengthAdjust="spacingAndGlyphs"
text-anchor="start" opacity="0">1.750mm / 0.0689" (8 holes) (not plated)</text>
<g class="stroked-text"><desc>1.750mm / 0.0689" (8 holes) (not plated)</desc>
<path d="M94.1543 131.4418
L93.0115 131.4418
" />
<path d="M93.5829 131.4418
L93.5829 129.4418
" />
<path d="M93.5829 129.4418
L93.3924 129.7275
" />
<path d="M93.3924 129.7275
L93.2019 129.9180
" />
<path d="M93.2019 129.9180
L93.0115 130.0132
" />
<path d="M95.0115 131.2513
L95.1067 131.3466
" />
<path d="M95.1067 131.3466
L95.0115 131.4418
" />
<path d="M95.0115 131.4418
L94.9162 131.3466
" />
<path d="M94.9162 131.3466
L95.0115 131.2513
" />
<path d="M95.0115 131.2513
L95.0115 131.4418
" />
<path d="M95.7734 129.4418
L97.1067 129.4418
" />
<path d="M97.1067 129.4418
L96.2496 131.4418
" />
<path d="M98.8210 129.4418
L97.8686 129.4418
" />
<path d="M97.8686 129.4418
L97.7734 130.3942
" />
<path d="M97.7734 130.3942
L97.8686 130.2989
" />
<path d="M97.8686 130.2989
L98.0591 130.2037
" />
<path d="M98.0591 130.2037
L98.5353 130.2037
" />
<path d="M98.5353 130.2037
L98.7258 130.2989
" />
<path d="M98.7258 130.2989
L98.8210 130.3942
" />
<path d="M98.8210 130.3942
L98.9162 130.5846
" />
<path d="M98.9162 130.5846
L98.9162 131.0608
" />
<path d="M98.9162 131.0608
L98.8210 131.2513
" />
<path d="M98.8210 131.2513
L98.7258 131.3466
" />
<path d="M98.7258 131.3466
L98.5353 131.4418
" />
<path d="M98.5353 131.4418
L98.0591 131.4418
" />
<path d="M98.0591 131.4418
L97.8686 131.3466
" />
<path d="M97.8686 131.3466
L97.7734 131.2513
" />
<path d="M100.1543 129.4418
L100.3448 129.4418
" />
<path d="M100.3448 129.4418
L100.5353 129.5370
" />
<path d="M100.5353 129.5370
L100.6305 129.6323
" />
<path d="M100.6305 129.6323
L100.7258 129.8227
" />
<path d="M100.7258 129.8227
L100.8210 130.2037
" />
<path d="M100.8210 130.2037
L100.8210 130.6799
" />
<path d="M100.8210 130.6799
L100.7258 131.0608
" />
<path d="M100.7258 131.0608
L100.6305 131.2513
" />
<path d="M100.6305 131.2513
L100.5353 131.3466
" />
<path d="M100.5353 131.3466
L100.3448 131.4418
" />
<path d="M100.3448 131.4418
L100.1543 131.4418
" />
<path d="M100.1543 131.4418
L99.9639 131.3466
" />
<path d="M99.9639 131.3466
L99.8686 131.2513
" />
<path d="M99.8686 131.2513
L99.7734 131.0608
" />
<path d="M99.7734 131.0608
L99.6781 130.6799
" />
<path d="M99.6781 130.6799
L99.6781 130.2037
" />
<path d="M99.6781 130.2037
L99.7734 129.8227
" />
<path d="M99.7734 129.8227
L99.8686 129.6323
" />
<path d="M99.8686 129.6323
L99.9639 129.5370
" />
<path d="M99.9639 129.5370
L100.1543 129.4418
" />
<path d="M101.6781 131.4418
L101.6781 130.1085
" />
<path d="M101.6781 130.2989
L101.7734 130.2037
" />
<path d="M101.7734 130.2037
L101.9639 130.1085
" />
<path d="M101.9639 130.1085
L102.2496 130.1085
" />
<path d="M102.2496 130.1085
L102.4400 130.2037
" />
<path d="M102.4400 130.2037
L102.5353 130.3942
" />
<path d="M102.5353 130.3942
L102.5353 131.4418
" />
<path d="M102.5353 130.3942
L102.6305 130.2037
" />
<path d="M102.6305 130.2037
L102.8210 130.1085
" />
<path d="M102.8210 130.1085
L103.1067 130.1085
" />
<path d="M103.1067 130.1085
L103.2972 130.2037
" />
<path d="M103.2972 130.2037
L103.3924 130.3942
" />
<path d="M103.3924 130.3942
L103.3924 131.4418
" />
<path d="M104.3448 131.4418
L104.3448 130.1085
" />
<path d="M104.3448 130.2989
L104.4400 130.2037
" />
<path d="M104.4400 130.2037
L104.6305 130.1085
" />
<path d="M104.6305 130.1085
L104.9162 130.1085
" />
<path d="M104.9162 130.1085
L105.1067 130.2037
" />
<path d="M105.1067 130.2037
L105.2020 130.3942
" />
<path d="M105.2020 130.3942
L105.2020 131.4418
" />
<path d="M105.2020 130.3942
L105.2972 130.2037
" />
<path d="M105.2972 130.2037
L105.4877 130.1085
" />
<path d="M105.4877 130.1085
L105.7734 130.1085
" />
<path d="M105.7734 130.1085
L105.9639 130.2037
" />
<path d="M105.9639 130.2037
L106.0591 130.3942
" />
<path d="M106.0591 130.3942
L106.0591 131.4418
" />
<path d="M109.9639 129.3466
L108.2496 131.9180
" />
<path d="M112.5353 129.4418
L112.7258 129.4418
" />
<path d="M112.7258 129.4418
L112.9162 129.5370
" />
<path d="M112.9162 129.5370
L113.0115 129.6323
" />
<path d="M113.0115 129.6323
L113.1067 129.8227
" />
<path d="M113.1067 129.8227
L113.2020 130.2037
" />
<path d="M113.2020 130.2037
L113.2020 130.6799
" />
<path d="M113.2020 130.6799
L113.1067 131.0608
" />
<path d="M113.1067 131.0608
L113.0115 131.2513
" />
<path d="M113.0115 131.2513
L112.9162 131.3466
" />
<path d="M112.9162 131.3466
L112.7258 131.4418
" />
<path d="M112.7258 131.4418
L112.5353 131.4418
" />
<path d="M112.5353 131.4418
L112.3448 131.3466
" />
<path d="M112.3448 131.3466
L112.2496 131.2513
" />
<path d="M112.2496 131.2513
L112.1543 131.0608
" />
<path d="M112.1543 131.0608
L112.0591 130.6799
" />
<path d="M112.0591 130.6799
L112.0591 130.2037
" />
<path d="M112.0591 130.2037
L112.1543 129.8227
" />
<path d="M112.1543 129.8227
L112.2496 129.6323
" />
<path d="M112.2496 129.6323
L112.3448 129.5370
" />
<path d="M112.3448 129.5370
L112.5353 129.4418
" />
<path d="M114.0591 131.2513
L114.1543 131.3466
" />
<path d="M114.1543 131.3466
L114.0591 131.4418
" />
<path d="M114.0591 131.4418
L113.9639 131.3466
" />
<path d="M113.9639 131.3466
L114.0591 131.2513
" />
<path d="M114.0591 131.2513
L114.0591 131.4418
" />
<path d="M115.3924 129.4418
L115.5829 129.4418
" />
<path d="M115.5829 129.4418
L115.7734 129.5370
" />
<path d="M115.7734 129.5370
L115.8686 129.6323
" />
<path d="M115.8686 129.6323
L115.9639 129.8227
" />
<path d="M115.9639 129.8227
L116.0591 130.2037
" />
<path d="M116.0591 130.2037
L116.0591 130.6799
" />
<path d="M116.0591 130.6799
L115.9639 131.0608
" />
<path d="M115.9639 131.0608
L115.8686 131.2513
" />
<path d="M115.8686 131.2513
L115.7734 131.3466
" />
<path d="M115.7734 131.3466
L115.5829 131.4418
" />
<path d="M115.5829 131.4418
L115.3924 131.4418
" />
<path d="M115.3924 131.4418
L115.2020 131.3466
" />
<path d="M115.2020 131.3466
L115.1067 131.2513
" />
<path d="M115.1067 131.2513
L115.0115 131.0608
" />
<path d="M115.0115 131.0608
L114.9162 130.6799
" />
<path d="M114.9162 130.6799
L114.9162 130.2037
" />
<path d="M114.9162 130.2037
L115.0115 129.8227
" />
<path d="M115.0115 129.8227
L115.1067 129.6323
" />
<path d="M115.1067 129.6323
L115.2020 129.5370
" />
<path d="M115.2020 129.5370
L115.3924 129.4418
" />
<path d="M117.7734 129.4418
L117.3924 129.4418
" />
<path d="M117.3924 129.4418
L117.2020 129.5370
" />
<path d="M117.2020 129.5370
L117.1067 129.6323
" />
<path d="M117.1067 129.6323
L116.9162 129.9180
" />
<path d="M116.9162 129.9180
L116.8210 130.2989
" />
<path d="M116.8210 130.2989
L116.8210 131.0608
" />
<path d="M116.8210 131.0608
L116.9162 131.2513
" />
<path d="M116.9162 131.2513
L117.0115 131.3466
" />
<path d="M117.0115 131.3466
L117.2020 131.4418
" />
<path d="M117.2020 131.4418
L117.5829 131.4418
" />
<path d="M117.5829 131.4418
L117.7734 131.3466
" />
<path d="M117.7734 131.3466
L117.8686 131.2513
" />
<path d="M117.8686 131.2513
L117.9639 131.0608
" />
<path d="M117.9639 131.0608
L117.9639 130.5846
" />
<path d="M117.9639 130.5846
L117.8686 130.3942
" />
<path d="M117.8686 130.3942
L117.7734 130.2989
" />
<path d="M117.7734 130.2989
L117.5829 130.2037
" />
<path d="M117.5829 130.2037
L117.2020 130.2037
" />
<path d="M117.2020 130.2037
L117.0115 130.2989
" />
<path d="M117.0115 130.2989
L116.9162 130.3942
" />
<path d="M116.9162 130.3942
L116.8210 130.5846
" />
<path d="M119.1067 130.2989
L118.9162 130.2037
" />
<path d="M118.9162 130.2037
L118.8210 130.1085
" />
<path d="M118.8210 130.1085
L118.7258 129.9180
" />
<path d="M118.7258 129.9180
L118.7258 129.8227
" />
<path d="M118.7258 129.8227
L118.8210 129.6323
" />
<path d="M118.8210 129.6323
L118.9162 129.5370
" />
<path d="M118.9162 129.5370
L119.1067 129.4418
" />
<path d="M119.1067 129.4418
L119.4877 129.4418
" />
<path d="M119.4877 129.4418
L119.6781 129.5370
" />
<path d="M119.6781 129.5370
L119.7734 129.6323
" />
<path d="M119.7734 129.6323
L119.8686 129.8227
" />
<path d="M119.8686 129.8227
L119.8686 129.9180
" />
<path d="M119.8686 129.9180
L119.7734 130.1085
" />
<path d="M119.7734 130.1085
L119.6781 130.2037
" />
<path d="M119.6781 130.2037
L119.4877 130.2989
" />
<path d="M119.4877 130.2989
L119.1067 130.2989
" />
<path d="M119.1067 130.2989
L118.9162 130.3942
" />
<path d="M118.9162 130.3942
L118.8210 130.4894
" />
<path d="M118.8210 130.4894
L118.7258 130.6799
" />
<path d="M118.7258 130.6799
L118.7258 131.0608
" />
<path d="M118.7258 131.0608
L118.8210 131.2513
" />
<path d="M118.8210 131.2513
L118.9162 131.3466
" />
<path d="M118.9162 131.3466
L119.1067 131.4418
" />
<path d="M119.1067 131.4418
L119.4877 131.4418
" />
<path d="M119.4877 131.4418
L119.6781 131.3466
" />
<path d="M119.6781 131.3466
L119.7734 131.2513
" />
<path d="M119.7734 131.2513
L119.8686 131.0608
" />
<path d="M119.8686 131.0608
L119.8686 130.6799
" />
<path d="M119.8686 130.6799
L119.7734 130.4894
" />
<path d="M119.7734 130.4894
L119.6781 130.3942
" />
<path d="M119.6781 130.3942
L119.4877 130.2989
" />
<path d="M120.8210 131.4418
L121.2020 131.4418
" />
<path d="M121.2020 131.4418
L121.3924 131.3466
" />
<path d="M121.3924 131.3466
L121.4877 131.2513
" />
<path d="M121.4877 131.2513
L121.6781 130.9656
" />
<path d="M121.6781 130.9656
L121.7734 130.5846
" />
<path d="M121.7734 130.5846
L121.7734 129.8227
" />
<path d="M121.7734 129.8227
L121.6781 129.6323
" />
<path d="M121.6781 129.6323
L121.5829 129.5370
" />
<path d="M121.5829 129.5370
L121.3924 129.4418
" />
<path d="M121.3924 129.4418
L121.0115 129.4418
" />
<path d="M121.0115 129.4418
L120.8210 129.5370
" />
<path d="M120.8210 129.5370
L120.7258 129.6323
" />
<path d="M120.7258 129.6323
L120.6305 129.8227
" />
<path d="M120.6305 129.8227
L120.6305 130.2989
" />
<path d="M120.6305 130.2989
L120.7258 130.4894
" />
<path d="M120.7258 130.4894
L120.8210 130.5846
" />
<path d="M120.8210 130.5846
L121.0115 130.6799
" />
<path d="M121.0115 130.6799
L121.3924 130.6799
" />
<path d="M121.3924 130.6799
L121.5829 130.5846
" />
<path d="M121.5829 130.5846
L121.6781 130.4894
" />
<path d="M121.6781 130.4894
L121.7734 130.2989
" />
<path d="M122.5353 129.4418
L122.5353 129.8227
" />
<path d="M123.2972 129.4418
L123.2972 129.8227
" />
<path d="M126.2496 132.2037
L126.1543 132.1085
" />
<path d="M126.1543 132.1085
L125.9639 131.8227
" />
<path d="M125.9639 131.8227
L125.8686 131.6323
" />
<path d="M125.8686 131.6323
L125.7734 131.3466
" />
<path d="M125.7734 131.3466
L125.6781 130.8704
" />
<path d="M125.6781 130.8704
L125.6781 130.4894
" />
<path d="M125.6781 130.4894
L125.7734 130.0132
" />
<path d="M125.7734 130.0132
L125.8686 129.7275
" />
<path d="M125.8686 129.7275
L125.9639 129.5370
" />
<path d="M125.9639 129.5370
L126.1543 129.2513
" />
<path d="M126.1543 129.2513
L126.2496 129.1561
" />
<path d="M127.2972 130.2989
L127.1067 130.2037
" />
<path d="M127.1067 130.2037
L127.0115 130.1085
" />
<path d="M127.0115 130.1085
L126.9162 129.9180
" />
<path d="M126.9162 129.9180
L126.9162 129.8227
" />
<path d="M126.9162 129.8227
L127.0115 129.6323
" />
<path d="M127.0115 129.6323
L127.1067 129.5370
" />
<path d="M127.1067 129.5370
L127.2972 129.4418
" />
<path d="M127.2972 129.4418
L127.6781 129.4418
" />
<path d="M127.6781 129.4418
L127.8686 129.5370
" />
<path d="M127.8686 129.5370
L127.9639 129.6323
" />
<path d="M127.9639 129.6323
L128.0591 129.8227
" />
<path d="M128.0591 129.8227
L128.0591 129.9180
" />
<path d="M128.0591 129.9180
L127.9639 130.1085
" />
<path d="M127.9639 130.1085
L127.8686 130.2037
" />
<path d="M127.8686 130.2037
L127.6781 130.2989
" />
<path d="M127.6781 130.2989
L127.2972 130.2989
" />
<path d="M127.2972 130.2989
L127.1067 130.3942
" />
<path d="M127.1067 130.3942
L127.0115 130.4894
" />
<path d="M127.0115 130.4894
L126.9162 130.6799
" />
<path d="M126.9162 130.6799
L126.9162 131.0608
" />
<path d="M126.9162 131.0608
L127.0115 131.2513
" />
<path d="M127.0115 131.2513
L127.1067 131.3466
" />
<path d="M127.1067 131.3466
L127.2972 131.4418
" />
<path d="M127.2972 131.4418
L127.6781 131.4418
" />
<path d="M127.6781 131.4418
L127.8686 131.3466
" />
<path d="M127.8686 131.3466
L127.9639 131.2513
" />
<path d="M127.9639 131.2513
L128.0591 131.0608
" />
<path d="M128.0591 131.0608
L128.0591 130.6799
" />
<path d="M128.0591 130.6799
L127.9639 130.4894
" />
<path d="M127.9639 130.4894
L127.8686 130.3942
" />
<path d="M127.8686 130.3942
L127.6781 130.2989
" />
<path d="M130.4401 131.4418
L130.4401 129.4418
" />
<path d="M131.2972 131.4418
L131.2972 130.3942
" />
<path d="M131.2972 130.3942
L131.2020 130.2037
" />
<path d="M131.2020 130.2037
L131.0115 130.1085
" />
<path d="M131.0115 130.1085
L130.7258 130.1085
" />
<path d="M130.7258 130.1085
L130.5353 130.2037
" />
<path d="M130.5353 130.2037
L130.4401 130.2989
" />
<path d="M132.5353 131.4418
L132.3448 131.3466
" />
<path d="M132.3448 131.3466
L132.2496 131.2513
" />
<path d="M132.2496 131.2513
L132.1543 131.0608
" />
<path d="M132.1543 131.0608
L132.1543 130.4894
" />
<path d="M132.1543 130.4894
L132.2496 130.2989
" />
<path d="M132.2496 130.2989
L132.3448 130.2037
" />
<path d="M132.3448 130.2037
L132.5353 130.1085
" />
<path d="M132.5353 130.1085
L132.8210 130.1085
" />
<path d="M132.8210 130.1085
L133.0115 130.2037
" />
<path d="M133.0115 130.2037
L133.1067 130.2989
" />
<path d="M133.1067 130.2989
L133.2020 130.4894
" />
<path d="M133.2020 130.4894
L133.2020 131.0608
" />
<path d="M133.2020 131.0608
L133.1067 131.2513
" />
<path d="M133.1067 131.2513
L133.0115 131.3466
" />
<path d="M133.0115 131.3466
L132.8210 131.4418
" />
<path d="M132.8210 131.4418
L132.5353 131.4418
" />
<path d="M134.3448 131.4418
L134.1543 131.3466
" />
<path d="M134.1543 131.3466
L134.0591 131.1561
" />
<path d="M134.0591 131.1561
L134.0591 129.4418
" />
<path d="M135.8686 131.3466
L135.6782 131.4418
" />
<path d="M135.6782 131.4418
L135.2972 131.4418
" />
<path d="M135.2972 131.4418
L135.1067 131.3466
" />
<path d="M135.1067 131.3466
L135.0115 131.1561
" />
<path d="M135.0115 131.1561
L135.0115 130.3942
" />
<path d="M135.0115 130.3942
L135.1067 130.2037
" />
<path d="M135.1067 130.2037
L135.2972 130.1085
" />
<path d="M135.2972 130.1085
L135.6782 130.1085
" />
<path d="M135.6782 130.1085
L135.8686 130.2037
" />
<path d="M135.8686 130.2037
L135.9639 130.3942
" />
<path d="M135.9639 130.3942
L135.9639 130.5846
" />
<path d="M135.9639 130.5846
L135.0115 130.7751
" />
<path d="M136.7258 131.3466
L136.9162 131.4418
" />
<path d="M136.9162 131.4418
L137.2972 131.4418
" />
<path d="M137.2972 131.4418
L137.4877 131.3466
" />
<path d="M137.4877 131.3466
L137.5829 131.1561
" />
<path d="M137.5829 131.1561
L137.5829 131.0608
" />
<path d="M137.5829 131.0608
L137.4877 130.8704
" />
<path d="M137.4877 130.8704
L137.2972 130.7751
" />
<path d="M137.2972 130.7751
L137.0115 130.7751
" />
<path d="M137.0115 130.7751
L136.8210 130.6799
" />
<path d="M136.8210 130.6799
L136.7258 130.4894
" />
<path d="M136.7258 130.4894
L136.7258 130.3942
" />
<path d="M136.7258 130.3942
L136.8210 130.2037
" />
<path d="M136.8210 130.2037
L137.0115 130.1085
" />
<path d="M137.0115 130.1085
L137.2972 130.1085
" />
<path d="M137.2972 130.1085
L137.4877 130.2037
" />
<path d="M138.2496 132.2037
L138.3448 132.1085
" />
<path d="M138.3448 132.1085
L138.5353 131.8227
" />
<path d="M138.5353 131.8227
L138.6305 131.6323
" />
<path d="M138.6305 131.6323
L138.7258 131.3466
" />
<path d="M138.7258 131.3466
L138.8210 130.8704
" />
<path d="M138.8210 130.8704
L138.8210 130.4894
" />
<path d="M138.8210 130.4894
L138.7258 130.0132
" />
<path d="M138.7258 130.0132
L138.6305 129.7275
" />
<path d="M138.6305 129.7275
L138.5353 129.5370
" />
<path d="M138.5353 129.5370
L138.3448 129.2513
" />
<path d="M138.3448 129.2513
L138.2496 129.1561
" />
<path d="M141.8686 132.2037
L141.7734 132.1085
" />
<path d="M141.7734 132.1085
L141.5829 131.8227
" />
<path d="M141.5829 131.8227
L141.4877 131.6323
" />
<path d="M141.4877 131.6323
L141.3924 131.3466
" />
<path d="M141.3924 131.3466
L141.2972 130.8704
" />
<path d="M141.2972 130.8704
L141.2972 130.4894
" />
<path d="M141.2972 130.4894
L141.3924 130.0132
" />
<path d="M141.3924 130.0132
L141.4877 129.7275
" />
<path d="M141.4877 129.7275
L141.5829 129.5370
" />
<path d="M141.5829 129.5370
L141.7734 129.2513
" />
<path d="M141.7734 129.2513
L141.8686 129.1561
" />
<path d="M142.6305 130.1085
L142.6305 131.4418
" />
<path d="M142.6305 130.2989
L142.7258 130.2037
" />
<path d="M142.7258 130.2037
L142.9162 130.1085
" />
<path d="M142.9162 130.1085
L143.2020 130.1085
" />
<path d="M143.2020 130.1085
L143.3924 130.2037
" />
<path d="M143.3924 130.2037
L143.4877 130.3942
" />
<path d="M143.4877 130.3942
L143.4877 131.4418
" />
<path d="M144.7258 131.4418
L144.5353 131.3466
" />
<path d="M144.5353 131.3466
L144.4401 131.2513
" />
<path d="M144.4401 131.2513
L144.3448 131.0608
" />
<path d="M144.3448 131.0608
L144.3448 130.4894
" />
<path d="M144.3448 130.4894
L144.4401 130.2989
" />
<path d="M144.4401 130.2989
L144.5353 130.2037
" />
<path d="M144.5353 130.2037
L144.7258 130.1085
" />
<path d="M144.7258 130.1085
L145.0115 130.1085
" />
<path d="M145.0115 130.1085
L145.2020 130.2037
" />
<path d="M145.2020 130.2037
L145.2972 130.2989
" />
<path d="M145.2972 130.2989
L145.3924 130.4894
" />
<path d="M145.3924 130.4894
L145.3924 131.0608
" />
<path d="M145.3924 131.0608
L145.2972 131.2513
" />
<path d="M145.2972 131.2513
L145.2020 131.3466
" />
<path d="M145.2020 131.3466
L145.0115 131.4418
" />
<path d="M145.0115 131.4418
L144.7258 131.4418
" />
<path d="M145.9639 130.1085
L146.7258 130.1085
" />
<path d="M146.2496 129.4418
L146.2496 131.1561
" />
<path d="M146.2496 131.1561
L146.3448 131.3466
" />
<path d="M146.3448 131.3466
L146.5353 131.4418
" />
<path d="M146.5353 131.4418
L146.7258 131.4418
" />
<path d="M148.9162 130.1085
L148.9162 132.1085
" />
<path d="M148.9162 130.2037
L149.1067 130.1085
" />
<path d="M149.1067 130.1085
L149.4877 130.1085
" />
<path d="M149.4877 130.1085
L149.6781 130.2037
" />
<path d="M149.6781 130.2037
L149.7734 130.2989
" />
<path d="M149.7734 130.2989
L149.8686 130.4894
" />
<path d="M149.8686 130.4894
L149.8686 131.0608
" />
<path d="M149.8686 131.0608
L149.7734 131.2513
" />
<path d="M149.7734 131.2513
L149.6781 131.3466
" />
<path d="M149.6781 131.3466
L149.4877 131.4418
" />
<path d="M149.4877 131.4418
L149.1067 131.4418
" />
<path d="M149.1067 131.4418
L148.9162 131.3466
" />
<path d="M151.0115 131.4418
L150.8210 131.3466
" />
<path d="M150.8210 131.3466
L150.7258 131.1561
" />
<path d="M150.7258 131.1561
L150.7258 129.4418
" />
<path d="M152.6305 131.4418
L152.6305 130.3942
" />
<path d="M152.6305 130.3942
L152.5353 130.2037
" />
<path d="M152.5353 130.2037
L152.3448 130.1085
" />
<path d="M152.3448 130.1085
L151.9639 130.1085
" />
<path d="M151.9639 130.1085
L151.7734 130.2037
" />
<path d="M152.6305 131.3466
L152.4401 131.4418
" />
<path d="M152.4401 131.4418
L151.9639 131.4418
" />
<path d="M151.9639 131.4418
L151.7734 131.3466
" />
<path d="M151.7734 131.3466
L151.6781 131.1561
" />
<path d="M151.6781 131.1561
L151.6781 130.9656
" />
<path d="M151.6781 130.9656
L151.7734 130.7751
" />
<path d="M151.7734 130.7751
L151.9639 130.6799
" />
<path d="M151.9639 130.6799
L152.4401 130.6799
" />
<path d="M152.4401 130.6799
L152.6305 130.5846
" />
<path d="M153.2972 130.1085
L154.0591 130.1085
" />
<path d="M153.5829 129.4418
L153.5829 131.1561
" />
<path d="M153.5829 131.1561
L153.6781 131.3466
" />
<path d="M153.6781 131.3466
L153.8686 131.4418
" />
<path d="M153.8686 131.4418
L154.0591 131.4418
" />
<path d="M155.4877 131.3466
L155.2972 131.4418
" />
<path d="M155.2972 131.4418
L154.9162 131.4418
" />
<path d="M154.9162 131.4418
L154.7258 131.3466
" />
<path d="M154.7258 131.3466
L154.6305 131.1561
" />
<path d="M154.6305 131.1561
L154.6305 130.3942
" />
<path d="M154.6305 130.3942
L154.7258 130.2037
" />
<path d="M154.7258 130.2037
L154.9162 130.1085
" />
<path d="M154.9162 130.1085
L155.2972 130.1085
" />
<path d="M155.2972 130.1085
L155.4877 130.2037
" />
<path d="M155.4877 130.2037
L155.5829 130.3942
" />
<path d="M155.5829 130.3942
L155.5829 130.5846
" />
<path d="M155.5829 130.5846
L154.6305 130.7751
" />
<path d="M157.2972 131.4418
L157.2972 129.4418
" />
<path d="M157.2972 131.3466
L157.1067 131.4418
" />
<path d="M157.1067 131.4418
L156.7258 131.4418
" />
<path d="M156.7258 131.4418
L156.5353 131.3466
" />
<path d="M156.5353 131.3466
L156.4401 131.2513
" />
<path d="M156.4401 131.2513
L156.3448 131.0608
" />
<path d="M156.3448 131.0608
L156.3448 130.4894
" />
<path d="M156.3448 130.4894
L156.4401 130.2989
" />
<path d="M156.4401 130.2989
L156.5353 130.2037
" />
<path d="M156.5353 130.2037
L156.7258 130.1085
" />
<path d="M156.7258 130.1085
L157.1067 130.1085
" />
<path d="M157.1067 130.1085
L157.2972 130.2037
" />
<path d="M158.0591 132.2037
L158.1543 132.1085
" />
<path d="M158.1543 132.1085
L158.3448 131.8227
" />
<path d="M158.3448 131.8227
L158.4401 131.6323
" />
<path d="M158.4401 131.6323
L158.5353 131.3466
" />
<path d="M158.5353 131.3466
L158.6305 130.8704
" />
<path d="M158.6305 130.8704
L158.6305 130.4894
" />
<path d="M158.6305 130.4894
L158.5353 130.0132
" />
<path d="M158.5353 130.0132
L158.4401 129.7275
" />
<path d="M158.4401 129.7275
L158.3448 129.5370
" />
<path d="M158.3448 129.5370
L158.1543 129.2513
" />
<path d="M158.1543 129.2513
L158.0591 129.1561
" />
</g></g>
<g style="fill:#000000; fill-opacity:0.0; 
stroke:#000000; stroke-width:0.2000; stroke-opacity:1; 
stroke-linecap:round; stroke-linejoin:round;">
<path d="M89.4989 132.7270
L89.4989 134.7270
" />
<path d="M88.4989 133.7270
L90.4989 133.7270
" />
</g>
<g style="fill:#000000; fill-opacity:0.0; 
stroke:#000000; stroke-width:0.5127; stroke-opacity:1; 
stroke-linecap:round; stroke-linejoin:round;">
</g>
<g style="fill:#000000; fill-opacity:0.0; 
stroke:#000000; stroke-width:0.2000; stroke-opacity:1; 
stroke-linecap:round; stroke-linejoin:round;">
<text x="92.4989" y="134.7270"
textLength="66.6762" font-size="2.6667" lengthAdjust="spacingAndGlyphs"
text-anchor="start" opacity="0">3.050mm / 0.1201" (8 holes) (not plated)</text>
<g class="stroked-text"><desc>3.050mm / 0.1201" (8 holes) (not plated)</desc>
<path d="M92.9162 132.6418
L94.1543 132.6418
" />
<path d="M94.1543 132.6418
L93.4877 133.4037
" />
<path d="M93.4877 133.4037
L93.7734 133.4037
" />
<path d="M93.7734 133.4037
L93.9639 133.4989
" />
<path d="M93.9639 133.4989
L94.0591 133.5942
" />
<path d="M94.0591 133.5942
L94.1543 133.7846
" />
<path d="M94.1543 133.7846
L94.1543 134.2608
" />
<path d="M94.1543 134.2608
L94.0591 134.4513
" />
<path d="M94.0591 134.4513
L93.9639 134.5466
" />
<path d="M93.9639 134.5466
L93.7734 134.6418
" />
<path d="M93.7734 134.6418
L93.2019 134.6418
" />
<path d="M93.2019 134.6418
L93.0115 134.5466
" />
<path d="M93.0115 134.5466
L92.9162 134.4513
" />
<path d="M95.0115 134.4513
L95.1067 134.5466
" />
<path d="M95.1067 134.5466
L95.0115 134.6418
" />
<path d="M95.0115 134.6418
L94.9162 134.5466
" />
<path d="M94.9162 134.5466
L95.0115 134.4513
" />
<path d="M95.0115 134.4513
L95.0115 134.6418
" />
<path d="M96.3448 132.6418
L96.5353 132.6418
" />
<path d="M96.5353 132.6418
L96.7258 132.7370
" />
<path d="M96.7258 132.7370
L96.8210 132.8323
" />
<path d="M96.8210 132.8323
L96.9162 133.0227
" />
<path d="M96.9162 133.0227
L97.0115 133.4037
" />
<path d="M97.0115 133.4037
L97.0115 133.8799
" />
<path d="M97.0115 133.8799
L96.9162 134.2608
" />
<path d="M96.9162 134.2608
L96.8210 134.4513
" />
<path d="M96.8210 134.4513
L96.7258 134.5466
" />
<path d="M96.7258 134.5466
L96.5353 134.6418
" />
<path d="M96.5353 134.6418
L96.3448 134.6418
" />
<path d="M96.3448 134.6418
L96.1543 134.5466
" />
<path d="M96.1543 134.5466
L96.0591 134.4513
" />
<path d="M96.0591 134.4513
L95.9639 134.2608
" />
<path d="M95.9639 134.2608
L95.8686 133.8799
" />
<path d="M95.8686 133.8799
L95.8686 133.4037
" />
<path d="M95.8686 133.4037
L95.9639 133.0227
" />
<path d="M95.9639 133.0227
L96.0591 132.8323
" />
<path d="M96.0591 132.8323
L96.1543 132.7370
" />
<path d="M96.1543 132.7370
L96.3448 132.6418
" />
<path d="M98.8210 132.6418
L97.8686 132.6418
" />
<path d="M97.8686 132.6418
L97.7734 133.5942
" />
<path d="M97.7734 133.5942
L97.8686 133.4989
" />
<path d="M97.8686 133.4989
L98.0591 133.4037
" />
<path d="M98.0591 133.4037
L98.5353 133.4037
" />
<path d="M98.5353 133.4037
L98.7258 133.4989
" />
<path d="M98.7258 133.4989
L98.8210 133.5942
" />
<path d="M98.8210 133.5942
L98.9162 133.7846
" />
<path d="M98.9162 133.7846
L98.9162 134.2608
" />
<path d="M98.9162 134.2608
L98.8210 134.4513
" />
<path d="M98.8210 134.4513
L98.7258 134.5466
" />
<path d="M98.7258 134.5466
L98.5353 134.6418
" />
<path d="M98.5353 134.6418
L98.0591 134.6418
" />
<path d="M98.0591 134.6418
L97.8686 134.5466
" />
<path d="M97.8686 134.5466
L97.7734 134.4513
" />
<path d="M100.1543 132.6418
L100.3448 132.6418
" />
<path d="M100.3448 132.6418
L100.5353 132.7370
" />
<path d="M100.5353 132.7370
L100.6305 132.8323
" />
<path d="M100.6305 132.8323
L100.7258 133.0227
" />
<path d="M100.7258 133.0227
L100.8210 133.4037
" />
<path d="M100.8210 133.4037
L100.8210 133.8799
" />
<path d="M100.8210 133.8799
L100.7258 134.2608
" />
<path d="M100.7258 134.2608
L100.6305 134.4513
" />
<path d="M100.6305 134.4513
L100.5353 134.5466
" />
<path d="M100.5353 134.5466
L100.3448 134.6418
" />
<path d="M100.3448 134.6418
L100.1543 134.6418
" />
<path d="M100.1543 134.6418
L99.9639 134.5466
" />
<path d="M99.9639 134.5466
L99.8686 134.4513
" />
<path d="M99.8686 134.4513
L99.7734 134.2608
" />
<path d="M99.7734 134.2608
L99.6781 133.8799
" />
<path d="M99.6781 133.8799
L99.6781 133.4037
" />
<path d="M99.6781 133.4037
L99.7734 133.0227
" />
<path d="M99.7734 133.0227
L99.8686 132.8323
" />
<path d="M99.8686 132.8323
L99.9639 132.7370
" />
<path d="M99.9639 132.7370
L100.1543 132.6418
" />
<path d="M101.6781 134.6418
L101.6781 133.3085
" />
<path d="M101.6781 133.4989
L101.7734 133.4037
" />
<path d="M101.7734 133.4037
L101.9639 133.3085
" />
<path d="M101.9639 133.3085
L102.2496 133.3085
" />
<path d="M102.2496 133.3085
L102.4400 133.4037
" />
<path d="M102.4400 133.4037
L102.5353 133.5942
" />
<path d="M102.5353 133.5942
L102.5353 134.6418
" />
<path d="M102.5353 133.5942
L102.6305 133.4037
" />
<path d="M102.6305 133.4037
L102.8210 133.3085
" />
<path d="M102.8210 133.3085
L103.1067 133.3085
" />
<path d="M103.1067 133.3085
L103.2972 133.4037
" />
<path d="M103.2972 133.4037
L103.3924 133.5942
" />
<path d="M103.3924 133.5942
L103.3924 134.6418
" />
<path d="M104.3448 134.6418
L104.3448 133.3085
" />
<path d="M104.3448 133.4989
L104.4400 133.4037
" />
<path d="M104.4400 133.4037
L104.6305 133.3085
" />
<path d="M104.6305 133.3085
L104.9162 133.3085
" />
<path d="M104.9162 133.3085
L105.1067 133.4037
" />
<path d="M105.1067 133.4037
L105.2020 133.5942
" />
<path d="M105.2020 133.5942
L105.2020 134.6418
" />
<path d="M105.2020 133.5942
L105.2972 133.4037
" />
<path d="M105.2972 133.4037
L105.4877 133.3085
" />
<path d="M105.4877 133.3085
L105.7734 133.3085
" />
<path d="M105.7734 133.3085
L105.9639 133.4037
" />
<path d="M105.9639 133.4037
L106.0591 133.5942
" />
<path d="M106.0591 133.5942
L106.0591 134.6418
" />
<path d="M109.9639 132.5466
L108.2496 135.1180
" />
<path d="M112.5353 132.6418
L112.7258 132.6418
" />
<path d="M112.7258 132.6418
L112.9162 132.7370
" />
<path d="M112.9162 132.7370
L113.0115 132.8323
" />
<path d="M113.0115 132.8323
L113.1067 133.0227
" />
<path d="M113.1067 133.0227
L113.2020 133.4037
" />
<path d="M113.2020 133.4037
L113.2020 133.8799
" />
<path d="M113.2020 133.8799
L113.1067 134.2608
" />
<path d="M113.1067 134.2608
L113.0115 134.4513
" />
<path d="M113.0115 134.4513
L112.9162 134.5466
" />
<path d="M112.9162 134.5466
L112.7258 134.6418
" />
<path d="M112.7258 134.6418
L112.5353 134.6418
" />
<path d="M112.5353 134.6418
L112.3448 134.5466
" />
<path d="M112.3448 134.5466
L112.2496 134.4513
" />
<path d="M112.2496 134.4513
L112.1543 134.2608
" />
<path d="M112.1543 134.2608
L112.0591 133.8799
" />
<path d="M112.0591 133.8799
L112.0591 133.4037
" />
<path d="M112.0591 133.4037
L112.1543 133.0227
" />
<path d="M112.1543 133.0227
L112.2496 132.8323
" />
<path d="M112.2496 132.8323
L112.3448 132.7370
" />
<path d="M112.3448 132.7370
L112.5353 132.6418
" />
<path d="M114.0591 134.4513
L114.1543 134.5466
" />
<path d="M114.1543 134.5466
L114.0591 134.6418
" />
<path d="M114.0591 134.6418
L113.9639 134.5466
" />
<path d="M113.9639 134.5466
L114.0591 134.4513
" />
<path d="M114.0591 134.4513
L114.0591 134.6418
" />
<path d="M116.0591 134.6418
L114.9162 134.6418
" />
<path d="M115.4877 134.6418
L115.4877 132.6418
" />
<path d="M115.4877 132.6418
L115.2972 132.9275
" />
<path d="M115.2972 132.9275
L115.1067 133.1180
" />
<path d="M115.1067 133.1180
L114.9162 133.2132
" />
<path d="M116.8210 132.8323
L116.9162 132.7370
" />
<path d="M116.9162 132.7370
L117.1067 132.6418
" />
<path d="M117.1067 132.6418
L117.5829 132.6418
" />
<path d="M117.5829 132.6418
L117.7734 132.7370
" />
<path d="M117.7734 132.7370
L117.8686 132.8323
" />
<path d="M117.8686 132.8323
L117.9639 133.0227
" />
<path d="M117.9639 133.0227
L117.9639 133.2132
" />
<path d="M117.9639 133.2132
L117.8686 133.4989
" />
<path d="M117.8686 133.4989
L116.7258 134.6418
" />
<path d="M116.7258 134.6418
L117.9639 134.6418
" />
<path d="M119.2020 132.6418
L119.3924 132.6418
" />
<path d="M119.3924 132.6418
L119.5829 132.7370
" />
<path d="M119.5829 132.7370
L119.6781 132.8323
" />
<path d="M119.6781 132.8323
L119.7734 133.0227
" />
<path d="M119.7734 133.0227
L119.8686 133.4037
" />
<path d="M119.8686 133.4037
L119.8686 133.8799
" />
<path d="M119.8686 133.8799
L119.7734 134.2608
" />
<path d="M119.7734 134.2608
L119.6781 134.4513
" />
<path d="M119.6781 134.4513
L119.5829 134.5466
" />
<path d="M119.5829 134.5466
L119.3924 134.6418
" />
<path d="M119.3924 134.6418
L119.2020 134.6418
" />
<path d="M119.2020 134.6418
L119.0115 134.5466
" />
<path d="M119.0115 134.5466
L118.9162 134.4513
" />
<path d="M118.9162 134.4513
L118.8210 134.2608
" />
<path d="M118.8210 134.2608
L118.7258 133.8799
" />
<path d="M118.7258 133.8799
L118.7258 133.4037
" />
<path d="M118.7258 133.4037
L118.8210 133.0227
" />
<path d="M118.8210 133.0227
L118.9162 132.8323
" />
<path d="M118.9162 132.8323
L119.0115 132.7370
" />
<path d="M119.0115 132.7370
L119.2020 132.6418
" />
<path d="M121.7734 134.6418
L120.6305 134.6418
" />
<path d="M121.2020 134.6418
L121.2020 132.6418
" />
<path d="M121.2020 132.6418
L121.0115 132.9275
" />
<path d="M121.0115 132.9275
L120.8210 133.1180
" />
<path d="M120.8210 133.1180
L120.6305 133.2132
" />
<path d="M122.5353 132.6418
L122.5353 133.0227
" />
<path d="M123.2972 132.6418
L123.2972 133.0227
" />
<path d="M126.2496 135.4037
L126.1543 135.3085
" />
<path d="M126.1543 135.3085
L125.9639 135.0227
" />
<path d="M125.9639 135.0227
L125.8686 134.8323
" />
<path d="M125.8686 134.8323
L125.7734 134.5466
" />
<path d="M125.7734 134.5466
L125.6781 134.0704
" />
<path d="M125.6781 134.0704
L125.6781 133.6894
" />
<path d="M125.6781 133.6894
L125.7734 133.2132
" />
<path d="M125.7734 133.2132
L125.8686 132.9275
" />
<path d="M125.8686 132.9275
L125.9639 132.7370
" />
<path d="M125.9639 132.7370
L126.1543 132.4513
" />
<path d="M126.1543 132.4513
L126.2496 132.3561
" />
<path d="M127.2972 133.4989
L127.1067 133.4037
" />
<path d="M127.1067 133.4037
L127.0115 133.3085
" />
<path d="M127.0115 133.3085
L126.9162 133.1180
" />
<path d="M126.9162 133.1180
L126.9162 133.0227
" />
<path d="M126.9162 133.0227
L127.0115 132.8323
" />
<path d="M127.0115 132.8323
L127.1067 132.7370
" />
<path d="M127.1067 132.7370
L127.2972 132.6418
" />
<path d="M127.2972 132.6418
L127.6781 132.6418
" />
<path d="M127.6781 132.6418
L127.8686 132.7370
" />
<path d="M127.8686 132.7370
L127.9639 132.8323
" />
<path d="M127.9639 132.8323
L128.0591 133.0227
" />
<path d="M128.0591 133.0227
L128.0591 133.1180
" />
<path d="M128.0591 133.1180
L127.9639 133.3085
" />
<path d="M127.9639 133.3085
L127.8686 133.4037
" />
<path d="M127.8686 133.4037
L127.6781 133.4989
" />
<path d="M127.6781 133.4989
L127.2972 133.4989
" />
<path d="M127.2972 133.4989
L127.1067 133.5942
" />
<path d="M127.1067 133.5942
L127.0115 133.6894
" />
<path d="M127.0115 133.6894
L126.9162 133.8799
" />
<path d="M126.9162 133.8799
L126.9162 134.2608
" />
<path d="M126.9162 134.2608
L127.0115 134.4513
" />
<path d="M127.0115 134.4513
L127.1067 134.5466
" />
<path d="M127.1067 134.5466
L127.2972 134.6418
" />
<path d="M127.2972 134.6418
L127.6781 134.6418
" />
<path d="M127.6781 134.6418
L127.8686 134.5466
" />
<path d="M127.8686 134.5466
L127.9639 134.4513
" />
<path d="M127.9639 134.4513
L128.0591 134.2608
" />
<path d="M128.0591 134.2608
L128.0591 133.8799
" />
<path d="M128.0591 133.8799
L127.9639 133.6894
" />
<path d="M127.9639 133.6894
L127.8686 133.5942
" />
<path d="M127.8686 133.5942
L127.6781 133.4989
" />
<path d="M130.4401 134.6418
L130.4401 132.6418
" />
<path d="M131.2972 134.6418
L131.2972 133.5942
" />
<path d="M131.2972 133.5942
L131.2020 133.4037
" />
<path d="M131.2020 133.4037
L131.0115 133.3085
" />
<path d="M131.0115 133.3085
L130.7258 133.3085
" />
<path d="M130.7258 133.3085
L130.5353 133.4037
" />
<path d="M130.5353 133.4037
L130.4401 133.4989
" />
<path d="M132.5353 134.6418
L132.3448 134.5466
" />
<path d="M132.3448 134.5466
L132.2496 134.4513
" />
<path d="M132.2496 134.4513
L132.1543 134.2608
" />
<path d="M132.1543 134.2608
L132.1543 133.6894
" />
<path d="M132.1543 133.6894
L132.2496 133.4989
" />
<path d="M132.2496 133.4989
L132.3448 133.4037
" />
<path d="M132.3448 133.4037
L132.5353 133.3085
" />
<path d="M132.5353 133.3085
L132.8210 133.3085
" />
<path d="M132.8210 133.3085
L133.0115 133.4037
" />
<path d="M133.0115 133.4037
L133.1067 133.4989
" />
<path d="M133.1067 133.4989
L133.2020 133.6894
" />
<path d="M133.2020 133.6894
L133.2020 134.2608
" />
<path d="M133.2020 134.2608
L133.1067 134.4513
" />
<path d="M133.1067 134.4513
L133.0115 134.5466
" />
<path d="M133.0115 134.5466
L132.8210 134.6418
" />
<path d="M132.8210 134.6418
L132.5353 134.6418
" />
<path d="M134.3448 134.6418
L134.1543 134.5466
" />
<path d="M134.1543 134.5466
L134.0591 134.3561
" />
<path d="M134.0591 134.3561
L134.0591 132.6418
" />
<path d="M135.8686 134.5466
L135.6782 134.6418
" />
<path d="M135.6782 134.6418
L135.2972 134.6418
" />
<path d="M135.2972 134.6418
L135.1067 134.5466
" />
<path d="M135.1067 134.5466
L135.0115 134.3561
" />
<path d="M135.0115 134.3561
L135.0115 133.5942
" />
<path d="M135.0115 133.5942
L135.1067 133.4037
" />
<path d="M135.1067 133.4037
L135.2972 133.3085
" />
<path d="M135.2972 133.3085
L135.6782 133.3085
" />
<path d="M135.6782 133.3085
L135.8686 133.4037
" />
<path d="M135.8686 133.4037
L135.9639 133.5942
" />
<path d="M135.9639 133.5942
L135.9639 133.7846
" />
<path d="M135.9639 133.7846
L135.0115 133.9751
" />
<path d="M136.7258 134.5466
L136.9162 134.6418
" />
<path d="M136.9162 134.6418
L137.2972 134.6418
" />
<path d="M137.2972 134.6418
L137.4877 134.5466
" />
<path d="M137.4877 134.5466
L137.5829 134.3561
" />
<path d="M137.5829 134.3561
L137.5829 134.2608
" />
<path d="M137.5829 134.2608
L137.4877 134.0704
" />
<path d="M137.4877 134.0704
L137.2972 133.9751
" />
<path d="M137.2972 133.9751
L137.0115 133.9751
" />
<path d="M137.0115 133.9751
L136.8210 133.8799
" />
<path d="M136.8210 133.8799
L136.7258 133.6894
" />
<path d="M136.7258 133.6894
L136.7258 133.5942
" />
<path d="M136.7258 133.5942
L136.8210 133.4037
" />
<path d="M136.8210 133.4037
L137.0115 133.3085
" />
<path d="M137.0115 133.3085
L137.2972 133.3085
" />
<path d="M137.2972 133.3085
L137.4877 133.4037
" />
<path d="M138.2496 135.4037
L138.3448 135.3085
" />
<path d="M138.3448 135.3085
L138.5353 135.0227
" />
<path d="M138.5353 135.0227
L138.6305 134.8323
" />
<path d="M138.6305 134.8323
L138.7258 134.5466
" />
<path d="M138.7258 134.5466
L138.8210 134.0704
" />
<path d="M138.8210 134.0704
L138.8210 133.6894
" />
<path d="M138.8210 133.6894
L138.7258 133.2132
" />
<path d="M138.7258 133.2132
L138.6305 132.9275
" />
<path d="M138.6305 132.9275
L138.5353 132.7370
" />
<path d="M138.5353 132.7370
L138.3448 132.4513
" />
<path d="M138.3448 132.4513
L138.2496 132.3561
" />
<path d="M141.8686 135.4037
L141.7734 135.3085
" />
<path d="M141.7734 135.3085
L141.5829 135.0227
" />
<path d="M141.5829 135.0227
L141.4877 134.8323
" />
<path d="M141.4877 134.8323
L141.3924 134.5466
" />
<path d="M141.3924 134.5466
L141.2972 134.0704
" />
<path d="M141.2972 134.0704
L141.2972 133.6894
" />
<path d="M141.2972 133.6894
L141.3924 133.2132
" />
<path d="M141.3924 133.2132
L141.4877 132.9275
" />
<path d="M141.4877 132.9275
L141.5829 132.7370
" />
<path d="M141.5829 132.7370
L141.7734 132.4513
" />
<path d="M141.7734 132.4513
L141.8686 132.3561
" />
<path d="M142.6305 133.3085
L142.6305 134.6418
" />
<path d="M142.6305 133.4989
L142.7258 133.4037
" />
<path d="M142.7258 133.4037
L142.9162 133.3085
" />
<path d="M142.9162 133.3085
L143.2020 133.3085
" />
<path d="M143.2020 133.3085
L143.3924 133.4037
" />
<path d="M143.3924 133.4037
L143.4877 133.5942
" />
<path d="M143.4877 133.5942
L143.4877 134.6418
" />
<path d="M144.7258 134.6418
L144.5353 134.5466
" />
<path d="M144.5353 134.5466
L144.4401 134.4513
" />
<path d="M144.4401 134.4513
L144.3448 134.2608
" />
<path d="M144.3448 134.2608
L144.3448 133.6894
" />
<path d="M144.3448 133.6894
L144.4401 133.4989
" />
<path d="M144.4401 133.4989
L144.5353 133.4037
" />
<path d="M144.5353 133.4037
L144.7258 133.3085
" />
<path d="M144.7258 133.3085
L145.0115 133.3085
" />
<path d="M145.0115 133.3085
L145.2020 133.4037
" />
<path d="M145.2020 133.4037
L145.2972 133.4989
" />
<path d="M145.2972 133.4989
L145.3924 133.6894
" />
<path d="M145.3924 133.6894
L145.3924 134.2608
" />
<path d="M145.3924 134.2608
L145.2972 134.4513
" />
<path d="M145.2972 134.4513
L145.2020 134.5466
" />
<path d="M145.2020 134.5466
L145.0115 134.6418
" />
<path d="M145.0115 134.6418
L144.7258 134.6418
" />
<path d="M145.9639 133.3085
L146.7258 133.3085
" />
<path d="M146.2496 132.6418
L146.2496 134.3561
" />
<path d="M146.2496 134.3561
L146.3448 134.5466
" />
<path d="M146.3448 134.5466
L146.5353 134.6418
" />
<path d="M146.5353 134.6418
L146.7258 134.6418
" />
<path d="M148.9162 133.3085
L148.9162 135.3085
" />
<path d="M148.9162 133.4037
L149.1067 133.3085
" />
<path d="M149.1067 133.3085
L149.4877 133.3085
" />
<path d="M149.4877 133.3085
L149.6781 133.4037
" />
<path d="M149.6781 133.4037
L149.7734 133.4989
" />
<path d="M149.7734 133.4989
L149.8686 133.6894
" />
<path d="M149.8686 133.6894
L149.8686 134.2608
" />
<path d="M149.8686 134.2608
L149.7734 134.4513
" />
<path d="M149.7734 134.4513
L149.6781 134.5466
" />
<path d="M149.6781 134.5466
L149.4877 134.6418
" />
<path d="M149.4877 134.6418
L149.1067 134.6418
" />
<path d="M149.1067 134.6418
L148.9162 134.5466
" />
<path d="M151.0115 134.6418
L150.8210 134.5466
" />
<path d="M150.8210 134.5466
L150.7258 134.3561
" />
<path d="M150.7258 134.3561
L150.7258 132.6418
" />
<path d="M152.6305 134.6418
L152.6305 133.5942
" />
<path d="M152.6305 133.5942
L152.5353 133.4037
" />
<path d="M152.5353 133.4037
L152.3448 133.3085
" />
<path d="M152.3448 133.3085
L151.9639 133.3085
" />
<path d="M151.9639 133.3085
L151.7734 133.4037
" />
<path d="M152.6305 134.5466
L152.4401 134.6418
" />
<path d="M152.4401 134.6418
L151.9639 134.6418
" />
<path d="M151.9639 134.6418
L151.7734 134.5466
" />
<path d="M151.7734 134.5466
L151.6781 134.3561
" />
<path d="M151.6781 134.3561
L151.6781 134.1656
" />
<path d="M151.6781 134.1656
L151.7734 133.9751
" />
<path d="M151.7734 133.9751
L151.9639 133.8799
" />
<path d="M151.9639 133.8799
L152.4401 133.8799
" />
<path d="M152.4401 133.8799
L152.6305 133.7846
" />
<path d="M153.2972 133.3085
L154.0591 133.3085
" />
<path d="M153.5829 132.6418
L153.5829 134.3561
" />
<path d="M153.5829 134.3561
L153.6781 134.5466
" />
<path d="M153.6781 134.5466
L153.8686 134.6418
" />
<path d="M153.8686 134.6418
L154.0591 134.6418
" />
<path d="M155.4877 134.5466
L155.2972 134.6418
" />
<path d="M155.2972 134.6418
L154.9162 134.6418
" />
<path d="M154.9162 134.6418
L154.7258 134.5466
" />
<path d="M154.7258 134.5466
L154.6305 134.3561
" />
<path d="M154.6305 134.3561
L154.6305 133.5942
" />
<path d="M154.6305 133.5942
L154.7258 133.4037
" />
<path d="M154.7258 133.4037
L154.9162 133.3085
" />
<path d="M154.9162 133.3085
L155.2972 133.3085
" />
<path d="M155.2972 133.3085
L155.4877 133.4037
" />
<path d="M155.4877 133.4037
L155.5829 133.5942
" />
<path d="M155.5829 133.5942
L155.5829 133.7846
" />
<path d="M155.5829 133.7846
L154.6305 133.9751
" />
<path d="M157.2972 134.6418
L157.2972 132.6418
" />
<path d="M157.2972 134.5466
L157.1067 134.6418
" />
<path d="M157.1067 134.6418
L156.7258 134.6418
" />
<path d="M156.7258 134.6418
L156.5353 134.5466
" />
<path d="M156.5353 134.5466
L156.4401 134.4513
" />
<path d="M156.4401 134.4513
L156.3448 134.2608
" />
<path d="M156.3448 134.2608
L156.3448 133.6894
" />
<path d="M156.3448 133.6894
L156.4401 133.4989
" />
<path d="M156.4401 133.4989
L156.5353 133.4037
" />
<path d="M156.5353 133.4037
L156.7258 133.3085
" />
<path d="M156.7258 133.3085
L157.1067 133.3085
" />
<path d="M157.1067 133.3085
L157.2972 133.4037
" />
<path d="M158.0591 135.4037
L158.1543 135.3085
" />
<path d="M158.1543 135.3085
L158.3448 135.0227
" />
<path d="M158.3448 135.0227
L158.4401 134.8323
" />
<path d="M158.4401 134.8323
L158.5353 134.5466
" />
<path d="M158.5353 134.5466
L158.6305 134.0704
" />
<path d="M158.6305 134.0704
L158.6305 133.6894
" />
<path d="M158.6305 133.6894
L158.5353 133.2132
" />
<path d="M158.5353 133.2132
L158.4401 132.9275
" />
<path d="M158.4401 132.9275
L158.3448 132.7370
" />
<path d="M158.3448 132.7370
L158.1543 132.4513
" />
<path d="M158.1543 132.4513
L158.0591 132.3561
" />
</g></g>
<g style="fill:#000000; fill-opacity:0.0; 
stroke:#000000; stroke-width:0.2000; stroke-opacity:1; 
stroke-linecap:round; stroke-linejoin:round;">
<path style="fill:#000000; fill-opacity:0.0; 
stroke:#000000; stroke-width:0.2000; stroke-opacity:1; 
stroke-linecap:round; stroke-linejoin:round;fill:none"
d="M 90.2061,137.6341
90.2061,136.2198
88.7918,136.2198
88.7918,137.6341
Z" /> 
</g>
<g style="fill:#000000; fill-opacity:0.0; 
stroke:#000000; stroke-width:0.5127; stroke-opacity:1; 
stroke-linecap:round; stroke-linejoin:round;">
</g>
<g style="fill:#000000; fill-opacity:0.0; 
stroke:#000000; stroke-width:0.2000; stroke-opacity:1; 
stroke-linecap:round; stroke-linejoin:round;">
<text x="92.4989" y="137.9270"
textLength="66.6762" font-size="2.6667" lengthAdjust="spacingAndGlyphs"
text-anchor="start" opacity="0">4.000mm / 0.1575" (4 holes) (not plated)</text>
<g class="stroked-text"><desc>4.000mm / 0.1575" (4 holes) (not plated)</desc>
<path d="M93.9639 136.5085
L93.9639 137.8418
" />
<path d="M93.4877 135.7466
L93.0115 137.1751
" />
<path d="M93.0115 137.1751
L94.2496 137.1751
" />
<path d="M95.0115 137.6513
L95.1067 137.7466
" />
<path d="M95.1067 137.7466
L95.0115 137.8418
" />
<path d="M95.0115 137.8418
L94.9162 137.7466
" />
<path d="M94.9162 137.7466
L95.0115 137.6513
" />
<path d="M95.0115 137.6513
L95.0115 137.8418
" />
<path d="M96.3448 135.8418
L96.5353 135.8418
" />
<path d="M96.5353 135.8418
L96.7258 135.9370
" />
<path d="M96.7258 135.9370
L96.8210 136.0323
" />
<path d="M96.8210 136.0323
L96.9162 136.2227
" />
<path d="M96.9162 136.2227
L97.0115 136.6037
" />
<path d="M97.0115 136.6037
L97.0115 137.0799
" />
<path d="M97.0115 137.0799
L96.9162 137.4608
" />
<path d="M96.9162 137.4608
L96.8210 137.6513
" />
<path d="M96.8210 137.6513
L96.7258 137.7466
" />
<path d="M96.7258 137.7466
L96.5353 137.8418
" />
<path d="M96.5353 137.8418
L96.3448 137.8418
" />
<path d="M96.3448 137.8418
L96.1543 137.7466
" />
<path d="M96.1543 137.7466
L96.0591 137.6513
" />
<path d="M96.0591 137.6513
L95.9639 137.4608
" />
<path d="M95.9639 137.4608
L95.8686 137.0799
" />
<path d="M95.8686 137.0799
L95.8686 136.6037
" />
<path d="M95.8686 136.6037
L95.9639 136.2227
" />
<path d="M95.9639 136.2227
L96.0591 136.0323
" />
<path d="M96.0591 136.0323
L96.1543 135.9370
" />
<path d="M96.1543 135.9370
L96.3448 135.8418
" />
<path d="M98.2496 135.8418
L98.4400 135.8418
" />
<path d="M98.4400 135.8418
L98.6305 135.9370
" />
<path d="M98.6305 135.9370
L98.7258 136.0323
" />
<path d="M98.7258 136.0323
L98.8210 136.2227
" />
<path d="M98.8210 136.2227
L98.9162 136.6037
" />
<path d="M98.9162 136.6037
L98.9162 137.0799
" />
<path d="M98.9162 137.0799
L98.8210 137.4608
" />
<path d="M98.8210 137.4608
L98.7258 137.6513
" />
<path d="M98.7258 137.6513
L98.6305 137.7466
" />
<path d="M98.6305 137.7466
L98.4400 137.8418
" />
<path d="M98.4400 137.8418
L98.2496 137.8418
" />
<path d="M98.2496 137.8418
L98.0591 137.7466
" />
<path d="M98.0591 137.7466
L97.9639 137.6513
" />
<path d="M97.9639 137.6513
L97.8686 137.4608
" />
<path d="M97.8686 137.4608
L97.7734 137.0799
" />
<path d="M97.7734 137.0799
L97.7734 136.6037
" />
<path d="M97.7734 136.6037
L97.8686 136.2227
" />
<path d="M97.8686 136.2227
L97.9639 136.0323
" />
<path d="M97.9639 136.0323
L98.0591 135.9370
" />
<path d="M98.0591 135.9370
L98.2496 135.8418
" />
<path d="M100.1543 135.8418
L100.3448 135.8418
" />
<path d="M100.3448 135.8418
L100.5353 135.9370
" />
<path d="M100.5353 135.9370
L100.6305 136.0323
" />
<path d="M100.6305 136.0323
L100.7258 136.2227
" />
<path d="M100.7258 136.2227
L100.8210 136.6037
" />
<path d="M100.8210 136.6037
L100.8210 137.0799
" />
<path d="M100.8210 137.0799
L100.7258 137.4608
" />
<path d="M100.7258 137.4608
L100.6305 137.6513
" />
<path d="M100.6305 137.6513
L100.5353 137.7466
" />
<path d="M100.5353 137.7466
L100.3448 137.8418
" />
<path d="M100.3448 137.8418
L100.1543 137.8418
" />
<path d="M100.1543 137.8418
L99.9639 137.7466
" />
<path d="M99.9639 137.7466
L99.8686 137.6513
" />
<path d="M99.8686 137.6513
L99.7734 137.4608
" />
<path d="M99.7734 137.4608
L99.6781 137.0799
" />
<path d="M99.6781 137.0799
L99.6781 136.6037
" />
<path d="M99.6781 136.6037
L99.7734 136.2227
" />
<path d="M99.7734 136.2227
L99.8686 136.0323
" />
<path d="M99.8686 136.0323
L99.9639 135.9370
" />
<path d="M99.9639 135.9370
L100.1543 135.8418
" />
<path d="M101.6781 137.8418
L101.6781 136.5085
" />
<path d="M101.6781 136.6989
L101.7734 136.6037
" />
<path d="M101.7734 136.6037
L101.9639 136.5085
" />
<path d="M101.9639 136.5085
L102.2496 136.5085
" />
<path d="M102.2496 136.5085
L102.4400 136.6037
" />
<path d="M102.4400 136.6037
L102.5353 136.7942
" />
<path d="M102.5353 136.7942
L102.5353 137.8418
" />
<path d="M102.5353 136.7942
L102.6305 136.6037
" />
<path d="M102.6305 136.6037
L102.8210 136.5085
" />
<path d="M102.8210 136.5085
L103.1067 136.5085
" />
<path d="M103.1067 136.5085
L103.2972 136.6037
" />
<path d="M103.2972 136.6037
L103.3924 136.7942
" />
<path d="M103.3924 136.7942
L103.3924 137.8418
" />
<path d="M104.3448 137.8418
L104.3448 136.5085
" />
<path d="M104.3448 136.6989
L104.4400 136.6037
" />
<path d="M104.4400 136.6037
L104.6305 136.5085
" />
<path d="M104.6305 136.5085
L104.9162 136.5085
" />
<path d="M104.9162 136.5085
L105.1067 136.6037
" />
<path d="M105.1067 136.6037
L105.2020 136.7942
" />
<path d="M105.2020 136.7942
L105.2020 137.8418
" />
<path d="M105.2020 136.7942
L105.2972 136.6037
" />
<path d="M105.2972 136.6037
L105.4877 136.5085
" />
<path d="M105.4877 136.5085
L105.7734 136.5085
" />
<path d="M105.7734 136.5085
L105.9639 136.6037
" />
<path d="M105.9639 136.6037
L106.0591 136.7942
" />
<path d="M106.0591 136.7942
L106.0591 137.8418
" />
<path d="M109.9639 135.7466
L108.2496 138.3180
" />
<path d="M112.5353 135.8418
L112.7258 135.8418
" />
<path d="M112.7258 135.8418
L112.9162 135.9370
" />
<path d="M112.9162 135.9370
L113.0115 136.0323
" />
<path d="M113.0115 136.0323
L113.1067 136.2227
" />
<path d="M113.1067 136.2227
L113.2020 136.6037
" />
<path d="M113.2020 136.6037
L113.2020 137.0799
" />
<path d="M113.2020 137.0799
L113.1067 137.4608
" />
<path d="M113.1067 137.4608
L113.0115 137.6513
" />
<path d="M113.0115 137.6513
L112.9162 137.7466
" />
<path d="M112.9162 137.7466
L112.7258 137.8418
" />
<path d="M112.7258 137.8418
L112.5353 137.8418
" />
<path d="M112.5353 137.8418
L112.3448 137.7466
" />
<path d="M112.3448 137.7466
L112.2496 137.6513
" />
<path d="M112.2496 137.6513
L112.1543 137.4608
" />
<path d="M112.1543 137.4608
L112.0591 137.0799
" />
<path d="M112.0591 137.0799
L112.0591 136.6037
" />
<path d="M112.0591 136.6037
L112.1543 136.2227
" />
<path d="M112.1543 136.2227
L112.2496 136.0323
" />
<path d="M112.2496 136.0323
L112.3448 135.9370
" />
<path d="M112.3448 135.9370
L112.5353 135.8418
" />
<path d="M114.0591 137.6513
L114.1543 137.7466
" />
<path d="M114.1543 137.7466
L114.0591 137.8418
" />
<path d="M114.0591 137.8418
L113.9639 137.7466
" />
<path d="M113.9639 137.7466
L114.0591 137.6513
" />
<path d="M114.0591 137.6513
L114.0591 137.8418
" />
<path d="M116.0591 137.8418
L114.9162 137.8418
" />
<path d="M115.4877 137.8418
L115.4877 135.8418
" />
<path d="M115.4877 135.8418
L115.2972 136.1275
" />
<path d="M115.2972 136.1275
L115.1067 136.3180
" />
<path d="M115.1067 136.3180
L114.9162 136.4132
" />
<path d="M117.8686 135.8418
L116.9162 135.8418
" />
<path d="M116.9162 135.8418
L116.8210 136.7942
" />
<path d="M116.8210 136.7942
L116.9162 136.6989
" />
<path d="M116.9162 136.6989
L117.1067 136.6037
" />
<path d="M117.1067 136.6037
L117.5829 136.6037
" />
<path d="M117.5829 136.6037
L117.7734 136.6989
" />
<path d="M117.7734 136.6989
L117.8686 136.7942
" />
<path d="M117.8686 136.7942
L117.9639 136.9846
" />
<path d="M117.9639 136.9846
L117.9639 137.4608
" />
<path d="M117.9639 137.4608
L117.8686 137.6513
" />
<path d="M117.8686 137.6513
L117.7734 137.7466
" />
<path d="M117.7734 137.7466
L117.5829 137.8418
" />
<path d="M117.5829 137.8418
L117.1067 137.8418
" />
<path d="M117.1067 137.8418
L116.9162 137.7466
" />
<path d="M116.9162 137.7466
L116.8210 137.6513
" />
<path d="M118.6305 135.8418
L119.9639 135.8418
" />
<path d="M119.9639 135.8418
L119.1067 137.8418
" />
<path d="M121.6781 135.8418
L120.7258 135.8418
" />
<path d="M120.7258 135.8418
L120.6305 136.7942
" />
<path d="M120.6305 136.7942
L120.7258 136.6989
" />
<path d="M120.7258 136.6989
L120.9162 136.6037
" />
<path d="M120.9162 136.6037
L121.3924 136.6037
" />
<path d="M121.3924 136.6037
L121.5829 136.6989
" />
<path d="M121.5829 136.6989
L121.6781 136.7942
" />
<path d="M121.6781 136.7942
L121.7734 136.9846
" />
<path d="M121.7734 136.9846
L121.7734 137.4608
" />
<path d="M121.7734 137.4608
L121.6781 137.6513
" />
<path d="M121.6781 137.6513
L121.5829 137.7466
" />
<path d="M121.5829 137.7466
L121.3924 137.8418
" />
<path d="M121.3924 137.8418
L120.9162 137.8418
" />
<path d="M120.9162 137.8418
L120.7258 137.7466
" />
<path d="M120.7258 137.7466
L120.6305 137.6513
" />
<path d="M122.5353 135.8418
L122.5353 136.2227
" />
<path d="M123.2972 135.8418
L123.2972 136.2227
" />
<path d="M126.2496 138.6037
L126.1543 138.5085
" />
<path d="M126.1543 138.5085
L125.9639 138.2227
" />
<path d="M125.9639 138.2227
L125.8686 138.0323
" />
<path d="M125.8686 138.0323
L125.7734 137.7466
" />
<path d="M125.7734 137.7466
L125.6781 137.2704
" />
<path d="M125.6781 137.2704
L125.6781 136.8894
" />
<path d="M125.6781 136.8894
L125.7734 136.4132
" />
<path d="M125.7734 136.4132
L125.8686 136.1275
" />
<path d="M125.8686 136.1275
L125.9639 135.9370
" />
<path d="M125.9639 135.9370
L126.1543 135.6513
" />
<path d="M126.1543 135.6513
L126.2496 135.5561
" />
<path d="M127.8686 136.5085
L127.8686 137.8418
" />
<path d="M127.3924 135.7466
L126.9162 137.1751
" />
<path d="M126.9162 137.1751
L128.1543 137.1751
" />
<path d="M130.4401 137.8418
L130.4401 135.8418
" />
<path d="M131.2972 137.8418
L131.2972 136.7942
" />
<path d="M131.2972 136.7942
L131.2020 136.6037
" />
<path d="M131.2020 136.6037
L131.0115 136.5085
" />
<path d="M131.0115 136.5085
L130.7258 136.5085
" />
<path d="M130.7258 136.5085
L130.5353 136.6037
" />
<path d="M130.5353 136.6037
L130.4401 136.6989
" />
<path d="M132.5353 137.8418
L132.3448 137.7466
" />
<path d="M132.3448 137.7466
L132.2496 137.6513
" />
<path d="M132.2496 137.6513
L132.1543 137.4608
" />
<path d="M132.1543 137.4608
L132.1543 136.8894
" />
<path d="M132.1543 136.8894
L132.2496 136.6989
" />
<path d="M132.2496 136.6989
L132.3448 136.6037
" />
<path d="M132.3448 136.6037
L132.5353 136.5085
" />
<path d="M132.5353 136.5085
L132.8210 136.5085
" />
<path d="M132.8210 136.5085
L133.0115 136.6037
" />
<path d="M133.0115 136.6037
L133.1067 136.6989
" />
<path d="M133.1067 136.6989
L133.2020 136.8894
" />
<path d="M133.2020 136.8894
L133.2020 137.4608
" />
<path d="M133.2020 137.4608
L133.1067 137.6513
" />
<path d="M133.1067 137.6513
L133.0115 137.7466
" />
<path d="M133.0115 137.7466
L132.8210 137.8418
" />
<path d="M132.8210 137.8418
L132.5353 137.8418
" />
<path d="M134.3448 137.8418
L134.1543 137.7466
" />
<path d="M134.1543 137.7466
L134.0591 137.5561
" />
<path d="M134.0591 137.5561
L134.0591 135.8418
" />
<path d="M135.8686 137.7466
L135.6782 137.8418
" />
<path d="M135.6782 137.8418
L135.2972 137.8418
" />
<path d="M135.2972 137.8418
L135.1067 137.7466
" />
<path d="M135.1067 137.7466
L135.0115 137.5561
" />
<path d="M135.0115 137.5561
L135.0115 136.7942
" />
<path d="M135.0115 136.7942
L135.1067 136.6037
" />
<path d="M135.1067 136.6037
L135.2972 136.5085
" />
<path d="M135.2972 136.5085
L135.6782 136.5085
" />
<path d="M135.6782 136.5085
L135.8686 136.6037
" />
<path d="M135.8686 136.6037
L135.9639 136.7942
" />
<path d="M135.9639 136.7942
L135.9639 136.9846
" />
<path d="M135.9639 136.9846
L135.0115 137.1751
" />
<path d="M136.7258 137.7466
L136.9162 137.8418
" />
<path d="M136.9162 137.8418
L137.2972 137.8418
" />
<path d="M137.2972 137.8418
L137.4877 137.7466
" />
<path d="M137.4877 137.7466
L137.5829 137.5561
" />
<path d="M137.5829 137.5561
L137.5829 137.4608
" />
<path d="M137.5829 137.4608
L137.4877 137.2704
" />
<path d="M137.4877 137.2704
L137.2972 137.1751
" />
<path d="M137.2972 137.1751
L137.0115 137.1751
" />
<path d="M137.0115 137.1751
L136.8210 137.0799
" />
<path d="M136.8210 137.0799
L136.7258 136.8894
" />
<path d="M136.7258 136.8894
L136.7258 136.7942
" />
<path d="M136.7258 136.7942
L136.8210 136.6037
" />
<path d="M136.8210 136.6037
L137.0115 136.5085
" />
<path d="M137.0115 136.5085
L137.2972 136.5085
" />
<path d="M137.2972 136.5085
L137.4877 136.6037
" />
<path d="M138.2496 138.6037
L138.3448 138.5085
" />
<path d="M138.3448 138.5085
L138.5353 138.2227
" />
<path d="M138.5353 138.2227
L138.6305 138.0323
" />
<path d="M138.6305 138.0323
L138.7258 137.7466
" />
<path d="M138.7258 137.7466
L138.8210 137.2704
" />
<path d="M138.8210 137.2704
L138.8210 136.8894
" />
<path d="M138.8210 136.8894
L138.7258 136.4132
" />
<path d="M138.7258 136.4132
L138.6305 136.1275
" />
<path d="M138.6305 136.1275
L138.5353 135.9370
" />
<path d="M138.5353 135.9370
L138.3448 135.6513
" />
<path d="M138.3448 135.6513
L138.2496 135.5561
" />
<path d="M141.8686 138.6037
L141.7734 138.5085
" />
<path d="M141.7734 138.5085
L141.5829 138.2227
" />
<path d="M141.5829 138.2227
L141.4877 138.0323
" />
<path d="M141.4877 138.0323
L141.3924 137.7466
" />
<path d="M141.3924 137.7466
L141.2972 137.2704
" />
<path d="M141.2972 137.2704
L141.2972 136.8894
" />
<path d="M141.2972 136.8894
L141.3924 136.4132
" />
<path d="M141.3924 136.4132
L141.4877 136.1275
" />
<path d="M141.4877 136.1275
L141.5829 135.9370
" />
<path d="M141.5829 135.9370
L141.7734 135.6513
" />
<path d="M141.7734 135.6513
L141.8686 135.5561
" />
<path d="M142.6305 136.5085
L142.6305 137.8418
" />
<path d="M142.6305 136.6989
L142.7258 136.6037
" />
<path d="M142.7258 136.6037
L142.9162 136.5085
" />
<path d="M142.9162 136.5085
L143.2020 136.5085
" />
<path d="M143.2020 136.5085
L143.3924 136.6037
" />
<path d="M143.3924 136.6037
L143.4877 136.7942
" />
<path d="M143.4877 136.7942
L143.4877 137.8418
" />
<path d="M144.7258 137.8418
L144.5353 137.7466
" />
<path d="M144.5353 137.7466
L144.4401 137.6513
" />
<path d="M144.4401 137.6513
L144.3448 137.4608
" />
<path d="M144.3448 137.4608
L144.3448 136.8894
" />
<path d="M144.3448 136.8894
L144.4401 136.6989
" />
<path d="M144.4401 136.6989
L144.5353 136.6037
" />
<path d="M144.5353 136.6037
L144.7258 136.5085
" />
<path d="M144.7258 136.5085
L145.0115 136.5085
" />
<path d="M145.0115 136.5085
L145.2020 136.6037
" />
<path d="M145.2020 136.6037
L145.2972 136.6989
" />
<path d="M145.2972 136.6989
L145.3924 136.8894
" />
<path d="M145.3924 136.8894
L145.3924 137.4608
" />
<path d="M145.3924 137.4608
L145.2972 137.6513
" />
<path d="M145.2972 137.6513
L145.2020 137.7466
" />
<path d="M145.2020 137.7466
L145.0115 137.8418
" />
<path d="M145.0115 137.8418
L144.7258 137.8418
" />
<path d="M145.9639 136.5085
L146.7258 136.5085
" />
<path d="M146.2496 135.8418
L146.2496 137.5561
" />
<path d="M146.2496 137.5561
L146.3448 137.7466
" />
<path d="M146.3448 137.7466
L146.5353 137.8418
" />
<path d="M146.5353 137.8418
L146.7258 137.8418
" />
<path d="M148.9162 136.5085
L148.9162 138.5085
" />
<path d="M148.9162 136.6037
L149.1067 136.5085
" />
<path d="M149.1067 136.5085
L149.4877 136.5085
" />
<path d="M149.4877 136.5085
L149.6781 136.6037
" />
<path d="M149.6781 136.6037
L149.7734 136.6989
" />
<path d="M149.7734 136.6989
L149.8686 136.8894
" />
<path d="M149.8686 136.8894
L149.8686 137.4608
" />
<path d="M149.8686 137.4608
L149.7734 137.6513
" />
<path d="M149.7734 137.6513
L149.6781 137.7466
" />
<path d="M149.6781 137.7466
L149.4877 137.8418
" />
<path d="M149.4877 137.8418
L149.1067 137.8418
" />
<path d="M149.1067 137.8418
L148.9162 137.7466
" />
<path d="M151.0115 137.8418
L150.8210 137.7466
" />
<path d="M150.8210 137.7466
L150.7258 137.5561
" />
<path d="M150.7258 137.5561
L150.7258 135.8418
" />
<path d="M152.6305 137.8418
L152.6305 136.7942
" />
<path d="M152.6305 136.7942
L152.5353 136.6037
" />
<path d="M152.5353 136.6037
L152.3448 136.5085
" />
<path d="M152.3448 136.5085
L151.9639 136.5085
" />
<path d="M151.9639 136.5085
L151.7734 136.6037
" />
<path d="M152.6305 137.7466
L152.4401 137.8418
" />
<path d="M152.4401 137.8418
L151.9639 137.8418
" />
<path d="M151.9639 137.8418
L151.7734 137.7466
" />
<path d="M151.7734 137.7466
L151.6781 137.5561
" />
<path d="M151.6781 137.5561
L151.6781 137.3656
" />
<path d="M151.6781 137.3656
L151.7734 137.1751
" />
<path d="M151.7734 137.1751
L151.9639 137.0799
" />
<path d="M151.9639 137.0799
L152.4401 137.0799
" />
<path d="M152.4401 137.0799
L152.6305 136.9846
" />
<path d="M153.2972 136.5085
L154.0591 136.5085
" />
<path d="M153.5829 135.8418
L153.5829 137.5561
" />
<path d="M153.5829 137.5561
L153.6781 137.7466
" />
<path d="M153.6781 137.7466
L153.8686 137.8418
" />
<path d="M153.8686 137.8418
L154.0591 137.8418
" />
<path d="M155.4877 137.7466
L155.2972 137.8418
" />
<path d="M155.2972 137.8418
L154.9162 137.8418
" />
<path d="M154.9162 137.8418
L154.7258 137.7466
" />
<path d="M154.7258 137.7466
L154.6305 137.5561
" />
<path d="M154.6305 137.5561
L154.6305 136.7942
" />
<path d="M154.6305 136.7942
L154.7258 136.6037
" />
<path d="M154.7258 136.6037
L154.9162 136.5085
" />
<path d="M154.9162 136.5085
L155.2972 136.5085
" />
<path d="M155.2972 136.5085
L155.4877 136.6037
" />
<path d="M155.4877 136.6037
L155.5829 136.7942
" />
<path d="M155.5829 136.7942
L155.5829 136.9846
" />
<path d="M155.5829 136.9846
L154.6305 137.1751
" />
<path d="M157.2972 137.8418
L157.2972 135.8418
" />
<path d="M157.2972 137.7466
L157.1067 137.8418
" />
<path d="M157.1067 137.8418
L156.7258 137.8418
" />
<path d="M156.7258 137.8418
L156.5353 137.7466
" />
<path d="M156.5353 137.7466
L156.4401 137.6513
" />
<path d="M156.4401 137.6513
L156.3448 137.4608
" />
<path d="M156.3448 137.4608
L156.3448 136.8894
" />
<path d="M156.3448 136.8894
L156.4401 136.6989
" />
<path d="M156.4401 136.6989
L156.5353 136.6037
" />
<path d="M156.5353 136.6037
L156.7258 136.5085
" />
<path d="M156.7258 136.5085
L157.1067 136.5085
" />
<path d="M157.1067 136.5085
L157.2972 136.6037
" />
<path d="M158.0591 138.6037
L158.1543 138.5085
" />
<path d="M158.1543 138.5085
L158.3448 138.2227
" />
<path d="M158.3448 138.2227
L158.4401 138.0323
" />
<path d="M158.4401 138.0323
L158.5353 137.7466
" />
<path d="M158.5353 137.7466
L158.6305 137.2704
" />
<path d="M158.6305 137.2704
L158.6305 136.8894
" />
<path d="M158.6305 136.8894
L158.5353 136.4132
" />
<path d="M158.5353 136.4132
L158.4401 136.1275
" />
<path d="M158.4401 136.1275
L158.3448 135.9370
" />
<path d="M158.3448 135.9370
L158.1543 135.6513
" />
<path d="M158.1543 135.6513
L158.0591 135.5561
" />
</g></g> 
</svg>
