%TF.GenerationSoftware,KiCad,Pcbnew,7.0.7*%
%TF.CreationDate,2023-09-11T19:57:54+10:00*%
%TF.ProjectId,jigsaw,6a696773-6177-42e6-9b69-6361645f7063,rev?*%
%TF.SameCoordinates,Original*%
%TF.FileFunction,Legend,Top*%
%TF.FilePolarity,Positive*%
%FSLAX46Y46*%
G04 Gerber Fmt 4.6, Leading zero omitted, Abs format (unit mm)*
G04 Created by KiCad (PCBNEW 7.0.7) date 2023-09-11 19:57:54*
%MOMM*%
%LPD*%
G01*
G04 APERTURE LIST*
%ADD10C,0.100000*%
G04 APERTURE END LIST*
D10*
%TO.C,SW1*%
X43392238Y-61927740D02*
X32192238Y-61927740D01*
X30692238Y-60427740D02*
X30692238Y-49227740D01*
X44892238Y-49227740D02*
X44892238Y-60427740D01*
X32192238Y-47727740D02*
X43392238Y-47727740D01*
X30692238Y-60427740D02*
G75*
G03*
X32192238Y-61927740I1500001J1D01*
G01*
X43392238Y-61927740D02*
G75*
G03*
X44892238Y-60427740I-1J1500001D01*
G01*
X32192238Y-47727740D02*
G75*
G03*
X30692238Y-49227740I0J-1500000D01*
G01*
X44892238Y-49227740D02*
G75*
G03*
X43392238Y-47727740I-1500000J0D01*
G01*
X64939978Y-49243502D02*
X64939978Y-60443502D01*
X63439978Y-61943502D02*
X52239978Y-61943502D01*
X52239978Y-47743502D02*
X63439978Y-47743502D01*
X50739978Y-60443502D02*
X50739978Y-49243502D01*
X63439978Y-61943502D02*
G75*
G03*
X64939978Y-60443502I-1J1500001D01*
G01*
X64939978Y-49243502D02*
G75*
G03*
X63439978Y-47743502I-1500001J-1D01*
G01*
X50739978Y-60443502D02*
G75*
G03*
X52239978Y-61943502I1500000J0D01*
G01*
X52239978Y-47743502D02*
G75*
G03*
X50739978Y-49243502I0J-1500000D01*
G01*
X52255740Y-27695762D02*
X63455740Y-27695762D01*
X64955740Y-29195762D02*
X64955740Y-40395762D01*
X50755740Y-40395762D02*
X50755740Y-29195762D01*
X63455740Y-41895762D02*
X52255740Y-41895762D01*
X64955740Y-29195762D02*
G75*
G03*
X63455740Y-27695762I-1500001J-1D01*
G01*
X52255740Y-27695762D02*
G75*
G03*
X50755740Y-29195762I1J-1500001D01*
G01*
X63455740Y-41895762D02*
G75*
G03*
X64955740Y-40395762I0J1500000D01*
G01*
X50755740Y-40395762D02*
G75*
G03*
X52255740Y-41895762I1500000J0D01*
G01*
X30708000Y-40380000D02*
X30708000Y-29180000D01*
X32208000Y-27680000D02*
X43408000Y-27680000D01*
X43408000Y-41880000D02*
X32208000Y-41880000D01*
X44908000Y-29180000D02*
X44908000Y-40380000D01*
X32208000Y-27680000D02*
G75*
G03*
X30708000Y-29180000I1J-1500001D01*
G01*
X30708000Y-40380000D02*
G75*
G03*
X32208000Y-41880000I1500001J1D01*
G01*
X44908000Y-29180000D02*
G75*
G03*
X43408000Y-27680000I-1500000J0D01*
G01*
X43408000Y-41880000D02*
G75*
G03*
X44908000Y-40380000I0J1500000D01*
G01*
%TD*%
M02*
