%TF.GenerationSoftware,KiCad,Pcbnew,7.0.7*%
%TF.CreationDate,2023-09-11T19:57:54+10:00*%
%TF.ProjectId,jigsaw,6a696773-6177-42e6-9b69-6361645f7063,rev?*%
%TF.SameCoordinates,Original*%
%TF.FileFunction,Soldermask,Bot*%
%TF.FilePolarity,Negative*%
%FSLAX46Y46*%
G04 Gerber Fmt 4.6, Leading zero omitted, Abs format (unit mm)*
G04 Created by KiCad (PCBNEW 7.0.7) date 2023-09-11 19:57:54*
%MOMM*%
%LPD*%
G01*
G04 APERTURE LIST*
G04 Aperture macros list*
%AMRoundRect*
0 Rectangle with rounded corners*
0 $1 Rounding radius*
0 $2 $3 $4 $5 $6 $7 $8 $9 X,Y pos of 4 corners*
0 Add a 4 corners polygon primitive as box body*
4,1,4,$2,$3,$4,$5,$6,$7,$8,$9,$2,$3,0*
0 Add four circle primitives for the rounded corners*
1,1,$1+$1,$2,$3*
1,1,$1+$1,$4,$5*
1,1,$1+$1,$6,$7*
1,1,$1+$1,$8,$9*
0 Add four rect primitives between the rounded corners*
20,1,$1+$1,$2,$3,$4,$5,0*
20,1,$1+$1,$4,$5,$6,$7,0*
20,1,$1+$1,$6,$7,$8,$9,0*
20,1,$1+$1,$8,$9,$2,$3,0*%
G04 Aperture macros list end*
%ADD10C,1.750000*%
%ADD11C,3.050000*%
%ADD12C,4.000000*%
%ADD13RoundRect,0.250000X1.000000X-1.025000X1.000000X1.025000X-1.000000X1.025000X-1.000000X-1.025000X0*%
%ADD14RoundRect,0.250000X1.025000X1.000000X-1.025000X1.000000X-1.025000X-1.000000X1.025000X-1.000000X0*%
%ADD15RoundRect,0.250000X-1.000000X1.025000X-1.000000X-1.025000X1.000000X-1.025000X1.000000X1.025000X0*%
%ADD16RoundRect,0.250000X-1.025000X-1.000000X1.025000X-1.000000X1.025000X1.000000X-1.025000X1.000000X0*%
%ADD17C,0.750000*%
%ADD18C,2.500000*%
%ADD19RoundRect,0.225000X0.225000X0.375000X-0.225000X0.375000X-0.225000X-0.375000X0.225000X-0.375000X0*%
%ADD20RoundRect,0.225000X-0.375000X0.225000X-0.375000X-0.225000X0.375000X-0.225000X0.375000X0.225000X0*%
%ADD21RoundRect,0.225000X-0.225000X-0.375000X0.225000X-0.375000X0.225000X0.375000X-0.225000X0.375000X0*%
%ADD22RoundRect,0.225000X0.375000X-0.225000X0.375000X0.225000X-0.375000X0.225000X-0.375000X-0.225000X0*%
G04 APERTURE END LIST*
D10*
%TO.C,SW1*%
X37792238Y-59907740D03*
D11*
X35252238Y-58637740D03*
D12*
X37792238Y-54827740D03*
D11*
X32712238Y-52287740D03*
D10*
X37792238Y-49747740D03*
D13*
X35252238Y-61912740D03*
X32712238Y-48985740D03*
%TD*%
D10*
%TO.C,SW1*%
X62919978Y-54843502D03*
D11*
X61649978Y-57383502D03*
D12*
X57839978Y-54843502D03*
D11*
X55299978Y-59923502D03*
D10*
X52759978Y-54843502D03*
D14*
X64924978Y-57383502D03*
X51997978Y-59923502D03*
%TD*%
D10*
%TO.C,SW1*%
X57855740Y-29715762D03*
D11*
X60395740Y-30985762D03*
D12*
X57855740Y-34795762D03*
D11*
X62935740Y-37335762D03*
D10*
X57855740Y-39875762D03*
D15*
X60395740Y-27710762D03*
X62935740Y-40637762D03*
%TD*%
D10*
%TO.C,SW1*%
X32728000Y-34780000D03*
D11*
X33998000Y-32240000D03*
D12*
X37808000Y-34780000D03*
D11*
X40348000Y-29700000D03*
D10*
X42888000Y-34780000D03*
D16*
X30723000Y-32240000D03*
X43650000Y-29700000D03*
%TD*%
D17*
%TO.C,REF\u002A\u002A*%
X48522978Y-51158502D03*
X48522978Y-49888502D03*
X48522978Y-48618502D03*
X48522978Y-47348502D03*
X47072978Y-51158502D03*
X47072978Y-49888502D03*
X47072978Y-48618502D03*
X47072978Y-47348502D03*
%TD*%
D18*
%TO.C,TP2*%
X37798989Y-66193353D03*
%TD*%
%TO.C,TP1*%
X26433455Y-54807971D03*
%TD*%
D19*
%TO.C,D1*%
X41037238Y-62510740D03*
X37737238Y-62510740D03*
%TD*%
D12*
%TO.C,TP3*%
X45483439Y-54882425D03*
%TD*%
%TO.C,TP4*%
X37818797Y-47068955D03*
%TD*%
D17*
%TO.C,REF\u002A\u002A*%
X41477238Y-45510740D03*
X42747238Y-45510740D03*
X44017238Y-45510740D03*
X45287238Y-45510740D03*
X41477238Y-44060740D03*
X42747238Y-44060740D03*
X44017238Y-44060740D03*
X45287238Y-44060740D03*
%TD*%
D20*
%TO.C,D1*%
X65522978Y-51598502D03*
X65522978Y-54898502D03*
%TD*%
D18*
%TO.C,TP2*%
X69205591Y-54836751D03*
%TD*%
D12*
%TO.C,TP3*%
X57894663Y-47152301D03*
%TD*%
%TO.C,TP4*%
X50081193Y-54816943D03*
%TD*%
D18*
%TO.C,TP1*%
X57820209Y-66202285D03*
%TD*%
D17*
%TO.C,REF\u002A\u002A*%
X54170740Y-44112762D03*
X52900740Y-44112762D03*
X51630740Y-44112762D03*
X50360740Y-44112762D03*
X54170740Y-45562762D03*
X52900740Y-45562762D03*
X51630740Y-45562762D03*
X50360740Y-45562762D03*
%TD*%
D21*
%TO.C,D1*%
X54610740Y-27112762D03*
X57910740Y-27112762D03*
%TD*%
D18*
%TO.C,TP2*%
X57848989Y-23430149D03*
%TD*%
D12*
%TO.C,TP3*%
X50164539Y-34741077D03*
%TD*%
%TO.C,TP4*%
X57829181Y-42554547D03*
%TD*%
D18*
%TO.C,TP1*%
X69214523Y-34815531D03*
%TD*%
D17*
%TO.C,REF\u002A\u002A*%
X47125000Y-42275000D03*
X47125000Y-41005000D03*
X47125000Y-39735000D03*
X47125000Y-38465000D03*
X48575000Y-41005000D03*
X48575000Y-38465000D03*
X48575000Y-42275000D03*
X48575000Y-39735000D03*
%TD*%
D22*
%TO.C,D1*%
X30125000Y-38025000D03*
X30125000Y-34725000D03*
%TD*%
D18*
%TO.C,TP1*%
X37827769Y-23421217D03*
%TD*%
D12*
%TO.C,TP4*%
X45566785Y-34806559D03*
%TD*%
%TO.C,TP3*%
X37753315Y-42471201D03*
%TD*%
D18*
%TO.C,TP2*%
X26442387Y-34786751D03*
%TD*%
M02*
