M48
; DRILL file {KiCad 7.0.7} date Mon Sep 11 19:57:49 2023
; FORMAT={-:-/ absolute / inch / decimal}
; #@! TF.CreationDate,2023-09-11T19:57:49+10:00
; #@! TF.GenerationSoftware,Kicad,Pcbnew,7.0.7
; #@! TF.FileFunction,NonPlated,1,2,NPTH
FMAT,2
INCH
; #@! TA.AperFunction,NonPlated,NPTH,ComponentDrill
T1C0.0295
; #@! TA.AperFunction,NonPlated,NPTH,ComponentDrill
T2C0.0689
; #@! TA.AperFunction,NonPlated,NPTH,ComponentDrill
T3C0.1201
; #@! TA.AperFunction,NonPlated,NPTH,ComponentDrill
T4C0.1575
%
G90
G05
T1
X1.633Y-1.7347
X1.633Y-1.7918
X1.683Y-1.7347
X1.683Y-1.7918
X1.733Y-1.7347
X1.733Y-1.7918
X1.783Y-1.7347
X1.783Y-1.7918
X1.8533Y-1.8641
X1.8533Y-1.9141
X1.8533Y-1.9641
X1.8533Y-2.0141
X1.8553Y-1.5144
X1.8553Y-1.5644
X1.8553Y-1.6144
X1.8553Y-1.6644
X1.9104Y-1.8641
X1.9104Y-1.9141
X1.9104Y-1.9641
X1.9104Y-2.0141
X1.9124Y-1.5144
X1.9124Y-1.5644
X1.9124Y-1.6144
X1.9124Y-1.6644
X1.9827Y-1.7367
X1.9827Y-1.7938
X2.0327Y-1.7367
X2.0327Y-1.7938
X2.0827Y-1.7367
X2.0827Y-1.7938
X2.1327Y-1.7367
X2.1327Y-1.7938
T2
X1.2885Y-1.3693
X1.4879Y-1.9586
X1.4879Y-2.3586
X1.6885Y-1.3693
X2.0772Y-2.1592
X2.2778Y-1.1699
X2.2778Y-1.5699
X2.4772Y-2.1592
T3
X1.2879Y-2.0586
X1.3385Y-1.2693
X1.3879Y-2.3086
X1.5885Y-1.1693
X2.1772Y-2.3592
X2.3778Y-1.2199
X2.4272Y-2.2592
X2.4778Y-1.4699
T4
X1.4879Y-2.1586
X1.4885Y-1.3693
X2.2772Y-2.1592
X2.2778Y-1.3699
T0
M30
