%TF.GenerationSoftware,KiCad,Pcbnew,7.0.7*%
%TF.CreationDate,2023-09-04T22:47:56+10:00*%
%TF.ProjectId,art,6172742e-6b69-4636-9164-5f7063625858,rev?*%
%TF.SameCoordinates,Original*%
%TF.FileFunction,Drillmap*%
%TF.FilePolarity,Positive*%
%FSLAX45Y45*%
G04 Gerber Fmt 4.5, Leading zero omitted, Abs format (unit mm)*
G04 Created by KiCad (PCBNEW 7.0.7) date 2023-09-04 22:47:56*
%MOMM*%
%LPD*%
G01*
G04 APERTURE LIST*
%ADD10C,0.100000*%
%ADD11C,0.200000*%
%ADD12C,0.040000*%
%ADD13C,0.120000*%
G04 APERTURE END LIST*
D10*
X2842615Y-5913569D02*
G75*
G03*
X3142615Y-6213569I300000J0D01*
G01*
X11807158Y-6213568D02*
G75*
G03*
X12107158Y-5913569I2J299998D01*
G01*
X11807158Y-6213569D02*
X3142615Y-6213569D01*
X3142615Y-2797966D02*
X11807158Y-2797966D01*
X12107154Y-3097966D02*
G75*
G03*
X11807158Y-2797966I-299994J6D01*
G01*
X2842615Y-5913569D02*
X2842615Y-3097966D01*
X12107158Y-3097966D02*
X12107158Y-5913569D01*
X3142615Y-2797966D02*
G75*
G03*
X2842615Y-3097966I1J-300001D01*
G01*
D11*
D12*
X3523300Y-4717100D02*
X3563300Y-4757100D01*
X3563300Y-4717100D02*
X3523300Y-4757100D01*
X5329800Y-4647227D02*
X5369800Y-4687227D01*
X5369800Y-4647227D02*
X5329800Y-4687227D01*
X7138060Y-4602227D02*
X7178060Y-4642227D01*
X7178060Y-4602227D02*
X7138060Y-4642227D01*
X8940000Y-4557227D02*
X8980000Y-4597227D01*
X8980000Y-4557227D02*
X8940000Y-4597227D01*
D10*
X10371222Y-2961677D02*
G75*
G03*
X10371222Y-2961677I-50000J0D01*
G01*
X10371222Y-3215677D02*
G75*
G03*
X10371222Y-3215677I-50000J0D01*
G01*
X10371222Y-3469677D02*
G75*
G03*
X10371222Y-3469677I-50000J0D01*
G01*
X10371222Y-3723677D02*
G75*
G03*
X10371222Y-3723677I-50000J0D01*
G01*
X10371222Y-3977677D02*
G75*
G03*
X10371222Y-3977677I-50000J0D01*
G01*
X10371222Y-4231677D02*
G75*
G03*
X10371222Y-4231677I-50000J0D01*
G01*
X10371222Y-4485677D02*
G75*
G03*
X10371222Y-4485677I-50000J0D01*
G01*
X10371222Y-4739677D02*
G75*
G03*
X10371222Y-4739677I-50000J0D01*
G01*
X10371222Y-4993677D02*
G75*
G03*
X10371222Y-4993677I-50000J0D01*
G01*
X10587686Y-5577768D02*
G75*
G03*
X10587686Y-5577768I-50000J0D01*
G01*
D11*
X10562686Y-5527768D02*
X10512686Y-5527768D01*
X10512686Y-5527768D02*
G75*
G03*
X10512686Y-5627768I0J-50000D01*
G01*
X10512686Y-5627768D02*
X10562686Y-5627768D01*
X10562686Y-5627768D02*
G75*
G03*
X10562686Y-5527768I0J50000D01*
G01*
D10*
X10587686Y-5815208D02*
G75*
G03*
X10587686Y-5815208I-50000J0D01*
G01*
D11*
X10562686Y-5765208D02*
X10512686Y-5765208D01*
X10512686Y-5765208D02*
G75*
G03*
X10512686Y-5865208I0J-50000D01*
G01*
X10512686Y-5865208D02*
X10562686Y-5865208D01*
X10562686Y-5865208D02*
G75*
G03*
X10562686Y-5765208I0J50000D01*
G01*
D10*
X10625222Y-4993677D02*
G75*
G03*
X10625222Y-4993677I-50000J0D01*
G01*
X10737686Y-5395208D02*
G75*
G03*
X10737686Y-5395208I-50000J0D01*
G01*
D11*
X10712686Y-5345208D02*
X10662686Y-5345208D01*
X10662686Y-5345208D02*
G75*
G03*
X10662686Y-5445208I0J-50000D01*
G01*
X10662686Y-5445208D02*
X10712686Y-5445208D01*
X10712686Y-5445208D02*
G75*
G03*
X10712686Y-5345208I0J50000D01*
G01*
D10*
X10737686Y-5997768D02*
G75*
G03*
X10737686Y-5997768I-50000J0D01*
G01*
D11*
X10712686Y-5947768D02*
X10662686Y-5947768D01*
X10662686Y-5947768D02*
G75*
G03*
X10662686Y-6047768I0J-50000D01*
G01*
X10662686Y-6047768D02*
X10712686Y-6047768D01*
X10712686Y-6047768D02*
G75*
G03*
X10712686Y-5947768I0J50000D01*
G01*
D10*
X10879222Y-4993677D02*
G75*
G03*
X10879222Y-4993677I-50000J0D01*
G01*
X11133222Y-4993677D02*
G75*
G03*
X11133222Y-4993677I-50000J0D01*
G01*
X11137686Y-5395208D02*
G75*
G03*
X11137686Y-5395208I-50000J0D01*
G01*
D11*
X11112686Y-5345208D02*
X11062686Y-5345208D01*
X11062686Y-5345208D02*
G75*
G03*
X11062686Y-5445208I0J-50000D01*
G01*
X11062686Y-5445208D02*
X11112686Y-5445208D01*
X11112686Y-5445208D02*
G75*
G03*
X11112686Y-5345208I0J50000D01*
G01*
D10*
X11137686Y-5997768D02*
G75*
G03*
X11137686Y-5997768I-50000J0D01*
G01*
D11*
X11112686Y-5947768D02*
X11062686Y-5947768D01*
X11062686Y-5947768D02*
G75*
G03*
X11062686Y-6047768I0J-50000D01*
G01*
X11062686Y-6047768D02*
X11112686Y-6047768D01*
X11112686Y-6047768D02*
G75*
G03*
X11112686Y-5947768I0J50000D01*
G01*
D10*
X11387222Y-4993677D02*
G75*
G03*
X11387222Y-4993677I-50000J0D01*
G01*
X11437686Y-5395208D02*
G75*
G03*
X11437686Y-5395208I-50000J0D01*
G01*
D11*
X11412686Y-5345208D02*
X11362686Y-5345208D01*
X11362686Y-5345208D02*
G75*
G03*
X11362686Y-5445208I0J-50000D01*
G01*
X11362686Y-5445208D02*
X11412686Y-5445208D01*
X11412686Y-5445208D02*
G75*
G03*
X11412686Y-5345208I0J50000D01*
G01*
D10*
X11437686Y-5997768D02*
G75*
G03*
X11437686Y-5997768I-50000J0D01*
G01*
D11*
X11412686Y-5947768D02*
X11362686Y-5947768D01*
X11362686Y-5947768D02*
G75*
G03*
X11362686Y-6047768I0J-50000D01*
G01*
X11362686Y-6047768D02*
X11412686Y-6047768D01*
X11412686Y-6047768D02*
G75*
G03*
X11412686Y-5947768I0J50000D01*
G01*
D10*
X11641222Y-4993677D02*
G75*
G03*
X11641222Y-4993677I-50000J0D01*
G01*
X11895222Y-2961677D02*
G75*
G03*
X11895222Y-2961677I-50000J0D01*
G01*
X11895222Y-3215677D02*
G75*
G03*
X11895222Y-3215677I-50000J0D01*
G01*
X11895222Y-3469677D02*
G75*
G03*
X11895222Y-3469677I-50000J0D01*
G01*
X11895222Y-3723677D02*
G75*
G03*
X11895222Y-3723677I-50000J0D01*
G01*
X11895222Y-3977677D02*
G75*
G03*
X11895222Y-3977677I-50000J0D01*
G01*
X11895222Y-4231677D02*
G75*
G03*
X11895222Y-4231677I-50000J0D01*
G01*
X11895222Y-4485677D02*
G75*
G03*
X11895222Y-4485677I-50000J0D01*
G01*
X11895222Y-4739677D02*
G75*
G03*
X11895222Y-4739677I-50000J0D01*
G01*
X11895222Y-4993677D02*
G75*
G03*
X11895222Y-4993677I-50000J0D01*
G01*
D13*
X3249039Y-3973239D02*
X3249039Y-4093239D01*
X3189039Y-4033239D02*
X3309039Y-4033239D01*
X3249039Y-5677500D02*
X3249039Y-5797500D01*
X3189039Y-5737500D02*
X3309039Y-5737500D01*
X3749039Y-4183239D02*
X3749039Y-4303239D01*
X3689039Y-4243239D02*
X3809039Y-4243239D01*
X3749039Y-5887500D02*
X3749039Y-6007500D01*
X3689039Y-5947500D02*
X3809039Y-5947500D01*
X4249039Y-3973239D02*
X4249039Y-4093239D01*
X4189039Y-4033239D02*
X4309039Y-4033239D01*
X4249039Y-5677500D02*
X4249039Y-5797500D01*
X4189039Y-5737500D02*
X4309039Y-5737500D01*
X5057300Y-3973239D02*
X5057300Y-4093239D01*
X4997300Y-4033239D02*
X5117300Y-4033239D01*
X5057300Y-5677500D02*
X5057300Y-5797500D01*
X4997300Y-5737500D02*
X5117300Y-5737500D01*
X5557300Y-4183239D02*
X5557300Y-4303239D01*
X5497300Y-4243239D02*
X5617300Y-4243239D01*
X5557300Y-5887500D02*
X5557300Y-6007500D01*
X5497300Y-5947500D02*
X5617300Y-5947500D01*
X6057300Y-3973239D02*
X6057300Y-4093239D01*
X5997300Y-4033239D02*
X6117300Y-4033239D01*
X6057300Y-5677500D02*
X6057300Y-5797500D01*
X5997300Y-5737500D02*
X6117300Y-5737500D01*
X6865560Y-3973239D02*
X6865560Y-4093239D01*
X6805560Y-4033239D02*
X6925560Y-4033239D01*
X6865560Y-5677500D02*
X6865560Y-5797500D01*
X6805560Y-5737500D02*
X6925560Y-5737500D01*
X7365560Y-4183239D02*
X7365560Y-4303239D01*
X7305560Y-4243239D02*
X7425560Y-4243239D01*
X7365560Y-5887500D02*
X7365560Y-6007500D01*
X7305560Y-5947500D02*
X7425560Y-5947500D01*
X7865560Y-3973239D02*
X7865560Y-4093239D01*
X7805560Y-4033239D02*
X7925560Y-4033239D01*
X7865560Y-5677500D02*
X7865560Y-5797500D01*
X7805560Y-5737500D02*
X7925560Y-5737500D01*
X8667500Y-3973239D02*
X8667500Y-4093239D01*
X8607500Y-4033239D02*
X8727500Y-4033239D01*
X8667500Y-5677500D02*
X8667500Y-5797500D01*
X8607500Y-5737500D02*
X8727500Y-5737500D01*
X9167500Y-4183239D02*
X9167500Y-4303239D01*
X9107500Y-4243239D02*
X9227500Y-4243239D01*
X9167500Y-5887500D02*
X9167500Y-6007500D01*
X9107500Y-5947500D02*
X9227500Y-5947500D01*
X9667500Y-3973239D02*
X9667500Y-4093239D01*
X9607500Y-4033239D02*
X9727500Y-4033239D01*
X9667500Y-5677500D02*
X9667500Y-5797500D01*
X9607500Y-5737500D02*
X9727500Y-5737500D01*
D11*
X3098392Y-6530053D02*
X3098392Y-6330053D01*
X3098392Y-6330053D02*
X3146011Y-6330053D01*
X3146011Y-6330053D02*
X3174582Y-6339577D01*
X3174582Y-6339577D02*
X3193630Y-6358624D01*
X3193630Y-6358624D02*
X3203153Y-6377672D01*
X3203153Y-6377672D02*
X3212677Y-6415767D01*
X3212677Y-6415767D02*
X3212677Y-6444338D01*
X3212677Y-6444338D02*
X3203153Y-6482434D01*
X3203153Y-6482434D02*
X3193630Y-6501481D01*
X3193630Y-6501481D02*
X3174582Y-6520529D01*
X3174582Y-6520529D02*
X3146011Y-6530053D01*
X3146011Y-6530053D02*
X3098392Y-6530053D01*
X3298392Y-6530053D02*
X3298392Y-6396719D01*
X3298392Y-6434815D02*
X3307915Y-6415767D01*
X3307915Y-6415767D02*
X3317439Y-6406243D01*
X3317439Y-6406243D02*
X3336487Y-6396719D01*
X3336487Y-6396719D02*
X3355534Y-6396719D01*
X3422201Y-6530053D02*
X3422201Y-6396719D01*
X3422201Y-6330053D02*
X3412677Y-6339577D01*
X3412677Y-6339577D02*
X3422201Y-6349100D01*
X3422201Y-6349100D02*
X3431725Y-6339577D01*
X3431725Y-6339577D02*
X3422201Y-6330053D01*
X3422201Y-6330053D02*
X3422201Y-6349100D01*
X3546011Y-6530053D02*
X3526963Y-6520529D01*
X3526963Y-6520529D02*
X3517439Y-6501481D01*
X3517439Y-6501481D02*
X3517439Y-6330053D01*
X3650772Y-6530053D02*
X3631725Y-6520529D01*
X3631725Y-6520529D02*
X3622201Y-6501481D01*
X3622201Y-6501481D02*
X3622201Y-6330053D01*
X3879344Y-6530053D02*
X3879344Y-6330053D01*
X3879344Y-6330053D02*
X3946011Y-6472910D01*
X3946011Y-6472910D02*
X4012677Y-6330053D01*
X4012677Y-6330053D02*
X4012677Y-6530053D01*
X4193630Y-6530053D02*
X4193630Y-6425291D01*
X4193630Y-6425291D02*
X4184106Y-6406243D01*
X4184106Y-6406243D02*
X4165058Y-6396719D01*
X4165058Y-6396719D02*
X4126963Y-6396719D01*
X4126963Y-6396719D02*
X4107915Y-6406243D01*
X4193630Y-6520529D02*
X4174582Y-6530053D01*
X4174582Y-6530053D02*
X4126963Y-6530053D01*
X4126963Y-6530053D02*
X4107915Y-6520529D01*
X4107915Y-6520529D02*
X4098392Y-6501481D01*
X4098392Y-6501481D02*
X4098392Y-6482434D01*
X4098392Y-6482434D02*
X4107915Y-6463386D01*
X4107915Y-6463386D02*
X4126963Y-6453862D01*
X4126963Y-6453862D02*
X4174582Y-6453862D01*
X4174582Y-6453862D02*
X4193630Y-6444338D01*
X4288868Y-6396719D02*
X4288868Y-6596719D01*
X4288868Y-6406243D02*
X4307915Y-6396719D01*
X4307915Y-6396719D02*
X4346011Y-6396719D01*
X4346011Y-6396719D02*
X4365058Y-6406243D01*
X4365058Y-6406243D02*
X4374582Y-6415767D01*
X4374582Y-6415767D02*
X4384106Y-6434815D01*
X4384106Y-6434815D02*
X4384106Y-6491957D01*
X4384106Y-6491957D02*
X4374582Y-6511005D01*
X4374582Y-6511005D02*
X4365058Y-6520529D01*
X4365058Y-6520529D02*
X4346011Y-6530053D01*
X4346011Y-6530053D02*
X4307915Y-6530053D01*
X4307915Y-6530053D02*
X4288868Y-6520529D01*
X4469820Y-6511005D02*
X4479344Y-6520529D01*
X4479344Y-6520529D02*
X4469820Y-6530053D01*
X4469820Y-6530053D02*
X4460296Y-6520529D01*
X4460296Y-6520529D02*
X4469820Y-6511005D01*
X4469820Y-6511005D02*
X4469820Y-6530053D01*
X4469820Y-6406243D02*
X4479344Y-6415767D01*
X4479344Y-6415767D02*
X4469820Y-6425291D01*
X4469820Y-6425291D02*
X4460296Y-6415767D01*
X4460296Y-6415767D02*
X4469820Y-6406243D01*
X4469820Y-6406243D02*
X4469820Y-6425291D01*
D12*
X2797615Y-6838569D02*
X2837615Y-6878569D01*
X2837615Y-6838569D02*
X2797615Y-6878569D01*
D11*
X3136487Y-6750053D02*
X3155534Y-6750053D01*
X3155534Y-6750053D02*
X3174582Y-6759577D01*
X3174582Y-6759577D02*
X3184106Y-6769100D01*
X3184106Y-6769100D02*
X3193630Y-6788148D01*
X3193630Y-6788148D02*
X3203153Y-6826243D01*
X3203153Y-6826243D02*
X3203153Y-6873862D01*
X3203153Y-6873862D02*
X3193630Y-6911957D01*
X3193630Y-6911957D02*
X3184106Y-6931005D01*
X3184106Y-6931005D02*
X3174582Y-6940529D01*
X3174582Y-6940529D02*
X3155534Y-6950053D01*
X3155534Y-6950053D02*
X3136487Y-6950053D01*
X3136487Y-6950053D02*
X3117439Y-6940529D01*
X3117439Y-6940529D02*
X3107915Y-6931005D01*
X3107915Y-6931005D02*
X3098392Y-6911957D01*
X3098392Y-6911957D02*
X3088868Y-6873862D01*
X3088868Y-6873862D02*
X3088868Y-6826243D01*
X3088868Y-6826243D02*
X3098392Y-6788148D01*
X3098392Y-6788148D02*
X3107915Y-6769100D01*
X3107915Y-6769100D02*
X3117439Y-6759577D01*
X3117439Y-6759577D02*
X3136487Y-6750053D01*
X3288868Y-6931005D02*
X3298392Y-6940529D01*
X3298392Y-6940529D02*
X3288868Y-6950053D01*
X3288868Y-6950053D02*
X3279344Y-6940529D01*
X3279344Y-6940529D02*
X3288868Y-6931005D01*
X3288868Y-6931005D02*
X3288868Y-6950053D01*
X3469820Y-6816719D02*
X3469820Y-6950053D01*
X3422201Y-6740529D02*
X3374582Y-6883386D01*
X3374582Y-6883386D02*
X3498392Y-6883386D01*
X3612677Y-6750053D02*
X3631725Y-6750053D01*
X3631725Y-6750053D02*
X3650773Y-6759577D01*
X3650773Y-6759577D02*
X3660296Y-6769100D01*
X3660296Y-6769100D02*
X3669820Y-6788148D01*
X3669820Y-6788148D02*
X3679344Y-6826243D01*
X3679344Y-6826243D02*
X3679344Y-6873862D01*
X3679344Y-6873862D02*
X3669820Y-6911957D01*
X3669820Y-6911957D02*
X3660296Y-6931005D01*
X3660296Y-6931005D02*
X3650773Y-6940529D01*
X3650773Y-6940529D02*
X3631725Y-6950053D01*
X3631725Y-6950053D02*
X3612677Y-6950053D01*
X3612677Y-6950053D02*
X3593630Y-6940529D01*
X3593630Y-6940529D02*
X3584106Y-6931005D01*
X3584106Y-6931005D02*
X3574582Y-6911957D01*
X3574582Y-6911957D02*
X3565058Y-6873862D01*
X3565058Y-6873862D02*
X3565058Y-6826243D01*
X3565058Y-6826243D02*
X3574582Y-6788148D01*
X3574582Y-6788148D02*
X3584106Y-6769100D01*
X3584106Y-6769100D02*
X3593630Y-6759577D01*
X3593630Y-6759577D02*
X3612677Y-6750053D01*
X3803153Y-6750053D02*
X3822201Y-6750053D01*
X3822201Y-6750053D02*
X3841249Y-6759577D01*
X3841249Y-6759577D02*
X3850773Y-6769100D01*
X3850773Y-6769100D02*
X3860296Y-6788148D01*
X3860296Y-6788148D02*
X3869820Y-6826243D01*
X3869820Y-6826243D02*
X3869820Y-6873862D01*
X3869820Y-6873862D02*
X3860296Y-6911957D01*
X3860296Y-6911957D02*
X3850773Y-6931005D01*
X3850773Y-6931005D02*
X3841249Y-6940529D01*
X3841249Y-6940529D02*
X3822201Y-6950053D01*
X3822201Y-6950053D02*
X3803153Y-6950053D01*
X3803153Y-6950053D02*
X3784106Y-6940529D01*
X3784106Y-6940529D02*
X3774582Y-6931005D01*
X3774582Y-6931005D02*
X3765058Y-6911957D01*
X3765058Y-6911957D02*
X3755534Y-6873862D01*
X3755534Y-6873862D02*
X3755534Y-6826243D01*
X3755534Y-6826243D02*
X3765058Y-6788148D01*
X3765058Y-6788148D02*
X3774582Y-6769100D01*
X3774582Y-6769100D02*
X3784106Y-6759577D01*
X3784106Y-6759577D02*
X3803153Y-6750053D01*
X3955534Y-6950053D02*
X3955534Y-6816719D01*
X3955534Y-6835767D02*
X3965058Y-6826243D01*
X3965058Y-6826243D02*
X3984106Y-6816719D01*
X3984106Y-6816719D02*
X4012677Y-6816719D01*
X4012677Y-6816719D02*
X4031725Y-6826243D01*
X4031725Y-6826243D02*
X4041249Y-6845291D01*
X4041249Y-6845291D02*
X4041249Y-6950053D01*
X4041249Y-6845291D02*
X4050773Y-6826243D01*
X4050773Y-6826243D02*
X4069820Y-6816719D01*
X4069820Y-6816719D02*
X4098392Y-6816719D01*
X4098392Y-6816719D02*
X4117439Y-6826243D01*
X4117439Y-6826243D02*
X4126963Y-6845291D01*
X4126963Y-6845291D02*
X4126963Y-6950053D01*
X4222201Y-6950053D02*
X4222201Y-6816719D01*
X4222201Y-6835767D02*
X4231725Y-6826243D01*
X4231725Y-6826243D02*
X4250773Y-6816719D01*
X4250773Y-6816719D02*
X4279344Y-6816719D01*
X4279344Y-6816719D02*
X4298392Y-6826243D01*
X4298392Y-6826243D02*
X4307916Y-6845291D01*
X4307916Y-6845291D02*
X4307916Y-6950053D01*
X4307916Y-6845291D02*
X4317439Y-6826243D01*
X4317439Y-6826243D02*
X4336487Y-6816719D01*
X4336487Y-6816719D02*
X4365058Y-6816719D01*
X4365058Y-6816719D02*
X4384106Y-6826243D01*
X4384106Y-6826243D02*
X4393630Y-6845291D01*
X4393630Y-6845291D02*
X4393630Y-6950053D01*
X4784106Y-6740529D02*
X4612678Y-6997672D01*
X5041249Y-6750053D02*
X5060297Y-6750053D01*
X5060297Y-6750053D02*
X5079344Y-6759577D01*
X5079344Y-6759577D02*
X5088868Y-6769100D01*
X5088868Y-6769100D02*
X5098392Y-6788148D01*
X5098392Y-6788148D02*
X5107916Y-6826243D01*
X5107916Y-6826243D02*
X5107916Y-6873862D01*
X5107916Y-6873862D02*
X5098392Y-6911957D01*
X5098392Y-6911957D02*
X5088868Y-6931005D01*
X5088868Y-6931005D02*
X5079344Y-6940529D01*
X5079344Y-6940529D02*
X5060297Y-6950053D01*
X5060297Y-6950053D02*
X5041249Y-6950053D01*
X5041249Y-6950053D02*
X5022201Y-6940529D01*
X5022201Y-6940529D02*
X5012678Y-6931005D01*
X5012678Y-6931005D02*
X5003154Y-6911957D01*
X5003154Y-6911957D02*
X4993630Y-6873862D01*
X4993630Y-6873862D02*
X4993630Y-6826243D01*
X4993630Y-6826243D02*
X5003154Y-6788148D01*
X5003154Y-6788148D02*
X5012678Y-6769100D01*
X5012678Y-6769100D02*
X5022201Y-6759577D01*
X5022201Y-6759577D02*
X5041249Y-6750053D01*
X5193630Y-6931005D02*
X5203154Y-6940529D01*
X5203154Y-6940529D02*
X5193630Y-6950053D01*
X5193630Y-6950053D02*
X5184106Y-6940529D01*
X5184106Y-6940529D02*
X5193630Y-6931005D01*
X5193630Y-6931005D02*
X5193630Y-6950053D01*
X5326963Y-6750053D02*
X5346011Y-6750053D01*
X5346011Y-6750053D02*
X5365059Y-6759577D01*
X5365059Y-6759577D02*
X5374582Y-6769100D01*
X5374582Y-6769100D02*
X5384106Y-6788148D01*
X5384106Y-6788148D02*
X5393630Y-6826243D01*
X5393630Y-6826243D02*
X5393630Y-6873862D01*
X5393630Y-6873862D02*
X5384106Y-6911957D01*
X5384106Y-6911957D02*
X5374582Y-6931005D01*
X5374582Y-6931005D02*
X5365059Y-6940529D01*
X5365059Y-6940529D02*
X5346011Y-6950053D01*
X5346011Y-6950053D02*
X5326963Y-6950053D01*
X5326963Y-6950053D02*
X5307916Y-6940529D01*
X5307916Y-6940529D02*
X5298392Y-6931005D01*
X5298392Y-6931005D02*
X5288868Y-6911957D01*
X5288868Y-6911957D02*
X5279344Y-6873862D01*
X5279344Y-6873862D02*
X5279344Y-6826243D01*
X5279344Y-6826243D02*
X5288868Y-6788148D01*
X5288868Y-6788148D02*
X5298392Y-6769100D01*
X5298392Y-6769100D02*
X5307916Y-6759577D01*
X5307916Y-6759577D02*
X5326963Y-6750053D01*
X5584106Y-6950053D02*
X5469820Y-6950053D01*
X5526963Y-6950053D02*
X5526963Y-6750053D01*
X5526963Y-6750053D02*
X5507916Y-6778624D01*
X5507916Y-6778624D02*
X5488868Y-6797672D01*
X5488868Y-6797672D02*
X5469820Y-6807196D01*
X5765058Y-6750053D02*
X5669820Y-6750053D01*
X5669820Y-6750053D02*
X5660297Y-6845291D01*
X5660297Y-6845291D02*
X5669820Y-6835767D01*
X5669820Y-6835767D02*
X5688868Y-6826243D01*
X5688868Y-6826243D02*
X5736487Y-6826243D01*
X5736487Y-6826243D02*
X5755535Y-6835767D01*
X5755535Y-6835767D02*
X5765058Y-6845291D01*
X5765058Y-6845291D02*
X5774582Y-6864338D01*
X5774582Y-6864338D02*
X5774582Y-6911957D01*
X5774582Y-6911957D02*
X5765058Y-6931005D01*
X5765058Y-6931005D02*
X5755535Y-6940529D01*
X5755535Y-6940529D02*
X5736487Y-6950053D01*
X5736487Y-6950053D02*
X5688868Y-6950053D01*
X5688868Y-6950053D02*
X5669820Y-6940529D01*
X5669820Y-6940529D02*
X5660297Y-6931005D01*
X5841249Y-6750053D02*
X5974582Y-6750053D01*
X5974582Y-6750053D02*
X5888868Y-6950053D01*
X6041249Y-6750053D02*
X6041249Y-6788148D01*
X6117439Y-6750053D02*
X6117439Y-6788148D01*
X6412678Y-7026243D02*
X6403154Y-7016719D01*
X6403154Y-7016719D02*
X6384106Y-6988148D01*
X6384106Y-6988148D02*
X6374582Y-6969100D01*
X6374582Y-6969100D02*
X6365059Y-6940529D01*
X6365059Y-6940529D02*
X6355535Y-6892910D01*
X6355535Y-6892910D02*
X6355535Y-6854815D01*
X6355535Y-6854815D02*
X6365059Y-6807196D01*
X6365059Y-6807196D02*
X6374582Y-6778624D01*
X6374582Y-6778624D02*
X6384106Y-6759577D01*
X6384106Y-6759577D02*
X6403154Y-6731005D01*
X6403154Y-6731005D02*
X6412678Y-6721481D01*
X6574582Y-6816719D02*
X6574582Y-6950053D01*
X6526963Y-6740529D02*
X6479344Y-6883386D01*
X6479344Y-6883386D02*
X6603154Y-6883386D01*
X6831725Y-6950053D02*
X6831725Y-6750053D01*
X6917440Y-6950053D02*
X6917440Y-6845291D01*
X6917440Y-6845291D02*
X6907916Y-6826243D01*
X6907916Y-6826243D02*
X6888868Y-6816719D01*
X6888868Y-6816719D02*
X6860297Y-6816719D01*
X6860297Y-6816719D02*
X6841249Y-6826243D01*
X6841249Y-6826243D02*
X6831725Y-6835767D01*
X7041249Y-6950053D02*
X7022201Y-6940529D01*
X7022201Y-6940529D02*
X7012678Y-6931005D01*
X7012678Y-6931005D02*
X7003154Y-6911957D01*
X7003154Y-6911957D02*
X7003154Y-6854815D01*
X7003154Y-6854815D02*
X7012678Y-6835767D01*
X7012678Y-6835767D02*
X7022201Y-6826243D01*
X7022201Y-6826243D02*
X7041249Y-6816719D01*
X7041249Y-6816719D02*
X7069821Y-6816719D01*
X7069821Y-6816719D02*
X7088868Y-6826243D01*
X7088868Y-6826243D02*
X7098392Y-6835767D01*
X7098392Y-6835767D02*
X7107916Y-6854815D01*
X7107916Y-6854815D02*
X7107916Y-6911957D01*
X7107916Y-6911957D02*
X7098392Y-6931005D01*
X7098392Y-6931005D02*
X7088868Y-6940529D01*
X7088868Y-6940529D02*
X7069821Y-6950053D01*
X7069821Y-6950053D02*
X7041249Y-6950053D01*
X7222201Y-6950053D02*
X7203154Y-6940529D01*
X7203154Y-6940529D02*
X7193630Y-6921481D01*
X7193630Y-6921481D02*
X7193630Y-6750053D01*
X7374582Y-6940529D02*
X7355535Y-6950053D01*
X7355535Y-6950053D02*
X7317440Y-6950053D01*
X7317440Y-6950053D02*
X7298392Y-6940529D01*
X7298392Y-6940529D02*
X7288868Y-6921481D01*
X7288868Y-6921481D02*
X7288868Y-6845291D01*
X7288868Y-6845291D02*
X7298392Y-6826243D01*
X7298392Y-6826243D02*
X7317440Y-6816719D01*
X7317440Y-6816719D02*
X7355535Y-6816719D01*
X7355535Y-6816719D02*
X7374582Y-6826243D01*
X7374582Y-6826243D02*
X7384106Y-6845291D01*
X7384106Y-6845291D02*
X7384106Y-6864338D01*
X7384106Y-6864338D02*
X7288868Y-6883386D01*
X7460297Y-6940529D02*
X7479344Y-6950053D01*
X7479344Y-6950053D02*
X7517440Y-6950053D01*
X7517440Y-6950053D02*
X7536487Y-6940529D01*
X7536487Y-6940529D02*
X7546011Y-6921481D01*
X7546011Y-6921481D02*
X7546011Y-6911957D01*
X7546011Y-6911957D02*
X7536487Y-6892910D01*
X7536487Y-6892910D02*
X7517440Y-6883386D01*
X7517440Y-6883386D02*
X7488868Y-6883386D01*
X7488868Y-6883386D02*
X7469821Y-6873862D01*
X7469821Y-6873862D02*
X7460297Y-6854815D01*
X7460297Y-6854815D02*
X7460297Y-6845291D01*
X7460297Y-6845291D02*
X7469821Y-6826243D01*
X7469821Y-6826243D02*
X7488868Y-6816719D01*
X7488868Y-6816719D02*
X7517440Y-6816719D01*
X7517440Y-6816719D02*
X7536487Y-6826243D01*
X7612678Y-7026243D02*
X7622202Y-7016719D01*
X7622202Y-7016719D02*
X7641249Y-6988148D01*
X7641249Y-6988148D02*
X7650773Y-6969100D01*
X7650773Y-6969100D02*
X7660297Y-6940529D01*
X7660297Y-6940529D02*
X7669821Y-6892910D01*
X7669821Y-6892910D02*
X7669821Y-6854815D01*
X7669821Y-6854815D02*
X7660297Y-6807196D01*
X7660297Y-6807196D02*
X7650773Y-6778624D01*
X7650773Y-6778624D02*
X7641249Y-6759577D01*
X7641249Y-6759577D02*
X7622202Y-6731005D01*
X7622202Y-6731005D02*
X7612678Y-6721481D01*
D10*
X2837615Y-7122569D02*
G75*
G03*
X2837615Y-7122569I-50000J0D01*
G01*
D11*
X3203153Y-7214053D02*
X3088868Y-7214053D01*
X3146011Y-7214053D02*
X3146011Y-7014053D01*
X3146011Y-7014053D02*
X3126963Y-7042624D01*
X3126963Y-7042624D02*
X3107915Y-7061672D01*
X3107915Y-7061672D02*
X3088868Y-7071196D01*
X3288868Y-7195005D02*
X3298392Y-7204529D01*
X3298392Y-7204529D02*
X3288868Y-7214053D01*
X3288868Y-7214053D02*
X3279344Y-7204529D01*
X3279344Y-7204529D02*
X3288868Y-7195005D01*
X3288868Y-7195005D02*
X3288868Y-7214053D01*
X3422201Y-7014053D02*
X3441249Y-7014053D01*
X3441249Y-7014053D02*
X3460296Y-7023577D01*
X3460296Y-7023577D02*
X3469820Y-7033100D01*
X3469820Y-7033100D02*
X3479344Y-7052148D01*
X3479344Y-7052148D02*
X3488868Y-7090243D01*
X3488868Y-7090243D02*
X3488868Y-7137862D01*
X3488868Y-7137862D02*
X3479344Y-7175957D01*
X3479344Y-7175957D02*
X3469820Y-7195005D01*
X3469820Y-7195005D02*
X3460296Y-7204529D01*
X3460296Y-7204529D02*
X3441249Y-7214053D01*
X3441249Y-7214053D02*
X3422201Y-7214053D01*
X3422201Y-7214053D02*
X3403153Y-7204529D01*
X3403153Y-7204529D02*
X3393630Y-7195005D01*
X3393630Y-7195005D02*
X3384106Y-7175957D01*
X3384106Y-7175957D02*
X3374582Y-7137862D01*
X3374582Y-7137862D02*
X3374582Y-7090243D01*
X3374582Y-7090243D02*
X3384106Y-7052148D01*
X3384106Y-7052148D02*
X3393630Y-7033100D01*
X3393630Y-7033100D02*
X3403153Y-7023577D01*
X3403153Y-7023577D02*
X3422201Y-7014053D01*
X3612677Y-7014053D02*
X3631725Y-7014053D01*
X3631725Y-7014053D02*
X3650773Y-7023577D01*
X3650773Y-7023577D02*
X3660296Y-7033100D01*
X3660296Y-7033100D02*
X3669820Y-7052148D01*
X3669820Y-7052148D02*
X3679344Y-7090243D01*
X3679344Y-7090243D02*
X3679344Y-7137862D01*
X3679344Y-7137862D02*
X3669820Y-7175957D01*
X3669820Y-7175957D02*
X3660296Y-7195005D01*
X3660296Y-7195005D02*
X3650773Y-7204529D01*
X3650773Y-7204529D02*
X3631725Y-7214053D01*
X3631725Y-7214053D02*
X3612677Y-7214053D01*
X3612677Y-7214053D02*
X3593630Y-7204529D01*
X3593630Y-7204529D02*
X3584106Y-7195005D01*
X3584106Y-7195005D02*
X3574582Y-7175957D01*
X3574582Y-7175957D02*
X3565058Y-7137862D01*
X3565058Y-7137862D02*
X3565058Y-7090243D01*
X3565058Y-7090243D02*
X3574582Y-7052148D01*
X3574582Y-7052148D02*
X3584106Y-7033100D01*
X3584106Y-7033100D02*
X3593630Y-7023577D01*
X3593630Y-7023577D02*
X3612677Y-7014053D01*
X3803153Y-7014053D02*
X3822201Y-7014053D01*
X3822201Y-7014053D02*
X3841249Y-7023577D01*
X3841249Y-7023577D02*
X3850773Y-7033100D01*
X3850773Y-7033100D02*
X3860296Y-7052148D01*
X3860296Y-7052148D02*
X3869820Y-7090243D01*
X3869820Y-7090243D02*
X3869820Y-7137862D01*
X3869820Y-7137862D02*
X3860296Y-7175957D01*
X3860296Y-7175957D02*
X3850773Y-7195005D01*
X3850773Y-7195005D02*
X3841249Y-7204529D01*
X3841249Y-7204529D02*
X3822201Y-7214053D01*
X3822201Y-7214053D02*
X3803153Y-7214053D01*
X3803153Y-7214053D02*
X3784106Y-7204529D01*
X3784106Y-7204529D02*
X3774582Y-7195005D01*
X3774582Y-7195005D02*
X3765058Y-7175957D01*
X3765058Y-7175957D02*
X3755534Y-7137862D01*
X3755534Y-7137862D02*
X3755534Y-7090243D01*
X3755534Y-7090243D02*
X3765058Y-7052148D01*
X3765058Y-7052148D02*
X3774582Y-7033100D01*
X3774582Y-7033100D02*
X3784106Y-7023577D01*
X3784106Y-7023577D02*
X3803153Y-7014053D01*
X3955534Y-7214053D02*
X3955534Y-7080719D01*
X3955534Y-7099767D02*
X3965058Y-7090243D01*
X3965058Y-7090243D02*
X3984106Y-7080719D01*
X3984106Y-7080719D02*
X4012677Y-7080719D01*
X4012677Y-7080719D02*
X4031725Y-7090243D01*
X4031725Y-7090243D02*
X4041249Y-7109291D01*
X4041249Y-7109291D02*
X4041249Y-7214053D01*
X4041249Y-7109291D02*
X4050773Y-7090243D01*
X4050773Y-7090243D02*
X4069820Y-7080719D01*
X4069820Y-7080719D02*
X4098392Y-7080719D01*
X4098392Y-7080719D02*
X4117439Y-7090243D01*
X4117439Y-7090243D02*
X4126963Y-7109291D01*
X4126963Y-7109291D02*
X4126963Y-7214053D01*
X4222201Y-7214053D02*
X4222201Y-7080719D01*
X4222201Y-7099767D02*
X4231725Y-7090243D01*
X4231725Y-7090243D02*
X4250773Y-7080719D01*
X4250773Y-7080719D02*
X4279344Y-7080719D01*
X4279344Y-7080719D02*
X4298392Y-7090243D01*
X4298392Y-7090243D02*
X4307916Y-7109291D01*
X4307916Y-7109291D02*
X4307916Y-7214053D01*
X4307916Y-7109291D02*
X4317439Y-7090243D01*
X4317439Y-7090243D02*
X4336487Y-7080719D01*
X4336487Y-7080719D02*
X4365058Y-7080719D01*
X4365058Y-7080719D02*
X4384106Y-7090243D01*
X4384106Y-7090243D02*
X4393630Y-7109291D01*
X4393630Y-7109291D02*
X4393630Y-7214053D01*
X4784106Y-7004529D02*
X4612678Y-7261672D01*
X5041249Y-7014053D02*
X5060297Y-7014053D01*
X5060297Y-7014053D02*
X5079344Y-7023577D01*
X5079344Y-7023577D02*
X5088868Y-7033100D01*
X5088868Y-7033100D02*
X5098392Y-7052148D01*
X5098392Y-7052148D02*
X5107916Y-7090243D01*
X5107916Y-7090243D02*
X5107916Y-7137862D01*
X5107916Y-7137862D02*
X5098392Y-7175957D01*
X5098392Y-7175957D02*
X5088868Y-7195005D01*
X5088868Y-7195005D02*
X5079344Y-7204529D01*
X5079344Y-7204529D02*
X5060297Y-7214053D01*
X5060297Y-7214053D02*
X5041249Y-7214053D01*
X5041249Y-7214053D02*
X5022201Y-7204529D01*
X5022201Y-7204529D02*
X5012678Y-7195005D01*
X5012678Y-7195005D02*
X5003154Y-7175957D01*
X5003154Y-7175957D02*
X4993630Y-7137862D01*
X4993630Y-7137862D02*
X4993630Y-7090243D01*
X4993630Y-7090243D02*
X5003154Y-7052148D01*
X5003154Y-7052148D02*
X5012678Y-7033100D01*
X5012678Y-7033100D02*
X5022201Y-7023577D01*
X5022201Y-7023577D02*
X5041249Y-7014053D01*
X5193630Y-7195005D02*
X5203154Y-7204529D01*
X5203154Y-7204529D02*
X5193630Y-7214053D01*
X5193630Y-7214053D02*
X5184106Y-7204529D01*
X5184106Y-7204529D02*
X5193630Y-7195005D01*
X5193630Y-7195005D02*
X5193630Y-7214053D01*
X5326963Y-7014053D02*
X5346011Y-7014053D01*
X5346011Y-7014053D02*
X5365059Y-7023577D01*
X5365059Y-7023577D02*
X5374582Y-7033100D01*
X5374582Y-7033100D02*
X5384106Y-7052148D01*
X5384106Y-7052148D02*
X5393630Y-7090243D01*
X5393630Y-7090243D02*
X5393630Y-7137862D01*
X5393630Y-7137862D02*
X5384106Y-7175957D01*
X5384106Y-7175957D02*
X5374582Y-7195005D01*
X5374582Y-7195005D02*
X5365059Y-7204529D01*
X5365059Y-7204529D02*
X5346011Y-7214053D01*
X5346011Y-7214053D02*
X5326963Y-7214053D01*
X5326963Y-7214053D02*
X5307916Y-7204529D01*
X5307916Y-7204529D02*
X5298392Y-7195005D01*
X5298392Y-7195005D02*
X5288868Y-7175957D01*
X5288868Y-7175957D02*
X5279344Y-7137862D01*
X5279344Y-7137862D02*
X5279344Y-7090243D01*
X5279344Y-7090243D02*
X5288868Y-7052148D01*
X5288868Y-7052148D02*
X5298392Y-7033100D01*
X5298392Y-7033100D02*
X5307916Y-7023577D01*
X5307916Y-7023577D02*
X5326963Y-7014053D01*
X5460297Y-7014053D02*
X5584106Y-7014053D01*
X5584106Y-7014053D02*
X5517439Y-7090243D01*
X5517439Y-7090243D02*
X5546011Y-7090243D01*
X5546011Y-7090243D02*
X5565059Y-7099767D01*
X5565059Y-7099767D02*
X5574582Y-7109291D01*
X5574582Y-7109291D02*
X5584106Y-7128338D01*
X5584106Y-7128338D02*
X5584106Y-7175957D01*
X5584106Y-7175957D02*
X5574582Y-7195005D01*
X5574582Y-7195005D02*
X5565059Y-7204529D01*
X5565059Y-7204529D02*
X5546011Y-7214053D01*
X5546011Y-7214053D02*
X5488868Y-7214053D01*
X5488868Y-7214053D02*
X5469820Y-7204529D01*
X5469820Y-7204529D02*
X5460297Y-7195005D01*
X5679344Y-7214053D02*
X5717439Y-7214053D01*
X5717439Y-7214053D02*
X5736487Y-7204529D01*
X5736487Y-7204529D02*
X5746011Y-7195005D01*
X5746011Y-7195005D02*
X5765058Y-7166434D01*
X5765058Y-7166434D02*
X5774582Y-7128338D01*
X5774582Y-7128338D02*
X5774582Y-7052148D01*
X5774582Y-7052148D02*
X5765058Y-7033100D01*
X5765058Y-7033100D02*
X5755535Y-7023577D01*
X5755535Y-7023577D02*
X5736487Y-7014053D01*
X5736487Y-7014053D02*
X5698392Y-7014053D01*
X5698392Y-7014053D02*
X5679344Y-7023577D01*
X5679344Y-7023577D02*
X5669820Y-7033100D01*
X5669820Y-7033100D02*
X5660297Y-7052148D01*
X5660297Y-7052148D02*
X5660297Y-7099767D01*
X5660297Y-7099767D02*
X5669820Y-7118815D01*
X5669820Y-7118815D02*
X5679344Y-7128338D01*
X5679344Y-7128338D02*
X5698392Y-7137862D01*
X5698392Y-7137862D02*
X5736487Y-7137862D01*
X5736487Y-7137862D02*
X5755535Y-7128338D01*
X5755535Y-7128338D02*
X5765058Y-7118815D01*
X5765058Y-7118815D02*
X5774582Y-7099767D01*
X5946011Y-7080719D02*
X5946011Y-7214053D01*
X5898392Y-7004529D02*
X5850773Y-7147386D01*
X5850773Y-7147386D02*
X5974582Y-7147386D01*
X6041249Y-7014053D02*
X6041249Y-7052148D01*
X6117439Y-7014053D02*
X6117439Y-7052148D01*
X6412678Y-7290243D02*
X6403154Y-7280719D01*
X6403154Y-7280719D02*
X6384106Y-7252148D01*
X6384106Y-7252148D02*
X6374582Y-7233100D01*
X6374582Y-7233100D02*
X6365059Y-7204529D01*
X6365059Y-7204529D02*
X6355535Y-7156910D01*
X6355535Y-7156910D02*
X6355535Y-7118815D01*
X6355535Y-7118815D02*
X6365059Y-7071196D01*
X6365059Y-7071196D02*
X6374582Y-7042624D01*
X6374582Y-7042624D02*
X6384106Y-7023577D01*
X6384106Y-7023577D02*
X6403154Y-6995005D01*
X6403154Y-6995005D02*
X6412678Y-6985481D01*
X6479344Y-7033100D02*
X6488868Y-7023577D01*
X6488868Y-7023577D02*
X6507916Y-7014053D01*
X6507916Y-7014053D02*
X6555535Y-7014053D01*
X6555535Y-7014053D02*
X6574582Y-7023577D01*
X6574582Y-7023577D02*
X6584106Y-7033100D01*
X6584106Y-7033100D02*
X6593630Y-7052148D01*
X6593630Y-7052148D02*
X6593630Y-7071196D01*
X6593630Y-7071196D02*
X6584106Y-7099767D01*
X6584106Y-7099767D02*
X6469820Y-7214053D01*
X6469820Y-7214053D02*
X6593630Y-7214053D01*
X6660297Y-7014053D02*
X6784106Y-7014053D01*
X6784106Y-7014053D02*
X6717439Y-7090243D01*
X6717439Y-7090243D02*
X6746011Y-7090243D01*
X6746011Y-7090243D02*
X6765059Y-7099767D01*
X6765059Y-7099767D02*
X6774582Y-7109291D01*
X6774582Y-7109291D02*
X6784106Y-7128338D01*
X6784106Y-7128338D02*
X6784106Y-7175957D01*
X6784106Y-7175957D02*
X6774582Y-7195005D01*
X6774582Y-7195005D02*
X6765059Y-7204529D01*
X6765059Y-7204529D02*
X6746011Y-7214053D01*
X6746011Y-7214053D02*
X6688868Y-7214053D01*
X6688868Y-7214053D02*
X6669820Y-7204529D01*
X6669820Y-7204529D02*
X6660297Y-7195005D01*
X7022201Y-7214053D02*
X7022201Y-7014053D01*
X7107916Y-7214053D02*
X7107916Y-7109291D01*
X7107916Y-7109291D02*
X7098392Y-7090243D01*
X7098392Y-7090243D02*
X7079344Y-7080719D01*
X7079344Y-7080719D02*
X7050773Y-7080719D01*
X7050773Y-7080719D02*
X7031725Y-7090243D01*
X7031725Y-7090243D02*
X7022201Y-7099767D01*
X7231725Y-7214053D02*
X7212678Y-7204529D01*
X7212678Y-7204529D02*
X7203154Y-7195005D01*
X7203154Y-7195005D02*
X7193630Y-7175957D01*
X7193630Y-7175957D02*
X7193630Y-7118815D01*
X7193630Y-7118815D02*
X7203154Y-7099767D01*
X7203154Y-7099767D02*
X7212678Y-7090243D01*
X7212678Y-7090243D02*
X7231725Y-7080719D01*
X7231725Y-7080719D02*
X7260297Y-7080719D01*
X7260297Y-7080719D02*
X7279344Y-7090243D01*
X7279344Y-7090243D02*
X7288868Y-7099767D01*
X7288868Y-7099767D02*
X7298392Y-7118815D01*
X7298392Y-7118815D02*
X7298392Y-7175957D01*
X7298392Y-7175957D02*
X7288868Y-7195005D01*
X7288868Y-7195005D02*
X7279344Y-7204529D01*
X7279344Y-7204529D02*
X7260297Y-7214053D01*
X7260297Y-7214053D02*
X7231725Y-7214053D01*
X7412678Y-7214053D02*
X7393630Y-7204529D01*
X7393630Y-7204529D02*
X7384106Y-7185481D01*
X7384106Y-7185481D02*
X7384106Y-7014053D01*
X7565059Y-7204529D02*
X7546011Y-7214053D01*
X7546011Y-7214053D02*
X7507916Y-7214053D01*
X7507916Y-7214053D02*
X7488868Y-7204529D01*
X7488868Y-7204529D02*
X7479344Y-7185481D01*
X7479344Y-7185481D02*
X7479344Y-7109291D01*
X7479344Y-7109291D02*
X7488868Y-7090243D01*
X7488868Y-7090243D02*
X7507916Y-7080719D01*
X7507916Y-7080719D02*
X7546011Y-7080719D01*
X7546011Y-7080719D02*
X7565059Y-7090243D01*
X7565059Y-7090243D02*
X7574582Y-7109291D01*
X7574582Y-7109291D02*
X7574582Y-7128338D01*
X7574582Y-7128338D02*
X7479344Y-7147386D01*
X7650773Y-7204529D02*
X7669821Y-7214053D01*
X7669821Y-7214053D02*
X7707916Y-7214053D01*
X7707916Y-7214053D02*
X7726963Y-7204529D01*
X7726963Y-7204529D02*
X7736487Y-7185481D01*
X7736487Y-7185481D02*
X7736487Y-7175957D01*
X7736487Y-7175957D02*
X7726963Y-7156910D01*
X7726963Y-7156910D02*
X7707916Y-7147386D01*
X7707916Y-7147386D02*
X7679344Y-7147386D01*
X7679344Y-7147386D02*
X7660297Y-7137862D01*
X7660297Y-7137862D02*
X7650773Y-7118815D01*
X7650773Y-7118815D02*
X7650773Y-7109291D01*
X7650773Y-7109291D02*
X7660297Y-7090243D01*
X7660297Y-7090243D02*
X7679344Y-7080719D01*
X7679344Y-7080719D02*
X7707916Y-7080719D01*
X7707916Y-7080719D02*
X7726963Y-7090243D01*
X7974583Y-7137862D02*
X8126964Y-7137862D01*
X8050773Y-7214053D02*
X8050773Y-7061672D01*
X8403154Y-7099767D02*
X8384106Y-7090243D01*
X8384106Y-7090243D02*
X8374583Y-7080719D01*
X8374583Y-7080719D02*
X8365059Y-7061672D01*
X8365059Y-7061672D02*
X8365059Y-7052148D01*
X8365059Y-7052148D02*
X8374583Y-7033100D01*
X8374583Y-7033100D02*
X8384106Y-7023577D01*
X8384106Y-7023577D02*
X8403154Y-7014053D01*
X8403154Y-7014053D02*
X8441249Y-7014053D01*
X8441249Y-7014053D02*
X8460297Y-7023577D01*
X8460297Y-7023577D02*
X8469821Y-7033100D01*
X8469821Y-7033100D02*
X8479345Y-7052148D01*
X8479345Y-7052148D02*
X8479345Y-7061672D01*
X8479345Y-7061672D02*
X8469821Y-7080719D01*
X8469821Y-7080719D02*
X8460297Y-7090243D01*
X8460297Y-7090243D02*
X8441249Y-7099767D01*
X8441249Y-7099767D02*
X8403154Y-7099767D01*
X8403154Y-7099767D02*
X8384106Y-7109291D01*
X8384106Y-7109291D02*
X8374583Y-7118815D01*
X8374583Y-7118815D02*
X8365059Y-7137862D01*
X8365059Y-7137862D02*
X8365059Y-7175957D01*
X8365059Y-7175957D02*
X8374583Y-7195005D01*
X8374583Y-7195005D02*
X8384106Y-7204529D01*
X8384106Y-7204529D02*
X8403154Y-7214053D01*
X8403154Y-7214053D02*
X8441249Y-7214053D01*
X8441249Y-7214053D02*
X8460297Y-7204529D01*
X8460297Y-7204529D02*
X8469821Y-7195005D01*
X8469821Y-7195005D02*
X8479345Y-7175957D01*
X8479345Y-7175957D02*
X8479345Y-7137862D01*
X8479345Y-7137862D02*
X8469821Y-7118815D01*
X8469821Y-7118815D02*
X8460297Y-7109291D01*
X8460297Y-7109291D02*
X8441249Y-7099767D01*
X8707916Y-7204529D02*
X8726964Y-7214053D01*
X8726964Y-7214053D02*
X8765059Y-7214053D01*
X8765059Y-7214053D02*
X8784107Y-7204529D01*
X8784107Y-7204529D02*
X8793630Y-7185481D01*
X8793630Y-7185481D02*
X8793630Y-7175957D01*
X8793630Y-7175957D02*
X8784107Y-7156910D01*
X8784107Y-7156910D02*
X8765059Y-7147386D01*
X8765059Y-7147386D02*
X8736487Y-7147386D01*
X8736487Y-7147386D02*
X8717440Y-7137862D01*
X8717440Y-7137862D02*
X8707916Y-7118815D01*
X8707916Y-7118815D02*
X8707916Y-7109291D01*
X8707916Y-7109291D02*
X8717440Y-7090243D01*
X8717440Y-7090243D02*
X8736487Y-7080719D01*
X8736487Y-7080719D02*
X8765059Y-7080719D01*
X8765059Y-7080719D02*
X8784107Y-7090243D01*
X8907916Y-7214053D02*
X8888868Y-7204529D01*
X8888868Y-7204529D02*
X8879345Y-7185481D01*
X8879345Y-7185481D02*
X8879345Y-7014053D01*
X9012678Y-7214053D02*
X8993630Y-7204529D01*
X8993630Y-7204529D02*
X8984107Y-7195005D01*
X8984107Y-7195005D02*
X8974583Y-7175957D01*
X8974583Y-7175957D02*
X8974583Y-7118815D01*
X8974583Y-7118815D02*
X8984107Y-7099767D01*
X8984107Y-7099767D02*
X8993630Y-7090243D01*
X8993630Y-7090243D02*
X9012678Y-7080719D01*
X9012678Y-7080719D02*
X9041249Y-7080719D01*
X9041249Y-7080719D02*
X9060297Y-7090243D01*
X9060297Y-7090243D02*
X9069821Y-7099767D01*
X9069821Y-7099767D02*
X9079345Y-7118815D01*
X9079345Y-7118815D02*
X9079345Y-7175957D01*
X9079345Y-7175957D02*
X9069821Y-7195005D01*
X9069821Y-7195005D02*
X9060297Y-7204529D01*
X9060297Y-7204529D02*
X9041249Y-7214053D01*
X9041249Y-7214053D02*
X9012678Y-7214053D01*
X9136488Y-7080719D02*
X9212678Y-7080719D01*
X9165059Y-7014053D02*
X9165059Y-7185481D01*
X9165059Y-7185481D02*
X9174583Y-7204529D01*
X9174583Y-7204529D02*
X9193630Y-7214053D01*
X9193630Y-7214053D02*
X9212678Y-7214053D01*
X9269821Y-7204529D02*
X9288868Y-7214053D01*
X9288868Y-7214053D02*
X9326964Y-7214053D01*
X9326964Y-7214053D02*
X9346011Y-7204529D01*
X9346011Y-7204529D02*
X9355535Y-7185481D01*
X9355535Y-7185481D02*
X9355535Y-7175957D01*
X9355535Y-7175957D02*
X9346011Y-7156910D01*
X9346011Y-7156910D02*
X9326964Y-7147386D01*
X9326964Y-7147386D02*
X9298392Y-7147386D01*
X9298392Y-7147386D02*
X9279345Y-7137862D01*
X9279345Y-7137862D02*
X9269821Y-7118815D01*
X9269821Y-7118815D02*
X9269821Y-7109291D01*
X9269821Y-7109291D02*
X9279345Y-7090243D01*
X9279345Y-7090243D02*
X9298392Y-7080719D01*
X9298392Y-7080719D02*
X9326964Y-7080719D01*
X9326964Y-7080719D02*
X9346011Y-7090243D01*
X9422202Y-7290243D02*
X9431726Y-7280719D01*
X9431726Y-7280719D02*
X9450773Y-7252148D01*
X9450773Y-7252148D02*
X9460297Y-7233100D01*
X9460297Y-7233100D02*
X9469821Y-7204529D01*
X9469821Y-7204529D02*
X9479345Y-7156910D01*
X9479345Y-7156910D02*
X9479345Y-7118815D01*
X9479345Y-7118815D02*
X9469821Y-7071196D01*
X9469821Y-7071196D02*
X9460297Y-7042624D01*
X9460297Y-7042624D02*
X9450773Y-7023577D01*
X9450773Y-7023577D02*
X9431726Y-6995005D01*
X9431726Y-6995005D02*
X9422202Y-6985481D01*
D13*
X2777615Y-7326569D02*
X2777615Y-7446569D01*
X2717615Y-7386569D02*
X2837615Y-7386569D01*
D11*
X3203153Y-7478053D02*
X3088868Y-7478053D01*
X3146011Y-7478053D02*
X3146011Y-7278053D01*
X3146011Y-7278053D02*
X3126963Y-7306624D01*
X3126963Y-7306624D02*
X3107915Y-7325672D01*
X3107915Y-7325672D02*
X3088868Y-7335196D01*
X3288868Y-7459005D02*
X3298392Y-7468529D01*
X3298392Y-7468529D02*
X3288868Y-7478053D01*
X3288868Y-7478053D02*
X3279344Y-7468529D01*
X3279344Y-7468529D02*
X3288868Y-7459005D01*
X3288868Y-7459005D02*
X3288868Y-7478053D01*
X3374582Y-7297100D02*
X3384106Y-7287577D01*
X3384106Y-7287577D02*
X3403153Y-7278053D01*
X3403153Y-7278053D02*
X3450773Y-7278053D01*
X3450773Y-7278053D02*
X3469820Y-7287577D01*
X3469820Y-7287577D02*
X3479344Y-7297100D01*
X3479344Y-7297100D02*
X3488868Y-7316148D01*
X3488868Y-7316148D02*
X3488868Y-7335196D01*
X3488868Y-7335196D02*
X3479344Y-7363767D01*
X3479344Y-7363767D02*
X3365058Y-7478053D01*
X3365058Y-7478053D02*
X3488868Y-7478053D01*
X3612677Y-7278053D02*
X3631725Y-7278053D01*
X3631725Y-7278053D02*
X3650773Y-7287577D01*
X3650773Y-7287577D02*
X3660296Y-7297100D01*
X3660296Y-7297100D02*
X3669820Y-7316148D01*
X3669820Y-7316148D02*
X3679344Y-7354243D01*
X3679344Y-7354243D02*
X3679344Y-7401862D01*
X3679344Y-7401862D02*
X3669820Y-7439957D01*
X3669820Y-7439957D02*
X3660296Y-7459005D01*
X3660296Y-7459005D02*
X3650773Y-7468529D01*
X3650773Y-7468529D02*
X3631725Y-7478053D01*
X3631725Y-7478053D02*
X3612677Y-7478053D01*
X3612677Y-7478053D02*
X3593630Y-7468529D01*
X3593630Y-7468529D02*
X3584106Y-7459005D01*
X3584106Y-7459005D02*
X3574582Y-7439957D01*
X3574582Y-7439957D02*
X3565058Y-7401862D01*
X3565058Y-7401862D02*
X3565058Y-7354243D01*
X3565058Y-7354243D02*
X3574582Y-7316148D01*
X3574582Y-7316148D02*
X3584106Y-7297100D01*
X3584106Y-7297100D02*
X3593630Y-7287577D01*
X3593630Y-7287577D02*
X3612677Y-7278053D01*
X3803153Y-7278053D02*
X3822201Y-7278053D01*
X3822201Y-7278053D02*
X3841249Y-7287577D01*
X3841249Y-7287577D02*
X3850773Y-7297100D01*
X3850773Y-7297100D02*
X3860296Y-7316148D01*
X3860296Y-7316148D02*
X3869820Y-7354243D01*
X3869820Y-7354243D02*
X3869820Y-7401862D01*
X3869820Y-7401862D02*
X3860296Y-7439957D01*
X3860296Y-7439957D02*
X3850773Y-7459005D01*
X3850773Y-7459005D02*
X3841249Y-7468529D01*
X3841249Y-7468529D02*
X3822201Y-7478053D01*
X3822201Y-7478053D02*
X3803153Y-7478053D01*
X3803153Y-7478053D02*
X3784106Y-7468529D01*
X3784106Y-7468529D02*
X3774582Y-7459005D01*
X3774582Y-7459005D02*
X3765058Y-7439957D01*
X3765058Y-7439957D02*
X3755534Y-7401862D01*
X3755534Y-7401862D02*
X3755534Y-7354243D01*
X3755534Y-7354243D02*
X3765058Y-7316148D01*
X3765058Y-7316148D02*
X3774582Y-7297100D01*
X3774582Y-7297100D02*
X3784106Y-7287577D01*
X3784106Y-7287577D02*
X3803153Y-7278053D01*
X3955534Y-7478053D02*
X3955534Y-7344719D01*
X3955534Y-7363767D02*
X3965058Y-7354243D01*
X3965058Y-7354243D02*
X3984106Y-7344719D01*
X3984106Y-7344719D02*
X4012677Y-7344719D01*
X4012677Y-7344719D02*
X4031725Y-7354243D01*
X4031725Y-7354243D02*
X4041249Y-7373291D01*
X4041249Y-7373291D02*
X4041249Y-7478053D01*
X4041249Y-7373291D02*
X4050773Y-7354243D01*
X4050773Y-7354243D02*
X4069820Y-7344719D01*
X4069820Y-7344719D02*
X4098392Y-7344719D01*
X4098392Y-7344719D02*
X4117439Y-7354243D01*
X4117439Y-7354243D02*
X4126963Y-7373291D01*
X4126963Y-7373291D02*
X4126963Y-7478053D01*
X4222201Y-7478053D02*
X4222201Y-7344719D01*
X4222201Y-7363767D02*
X4231725Y-7354243D01*
X4231725Y-7354243D02*
X4250773Y-7344719D01*
X4250773Y-7344719D02*
X4279344Y-7344719D01*
X4279344Y-7344719D02*
X4298392Y-7354243D01*
X4298392Y-7354243D02*
X4307916Y-7373291D01*
X4307916Y-7373291D02*
X4307916Y-7478053D01*
X4307916Y-7373291D02*
X4317439Y-7354243D01*
X4317439Y-7354243D02*
X4336487Y-7344719D01*
X4336487Y-7344719D02*
X4365058Y-7344719D01*
X4365058Y-7344719D02*
X4384106Y-7354243D01*
X4384106Y-7354243D02*
X4393630Y-7373291D01*
X4393630Y-7373291D02*
X4393630Y-7478053D01*
X4784106Y-7268529D02*
X4612678Y-7525672D01*
X5041249Y-7278053D02*
X5060297Y-7278053D01*
X5060297Y-7278053D02*
X5079344Y-7287577D01*
X5079344Y-7287577D02*
X5088868Y-7297100D01*
X5088868Y-7297100D02*
X5098392Y-7316148D01*
X5098392Y-7316148D02*
X5107916Y-7354243D01*
X5107916Y-7354243D02*
X5107916Y-7401862D01*
X5107916Y-7401862D02*
X5098392Y-7439957D01*
X5098392Y-7439957D02*
X5088868Y-7459005D01*
X5088868Y-7459005D02*
X5079344Y-7468529D01*
X5079344Y-7468529D02*
X5060297Y-7478053D01*
X5060297Y-7478053D02*
X5041249Y-7478053D01*
X5041249Y-7478053D02*
X5022201Y-7468529D01*
X5022201Y-7468529D02*
X5012678Y-7459005D01*
X5012678Y-7459005D02*
X5003154Y-7439957D01*
X5003154Y-7439957D02*
X4993630Y-7401862D01*
X4993630Y-7401862D02*
X4993630Y-7354243D01*
X4993630Y-7354243D02*
X5003154Y-7316148D01*
X5003154Y-7316148D02*
X5012678Y-7297100D01*
X5012678Y-7297100D02*
X5022201Y-7287577D01*
X5022201Y-7287577D02*
X5041249Y-7278053D01*
X5193630Y-7459005D02*
X5203154Y-7468529D01*
X5203154Y-7468529D02*
X5193630Y-7478053D01*
X5193630Y-7478053D02*
X5184106Y-7468529D01*
X5184106Y-7468529D02*
X5193630Y-7459005D01*
X5193630Y-7459005D02*
X5193630Y-7478053D01*
X5326963Y-7278053D02*
X5346011Y-7278053D01*
X5346011Y-7278053D02*
X5365059Y-7287577D01*
X5365059Y-7287577D02*
X5374582Y-7297100D01*
X5374582Y-7297100D02*
X5384106Y-7316148D01*
X5384106Y-7316148D02*
X5393630Y-7354243D01*
X5393630Y-7354243D02*
X5393630Y-7401862D01*
X5393630Y-7401862D02*
X5384106Y-7439957D01*
X5384106Y-7439957D02*
X5374582Y-7459005D01*
X5374582Y-7459005D02*
X5365059Y-7468529D01*
X5365059Y-7468529D02*
X5346011Y-7478053D01*
X5346011Y-7478053D02*
X5326963Y-7478053D01*
X5326963Y-7478053D02*
X5307916Y-7468529D01*
X5307916Y-7468529D02*
X5298392Y-7459005D01*
X5298392Y-7459005D02*
X5288868Y-7439957D01*
X5288868Y-7439957D02*
X5279344Y-7401862D01*
X5279344Y-7401862D02*
X5279344Y-7354243D01*
X5279344Y-7354243D02*
X5288868Y-7316148D01*
X5288868Y-7316148D02*
X5298392Y-7297100D01*
X5298392Y-7297100D02*
X5307916Y-7287577D01*
X5307916Y-7287577D02*
X5326963Y-7278053D01*
X5565059Y-7344719D02*
X5565059Y-7478053D01*
X5517439Y-7268529D02*
X5469820Y-7411386D01*
X5469820Y-7411386D02*
X5593630Y-7411386D01*
X5650773Y-7278053D02*
X5784106Y-7278053D01*
X5784106Y-7278053D02*
X5698392Y-7478053D01*
X5850773Y-7297100D02*
X5860297Y-7287577D01*
X5860297Y-7287577D02*
X5879344Y-7278053D01*
X5879344Y-7278053D02*
X5926963Y-7278053D01*
X5926963Y-7278053D02*
X5946011Y-7287577D01*
X5946011Y-7287577D02*
X5955535Y-7297100D01*
X5955535Y-7297100D02*
X5965058Y-7316148D01*
X5965058Y-7316148D02*
X5965058Y-7335196D01*
X5965058Y-7335196D02*
X5955535Y-7363767D01*
X5955535Y-7363767D02*
X5841249Y-7478053D01*
X5841249Y-7478053D02*
X5965058Y-7478053D01*
X6041249Y-7278053D02*
X6041249Y-7316148D01*
X6117439Y-7278053D02*
X6117439Y-7316148D01*
X6412678Y-7554243D02*
X6403154Y-7544719D01*
X6403154Y-7544719D02*
X6384106Y-7516148D01*
X6384106Y-7516148D02*
X6374582Y-7497100D01*
X6374582Y-7497100D02*
X6365059Y-7468529D01*
X6365059Y-7468529D02*
X6355535Y-7420910D01*
X6355535Y-7420910D02*
X6355535Y-7382815D01*
X6355535Y-7382815D02*
X6365059Y-7335196D01*
X6365059Y-7335196D02*
X6374582Y-7306624D01*
X6374582Y-7306624D02*
X6384106Y-7287577D01*
X6384106Y-7287577D02*
X6403154Y-7259005D01*
X6403154Y-7259005D02*
X6412678Y-7249481D01*
X6479344Y-7297100D02*
X6488868Y-7287577D01*
X6488868Y-7287577D02*
X6507916Y-7278053D01*
X6507916Y-7278053D02*
X6555535Y-7278053D01*
X6555535Y-7278053D02*
X6574582Y-7287577D01*
X6574582Y-7287577D02*
X6584106Y-7297100D01*
X6584106Y-7297100D02*
X6593630Y-7316148D01*
X6593630Y-7316148D02*
X6593630Y-7335196D01*
X6593630Y-7335196D02*
X6584106Y-7363767D01*
X6584106Y-7363767D02*
X6469820Y-7478053D01*
X6469820Y-7478053D02*
X6593630Y-7478053D01*
X6765059Y-7344719D02*
X6765059Y-7478053D01*
X6717439Y-7268529D02*
X6669820Y-7411386D01*
X6669820Y-7411386D02*
X6793630Y-7411386D01*
X7022201Y-7478053D02*
X7022201Y-7278053D01*
X7107916Y-7478053D02*
X7107916Y-7373291D01*
X7107916Y-7373291D02*
X7098392Y-7354243D01*
X7098392Y-7354243D02*
X7079344Y-7344719D01*
X7079344Y-7344719D02*
X7050773Y-7344719D01*
X7050773Y-7344719D02*
X7031725Y-7354243D01*
X7031725Y-7354243D02*
X7022201Y-7363767D01*
X7231725Y-7478053D02*
X7212678Y-7468529D01*
X7212678Y-7468529D02*
X7203154Y-7459005D01*
X7203154Y-7459005D02*
X7193630Y-7439957D01*
X7193630Y-7439957D02*
X7193630Y-7382815D01*
X7193630Y-7382815D02*
X7203154Y-7363767D01*
X7203154Y-7363767D02*
X7212678Y-7354243D01*
X7212678Y-7354243D02*
X7231725Y-7344719D01*
X7231725Y-7344719D02*
X7260297Y-7344719D01*
X7260297Y-7344719D02*
X7279344Y-7354243D01*
X7279344Y-7354243D02*
X7288868Y-7363767D01*
X7288868Y-7363767D02*
X7298392Y-7382815D01*
X7298392Y-7382815D02*
X7298392Y-7439957D01*
X7298392Y-7439957D02*
X7288868Y-7459005D01*
X7288868Y-7459005D02*
X7279344Y-7468529D01*
X7279344Y-7468529D02*
X7260297Y-7478053D01*
X7260297Y-7478053D02*
X7231725Y-7478053D01*
X7412678Y-7478053D02*
X7393630Y-7468529D01*
X7393630Y-7468529D02*
X7384106Y-7449481D01*
X7384106Y-7449481D02*
X7384106Y-7278053D01*
X7565059Y-7468529D02*
X7546011Y-7478053D01*
X7546011Y-7478053D02*
X7507916Y-7478053D01*
X7507916Y-7478053D02*
X7488868Y-7468529D01*
X7488868Y-7468529D02*
X7479344Y-7449481D01*
X7479344Y-7449481D02*
X7479344Y-7373291D01*
X7479344Y-7373291D02*
X7488868Y-7354243D01*
X7488868Y-7354243D02*
X7507916Y-7344719D01*
X7507916Y-7344719D02*
X7546011Y-7344719D01*
X7546011Y-7344719D02*
X7565059Y-7354243D01*
X7565059Y-7354243D02*
X7574582Y-7373291D01*
X7574582Y-7373291D02*
X7574582Y-7392338D01*
X7574582Y-7392338D02*
X7479344Y-7411386D01*
X7650773Y-7468529D02*
X7669821Y-7478053D01*
X7669821Y-7478053D02*
X7707916Y-7478053D01*
X7707916Y-7478053D02*
X7726963Y-7468529D01*
X7726963Y-7468529D02*
X7736487Y-7449481D01*
X7736487Y-7449481D02*
X7736487Y-7439957D01*
X7736487Y-7439957D02*
X7726963Y-7420910D01*
X7726963Y-7420910D02*
X7707916Y-7411386D01*
X7707916Y-7411386D02*
X7679344Y-7411386D01*
X7679344Y-7411386D02*
X7660297Y-7401862D01*
X7660297Y-7401862D02*
X7650773Y-7382815D01*
X7650773Y-7382815D02*
X7650773Y-7373291D01*
X7650773Y-7373291D02*
X7660297Y-7354243D01*
X7660297Y-7354243D02*
X7679344Y-7344719D01*
X7679344Y-7344719D02*
X7707916Y-7344719D01*
X7707916Y-7344719D02*
X7726963Y-7354243D01*
X7803154Y-7554243D02*
X7812678Y-7544719D01*
X7812678Y-7544719D02*
X7831725Y-7516148D01*
X7831725Y-7516148D02*
X7841249Y-7497100D01*
X7841249Y-7497100D02*
X7850773Y-7468529D01*
X7850773Y-7468529D02*
X7860297Y-7420910D01*
X7860297Y-7420910D02*
X7860297Y-7382815D01*
X7860297Y-7382815D02*
X7850773Y-7335196D01*
X7850773Y-7335196D02*
X7841249Y-7306624D01*
X7841249Y-7306624D02*
X7831725Y-7287577D01*
X7831725Y-7287577D02*
X7812678Y-7259005D01*
X7812678Y-7259005D02*
X7803154Y-7249481D01*
M02*
