M48
; DRILL file {KiCad 7.0.7} date Mon Sep  4 22:47:56 2023
; FORMAT={-:-/ absolute / inch / decimal}
; #@! TF.CreationDate,2023-09-04T22:47:56+10:00
; #@! TF.GenerationSoftware,Kicad,Pcbnew,7.0.7
; #@! TF.FileFunction,Plated,1,2,PTH
FMAT,2
INCH
; #@! TA.AperFunction,Plated,PTH,ViaDrill
T1C0.0157
; #@! TA.AperFunction,Plated,PTH,ComponentDrill
T2C0.0394
; #@! TA.AperFunction,Plated,PTH,ComponentDrill
T3C0.0472
%
G90
G05
T1
X1.395Y-1.865
X2.1062Y-1.8375
X2.8181Y-1.8198
X3.5276Y-1.8021
T2
X4.0635Y-1.166
X4.0635Y-1.266
X4.0635Y-1.366
X4.0635Y-1.466
X4.0635Y-1.566
X4.0635Y-1.666
X4.0635Y-1.766
X4.0635Y-1.866
X4.0635Y-1.966
X4.1635Y-1.966
X4.2635Y-1.966
X4.3635Y-1.966
X4.4635Y-1.966
X4.5635Y-1.966
X4.6635Y-1.166
X4.6635Y-1.266
X4.6635Y-1.366
X4.6635Y-1.466
X4.6635Y-1.566
X4.6635Y-1.666
X4.6635Y-1.766
X4.6635Y-1.866
X4.6635Y-1.966
T3
X1.2791Y-1.5879
X1.2791Y-2.2589
X1.476Y-1.6706
X1.476Y-2.3415
X1.6729Y-1.5879
X1.6729Y-2.2589
X1.9911Y-1.5879
X1.9911Y-2.2589
X2.1879Y-1.6706
X2.1879Y-2.3415
X2.3848Y-1.5879
X2.3848Y-2.2589
X2.703Y-1.5879
X2.703Y-2.2589
X2.8998Y-1.6706
X2.8998Y-2.3415
X3.0967Y-1.5879
X3.0967Y-2.2589
X3.4124Y-1.5879
X3.4124Y-2.2589
X3.6093Y-1.6706
X3.6093Y-2.3415
X3.8061Y-1.5879
X3.8061Y-2.2589
T2
G00X4.1585Y-2.196
M15
G01X4.1389Y-2.196
M16
G05
G00X4.1585Y-2.2895
M15
G01X4.1389Y-2.2895
M16
G05
G00X4.2176Y-2.1241
M15
G01X4.1979Y-2.1241
M16
G05
G00X4.2176Y-2.3613
M15
G01X4.1979Y-2.3613
M16
G05
G00X4.3751Y-2.1241
M15
G01X4.3554Y-2.1241
M16
G05
G00X4.3751Y-2.3613
M15
G01X4.3554Y-2.3613
M16
G05
G00X4.4932Y-2.1241
M15
G01X4.4735Y-2.1241
M16
G05
G00X4.4932Y-2.3613
M15
G01X4.4735Y-2.3613
M16
G05
T0
M30
