%TF.GenerationSoftware,KiCad,Pcbnew,7.0.7*%
%TF.CreationDate,2023-09-04T22:47:56+10:00*%
%TF.ProjectId,art,6172742e-6b69-4636-9164-5f7063625858,rev?*%
%TF.SameCoordinates,Original*%
%TF.FileFunction,Drillmap*%
%TF.FilePolarity,Positive*%
%FSLAX45Y45*%
G04 Gerber Fmt 4.5, Leading zero omitted, Abs format (unit mm)*
G04 Created by KiCad (PCBNEW 7.0.7) date 2023-09-04 22:47:56*
%MOMM*%
%LPD*%
G01*
G04 APERTURE LIST*
%ADD10C,0.100000*%
%ADD11C,0.200000*%
%ADD12C,0.120000*%
%ADD13C,0.170000*%
%ADD14C,0.340000*%
G04 APERTURE END LIST*
D10*
X2842615Y-5913569D02*
G75*
G03*
X3142615Y-6213569I300000J0D01*
G01*
X11807158Y-6213568D02*
G75*
G03*
X12107158Y-5913569I2J299998D01*
G01*
X11807158Y-6213569D02*
X3142615Y-6213569D01*
X3142615Y-2797966D02*
X11807158Y-2797966D01*
X12107154Y-3097966D02*
G75*
G03*
X11807158Y-2797966I-299994J6D01*
G01*
X2842615Y-5913569D02*
X2842615Y-3097966D01*
X12107158Y-3097966D02*
X12107158Y-5913569D01*
X3142615Y-2797966D02*
G75*
G03*
X2842615Y-3097966I1J-300001D01*
G01*
D11*
D12*
X10807686Y-5545208D02*
X10927686Y-5665208D01*
X10927686Y-5545208D02*
X10807686Y-5665208D01*
X10807686Y-5727768D02*
X10927686Y-5847768D01*
X10927686Y-5727768D02*
X10807686Y-5847768D01*
X11507686Y-5545208D02*
X11627686Y-5665208D01*
X11627686Y-5545208D02*
X11507686Y-5665208D01*
X11507686Y-5727768D02*
X11627686Y-5847768D01*
X11627686Y-5727768D02*
X11507686Y-5847768D01*
D13*
X3284039Y-3653239D02*
G75*
G03*
X3284039Y-3653239I-85000J0D01*
G01*
X3284039Y-5357500D02*
G75*
G03*
X3284039Y-5357500I-85000J0D01*
G01*
X4384039Y-3653239D02*
G75*
G03*
X4384039Y-3653239I-85000J0D01*
G01*
X4384039Y-5357500D02*
G75*
G03*
X4384039Y-5357500I-85000J0D01*
G01*
X5092300Y-3653239D02*
G75*
G03*
X5092300Y-3653239I-85000J0D01*
G01*
X5092300Y-5357500D02*
G75*
G03*
X5092300Y-5357500I-85000J0D01*
G01*
X6192300Y-3653239D02*
G75*
G03*
X6192300Y-3653239I-85000J0D01*
G01*
X6192300Y-5357500D02*
G75*
G03*
X6192300Y-5357500I-85000J0D01*
G01*
X6900560Y-3653239D02*
G75*
G03*
X6900560Y-3653239I-85000J0D01*
G01*
X6900560Y-5357500D02*
G75*
G03*
X6900560Y-5357500I-85000J0D01*
G01*
X8000560Y-3653239D02*
G75*
G03*
X8000560Y-3653239I-85000J0D01*
G01*
X8000560Y-5357500D02*
G75*
G03*
X8000560Y-5357500I-85000J0D01*
G01*
X8702500Y-3653239D02*
G75*
G03*
X8702500Y-3653239I-85000J0D01*
G01*
X8702500Y-5357500D02*
G75*
G03*
X8702500Y-5357500I-85000J0D01*
G01*
X9802500Y-3653239D02*
G75*
G03*
X9802500Y-3653239I-85000J0D01*
G01*
X9802500Y-5357500D02*
G75*
G03*
X9802500Y-5357500I-85000J0D01*
G01*
D14*
X3749039Y-3483239D02*
X3749039Y-3823239D01*
X3579039Y-3653239D02*
X3919039Y-3653239D01*
X3749039Y-5187500D02*
X3749039Y-5527500D01*
X3579039Y-5357500D02*
X3919039Y-5357500D01*
X5557300Y-3483239D02*
X5557300Y-3823239D01*
X5387300Y-3653239D02*
X5727300Y-3653239D01*
X5557300Y-5187500D02*
X5557300Y-5527500D01*
X5387300Y-5357500D02*
X5727300Y-5357500D01*
X7365560Y-3483239D02*
X7365560Y-3823239D01*
X7195560Y-3653239D02*
X7535560Y-3653239D01*
X7365560Y-5187500D02*
X7365560Y-5527500D01*
X7195560Y-5357500D02*
X7535560Y-5357500D01*
X9167500Y-3483239D02*
X9167500Y-3823239D01*
X8997500Y-3653239D02*
X9337500Y-3653239D01*
X9167500Y-5187500D02*
X9167500Y-5527500D01*
X8997500Y-5357500D02*
X9337500Y-5357500D01*
D11*
X3098392Y-6530053D02*
X3098392Y-6330053D01*
X3098392Y-6330053D02*
X3146011Y-6330053D01*
X3146011Y-6330053D02*
X3174582Y-6339577D01*
X3174582Y-6339577D02*
X3193630Y-6358624D01*
X3193630Y-6358624D02*
X3203153Y-6377672D01*
X3203153Y-6377672D02*
X3212677Y-6415767D01*
X3212677Y-6415767D02*
X3212677Y-6444338D01*
X3212677Y-6444338D02*
X3203153Y-6482434D01*
X3203153Y-6482434D02*
X3193630Y-6501481D01*
X3193630Y-6501481D02*
X3174582Y-6520529D01*
X3174582Y-6520529D02*
X3146011Y-6530053D01*
X3146011Y-6530053D02*
X3098392Y-6530053D01*
X3298392Y-6530053D02*
X3298392Y-6396719D01*
X3298392Y-6434815D02*
X3307915Y-6415767D01*
X3307915Y-6415767D02*
X3317439Y-6406243D01*
X3317439Y-6406243D02*
X3336487Y-6396719D01*
X3336487Y-6396719D02*
X3355534Y-6396719D01*
X3422201Y-6530053D02*
X3422201Y-6396719D01*
X3422201Y-6330053D02*
X3412677Y-6339577D01*
X3412677Y-6339577D02*
X3422201Y-6349100D01*
X3422201Y-6349100D02*
X3431725Y-6339577D01*
X3431725Y-6339577D02*
X3422201Y-6330053D01*
X3422201Y-6330053D02*
X3422201Y-6349100D01*
X3546011Y-6530053D02*
X3526963Y-6520529D01*
X3526963Y-6520529D02*
X3517439Y-6501481D01*
X3517439Y-6501481D02*
X3517439Y-6330053D01*
X3650772Y-6530053D02*
X3631725Y-6520529D01*
X3631725Y-6520529D02*
X3622201Y-6501481D01*
X3622201Y-6501481D02*
X3622201Y-6330053D01*
X3879344Y-6530053D02*
X3879344Y-6330053D01*
X3879344Y-6330053D02*
X3946011Y-6472910D01*
X3946011Y-6472910D02*
X4012677Y-6330053D01*
X4012677Y-6330053D02*
X4012677Y-6530053D01*
X4193630Y-6530053D02*
X4193630Y-6425291D01*
X4193630Y-6425291D02*
X4184106Y-6406243D01*
X4184106Y-6406243D02*
X4165058Y-6396719D01*
X4165058Y-6396719D02*
X4126963Y-6396719D01*
X4126963Y-6396719D02*
X4107915Y-6406243D01*
X4193630Y-6520529D02*
X4174582Y-6530053D01*
X4174582Y-6530053D02*
X4126963Y-6530053D01*
X4126963Y-6530053D02*
X4107915Y-6520529D01*
X4107915Y-6520529D02*
X4098392Y-6501481D01*
X4098392Y-6501481D02*
X4098392Y-6482434D01*
X4098392Y-6482434D02*
X4107915Y-6463386D01*
X4107915Y-6463386D02*
X4126963Y-6453862D01*
X4126963Y-6453862D02*
X4174582Y-6453862D01*
X4174582Y-6453862D02*
X4193630Y-6444338D01*
X4288868Y-6396719D02*
X4288868Y-6596719D01*
X4288868Y-6406243D02*
X4307915Y-6396719D01*
X4307915Y-6396719D02*
X4346011Y-6396719D01*
X4346011Y-6396719D02*
X4365058Y-6406243D01*
X4365058Y-6406243D02*
X4374582Y-6415767D01*
X4374582Y-6415767D02*
X4384106Y-6434815D01*
X4384106Y-6434815D02*
X4384106Y-6491957D01*
X4384106Y-6491957D02*
X4374582Y-6511005D01*
X4374582Y-6511005D02*
X4365058Y-6520529D01*
X4365058Y-6520529D02*
X4346011Y-6530053D01*
X4346011Y-6530053D02*
X4307915Y-6530053D01*
X4307915Y-6530053D02*
X4288868Y-6520529D01*
X4469820Y-6511005D02*
X4479344Y-6520529D01*
X4479344Y-6520529D02*
X4469820Y-6530053D01*
X4469820Y-6530053D02*
X4460296Y-6520529D01*
X4460296Y-6520529D02*
X4469820Y-6511005D01*
X4469820Y-6511005D02*
X4469820Y-6530053D01*
X4469820Y-6406243D02*
X4479344Y-6415767D01*
X4479344Y-6415767D02*
X4469820Y-6425291D01*
X4469820Y-6425291D02*
X4460296Y-6415767D01*
X4460296Y-6415767D02*
X4469820Y-6406243D01*
X4469820Y-6406243D02*
X4469820Y-6425291D01*
D12*
X2717615Y-6798569D02*
X2837615Y-6918569D01*
X2837615Y-6798569D02*
X2717615Y-6918569D01*
D11*
X3203153Y-6950053D02*
X3088868Y-6950053D01*
X3146011Y-6950053D02*
X3146011Y-6750053D01*
X3146011Y-6750053D02*
X3126963Y-6778624D01*
X3126963Y-6778624D02*
X3107915Y-6797672D01*
X3107915Y-6797672D02*
X3088868Y-6807196D01*
X3288868Y-6931005D02*
X3298392Y-6940529D01*
X3298392Y-6940529D02*
X3288868Y-6950053D01*
X3288868Y-6950053D02*
X3279344Y-6940529D01*
X3279344Y-6940529D02*
X3288868Y-6931005D01*
X3288868Y-6931005D02*
X3288868Y-6950053D01*
X3374582Y-6769100D02*
X3384106Y-6759577D01*
X3384106Y-6759577D02*
X3403153Y-6750053D01*
X3403153Y-6750053D02*
X3450773Y-6750053D01*
X3450773Y-6750053D02*
X3469820Y-6759577D01*
X3469820Y-6759577D02*
X3479344Y-6769100D01*
X3479344Y-6769100D02*
X3488868Y-6788148D01*
X3488868Y-6788148D02*
X3488868Y-6807196D01*
X3488868Y-6807196D02*
X3479344Y-6835767D01*
X3479344Y-6835767D02*
X3365058Y-6950053D01*
X3365058Y-6950053D02*
X3488868Y-6950053D01*
X3612677Y-6750053D02*
X3631725Y-6750053D01*
X3631725Y-6750053D02*
X3650773Y-6759577D01*
X3650773Y-6759577D02*
X3660296Y-6769100D01*
X3660296Y-6769100D02*
X3669820Y-6788148D01*
X3669820Y-6788148D02*
X3679344Y-6826243D01*
X3679344Y-6826243D02*
X3679344Y-6873862D01*
X3679344Y-6873862D02*
X3669820Y-6911957D01*
X3669820Y-6911957D02*
X3660296Y-6931005D01*
X3660296Y-6931005D02*
X3650773Y-6940529D01*
X3650773Y-6940529D02*
X3631725Y-6950053D01*
X3631725Y-6950053D02*
X3612677Y-6950053D01*
X3612677Y-6950053D02*
X3593630Y-6940529D01*
X3593630Y-6940529D02*
X3584106Y-6931005D01*
X3584106Y-6931005D02*
X3574582Y-6911957D01*
X3574582Y-6911957D02*
X3565058Y-6873862D01*
X3565058Y-6873862D02*
X3565058Y-6826243D01*
X3565058Y-6826243D02*
X3574582Y-6788148D01*
X3574582Y-6788148D02*
X3584106Y-6769100D01*
X3584106Y-6769100D02*
X3593630Y-6759577D01*
X3593630Y-6759577D02*
X3612677Y-6750053D01*
X3803153Y-6750053D02*
X3822201Y-6750053D01*
X3822201Y-6750053D02*
X3841249Y-6759577D01*
X3841249Y-6759577D02*
X3850773Y-6769100D01*
X3850773Y-6769100D02*
X3860296Y-6788148D01*
X3860296Y-6788148D02*
X3869820Y-6826243D01*
X3869820Y-6826243D02*
X3869820Y-6873862D01*
X3869820Y-6873862D02*
X3860296Y-6911957D01*
X3860296Y-6911957D02*
X3850773Y-6931005D01*
X3850773Y-6931005D02*
X3841249Y-6940529D01*
X3841249Y-6940529D02*
X3822201Y-6950053D01*
X3822201Y-6950053D02*
X3803153Y-6950053D01*
X3803153Y-6950053D02*
X3784106Y-6940529D01*
X3784106Y-6940529D02*
X3774582Y-6931005D01*
X3774582Y-6931005D02*
X3765058Y-6911957D01*
X3765058Y-6911957D02*
X3755534Y-6873862D01*
X3755534Y-6873862D02*
X3755534Y-6826243D01*
X3755534Y-6826243D02*
X3765058Y-6788148D01*
X3765058Y-6788148D02*
X3774582Y-6769100D01*
X3774582Y-6769100D02*
X3784106Y-6759577D01*
X3784106Y-6759577D02*
X3803153Y-6750053D01*
X3955534Y-6950053D02*
X3955534Y-6816719D01*
X3955534Y-6835767D02*
X3965058Y-6826243D01*
X3965058Y-6826243D02*
X3984106Y-6816719D01*
X3984106Y-6816719D02*
X4012677Y-6816719D01*
X4012677Y-6816719D02*
X4031725Y-6826243D01*
X4031725Y-6826243D02*
X4041249Y-6845291D01*
X4041249Y-6845291D02*
X4041249Y-6950053D01*
X4041249Y-6845291D02*
X4050773Y-6826243D01*
X4050773Y-6826243D02*
X4069820Y-6816719D01*
X4069820Y-6816719D02*
X4098392Y-6816719D01*
X4098392Y-6816719D02*
X4117439Y-6826243D01*
X4117439Y-6826243D02*
X4126963Y-6845291D01*
X4126963Y-6845291D02*
X4126963Y-6950053D01*
X4222201Y-6950053D02*
X4222201Y-6816719D01*
X4222201Y-6835767D02*
X4231725Y-6826243D01*
X4231725Y-6826243D02*
X4250773Y-6816719D01*
X4250773Y-6816719D02*
X4279344Y-6816719D01*
X4279344Y-6816719D02*
X4298392Y-6826243D01*
X4298392Y-6826243D02*
X4307916Y-6845291D01*
X4307916Y-6845291D02*
X4307916Y-6950053D01*
X4307916Y-6845291D02*
X4317439Y-6826243D01*
X4317439Y-6826243D02*
X4336487Y-6816719D01*
X4336487Y-6816719D02*
X4365058Y-6816719D01*
X4365058Y-6816719D02*
X4384106Y-6826243D01*
X4384106Y-6826243D02*
X4393630Y-6845291D01*
X4393630Y-6845291D02*
X4393630Y-6950053D01*
X4784106Y-6740529D02*
X4612678Y-6997672D01*
X5041249Y-6750053D02*
X5060297Y-6750053D01*
X5060297Y-6750053D02*
X5079344Y-6759577D01*
X5079344Y-6759577D02*
X5088868Y-6769100D01*
X5088868Y-6769100D02*
X5098392Y-6788148D01*
X5098392Y-6788148D02*
X5107916Y-6826243D01*
X5107916Y-6826243D02*
X5107916Y-6873862D01*
X5107916Y-6873862D02*
X5098392Y-6911957D01*
X5098392Y-6911957D02*
X5088868Y-6931005D01*
X5088868Y-6931005D02*
X5079344Y-6940529D01*
X5079344Y-6940529D02*
X5060297Y-6950053D01*
X5060297Y-6950053D02*
X5041249Y-6950053D01*
X5041249Y-6950053D02*
X5022201Y-6940529D01*
X5022201Y-6940529D02*
X5012678Y-6931005D01*
X5012678Y-6931005D02*
X5003154Y-6911957D01*
X5003154Y-6911957D02*
X4993630Y-6873862D01*
X4993630Y-6873862D02*
X4993630Y-6826243D01*
X4993630Y-6826243D02*
X5003154Y-6788148D01*
X5003154Y-6788148D02*
X5012678Y-6769100D01*
X5012678Y-6769100D02*
X5022201Y-6759577D01*
X5022201Y-6759577D02*
X5041249Y-6750053D01*
X5193630Y-6931005D02*
X5203154Y-6940529D01*
X5203154Y-6940529D02*
X5193630Y-6950053D01*
X5193630Y-6950053D02*
X5184106Y-6940529D01*
X5184106Y-6940529D02*
X5193630Y-6931005D01*
X5193630Y-6931005D02*
X5193630Y-6950053D01*
X5326963Y-6750053D02*
X5346011Y-6750053D01*
X5346011Y-6750053D02*
X5365059Y-6759577D01*
X5365059Y-6759577D02*
X5374582Y-6769100D01*
X5374582Y-6769100D02*
X5384106Y-6788148D01*
X5384106Y-6788148D02*
X5393630Y-6826243D01*
X5393630Y-6826243D02*
X5393630Y-6873862D01*
X5393630Y-6873862D02*
X5384106Y-6911957D01*
X5384106Y-6911957D02*
X5374582Y-6931005D01*
X5374582Y-6931005D02*
X5365059Y-6940529D01*
X5365059Y-6940529D02*
X5346011Y-6950053D01*
X5346011Y-6950053D02*
X5326963Y-6950053D01*
X5326963Y-6950053D02*
X5307916Y-6940529D01*
X5307916Y-6940529D02*
X5298392Y-6931005D01*
X5298392Y-6931005D02*
X5288868Y-6911957D01*
X5288868Y-6911957D02*
X5279344Y-6873862D01*
X5279344Y-6873862D02*
X5279344Y-6826243D01*
X5279344Y-6826243D02*
X5288868Y-6788148D01*
X5288868Y-6788148D02*
X5298392Y-6769100D01*
X5298392Y-6769100D02*
X5307916Y-6759577D01*
X5307916Y-6759577D02*
X5326963Y-6750053D01*
X5565059Y-6816719D02*
X5565059Y-6950053D01*
X5517439Y-6740529D02*
X5469820Y-6883386D01*
X5469820Y-6883386D02*
X5593630Y-6883386D01*
X5650773Y-6750053D02*
X5784106Y-6750053D01*
X5784106Y-6750053D02*
X5698392Y-6950053D01*
X5850773Y-6769100D02*
X5860297Y-6759577D01*
X5860297Y-6759577D02*
X5879344Y-6750053D01*
X5879344Y-6750053D02*
X5926963Y-6750053D01*
X5926963Y-6750053D02*
X5946011Y-6759577D01*
X5946011Y-6759577D02*
X5955535Y-6769100D01*
X5955535Y-6769100D02*
X5965058Y-6788148D01*
X5965058Y-6788148D02*
X5965058Y-6807196D01*
X5965058Y-6807196D02*
X5955535Y-6835767D01*
X5955535Y-6835767D02*
X5841249Y-6950053D01*
X5841249Y-6950053D02*
X5965058Y-6950053D01*
X6041249Y-6750053D02*
X6041249Y-6788148D01*
X6117439Y-6750053D02*
X6117439Y-6788148D01*
X6412678Y-7026243D02*
X6403154Y-7016719D01*
X6403154Y-7016719D02*
X6384106Y-6988148D01*
X6384106Y-6988148D02*
X6374582Y-6969100D01*
X6374582Y-6969100D02*
X6365059Y-6940529D01*
X6365059Y-6940529D02*
X6355535Y-6892910D01*
X6355535Y-6892910D02*
X6355535Y-6854815D01*
X6355535Y-6854815D02*
X6365059Y-6807196D01*
X6365059Y-6807196D02*
X6374582Y-6778624D01*
X6374582Y-6778624D02*
X6384106Y-6759577D01*
X6384106Y-6759577D02*
X6403154Y-6731005D01*
X6403154Y-6731005D02*
X6412678Y-6721481D01*
X6574582Y-6816719D02*
X6574582Y-6950053D01*
X6526963Y-6740529D02*
X6479344Y-6883386D01*
X6479344Y-6883386D02*
X6603154Y-6883386D01*
X6831725Y-6950053D02*
X6831725Y-6750053D01*
X6917440Y-6950053D02*
X6917440Y-6845291D01*
X6917440Y-6845291D02*
X6907916Y-6826243D01*
X6907916Y-6826243D02*
X6888868Y-6816719D01*
X6888868Y-6816719D02*
X6860297Y-6816719D01*
X6860297Y-6816719D02*
X6841249Y-6826243D01*
X6841249Y-6826243D02*
X6831725Y-6835767D01*
X7041249Y-6950053D02*
X7022201Y-6940529D01*
X7022201Y-6940529D02*
X7012678Y-6931005D01*
X7012678Y-6931005D02*
X7003154Y-6911957D01*
X7003154Y-6911957D02*
X7003154Y-6854815D01*
X7003154Y-6854815D02*
X7012678Y-6835767D01*
X7012678Y-6835767D02*
X7022201Y-6826243D01*
X7022201Y-6826243D02*
X7041249Y-6816719D01*
X7041249Y-6816719D02*
X7069821Y-6816719D01*
X7069821Y-6816719D02*
X7088868Y-6826243D01*
X7088868Y-6826243D02*
X7098392Y-6835767D01*
X7098392Y-6835767D02*
X7107916Y-6854815D01*
X7107916Y-6854815D02*
X7107916Y-6911957D01*
X7107916Y-6911957D02*
X7098392Y-6931005D01*
X7098392Y-6931005D02*
X7088868Y-6940529D01*
X7088868Y-6940529D02*
X7069821Y-6950053D01*
X7069821Y-6950053D02*
X7041249Y-6950053D01*
X7222201Y-6950053D02*
X7203154Y-6940529D01*
X7203154Y-6940529D02*
X7193630Y-6921481D01*
X7193630Y-6921481D02*
X7193630Y-6750053D01*
X7374582Y-6940529D02*
X7355535Y-6950053D01*
X7355535Y-6950053D02*
X7317440Y-6950053D01*
X7317440Y-6950053D02*
X7298392Y-6940529D01*
X7298392Y-6940529D02*
X7288868Y-6921481D01*
X7288868Y-6921481D02*
X7288868Y-6845291D01*
X7288868Y-6845291D02*
X7298392Y-6826243D01*
X7298392Y-6826243D02*
X7317440Y-6816719D01*
X7317440Y-6816719D02*
X7355535Y-6816719D01*
X7355535Y-6816719D02*
X7374582Y-6826243D01*
X7374582Y-6826243D02*
X7384106Y-6845291D01*
X7384106Y-6845291D02*
X7384106Y-6864338D01*
X7384106Y-6864338D02*
X7288868Y-6883386D01*
X7460297Y-6940529D02*
X7479344Y-6950053D01*
X7479344Y-6950053D02*
X7517440Y-6950053D01*
X7517440Y-6950053D02*
X7536487Y-6940529D01*
X7536487Y-6940529D02*
X7546011Y-6921481D01*
X7546011Y-6921481D02*
X7546011Y-6911957D01*
X7546011Y-6911957D02*
X7536487Y-6892910D01*
X7536487Y-6892910D02*
X7517440Y-6883386D01*
X7517440Y-6883386D02*
X7488868Y-6883386D01*
X7488868Y-6883386D02*
X7469821Y-6873862D01*
X7469821Y-6873862D02*
X7460297Y-6854815D01*
X7460297Y-6854815D02*
X7460297Y-6845291D01*
X7460297Y-6845291D02*
X7469821Y-6826243D01*
X7469821Y-6826243D02*
X7488868Y-6816719D01*
X7488868Y-6816719D02*
X7517440Y-6816719D01*
X7517440Y-6816719D02*
X7536487Y-6826243D01*
X7612678Y-7026243D02*
X7622202Y-7016719D01*
X7622202Y-7016719D02*
X7641249Y-6988148D01*
X7641249Y-6988148D02*
X7650773Y-6969100D01*
X7650773Y-6969100D02*
X7660297Y-6940529D01*
X7660297Y-6940529D02*
X7669821Y-6892910D01*
X7669821Y-6892910D02*
X7669821Y-6854815D01*
X7669821Y-6854815D02*
X7660297Y-6807196D01*
X7660297Y-6807196D02*
X7650773Y-6778624D01*
X7650773Y-6778624D02*
X7641249Y-6759577D01*
X7641249Y-6759577D02*
X7622202Y-6731005D01*
X7622202Y-6731005D02*
X7612678Y-6721481D01*
X7974583Y-7026243D02*
X7965059Y-7016719D01*
X7965059Y-7016719D02*
X7946011Y-6988148D01*
X7946011Y-6988148D02*
X7936487Y-6969100D01*
X7936487Y-6969100D02*
X7926963Y-6940529D01*
X7926963Y-6940529D02*
X7917440Y-6892910D01*
X7917440Y-6892910D02*
X7917440Y-6854815D01*
X7917440Y-6854815D02*
X7926963Y-6807196D01*
X7926963Y-6807196D02*
X7936487Y-6778624D01*
X7936487Y-6778624D02*
X7946011Y-6759577D01*
X7946011Y-6759577D02*
X7965059Y-6731005D01*
X7965059Y-6731005D02*
X7974583Y-6721481D01*
X8050773Y-6816719D02*
X8050773Y-6950053D01*
X8050773Y-6835767D02*
X8060297Y-6826243D01*
X8060297Y-6826243D02*
X8079344Y-6816719D01*
X8079344Y-6816719D02*
X8107916Y-6816719D01*
X8107916Y-6816719D02*
X8126963Y-6826243D01*
X8126963Y-6826243D02*
X8136487Y-6845291D01*
X8136487Y-6845291D02*
X8136487Y-6950053D01*
X8260297Y-6950053D02*
X8241249Y-6940529D01*
X8241249Y-6940529D02*
X8231725Y-6931005D01*
X8231725Y-6931005D02*
X8222202Y-6911957D01*
X8222202Y-6911957D02*
X8222202Y-6854815D01*
X8222202Y-6854815D02*
X8231725Y-6835767D01*
X8231725Y-6835767D02*
X8241249Y-6826243D01*
X8241249Y-6826243D02*
X8260297Y-6816719D01*
X8260297Y-6816719D02*
X8288868Y-6816719D01*
X8288868Y-6816719D02*
X8307916Y-6826243D01*
X8307916Y-6826243D02*
X8317440Y-6835767D01*
X8317440Y-6835767D02*
X8326963Y-6854815D01*
X8326963Y-6854815D02*
X8326963Y-6911957D01*
X8326963Y-6911957D02*
X8317440Y-6931005D01*
X8317440Y-6931005D02*
X8307916Y-6940529D01*
X8307916Y-6940529D02*
X8288868Y-6950053D01*
X8288868Y-6950053D02*
X8260297Y-6950053D01*
X8384106Y-6816719D02*
X8460297Y-6816719D01*
X8412678Y-6750053D02*
X8412678Y-6921481D01*
X8412678Y-6921481D02*
X8422202Y-6940529D01*
X8422202Y-6940529D02*
X8441249Y-6950053D01*
X8441249Y-6950053D02*
X8460297Y-6950053D01*
X8679345Y-6816719D02*
X8679345Y-7016719D01*
X8679345Y-6826243D02*
X8698392Y-6816719D01*
X8698392Y-6816719D02*
X8736487Y-6816719D01*
X8736487Y-6816719D02*
X8755535Y-6826243D01*
X8755535Y-6826243D02*
X8765059Y-6835767D01*
X8765059Y-6835767D02*
X8774583Y-6854815D01*
X8774583Y-6854815D02*
X8774583Y-6911957D01*
X8774583Y-6911957D02*
X8765059Y-6931005D01*
X8765059Y-6931005D02*
X8755535Y-6940529D01*
X8755535Y-6940529D02*
X8736487Y-6950053D01*
X8736487Y-6950053D02*
X8698392Y-6950053D01*
X8698392Y-6950053D02*
X8679345Y-6940529D01*
X8888868Y-6950053D02*
X8869821Y-6940529D01*
X8869821Y-6940529D02*
X8860297Y-6921481D01*
X8860297Y-6921481D02*
X8860297Y-6750053D01*
X9050773Y-6950053D02*
X9050773Y-6845291D01*
X9050773Y-6845291D02*
X9041249Y-6826243D01*
X9041249Y-6826243D02*
X9022202Y-6816719D01*
X9022202Y-6816719D02*
X8984106Y-6816719D01*
X8984106Y-6816719D02*
X8965059Y-6826243D01*
X9050773Y-6940529D02*
X9031726Y-6950053D01*
X9031726Y-6950053D02*
X8984106Y-6950053D01*
X8984106Y-6950053D02*
X8965059Y-6940529D01*
X8965059Y-6940529D02*
X8955535Y-6921481D01*
X8955535Y-6921481D02*
X8955535Y-6902434D01*
X8955535Y-6902434D02*
X8965059Y-6883386D01*
X8965059Y-6883386D02*
X8984106Y-6873862D01*
X8984106Y-6873862D02*
X9031726Y-6873862D01*
X9031726Y-6873862D02*
X9050773Y-6864338D01*
X9117440Y-6816719D02*
X9193630Y-6816719D01*
X9146011Y-6750053D02*
X9146011Y-6921481D01*
X9146011Y-6921481D02*
X9155535Y-6940529D01*
X9155535Y-6940529D02*
X9174583Y-6950053D01*
X9174583Y-6950053D02*
X9193630Y-6950053D01*
X9336487Y-6940529D02*
X9317440Y-6950053D01*
X9317440Y-6950053D02*
X9279345Y-6950053D01*
X9279345Y-6950053D02*
X9260297Y-6940529D01*
X9260297Y-6940529D02*
X9250773Y-6921481D01*
X9250773Y-6921481D02*
X9250773Y-6845291D01*
X9250773Y-6845291D02*
X9260297Y-6826243D01*
X9260297Y-6826243D02*
X9279345Y-6816719D01*
X9279345Y-6816719D02*
X9317440Y-6816719D01*
X9317440Y-6816719D02*
X9336487Y-6826243D01*
X9336487Y-6826243D02*
X9346011Y-6845291D01*
X9346011Y-6845291D02*
X9346011Y-6864338D01*
X9346011Y-6864338D02*
X9250773Y-6883386D01*
X9517440Y-6950053D02*
X9517440Y-6750053D01*
X9517440Y-6940529D02*
X9498392Y-6950053D01*
X9498392Y-6950053D02*
X9460297Y-6950053D01*
X9460297Y-6950053D02*
X9441249Y-6940529D01*
X9441249Y-6940529D02*
X9431726Y-6931005D01*
X9431726Y-6931005D02*
X9422202Y-6911957D01*
X9422202Y-6911957D02*
X9422202Y-6854815D01*
X9422202Y-6854815D02*
X9431726Y-6835767D01*
X9431726Y-6835767D02*
X9441249Y-6826243D01*
X9441249Y-6826243D02*
X9460297Y-6816719D01*
X9460297Y-6816719D02*
X9498392Y-6816719D01*
X9498392Y-6816719D02*
X9517440Y-6826243D01*
X9593630Y-7026243D02*
X9603154Y-7016719D01*
X9603154Y-7016719D02*
X9622202Y-6988148D01*
X9622202Y-6988148D02*
X9631726Y-6969100D01*
X9631726Y-6969100D02*
X9641249Y-6940529D01*
X9641249Y-6940529D02*
X9650773Y-6892910D01*
X9650773Y-6892910D02*
X9650773Y-6854815D01*
X9650773Y-6854815D02*
X9641249Y-6807196D01*
X9641249Y-6807196D02*
X9631726Y-6778624D01*
X9631726Y-6778624D02*
X9622202Y-6759577D01*
X9622202Y-6759577D02*
X9603154Y-6731005D01*
X9603154Y-6731005D02*
X9593630Y-6721481D01*
D13*
X2837615Y-7122569D02*
G75*
G03*
X2837615Y-7122569I-85000J0D01*
G01*
D11*
X3203153Y-7214053D02*
X3088868Y-7214053D01*
X3146011Y-7214053D02*
X3146011Y-7014053D01*
X3146011Y-7014053D02*
X3126963Y-7042624D01*
X3126963Y-7042624D02*
X3107915Y-7061672D01*
X3107915Y-7061672D02*
X3088868Y-7071196D01*
X3288868Y-7195005D02*
X3298392Y-7204529D01*
X3298392Y-7204529D02*
X3288868Y-7214053D01*
X3288868Y-7214053D02*
X3279344Y-7204529D01*
X3279344Y-7204529D02*
X3288868Y-7195005D01*
X3288868Y-7195005D02*
X3288868Y-7214053D01*
X3365058Y-7014053D02*
X3498392Y-7014053D01*
X3498392Y-7014053D02*
X3412677Y-7214053D01*
X3612677Y-7014053D02*
X3631725Y-7014053D01*
X3631725Y-7014053D02*
X3650773Y-7023577D01*
X3650773Y-7023577D02*
X3660296Y-7033100D01*
X3660296Y-7033100D02*
X3669820Y-7052148D01*
X3669820Y-7052148D02*
X3679344Y-7090243D01*
X3679344Y-7090243D02*
X3679344Y-7137862D01*
X3679344Y-7137862D02*
X3669820Y-7175957D01*
X3669820Y-7175957D02*
X3660296Y-7195005D01*
X3660296Y-7195005D02*
X3650773Y-7204529D01*
X3650773Y-7204529D02*
X3631725Y-7214053D01*
X3631725Y-7214053D02*
X3612677Y-7214053D01*
X3612677Y-7214053D02*
X3593630Y-7204529D01*
X3593630Y-7204529D02*
X3584106Y-7195005D01*
X3584106Y-7195005D02*
X3574582Y-7175957D01*
X3574582Y-7175957D02*
X3565058Y-7137862D01*
X3565058Y-7137862D02*
X3565058Y-7090243D01*
X3565058Y-7090243D02*
X3574582Y-7052148D01*
X3574582Y-7052148D02*
X3584106Y-7033100D01*
X3584106Y-7033100D02*
X3593630Y-7023577D01*
X3593630Y-7023577D02*
X3612677Y-7014053D01*
X3803153Y-7014053D02*
X3822201Y-7014053D01*
X3822201Y-7014053D02*
X3841249Y-7023577D01*
X3841249Y-7023577D02*
X3850773Y-7033100D01*
X3850773Y-7033100D02*
X3860296Y-7052148D01*
X3860296Y-7052148D02*
X3869820Y-7090243D01*
X3869820Y-7090243D02*
X3869820Y-7137862D01*
X3869820Y-7137862D02*
X3860296Y-7175957D01*
X3860296Y-7175957D02*
X3850773Y-7195005D01*
X3850773Y-7195005D02*
X3841249Y-7204529D01*
X3841249Y-7204529D02*
X3822201Y-7214053D01*
X3822201Y-7214053D02*
X3803153Y-7214053D01*
X3803153Y-7214053D02*
X3784106Y-7204529D01*
X3784106Y-7204529D02*
X3774582Y-7195005D01*
X3774582Y-7195005D02*
X3765058Y-7175957D01*
X3765058Y-7175957D02*
X3755534Y-7137862D01*
X3755534Y-7137862D02*
X3755534Y-7090243D01*
X3755534Y-7090243D02*
X3765058Y-7052148D01*
X3765058Y-7052148D02*
X3774582Y-7033100D01*
X3774582Y-7033100D02*
X3784106Y-7023577D01*
X3784106Y-7023577D02*
X3803153Y-7014053D01*
X3955534Y-7214053D02*
X3955534Y-7080719D01*
X3955534Y-7099767D02*
X3965058Y-7090243D01*
X3965058Y-7090243D02*
X3984106Y-7080719D01*
X3984106Y-7080719D02*
X4012677Y-7080719D01*
X4012677Y-7080719D02*
X4031725Y-7090243D01*
X4031725Y-7090243D02*
X4041249Y-7109291D01*
X4041249Y-7109291D02*
X4041249Y-7214053D01*
X4041249Y-7109291D02*
X4050773Y-7090243D01*
X4050773Y-7090243D02*
X4069820Y-7080719D01*
X4069820Y-7080719D02*
X4098392Y-7080719D01*
X4098392Y-7080719D02*
X4117439Y-7090243D01*
X4117439Y-7090243D02*
X4126963Y-7109291D01*
X4126963Y-7109291D02*
X4126963Y-7214053D01*
X4222201Y-7214053D02*
X4222201Y-7080719D01*
X4222201Y-7099767D02*
X4231725Y-7090243D01*
X4231725Y-7090243D02*
X4250773Y-7080719D01*
X4250773Y-7080719D02*
X4279344Y-7080719D01*
X4279344Y-7080719D02*
X4298392Y-7090243D01*
X4298392Y-7090243D02*
X4307916Y-7109291D01*
X4307916Y-7109291D02*
X4307916Y-7214053D01*
X4307916Y-7109291D02*
X4317439Y-7090243D01*
X4317439Y-7090243D02*
X4336487Y-7080719D01*
X4336487Y-7080719D02*
X4365058Y-7080719D01*
X4365058Y-7080719D02*
X4384106Y-7090243D01*
X4384106Y-7090243D02*
X4393630Y-7109291D01*
X4393630Y-7109291D02*
X4393630Y-7214053D01*
X4784106Y-7004529D02*
X4612678Y-7261672D01*
X5041249Y-7014053D02*
X5060297Y-7014053D01*
X5060297Y-7014053D02*
X5079344Y-7023577D01*
X5079344Y-7023577D02*
X5088868Y-7033100D01*
X5088868Y-7033100D02*
X5098392Y-7052148D01*
X5098392Y-7052148D02*
X5107916Y-7090243D01*
X5107916Y-7090243D02*
X5107916Y-7137862D01*
X5107916Y-7137862D02*
X5098392Y-7175957D01*
X5098392Y-7175957D02*
X5088868Y-7195005D01*
X5088868Y-7195005D02*
X5079344Y-7204529D01*
X5079344Y-7204529D02*
X5060297Y-7214053D01*
X5060297Y-7214053D02*
X5041249Y-7214053D01*
X5041249Y-7214053D02*
X5022201Y-7204529D01*
X5022201Y-7204529D02*
X5012678Y-7195005D01*
X5012678Y-7195005D02*
X5003154Y-7175957D01*
X5003154Y-7175957D02*
X4993630Y-7137862D01*
X4993630Y-7137862D02*
X4993630Y-7090243D01*
X4993630Y-7090243D02*
X5003154Y-7052148D01*
X5003154Y-7052148D02*
X5012678Y-7033100D01*
X5012678Y-7033100D02*
X5022201Y-7023577D01*
X5022201Y-7023577D02*
X5041249Y-7014053D01*
X5193630Y-7195005D02*
X5203154Y-7204529D01*
X5203154Y-7204529D02*
X5193630Y-7214053D01*
X5193630Y-7214053D02*
X5184106Y-7204529D01*
X5184106Y-7204529D02*
X5193630Y-7195005D01*
X5193630Y-7195005D02*
X5193630Y-7214053D01*
X5326963Y-7014053D02*
X5346011Y-7014053D01*
X5346011Y-7014053D02*
X5365059Y-7023577D01*
X5365059Y-7023577D02*
X5374582Y-7033100D01*
X5374582Y-7033100D02*
X5384106Y-7052148D01*
X5384106Y-7052148D02*
X5393630Y-7090243D01*
X5393630Y-7090243D02*
X5393630Y-7137862D01*
X5393630Y-7137862D02*
X5384106Y-7175957D01*
X5384106Y-7175957D02*
X5374582Y-7195005D01*
X5374582Y-7195005D02*
X5365059Y-7204529D01*
X5365059Y-7204529D02*
X5346011Y-7214053D01*
X5346011Y-7214053D02*
X5326963Y-7214053D01*
X5326963Y-7214053D02*
X5307916Y-7204529D01*
X5307916Y-7204529D02*
X5298392Y-7195005D01*
X5298392Y-7195005D02*
X5288868Y-7175957D01*
X5288868Y-7175957D02*
X5279344Y-7137862D01*
X5279344Y-7137862D02*
X5279344Y-7090243D01*
X5279344Y-7090243D02*
X5288868Y-7052148D01*
X5288868Y-7052148D02*
X5298392Y-7033100D01*
X5298392Y-7033100D02*
X5307916Y-7023577D01*
X5307916Y-7023577D02*
X5326963Y-7014053D01*
X5565059Y-7014053D02*
X5526963Y-7014053D01*
X5526963Y-7014053D02*
X5507916Y-7023577D01*
X5507916Y-7023577D02*
X5498392Y-7033100D01*
X5498392Y-7033100D02*
X5479344Y-7061672D01*
X5479344Y-7061672D02*
X5469820Y-7099767D01*
X5469820Y-7099767D02*
X5469820Y-7175957D01*
X5469820Y-7175957D02*
X5479344Y-7195005D01*
X5479344Y-7195005D02*
X5488868Y-7204529D01*
X5488868Y-7204529D02*
X5507916Y-7214053D01*
X5507916Y-7214053D02*
X5546011Y-7214053D01*
X5546011Y-7214053D02*
X5565059Y-7204529D01*
X5565059Y-7204529D02*
X5574582Y-7195005D01*
X5574582Y-7195005D02*
X5584106Y-7175957D01*
X5584106Y-7175957D02*
X5584106Y-7128338D01*
X5584106Y-7128338D02*
X5574582Y-7109291D01*
X5574582Y-7109291D02*
X5565059Y-7099767D01*
X5565059Y-7099767D02*
X5546011Y-7090243D01*
X5546011Y-7090243D02*
X5507916Y-7090243D01*
X5507916Y-7090243D02*
X5488868Y-7099767D01*
X5488868Y-7099767D02*
X5479344Y-7109291D01*
X5479344Y-7109291D02*
X5469820Y-7128338D01*
X5755535Y-7014053D02*
X5717439Y-7014053D01*
X5717439Y-7014053D02*
X5698392Y-7023577D01*
X5698392Y-7023577D02*
X5688868Y-7033100D01*
X5688868Y-7033100D02*
X5669820Y-7061672D01*
X5669820Y-7061672D02*
X5660297Y-7099767D01*
X5660297Y-7099767D02*
X5660297Y-7175957D01*
X5660297Y-7175957D02*
X5669820Y-7195005D01*
X5669820Y-7195005D02*
X5679344Y-7204529D01*
X5679344Y-7204529D02*
X5698392Y-7214053D01*
X5698392Y-7214053D02*
X5736487Y-7214053D01*
X5736487Y-7214053D02*
X5755535Y-7204529D01*
X5755535Y-7204529D02*
X5765058Y-7195005D01*
X5765058Y-7195005D02*
X5774582Y-7175957D01*
X5774582Y-7175957D02*
X5774582Y-7128338D01*
X5774582Y-7128338D02*
X5765058Y-7109291D01*
X5765058Y-7109291D02*
X5755535Y-7099767D01*
X5755535Y-7099767D02*
X5736487Y-7090243D01*
X5736487Y-7090243D02*
X5698392Y-7090243D01*
X5698392Y-7090243D02*
X5679344Y-7099767D01*
X5679344Y-7099767D02*
X5669820Y-7109291D01*
X5669820Y-7109291D02*
X5660297Y-7128338D01*
X5869820Y-7214053D02*
X5907916Y-7214053D01*
X5907916Y-7214053D02*
X5926963Y-7204529D01*
X5926963Y-7204529D02*
X5936487Y-7195005D01*
X5936487Y-7195005D02*
X5955535Y-7166434D01*
X5955535Y-7166434D02*
X5965058Y-7128338D01*
X5965058Y-7128338D02*
X5965058Y-7052148D01*
X5965058Y-7052148D02*
X5955535Y-7033100D01*
X5955535Y-7033100D02*
X5946011Y-7023577D01*
X5946011Y-7023577D02*
X5926963Y-7014053D01*
X5926963Y-7014053D02*
X5888868Y-7014053D01*
X5888868Y-7014053D02*
X5869820Y-7023577D01*
X5869820Y-7023577D02*
X5860297Y-7033100D01*
X5860297Y-7033100D02*
X5850773Y-7052148D01*
X5850773Y-7052148D02*
X5850773Y-7099767D01*
X5850773Y-7099767D02*
X5860297Y-7118815D01*
X5860297Y-7118815D02*
X5869820Y-7128338D01*
X5869820Y-7128338D02*
X5888868Y-7137862D01*
X5888868Y-7137862D02*
X5926963Y-7137862D01*
X5926963Y-7137862D02*
X5946011Y-7128338D01*
X5946011Y-7128338D02*
X5955535Y-7118815D01*
X5955535Y-7118815D02*
X5965058Y-7099767D01*
X6041249Y-7014053D02*
X6041249Y-7052148D01*
X6117439Y-7014053D02*
X6117439Y-7052148D01*
X6412678Y-7290243D02*
X6403154Y-7280719D01*
X6403154Y-7280719D02*
X6384106Y-7252148D01*
X6384106Y-7252148D02*
X6374582Y-7233100D01*
X6374582Y-7233100D02*
X6365059Y-7204529D01*
X6365059Y-7204529D02*
X6355535Y-7156910D01*
X6355535Y-7156910D02*
X6355535Y-7118815D01*
X6355535Y-7118815D02*
X6365059Y-7071196D01*
X6365059Y-7071196D02*
X6374582Y-7042624D01*
X6374582Y-7042624D02*
X6384106Y-7023577D01*
X6384106Y-7023577D02*
X6403154Y-6995005D01*
X6403154Y-6995005D02*
X6412678Y-6985481D01*
X6593630Y-7214053D02*
X6479344Y-7214053D01*
X6536487Y-7214053D02*
X6536487Y-7014053D01*
X6536487Y-7014053D02*
X6517439Y-7042624D01*
X6517439Y-7042624D02*
X6498392Y-7061672D01*
X6498392Y-7061672D02*
X6479344Y-7071196D01*
X6765059Y-7014053D02*
X6726963Y-7014053D01*
X6726963Y-7014053D02*
X6707916Y-7023577D01*
X6707916Y-7023577D02*
X6698392Y-7033100D01*
X6698392Y-7033100D02*
X6679344Y-7061672D01*
X6679344Y-7061672D02*
X6669820Y-7099767D01*
X6669820Y-7099767D02*
X6669820Y-7175957D01*
X6669820Y-7175957D02*
X6679344Y-7195005D01*
X6679344Y-7195005D02*
X6688868Y-7204529D01*
X6688868Y-7204529D02*
X6707916Y-7214053D01*
X6707916Y-7214053D02*
X6746011Y-7214053D01*
X6746011Y-7214053D02*
X6765059Y-7204529D01*
X6765059Y-7204529D02*
X6774582Y-7195005D01*
X6774582Y-7195005D02*
X6784106Y-7175957D01*
X6784106Y-7175957D02*
X6784106Y-7128338D01*
X6784106Y-7128338D02*
X6774582Y-7109291D01*
X6774582Y-7109291D02*
X6765059Y-7099767D01*
X6765059Y-7099767D02*
X6746011Y-7090243D01*
X6746011Y-7090243D02*
X6707916Y-7090243D01*
X6707916Y-7090243D02*
X6688868Y-7099767D01*
X6688868Y-7099767D02*
X6679344Y-7109291D01*
X6679344Y-7109291D02*
X6669820Y-7128338D01*
X7022201Y-7214053D02*
X7022201Y-7014053D01*
X7107916Y-7214053D02*
X7107916Y-7109291D01*
X7107916Y-7109291D02*
X7098392Y-7090243D01*
X7098392Y-7090243D02*
X7079344Y-7080719D01*
X7079344Y-7080719D02*
X7050773Y-7080719D01*
X7050773Y-7080719D02*
X7031725Y-7090243D01*
X7031725Y-7090243D02*
X7022201Y-7099767D01*
X7231725Y-7214053D02*
X7212678Y-7204529D01*
X7212678Y-7204529D02*
X7203154Y-7195005D01*
X7203154Y-7195005D02*
X7193630Y-7175957D01*
X7193630Y-7175957D02*
X7193630Y-7118815D01*
X7193630Y-7118815D02*
X7203154Y-7099767D01*
X7203154Y-7099767D02*
X7212678Y-7090243D01*
X7212678Y-7090243D02*
X7231725Y-7080719D01*
X7231725Y-7080719D02*
X7260297Y-7080719D01*
X7260297Y-7080719D02*
X7279344Y-7090243D01*
X7279344Y-7090243D02*
X7288868Y-7099767D01*
X7288868Y-7099767D02*
X7298392Y-7118815D01*
X7298392Y-7118815D02*
X7298392Y-7175957D01*
X7298392Y-7175957D02*
X7288868Y-7195005D01*
X7288868Y-7195005D02*
X7279344Y-7204529D01*
X7279344Y-7204529D02*
X7260297Y-7214053D01*
X7260297Y-7214053D02*
X7231725Y-7214053D01*
X7412678Y-7214053D02*
X7393630Y-7204529D01*
X7393630Y-7204529D02*
X7384106Y-7185481D01*
X7384106Y-7185481D02*
X7384106Y-7014053D01*
X7565059Y-7204529D02*
X7546011Y-7214053D01*
X7546011Y-7214053D02*
X7507916Y-7214053D01*
X7507916Y-7214053D02*
X7488868Y-7204529D01*
X7488868Y-7204529D02*
X7479344Y-7185481D01*
X7479344Y-7185481D02*
X7479344Y-7109291D01*
X7479344Y-7109291D02*
X7488868Y-7090243D01*
X7488868Y-7090243D02*
X7507916Y-7080719D01*
X7507916Y-7080719D02*
X7546011Y-7080719D01*
X7546011Y-7080719D02*
X7565059Y-7090243D01*
X7565059Y-7090243D02*
X7574582Y-7109291D01*
X7574582Y-7109291D02*
X7574582Y-7128338D01*
X7574582Y-7128338D02*
X7479344Y-7147386D01*
X7650773Y-7204529D02*
X7669821Y-7214053D01*
X7669821Y-7214053D02*
X7707916Y-7214053D01*
X7707916Y-7214053D02*
X7726963Y-7204529D01*
X7726963Y-7204529D02*
X7736487Y-7185481D01*
X7736487Y-7185481D02*
X7736487Y-7175957D01*
X7736487Y-7175957D02*
X7726963Y-7156910D01*
X7726963Y-7156910D02*
X7707916Y-7147386D01*
X7707916Y-7147386D02*
X7679344Y-7147386D01*
X7679344Y-7147386D02*
X7660297Y-7137862D01*
X7660297Y-7137862D02*
X7650773Y-7118815D01*
X7650773Y-7118815D02*
X7650773Y-7109291D01*
X7650773Y-7109291D02*
X7660297Y-7090243D01*
X7660297Y-7090243D02*
X7679344Y-7080719D01*
X7679344Y-7080719D02*
X7707916Y-7080719D01*
X7707916Y-7080719D02*
X7726963Y-7090243D01*
X7803154Y-7290243D02*
X7812678Y-7280719D01*
X7812678Y-7280719D02*
X7831725Y-7252148D01*
X7831725Y-7252148D02*
X7841249Y-7233100D01*
X7841249Y-7233100D02*
X7850773Y-7204529D01*
X7850773Y-7204529D02*
X7860297Y-7156910D01*
X7860297Y-7156910D02*
X7860297Y-7118815D01*
X7860297Y-7118815D02*
X7850773Y-7071196D01*
X7850773Y-7071196D02*
X7841249Y-7042624D01*
X7841249Y-7042624D02*
X7831725Y-7023577D01*
X7831725Y-7023577D02*
X7812678Y-6995005D01*
X7812678Y-6995005D02*
X7803154Y-6985481D01*
X8165059Y-7290243D02*
X8155535Y-7280719D01*
X8155535Y-7280719D02*
X8136487Y-7252148D01*
X8136487Y-7252148D02*
X8126963Y-7233100D01*
X8126963Y-7233100D02*
X8117440Y-7204529D01*
X8117440Y-7204529D02*
X8107916Y-7156910D01*
X8107916Y-7156910D02*
X8107916Y-7118815D01*
X8107916Y-7118815D02*
X8117440Y-7071196D01*
X8117440Y-7071196D02*
X8126963Y-7042624D01*
X8126963Y-7042624D02*
X8136487Y-7023577D01*
X8136487Y-7023577D02*
X8155535Y-6995005D01*
X8155535Y-6995005D02*
X8165059Y-6985481D01*
X8241249Y-7080719D02*
X8241249Y-7214053D01*
X8241249Y-7099767D02*
X8250773Y-7090243D01*
X8250773Y-7090243D02*
X8269821Y-7080719D01*
X8269821Y-7080719D02*
X8298392Y-7080719D01*
X8298392Y-7080719D02*
X8317440Y-7090243D01*
X8317440Y-7090243D02*
X8326963Y-7109291D01*
X8326963Y-7109291D02*
X8326963Y-7214053D01*
X8450773Y-7214053D02*
X8431725Y-7204529D01*
X8431725Y-7204529D02*
X8422202Y-7195005D01*
X8422202Y-7195005D02*
X8412678Y-7175957D01*
X8412678Y-7175957D02*
X8412678Y-7118815D01*
X8412678Y-7118815D02*
X8422202Y-7099767D01*
X8422202Y-7099767D02*
X8431725Y-7090243D01*
X8431725Y-7090243D02*
X8450773Y-7080719D01*
X8450773Y-7080719D02*
X8479345Y-7080719D01*
X8479345Y-7080719D02*
X8498392Y-7090243D01*
X8498392Y-7090243D02*
X8507916Y-7099767D01*
X8507916Y-7099767D02*
X8517440Y-7118815D01*
X8517440Y-7118815D02*
X8517440Y-7175957D01*
X8517440Y-7175957D02*
X8507916Y-7195005D01*
X8507916Y-7195005D02*
X8498392Y-7204529D01*
X8498392Y-7204529D02*
X8479345Y-7214053D01*
X8479345Y-7214053D02*
X8450773Y-7214053D01*
X8574583Y-7080719D02*
X8650773Y-7080719D01*
X8603154Y-7014053D02*
X8603154Y-7185481D01*
X8603154Y-7185481D02*
X8612678Y-7204529D01*
X8612678Y-7204529D02*
X8631725Y-7214053D01*
X8631725Y-7214053D02*
X8650773Y-7214053D01*
X8869821Y-7080719D02*
X8869821Y-7280719D01*
X8869821Y-7090243D02*
X8888868Y-7080719D01*
X8888868Y-7080719D02*
X8926964Y-7080719D01*
X8926964Y-7080719D02*
X8946011Y-7090243D01*
X8946011Y-7090243D02*
X8955535Y-7099767D01*
X8955535Y-7099767D02*
X8965059Y-7118815D01*
X8965059Y-7118815D02*
X8965059Y-7175957D01*
X8965059Y-7175957D02*
X8955535Y-7195005D01*
X8955535Y-7195005D02*
X8946011Y-7204529D01*
X8946011Y-7204529D02*
X8926964Y-7214053D01*
X8926964Y-7214053D02*
X8888868Y-7214053D01*
X8888868Y-7214053D02*
X8869821Y-7204529D01*
X9079345Y-7214053D02*
X9060297Y-7204529D01*
X9060297Y-7204529D02*
X9050773Y-7185481D01*
X9050773Y-7185481D02*
X9050773Y-7014053D01*
X9241249Y-7214053D02*
X9241249Y-7109291D01*
X9241249Y-7109291D02*
X9231726Y-7090243D01*
X9231726Y-7090243D02*
X9212678Y-7080719D01*
X9212678Y-7080719D02*
X9174583Y-7080719D01*
X9174583Y-7080719D02*
X9155535Y-7090243D01*
X9241249Y-7204529D02*
X9222202Y-7214053D01*
X9222202Y-7214053D02*
X9174583Y-7214053D01*
X9174583Y-7214053D02*
X9155535Y-7204529D01*
X9155535Y-7204529D02*
X9146011Y-7185481D01*
X9146011Y-7185481D02*
X9146011Y-7166434D01*
X9146011Y-7166434D02*
X9155535Y-7147386D01*
X9155535Y-7147386D02*
X9174583Y-7137862D01*
X9174583Y-7137862D02*
X9222202Y-7137862D01*
X9222202Y-7137862D02*
X9241249Y-7128338D01*
X9307916Y-7080719D02*
X9384106Y-7080719D01*
X9336487Y-7014053D02*
X9336487Y-7185481D01*
X9336487Y-7185481D02*
X9346011Y-7204529D01*
X9346011Y-7204529D02*
X9365059Y-7214053D01*
X9365059Y-7214053D02*
X9384106Y-7214053D01*
X9526964Y-7204529D02*
X9507916Y-7214053D01*
X9507916Y-7214053D02*
X9469821Y-7214053D01*
X9469821Y-7214053D02*
X9450773Y-7204529D01*
X9450773Y-7204529D02*
X9441249Y-7185481D01*
X9441249Y-7185481D02*
X9441249Y-7109291D01*
X9441249Y-7109291D02*
X9450773Y-7090243D01*
X9450773Y-7090243D02*
X9469821Y-7080719D01*
X9469821Y-7080719D02*
X9507916Y-7080719D01*
X9507916Y-7080719D02*
X9526964Y-7090243D01*
X9526964Y-7090243D02*
X9536487Y-7109291D01*
X9536487Y-7109291D02*
X9536487Y-7128338D01*
X9536487Y-7128338D02*
X9441249Y-7147386D01*
X9707916Y-7214053D02*
X9707916Y-7014053D01*
X9707916Y-7204529D02*
X9688868Y-7214053D01*
X9688868Y-7214053D02*
X9650773Y-7214053D01*
X9650773Y-7214053D02*
X9631726Y-7204529D01*
X9631726Y-7204529D02*
X9622202Y-7195005D01*
X9622202Y-7195005D02*
X9612678Y-7175957D01*
X9612678Y-7175957D02*
X9612678Y-7118815D01*
X9612678Y-7118815D02*
X9622202Y-7099767D01*
X9622202Y-7099767D02*
X9631726Y-7090243D01*
X9631726Y-7090243D02*
X9650773Y-7080719D01*
X9650773Y-7080719D02*
X9688868Y-7080719D01*
X9688868Y-7080719D02*
X9707916Y-7090243D01*
X9784107Y-7290243D02*
X9793630Y-7280719D01*
X9793630Y-7280719D02*
X9812678Y-7252148D01*
X9812678Y-7252148D02*
X9822202Y-7233100D01*
X9822202Y-7233100D02*
X9831726Y-7204529D01*
X9831726Y-7204529D02*
X9841249Y-7156910D01*
X9841249Y-7156910D02*
X9841249Y-7118815D01*
X9841249Y-7118815D02*
X9831726Y-7071196D01*
X9831726Y-7071196D02*
X9822202Y-7042624D01*
X9822202Y-7042624D02*
X9812678Y-7023577D01*
X9812678Y-7023577D02*
X9793630Y-6995005D01*
X9793630Y-6995005D02*
X9784107Y-6985481D01*
X2737615Y-7312569D02*
X2737615Y-7512569D01*
X2637615Y-7412569D02*
X2837615Y-7412569D01*
X3079344Y-7304053D02*
X3203153Y-7304053D01*
X3203153Y-7304053D02*
X3136487Y-7380243D01*
X3136487Y-7380243D02*
X3165058Y-7380243D01*
X3165058Y-7380243D02*
X3184106Y-7389767D01*
X3184106Y-7389767D02*
X3193630Y-7399291D01*
X3193630Y-7399291D02*
X3203153Y-7418338D01*
X3203153Y-7418338D02*
X3203153Y-7465957D01*
X3203153Y-7465957D02*
X3193630Y-7485005D01*
X3193630Y-7485005D02*
X3184106Y-7494529D01*
X3184106Y-7494529D02*
X3165058Y-7504053D01*
X3165058Y-7504053D02*
X3107915Y-7504053D01*
X3107915Y-7504053D02*
X3088868Y-7494529D01*
X3088868Y-7494529D02*
X3079344Y-7485005D01*
X3288868Y-7485005D02*
X3298392Y-7494529D01*
X3298392Y-7494529D02*
X3288868Y-7504053D01*
X3288868Y-7504053D02*
X3279344Y-7494529D01*
X3279344Y-7494529D02*
X3288868Y-7485005D01*
X3288868Y-7485005D02*
X3288868Y-7504053D01*
X3469820Y-7370719D02*
X3469820Y-7504053D01*
X3422201Y-7294529D02*
X3374582Y-7437386D01*
X3374582Y-7437386D02*
X3498392Y-7437386D01*
X3612677Y-7304053D02*
X3631725Y-7304053D01*
X3631725Y-7304053D02*
X3650773Y-7313577D01*
X3650773Y-7313577D02*
X3660296Y-7323100D01*
X3660296Y-7323100D02*
X3669820Y-7342148D01*
X3669820Y-7342148D02*
X3679344Y-7380243D01*
X3679344Y-7380243D02*
X3679344Y-7427862D01*
X3679344Y-7427862D02*
X3669820Y-7465957D01*
X3669820Y-7465957D02*
X3660296Y-7485005D01*
X3660296Y-7485005D02*
X3650773Y-7494529D01*
X3650773Y-7494529D02*
X3631725Y-7504053D01*
X3631725Y-7504053D02*
X3612677Y-7504053D01*
X3612677Y-7504053D02*
X3593630Y-7494529D01*
X3593630Y-7494529D02*
X3584106Y-7485005D01*
X3584106Y-7485005D02*
X3574582Y-7465957D01*
X3574582Y-7465957D02*
X3565058Y-7427862D01*
X3565058Y-7427862D02*
X3565058Y-7380243D01*
X3565058Y-7380243D02*
X3574582Y-7342148D01*
X3574582Y-7342148D02*
X3584106Y-7323100D01*
X3584106Y-7323100D02*
X3593630Y-7313577D01*
X3593630Y-7313577D02*
X3612677Y-7304053D01*
X3803153Y-7304053D02*
X3822201Y-7304053D01*
X3822201Y-7304053D02*
X3841249Y-7313577D01*
X3841249Y-7313577D02*
X3850773Y-7323100D01*
X3850773Y-7323100D02*
X3860296Y-7342148D01*
X3860296Y-7342148D02*
X3869820Y-7380243D01*
X3869820Y-7380243D02*
X3869820Y-7427862D01*
X3869820Y-7427862D02*
X3860296Y-7465957D01*
X3860296Y-7465957D02*
X3850773Y-7485005D01*
X3850773Y-7485005D02*
X3841249Y-7494529D01*
X3841249Y-7494529D02*
X3822201Y-7504053D01*
X3822201Y-7504053D02*
X3803153Y-7504053D01*
X3803153Y-7504053D02*
X3784106Y-7494529D01*
X3784106Y-7494529D02*
X3774582Y-7485005D01*
X3774582Y-7485005D02*
X3765058Y-7465957D01*
X3765058Y-7465957D02*
X3755534Y-7427862D01*
X3755534Y-7427862D02*
X3755534Y-7380243D01*
X3755534Y-7380243D02*
X3765058Y-7342148D01*
X3765058Y-7342148D02*
X3774582Y-7323100D01*
X3774582Y-7323100D02*
X3784106Y-7313577D01*
X3784106Y-7313577D02*
X3803153Y-7304053D01*
X3955534Y-7504053D02*
X3955534Y-7370719D01*
X3955534Y-7389767D02*
X3965058Y-7380243D01*
X3965058Y-7380243D02*
X3984106Y-7370719D01*
X3984106Y-7370719D02*
X4012677Y-7370719D01*
X4012677Y-7370719D02*
X4031725Y-7380243D01*
X4031725Y-7380243D02*
X4041249Y-7399291D01*
X4041249Y-7399291D02*
X4041249Y-7504053D01*
X4041249Y-7399291D02*
X4050773Y-7380243D01*
X4050773Y-7380243D02*
X4069820Y-7370719D01*
X4069820Y-7370719D02*
X4098392Y-7370719D01*
X4098392Y-7370719D02*
X4117439Y-7380243D01*
X4117439Y-7380243D02*
X4126963Y-7399291D01*
X4126963Y-7399291D02*
X4126963Y-7504053D01*
X4222201Y-7504053D02*
X4222201Y-7370719D01*
X4222201Y-7389767D02*
X4231725Y-7380243D01*
X4231725Y-7380243D02*
X4250773Y-7370719D01*
X4250773Y-7370719D02*
X4279344Y-7370719D01*
X4279344Y-7370719D02*
X4298392Y-7380243D01*
X4298392Y-7380243D02*
X4307916Y-7399291D01*
X4307916Y-7399291D02*
X4307916Y-7504053D01*
X4307916Y-7399291D02*
X4317439Y-7380243D01*
X4317439Y-7380243D02*
X4336487Y-7370719D01*
X4336487Y-7370719D02*
X4365058Y-7370719D01*
X4365058Y-7370719D02*
X4384106Y-7380243D01*
X4384106Y-7380243D02*
X4393630Y-7399291D01*
X4393630Y-7399291D02*
X4393630Y-7504053D01*
X4784106Y-7294529D02*
X4612678Y-7551672D01*
X5041249Y-7304053D02*
X5060297Y-7304053D01*
X5060297Y-7304053D02*
X5079344Y-7313577D01*
X5079344Y-7313577D02*
X5088868Y-7323100D01*
X5088868Y-7323100D02*
X5098392Y-7342148D01*
X5098392Y-7342148D02*
X5107916Y-7380243D01*
X5107916Y-7380243D02*
X5107916Y-7427862D01*
X5107916Y-7427862D02*
X5098392Y-7465957D01*
X5098392Y-7465957D02*
X5088868Y-7485005D01*
X5088868Y-7485005D02*
X5079344Y-7494529D01*
X5079344Y-7494529D02*
X5060297Y-7504053D01*
X5060297Y-7504053D02*
X5041249Y-7504053D01*
X5041249Y-7504053D02*
X5022201Y-7494529D01*
X5022201Y-7494529D02*
X5012678Y-7485005D01*
X5012678Y-7485005D02*
X5003154Y-7465957D01*
X5003154Y-7465957D02*
X4993630Y-7427862D01*
X4993630Y-7427862D02*
X4993630Y-7380243D01*
X4993630Y-7380243D02*
X5003154Y-7342148D01*
X5003154Y-7342148D02*
X5012678Y-7323100D01*
X5012678Y-7323100D02*
X5022201Y-7313577D01*
X5022201Y-7313577D02*
X5041249Y-7304053D01*
X5193630Y-7485005D02*
X5203154Y-7494529D01*
X5203154Y-7494529D02*
X5193630Y-7504053D01*
X5193630Y-7504053D02*
X5184106Y-7494529D01*
X5184106Y-7494529D02*
X5193630Y-7485005D01*
X5193630Y-7485005D02*
X5193630Y-7504053D01*
X5393630Y-7504053D02*
X5279344Y-7504053D01*
X5336487Y-7504053D02*
X5336487Y-7304053D01*
X5336487Y-7304053D02*
X5317439Y-7332624D01*
X5317439Y-7332624D02*
X5298392Y-7351672D01*
X5298392Y-7351672D02*
X5279344Y-7361196D01*
X5460297Y-7304053D02*
X5584106Y-7304053D01*
X5584106Y-7304053D02*
X5517439Y-7380243D01*
X5517439Y-7380243D02*
X5546011Y-7380243D01*
X5546011Y-7380243D02*
X5565059Y-7389767D01*
X5565059Y-7389767D02*
X5574582Y-7399291D01*
X5574582Y-7399291D02*
X5584106Y-7418338D01*
X5584106Y-7418338D02*
X5584106Y-7465957D01*
X5584106Y-7465957D02*
X5574582Y-7485005D01*
X5574582Y-7485005D02*
X5565059Y-7494529D01*
X5565059Y-7494529D02*
X5546011Y-7504053D01*
X5546011Y-7504053D02*
X5488868Y-7504053D01*
X5488868Y-7504053D02*
X5469820Y-7494529D01*
X5469820Y-7494529D02*
X5460297Y-7485005D01*
X5650773Y-7304053D02*
X5774582Y-7304053D01*
X5774582Y-7304053D02*
X5707916Y-7380243D01*
X5707916Y-7380243D02*
X5736487Y-7380243D01*
X5736487Y-7380243D02*
X5755535Y-7389767D01*
X5755535Y-7389767D02*
X5765058Y-7399291D01*
X5765058Y-7399291D02*
X5774582Y-7418338D01*
X5774582Y-7418338D02*
X5774582Y-7465957D01*
X5774582Y-7465957D02*
X5765058Y-7485005D01*
X5765058Y-7485005D02*
X5755535Y-7494529D01*
X5755535Y-7494529D02*
X5736487Y-7504053D01*
X5736487Y-7504053D02*
X5679344Y-7504053D01*
X5679344Y-7504053D02*
X5660297Y-7494529D01*
X5660297Y-7494529D02*
X5650773Y-7485005D01*
X5869820Y-7504053D02*
X5907916Y-7504053D01*
X5907916Y-7504053D02*
X5926963Y-7494529D01*
X5926963Y-7494529D02*
X5936487Y-7485005D01*
X5936487Y-7485005D02*
X5955535Y-7456434D01*
X5955535Y-7456434D02*
X5965058Y-7418338D01*
X5965058Y-7418338D02*
X5965058Y-7342148D01*
X5965058Y-7342148D02*
X5955535Y-7323100D01*
X5955535Y-7323100D02*
X5946011Y-7313577D01*
X5946011Y-7313577D02*
X5926963Y-7304053D01*
X5926963Y-7304053D02*
X5888868Y-7304053D01*
X5888868Y-7304053D02*
X5869820Y-7313577D01*
X5869820Y-7313577D02*
X5860297Y-7323100D01*
X5860297Y-7323100D02*
X5850773Y-7342148D01*
X5850773Y-7342148D02*
X5850773Y-7389767D01*
X5850773Y-7389767D02*
X5860297Y-7408815D01*
X5860297Y-7408815D02*
X5869820Y-7418338D01*
X5869820Y-7418338D02*
X5888868Y-7427862D01*
X5888868Y-7427862D02*
X5926963Y-7427862D01*
X5926963Y-7427862D02*
X5946011Y-7418338D01*
X5946011Y-7418338D02*
X5955535Y-7408815D01*
X5955535Y-7408815D02*
X5965058Y-7389767D01*
X6041249Y-7304053D02*
X6041249Y-7342148D01*
X6117439Y-7304053D02*
X6117439Y-7342148D01*
X6412678Y-7580243D02*
X6403154Y-7570719D01*
X6403154Y-7570719D02*
X6384106Y-7542148D01*
X6384106Y-7542148D02*
X6374582Y-7523100D01*
X6374582Y-7523100D02*
X6365059Y-7494529D01*
X6365059Y-7494529D02*
X6355535Y-7446910D01*
X6355535Y-7446910D02*
X6355535Y-7408815D01*
X6355535Y-7408815D02*
X6365059Y-7361196D01*
X6365059Y-7361196D02*
X6374582Y-7332624D01*
X6374582Y-7332624D02*
X6384106Y-7313577D01*
X6384106Y-7313577D02*
X6403154Y-7285005D01*
X6403154Y-7285005D02*
X6412678Y-7275481D01*
X6517439Y-7389767D02*
X6498392Y-7380243D01*
X6498392Y-7380243D02*
X6488868Y-7370719D01*
X6488868Y-7370719D02*
X6479344Y-7351672D01*
X6479344Y-7351672D02*
X6479344Y-7342148D01*
X6479344Y-7342148D02*
X6488868Y-7323100D01*
X6488868Y-7323100D02*
X6498392Y-7313577D01*
X6498392Y-7313577D02*
X6517439Y-7304053D01*
X6517439Y-7304053D02*
X6555535Y-7304053D01*
X6555535Y-7304053D02*
X6574582Y-7313577D01*
X6574582Y-7313577D02*
X6584106Y-7323100D01*
X6584106Y-7323100D02*
X6593630Y-7342148D01*
X6593630Y-7342148D02*
X6593630Y-7351672D01*
X6593630Y-7351672D02*
X6584106Y-7370719D01*
X6584106Y-7370719D02*
X6574582Y-7380243D01*
X6574582Y-7380243D02*
X6555535Y-7389767D01*
X6555535Y-7389767D02*
X6517439Y-7389767D01*
X6517439Y-7389767D02*
X6498392Y-7399291D01*
X6498392Y-7399291D02*
X6488868Y-7408815D01*
X6488868Y-7408815D02*
X6479344Y-7427862D01*
X6479344Y-7427862D02*
X6479344Y-7465957D01*
X6479344Y-7465957D02*
X6488868Y-7485005D01*
X6488868Y-7485005D02*
X6498392Y-7494529D01*
X6498392Y-7494529D02*
X6517439Y-7504053D01*
X6517439Y-7504053D02*
X6555535Y-7504053D01*
X6555535Y-7504053D02*
X6574582Y-7494529D01*
X6574582Y-7494529D02*
X6584106Y-7485005D01*
X6584106Y-7485005D02*
X6593630Y-7465957D01*
X6593630Y-7465957D02*
X6593630Y-7427862D01*
X6593630Y-7427862D02*
X6584106Y-7408815D01*
X6584106Y-7408815D02*
X6574582Y-7399291D01*
X6574582Y-7399291D02*
X6555535Y-7389767D01*
X6831725Y-7504053D02*
X6831725Y-7304053D01*
X6917440Y-7504053D02*
X6917440Y-7399291D01*
X6917440Y-7399291D02*
X6907916Y-7380243D01*
X6907916Y-7380243D02*
X6888868Y-7370719D01*
X6888868Y-7370719D02*
X6860297Y-7370719D01*
X6860297Y-7370719D02*
X6841249Y-7380243D01*
X6841249Y-7380243D02*
X6831725Y-7389767D01*
X7041249Y-7504053D02*
X7022201Y-7494529D01*
X7022201Y-7494529D02*
X7012678Y-7485005D01*
X7012678Y-7485005D02*
X7003154Y-7465957D01*
X7003154Y-7465957D02*
X7003154Y-7408815D01*
X7003154Y-7408815D02*
X7012678Y-7389767D01*
X7012678Y-7389767D02*
X7022201Y-7380243D01*
X7022201Y-7380243D02*
X7041249Y-7370719D01*
X7041249Y-7370719D02*
X7069821Y-7370719D01*
X7069821Y-7370719D02*
X7088868Y-7380243D01*
X7088868Y-7380243D02*
X7098392Y-7389767D01*
X7098392Y-7389767D02*
X7107916Y-7408815D01*
X7107916Y-7408815D02*
X7107916Y-7465957D01*
X7107916Y-7465957D02*
X7098392Y-7485005D01*
X7098392Y-7485005D02*
X7088868Y-7494529D01*
X7088868Y-7494529D02*
X7069821Y-7504053D01*
X7069821Y-7504053D02*
X7041249Y-7504053D01*
X7222201Y-7504053D02*
X7203154Y-7494529D01*
X7203154Y-7494529D02*
X7193630Y-7475481D01*
X7193630Y-7475481D02*
X7193630Y-7304053D01*
X7374582Y-7494529D02*
X7355535Y-7504053D01*
X7355535Y-7504053D02*
X7317440Y-7504053D01*
X7317440Y-7504053D02*
X7298392Y-7494529D01*
X7298392Y-7494529D02*
X7288868Y-7475481D01*
X7288868Y-7475481D02*
X7288868Y-7399291D01*
X7288868Y-7399291D02*
X7298392Y-7380243D01*
X7298392Y-7380243D02*
X7317440Y-7370719D01*
X7317440Y-7370719D02*
X7355535Y-7370719D01*
X7355535Y-7370719D02*
X7374582Y-7380243D01*
X7374582Y-7380243D02*
X7384106Y-7399291D01*
X7384106Y-7399291D02*
X7384106Y-7418338D01*
X7384106Y-7418338D02*
X7288868Y-7437386D01*
X7460297Y-7494529D02*
X7479344Y-7504053D01*
X7479344Y-7504053D02*
X7517440Y-7504053D01*
X7517440Y-7504053D02*
X7536487Y-7494529D01*
X7536487Y-7494529D02*
X7546011Y-7475481D01*
X7546011Y-7475481D02*
X7546011Y-7465957D01*
X7546011Y-7465957D02*
X7536487Y-7446910D01*
X7536487Y-7446910D02*
X7517440Y-7437386D01*
X7517440Y-7437386D02*
X7488868Y-7437386D01*
X7488868Y-7437386D02*
X7469821Y-7427862D01*
X7469821Y-7427862D02*
X7460297Y-7408815D01*
X7460297Y-7408815D02*
X7460297Y-7399291D01*
X7460297Y-7399291D02*
X7469821Y-7380243D01*
X7469821Y-7380243D02*
X7488868Y-7370719D01*
X7488868Y-7370719D02*
X7517440Y-7370719D01*
X7517440Y-7370719D02*
X7536487Y-7380243D01*
X7612678Y-7580243D02*
X7622202Y-7570719D01*
X7622202Y-7570719D02*
X7641249Y-7542148D01*
X7641249Y-7542148D02*
X7650773Y-7523100D01*
X7650773Y-7523100D02*
X7660297Y-7494529D01*
X7660297Y-7494529D02*
X7669821Y-7446910D01*
X7669821Y-7446910D02*
X7669821Y-7408815D01*
X7669821Y-7408815D02*
X7660297Y-7361196D01*
X7660297Y-7361196D02*
X7650773Y-7332624D01*
X7650773Y-7332624D02*
X7641249Y-7313577D01*
X7641249Y-7313577D02*
X7622202Y-7285005D01*
X7622202Y-7285005D02*
X7612678Y-7275481D01*
X7974583Y-7580243D02*
X7965059Y-7570719D01*
X7965059Y-7570719D02*
X7946011Y-7542148D01*
X7946011Y-7542148D02*
X7936487Y-7523100D01*
X7936487Y-7523100D02*
X7926963Y-7494529D01*
X7926963Y-7494529D02*
X7917440Y-7446910D01*
X7917440Y-7446910D02*
X7917440Y-7408815D01*
X7917440Y-7408815D02*
X7926963Y-7361196D01*
X7926963Y-7361196D02*
X7936487Y-7332624D01*
X7936487Y-7332624D02*
X7946011Y-7313577D01*
X7946011Y-7313577D02*
X7965059Y-7285005D01*
X7965059Y-7285005D02*
X7974583Y-7275481D01*
X8050773Y-7370719D02*
X8050773Y-7504053D01*
X8050773Y-7389767D02*
X8060297Y-7380243D01*
X8060297Y-7380243D02*
X8079344Y-7370719D01*
X8079344Y-7370719D02*
X8107916Y-7370719D01*
X8107916Y-7370719D02*
X8126963Y-7380243D01*
X8126963Y-7380243D02*
X8136487Y-7399291D01*
X8136487Y-7399291D02*
X8136487Y-7504053D01*
X8260297Y-7504053D02*
X8241249Y-7494529D01*
X8241249Y-7494529D02*
X8231725Y-7485005D01*
X8231725Y-7485005D02*
X8222202Y-7465957D01*
X8222202Y-7465957D02*
X8222202Y-7408815D01*
X8222202Y-7408815D02*
X8231725Y-7389767D01*
X8231725Y-7389767D02*
X8241249Y-7380243D01*
X8241249Y-7380243D02*
X8260297Y-7370719D01*
X8260297Y-7370719D02*
X8288868Y-7370719D01*
X8288868Y-7370719D02*
X8307916Y-7380243D01*
X8307916Y-7380243D02*
X8317440Y-7389767D01*
X8317440Y-7389767D02*
X8326963Y-7408815D01*
X8326963Y-7408815D02*
X8326963Y-7465957D01*
X8326963Y-7465957D02*
X8317440Y-7485005D01*
X8317440Y-7485005D02*
X8307916Y-7494529D01*
X8307916Y-7494529D02*
X8288868Y-7504053D01*
X8288868Y-7504053D02*
X8260297Y-7504053D01*
X8384106Y-7370719D02*
X8460297Y-7370719D01*
X8412678Y-7304053D02*
X8412678Y-7475481D01*
X8412678Y-7475481D02*
X8422202Y-7494529D01*
X8422202Y-7494529D02*
X8441249Y-7504053D01*
X8441249Y-7504053D02*
X8460297Y-7504053D01*
X8679345Y-7370719D02*
X8679345Y-7570719D01*
X8679345Y-7380243D02*
X8698392Y-7370719D01*
X8698392Y-7370719D02*
X8736487Y-7370719D01*
X8736487Y-7370719D02*
X8755535Y-7380243D01*
X8755535Y-7380243D02*
X8765059Y-7389767D01*
X8765059Y-7389767D02*
X8774583Y-7408815D01*
X8774583Y-7408815D02*
X8774583Y-7465957D01*
X8774583Y-7465957D02*
X8765059Y-7485005D01*
X8765059Y-7485005D02*
X8755535Y-7494529D01*
X8755535Y-7494529D02*
X8736487Y-7504053D01*
X8736487Y-7504053D02*
X8698392Y-7504053D01*
X8698392Y-7504053D02*
X8679345Y-7494529D01*
X8888868Y-7504053D02*
X8869821Y-7494529D01*
X8869821Y-7494529D02*
X8860297Y-7475481D01*
X8860297Y-7475481D02*
X8860297Y-7304053D01*
X9050773Y-7504053D02*
X9050773Y-7399291D01*
X9050773Y-7399291D02*
X9041249Y-7380243D01*
X9041249Y-7380243D02*
X9022202Y-7370719D01*
X9022202Y-7370719D02*
X8984106Y-7370719D01*
X8984106Y-7370719D02*
X8965059Y-7380243D01*
X9050773Y-7494529D02*
X9031726Y-7504053D01*
X9031726Y-7504053D02*
X8984106Y-7504053D01*
X8984106Y-7504053D02*
X8965059Y-7494529D01*
X8965059Y-7494529D02*
X8955535Y-7475481D01*
X8955535Y-7475481D02*
X8955535Y-7456434D01*
X8955535Y-7456434D02*
X8965059Y-7437386D01*
X8965059Y-7437386D02*
X8984106Y-7427862D01*
X8984106Y-7427862D02*
X9031726Y-7427862D01*
X9031726Y-7427862D02*
X9050773Y-7418338D01*
X9117440Y-7370719D02*
X9193630Y-7370719D01*
X9146011Y-7304053D02*
X9146011Y-7475481D01*
X9146011Y-7475481D02*
X9155535Y-7494529D01*
X9155535Y-7494529D02*
X9174583Y-7504053D01*
X9174583Y-7504053D02*
X9193630Y-7504053D01*
X9336487Y-7494529D02*
X9317440Y-7504053D01*
X9317440Y-7504053D02*
X9279345Y-7504053D01*
X9279345Y-7504053D02*
X9260297Y-7494529D01*
X9260297Y-7494529D02*
X9250773Y-7475481D01*
X9250773Y-7475481D02*
X9250773Y-7399291D01*
X9250773Y-7399291D02*
X9260297Y-7380243D01*
X9260297Y-7380243D02*
X9279345Y-7370719D01*
X9279345Y-7370719D02*
X9317440Y-7370719D01*
X9317440Y-7370719D02*
X9336487Y-7380243D01*
X9336487Y-7380243D02*
X9346011Y-7399291D01*
X9346011Y-7399291D02*
X9346011Y-7418338D01*
X9346011Y-7418338D02*
X9250773Y-7437386D01*
X9517440Y-7504053D02*
X9517440Y-7304053D01*
X9517440Y-7494529D02*
X9498392Y-7504053D01*
X9498392Y-7504053D02*
X9460297Y-7504053D01*
X9460297Y-7504053D02*
X9441249Y-7494529D01*
X9441249Y-7494529D02*
X9431726Y-7485005D01*
X9431726Y-7485005D02*
X9422202Y-7465957D01*
X9422202Y-7465957D02*
X9422202Y-7408815D01*
X9422202Y-7408815D02*
X9431726Y-7389767D01*
X9431726Y-7389767D02*
X9441249Y-7380243D01*
X9441249Y-7380243D02*
X9460297Y-7370719D01*
X9460297Y-7370719D02*
X9498392Y-7370719D01*
X9498392Y-7370719D02*
X9517440Y-7380243D01*
X9593630Y-7580243D02*
X9603154Y-7570719D01*
X9603154Y-7570719D02*
X9622202Y-7542148D01*
X9622202Y-7542148D02*
X9631726Y-7523100D01*
X9631726Y-7523100D02*
X9641249Y-7494529D01*
X9641249Y-7494529D02*
X9650773Y-7446910D01*
X9650773Y-7446910D02*
X9650773Y-7408815D01*
X9650773Y-7408815D02*
X9641249Y-7361196D01*
X9641249Y-7361196D02*
X9631726Y-7332624D01*
X9631726Y-7332624D02*
X9622202Y-7313577D01*
X9622202Y-7313577D02*
X9603154Y-7285005D01*
X9603154Y-7285005D02*
X9593630Y-7275481D01*
M02*
