M48
; DRILL file {KiCad 7.0.7} date Mon Sep  4 22:47:56 2023
; FORMAT={-:-/ absolute / inch / decimal}
; #@! TF.CreationDate,2023-09-04T22:47:56+10:00
; #@! TF.GenerationSoftware,Kicad,Pcbnew,7.0.7
; #@! TF.FileFunction,NonPlated,1,2,NPTH
FMAT,2
INCH
; #@! TA.AperFunction,NonPlated,NPTH,ComponentDrill
T1C0.0472
; #@! TA.AperFunction,NonPlated,NPTH,ComponentDrill
T2C0.0669
; #@! TA.AperFunction,NonPlated,NPTH,ComponentDrill
T3C0.1339
%
G90
G05
T1
X4.2786Y-2.2068
X4.2786Y-2.2786
X4.5542Y-2.2068
X4.5542Y-2.2786
T2
X1.2595Y-1.4383
X1.2595Y-2.1093
X1.6925Y-1.4383
X1.6925Y-2.1093
X1.9714Y-1.4383
X1.9714Y-2.1093
X2.4044Y-1.4383
X2.4044Y-2.1093
X2.6833Y-1.4383
X2.6833Y-2.1093
X3.1164Y-1.4383
X3.1164Y-2.1093
X3.3927Y-1.4383
X3.3927Y-2.1093
X3.8258Y-1.4383
X3.8258Y-2.1093
T3
X1.476Y-1.4383
X1.476Y-2.1093
X2.1879Y-1.4383
X2.1879Y-2.1093
X2.8998Y-1.4383
X2.8998Y-2.1093
X3.6093Y-1.4383
X3.6093Y-2.1093
T0
M30
