%TF.GenerationSoftware,KiCad,Pcbnew,7.0.7*%
%TF.CreationDate,2023-09-04T22:47:59+10:00*%
%TF.ProjectId,art,6172742e-6b69-4636-9164-5f7063625858,rev?*%
%TF.SameCoordinates,Original*%
%TF.FileFunction,Soldermask,Top*%
%TF.FilePolarity,Negative*%
%FSLAX46Y46*%
G04 Gerber Fmt 4.6, Leading zero omitted, Abs format (unit mm)*
G04 Created by KiCad (PCBNEW 7.0.7) date 2023-09-04 22:47:59*
%MOMM*%
%LPD*%
G01*
G04 APERTURE LIST*
%ADD10C,1.700000*%
%ADD11C,3.400000*%
%ADD12C,2.000000*%
%ADD13O,2.500000X1.500000*%
%ADD14O,1.500000X2.500000*%
%ADD15C,1.200000*%
%ADD16O,2.400000X1.700000*%
G04 APERTURE END LIST*
D10*
%TO.C,SW1*%
X31990394Y-36532388D03*
D11*
X37490394Y-36532388D03*
D10*
X42990394Y-36532388D03*
D12*
X32490394Y-40332388D03*
X42490394Y-40332388D03*
X37490394Y-42432388D03*
%TD*%
D10*
%TO.C,SW8*%
X86175000Y-53575000D03*
D11*
X91675000Y-53575000D03*
D10*
X97175000Y-53575000D03*
D12*
X86675000Y-57375000D03*
X96675000Y-57375000D03*
X91675000Y-59475000D03*
%TD*%
D10*
%TO.C,SW4*%
X86175000Y-36532388D03*
D11*
X91675000Y-36532388D03*
D10*
X97175000Y-36532388D03*
D12*
X86675000Y-40332388D03*
X96675000Y-40332388D03*
X91675000Y-42432388D03*
%TD*%
D10*
%TO.C,SW7*%
X68155598Y-53575000D03*
D11*
X73655598Y-53575000D03*
D10*
X79155598Y-53575000D03*
D12*
X68655598Y-57375000D03*
X78655598Y-57375000D03*
X73655598Y-59475000D03*
%TD*%
D10*
%TO.C,SW2*%
X50072996Y-36532388D03*
D11*
X55572996Y-36532388D03*
D10*
X61072996Y-36532388D03*
D12*
X50572996Y-40332388D03*
X60572996Y-40332388D03*
X55572996Y-42432388D03*
%TD*%
D10*
%TO.C,SW3*%
X68155598Y-36532388D03*
D11*
X73655598Y-36532388D03*
D10*
X79155598Y-36532388D03*
D12*
X68655598Y-40332388D03*
X78655598Y-40332388D03*
X73655598Y-42432388D03*
%TD*%
D13*
%TO.C,U1*%
X118952218Y-29616772D03*
X118952218Y-32156772D03*
X118952218Y-34696772D03*
X118952218Y-37236772D03*
X118952218Y-39776772D03*
X118952218Y-42316772D03*
X118952218Y-44856772D03*
X118952218Y-47396772D03*
X118952218Y-49936772D03*
D14*
X115912218Y-50436772D03*
X113372218Y-50436772D03*
X110832218Y-50436772D03*
X108292218Y-50436772D03*
X105752218Y-50436772D03*
D13*
X102712218Y-49936772D03*
X102712218Y-47396772D03*
X102712218Y-44856772D03*
X102712218Y-42316772D03*
X102712218Y-39776772D03*
X102712218Y-37236772D03*
X102712218Y-34696772D03*
X102712218Y-32156772D03*
X102712218Y-29616772D03*
%TD*%
D15*
%TO.C,J1*%
X115676860Y-57877684D03*
X115676860Y-56052084D03*
X108676860Y-57877684D03*
X108676860Y-56052084D03*
D16*
X106876860Y-59977684D03*
X106876860Y-53952084D03*
X110876860Y-59977684D03*
X110876860Y-53952084D03*
X113876860Y-59977684D03*
X113876860Y-53952084D03*
X105376860Y-58152084D03*
X105376860Y-55777684D03*
%TD*%
D10*
%TO.C,SW6*%
X50072996Y-53575000D03*
D11*
X55572996Y-53575000D03*
D10*
X61072996Y-53575000D03*
D12*
X50572996Y-57375000D03*
X60572996Y-57375000D03*
X55572996Y-59475000D03*
%TD*%
D10*
%TO.C,SW5*%
X31990394Y-53575000D03*
D11*
X37490394Y-53575000D03*
D10*
X42990394Y-53575000D03*
D12*
X32490394Y-57375000D03*
X42490394Y-57375000D03*
X37490394Y-59475000D03*
%TD*%
M02*
