M48
; DRILL file {KiCad 7.0.7} date Fri 15 Sep 2023 12:25:28
; FORMAT={-:-/ absolute / inch / decimal}
; #@! TF.CreationDate,2023-09-15T12:25:28+10:00
; #@! TF.GenerationSoftware,Kicad,Pcbnew,7.0.7
; #@! TF.FileFunction,NonPlated,1,2,NPTH
FMAT,2
INCH
; #@! TA.AperFunction,NonPlated,NPTH,ComponentDrill
T1C0.0669
; #@! TA.AperFunction,NonPlated,NPTH,ComponentDrill
T2C0.1575
%
G90
G05
T1
X0.95Y-0.9945
X0.95Y-1.7445
X0.95Y-2.4945
X1.1375Y-0.9945
X1.1375Y-1.7445
X1.1375Y-2.4945
X1.325Y-0.9945
X1.325Y-1.7445
X1.325Y-2.4945
X1.35Y-0.9945
X1.35Y-1.7445
X1.35Y-2.4945
X1.5125Y-0.9945
X1.5125Y-1.7445
X1.5125Y-2.4945
X1.5375Y-0.9945
X1.5375Y-1.7445
X1.5375Y-2.4945
X1.7Y-0.9945
X1.7Y-1.7445
X1.7Y-2.4945
X1.725Y-0.9945
X1.725Y-1.7445
X1.725Y-2.4945
X1.8875Y-0.9945
X1.8875Y-1.7445
X1.8875Y-2.4945
X1.9125Y-0.9945
X1.9125Y-1.7445
X1.9125Y-2.4945
X2.075Y-0.9945
X2.075Y-1.7445
X2.075Y-2.4945
X2.1Y-0.9945
X2.1Y-1.7445
X2.1Y-2.4945
X2.2625Y-0.9945
X2.2625Y-1.7445
X2.2625Y-2.4945
X2.2875Y-0.9945
X2.2875Y-1.7445
X2.2875Y-2.4945
X2.45Y-0.9945
X2.45Y-1.7445
X2.45Y-2.4945
X2.475Y-0.9945
X2.475Y-1.7445
X2.475Y-2.4945
X2.6375Y-0.9945
X2.6375Y-1.7445
X2.6375Y-2.4945
X2.6625Y-0.9945
X2.6625Y-1.7445
X2.6625Y-2.4945
X2.825Y-0.9945
X2.825Y-1.7445
X2.825Y-2.4945
X2.85Y-0.9945
X2.85Y-1.7445
X2.85Y-2.4945
X3.0125Y-0.9945
X3.0125Y-1.7445
X3.0125Y-2.4945
X3.0375Y-0.9945
X3.0375Y-1.7445
X3.0375Y-2.4945
X3.2Y-0.9945
X3.2Y-1.7445
X3.2Y-2.4945
X3.225Y-0.9945
X3.225Y-1.7445
X3.225Y-2.4945
X3.3875Y-0.9945
X3.3875Y-1.7445
X3.3875Y-2.4945
X3.4125Y-0.9945
X3.4125Y-1.7445
X3.4125Y-2.4945
X3.575Y-0.9945
X3.575Y-1.7445
X3.575Y-2.4945
X3.6Y-0.9945
X3.6Y-1.7445
X3.6Y-2.4945
X3.7625Y-0.9945
X3.7625Y-1.7445
X3.7625Y-2.4945
X3.7875Y-0.9945
X3.7875Y-1.7445
X3.7875Y-2.4945
X3.95Y-0.9945
X3.95Y-1.7445
X3.95Y-2.4945
X3.975Y-0.9945
X3.975Y-1.7445
X3.975Y-2.4945
X4.1375Y-0.9945
X4.1375Y-1.7445
X4.1375Y-2.4945
X4.1625Y-0.9945
X4.1625Y-1.7445
X4.1625Y-2.4945
X4.325Y-0.9945
X4.325Y-1.7445
X4.325Y-2.4945
X4.35Y-0.9945
X4.35Y-1.7445
X4.35Y-2.4945
X4.5125Y-0.9945
X4.5125Y-1.7445
X4.5125Y-2.4945
X4.5375Y-0.9945
X4.5375Y-1.7445
X4.5375Y-2.4945
X4.7Y-0.9945
X4.7Y-1.7445
X4.7Y-2.4945
X4.725Y-0.9945
X4.725Y-1.7445
X4.725Y-2.4945
X4.8875Y-0.9945
X4.8875Y-1.7445
X4.8875Y-2.4945
X4.9125Y-0.9945
X4.9125Y-1.7445
X4.9125Y-2.4945
X5.075Y-0.9945
X5.075Y-1.7445
X5.075Y-2.4945
X5.1Y-0.9945
X5.1Y-1.7445
X5.1Y-2.4945
X5.2625Y-0.9945
X5.2625Y-1.7445
X5.2625Y-2.4945
X5.2875Y-0.9945
X5.2875Y-1.7445
X5.2875Y-2.4945
X5.45Y-0.9945
X5.45Y-1.7445
X5.45Y-2.4945
X5.475Y-0.9945
X5.475Y-1.7445
X5.475Y-2.4945
X5.6375Y-0.9945
X5.6375Y-1.7445
X5.6375Y-2.4945
X5.6625Y-0.9945
X5.6625Y-1.7445
X5.6625Y-2.4945
X5.825Y-0.9945
X5.825Y-1.7445
X5.825Y-2.4945
X5.85Y-0.9945
X5.85Y-1.7445
X5.85Y-2.4945
X6.0125Y-0.9945
X6.0125Y-1.7445
X6.0125Y-2.4945
X6.0375Y-0.9945
X6.0375Y-1.7445
X6.0375Y-2.4945
X6.2Y-0.9945
X6.2Y-1.7445
X6.2Y-2.4945
X6.225Y-0.9945
X6.225Y-1.7445
X6.225Y-2.4945
X6.3875Y-0.9945
X6.3875Y-1.7445
X6.3875Y-2.4945
X6.4125Y-0.9945
X6.4125Y-1.7445
X6.4125Y-2.4945
X6.575Y-0.9945
X6.575Y-1.7445
X6.575Y-2.4945
X6.6Y-0.9945
X6.6Y-1.7445
X6.6Y-2.4945
X6.7625Y-0.9945
X6.7625Y-1.7445
X6.7625Y-2.4945
X6.7875Y-0.9945
X6.7875Y-1.7445
X6.7875Y-2.4945
X6.95Y-0.9945
X6.95Y-1.7445
X6.95Y-2.4945
X6.975Y-0.9945
X6.975Y-1.7445
X6.975Y-2.4945
X7.1375Y-0.9945
X7.1375Y-1.7445
X7.1375Y-2.4945
X7.1625Y-0.9945
X7.1625Y-1.7445
X7.1625Y-2.4945
X7.325Y-0.9945
X7.325Y-1.7445
X7.325Y-2.4945
X7.35Y-0.9945
X7.35Y-1.7445
X7.35Y-2.4945
X7.5125Y-0.9945
X7.5125Y-1.7445
X7.5125Y-2.4945
X7.5375Y-0.9945
X7.5375Y-1.7445
X7.5375Y-2.4945
X7.7Y-0.9945
X7.7Y-1.7445
X7.7Y-2.4945
X7.725Y-0.9945
X7.725Y-1.7445
X7.725Y-2.4945
X7.8875Y-0.9945
X7.8875Y-1.7445
X7.8875Y-2.4945
X7.9125Y-0.9945
X7.9125Y-1.7445
X7.9125Y-2.4945
X8.075Y-0.9945
X8.075Y-1.7445
X8.075Y-2.4945
X8.1Y-0.9945
X8.1Y-1.7445
X8.1Y-2.4945
X8.2625Y-0.9945
X8.2625Y-1.7445
X8.2625Y-2.4945
X8.2875Y-0.9945
X8.2875Y-1.7445
X8.2875Y-2.4945
X8.45Y-0.9945
X8.45Y-1.7445
X8.45Y-2.4945
X8.475Y-0.9945
X8.475Y-1.7445
X8.475Y-2.4945
X8.6375Y-0.9945
X8.6375Y-1.7445
X8.6375Y-2.4945
X8.6625Y-0.9945
X8.6625Y-1.7445
X8.6625Y-2.4945
X8.825Y-0.9945
X8.825Y-1.7445
X8.825Y-2.4945
X8.85Y-0.9945
X8.85Y-1.7445
X8.85Y-2.4945
X9.0125Y-0.9945
X9.0125Y-1.7445
X9.0125Y-2.4945
X9.0375Y-0.9945
X9.0375Y-1.7445
X9.0375Y-2.4945
X9.2Y-0.9945
X9.2Y-1.7445
X9.2Y-2.4945
X9.225Y-0.9945
X9.225Y-1.7445
X9.225Y-2.4945
X9.4125Y-0.9945
X9.4125Y-1.7445
X9.4125Y-2.4945
X9.6Y-0.9945
X9.6Y-1.7445
X9.6Y-2.4945
T2
X1.15Y-0.9945
X1.15Y-1.7445
X1.15Y-2.4945
X1.3375Y-0.9945
X1.3375Y-1.7445
X1.3375Y-2.4945
X1.525Y-0.9945
X1.525Y-1.7445
X1.525Y-2.4945
X1.7125Y-0.9945
X1.7125Y-1.7445
X1.7125Y-2.4945
X1.9Y-0.9945
X1.9Y-1.7445
X1.9Y-2.4945
X2.0875Y-0.9945
X2.0875Y-1.7445
X2.0875Y-2.4945
X2.275Y-0.9945
X2.275Y-1.7445
X2.275Y-2.4945
X2.4625Y-0.9945
X2.4625Y-1.7445
X2.4625Y-2.4945
X2.65Y-0.9945
X2.65Y-1.7445
X2.65Y-2.4945
X2.8375Y-0.9945
X2.8375Y-1.7445
X2.8375Y-2.4945
X3.025Y-0.9945
X3.025Y-1.7445
X3.025Y-2.4945
X3.2125Y-0.9945
X3.2125Y-1.7445
X3.2125Y-2.4945
X3.4Y-0.9945
X3.4Y-1.7445
X3.4Y-2.4945
X3.5875Y-0.9945
X3.5875Y-1.7445
X3.5875Y-2.4945
X3.775Y-0.9945
X3.775Y-1.7445
X3.775Y-2.4945
X3.9625Y-0.9945
X3.9625Y-1.7445
X3.9625Y-2.4945
X4.15Y-0.9945
X4.15Y-1.7445
X4.15Y-2.4945
X4.3375Y-0.9945
X4.3375Y-1.7445
X4.3375Y-2.4945
X4.525Y-0.9945
X4.525Y-1.7445
X4.525Y-2.4945
X4.7125Y-0.9945
X4.7125Y-1.7445
X4.7125Y-2.4945
X4.9Y-0.9945
X4.9Y-1.7445
X4.9Y-2.4945
X5.0875Y-0.9945
X5.0875Y-1.7445
X5.0875Y-2.4945
X5.275Y-0.9945
X5.275Y-1.7445
X5.275Y-2.4945
X5.4625Y-0.9945
X5.4625Y-1.7445
X5.4625Y-2.4945
X5.65Y-0.9945
X5.65Y-1.7445
X5.65Y-2.4945
X5.8375Y-0.9945
X5.8375Y-1.7445
X5.8375Y-2.4945
X6.025Y-0.9945
X6.025Y-1.7445
X6.025Y-2.4945
X6.2125Y-0.9945
X6.2125Y-1.7445
X6.2125Y-2.4945
X6.4Y-0.9945
X6.4Y-1.7445
X6.4Y-2.4945
X6.5875Y-0.9945
X6.5875Y-1.7445
X6.5875Y-2.4945
X6.775Y-0.9945
X6.775Y-1.7445
X6.775Y-2.4945
X6.9625Y-0.9945
X6.9625Y-1.7445
X6.9625Y-2.4945
X7.15Y-0.9945
X7.15Y-1.7445
X7.15Y-2.4945
X7.3375Y-0.9945
X7.3375Y-1.7445
X7.3375Y-2.4945
X7.525Y-0.9945
X7.525Y-1.7445
X7.525Y-2.4945
X7.7125Y-0.9945
X7.7125Y-1.7445
X7.7125Y-2.4945
X7.9Y-0.9945
X7.9Y-1.7445
X7.9Y-2.4945
X8.0875Y-0.9945
X8.0875Y-1.7445
X8.0875Y-2.4945
X8.275Y-0.9945
X8.275Y-1.7445
X8.275Y-2.4945
X8.4625Y-0.9945
X8.4625Y-1.7445
X8.4625Y-2.4945
X8.65Y-0.9945
X8.65Y-1.7445
X8.65Y-2.4945
X8.8375Y-0.9945
X8.8375Y-1.7445
X8.8375Y-2.4945
X9.025Y-0.9945
X9.025Y-1.7445
X9.025Y-2.4945
X9.2125Y-0.9945
X9.2125Y-1.7445
X9.2125Y-2.4945
X9.4Y-0.9945
X9.4Y-1.7445
X9.4Y-2.4945
T0
M30
