%TF.GenerationSoftware,KiCad,Pcbnew,7.0.7*%
%TF.CreationDate,2023-09-15T12:25:27+10:00*%
%TF.ProjectId,fuckit,6675636b-6974-42e6-9b69-6361645f7063,rev?*%
%TF.SameCoordinates,Original*%
%TF.FileFunction,Drillmap*%
%TF.FilePolarity,Positive*%
%FSLAX45Y45*%
G04 Gerber Fmt 4.5, Leading zero omitted, Abs format (unit mm)*
G04 Created by KiCad (PCBNEW 7.0.7) date 2023-09-15 12:25:27*
%MOMM*%
%LPD*%
G01*
G04 APERTURE LIST*
%ADD10C,0.100000*%
%ADD11C,0.200000*%
%ADD12C,0.170000*%
%ADD13C,0.400000*%
G04 APERTURE END LIST*
D10*
X24834516Y-1867660D02*
X24834516Y-6992596D01*
X24534516Y-7292596D02*
X2264536Y-7292596D01*
X2264536Y-1567660D02*
X24534516Y-1567660D01*
X24534516Y-7292596D02*
G75*
G03*
X24834516Y-6992596I4J299996D01*
G01*
X2264536Y-1567660D02*
G75*
G03*
X1964536Y-1867660I0J-300000D01*
G01*
X1964536Y-6992596D02*
G75*
G03*
X2264536Y-7292596I300000J-1D01*
G01*
X1964536Y-6992596D02*
X1964536Y-1867660D01*
X24834510Y-1867660D02*
G75*
G03*
X24534516Y-1567660I-299990J10D01*
G01*
D11*
D12*
X2328006Y-2441115D02*
X2498006Y-2611115D01*
X2498006Y-2441115D02*
X2328006Y-2611115D01*
X2328006Y-4346115D02*
X2498006Y-4516115D01*
X2498006Y-4346115D02*
X2328006Y-4516115D01*
X2328006Y-6251115D02*
X2498006Y-6421115D01*
X2498006Y-6251115D02*
X2328006Y-6421115D01*
X2804256Y-2441115D02*
X2974256Y-2611115D01*
X2974256Y-2441115D02*
X2804256Y-2611115D01*
X2804256Y-4346115D02*
X2974256Y-4516115D01*
X2974256Y-4346115D02*
X2804256Y-4516115D01*
X2804256Y-6251115D02*
X2974256Y-6421115D01*
X2974256Y-6251115D02*
X2804256Y-6421115D01*
X3280506Y-2441115D02*
X3450506Y-2611115D01*
X3450506Y-2441115D02*
X3280506Y-2611115D01*
X3280506Y-4346115D02*
X3450506Y-4516115D01*
X3450506Y-4346115D02*
X3280506Y-4516115D01*
X3280506Y-6251115D02*
X3450506Y-6421115D01*
X3450506Y-6251115D02*
X3280506Y-6421115D01*
X3344006Y-2441115D02*
X3514006Y-2611115D01*
X3514006Y-2441115D02*
X3344006Y-2611115D01*
X3344006Y-4346115D02*
X3514006Y-4516115D01*
X3514006Y-4346115D02*
X3344006Y-4516115D01*
X3344006Y-6251115D02*
X3514006Y-6421115D01*
X3514006Y-6251115D02*
X3344006Y-6421115D01*
X3756756Y-2441115D02*
X3926756Y-2611115D01*
X3926756Y-2441115D02*
X3756756Y-2611115D01*
X3756756Y-4346115D02*
X3926756Y-4516115D01*
X3926756Y-4346115D02*
X3756756Y-4516115D01*
X3756756Y-6251115D02*
X3926756Y-6421115D01*
X3926756Y-6251115D02*
X3756756Y-6421115D01*
X3820256Y-2441115D02*
X3990256Y-2611115D01*
X3990256Y-2441115D02*
X3820256Y-2611115D01*
X3820256Y-4346115D02*
X3990256Y-4516115D01*
X3990256Y-4346115D02*
X3820256Y-4516115D01*
X3820256Y-6251115D02*
X3990256Y-6421115D01*
X3990256Y-6251115D02*
X3820256Y-6421115D01*
X4233006Y-2441115D02*
X4403006Y-2611115D01*
X4403006Y-2441115D02*
X4233006Y-2611115D01*
X4233006Y-4346115D02*
X4403006Y-4516115D01*
X4403006Y-4346115D02*
X4233006Y-4516115D01*
X4233006Y-6251115D02*
X4403006Y-6421115D01*
X4403006Y-6251115D02*
X4233006Y-6421115D01*
X4296506Y-2441115D02*
X4466506Y-2611115D01*
X4466506Y-2441115D02*
X4296506Y-2611115D01*
X4296506Y-4346115D02*
X4466506Y-4516115D01*
X4466506Y-4346115D02*
X4296506Y-4516115D01*
X4296506Y-6251115D02*
X4466506Y-6421115D01*
X4466506Y-6251115D02*
X4296506Y-6421115D01*
X4709256Y-2441115D02*
X4879256Y-2611115D01*
X4879256Y-2441115D02*
X4709256Y-2611115D01*
X4709256Y-4346115D02*
X4879256Y-4516115D01*
X4879256Y-4346115D02*
X4709256Y-4516115D01*
X4709256Y-6251115D02*
X4879256Y-6421115D01*
X4879256Y-6251115D02*
X4709256Y-6421115D01*
X4772756Y-2441115D02*
X4942756Y-2611115D01*
X4942756Y-2441115D02*
X4772756Y-2611115D01*
X4772756Y-4346115D02*
X4942756Y-4516115D01*
X4942756Y-4346115D02*
X4772756Y-4516115D01*
X4772756Y-6251115D02*
X4942756Y-6421115D01*
X4942756Y-6251115D02*
X4772756Y-6421115D01*
X5185506Y-2441115D02*
X5355506Y-2611115D01*
X5355506Y-2441115D02*
X5185506Y-2611115D01*
X5185506Y-4346115D02*
X5355506Y-4516115D01*
X5355506Y-4346115D02*
X5185506Y-4516115D01*
X5185506Y-6251115D02*
X5355506Y-6421115D01*
X5355506Y-6251115D02*
X5185506Y-6421115D01*
X5249006Y-2441115D02*
X5419006Y-2611115D01*
X5419006Y-2441115D02*
X5249006Y-2611115D01*
X5249006Y-4346115D02*
X5419006Y-4516115D01*
X5419006Y-4346115D02*
X5249006Y-4516115D01*
X5249006Y-6251115D02*
X5419006Y-6421115D01*
X5419006Y-6251115D02*
X5249006Y-6421115D01*
X5661756Y-2441115D02*
X5831756Y-2611115D01*
X5831756Y-2441115D02*
X5661756Y-2611115D01*
X5661756Y-4346115D02*
X5831756Y-4516115D01*
X5831756Y-4346115D02*
X5661756Y-4516115D01*
X5661756Y-6251115D02*
X5831756Y-6421115D01*
X5831756Y-6251115D02*
X5661756Y-6421115D01*
X5725256Y-2441115D02*
X5895256Y-2611115D01*
X5895256Y-2441115D02*
X5725256Y-2611115D01*
X5725256Y-4346115D02*
X5895256Y-4516115D01*
X5895256Y-4346115D02*
X5725256Y-4516115D01*
X5725256Y-6251115D02*
X5895256Y-6421115D01*
X5895256Y-6251115D02*
X5725256Y-6421115D01*
X6138006Y-2441115D02*
X6308006Y-2611115D01*
X6308006Y-2441115D02*
X6138006Y-2611115D01*
X6138006Y-4346115D02*
X6308006Y-4516115D01*
X6308006Y-4346115D02*
X6138006Y-4516115D01*
X6138006Y-6251115D02*
X6308006Y-6421115D01*
X6308006Y-6251115D02*
X6138006Y-6421115D01*
X6201506Y-2441115D02*
X6371506Y-2611115D01*
X6371506Y-2441115D02*
X6201506Y-2611115D01*
X6201506Y-4346115D02*
X6371506Y-4516115D01*
X6371506Y-4346115D02*
X6201506Y-4516115D01*
X6201506Y-6251115D02*
X6371506Y-6421115D01*
X6371506Y-6251115D02*
X6201506Y-6421115D01*
X6614256Y-2441115D02*
X6784256Y-2611115D01*
X6784256Y-2441115D02*
X6614256Y-2611115D01*
X6614256Y-4346115D02*
X6784256Y-4516115D01*
X6784256Y-4346115D02*
X6614256Y-4516115D01*
X6614256Y-6251115D02*
X6784256Y-6421115D01*
X6784256Y-6251115D02*
X6614256Y-6421115D01*
X6677756Y-2441115D02*
X6847756Y-2611115D01*
X6847756Y-2441115D02*
X6677756Y-2611115D01*
X6677756Y-4346115D02*
X6847756Y-4516115D01*
X6847756Y-4346115D02*
X6677756Y-4516115D01*
X6677756Y-6251115D02*
X6847756Y-6421115D01*
X6847756Y-6251115D02*
X6677756Y-6421115D01*
X7090506Y-2441115D02*
X7260506Y-2611115D01*
X7260506Y-2441115D02*
X7090506Y-2611115D01*
X7090506Y-4346115D02*
X7260506Y-4516115D01*
X7260506Y-4346115D02*
X7090506Y-4516115D01*
X7090506Y-6251115D02*
X7260506Y-6421115D01*
X7260506Y-6251115D02*
X7090506Y-6421115D01*
X7154006Y-2441115D02*
X7324006Y-2611115D01*
X7324006Y-2441115D02*
X7154006Y-2611115D01*
X7154006Y-4346115D02*
X7324006Y-4516115D01*
X7324006Y-4346115D02*
X7154006Y-4516115D01*
X7154006Y-6251115D02*
X7324006Y-6421115D01*
X7324006Y-6251115D02*
X7154006Y-6421115D01*
X7566756Y-2441115D02*
X7736756Y-2611115D01*
X7736756Y-2441115D02*
X7566756Y-2611115D01*
X7566756Y-4346115D02*
X7736756Y-4516115D01*
X7736756Y-4346115D02*
X7566756Y-4516115D01*
X7566756Y-6251115D02*
X7736756Y-6421115D01*
X7736756Y-6251115D02*
X7566756Y-6421115D01*
X7630256Y-2441115D02*
X7800256Y-2611115D01*
X7800256Y-2441115D02*
X7630256Y-2611115D01*
X7630256Y-4346115D02*
X7800256Y-4516115D01*
X7800256Y-4346115D02*
X7630256Y-4516115D01*
X7630256Y-6251115D02*
X7800256Y-6421115D01*
X7800256Y-6251115D02*
X7630256Y-6421115D01*
X8043006Y-2441115D02*
X8213006Y-2611115D01*
X8213006Y-2441115D02*
X8043006Y-2611115D01*
X8043006Y-4346115D02*
X8213006Y-4516115D01*
X8213006Y-4346115D02*
X8043006Y-4516115D01*
X8043006Y-6251115D02*
X8213006Y-6421115D01*
X8213006Y-6251115D02*
X8043006Y-6421115D01*
X8106506Y-2441115D02*
X8276506Y-2611115D01*
X8276506Y-2441115D02*
X8106506Y-2611115D01*
X8106506Y-4346115D02*
X8276506Y-4516115D01*
X8276506Y-4346115D02*
X8106506Y-4516115D01*
X8106506Y-6251115D02*
X8276506Y-6421115D01*
X8276506Y-6251115D02*
X8106506Y-6421115D01*
X8519256Y-2441115D02*
X8689256Y-2611115D01*
X8689256Y-2441115D02*
X8519256Y-2611115D01*
X8519256Y-4346115D02*
X8689256Y-4516115D01*
X8689256Y-4346115D02*
X8519256Y-4516115D01*
X8519256Y-6251115D02*
X8689256Y-6421115D01*
X8689256Y-6251115D02*
X8519256Y-6421115D01*
X8582756Y-2441115D02*
X8752756Y-2611115D01*
X8752756Y-2441115D02*
X8582756Y-2611115D01*
X8582756Y-4346115D02*
X8752756Y-4516115D01*
X8752756Y-4346115D02*
X8582756Y-4516115D01*
X8582756Y-6251115D02*
X8752756Y-6421115D01*
X8752756Y-6251115D02*
X8582756Y-6421115D01*
X8995506Y-2441115D02*
X9165506Y-2611115D01*
X9165506Y-2441115D02*
X8995506Y-2611115D01*
X8995506Y-4346115D02*
X9165506Y-4516115D01*
X9165506Y-4346115D02*
X8995506Y-4516115D01*
X8995506Y-6251115D02*
X9165506Y-6421115D01*
X9165506Y-6251115D02*
X8995506Y-6421115D01*
X9059006Y-2441115D02*
X9229006Y-2611115D01*
X9229006Y-2441115D02*
X9059006Y-2611115D01*
X9059006Y-4346115D02*
X9229006Y-4516115D01*
X9229006Y-4346115D02*
X9059006Y-4516115D01*
X9059006Y-6251115D02*
X9229006Y-6421115D01*
X9229006Y-6251115D02*
X9059006Y-6421115D01*
X9471756Y-2441115D02*
X9641756Y-2611115D01*
X9641756Y-2441115D02*
X9471756Y-2611115D01*
X9471756Y-4346115D02*
X9641756Y-4516115D01*
X9641756Y-4346115D02*
X9471756Y-4516115D01*
X9471756Y-6251115D02*
X9641756Y-6421115D01*
X9641756Y-6251115D02*
X9471756Y-6421115D01*
X9535256Y-2441115D02*
X9705256Y-2611115D01*
X9705256Y-2441115D02*
X9535256Y-2611115D01*
X9535256Y-4346115D02*
X9705256Y-4516115D01*
X9705256Y-4346115D02*
X9535256Y-4516115D01*
X9535256Y-6251115D02*
X9705256Y-6421115D01*
X9705256Y-6251115D02*
X9535256Y-6421115D01*
X9948006Y-2441115D02*
X10118006Y-2611115D01*
X10118006Y-2441115D02*
X9948006Y-2611115D01*
X9948006Y-4346115D02*
X10118006Y-4516115D01*
X10118006Y-4346115D02*
X9948006Y-4516115D01*
X9948006Y-6251115D02*
X10118006Y-6421115D01*
X10118006Y-6251115D02*
X9948006Y-6421115D01*
X10011506Y-2441115D02*
X10181506Y-2611115D01*
X10181506Y-2441115D02*
X10011506Y-2611115D01*
X10011506Y-4346115D02*
X10181506Y-4516115D01*
X10181506Y-4346115D02*
X10011506Y-4516115D01*
X10011506Y-6251115D02*
X10181506Y-6421115D01*
X10181506Y-6251115D02*
X10011506Y-6421115D01*
X10424256Y-2441115D02*
X10594256Y-2611115D01*
X10594256Y-2441115D02*
X10424256Y-2611115D01*
X10424256Y-4346115D02*
X10594256Y-4516115D01*
X10594256Y-4346115D02*
X10424256Y-4516115D01*
X10424256Y-6251115D02*
X10594256Y-6421115D01*
X10594256Y-6251115D02*
X10424256Y-6421115D01*
X10487756Y-2441115D02*
X10657756Y-2611115D01*
X10657756Y-2441115D02*
X10487756Y-2611115D01*
X10487756Y-4346115D02*
X10657756Y-4516115D01*
X10657756Y-4346115D02*
X10487756Y-4516115D01*
X10487756Y-6251115D02*
X10657756Y-6421115D01*
X10657756Y-6251115D02*
X10487756Y-6421115D01*
X10900506Y-2441115D02*
X11070506Y-2611115D01*
X11070506Y-2441115D02*
X10900506Y-2611115D01*
X10900506Y-4346115D02*
X11070506Y-4516115D01*
X11070506Y-4346115D02*
X10900506Y-4516115D01*
X10900506Y-6251115D02*
X11070506Y-6421115D01*
X11070506Y-6251115D02*
X10900506Y-6421115D01*
X10964006Y-2441115D02*
X11134006Y-2611115D01*
X11134006Y-2441115D02*
X10964006Y-2611115D01*
X10964006Y-4346115D02*
X11134006Y-4516115D01*
X11134006Y-4346115D02*
X10964006Y-4516115D01*
X10964006Y-6251115D02*
X11134006Y-6421115D01*
X11134006Y-6251115D02*
X10964006Y-6421115D01*
X11376756Y-2441115D02*
X11546756Y-2611115D01*
X11546756Y-2441115D02*
X11376756Y-2611115D01*
X11376756Y-4346115D02*
X11546756Y-4516115D01*
X11546756Y-4346115D02*
X11376756Y-4516115D01*
X11376756Y-6251115D02*
X11546756Y-6421115D01*
X11546756Y-6251115D02*
X11376756Y-6421115D01*
X11440256Y-2441115D02*
X11610256Y-2611115D01*
X11610256Y-2441115D02*
X11440256Y-2611115D01*
X11440256Y-4346115D02*
X11610256Y-4516115D01*
X11610256Y-4346115D02*
X11440256Y-4516115D01*
X11440256Y-6251115D02*
X11610256Y-6421115D01*
X11610256Y-6251115D02*
X11440256Y-6421115D01*
X11853006Y-2441115D02*
X12023006Y-2611115D01*
X12023006Y-2441115D02*
X11853006Y-2611115D01*
X11853006Y-4346115D02*
X12023006Y-4516115D01*
X12023006Y-4346115D02*
X11853006Y-4516115D01*
X11853006Y-6251115D02*
X12023006Y-6421115D01*
X12023006Y-6251115D02*
X11853006Y-6421115D01*
X11916506Y-2441115D02*
X12086506Y-2611115D01*
X12086506Y-2441115D02*
X11916506Y-2611115D01*
X11916506Y-4346115D02*
X12086506Y-4516115D01*
X12086506Y-4346115D02*
X11916506Y-4516115D01*
X11916506Y-6251115D02*
X12086506Y-6421115D01*
X12086506Y-6251115D02*
X11916506Y-6421115D01*
X12329256Y-2441115D02*
X12499256Y-2611115D01*
X12499256Y-2441115D02*
X12329256Y-2611115D01*
X12329256Y-4346115D02*
X12499256Y-4516115D01*
X12499256Y-4346115D02*
X12329256Y-4516115D01*
X12329256Y-6251115D02*
X12499256Y-6421115D01*
X12499256Y-6251115D02*
X12329256Y-6421115D01*
X12392756Y-2441115D02*
X12562756Y-2611115D01*
X12562756Y-2441115D02*
X12392756Y-2611115D01*
X12392756Y-4346115D02*
X12562756Y-4516115D01*
X12562756Y-4346115D02*
X12392756Y-4516115D01*
X12392756Y-6251115D02*
X12562756Y-6421115D01*
X12562756Y-6251115D02*
X12392756Y-6421115D01*
X12805506Y-2441115D02*
X12975506Y-2611115D01*
X12975506Y-2441115D02*
X12805506Y-2611115D01*
X12805506Y-4346115D02*
X12975506Y-4516115D01*
X12975506Y-4346115D02*
X12805506Y-4516115D01*
X12805506Y-6251115D02*
X12975506Y-6421115D01*
X12975506Y-6251115D02*
X12805506Y-6421115D01*
X12869006Y-2441115D02*
X13039006Y-2611115D01*
X13039006Y-2441115D02*
X12869006Y-2611115D01*
X12869006Y-4346115D02*
X13039006Y-4516115D01*
X13039006Y-4346115D02*
X12869006Y-4516115D01*
X12869006Y-6251115D02*
X13039006Y-6421115D01*
X13039006Y-6251115D02*
X12869006Y-6421115D01*
X13281756Y-2441115D02*
X13451756Y-2611115D01*
X13451756Y-2441115D02*
X13281756Y-2611115D01*
X13281756Y-4346115D02*
X13451756Y-4516115D01*
X13451756Y-4346115D02*
X13281756Y-4516115D01*
X13281756Y-6251115D02*
X13451756Y-6421115D01*
X13451756Y-6251115D02*
X13281756Y-6421115D01*
X13345256Y-2441115D02*
X13515256Y-2611115D01*
X13515256Y-2441115D02*
X13345256Y-2611115D01*
X13345256Y-4346115D02*
X13515256Y-4516115D01*
X13515256Y-4346115D02*
X13345256Y-4516115D01*
X13345256Y-6251115D02*
X13515256Y-6421115D01*
X13515256Y-6251115D02*
X13345256Y-6421115D01*
X13758006Y-2441115D02*
X13928006Y-2611115D01*
X13928006Y-2441115D02*
X13758006Y-2611115D01*
X13758006Y-4346115D02*
X13928006Y-4516115D01*
X13928006Y-4346115D02*
X13758006Y-4516115D01*
X13758006Y-6251115D02*
X13928006Y-6421115D01*
X13928006Y-6251115D02*
X13758006Y-6421115D01*
X13821506Y-2441115D02*
X13991506Y-2611115D01*
X13991506Y-2441115D02*
X13821506Y-2611115D01*
X13821506Y-4346115D02*
X13991506Y-4516115D01*
X13991506Y-4346115D02*
X13821506Y-4516115D01*
X13821506Y-6251115D02*
X13991506Y-6421115D01*
X13991506Y-6251115D02*
X13821506Y-6421115D01*
X14234256Y-2441115D02*
X14404256Y-2611115D01*
X14404256Y-2441115D02*
X14234256Y-2611115D01*
X14234256Y-4346115D02*
X14404256Y-4516115D01*
X14404256Y-4346115D02*
X14234256Y-4516115D01*
X14234256Y-6251115D02*
X14404256Y-6421115D01*
X14404256Y-6251115D02*
X14234256Y-6421115D01*
X14297756Y-2441115D02*
X14467756Y-2611115D01*
X14467756Y-2441115D02*
X14297756Y-2611115D01*
X14297756Y-4346115D02*
X14467756Y-4516115D01*
X14467756Y-4346115D02*
X14297756Y-4516115D01*
X14297756Y-6251115D02*
X14467756Y-6421115D01*
X14467756Y-6251115D02*
X14297756Y-6421115D01*
X14710506Y-2441115D02*
X14880506Y-2611115D01*
X14880506Y-2441115D02*
X14710506Y-2611115D01*
X14710506Y-4346115D02*
X14880506Y-4516115D01*
X14880506Y-4346115D02*
X14710506Y-4516115D01*
X14710506Y-6251115D02*
X14880506Y-6421115D01*
X14880506Y-6251115D02*
X14710506Y-6421115D01*
X14774006Y-2441115D02*
X14944006Y-2611115D01*
X14944006Y-2441115D02*
X14774006Y-2611115D01*
X14774006Y-4346115D02*
X14944006Y-4516115D01*
X14944006Y-4346115D02*
X14774006Y-4516115D01*
X14774006Y-6251115D02*
X14944006Y-6421115D01*
X14944006Y-6251115D02*
X14774006Y-6421115D01*
X15186756Y-2441115D02*
X15356756Y-2611115D01*
X15356756Y-2441115D02*
X15186756Y-2611115D01*
X15186756Y-4346115D02*
X15356756Y-4516115D01*
X15356756Y-4346115D02*
X15186756Y-4516115D01*
X15186756Y-6251115D02*
X15356756Y-6421115D01*
X15356756Y-6251115D02*
X15186756Y-6421115D01*
X15250256Y-2441115D02*
X15420256Y-2611115D01*
X15420256Y-2441115D02*
X15250256Y-2611115D01*
X15250256Y-4346115D02*
X15420256Y-4516115D01*
X15420256Y-4346115D02*
X15250256Y-4516115D01*
X15250256Y-6251115D02*
X15420256Y-6421115D01*
X15420256Y-6251115D02*
X15250256Y-6421115D01*
X15663006Y-2441115D02*
X15833006Y-2611115D01*
X15833006Y-2441115D02*
X15663006Y-2611115D01*
X15663006Y-4346115D02*
X15833006Y-4516115D01*
X15833006Y-4346115D02*
X15663006Y-4516115D01*
X15663006Y-6251115D02*
X15833006Y-6421115D01*
X15833006Y-6251115D02*
X15663006Y-6421115D01*
X15726506Y-2441115D02*
X15896506Y-2611115D01*
X15896506Y-2441115D02*
X15726506Y-2611115D01*
X15726506Y-4346115D02*
X15896506Y-4516115D01*
X15896506Y-4346115D02*
X15726506Y-4516115D01*
X15726506Y-6251115D02*
X15896506Y-6421115D01*
X15896506Y-6251115D02*
X15726506Y-6421115D01*
X16139256Y-2441115D02*
X16309256Y-2611115D01*
X16309256Y-2441115D02*
X16139256Y-2611115D01*
X16139256Y-4346115D02*
X16309256Y-4516115D01*
X16309256Y-4346115D02*
X16139256Y-4516115D01*
X16139256Y-6251115D02*
X16309256Y-6421115D01*
X16309256Y-6251115D02*
X16139256Y-6421115D01*
X16202756Y-2441115D02*
X16372756Y-2611115D01*
X16372756Y-2441115D02*
X16202756Y-2611115D01*
X16202756Y-4346115D02*
X16372756Y-4516115D01*
X16372756Y-4346115D02*
X16202756Y-4516115D01*
X16202756Y-6251115D02*
X16372756Y-6421115D01*
X16372756Y-6251115D02*
X16202756Y-6421115D01*
X16615506Y-2441115D02*
X16785506Y-2611115D01*
X16785506Y-2441115D02*
X16615506Y-2611115D01*
X16615506Y-4346115D02*
X16785506Y-4516115D01*
X16785506Y-4346115D02*
X16615506Y-4516115D01*
X16615506Y-6251115D02*
X16785506Y-6421115D01*
X16785506Y-6251115D02*
X16615506Y-6421115D01*
X16679006Y-2441115D02*
X16849006Y-2611115D01*
X16849006Y-2441115D02*
X16679006Y-2611115D01*
X16679006Y-4346115D02*
X16849006Y-4516115D01*
X16849006Y-4346115D02*
X16679006Y-4516115D01*
X16679006Y-6251115D02*
X16849006Y-6421115D01*
X16849006Y-6251115D02*
X16679006Y-6421115D01*
X17091756Y-2441115D02*
X17261756Y-2611115D01*
X17261756Y-2441115D02*
X17091756Y-2611115D01*
X17091756Y-4346115D02*
X17261756Y-4516115D01*
X17261756Y-4346115D02*
X17091756Y-4516115D01*
X17091756Y-6251115D02*
X17261756Y-6421115D01*
X17261756Y-6251115D02*
X17091756Y-6421115D01*
X17155256Y-2441115D02*
X17325256Y-2611115D01*
X17325256Y-2441115D02*
X17155256Y-2611115D01*
X17155256Y-4346115D02*
X17325256Y-4516115D01*
X17325256Y-4346115D02*
X17155256Y-4516115D01*
X17155256Y-6251115D02*
X17325256Y-6421115D01*
X17325256Y-6251115D02*
X17155256Y-6421115D01*
X17568006Y-2441115D02*
X17738006Y-2611115D01*
X17738006Y-2441115D02*
X17568006Y-2611115D01*
X17568006Y-4346115D02*
X17738006Y-4516115D01*
X17738006Y-4346115D02*
X17568006Y-4516115D01*
X17568006Y-6251115D02*
X17738006Y-6421115D01*
X17738006Y-6251115D02*
X17568006Y-6421115D01*
X17631506Y-2441115D02*
X17801506Y-2611115D01*
X17801506Y-2441115D02*
X17631506Y-2611115D01*
X17631506Y-4346115D02*
X17801506Y-4516115D01*
X17801506Y-4346115D02*
X17631506Y-4516115D01*
X17631506Y-6251115D02*
X17801506Y-6421115D01*
X17801506Y-6251115D02*
X17631506Y-6421115D01*
X18044256Y-2441115D02*
X18214256Y-2611115D01*
X18214256Y-2441115D02*
X18044256Y-2611115D01*
X18044256Y-4346115D02*
X18214256Y-4516115D01*
X18214256Y-4346115D02*
X18044256Y-4516115D01*
X18044256Y-6251115D02*
X18214256Y-6421115D01*
X18214256Y-6251115D02*
X18044256Y-6421115D01*
X18107756Y-2441115D02*
X18277756Y-2611115D01*
X18277756Y-2441115D02*
X18107756Y-2611115D01*
X18107756Y-4346115D02*
X18277756Y-4516115D01*
X18277756Y-4346115D02*
X18107756Y-4516115D01*
X18107756Y-6251115D02*
X18277756Y-6421115D01*
X18277756Y-6251115D02*
X18107756Y-6421115D01*
X18520506Y-2441115D02*
X18690506Y-2611115D01*
X18690506Y-2441115D02*
X18520506Y-2611115D01*
X18520506Y-4346115D02*
X18690506Y-4516115D01*
X18690506Y-4346115D02*
X18520506Y-4516115D01*
X18520506Y-6251115D02*
X18690506Y-6421115D01*
X18690506Y-6251115D02*
X18520506Y-6421115D01*
X18584006Y-2441115D02*
X18754006Y-2611115D01*
X18754006Y-2441115D02*
X18584006Y-2611115D01*
X18584006Y-4346115D02*
X18754006Y-4516115D01*
X18754006Y-4346115D02*
X18584006Y-4516115D01*
X18584006Y-6251115D02*
X18754006Y-6421115D01*
X18754006Y-6251115D02*
X18584006Y-6421115D01*
X18996756Y-2441115D02*
X19166756Y-2611115D01*
X19166756Y-2441115D02*
X18996756Y-2611115D01*
X18996756Y-4346115D02*
X19166756Y-4516115D01*
X19166756Y-4346115D02*
X18996756Y-4516115D01*
X18996756Y-6251115D02*
X19166756Y-6421115D01*
X19166756Y-6251115D02*
X18996756Y-6421115D01*
X19060256Y-2441115D02*
X19230256Y-2611115D01*
X19230256Y-2441115D02*
X19060256Y-2611115D01*
X19060256Y-4346115D02*
X19230256Y-4516115D01*
X19230256Y-4346115D02*
X19060256Y-4516115D01*
X19060256Y-6251115D02*
X19230256Y-6421115D01*
X19230256Y-6251115D02*
X19060256Y-6421115D01*
X19473006Y-2441115D02*
X19643006Y-2611115D01*
X19643006Y-2441115D02*
X19473006Y-2611115D01*
X19473006Y-4346115D02*
X19643006Y-4516115D01*
X19643006Y-4346115D02*
X19473006Y-4516115D01*
X19473006Y-6251115D02*
X19643006Y-6421115D01*
X19643006Y-6251115D02*
X19473006Y-6421115D01*
X19536506Y-2441115D02*
X19706506Y-2611115D01*
X19706506Y-2441115D02*
X19536506Y-2611115D01*
X19536506Y-4346115D02*
X19706506Y-4516115D01*
X19706506Y-4346115D02*
X19536506Y-4516115D01*
X19536506Y-6251115D02*
X19706506Y-6421115D01*
X19706506Y-6251115D02*
X19536506Y-6421115D01*
X19949256Y-2441115D02*
X20119256Y-2611115D01*
X20119256Y-2441115D02*
X19949256Y-2611115D01*
X19949256Y-4346115D02*
X20119256Y-4516115D01*
X20119256Y-4346115D02*
X19949256Y-4516115D01*
X19949256Y-6251115D02*
X20119256Y-6421115D01*
X20119256Y-6251115D02*
X19949256Y-6421115D01*
X20012756Y-2441115D02*
X20182756Y-2611115D01*
X20182756Y-2441115D02*
X20012756Y-2611115D01*
X20012756Y-4346115D02*
X20182756Y-4516115D01*
X20182756Y-4346115D02*
X20012756Y-4516115D01*
X20012756Y-6251115D02*
X20182756Y-6421115D01*
X20182756Y-6251115D02*
X20012756Y-6421115D01*
X20425506Y-2441115D02*
X20595506Y-2611115D01*
X20595506Y-2441115D02*
X20425506Y-2611115D01*
X20425506Y-4346115D02*
X20595506Y-4516115D01*
X20595506Y-4346115D02*
X20425506Y-4516115D01*
X20425506Y-6251115D02*
X20595506Y-6421115D01*
X20595506Y-6251115D02*
X20425506Y-6421115D01*
X20489006Y-2441115D02*
X20659006Y-2611115D01*
X20659006Y-2441115D02*
X20489006Y-2611115D01*
X20489006Y-4346115D02*
X20659006Y-4516115D01*
X20659006Y-4346115D02*
X20489006Y-4516115D01*
X20489006Y-6251115D02*
X20659006Y-6421115D01*
X20659006Y-6251115D02*
X20489006Y-6421115D01*
X20901756Y-2441115D02*
X21071756Y-2611115D01*
X21071756Y-2441115D02*
X20901756Y-2611115D01*
X20901756Y-4346115D02*
X21071756Y-4516115D01*
X21071756Y-4346115D02*
X20901756Y-4516115D01*
X20901756Y-6251115D02*
X21071756Y-6421115D01*
X21071756Y-6251115D02*
X20901756Y-6421115D01*
X20965256Y-2441115D02*
X21135256Y-2611115D01*
X21135256Y-2441115D02*
X20965256Y-2611115D01*
X20965256Y-4346115D02*
X21135256Y-4516115D01*
X21135256Y-4346115D02*
X20965256Y-4516115D01*
X20965256Y-6251115D02*
X21135256Y-6421115D01*
X21135256Y-6251115D02*
X20965256Y-6421115D01*
X21378006Y-2441115D02*
X21548006Y-2611115D01*
X21548006Y-2441115D02*
X21378006Y-2611115D01*
X21378006Y-4346115D02*
X21548006Y-4516115D01*
X21548006Y-4346115D02*
X21378006Y-4516115D01*
X21378006Y-6251115D02*
X21548006Y-6421115D01*
X21548006Y-6251115D02*
X21378006Y-6421115D01*
X21441506Y-2441115D02*
X21611506Y-2611115D01*
X21611506Y-2441115D02*
X21441506Y-2611115D01*
X21441506Y-4346115D02*
X21611506Y-4516115D01*
X21611506Y-4346115D02*
X21441506Y-4516115D01*
X21441506Y-6251115D02*
X21611506Y-6421115D01*
X21611506Y-6251115D02*
X21441506Y-6421115D01*
X21854256Y-2441115D02*
X22024256Y-2611115D01*
X22024256Y-2441115D02*
X21854256Y-2611115D01*
X21854256Y-4346115D02*
X22024256Y-4516115D01*
X22024256Y-4346115D02*
X21854256Y-4516115D01*
X21854256Y-6251115D02*
X22024256Y-6421115D01*
X22024256Y-6251115D02*
X21854256Y-6421115D01*
X21917756Y-2441115D02*
X22087756Y-2611115D01*
X22087756Y-2441115D02*
X21917756Y-2611115D01*
X21917756Y-4346115D02*
X22087756Y-4516115D01*
X22087756Y-4346115D02*
X21917756Y-4516115D01*
X21917756Y-6251115D02*
X22087756Y-6421115D01*
X22087756Y-6251115D02*
X21917756Y-6421115D01*
X22330506Y-2441115D02*
X22500506Y-2611115D01*
X22500506Y-2441115D02*
X22330506Y-2611115D01*
X22330506Y-4346115D02*
X22500506Y-4516115D01*
X22500506Y-4346115D02*
X22330506Y-4516115D01*
X22330506Y-6251115D02*
X22500506Y-6421115D01*
X22500506Y-6251115D02*
X22330506Y-6421115D01*
X22394006Y-2441115D02*
X22564006Y-2611115D01*
X22564006Y-2441115D02*
X22394006Y-2611115D01*
X22394006Y-4346115D02*
X22564006Y-4516115D01*
X22564006Y-4346115D02*
X22394006Y-4516115D01*
X22394006Y-6251115D02*
X22564006Y-6421115D01*
X22564006Y-6251115D02*
X22394006Y-6421115D01*
X22806756Y-2441115D02*
X22976756Y-2611115D01*
X22976756Y-2441115D02*
X22806756Y-2611115D01*
X22806756Y-4346115D02*
X22976756Y-4516115D01*
X22976756Y-4346115D02*
X22806756Y-4516115D01*
X22806756Y-6251115D02*
X22976756Y-6421115D01*
X22976756Y-6251115D02*
X22806756Y-6421115D01*
X22870256Y-2441115D02*
X23040256Y-2611115D01*
X23040256Y-2441115D02*
X22870256Y-2611115D01*
X22870256Y-4346115D02*
X23040256Y-4516115D01*
X23040256Y-4346115D02*
X22870256Y-4516115D01*
X22870256Y-6251115D02*
X23040256Y-6421115D01*
X23040256Y-6251115D02*
X22870256Y-6421115D01*
X23283006Y-2441115D02*
X23453006Y-2611115D01*
X23453006Y-2441115D02*
X23283006Y-2611115D01*
X23283006Y-4346115D02*
X23453006Y-4516115D01*
X23453006Y-4346115D02*
X23283006Y-4516115D01*
X23283006Y-6251115D02*
X23453006Y-6421115D01*
X23453006Y-6251115D02*
X23283006Y-6421115D01*
X23346506Y-2441115D02*
X23516506Y-2611115D01*
X23516506Y-2441115D02*
X23346506Y-2611115D01*
X23346506Y-4346115D02*
X23516506Y-4516115D01*
X23516506Y-4346115D02*
X23346506Y-4516115D01*
X23346506Y-6251115D02*
X23516506Y-6421115D01*
X23516506Y-6251115D02*
X23346506Y-6421115D01*
X23822756Y-2441115D02*
X23992756Y-2611115D01*
X23992756Y-2441115D02*
X23822756Y-2611115D01*
X23822756Y-4346115D02*
X23992756Y-4516115D01*
X23992756Y-4346115D02*
X23822756Y-4516115D01*
X23822756Y-6251115D02*
X23992756Y-6421115D01*
X23992756Y-6251115D02*
X23822756Y-6421115D01*
X24299006Y-2441115D02*
X24469006Y-2611115D01*
X24469006Y-2441115D02*
X24299006Y-2611115D01*
X24299006Y-4346115D02*
X24469006Y-4516115D01*
X24469006Y-4346115D02*
X24299006Y-4516115D01*
X24299006Y-6251115D02*
X24469006Y-6421115D01*
X24469006Y-6251115D02*
X24299006Y-6421115D01*
D13*
X3121006Y-2526115D02*
G75*
G03*
X3121006Y-2526115I-200000J0D01*
G01*
X3121006Y-4431115D02*
G75*
G03*
X3121006Y-4431115I-200000J0D01*
G01*
X3121006Y-6336115D02*
G75*
G03*
X3121006Y-6336115I-200000J0D01*
G01*
X3597256Y-2526115D02*
G75*
G03*
X3597256Y-2526115I-200000J0D01*
G01*
X3597256Y-4431115D02*
G75*
G03*
X3597256Y-4431115I-200000J0D01*
G01*
X3597256Y-6336115D02*
G75*
G03*
X3597256Y-6336115I-200000J0D01*
G01*
X4073506Y-2526115D02*
G75*
G03*
X4073506Y-2526115I-200000J0D01*
G01*
X4073506Y-4431115D02*
G75*
G03*
X4073506Y-4431115I-200000J0D01*
G01*
X4073506Y-6336115D02*
G75*
G03*
X4073506Y-6336115I-200000J0D01*
G01*
X4549756Y-2526115D02*
G75*
G03*
X4549756Y-2526115I-200000J0D01*
G01*
X4549756Y-4431115D02*
G75*
G03*
X4549756Y-4431115I-200000J0D01*
G01*
X4549756Y-6336115D02*
G75*
G03*
X4549756Y-6336115I-200000J0D01*
G01*
X5026006Y-2526115D02*
G75*
G03*
X5026006Y-2526115I-200000J0D01*
G01*
X5026006Y-4431115D02*
G75*
G03*
X5026006Y-4431115I-200000J0D01*
G01*
X5026006Y-6336115D02*
G75*
G03*
X5026006Y-6336115I-200000J0D01*
G01*
X5502256Y-2526115D02*
G75*
G03*
X5502256Y-2526115I-200000J0D01*
G01*
X5502256Y-4431115D02*
G75*
G03*
X5502256Y-4431115I-200000J0D01*
G01*
X5502256Y-6336115D02*
G75*
G03*
X5502256Y-6336115I-200000J0D01*
G01*
X5978506Y-2526115D02*
G75*
G03*
X5978506Y-2526115I-200000J0D01*
G01*
X5978506Y-4431115D02*
G75*
G03*
X5978506Y-4431115I-200000J0D01*
G01*
X5978506Y-6336115D02*
G75*
G03*
X5978506Y-6336115I-200000J0D01*
G01*
X6454756Y-2526115D02*
G75*
G03*
X6454756Y-2526115I-200000J0D01*
G01*
X6454756Y-4431115D02*
G75*
G03*
X6454756Y-4431115I-200000J0D01*
G01*
X6454756Y-6336115D02*
G75*
G03*
X6454756Y-6336115I-200000J0D01*
G01*
X6931006Y-2526115D02*
G75*
G03*
X6931006Y-2526115I-200000J0D01*
G01*
X6931006Y-4431115D02*
G75*
G03*
X6931006Y-4431115I-200000J0D01*
G01*
X6931006Y-6336115D02*
G75*
G03*
X6931006Y-6336115I-200000J0D01*
G01*
X7407256Y-2526115D02*
G75*
G03*
X7407256Y-2526115I-200000J0D01*
G01*
X7407256Y-4431115D02*
G75*
G03*
X7407256Y-4431115I-200000J0D01*
G01*
X7407256Y-6336115D02*
G75*
G03*
X7407256Y-6336115I-200000J0D01*
G01*
X7883506Y-2526115D02*
G75*
G03*
X7883506Y-2526115I-200000J0D01*
G01*
X7883506Y-4431115D02*
G75*
G03*
X7883506Y-4431115I-200000J0D01*
G01*
X7883506Y-6336115D02*
G75*
G03*
X7883506Y-6336115I-200000J0D01*
G01*
X8359756Y-2526115D02*
G75*
G03*
X8359756Y-2526115I-200000J0D01*
G01*
X8359756Y-4431115D02*
G75*
G03*
X8359756Y-4431115I-200000J0D01*
G01*
X8359756Y-6336115D02*
G75*
G03*
X8359756Y-6336115I-200000J0D01*
G01*
X8836006Y-2526115D02*
G75*
G03*
X8836006Y-2526115I-200000J0D01*
G01*
X8836006Y-4431115D02*
G75*
G03*
X8836006Y-4431115I-200000J0D01*
G01*
X8836006Y-6336115D02*
G75*
G03*
X8836006Y-6336115I-200000J0D01*
G01*
X9312256Y-2526115D02*
G75*
G03*
X9312256Y-2526115I-200000J0D01*
G01*
X9312256Y-4431115D02*
G75*
G03*
X9312256Y-4431115I-200000J0D01*
G01*
X9312256Y-6336115D02*
G75*
G03*
X9312256Y-6336115I-200000J0D01*
G01*
X9788506Y-2526115D02*
G75*
G03*
X9788506Y-2526115I-200000J0D01*
G01*
X9788506Y-4431115D02*
G75*
G03*
X9788506Y-4431115I-200000J0D01*
G01*
X9788506Y-6336115D02*
G75*
G03*
X9788506Y-6336115I-200000J0D01*
G01*
X10264756Y-2526115D02*
G75*
G03*
X10264756Y-2526115I-200000J0D01*
G01*
X10264756Y-4431115D02*
G75*
G03*
X10264756Y-4431115I-200000J0D01*
G01*
X10264756Y-6336115D02*
G75*
G03*
X10264756Y-6336115I-200000J0D01*
G01*
X10741006Y-2526115D02*
G75*
G03*
X10741006Y-2526115I-200000J0D01*
G01*
X10741006Y-4431115D02*
G75*
G03*
X10741006Y-4431115I-200000J0D01*
G01*
X10741006Y-6336115D02*
G75*
G03*
X10741006Y-6336115I-200000J0D01*
G01*
X11217256Y-2526115D02*
G75*
G03*
X11217256Y-2526115I-200000J0D01*
G01*
X11217256Y-4431115D02*
G75*
G03*
X11217256Y-4431115I-200000J0D01*
G01*
X11217256Y-6336115D02*
G75*
G03*
X11217256Y-6336115I-200000J0D01*
G01*
X11693506Y-2526115D02*
G75*
G03*
X11693506Y-2526115I-200000J0D01*
G01*
X11693506Y-4431115D02*
G75*
G03*
X11693506Y-4431115I-200000J0D01*
G01*
X11693506Y-6336115D02*
G75*
G03*
X11693506Y-6336115I-200000J0D01*
G01*
X12169756Y-2526115D02*
G75*
G03*
X12169756Y-2526115I-200000J0D01*
G01*
X12169756Y-4431115D02*
G75*
G03*
X12169756Y-4431115I-200000J0D01*
G01*
X12169756Y-6336115D02*
G75*
G03*
X12169756Y-6336115I-200000J0D01*
G01*
X12646006Y-2526115D02*
G75*
G03*
X12646006Y-2526115I-200000J0D01*
G01*
X12646006Y-4431115D02*
G75*
G03*
X12646006Y-4431115I-200000J0D01*
G01*
X12646006Y-6336115D02*
G75*
G03*
X12646006Y-6336115I-200000J0D01*
G01*
X13122256Y-2526115D02*
G75*
G03*
X13122256Y-2526115I-200000J0D01*
G01*
X13122256Y-4431115D02*
G75*
G03*
X13122256Y-4431115I-200000J0D01*
G01*
X13122256Y-6336115D02*
G75*
G03*
X13122256Y-6336115I-200000J0D01*
G01*
X13598506Y-2526115D02*
G75*
G03*
X13598506Y-2526115I-200000J0D01*
G01*
X13598506Y-4431115D02*
G75*
G03*
X13598506Y-4431115I-200000J0D01*
G01*
X13598506Y-6336115D02*
G75*
G03*
X13598506Y-6336115I-200000J0D01*
G01*
X14074756Y-2526115D02*
G75*
G03*
X14074756Y-2526115I-200000J0D01*
G01*
X14074756Y-4431115D02*
G75*
G03*
X14074756Y-4431115I-200000J0D01*
G01*
X14074756Y-6336115D02*
G75*
G03*
X14074756Y-6336115I-200000J0D01*
G01*
X14551006Y-2526115D02*
G75*
G03*
X14551006Y-2526115I-200000J0D01*
G01*
X14551006Y-4431115D02*
G75*
G03*
X14551006Y-4431115I-200000J0D01*
G01*
X14551006Y-6336115D02*
G75*
G03*
X14551006Y-6336115I-200000J0D01*
G01*
X15027256Y-2526115D02*
G75*
G03*
X15027256Y-2526115I-200000J0D01*
G01*
X15027256Y-4431115D02*
G75*
G03*
X15027256Y-4431115I-200000J0D01*
G01*
X15027256Y-6336115D02*
G75*
G03*
X15027256Y-6336115I-200000J0D01*
G01*
X15503506Y-2526115D02*
G75*
G03*
X15503506Y-2526115I-200000J0D01*
G01*
X15503506Y-4431115D02*
G75*
G03*
X15503506Y-4431115I-200000J0D01*
G01*
X15503506Y-6336115D02*
G75*
G03*
X15503506Y-6336115I-200000J0D01*
G01*
X15979756Y-2526115D02*
G75*
G03*
X15979756Y-2526115I-200000J0D01*
G01*
X15979756Y-4431115D02*
G75*
G03*
X15979756Y-4431115I-200000J0D01*
G01*
X15979756Y-6336115D02*
G75*
G03*
X15979756Y-6336115I-200000J0D01*
G01*
X16456006Y-2526115D02*
G75*
G03*
X16456006Y-2526115I-200000J0D01*
G01*
X16456006Y-4431115D02*
G75*
G03*
X16456006Y-4431115I-200000J0D01*
G01*
X16456006Y-6336115D02*
G75*
G03*
X16456006Y-6336115I-200000J0D01*
G01*
X16932256Y-2526115D02*
G75*
G03*
X16932256Y-2526115I-200000J0D01*
G01*
X16932256Y-4431115D02*
G75*
G03*
X16932256Y-4431115I-200000J0D01*
G01*
X16932256Y-6336115D02*
G75*
G03*
X16932256Y-6336115I-200000J0D01*
G01*
X17408506Y-2526115D02*
G75*
G03*
X17408506Y-2526115I-200000J0D01*
G01*
X17408506Y-4431115D02*
G75*
G03*
X17408506Y-4431115I-200000J0D01*
G01*
X17408506Y-6336115D02*
G75*
G03*
X17408506Y-6336115I-200000J0D01*
G01*
X17884756Y-2526115D02*
G75*
G03*
X17884756Y-2526115I-200000J0D01*
G01*
X17884756Y-4431115D02*
G75*
G03*
X17884756Y-4431115I-200000J0D01*
G01*
X17884756Y-6336115D02*
G75*
G03*
X17884756Y-6336115I-200000J0D01*
G01*
X18361006Y-2526115D02*
G75*
G03*
X18361006Y-2526115I-200000J0D01*
G01*
X18361006Y-4431115D02*
G75*
G03*
X18361006Y-4431115I-200000J0D01*
G01*
X18361006Y-6336115D02*
G75*
G03*
X18361006Y-6336115I-200000J0D01*
G01*
X18837256Y-2526115D02*
G75*
G03*
X18837256Y-2526115I-200000J0D01*
G01*
X18837256Y-4431115D02*
G75*
G03*
X18837256Y-4431115I-200000J0D01*
G01*
X18837256Y-6336115D02*
G75*
G03*
X18837256Y-6336115I-200000J0D01*
G01*
X19313506Y-2526115D02*
G75*
G03*
X19313506Y-2526115I-200000J0D01*
G01*
X19313506Y-4431115D02*
G75*
G03*
X19313506Y-4431115I-200000J0D01*
G01*
X19313506Y-6336115D02*
G75*
G03*
X19313506Y-6336115I-200000J0D01*
G01*
X19789756Y-2526115D02*
G75*
G03*
X19789756Y-2526115I-200000J0D01*
G01*
X19789756Y-4431115D02*
G75*
G03*
X19789756Y-4431115I-200000J0D01*
G01*
X19789756Y-6336115D02*
G75*
G03*
X19789756Y-6336115I-200000J0D01*
G01*
X20266006Y-2526115D02*
G75*
G03*
X20266006Y-2526115I-200000J0D01*
G01*
X20266006Y-4431115D02*
G75*
G03*
X20266006Y-4431115I-200000J0D01*
G01*
X20266006Y-6336115D02*
G75*
G03*
X20266006Y-6336115I-200000J0D01*
G01*
X20742256Y-2526115D02*
G75*
G03*
X20742256Y-2526115I-200000J0D01*
G01*
X20742256Y-4431115D02*
G75*
G03*
X20742256Y-4431115I-200000J0D01*
G01*
X20742256Y-6336115D02*
G75*
G03*
X20742256Y-6336115I-200000J0D01*
G01*
X21218506Y-2526115D02*
G75*
G03*
X21218506Y-2526115I-200000J0D01*
G01*
X21218506Y-4431115D02*
G75*
G03*
X21218506Y-4431115I-200000J0D01*
G01*
X21218506Y-6336115D02*
G75*
G03*
X21218506Y-6336115I-200000J0D01*
G01*
X21694756Y-2526115D02*
G75*
G03*
X21694756Y-2526115I-200000J0D01*
G01*
X21694756Y-4431115D02*
G75*
G03*
X21694756Y-4431115I-200000J0D01*
G01*
X21694756Y-6336115D02*
G75*
G03*
X21694756Y-6336115I-200000J0D01*
G01*
X22171006Y-2526115D02*
G75*
G03*
X22171006Y-2526115I-200000J0D01*
G01*
X22171006Y-4431115D02*
G75*
G03*
X22171006Y-4431115I-200000J0D01*
G01*
X22171006Y-6336115D02*
G75*
G03*
X22171006Y-6336115I-200000J0D01*
G01*
X22647256Y-2526115D02*
G75*
G03*
X22647256Y-2526115I-200000J0D01*
G01*
X22647256Y-4431115D02*
G75*
G03*
X22647256Y-4431115I-200000J0D01*
G01*
X22647256Y-6336115D02*
G75*
G03*
X22647256Y-6336115I-200000J0D01*
G01*
X23123506Y-2526115D02*
G75*
G03*
X23123506Y-2526115I-200000J0D01*
G01*
X23123506Y-4431115D02*
G75*
G03*
X23123506Y-4431115I-200000J0D01*
G01*
X23123506Y-6336115D02*
G75*
G03*
X23123506Y-6336115I-200000J0D01*
G01*
X23599756Y-2526115D02*
G75*
G03*
X23599756Y-2526115I-200000J0D01*
G01*
X23599756Y-4431115D02*
G75*
G03*
X23599756Y-4431115I-200000J0D01*
G01*
X23599756Y-6336115D02*
G75*
G03*
X23599756Y-6336115I-200000J0D01*
G01*
X24076006Y-2526115D02*
G75*
G03*
X24076006Y-2526115I-200000J0D01*
G01*
X24076006Y-4431115D02*
G75*
G03*
X24076006Y-4431115I-200000J0D01*
G01*
X24076006Y-6336115D02*
G75*
G03*
X24076006Y-6336115I-200000J0D01*
G01*
D11*
X2220313Y-7609080D02*
X2220313Y-7409080D01*
X2220313Y-7409080D02*
X2267932Y-7409080D01*
X2267932Y-7409080D02*
X2296504Y-7418604D01*
X2296504Y-7418604D02*
X2315551Y-7437652D01*
X2315551Y-7437652D02*
X2325075Y-7456699D01*
X2325075Y-7456699D02*
X2334599Y-7494794D01*
X2334599Y-7494794D02*
X2334599Y-7523366D01*
X2334599Y-7523366D02*
X2325075Y-7561461D01*
X2325075Y-7561461D02*
X2315551Y-7580509D01*
X2315551Y-7580509D02*
X2296504Y-7599556D01*
X2296504Y-7599556D02*
X2267932Y-7609080D01*
X2267932Y-7609080D02*
X2220313Y-7609080D01*
X2420313Y-7609080D02*
X2420313Y-7475747D01*
X2420313Y-7513842D02*
X2429837Y-7494794D01*
X2429837Y-7494794D02*
X2439361Y-7485271D01*
X2439361Y-7485271D02*
X2458408Y-7475747D01*
X2458408Y-7475747D02*
X2477456Y-7475747D01*
X2544123Y-7609080D02*
X2544123Y-7475747D01*
X2544123Y-7409080D02*
X2534599Y-7418604D01*
X2534599Y-7418604D02*
X2544123Y-7428128D01*
X2544123Y-7428128D02*
X2553646Y-7418604D01*
X2553646Y-7418604D02*
X2544123Y-7409080D01*
X2544123Y-7409080D02*
X2544123Y-7428128D01*
X2667932Y-7609080D02*
X2648884Y-7599556D01*
X2648884Y-7599556D02*
X2639361Y-7580509D01*
X2639361Y-7580509D02*
X2639361Y-7409080D01*
X2772694Y-7609080D02*
X2753646Y-7599556D01*
X2753646Y-7599556D02*
X2744123Y-7580509D01*
X2744123Y-7580509D02*
X2744123Y-7409080D01*
X3001265Y-7609080D02*
X3001265Y-7409080D01*
X3001265Y-7409080D02*
X3067932Y-7551937D01*
X3067932Y-7551937D02*
X3134599Y-7409080D01*
X3134599Y-7409080D02*
X3134599Y-7609080D01*
X3315551Y-7609080D02*
X3315551Y-7504318D01*
X3315551Y-7504318D02*
X3306027Y-7485271D01*
X3306027Y-7485271D02*
X3286980Y-7475747D01*
X3286980Y-7475747D02*
X3248884Y-7475747D01*
X3248884Y-7475747D02*
X3229837Y-7485271D01*
X3315551Y-7599556D02*
X3296503Y-7609080D01*
X3296503Y-7609080D02*
X3248884Y-7609080D01*
X3248884Y-7609080D02*
X3229837Y-7599556D01*
X3229837Y-7599556D02*
X3220313Y-7580509D01*
X3220313Y-7580509D02*
X3220313Y-7561461D01*
X3220313Y-7561461D02*
X3229837Y-7542414D01*
X3229837Y-7542414D02*
X3248884Y-7532890D01*
X3248884Y-7532890D02*
X3296503Y-7532890D01*
X3296503Y-7532890D02*
X3315551Y-7523366D01*
X3410789Y-7475747D02*
X3410789Y-7675747D01*
X3410789Y-7485271D02*
X3429837Y-7475747D01*
X3429837Y-7475747D02*
X3467932Y-7475747D01*
X3467932Y-7475747D02*
X3486980Y-7485271D01*
X3486980Y-7485271D02*
X3496503Y-7494794D01*
X3496503Y-7494794D02*
X3506027Y-7513842D01*
X3506027Y-7513842D02*
X3506027Y-7570985D01*
X3506027Y-7570985D02*
X3496503Y-7590033D01*
X3496503Y-7590033D02*
X3486980Y-7599556D01*
X3486980Y-7599556D02*
X3467932Y-7609080D01*
X3467932Y-7609080D02*
X3429837Y-7609080D01*
X3429837Y-7609080D02*
X3410789Y-7599556D01*
X3591742Y-7590033D02*
X3601265Y-7599556D01*
X3601265Y-7599556D02*
X3591742Y-7609080D01*
X3591742Y-7609080D02*
X3582218Y-7599556D01*
X3582218Y-7599556D02*
X3591742Y-7590033D01*
X3591742Y-7590033D02*
X3591742Y-7609080D01*
X3591742Y-7485271D02*
X3601265Y-7494794D01*
X3601265Y-7494794D02*
X3591742Y-7504318D01*
X3591742Y-7504318D02*
X3582218Y-7494794D01*
X3582218Y-7494794D02*
X3591742Y-7485271D01*
X3591742Y-7485271D02*
X3591742Y-7504318D01*
D12*
X1789536Y-7852596D02*
X1959536Y-8022596D01*
X1959536Y-7852596D02*
X1789536Y-8022596D01*
D11*
X2325075Y-8029080D02*
X2210789Y-8029080D01*
X2267932Y-8029080D02*
X2267932Y-7829080D01*
X2267932Y-7829080D02*
X2248884Y-7857652D01*
X2248884Y-7857652D02*
X2229837Y-7876699D01*
X2229837Y-7876699D02*
X2210789Y-7886223D01*
X2410789Y-8010033D02*
X2420313Y-8019556D01*
X2420313Y-8019556D02*
X2410789Y-8029080D01*
X2410789Y-8029080D02*
X2401265Y-8019556D01*
X2401265Y-8019556D02*
X2410789Y-8010033D01*
X2410789Y-8010033D02*
X2410789Y-8029080D01*
X2486980Y-7829080D02*
X2620313Y-7829080D01*
X2620313Y-7829080D02*
X2534599Y-8029080D01*
X2734599Y-7829080D02*
X2753646Y-7829080D01*
X2753646Y-7829080D02*
X2772694Y-7838604D01*
X2772694Y-7838604D02*
X2782218Y-7848128D01*
X2782218Y-7848128D02*
X2791742Y-7867175D01*
X2791742Y-7867175D02*
X2801265Y-7905271D01*
X2801265Y-7905271D02*
X2801265Y-7952890D01*
X2801265Y-7952890D02*
X2791742Y-7990985D01*
X2791742Y-7990985D02*
X2782218Y-8010033D01*
X2782218Y-8010033D02*
X2772694Y-8019556D01*
X2772694Y-8019556D02*
X2753646Y-8029080D01*
X2753646Y-8029080D02*
X2734599Y-8029080D01*
X2734599Y-8029080D02*
X2715551Y-8019556D01*
X2715551Y-8019556D02*
X2706027Y-8010033D01*
X2706027Y-8010033D02*
X2696504Y-7990985D01*
X2696504Y-7990985D02*
X2686980Y-7952890D01*
X2686980Y-7952890D02*
X2686980Y-7905271D01*
X2686980Y-7905271D02*
X2696504Y-7867175D01*
X2696504Y-7867175D02*
X2706027Y-7848128D01*
X2706027Y-7848128D02*
X2715551Y-7838604D01*
X2715551Y-7838604D02*
X2734599Y-7829080D01*
X2925075Y-7829080D02*
X2944123Y-7829080D01*
X2944123Y-7829080D02*
X2963170Y-7838604D01*
X2963170Y-7838604D02*
X2972694Y-7848128D01*
X2972694Y-7848128D02*
X2982218Y-7867175D01*
X2982218Y-7867175D02*
X2991742Y-7905271D01*
X2991742Y-7905271D02*
X2991742Y-7952890D01*
X2991742Y-7952890D02*
X2982218Y-7990985D01*
X2982218Y-7990985D02*
X2972694Y-8010033D01*
X2972694Y-8010033D02*
X2963170Y-8019556D01*
X2963170Y-8019556D02*
X2944123Y-8029080D01*
X2944123Y-8029080D02*
X2925075Y-8029080D01*
X2925075Y-8029080D02*
X2906027Y-8019556D01*
X2906027Y-8019556D02*
X2896503Y-8010033D01*
X2896503Y-8010033D02*
X2886980Y-7990985D01*
X2886980Y-7990985D02*
X2877456Y-7952890D01*
X2877456Y-7952890D02*
X2877456Y-7905271D01*
X2877456Y-7905271D02*
X2886980Y-7867175D01*
X2886980Y-7867175D02*
X2896503Y-7848128D01*
X2896503Y-7848128D02*
X2906027Y-7838604D01*
X2906027Y-7838604D02*
X2925075Y-7829080D01*
X3077456Y-8029080D02*
X3077456Y-7895747D01*
X3077456Y-7914794D02*
X3086980Y-7905271D01*
X3086980Y-7905271D02*
X3106027Y-7895747D01*
X3106027Y-7895747D02*
X3134599Y-7895747D01*
X3134599Y-7895747D02*
X3153646Y-7905271D01*
X3153646Y-7905271D02*
X3163170Y-7924318D01*
X3163170Y-7924318D02*
X3163170Y-8029080D01*
X3163170Y-7924318D02*
X3172694Y-7905271D01*
X3172694Y-7905271D02*
X3191742Y-7895747D01*
X3191742Y-7895747D02*
X3220313Y-7895747D01*
X3220313Y-7895747D02*
X3239361Y-7905271D01*
X3239361Y-7905271D02*
X3248884Y-7924318D01*
X3248884Y-7924318D02*
X3248884Y-8029080D01*
X3344123Y-8029080D02*
X3344123Y-7895747D01*
X3344123Y-7914794D02*
X3353646Y-7905271D01*
X3353646Y-7905271D02*
X3372694Y-7895747D01*
X3372694Y-7895747D02*
X3401265Y-7895747D01*
X3401265Y-7895747D02*
X3420313Y-7905271D01*
X3420313Y-7905271D02*
X3429837Y-7924318D01*
X3429837Y-7924318D02*
X3429837Y-8029080D01*
X3429837Y-7924318D02*
X3439361Y-7905271D01*
X3439361Y-7905271D02*
X3458408Y-7895747D01*
X3458408Y-7895747D02*
X3486980Y-7895747D01*
X3486980Y-7895747D02*
X3506027Y-7905271D01*
X3506027Y-7905271D02*
X3515551Y-7924318D01*
X3515551Y-7924318D02*
X3515551Y-8029080D01*
X3906027Y-7819556D02*
X3734599Y-8076699D01*
X4163170Y-7829080D02*
X4182218Y-7829080D01*
X4182218Y-7829080D02*
X4201266Y-7838604D01*
X4201266Y-7838604D02*
X4210789Y-7848128D01*
X4210789Y-7848128D02*
X4220313Y-7867175D01*
X4220313Y-7867175D02*
X4229837Y-7905271D01*
X4229837Y-7905271D02*
X4229837Y-7952890D01*
X4229837Y-7952890D02*
X4220313Y-7990985D01*
X4220313Y-7990985D02*
X4210789Y-8010033D01*
X4210789Y-8010033D02*
X4201266Y-8019556D01*
X4201266Y-8019556D02*
X4182218Y-8029080D01*
X4182218Y-8029080D02*
X4163170Y-8029080D01*
X4163170Y-8029080D02*
X4144123Y-8019556D01*
X4144123Y-8019556D02*
X4134599Y-8010033D01*
X4134599Y-8010033D02*
X4125075Y-7990985D01*
X4125075Y-7990985D02*
X4115551Y-7952890D01*
X4115551Y-7952890D02*
X4115551Y-7905271D01*
X4115551Y-7905271D02*
X4125075Y-7867175D01*
X4125075Y-7867175D02*
X4134599Y-7848128D01*
X4134599Y-7848128D02*
X4144123Y-7838604D01*
X4144123Y-7838604D02*
X4163170Y-7829080D01*
X4315551Y-8010033D02*
X4325075Y-8019556D01*
X4325075Y-8019556D02*
X4315551Y-8029080D01*
X4315551Y-8029080D02*
X4306028Y-8019556D01*
X4306028Y-8019556D02*
X4315551Y-8010033D01*
X4315551Y-8010033D02*
X4315551Y-8029080D01*
X4448885Y-7829080D02*
X4467932Y-7829080D01*
X4467932Y-7829080D02*
X4486980Y-7838604D01*
X4486980Y-7838604D02*
X4496504Y-7848128D01*
X4496504Y-7848128D02*
X4506028Y-7867175D01*
X4506028Y-7867175D02*
X4515551Y-7905271D01*
X4515551Y-7905271D02*
X4515551Y-7952890D01*
X4515551Y-7952890D02*
X4506028Y-7990985D01*
X4506028Y-7990985D02*
X4496504Y-8010033D01*
X4496504Y-8010033D02*
X4486980Y-8019556D01*
X4486980Y-8019556D02*
X4467932Y-8029080D01*
X4467932Y-8029080D02*
X4448885Y-8029080D01*
X4448885Y-8029080D02*
X4429837Y-8019556D01*
X4429837Y-8019556D02*
X4420313Y-8010033D01*
X4420313Y-8010033D02*
X4410789Y-7990985D01*
X4410789Y-7990985D02*
X4401266Y-7952890D01*
X4401266Y-7952890D02*
X4401266Y-7905271D01*
X4401266Y-7905271D02*
X4410789Y-7867175D01*
X4410789Y-7867175D02*
X4420313Y-7848128D01*
X4420313Y-7848128D02*
X4429837Y-7838604D01*
X4429837Y-7838604D02*
X4448885Y-7829080D01*
X4686980Y-7829080D02*
X4648885Y-7829080D01*
X4648885Y-7829080D02*
X4629837Y-7838604D01*
X4629837Y-7838604D02*
X4620313Y-7848128D01*
X4620313Y-7848128D02*
X4601266Y-7876699D01*
X4601266Y-7876699D02*
X4591742Y-7914794D01*
X4591742Y-7914794D02*
X4591742Y-7990985D01*
X4591742Y-7990985D02*
X4601266Y-8010033D01*
X4601266Y-8010033D02*
X4610789Y-8019556D01*
X4610789Y-8019556D02*
X4629837Y-8029080D01*
X4629837Y-8029080D02*
X4667932Y-8029080D01*
X4667932Y-8029080D02*
X4686980Y-8019556D01*
X4686980Y-8019556D02*
X4696504Y-8010033D01*
X4696504Y-8010033D02*
X4706028Y-7990985D01*
X4706028Y-7990985D02*
X4706028Y-7943366D01*
X4706028Y-7943366D02*
X4696504Y-7924318D01*
X4696504Y-7924318D02*
X4686980Y-7914794D01*
X4686980Y-7914794D02*
X4667932Y-7905271D01*
X4667932Y-7905271D02*
X4629837Y-7905271D01*
X4629837Y-7905271D02*
X4610789Y-7914794D01*
X4610789Y-7914794D02*
X4601266Y-7924318D01*
X4601266Y-7924318D02*
X4591742Y-7943366D01*
X4877456Y-7829080D02*
X4839361Y-7829080D01*
X4839361Y-7829080D02*
X4820313Y-7838604D01*
X4820313Y-7838604D02*
X4810789Y-7848128D01*
X4810789Y-7848128D02*
X4791742Y-7876699D01*
X4791742Y-7876699D02*
X4782218Y-7914794D01*
X4782218Y-7914794D02*
X4782218Y-7990985D01*
X4782218Y-7990985D02*
X4791742Y-8010033D01*
X4791742Y-8010033D02*
X4801266Y-8019556D01*
X4801266Y-8019556D02*
X4820313Y-8029080D01*
X4820313Y-8029080D02*
X4858409Y-8029080D01*
X4858409Y-8029080D02*
X4877456Y-8019556D01*
X4877456Y-8019556D02*
X4886980Y-8010033D01*
X4886980Y-8010033D02*
X4896504Y-7990985D01*
X4896504Y-7990985D02*
X4896504Y-7943366D01*
X4896504Y-7943366D02*
X4886980Y-7924318D01*
X4886980Y-7924318D02*
X4877456Y-7914794D01*
X4877456Y-7914794D02*
X4858409Y-7905271D01*
X4858409Y-7905271D02*
X4820313Y-7905271D01*
X4820313Y-7905271D02*
X4801266Y-7914794D01*
X4801266Y-7914794D02*
X4791742Y-7924318D01*
X4791742Y-7924318D02*
X4782218Y-7943366D01*
X4991742Y-8029080D02*
X5029837Y-8029080D01*
X5029837Y-8029080D02*
X5048885Y-8019556D01*
X5048885Y-8019556D02*
X5058409Y-8010033D01*
X5058409Y-8010033D02*
X5077456Y-7981461D01*
X5077456Y-7981461D02*
X5086980Y-7943366D01*
X5086980Y-7943366D02*
X5086980Y-7867175D01*
X5086980Y-7867175D02*
X5077456Y-7848128D01*
X5077456Y-7848128D02*
X5067932Y-7838604D01*
X5067932Y-7838604D02*
X5048885Y-7829080D01*
X5048885Y-7829080D02*
X5010789Y-7829080D01*
X5010789Y-7829080D02*
X4991742Y-7838604D01*
X4991742Y-7838604D02*
X4982218Y-7848128D01*
X4982218Y-7848128D02*
X4972694Y-7867175D01*
X4972694Y-7867175D02*
X4972694Y-7914794D01*
X4972694Y-7914794D02*
X4982218Y-7933842D01*
X4982218Y-7933842D02*
X4991742Y-7943366D01*
X4991742Y-7943366D02*
X5010789Y-7952890D01*
X5010789Y-7952890D02*
X5048885Y-7952890D01*
X5048885Y-7952890D02*
X5067932Y-7943366D01*
X5067932Y-7943366D02*
X5077456Y-7933842D01*
X5077456Y-7933842D02*
X5086980Y-7914794D01*
X5163170Y-7829080D02*
X5163170Y-7867175D01*
X5239361Y-7829080D02*
X5239361Y-7867175D01*
X5534599Y-8105271D02*
X5525075Y-8095747D01*
X5525075Y-8095747D02*
X5506028Y-8067175D01*
X5506028Y-8067175D02*
X5496504Y-8048128D01*
X5496504Y-8048128D02*
X5486980Y-8019556D01*
X5486980Y-8019556D02*
X5477456Y-7971937D01*
X5477456Y-7971937D02*
X5477456Y-7933842D01*
X5477456Y-7933842D02*
X5486980Y-7886223D01*
X5486980Y-7886223D02*
X5496504Y-7857652D01*
X5496504Y-7857652D02*
X5506028Y-7838604D01*
X5506028Y-7838604D02*
X5525075Y-7810033D01*
X5525075Y-7810033D02*
X5534599Y-7800509D01*
X5601266Y-7848128D02*
X5610789Y-7838604D01*
X5610789Y-7838604D02*
X5629837Y-7829080D01*
X5629837Y-7829080D02*
X5677456Y-7829080D01*
X5677456Y-7829080D02*
X5696504Y-7838604D01*
X5696504Y-7838604D02*
X5706028Y-7848128D01*
X5706028Y-7848128D02*
X5715551Y-7867175D01*
X5715551Y-7867175D02*
X5715551Y-7886223D01*
X5715551Y-7886223D02*
X5706028Y-7914794D01*
X5706028Y-7914794D02*
X5591742Y-8029080D01*
X5591742Y-8029080D02*
X5715551Y-8029080D01*
X5782218Y-7829080D02*
X5915551Y-7829080D01*
X5915551Y-7829080D02*
X5829837Y-8029080D01*
X6029837Y-7829080D02*
X6048885Y-7829080D01*
X6048885Y-7829080D02*
X6067932Y-7838604D01*
X6067932Y-7838604D02*
X6077456Y-7848128D01*
X6077456Y-7848128D02*
X6086980Y-7867175D01*
X6086980Y-7867175D02*
X6096504Y-7905271D01*
X6096504Y-7905271D02*
X6096504Y-7952890D01*
X6096504Y-7952890D02*
X6086980Y-7990985D01*
X6086980Y-7990985D02*
X6077456Y-8010033D01*
X6077456Y-8010033D02*
X6067932Y-8019556D01*
X6067932Y-8019556D02*
X6048885Y-8029080D01*
X6048885Y-8029080D02*
X6029837Y-8029080D01*
X6029837Y-8029080D02*
X6010789Y-8019556D01*
X6010789Y-8019556D02*
X6001266Y-8010033D01*
X6001266Y-8010033D02*
X5991742Y-7990985D01*
X5991742Y-7990985D02*
X5982218Y-7952890D01*
X5982218Y-7952890D02*
X5982218Y-7905271D01*
X5982218Y-7905271D02*
X5991742Y-7867175D01*
X5991742Y-7867175D02*
X6001266Y-7848128D01*
X6001266Y-7848128D02*
X6010789Y-7838604D01*
X6010789Y-7838604D02*
X6029837Y-7829080D01*
X6334599Y-8029080D02*
X6334599Y-7829080D01*
X6420313Y-8029080D02*
X6420313Y-7924318D01*
X6420313Y-7924318D02*
X6410790Y-7905271D01*
X6410790Y-7905271D02*
X6391742Y-7895747D01*
X6391742Y-7895747D02*
X6363170Y-7895747D01*
X6363170Y-7895747D02*
X6344123Y-7905271D01*
X6344123Y-7905271D02*
X6334599Y-7914794D01*
X6544123Y-8029080D02*
X6525075Y-8019556D01*
X6525075Y-8019556D02*
X6515551Y-8010033D01*
X6515551Y-8010033D02*
X6506028Y-7990985D01*
X6506028Y-7990985D02*
X6506028Y-7933842D01*
X6506028Y-7933842D02*
X6515551Y-7914794D01*
X6515551Y-7914794D02*
X6525075Y-7905271D01*
X6525075Y-7905271D02*
X6544123Y-7895747D01*
X6544123Y-7895747D02*
X6572694Y-7895747D01*
X6572694Y-7895747D02*
X6591742Y-7905271D01*
X6591742Y-7905271D02*
X6601266Y-7914794D01*
X6601266Y-7914794D02*
X6610790Y-7933842D01*
X6610790Y-7933842D02*
X6610790Y-7990985D01*
X6610790Y-7990985D02*
X6601266Y-8010033D01*
X6601266Y-8010033D02*
X6591742Y-8019556D01*
X6591742Y-8019556D02*
X6572694Y-8029080D01*
X6572694Y-8029080D02*
X6544123Y-8029080D01*
X6725075Y-8029080D02*
X6706028Y-8019556D01*
X6706028Y-8019556D02*
X6696504Y-8000509D01*
X6696504Y-8000509D02*
X6696504Y-7829080D01*
X6877456Y-8019556D02*
X6858409Y-8029080D01*
X6858409Y-8029080D02*
X6820313Y-8029080D01*
X6820313Y-8029080D02*
X6801266Y-8019556D01*
X6801266Y-8019556D02*
X6791742Y-8000509D01*
X6791742Y-8000509D02*
X6791742Y-7924318D01*
X6791742Y-7924318D02*
X6801266Y-7905271D01*
X6801266Y-7905271D02*
X6820313Y-7895747D01*
X6820313Y-7895747D02*
X6858409Y-7895747D01*
X6858409Y-7895747D02*
X6877456Y-7905271D01*
X6877456Y-7905271D02*
X6886980Y-7924318D01*
X6886980Y-7924318D02*
X6886980Y-7943366D01*
X6886980Y-7943366D02*
X6791742Y-7962414D01*
X6963171Y-8019556D02*
X6982218Y-8029080D01*
X6982218Y-8029080D02*
X7020313Y-8029080D01*
X7020313Y-8029080D02*
X7039361Y-8019556D01*
X7039361Y-8019556D02*
X7048885Y-8000509D01*
X7048885Y-8000509D02*
X7048885Y-7990985D01*
X7048885Y-7990985D02*
X7039361Y-7971937D01*
X7039361Y-7971937D02*
X7020313Y-7962414D01*
X7020313Y-7962414D02*
X6991742Y-7962414D01*
X6991742Y-7962414D02*
X6972694Y-7952890D01*
X6972694Y-7952890D02*
X6963171Y-7933842D01*
X6963171Y-7933842D02*
X6963171Y-7924318D01*
X6963171Y-7924318D02*
X6972694Y-7905271D01*
X6972694Y-7905271D02*
X6991742Y-7895747D01*
X6991742Y-7895747D02*
X7020313Y-7895747D01*
X7020313Y-7895747D02*
X7039361Y-7905271D01*
X7115552Y-8105271D02*
X7125075Y-8095747D01*
X7125075Y-8095747D02*
X7144123Y-8067175D01*
X7144123Y-8067175D02*
X7153647Y-8048128D01*
X7153647Y-8048128D02*
X7163171Y-8019556D01*
X7163171Y-8019556D02*
X7172694Y-7971937D01*
X7172694Y-7971937D02*
X7172694Y-7933842D01*
X7172694Y-7933842D02*
X7163171Y-7886223D01*
X7163171Y-7886223D02*
X7153647Y-7857652D01*
X7153647Y-7857652D02*
X7144123Y-7838604D01*
X7144123Y-7838604D02*
X7125075Y-7810033D01*
X7125075Y-7810033D02*
X7115552Y-7800509D01*
X7477456Y-8105271D02*
X7467932Y-8095747D01*
X7467932Y-8095747D02*
X7448885Y-8067175D01*
X7448885Y-8067175D02*
X7439361Y-8048128D01*
X7439361Y-8048128D02*
X7429837Y-8019556D01*
X7429837Y-8019556D02*
X7420313Y-7971937D01*
X7420313Y-7971937D02*
X7420313Y-7933842D01*
X7420313Y-7933842D02*
X7429837Y-7886223D01*
X7429837Y-7886223D02*
X7439361Y-7857652D01*
X7439361Y-7857652D02*
X7448885Y-7838604D01*
X7448885Y-7838604D02*
X7467932Y-7810033D01*
X7467932Y-7810033D02*
X7477456Y-7800509D01*
X7553647Y-7895747D02*
X7553647Y-8029080D01*
X7553647Y-7914794D02*
X7563171Y-7905271D01*
X7563171Y-7905271D02*
X7582218Y-7895747D01*
X7582218Y-7895747D02*
X7610790Y-7895747D01*
X7610790Y-7895747D02*
X7629837Y-7905271D01*
X7629837Y-7905271D02*
X7639361Y-7924318D01*
X7639361Y-7924318D02*
X7639361Y-8029080D01*
X7763171Y-8029080D02*
X7744123Y-8019556D01*
X7744123Y-8019556D02*
X7734599Y-8010033D01*
X7734599Y-8010033D02*
X7725075Y-7990985D01*
X7725075Y-7990985D02*
X7725075Y-7933842D01*
X7725075Y-7933842D02*
X7734599Y-7914794D01*
X7734599Y-7914794D02*
X7744123Y-7905271D01*
X7744123Y-7905271D02*
X7763171Y-7895747D01*
X7763171Y-7895747D02*
X7791742Y-7895747D01*
X7791742Y-7895747D02*
X7810790Y-7905271D01*
X7810790Y-7905271D02*
X7820313Y-7914794D01*
X7820313Y-7914794D02*
X7829837Y-7933842D01*
X7829837Y-7933842D02*
X7829837Y-7990985D01*
X7829837Y-7990985D02*
X7820313Y-8010033D01*
X7820313Y-8010033D02*
X7810790Y-8019556D01*
X7810790Y-8019556D02*
X7791742Y-8029080D01*
X7791742Y-8029080D02*
X7763171Y-8029080D01*
X7886980Y-7895747D02*
X7963171Y-7895747D01*
X7915552Y-7829080D02*
X7915552Y-8000509D01*
X7915552Y-8000509D02*
X7925075Y-8019556D01*
X7925075Y-8019556D02*
X7944123Y-8029080D01*
X7944123Y-8029080D02*
X7963171Y-8029080D01*
X8182218Y-7895747D02*
X8182218Y-8095747D01*
X8182218Y-7905271D02*
X8201266Y-7895747D01*
X8201266Y-7895747D02*
X8239361Y-7895747D01*
X8239361Y-7895747D02*
X8258409Y-7905271D01*
X8258409Y-7905271D02*
X8267933Y-7914794D01*
X8267933Y-7914794D02*
X8277456Y-7933842D01*
X8277456Y-7933842D02*
X8277456Y-7990985D01*
X8277456Y-7990985D02*
X8267933Y-8010033D01*
X8267933Y-8010033D02*
X8258409Y-8019556D01*
X8258409Y-8019556D02*
X8239361Y-8029080D01*
X8239361Y-8029080D02*
X8201266Y-8029080D01*
X8201266Y-8029080D02*
X8182218Y-8019556D01*
X8391742Y-8029080D02*
X8372694Y-8019556D01*
X8372694Y-8019556D02*
X8363171Y-8000509D01*
X8363171Y-8000509D02*
X8363171Y-7829080D01*
X8553647Y-8029080D02*
X8553647Y-7924318D01*
X8553647Y-7924318D02*
X8544123Y-7905271D01*
X8544123Y-7905271D02*
X8525076Y-7895747D01*
X8525076Y-7895747D02*
X8486980Y-7895747D01*
X8486980Y-7895747D02*
X8467933Y-7905271D01*
X8553647Y-8019556D02*
X8534599Y-8029080D01*
X8534599Y-8029080D02*
X8486980Y-8029080D01*
X8486980Y-8029080D02*
X8467933Y-8019556D01*
X8467933Y-8019556D02*
X8458409Y-8000509D01*
X8458409Y-8000509D02*
X8458409Y-7981461D01*
X8458409Y-7981461D02*
X8467933Y-7962414D01*
X8467933Y-7962414D02*
X8486980Y-7952890D01*
X8486980Y-7952890D02*
X8534599Y-7952890D01*
X8534599Y-7952890D02*
X8553647Y-7943366D01*
X8620314Y-7895747D02*
X8696504Y-7895747D01*
X8648885Y-7829080D02*
X8648885Y-8000509D01*
X8648885Y-8000509D02*
X8658409Y-8019556D01*
X8658409Y-8019556D02*
X8677456Y-8029080D01*
X8677456Y-8029080D02*
X8696504Y-8029080D01*
X8839361Y-8019556D02*
X8820314Y-8029080D01*
X8820314Y-8029080D02*
X8782218Y-8029080D01*
X8782218Y-8029080D02*
X8763171Y-8019556D01*
X8763171Y-8019556D02*
X8753647Y-8000509D01*
X8753647Y-8000509D02*
X8753647Y-7924318D01*
X8753647Y-7924318D02*
X8763171Y-7905271D01*
X8763171Y-7905271D02*
X8782218Y-7895747D01*
X8782218Y-7895747D02*
X8820314Y-7895747D01*
X8820314Y-7895747D02*
X8839361Y-7905271D01*
X8839361Y-7905271D02*
X8848885Y-7924318D01*
X8848885Y-7924318D02*
X8848885Y-7943366D01*
X8848885Y-7943366D02*
X8753647Y-7962414D01*
X9020314Y-8029080D02*
X9020314Y-7829080D01*
X9020314Y-8019556D02*
X9001266Y-8029080D01*
X9001266Y-8029080D02*
X8963171Y-8029080D01*
X8963171Y-8029080D02*
X8944123Y-8019556D01*
X8944123Y-8019556D02*
X8934599Y-8010033D01*
X8934599Y-8010033D02*
X8925076Y-7990985D01*
X8925076Y-7990985D02*
X8925076Y-7933842D01*
X8925076Y-7933842D02*
X8934599Y-7914794D01*
X8934599Y-7914794D02*
X8944123Y-7905271D01*
X8944123Y-7905271D02*
X8963171Y-7895747D01*
X8963171Y-7895747D02*
X9001266Y-7895747D01*
X9001266Y-7895747D02*
X9020314Y-7905271D01*
X9096504Y-8105271D02*
X9106028Y-8095747D01*
X9106028Y-8095747D02*
X9125076Y-8067175D01*
X9125076Y-8067175D02*
X9134599Y-8048128D01*
X9134599Y-8048128D02*
X9144123Y-8019556D01*
X9144123Y-8019556D02*
X9153647Y-7971937D01*
X9153647Y-7971937D02*
X9153647Y-7933842D01*
X9153647Y-7933842D02*
X9144123Y-7886223D01*
X9144123Y-7886223D02*
X9134599Y-7857652D01*
X9134599Y-7857652D02*
X9125076Y-7838604D01*
X9125076Y-7838604D02*
X9106028Y-7810033D01*
X9106028Y-7810033D02*
X9096504Y-7800509D01*
X1959536Y-8227596D02*
G75*
G03*
X1959536Y-8227596I-100000J0D01*
G01*
X2306027Y-8185747D02*
X2306027Y-8319080D01*
X2258408Y-8109556D02*
X2210789Y-8252414D01*
X2210789Y-8252414D02*
X2334599Y-8252414D01*
X2410789Y-8300033D02*
X2420313Y-8309556D01*
X2420313Y-8309556D02*
X2410789Y-8319080D01*
X2410789Y-8319080D02*
X2401265Y-8309556D01*
X2401265Y-8309556D02*
X2410789Y-8300033D01*
X2410789Y-8300033D02*
X2410789Y-8319080D01*
X2544123Y-8119080D02*
X2563170Y-8119080D01*
X2563170Y-8119080D02*
X2582218Y-8128604D01*
X2582218Y-8128604D02*
X2591742Y-8138128D01*
X2591742Y-8138128D02*
X2601265Y-8157175D01*
X2601265Y-8157175D02*
X2610789Y-8195271D01*
X2610789Y-8195271D02*
X2610789Y-8242890D01*
X2610789Y-8242890D02*
X2601265Y-8280985D01*
X2601265Y-8280985D02*
X2591742Y-8300033D01*
X2591742Y-8300033D02*
X2582218Y-8309556D01*
X2582218Y-8309556D02*
X2563170Y-8319080D01*
X2563170Y-8319080D02*
X2544123Y-8319080D01*
X2544123Y-8319080D02*
X2525075Y-8309556D01*
X2525075Y-8309556D02*
X2515551Y-8300033D01*
X2515551Y-8300033D02*
X2506027Y-8280985D01*
X2506027Y-8280985D02*
X2496504Y-8242890D01*
X2496504Y-8242890D02*
X2496504Y-8195271D01*
X2496504Y-8195271D02*
X2506027Y-8157175D01*
X2506027Y-8157175D02*
X2515551Y-8138128D01*
X2515551Y-8138128D02*
X2525075Y-8128604D01*
X2525075Y-8128604D02*
X2544123Y-8119080D01*
X2734599Y-8119080D02*
X2753646Y-8119080D01*
X2753646Y-8119080D02*
X2772694Y-8128604D01*
X2772694Y-8128604D02*
X2782218Y-8138128D01*
X2782218Y-8138128D02*
X2791742Y-8157175D01*
X2791742Y-8157175D02*
X2801265Y-8195271D01*
X2801265Y-8195271D02*
X2801265Y-8242890D01*
X2801265Y-8242890D02*
X2791742Y-8280985D01*
X2791742Y-8280985D02*
X2782218Y-8300033D01*
X2782218Y-8300033D02*
X2772694Y-8309556D01*
X2772694Y-8309556D02*
X2753646Y-8319080D01*
X2753646Y-8319080D02*
X2734599Y-8319080D01*
X2734599Y-8319080D02*
X2715551Y-8309556D01*
X2715551Y-8309556D02*
X2706027Y-8300033D01*
X2706027Y-8300033D02*
X2696504Y-8280985D01*
X2696504Y-8280985D02*
X2686980Y-8242890D01*
X2686980Y-8242890D02*
X2686980Y-8195271D01*
X2686980Y-8195271D02*
X2696504Y-8157175D01*
X2696504Y-8157175D02*
X2706027Y-8138128D01*
X2706027Y-8138128D02*
X2715551Y-8128604D01*
X2715551Y-8128604D02*
X2734599Y-8119080D01*
X2925075Y-8119080D02*
X2944123Y-8119080D01*
X2944123Y-8119080D02*
X2963170Y-8128604D01*
X2963170Y-8128604D02*
X2972694Y-8138128D01*
X2972694Y-8138128D02*
X2982218Y-8157175D01*
X2982218Y-8157175D02*
X2991742Y-8195271D01*
X2991742Y-8195271D02*
X2991742Y-8242890D01*
X2991742Y-8242890D02*
X2982218Y-8280985D01*
X2982218Y-8280985D02*
X2972694Y-8300033D01*
X2972694Y-8300033D02*
X2963170Y-8309556D01*
X2963170Y-8309556D02*
X2944123Y-8319080D01*
X2944123Y-8319080D02*
X2925075Y-8319080D01*
X2925075Y-8319080D02*
X2906027Y-8309556D01*
X2906027Y-8309556D02*
X2896503Y-8300033D01*
X2896503Y-8300033D02*
X2886980Y-8280985D01*
X2886980Y-8280985D02*
X2877456Y-8242890D01*
X2877456Y-8242890D02*
X2877456Y-8195271D01*
X2877456Y-8195271D02*
X2886980Y-8157175D01*
X2886980Y-8157175D02*
X2896503Y-8138128D01*
X2896503Y-8138128D02*
X2906027Y-8128604D01*
X2906027Y-8128604D02*
X2925075Y-8119080D01*
X3077456Y-8319080D02*
X3077456Y-8185747D01*
X3077456Y-8204794D02*
X3086980Y-8195271D01*
X3086980Y-8195271D02*
X3106027Y-8185747D01*
X3106027Y-8185747D02*
X3134599Y-8185747D01*
X3134599Y-8185747D02*
X3153646Y-8195271D01*
X3153646Y-8195271D02*
X3163170Y-8214318D01*
X3163170Y-8214318D02*
X3163170Y-8319080D01*
X3163170Y-8214318D02*
X3172694Y-8195271D01*
X3172694Y-8195271D02*
X3191742Y-8185747D01*
X3191742Y-8185747D02*
X3220313Y-8185747D01*
X3220313Y-8185747D02*
X3239361Y-8195271D01*
X3239361Y-8195271D02*
X3248884Y-8214318D01*
X3248884Y-8214318D02*
X3248884Y-8319080D01*
X3344123Y-8319080D02*
X3344123Y-8185747D01*
X3344123Y-8204794D02*
X3353646Y-8195271D01*
X3353646Y-8195271D02*
X3372694Y-8185747D01*
X3372694Y-8185747D02*
X3401265Y-8185747D01*
X3401265Y-8185747D02*
X3420313Y-8195271D01*
X3420313Y-8195271D02*
X3429837Y-8214318D01*
X3429837Y-8214318D02*
X3429837Y-8319080D01*
X3429837Y-8214318D02*
X3439361Y-8195271D01*
X3439361Y-8195271D02*
X3458408Y-8185747D01*
X3458408Y-8185747D02*
X3486980Y-8185747D01*
X3486980Y-8185747D02*
X3506027Y-8195271D01*
X3506027Y-8195271D02*
X3515551Y-8214318D01*
X3515551Y-8214318D02*
X3515551Y-8319080D01*
X3906027Y-8109556D02*
X3734599Y-8366699D01*
X4163170Y-8119080D02*
X4182218Y-8119080D01*
X4182218Y-8119080D02*
X4201266Y-8128604D01*
X4201266Y-8128604D02*
X4210789Y-8138128D01*
X4210789Y-8138128D02*
X4220313Y-8157175D01*
X4220313Y-8157175D02*
X4229837Y-8195271D01*
X4229837Y-8195271D02*
X4229837Y-8242890D01*
X4229837Y-8242890D02*
X4220313Y-8280985D01*
X4220313Y-8280985D02*
X4210789Y-8300033D01*
X4210789Y-8300033D02*
X4201266Y-8309556D01*
X4201266Y-8309556D02*
X4182218Y-8319080D01*
X4182218Y-8319080D02*
X4163170Y-8319080D01*
X4163170Y-8319080D02*
X4144123Y-8309556D01*
X4144123Y-8309556D02*
X4134599Y-8300033D01*
X4134599Y-8300033D02*
X4125075Y-8280985D01*
X4125075Y-8280985D02*
X4115551Y-8242890D01*
X4115551Y-8242890D02*
X4115551Y-8195271D01*
X4115551Y-8195271D02*
X4125075Y-8157175D01*
X4125075Y-8157175D02*
X4134599Y-8138128D01*
X4134599Y-8138128D02*
X4144123Y-8128604D01*
X4144123Y-8128604D02*
X4163170Y-8119080D01*
X4315551Y-8300033D02*
X4325075Y-8309556D01*
X4325075Y-8309556D02*
X4315551Y-8319080D01*
X4315551Y-8319080D02*
X4306028Y-8309556D01*
X4306028Y-8309556D02*
X4315551Y-8300033D01*
X4315551Y-8300033D02*
X4315551Y-8319080D01*
X4515551Y-8319080D02*
X4401266Y-8319080D01*
X4458408Y-8319080D02*
X4458408Y-8119080D01*
X4458408Y-8119080D02*
X4439361Y-8147652D01*
X4439361Y-8147652D02*
X4420313Y-8166699D01*
X4420313Y-8166699D02*
X4401266Y-8176223D01*
X4696504Y-8119080D02*
X4601266Y-8119080D01*
X4601266Y-8119080D02*
X4591742Y-8214318D01*
X4591742Y-8214318D02*
X4601266Y-8204794D01*
X4601266Y-8204794D02*
X4620313Y-8195271D01*
X4620313Y-8195271D02*
X4667932Y-8195271D01*
X4667932Y-8195271D02*
X4686980Y-8204794D01*
X4686980Y-8204794D02*
X4696504Y-8214318D01*
X4696504Y-8214318D02*
X4706028Y-8233366D01*
X4706028Y-8233366D02*
X4706028Y-8280985D01*
X4706028Y-8280985D02*
X4696504Y-8300033D01*
X4696504Y-8300033D02*
X4686980Y-8309556D01*
X4686980Y-8309556D02*
X4667932Y-8319080D01*
X4667932Y-8319080D02*
X4620313Y-8319080D01*
X4620313Y-8319080D02*
X4601266Y-8309556D01*
X4601266Y-8309556D02*
X4591742Y-8300033D01*
X4772694Y-8119080D02*
X4906028Y-8119080D01*
X4906028Y-8119080D02*
X4820313Y-8319080D01*
X5077456Y-8119080D02*
X4982218Y-8119080D01*
X4982218Y-8119080D02*
X4972694Y-8214318D01*
X4972694Y-8214318D02*
X4982218Y-8204794D01*
X4982218Y-8204794D02*
X5001266Y-8195271D01*
X5001266Y-8195271D02*
X5048885Y-8195271D01*
X5048885Y-8195271D02*
X5067932Y-8204794D01*
X5067932Y-8204794D02*
X5077456Y-8214318D01*
X5077456Y-8214318D02*
X5086980Y-8233366D01*
X5086980Y-8233366D02*
X5086980Y-8280985D01*
X5086980Y-8280985D02*
X5077456Y-8300033D01*
X5077456Y-8300033D02*
X5067932Y-8309556D01*
X5067932Y-8309556D02*
X5048885Y-8319080D01*
X5048885Y-8319080D02*
X5001266Y-8319080D01*
X5001266Y-8319080D02*
X4982218Y-8309556D01*
X4982218Y-8309556D02*
X4972694Y-8300033D01*
X5163170Y-8119080D02*
X5163170Y-8157175D01*
X5239361Y-8119080D02*
X5239361Y-8157175D01*
X5534599Y-8395271D02*
X5525075Y-8385747D01*
X5525075Y-8385747D02*
X5506028Y-8357175D01*
X5506028Y-8357175D02*
X5496504Y-8338128D01*
X5496504Y-8338128D02*
X5486980Y-8309556D01*
X5486980Y-8309556D02*
X5477456Y-8261937D01*
X5477456Y-8261937D02*
X5477456Y-8223842D01*
X5477456Y-8223842D02*
X5486980Y-8176223D01*
X5486980Y-8176223D02*
X5496504Y-8147652D01*
X5496504Y-8147652D02*
X5506028Y-8128604D01*
X5506028Y-8128604D02*
X5525075Y-8100033D01*
X5525075Y-8100033D02*
X5534599Y-8090509D01*
X5715551Y-8319080D02*
X5601266Y-8319080D01*
X5658408Y-8319080D02*
X5658408Y-8119080D01*
X5658408Y-8119080D02*
X5639361Y-8147652D01*
X5639361Y-8147652D02*
X5620313Y-8166699D01*
X5620313Y-8166699D02*
X5601266Y-8176223D01*
X5782218Y-8119080D02*
X5906028Y-8119080D01*
X5906028Y-8119080D02*
X5839361Y-8195271D01*
X5839361Y-8195271D02*
X5867932Y-8195271D01*
X5867932Y-8195271D02*
X5886980Y-8204794D01*
X5886980Y-8204794D02*
X5896504Y-8214318D01*
X5896504Y-8214318D02*
X5906028Y-8233366D01*
X5906028Y-8233366D02*
X5906028Y-8280985D01*
X5906028Y-8280985D02*
X5896504Y-8300033D01*
X5896504Y-8300033D02*
X5886980Y-8309556D01*
X5886980Y-8309556D02*
X5867932Y-8319080D01*
X5867932Y-8319080D02*
X5810789Y-8319080D01*
X5810789Y-8319080D02*
X5791742Y-8309556D01*
X5791742Y-8309556D02*
X5782218Y-8300033D01*
X6086980Y-8119080D02*
X5991742Y-8119080D01*
X5991742Y-8119080D02*
X5982218Y-8214318D01*
X5982218Y-8214318D02*
X5991742Y-8204794D01*
X5991742Y-8204794D02*
X6010789Y-8195271D01*
X6010789Y-8195271D02*
X6058409Y-8195271D01*
X6058409Y-8195271D02*
X6077456Y-8204794D01*
X6077456Y-8204794D02*
X6086980Y-8214318D01*
X6086980Y-8214318D02*
X6096504Y-8233366D01*
X6096504Y-8233366D02*
X6096504Y-8280985D01*
X6096504Y-8280985D02*
X6086980Y-8300033D01*
X6086980Y-8300033D02*
X6077456Y-8309556D01*
X6077456Y-8309556D02*
X6058409Y-8319080D01*
X6058409Y-8319080D02*
X6010789Y-8319080D01*
X6010789Y-8319080D02*
X5991742Y-8309556D01*
X5991742Y-8309556D02*
X5982218Y-8300033D01*
X6334599Y-8319080D02*
X6334599Y-8119080D01*
X6420313Y-8319080D02*
X6420313Y-8214318D01*
X6420313Y-8214318D02*
X6410790Y-8195271D01*
X6410790Y-8195271D02*
X6391742Y-8185747D01*
X6391742Y-8185747D02*
X6363170Y-8185747D01*
X6363170Y-8185747D02*
X6344123Y-8195271D01*
X6344123Y-8195271D02*
X6334599Y-8204794D01*
X6544123Y-8319080D02*
X6525075Y-8309556D01*
X6525075Y-8309556D02*
X6515551Y-8300033D01*
X6515551Y-8300033D02*
X6506028Y-8280985D01*
X6506028Y-8280985D02*
X6506028Y-8223842D01*
X6506028Y-8223842D02*
X6515551Y-8204794D01*
X6515551Y-8204794D02*
X6525075Y-8195271D01*
X6525075Y-8195271D02*
X6544123Y-8185747D01*
X6544123Y-8185747D02*
X6572694Y-8185747D01*
X6572694Y-8185747D02*
X6591742Y-8195271D01*
X6591742Y-8195271D02*
X6601266Y-8204794D01*
X6601266Y-8204794D02*
X6610790Y-8223842D01*
X6610790Y-8223842D02*
X6610790Y-8280985D01*
X6610790Y-8280985D02*
X6601266Y-8300033D01*
X6601266Y-8300033D02*
X6591742Y-8309556D01*
X6591742Y-8309556D02*
X6572694Y-8319080D01*
X6572694Y-8319080D02*
X6544123Y-8319080D01*
X6725075Y-8319080D02*
X6706028Y-8309556D01*
X6706028Y-8309556D02*
X6696504Y-8290509D01*
X6696504Y-8290509D02*
X6696504Y-8119080D01*
X6877456Y-8309556D02*
X6858409Y-8319080D01*
X6858409Y-8319080D02*
X6820313Y-8319080D01*
X6820313Y-8319080D02*
X6801266Y-8309556D01*
X6801266Y-8309556D02*
X6791742Y-8290509D01*
X6791742Y-8290509D02*
X6791742Y-8214318D01*
X6791742Y-8214318D02*
X6801266Y-8195271D01*
X6801266Y-8195271D02*
X6820313Y-8185747D01*
X6820313Y-8185747D02*
X6858409Y-8185747D01*
X6858409Y-8185747D02*
X6877456Y-8195271D01*
X6877456Y-8195271D02*
X6886980Y-8214318D01*
X6886980Y-8214318D02*
X6886980Y-8233366D01*
X6886980Y-8233366D02*
X6791742Y-8252414D01*
X6963171Y-8309556D02*
X6982218Y-8319080D01*
X6982218Y-8319080D02*
X7020313Y-8319080D01*
X7020313Y-8319080D02*
X7039361Y-8309556D01*
X7039361Y-8309556D02*
X7048885Y-8290509D01*
X7048885Y-8290509D02*
X7048885Y-8280985D01*
X7048885Y-8280985D02*
X7039361Y-8261937D01*
X7039361Y-8261937D02*
X7020313Y-8252414D01*
X7020313Y-8252414D02*
X6991742Y-8252414D01*
X6991742Y-8252414D02*
X6972694Y-8242890D01*
X6972694Y-8242890D02*
X6963171Y-8223842D01*
X6963171Y-8223842D02*
X6963171Y-8214318D01*
X6963171Y-8214318D02*
X6972694Y-8195271D01*
X6972694Y-8195271D02*
X6991742Y-8185747D01*
X6991742Y-8185747D02*
X7020313Y-8185747D01*
X7020313Y-8185747D02*
X7039361Y-8195271D01*
X7115552Y-8395271D02*
X7125075Y-8385747D01*
X7125075Y-8385747D02*
X7144123Y-8357175D01*
X7144123Y-8357175D02*
X7153647Y-8338128D01*
X7153647Y-8338128D02*
X7163171Y-8309556D01*
X7163171Y-8309556D02*
X7172694Y-8261937D01*
X7172694Y-8261937D02*
X7172694Y-8223842D01*
X7172694Y-8223842D02*
X7163171Y-8176223D01*
X7163171Y-8176223D02*
X7153647Y-8147652D01*
X7153647Y-8147652D02*
X7144123Y-8128604D01*
X7144123Y-8128604D02*
X7125075Y-8100033D01*
X7125075Y-8100033D02*
X7115552Y-8090509D01*
X7477456Y-8395271D02*
X7467932Y-8385747D01*
X7467932Y-8385747D02*
X7448885Y-8357175D01*
X7448885Y-8357175D02*
X7439361Y-8338128D01*
X7439361Y-8338128D02*
X7429837Y-8309556D01*
X7429837Y-8309556D02*
X7420313Y-8261937D01*
X7420313Y-8261937D02*
X7420313Y-8223842D01*
X7420313Y-8223842D02*
X7429837Y-8176223D01*
X7429837Y-8176223D02*
X7439361Y-8147652D01*
X7439361Y-8147652D02*
X7448885Y-8128604D01*
X7448885Y-8128604D02*
X7467932Y-8100033D01*
X7467932Y-8100033D02*
X7477456Y-8090509D01*
X7553647Y-8185747D02*
X7553647Y-8319080D01*
X7553647Y-8204794D02*
X7563171Y-8195271D01*
X7563171Y-8195271D02*
X7582218Y-8185747D01*
X7582218Y-8185747D02*
X7610790Y-8185747D01*
X7610790Y-8185747D02*
X7629837Y-8195271D01*
X7629837Y-8195271D02*
X7639361Y-8214318D01*
X7639361Y-8214318D02*
X7639361Y-8319080D01*
X7763171Y-8319080D02*
X7744123Y-8309556D01*
X7744123Y-8309556D02*
X7734599Y-8300033D01*
X7734599Y-8300033D02*
X7725075Y-8280985D01*
X7725075Y-8280985D02*
X7725075Y-8223842D01*
X7725075Y-8223842D02*
X7734599Y-8204794D01*
X7734599Y-8204794D02*
X7744123Y-8195271D01*
X7744123Y-8195271D02*
X7763171Y-8185747D01*
X7763171Y-8185747D02*
X7791742Y-8185747D01*
X7791742Y-8185747D02*
X7810790Y-8195271D01*
X7810790Y-8195271D02*
X7820313Y-8204794D01*
X7820313Y-8204794D02*
X7829837Y-8223842D01*
X7829837Y-8223842D02*
X7829837Y-8280985D01*
X7829837Y-8280985D02*
X7820313Y-8300033D01*
X7820313Y-8300033D02*
X7810790Y-8309556D01*
X7810790Y-8309556D02*
X7791742Y-8319080D01*
X7791742Y-8319080D02*
X7763171Y-8319080D01*
X7886980Y-8185747D02*
X7963171Y-8185747D01*
X7915552Y-8119080D02*
X7915552Y-8290509D01*
X7915552Y-8290509D02*
X7925075Y-8309556D01*
X7925075Y-8309556D02*
X7944123Y-8319080D01*
X7944123Y-8319080D02*
X7963171Y-8319080D01*
X8182218Y-8185747D02*
X8182218Y-8385747D01*
X8182218Y-8195271D02*
X8201266Y-8185747D01*
X8201266Y-8185747D02*
X8239361Y-8185747D01*
X8239361Y-8185747D02*
X8258409Y-8195271D01*
X8258409Y-8195271D02*
X8267933Y-8204794D01*
X8267933Y-8204794D02*
X8277456Y-8223842D01*
X8277456Y-8223842D02*
X8277456Y-8280985D01*
X8277456Y-8280985D02*
X8267933Y-8300033D01*
X8267933Y-8300033D02*
X8258409Y-8309556D01*
X8258409Y-8309556D02*
X8239361Y-8319080D01*
X8239361Y-8319080D02*
X8201266Y-8319080D01*
X8201266Y-8319080D02*
X8182218Y-8309556D01*
X8391742Y-8319080D02*
X8372694Y-8309556D01*
X8372694Y-8309556D02*
X8363171Y-8290509D01*
X8363171Y-8290509D02*
X8363171Y-8119080D01*
X8553647Y-8319080D02*
X8553647Y-8214318D01*
X8553647Y-8214318D02*
X8544123Y-8195271D01*
X8544123Y-8195271D02*
X8525076Y-8185747D01*
X8525076Y-8185747D02*
X8486980Y-8185747D01*
X8486980Y-8185747D02*
X8467933Y-8195271D01*
X8553647Y-8309556D02*
X8534599Y-8319080D01*
X8534599Y-8319080D02*
X8486980Y-8319080D01*
X8486980Y-8319080D02*
X8467933Y-8309556D01*
X8467933Y-8309556D02*
X8458409Y-8290509D01*
X8458409Y-8290509D02*
X8458409Y-8271461D01*
X8458409Y-8271461D02*
X8467933Y-8252414D01*
X8467933Y-8252414D02*
X8486980Y-8242890D01*
X8486980Y-8242890D02*
X8534599Y-8242890D01*
X8534599Y-8242890D02*
X8553647Y-8233366D01*
X8620314Y-8185747D02*
X8696504Y-8185747D01*
X8648885Y-8119080D02*
X8648885Y-8290509D01*
X8648885Y-8290509D02*
X8658409Y-8309556D01*
X8658409Y-8309556D02*
X8677456Y-8319080D01*
X8677456Y-8319080D02*
X8696504Y-8319080D01*
X8839361Y-8309556D02*
X8820314Y-8319080D01*
X8820314Y-8319080D02*
X8782218Y-8319080D01*
X8782218Y-8319080D02*
X8763171Y-8309556D01*
X8763171Y-8309556D02*
X8753647Y-8290509D01*
X8753647Y-8290509D02*
X8753647Y-8214318D01*
X8753647Y-8214318D02*
X8763171Y-8195271D01*
X8763171Y-8195271D02*
X8782218Y-8185747D01*
X8782218Y-8185747D02*
X8820314Y-8185747D01*
X8820314Y-8185747D02*
X8839361Y-8195271D01*
X8839361Y-8195271D02*
X8848885Y-8214318D01*
X8848885Y-8214318D02*
X8848885Y-8233366D01*
X8848885Y-8233366D02*
X8753647Y-8252414D01*
X9020314Y-8319080D02*
X9020314Y-8119080D01*
X9020314Y-8309556D02*
X9001266Y-8319080D01*
X9001266Y-8319080D02*
X8963171Y-8319080D01*
X8963171Y-8319080D02*
X8944123Y-8309556D01*
X8944123Y-8309556D02*
X8934599Y-8300033D01*
X8934599Y-8300033D02*
X8925076Y-8280985D01*
X8925076Y-8280985D02*
X8925076Y-8223842D01*
X8925076Y-8223842D02*
X8934599Y-8204794D01*
X8934599Y-8204794D02*
X8944123Y-8195271D01*
X8944123Y-8195271D02*
X8963171Y-8185747D01*
X8963171Y-8185747D02*
X9001266Y-8185747D01*
X9001266Y-8185747D02*
X9020314Y-8195271D01*
X9096504Y-8395271D02*
X9106028Y-8385747D01*
X9106028Y-8385747D02*
X9125076Y-8357175D01*
X9125076Y-8357175D02*
X9134599Y-8338128D01*
X9134599Y-8338128D02*
X9144123Y-8309556D01*
X9144123Y-8309556D02*
X9153647Y-8261937D01*
X9153647Y-8261937D02*
X9153647Y-8223842D01*
X9153647Y-8223842D02*
X9144123Y-8176223D01*
X9144123Y-8176223D02*
X9134599Y-8147652D01*
X9134599Y-8147652D02*
X9125076Y-8128604D01*
X9125076Y-8128604D02*
X9106028Y-8100033D01*
X9106028Y-8100033D02*
X9096504Y-8090509D01*
M02*
