M48
; DRILL file {KiCad 7.0.7} date Fri 15 Sep 2023 12:25:28
; FORMAT={-:-/ absolute / inch / decimal}
; #@! TF.CreationDate,2023-09-15T12:25:28+10:00
; #@! TF.GenerationSoftware,Kicad,Pcbnew,7.0.7
; #@! TF.FileFunction,Plated,1,2,PTH
FMAT,2
INCH
; #@! TA.AperFunction,Plated,PTH,ViaDrill
T1C0.0157
; #@! TA.AperFunction,Plated,PTH,ComponentDrill
T2C0.0394
; #@! TA.AperFunction,Plated,PTH,ComponentDrill
T3C0.0591
%
G90
G05
T1
X1.8047Y-2.2088
X1.994Y-2.1911
X2.7422Y-2.1758
X3.4922Y-2.1556
X4.2422Y-2.1379
X4.9922Y-2.1094
X5.744Y-1.2819
X6.494Y-1.2997
X7.244Y-1.3174
X7.9922Y-1.3351
X8.7461Y-1.3516
X9.5Y-1.3828
T2
X0.8359Y-1.4453
X0.8359Y-2.0453
X0.9359Y-1.4453
X0.9359Y-2.0453
X1.0359Y-1.4453
X1.0359Y-2.0453
X1.1359Y-1.4453
X1.1359Y-2.0453
X1.2359Y-1.4453
X1.2359Y-2.0453
X1.3359Y-1.4453
X1.3359Y-2.0453
X1.4359Y-1.4453
X1.4359Y-2.0453
X1.5359Y-1.4453
X1.5359Y-2.0453
X1.6359Y-1.4453
X1.6359Y-2.0453
T3
X1.0Y-0.8945
X1.0Y-1.6445
X1.0Y-2.3945
X1.1875Y-0.8945
X1.1875Y-1.6445
X1.1875Y-2.3945
X1.25Y-0.7945
X1.25Y-1.5445
X1.25Y-2.2945
X1.375Y-0.8945
X1.375Y-1.6445
X1.375Y-2.3945
X1.4375Y-0.7945
X1.4375Y-1.5445
X1.4375Y-2.2945
X1.5625Y-0.8945
X1.5625Y-1.6445
X1.5625Y-2.3945
X1.625Y-0.7945
X1.625Y-1.5445
X1.625Y-2.2945
X1.75Y-0.8945
X1.75Y-1.6445
X1.75Y-2.3945
X1.8125Y-0.7945
X1.8125Y-1.5445
X1.8125Y-2.2945
X1.9375Y-0.8945
X1.9375Y-1.6445
X1.9375Y-2.3945
X2.0Y-0.7945
X2.0Y-1.5445
X2.0Y-2.2945
X2.125Y-0.8945
X2.125Y-1.6445
X2.125Y-2.3945
X2.1875Y-0.7945
X2.1875Y-1.5445
X2.1875Y-2.2945
X2.3125Y-0.8945
X2.3125Y-1.6445
X2.3125Y-2.3945
X2.375Y-0.7945
X2.375Y-1.5445
X2.375Y-2.2945
X2.5Y-0.8945
X2.5Y-1.6445
X2.5Y-2.3945
X2.5625Y-0.7945
X2.5625Y-1.5445
X2.5625Y-2.2945
X2.6875Y-0.8945
X2.6875Y-1.6445
X2.6875Y-2.3945
X2.75Y-0.7945
X2.75Y-1.5445
X2.75Y-2.2945
X2.875Y-0.8945
X2.875Y-1.6445
X2.875Y-2.3945
X2.9375Y-0.7945
X2.9375Y-1.5445
X2.9375Y-2.2945
X3.0625Y-0.8945
X3.0625Y-1.6445
X3.0625Y-2.3945
X3.125Y-0.7945
X3.125Y-1.5445
X3.125Y-2.2945
X3.25Y-0.8945
X3.25Y-1.6445
X3.25Y-2.3945
X3.3125Y-0.7945
X3.3125Y-1.5445
X3.3125Y-2.2945
X3.4375Y-0.8945
X3.4375Y-1.6445
X3.4375Y-2.3945
X3.5Y-0.7945
X3.5Y-1.5445
X3.5Y-2.2945
X3.625Y-0.8945
X3.625Y-1.6445
X3.625Y-2.3945
X3.6875Y-0.7945
X3.6875Y-1.5445
X3.6875Y-2.2945
X3.8125Y-0.8945
X3.8125Y-1.6445
X3.8125Y-2.3945
X3.875Y-0.7945
X3.875Y-1.5445
X3.875Y-2.2945
X4.0Y-0.8945
X4.0Y-1.6445
X4.0Y-2.3945
X4.0625Y-0.7945
X4.0625Y-1.5445
X4.0625Y-2.2945
X4.1875Y-0.8945
X4.1875Y-1.6445
X4.1875Y-2.3945
X4.25Y-0.7945
X4.25Y-1.5445
X4.25Y-2.2945
X4.375Y-0.8945
X4.375Y-1.6445
X4.375Y-2.3945
X4.4375Y-0.7945
X4.4375Y-1.5445
X4.4375Y-2.2945
X4.5625Y-0.8945
X4.5625Y-1.6445
X4.5625Y-2.3945
X4.625Y-0.7945
X4.625Y-1.5445
X4.625Y-2.2945
X4.75Y-0.8945
X4.75Y-1.6445
X4.75Y-2.3945
X4.8125Y-0.7945
X4.8125Y-1.5445
X4.8125Y-2.2945
X4.9375Y-0.8945
X4.9375Y-1.6445
X4.9375Y-2.3945
X5.0Y-0.7945
X5.0Y-1.5445
X5.0Y-2.2945
X5.125Y-0.8945
X5.125Y-1.6445
X5.125Y-2.3945
X5.1875Y-0.7945
X5.1875Y-1.5445
X5.1875Y-2.2945
X5.3125Y-0.8945
X5.3125Y-1.6445
X5.3125Y-2.3945
X5.375Y-0.7945
X5.375Y-1.5445
X5.375Y-2.2945
X5.5Y-0.8945
X5.5Y-1.6445
X5.5Y-2.3945
X5.5625Y-0.7945
X5.5625Y-1.5445
X5.5625Y-2.2945
X5.6875Y-0.8945
X5.6875Y-1.6445
X5.6875Y-2.3945
X5.75Y-0.7945
X5.75Y-1.5445
X5.75Y-2.2945
X5.875Y-0.8945
X5.875Y-1.6445
X5.875Y-2.3945
X5.9375Y-0.7945
X5.9375Y-1.5445
X5.9375Y-2.2945
X6.0625Y-0.8945
X6.0625Y-1.6445
X6.0625Y-2.3945
X6.125Y-0.7945
X6.125Y-1.5445
X6.125Y-2.2945
X6.25Y-0.8945
X6.25Y-1.6445
X6.25Y-2.3945
X6.3125Y-0.7945
X6.3125Y-1.5445
X6.3125Y-2.2945
X6.4375Y-0.8945
X6.4375Y-1.6445
X6.4375Y-2.3945
X6.5Y-0.7945
X6.5Y-1.5445
X6.5Y-2.2945
X6.625Y-0.8945
X6.625Y-1.6445
X6.625Y-2.3945
X6.6875Y-0.7945
X6.6875Y-1.5445
X6.6875Y-2.2945
X6.8125Y-0.8945
X6.8125Y-1.6445
X6.8125Y-2.3945
X6.875Y-0.7945
X6.875Y-1.5445
X6.875Y-2.2945
X7.0Y-0.8945
X7.0Y-1.6445
X7.0Y-2.3945
X7.0625Y-0.7945
X7.0625Y-1.5445
X7.0625Y-2.2945
X7.1875Y-0.8945
X7.1875Y-1.6445
X7.1875Y-2.3945
X7.25Y-0.7945
X7.25Y-1.5445
X7.25Y-2.2945
X7.375Y-0.8945
X7.375Y-1.6445
X7.375Y-2.3945
X7.4375Y-0.7945
X7.4375Y-1.5445
X7.4375Y-2.2945
X7.5625Y-0.8945
X7.5625Y-1.6445
X7.5625Y-2.3945
X7.625Y-0.7945
X7.625Y-1.5445
X7.625Y-2.2945
X7.75Y-0.8945
X7.75Y-1.6445
X7.75Y-2.3945
X7.8125Y-0.7945
X7.8125Y-1.5445
X7.8125Y-2.2945
X7.9375Y-0.8945
X7.9375Y-1.6445
X7.9375Y-2.3945
X8.0Y-0.7945
X8.0Y-1.5445
X8.0Y-2.2945
X8.125Y-0.8945
X8.125Y-1.6445
X8.125Y-2.3945
X8.1875Y-0.7945
X8.1875Y-1.5445
X8.1875Y-2.2945
X8.3125Y-0.8945
X8.3125Y-1.6445
X8.3125Y-2.3945
X8.375Y-0.7945
X8.375Y-1.5445
X8.375Y-2.2945
X8.5Y-0.8945
X8.5Y-1.6445
X8.5Y-2.3945
X8.5625Y-0.7945
X8.5625Y-1.5445
X8.5625Y-2.2945
X8.6875Y-0.8945
X8.6875Y-1.6445
X8.6875Y-2.3945
X8.75Y-0.7945
X8.75Y-1.5445
X8.75Y-2.2945
X8.875Y-0.8945
X8.875Y-1.6445
X8.875Y-2.3945
X8.9375Y-0.7945
X8.9375Y-1.5445
X8.9375Y-2.2945
X9.0625Y-0.8945
X9.0625Y-1.6445
X9.0625Y-2.3945
X9.125Y-0.7945
X9.125Y-1.5445
X9.125Y-2.2945
X9.25Y-0.8945
X9.25Y-1.6445
X9.25Y-2.3945
X9.3125Y-0.7945
X9.3125Y-1.5445
X9.3125Y-2.2945
X9.5Y-0.7945
X9.5Y-1.5445
X9.5Y-2.2945
T0
M30
