%TF.GenerationSoftware,KiCad,Pcbnew,7.0.7*%
%TF.CreationDate,2023-09-15T12:25:31+10:00*%
%TF.ProjectId,fuckit,6675636b-6974-42e6-9b69-6361645f7063,rev?*%
%TF.SameCoordinates,Original*%
%TF.FileFunction,Legend,Bot*%
%TF.FilePolarity,Positive*%
%FSLAX46Y46*%
G04 Gerber Fmt 4.6, Leading zero omitted, Abs format (unit mm)*
G04 Created by KiCad (PCBNEW 7.0.7) date 2023-09-15 12:25:31*
%MOMM*%
%LPD*%
G01*
G04 APERTURE LIST*
%ADD10C,0.150000*%
%ADD11C,0.120000*%
G04 APERTURE END LIST*
D10*
X66103511Y-67015148D02*
X66103511Y-66015148D01*
X66103511Y-66015148D02*
X65865416Y-66015148D01*
X65865416Y-66015148D02*
X65722559Y-66062767D01*
X65722559Y-66062767D02*
X65627321Y-66158005D01*
X65627321Y-66158005D02*
X65579702Y-66253243D01*
X65579702Y-66253243D02*
X65532083Y-66443719D01*
X65532083Y-66443719D02*
X65532083Y-66586576D01*
X65532083Y-66586576D02*
X65579702Y-66777052D01*
X65579702Y-66777052D02*
X65627321Y-66872290D01*
X65627321Y-66872290D02*
X65722559Y-66967529D01*
X65722559Y-66967529D02*
X65865416Y-67015148D01*
X65865416Y-67015148D02*
X66103511Y-67015148D01*
X65151130Y-66110386D02*
X65103511Y-66062767D01*
X65103511Y-66062767D02*
X65008273Y-66015148D01*
X65008273Y-66015148D02*
X64770178Y-66015148D01*
X64770178Y-66015148D02*
X64674940Y-66062767D01*
X64674940Y-66062767D02*
X64627321Y-66110386D01*
X64627321Y-66110386D02*
X64579702Y-66205624D01*
X64579702Y-66205624D02*
X64579702Y-66300862D01*
X64579702Y-66300862D02*
X64627321Y-66443719D01*
X64627321Y-66443719D02*
X65198749Y-67015148D01*
X65198749Y-67015148D02*
X64579702Y-67015148D01*
X64246368Y-66015148D02*
X63579702Y-66015148D01*
X63579702Y-66015148D02*
X64008273Y-67015148D01*
X66202730Y-47965100D02*
X66202730Y-46965100D01*
X66202730Y-46965100D02*
X65964635Y-46965100D01*
X65964635Y-46965100D02*
X65821778Y-47012719D01*
X65821778Y-47012719D02*
X65726540Y-47107957D01*
X65726540Y-47107957D02*
X65678921Y-47203195D01*
X65678921Y-47203195D02*
X65631302Y-47393671D01*
X65631302Y-47393671D02*
X65631302Y-47536528D01*
X65631302Y-47536528D02*
X65678921Y-47727004D01*
X65678921Y-47727004D02*
X65726540Y-47822242D01*
X65726540Y-47822242D02*
X65821778Y-47917481D01*
X65821778Y-47917481D02*
X65964635Y-47965100D01*
X65964635Y-47965100D02*
X66202730Y-47965100D01*
X64678921Y-47965100D02*
X65250349Y-47965100D01*
X64964635Y-47965100D02*
X64964635Y-46965100D01*
X64964635Y-46965100D02*
X65059873Y-47107957D01*
X65059873Y-47107957D02*
X65155111Y-47203195D01*
X65155111Y-47203195D02*
X65250349Y-47250814D01*
X63774159Y-46965100D02*
X64250349Y-46965100D01*
X64250349Y-46965100D02*
X64297968Y-47441290D01*
X64297968Y-47441290D02*
X64250349Y-47393671D01*
X64250349Y-47393671D02*
X64155111Y-47346052D01*
X64155111Y-47346052D02*
X63917016Y-47346052D01*
X63917016Y-47346052D02*
X63821778Y-47393671D01*
X63821778Y-47393671D02*
X63774159Y-47441290D01*
X63774159Y-47441290D02*
X63726540Y-47536528D01*
X63726540Y-47536528D02*
X63726540Y-47774623D01*
X63726540Y-47774623D02*
X63774159Y-47869861D01*
X63774159Y-47869861D02*
X63821778Y-47917481D01*
X63821778Y-47917481D02*
X63917016Y-47965100D01*
X63917016Y-47965100D02*
X64155111Y-47965100D01*
X64155111Y-47965100D02*
X64250349Y-47917481D01*
X64250349Y-47917481D02*
X64297968Y-47869861D01*
X237491447Y-28915052D02*
X237491447Y-27915052D01*
X237491447Y-27915052D02*
X237253352Y-27915052D01*
X237253352Y-27915052D02*
X237110495Y-27962671D01*
X237110495Y-27962671D02*
X237015257Y-28057909D01*
X237015257Y-28057909D02*
X236967638Y-28153147D01*
X236967638Y-28153147D02*
X236920019Y-28343623D01*
X236920019Y-28343623D02*
X236920019Y-28486480D01*
X236920019Y-28486480D02*
X236967638Y-28676956D01*
X236967638Y-28676956D02*
X237015257Y-28772194D01*
X237015257Y-28772194D02*
X237110495Y-28867433D01*
X237110495Y-28867433D02*
X237253352Y-28915052D01*
X237253352Y-28915052D02*
X237491447Y-28915052D01*
X235967638Y-28915052D02*
X236539066Y-28915052D01*
X236253352Y-28915052D02*
X236253352Y-27915052D01*
X236253352Y-27915052D02*
X236348590Y-28057909D01*
X236348590Y-28057909D02*
X236443828Y-28153147D01*
X236443828Y-28153147D02*
X236539066Y-28200766D01*
X235586685Y-28010290D02*
X235539066Y-27962671D01*
X235539066Y-27962671D02*
X235443828Y-27915052D01*
X235443828Y-27915052D02*
X235205733Y-27915052D01*
X235205733Y-27915052D02*
X235110495Y-27962671D01*
X235110495Y-27962671D02*
X235062876Y-28010290D01*
X235062876Y-28010290D02*
X235015257Y-28105528D01*
X235015257Y-28105528D02*
X235015257Y-28200766D01*
X235015257Y-28200766D02*
X235062876Y-28343623D01*
X235062876Y-28343623D02*
X235634304Y-28915052D01*
X235634304Y-28915052D02*
X235015257Y-28915052D01*
X85190282Y-67015148D02*
X85190282Y-66015148D01*
X85190282Y-66015148D02*
X84952187Y-66015148D01*
X84952187Y-66015148D02*
X84809330Y-66062767D01*
X84809330Y-66062767D02*
X84714092Y-66158005D01*
X84714092Y-66158005D02*
X84666473Y-66253243D01*
X84666473Y-66253243D02*
X84618854Y-66443719D01*
X84618854Y-66443719D02*
X84618854Y-66586576D01*
X84618854Y-66586576D02*
X84666473Y-66777052D01*
X84666473Y-66777052D02*
X84714092Y-66872290D01*
X84714092Y-66872290D02*
X84809330Y-66967529D01*
X84809330Y-66967529D02*
X84952187Y-67015148D01*
X84952187Y-67015148D02*
X85190282Y-67015148D01*
X84237901Y-66110386D02*
X84190282Y-66062767D01*
X84190282Y-66062767D02*
X84095044Y-66015148D01*
X84095044Y-66015148D02*
X83856949Y-66015148D01*
X83856949Y-66015148D02*
X83761711Y-66062767D01*
X83761711Y-66062767D02*
X83714092Y-66110386D01*
X83714092Y-66110386D02*
X83666473Y-66205624D01*
X83666473Y-66205624D02*
X83666473Y-66300862D01*
X83666473Y-66300862D02*
X83714092Y-66443719D01*
X83714092Y-66443719D02*
X84285520Y-67015148D01*
X84285520Y-67015148D02*
X83666473Y-67015148D01*
X83095044Y-66443719D02*
X83190282Y-66396100D01*
X83190282Y-66396100D02*
X83237901Y-66348481D01*
X83237901Y-66348481D02*
X83285520Y-66253243D01*
X83285520Y-66253243D02*
X83285520Y-66205624D01*
X83285520Y-66205624D02*
X83237901Y-66110386D01*
X83237901Y-66110386D02*
X83190282Y-66062767D01*
X83190282Y-66062767D02*
X83095044Y-66015148D01*
X83095044Y-66015148D02*
X82904568Y-66015148D01*
X82904568Y-66015148D02*
X82809330Y-66062767D01*
X82809330Y-66062767D02*
X82761711Y-66110386D01*
X82761711Y-66110386D02*
X82714092Y-66205624D01*
X82714092Y-66205624D02*
X82714092Y-66253243D01*
X82714092Y-66253243D02*
X82761711Y-66348481D01*
X82761711Y-66348481D02*
X82809330Y-66396100D01*
X82809330Y-66396100D02*
X82904568Y-66443719D01*
X82904568Y-66443719D02*
X83095044Y-66443719D01*
X83095044Y-66443719D02*
X83190282Y-66491338D01*
X83190282Y-66491338D02*
X83237901Y-66538957D01*
X83237901Y-66538957D02*
X83285520Y-66634195D01*
X83285520Y-66634195D02*
X83285520Y-66824671D01*
X83285520Y-66824671D02*
X83237901Y-66919909D01*
X83237901Y-66919909D02*
X83190282Y-66967529D01*
X83190282Y-66967529D02*
X83095044Y-67015148D01*
X83095044Y-67015148D02*
X82904568Y-67015148D01*
X82904568Y-67015148D02*
X82809330Y-66967529D01*
X82809330Y-66967529D02*
X82761711Y-66919909D01*
X82761711Y-66919909D02*
X82714092Y-66824671D01*
X82714092Y-66824671D02*
X82714092Y-66634195D01*
X82714092Y-66634195D02*
X82761711Y-66538957D01*
X82761711Y-66538957D02*
X82809330Y-66491338D01*
X82809330Y-66491338D02*
X82904568Y-66443719D01*
X142303703Y-47965100D02*
X142303703Y-46965100D01*
X142303703Y-46965100D02*
X142065608Y-46965100D01*
X142065608Y-46965100D02*
X141922751Y-47012719D01*
X141922751Y-47012719D02*
X141827513Y-47107957D01*
X141827513Y-47107957D02*
X141779894Y-47203195D01*
X141779894Y-47203195D02*
X141732275Y-47393671D01*
X141732275Y-47393671D02*
X141732275Y-47536528D01*
X141732275Y-47536528D02*
X141779894Y-47727004D01*
X141779894Y-47727004D02*
X141827513Y-47822242D01*
X141827513Y-47822242D02*
X141922751Y-47917481D01*
X141922751Y-47917481D02*
X142065608Y-47965100D01*
X142065608Y-47965100D02*
X142303703Y-47965100D01*
X140779894Y-47965100D02*
X141351322Y-47965100D01*
X141065608Y-47965100D02*
X141065608Y-46965100D01*
X141065608Y-46965100D02*
X141160846Y-47107957D01*
X141160846Y-47107957D02*
X141256084Y-47203195D01*
X141256084Y-47203195D02*
X141351322Y-47250814D01*
X140303703Y-47965100D02*
X140113227Y-47965100D01*
X140113227Y-47965100D02*
X140017989Y-47917481D01*
X140017989Y-47917481D02*
X139970370Y-47869861D01*
X139970370Y-47869861D02*
X139875132Y-47727004D01*
X139875132Y-47727004D02*
X139827513Y-47536528D01*
X139827513Y-47536528D02*
X139827513Y-47155576D01*
X139827513Y-47155576D02*
X139875132Y-47060338D01*
X139875132Y-47060338D02*
X139922751Y-47012719D01*
X139922751Y-47012719D02*
X140017989Y-46965100D01*
X140017989Y-46965100D02*
X140208465Y-46965100D01*
X140208465Y-46965100D02*
X140303703Y-47012719D01*
X140303703Y-47012719D02*
X140351322Y-47060338D01*
X140351322Y-47060338D02*
X140398941Y-47155576D01*
X140398941Y-47155576D02*
X140398941Y-47393671D01*
X140398941Y-47393671D02*
X140351322Y-47488909D01*
X140351322Y-47488909D02*
X140303703Y-47536528D01*
X140303703Y-47536528D02*
X140208465Y-47584147D01*
X140208465Y-47584147D02*
X140017989Y-47584147D01*
X140017989Y-47584147D02*
X139922751Y-47536528D01*
X139922751Y-47536528D02*
X139875132Y-47488909D01*
X139875132Y-47488909D02*
X139827513Y-47393671D01*
X104240330Y-67015148D02*
X104240330Y-66015148D01*
X104240330Y-66015148D02*
X104002235Y-66015148D01*
X104002235Y-66015148D02*
X103859378Y-66062767D01*
X103859378Y-66062767D02*
X103764140Y-66158005D01*
X103764140Y-66158005D02*
X103716521Y-66253243D01*
X103716521Y-66253243D02*
X103668902Y-66443719D01*
X103668902Y-66443719D02*
X103668902Y-66586576D01*
X103668902Y-66586576D02*
X103716521Y-66777052D01*
X103716521Y-66777052D02*
X103764140Y-66872290D01*
X103764140Y-66872290D02*
X103859378Y-66967529D01*
X103859378Y-66967529D02*
X104002235Y-67015148D01*
X104002235Y-67015148D02*
X104240330Y-67015148D01*
X103287949Y-66110386D02*
X103240330Y-66062767D01*
X103240330Y-66062767D02*
X103145092Y-66015148D01*
X103145092Y-66015148D02*
X102906997Y-66015148D01*
X102906997Y-66015148D02*
X102811759Y-66062767D01*
X102811759Y-66062767D02*
X102764140Y-66110386D01*
X102764140Y-66110386D02*
X102716521Y-66205624D01*
X102716521Y-66205624D02*
X102716521Y-66300862D01*
X102716521Y-66300862D02*
X102764140Y-66443719D01*
X102764140Y-66443719D02*
X103335568Y-67015148D01*
X103335568Y-67015148D02*
X102716521Y-67015148D01*
X102240330Y-67015148D02*
X102049854Y-67015148D01*
X102049854Y-67015148D02*
X101954616Y-66967529D01*
X101954616Y-66967529D02*
X101906997Y-66919909D01*
X101906997Y-66919909D02*
X101811759Y-66777052D01*
X101811759Y-66777052D02*
X101764140Y-66586576D01*
X101764140Y-66586576D02*
X101764140Y-66205624D01*
X101764140Y-66205624D02*
X101811759Y-66110386D01*
X101811759Y-66110386D02*
X101859378Y-66062767D01*
X101859378Y-66062767D02*
X101954616Y-66015148D01*
X101954616Y-66015148D02*
X102145092Y-66015148D01*
X102145092Y-66015148D02*
X102240330Y-66062767D01*
X102240330Y-66062767D02*
X102287949Y-66110386D01*
X102287949Y-66110386D02*
X102335568Y-66205624D01*
X102335568Y-66205624D02*
X102335568Y-66443719D01*
X102335568Y-66443719D02*
X102287949Y-66538957D01*
X102287949Y-66538957D02*
X102240330Y-66586576D01*
X102240330Y-66586576D02*
X102145092Y-66634195D01*
X102145092Y-66634195D02*
X101954616Y-66634195D01*
X101954616Y-66634195D02*
X101859378Y-66586576D01*
X101859378Y-66586576D02*
X101811759Y-66538957D01*
X101811759Y-66538957D02*
X101764140Y-66443719D01*
X28065911Y-47965100D02*
X28065911Y-46965100D01*
X28065911Y-46965100D02*
X27827816Y-46965100D01*
X27827816Y-46965100D02*
X27684959Y-47012719D01*
X27684959Y-47012719D02*
X27589721Y-47107957D01*
X27589721Y-47107957D02*
X27542102Y-47203195D01*
X27542102Y-47203195D02*
X27494483Y-47393671D01*
X27494483Y-47393671D02*
X27494483Y-47536528D01*
X27494483Y-47536528D02*
X27542102Y-47727004D01*
X27542102Y-47727004D02*
X27589721Y-47822242D01*
X27589721Y-47822242D02*
X27684959Y-47917481D01*
X27684959Y-47917481D02*
X27827816Y-47965100D01*
X27827816Y-47965100D02*
X28065911Y-47965100D01*
X26542102Y-47965100D02*
X27113530Y-47965100D01*
X26827816Y-47965100D02*
X26827816Y-46965100D01*
X26827816Y-46965100D02*
X26923054Y-47107957D01*
X26923054Y-47107957D02*
X27018292Y-47203195D01*
X27018292Y-47203195D02*
X27113530Y-47250814D01*
X26208768Y-46965100D02*
X25589721Y-46965100D01*
X25589721Y-46965100D02*
X25923054Y-47346052D01*
X25923054Y-47346052D02*
X25780197Y-47346052D01*
X25780197Y-47346052D02*
X25684959Y-47393671D01*
X25684959Y-47393671D02*
X25637340Y-47441290D01*
X25637340Y-47441290D02*
X25589721Y-47536528D01*
X25589721Y-47536528D02*
X25589721Y-47774623D01*
X25589721Y-47774623D02*
X25637340Y-47869861D01*
X25637340Y-47869861D02*
X25684959Y-47917481D01*
X25684959Y-47917481D02*
X25780197Y-47965100D01*
X25780197Y-47965100D02*
X26065911Y-47965100D01*
X26065911Y-47965100D02*
X26161149Y-47917481D01*
X26161149Y-47917481D02*
X26208768Y-47869861D01*
X84714091Y-28915052D02*
X84714091Y-27915052D01*
X84714091Y-27915052D02*
X84475996Y-27915052D01*
X84475996Y-27915052D02*
X84333139Y-27962671D01*
X84333139Y-27962671D02*
X84237901Y-28057909D01*
X84237901Y-28057909D02*
X84190282Y-28153147D01*
X84190282Y-28153147D02*
X84142663Y-28343623D01*
X84142663Y-28343623D02*
X84142663Y-28486480D01*
X84142663Y-28486480D02*
X84190282Y-28676956D01*
X84190282Y-28676956D02*
X84237901Y-28772194D01*
X84237901Y-28772194D02*
X84333139Y-28867433D01*
X84333139Y-28867433D02*
X84475996Y-28915052D01*
X84475996Y-28915052D02*
X84714091Y-28915052D01*
X83285520Y-28248385D02*
X83285520Y-28915052D01*
X83523615Y-27867433D02*
X83761710Y-28581718D01*
X83761710Y-28581718D02*
X83142663Y-28581718D01*
X104302826Y-47965100D02*
X104302826Y-46965100D01*
X104302826Y-46965100D02*
X104064731Y-46965100D01*
X104064731Y-46965100D02*
X103921874Y-47012719D01*
X103921874Y-47012719D02*
X103826636Y-47107957D01*
X103826636Y-47107957D02*
X103779017Y-47203195D01*
X103779017Y-47203195D02*
X103731398Y-47393671D01*
X103731398Y-47393671D02*
X103731398Y-47536528D01*
X103731398Y-47536528D02*
X103779017Y-47727004D01*
X103779017Y-47727004D02*
X103826636Y-47822242D01*
X103826636Y-47822242D02*
X103921874Y-47917481D01*
X103921874Y-47917481D02*
X104064731Y-47965100D01*
X104064731Y-47965100D02*
X104302826Y-47965100D01*
X102779017Y-47965100D02*
X103350445Y-47965100D01*
X103064731Y-47965100D02*
X103064731Y-46965100D01*
X103064731Y-46965100D02*
X103159969Y-47107957D01*
X103159969Y-47107957D02*
X103255207Y-47203195D01*
X103255207Y-47203195D02*
X103350445Y-47250814D01*
X102445683Y-46965100D02*
X101779017Y-46965100D01*
X101779017Y-46965100D02*
X102207588Y-47965100D01*
X180440522Y-47965100D02*
X180440522Y-46965100D01*
X180440522Y-46965100D02*
X180202427Y-46965100D01*
X180202427Y-46965100D02*
X180059570Y-47012719D01*
X180059570Y-47012719D02*
X179964332Y-47107957D01*
X179964332Y-47107957D02*
X179916713Y-47203195D01*
X179916713Y-47203195D02*
X179869094Y-47393671D01*
X179869094Y-47393671D02*
X179869094Y-47536528D01*
X179869094Y-47536528D02*
X179916713Y-47727004D01*
X179916713Y-47727004D02*
X179964332Y-47822242D01*
X179964332Y-47822242D02*
X180059570Y-47917481D01*
X180059570Y-47917481D02*
X180202427Y-47965100D01*
X180202427Y-47965100D02*
X180440522Y-47965100D01*
X179488141Y-47060338D02*
X179440522Y-47012719D01*
X179440522Y-47012719D02*
X179345284Y-46965100D01*
X179345284Y-46965100D02*
X179107189Y-46965100D01*
X179107189Y-46965100D02*
X179011951Y-47012719D01*
X179011951Y-47012719D02*
X178964332Y-47060338D01*
X178964332Y-47060338D02*
X178916713Y-47155576D01*
X178916713Y-47155576D02*
X178916713Y-47250814D01*
X178916713Y-47250814D02*
X178964332Y-47393671D01*
X178964332Y-47393671D02*
X179535760Y-47965100D01*
X179535760Y-47965100D02*
X178916713Y-47965100D01*
X177964332Y-47965100D02*
X178535760Y-47965100D01*
X178250046Y-47965100D02*
X178250046Y-46965100D01*
X178250046Y-46965100D02*
X178345284Y-47107957D01*
X178345284Y-47107957D02*
X178440522Y-47203195D01*
X178440522Y-47203195D02*
X178535760Y-47250814D01*
X160914283Y-28915052D02*
X160914283Y-27915052D01*
X160914283Y-27915052D02*
X160676188Y-27915052D01*
X160676188Y-27915052D02*
X160533331Y-27962671D01*
X160533331Y-27962671D02*
X160438093Y-28057909D01*
X160438093Y-28057909D02*
X160390474Y-28153147D01*
X160390474Y-28153147D02*
X160342855Y-28343623D01*
X160342855Y-28343623D02*
X160342855Y-28486480D01*
X160342855Y-28486480D02*
X160390474Y-28676956D01*
X160390474Y-28676956D02*
X160438093Y-28772194D01*
X160438093Y-28772194D02*
X160533331Y-28867433D01*
X160533331Y-28867433D02*
X160676188Y-28915052D01*
X160676188Y-28915052D02*
X160914283Y-28915052D01*
X159771426Y-28343623D02*
X159866664Y-28296004D01*
X159866664Y-28296004D02*
X159914283Y-28248385D01*
X159914283Y-28248385D02*
X159961902Y-28153147D01*
X159961902Y-28153147D02*
X159961902Y-28105528D01*
X159961902Y-28105528D02*
X159914283Y-28010290D01*
X159914283Y-28010290D02*
X159866664Y-27962671D01*
X159866664Y-27962671D02*
X159771426Y-27915052D01*
X159771426Y-27915052D02*
X159580950Y-27915052D01*
X159580950Y-27915052D02*
X159485712Y-27962671D01*
X159485712Y-27962671D02*
X159438093Y-28010290D01*
X159438093Y-28010290D02*
X159390474Y-28105528D01*
X159390474Y-28105528D02*
X159390474Y-28153147D01*
X159390474Y-28153147D02*
X159438093Y-28248385D01*
X159438093Y-28248385D02*
X159485712Y-28296004D01*
X159485712Y-28296004D02*
X159580950Y-28343623D01*
X159580950Y-28343623D02*
X159771426Y-28343623D01*
X159771426Y-28343623D02*
X159866664Y-28391242D01*
X159866664Y-28391242D02*
X159914283Y-28438861D01*
X159914283Y-28438861D02*
X159961902Y-28534099D01*
X159961902Y-28534099D02*
X159961902Y-28724575D01*
X159961902Y-28724575D02*
X159914283Y-28819813D01*
X159914283Y-28819813D02*
X159866664Y-28867433D01*
X159866664Y-28867433D02*
X159771426Y-28915052D01*
X159771426Y-28915052D02*
X159580950Y-28915052D01*
X159580950Y-28915052D02*
X159485712Y-28867433D01*
X159485712Y-28867433D02*
X159438093Y-28819813D01*
X159438093Y-28819813D02*
X159390474Y-28724575D01*
X159390474Y-28724575D02*
X159390474Y-28534099D01*
X159390474Y-28534099D02*
X159438093Y-28438861D01*
X159438093Y-28438861D02*
X159485712Y-28391242D01*
X159485712Y-28391242D02*
X159580950Y-28343623D01*
X142266980Y-67015148D02*
X142266980Y-66015148D01*
X142266980Y-66015148D02*
X142028885Y-66015148D01*
X142028885Y-66015148D02*
X141886028Y-66062767D01*
X141886028Y-66062767D02*
X141790790Y-66158005D01*
X141790790Y-66158005D02*
X141743171Y-66253243D01*
X141743171Y-66253243D02*
X141695552Y-66443719D01*
X141695552Y-66443719D02*
X141695552Y-66586576D01*
X141695552Y-66586576D02*
X141743171Y-66777052D01*
X141743171Y-66777052D02*
X141790790Y-66872290D01*
X141790790Y-66872290D02*
X141886028Y-66967529D01*
X141886028Y-66967529D02*
X142028885Y-67015148D01*
X142028885Y-67015148D02*
X142266980Y-67015148D01*
X141362218Y-66015148D02*
X140743171Y-66015148D01*
X140743171Y-66015148D02*
X141076504Y-66396100D01*
X141076504Y-66396100D02*
X140933647Y-66396100D01*
X140933647Y-66396100D02*
X140838409Y-66443719D01*
X140838409Y-66443719D02*
X140790790Y-66491338D01*
X140790790Y-66491338D02*
X140743171Y-66586576D01*
X140743171Y-66586576D02*
X140743171Y-66824671D01*
X140743171Y-66824671D02*
X140790790Y-66919909D01*
X140790790Y-66919909D02*
X140838409Y-66967529D01*
X140838409Y-66967529D02*
X140933647Y-67015148D01*
X140933647Y-67015148D02*
X141219361Y-67015148D01*
X141219361Y-67015148D02*
X141314599Y-66967529D01*
X141314599Y-66967529D02*
X141362218Y-66919909D01*
X139790790Y-67015148D02*
X140362218Y-67015148D01*
X140076504Y-67015148D02*
X140076504Y-66015148D01*
X140076504Y-66015148D02*
X140171742Y-66158005D01*
X140171742Y-66158005D02*
X140266980Y-66253243D01*
X140266980Y-66253243D02*
X140362218Y-66300862D01*
X122814187Y-28915052D02*
X122814187Y-27915052D01*
X122814187Y-27915052D02*
X122576092Y-27915052D01*
X122576092Y-27915052D02*
X122433235Y-27962671D01*
X122433235Y-27962671D02*
X122337997Y-28057909D01*
X122337997Y-28057909D02*
X122290378Y-28153147D01*
X122290378Y-28153147D02*
X122242759Y-28343623D01*
X122242759Y-28343623D02*
X122242759Y-28486480D01*
X122242759Y-28486480D02*
X122290378Y-28676956D01*
X122290378Y-28676956D02*
X122337997Y-28772194D01*
X122337997Y-28772194D02*
X122433235Y-28867433D01*
X122433235Y-28867433D02*
X122576092Y-28915052D01*
X122576092Y-28915052D02*
X122814187Y-28915052D01*
X121385616Y-27915052D02*
X121576092Y-27915052D01*
X121576092Y-27915052D02*
X121671330Y-27962671D01*
X121671330Y-27962671D02*
X121718949Y-28010290D01*
X121718949Y-28010290D02*
X121814187Y-28153147D01*
X121814187Y-28153147D02*
X121861806Y-28343623D01*
X121861806Y-28343623D02*
X121861806Y-28724575D01*
X121861806Y-28724575D02*
X121814187Y-28819813D01*
X121814187Y-28819813D02*
X121766568Y-28867433D01*
X121766568Y-28867433D02*
X121671330Y-28915052D01*
X121671330Y-28915052D02*
X121480854Y-28915052D01*
X121480854Y-28915052D02*
X121385616Y-28867433D01*
X121385616Y-28867433D02*
X121337997Y-28819813D01*
X121337997Y-28819813D02*
X121290378Y-28724575D01*
X121290378Y-28724575D02*
X121290378Y-28486480D01*
X121290378Y-28486480D02*
X121337997Y-28391242D01*
X121337997Y-28391242D02*
X121385616Y-28343623D01*
X121385616Y-28343623D02*
X121480854Y-28296004D01*
X121480854Y-28296004D02*
X121671330Y-28296004D01*
X121671330Y-28296004D02*
X121766568Y-28343623D01*
X121766568Y-28343623D02*
X121814187Y-28391242D01*
X121814187Y-28391242D02*
X121861806Y-28486480D01*
X180440522Y-67015148D02*
X180440522Y-66015148D01*
X180440522Y-66015148D02*
X180202427Y-66015148D01*
X180202427Y-66015148D02*
X180059570Y-66062767D01*
X180059570Y-66062767D02*
X179964332Y-66158005D01*
X179964332Y-66158005D02*
X179916713Y-66253243D01*
X179916713Y-66253243D02*
X179869094Y-66443719D01*
X179869094Y-66443719D02*
X179869094Y-66586576D01*
X179869094Y-66586576D02*
X179916713Y-66777052D01*
X179916713Y-66777052D02*
X179964332Y-66872290D01*
X179964332Y-66872290D02*
X180059570Y-66967529D01*
X180059570Y-66967529D02*
X180202427Y-67015148D01*
X180202427Y-67015148D02*
X180440522Y-67015148D01*
X179535760Y-66015148D02*
X178916713Y-66015148D01*
X178916713Y-66015148D02*
X179250046Y-66396100D01*
X179250046Y-66396100D02*
X179107189Y-66396100D01*
X179107189Y-66396100D02*
X179011951Y-66443719D01*
X179011951Y-66443719D02*
X178964332Y-66491338D01*
X178964332Y-66491338D02*
X178916713Y-66586576D01*
X178916713Y-66586576D02*
X178916713Y-66824671D01*
X178916713Y-66824671D02*
X178964332Y-66919909D01*
X178964332Y-66919909D02*
X179011951Y-66967529D01*
X179011951Y-66967529D02*
X179107189Y-67015148D01*
X179107189Y-67015148D02*
X179392903Y-67015148D01*
X179392903Y-67015148D02*
X179488141Y-66967529D01*
X179488141Y-66967529D02*
X179535760Y-66919909D01*
X178583379Y-66015148D02*
X177964332Y-66015148D01*
X177964332Y-66015148D02*
X178297665Y-66396100D01*
X178297665Y-66396100D02*
X178154808Y-66396100D01*
X178154808Y-66396100D02*
X178059570Y-66443719D01*
X178059570Y-66443719D02*
X178011951Y-66491338D01*
X178011951Y-66491338D02*
X177964332Y-66586576D01*
X177964332Y-66586576D02*
X177964332Y-66824671D01*
X177964332Y-66824671D02*
X178011951Y-66919909D01*
X178011951Y-66919909D02*
X178059570Y-66967529D01*
X178059570Y-66967529D02*
X178154808Y-67015148D01*
X178154808Y-67015148D02*
X178440522Y-67015148D01*
X178440522Y-67015148D02*
X178535760Y-66967529D01*
X178535760Y-66967529D02*
X178583379Y-66919909D01*
X218540618Y-28915052D02*
X218540618Y-27915052D01*
X218540618Y-27915052D02*
X218302523Y-27915052D01*
X218302523Y-27915052D02*
X218159666Y-27962671D01*
X218159666Y-27962671D02*
X218064428Y-28057909D01*
X218064428Y-28057909D02*
X218016809Y-28153147D01*
X218016809Y-28153147D02*
X217969190Y-28343623D01*
X217969190Y-28343623D02*
X217969190Y-28486480D01*
X217969190Y-28486480D02*
X218016809Y-28676956D01*
X218016809Y-28676956D02*
X218064428Y-28772194D01*
X218064428Y-28772194D02*
X218159666Y-28867433D01*
X218159666Y-28867433D02*
X218302523Y-28915052D01*
X218302523Y-28915052D02*
X218540618Y-28915052D01*
X217016809Y-28915052D02*
X217588237Y-28915052D01*
X217302523Y-28915052D02*
X217302523Y-27915052D01*
X217302523Y-27915052D02*
X217397761Y-28057909D01*
X217397761Y-28057909D02*
X217492999Y-28153147D01*
X217492999Y-28153147D02*
X217588237Y-28200766D01*
X216064428Y-28915052D02*
X216635856Y-28915052D01*
X216350142Y-28915052D02*
X216350142Y-27915052D01*
X216350142Y-27915052D02*
X216445380Y-28057909D01*
X216445380Y-28057909D02*
X216540618Y-28153147D01*
X216540618Y-28153147D02*
X216635856Y-28200766D01*
X199490570Y-28915052D02*
X199490570Y-27915052D01*
X199490570Y-27915052D02*
X199252475Y-27915052D01*
X199252475Y-27915052D02*
X199109618Y-27962671D01*
X199109618Y-27962671D02*
X199014380Y-28057909D01*
X199014380Y-28057909D02*
X198966761Y-28153147D01*
X198966761Y-28153147D02*
X198919142Y-28343623D01*
X198919142Y-28343623D02*
X198919142Y-28486480D01*
X198919142Y-28486480D02*
X198966761Y-28676956D01*
X198966761Y-28676956D02*
X199014380Y-28772194D01*
X199014380Y-28772194D02*
X199109618Y-28867433D01*
X199109618Y-28867433D02*
X199252475Y-28915052D01*
X199252475Y-28915052D02*
X199490570Y-28915052D01*
X197966761Y-28915052D02*
X198538189Y-28915052D01*
X198252475Y-28915052D02*
X198252475Y-27915052D01*
X198252475Y-27915052D02*
X198347713Y-28057909D01*
X198347713Y-28057909D02*
X198442951Y-28153147D01*
X198442951Y-28153147D02*
X198538189Y-28200766D01*
X197347713Y-27915052D02*
X197252475Y-27915052D01*
X197252475Y-27915052D02*
X197157237Y-27962671D01*
X197157237Y-27962671D02*
X197109618Y-28010290D01*
X197109618Y-28010290D02*
X197061999Y-28105528D01*
X197061999Y-28105528D02*
X197014380Y-28296004D01*
X197014380Y-28296004D02*
X197014380Y-28534099D01*
X197014380Y-28534099D02*
X197061999Y-28724575D01*
X197061999Y-28724575D02*
X197109618Y-28819813D01*
X197109618Y-28819813D02*
X197157237Y-28867433D01*
X197157237Y-28867433D02*
X197252475Y-28915052D01*
X197252475Y-28915052D02*
X197347713Y-28915052D01*
X197347713Y-28915052D02*
X197442951Y-28867433D01*
X197442951Y-28867433D02*
X197490570Y-28819813D01*
X197490570Y-28819813D02*
X197538189Y-28724575D01*
X197538189Y-28724575D02*
X197585808Y-28534099D01*
X197585808Y-28534099D02*
X197585808Y-28296004D01*
X197585808Y-28296004D02*
X197538189Y-28105528D01*
X197538189Y-28105528D02*
X197490570Y-28010290D01*
X197490570Y-28010290D02*
X197442951Y-27962671D01*
X197442951Y-27962671D02*
X197347713Y-27915052D01*
X27527224Y-28915052D02*
X27527224Y-27915052D01*
X27527224Y-27915052D02*
X27289129Y-27915052D01*
X27289129Y-27915052D02*
X27146272Y-27962671D01*
X27146272Y-27962671D02*
X27051034Y-28057909D01*
X27051034Y-28057909D02*
X27003415Y-28153147D01*
X27003415Y-28153147D02*
X26955796Y-28343623D01*
X26955796Y-28343623D02*
X26955796Y-28486480D01*
X26955796Y-28486480D02*
X27003415Y-28676956D01*
X27003415Y-28676956D02*
X27051034Y-28772194D01*
X27051034Y-28772194D02*
X27146272Y-28867433D01*
X27146272Y-28867433D02*
X27289129Y-28915052D01*
X27289129Y-28915052D02*
X27527224Y-28915052D01*
X26003415Y-28915052D02*
X26574843Y-28915052D01*
X26289129Y-28915052D02*
X26289129Y-27915052D01*
X26289129Y-27915052D02*
X26384367Y-28057909D01*
X26384367Y-28057909D02*
X26479605Y-28153147D01*
X26479605Y-28153147D02*
X26574843Y-28200766D01*
X65664043Y-28915052D02*
X65664043Y-27915052D01*
X65664043Y-27915052D02*
X65425948Y-27915052D01*
X65425948Y-27915052D02*
X65283091Y-27962671D01*
X65283091Y-27962671D02*
X65187853Y-28057909D01*
X65187853Y-28057909D02*
X65140234Y-28153147D01*
X65140234Y-28153147D02*
X65092615Y-28343623D01*
X65092615Y-28343623D02*
X65092615Y-28486480D01*
X65092615Y-28486480D02*
X65140234Y-28676956D01*
X65140234Y-28676956D02*
X65187853Y-28772194D01*
X65187853Y-28772194D02*
X65283091Y-28867433D01*
X65283091Y-28867433D02*
X65425948Y-28915052D01*
X65425948Y-28915052D02*
X65664043Y-28915052D01*
X64759281Y-27915052D02*
X64140234Y-27915052D01*
X64140234Y-27915052D02*
X64473567Y-28296004D01*
X64473567Y-28296004D02*
X64330710Y-28296004D01*
X64330710Y-28296004D02*
X64235472Y-28343623D01*
X64235472Y-28343623D02*
X64187853Y-28391242D01*
X64187853Y-28391242D02*
X64140234Y-28486480D01*
X64140234Y-28486480D02*
X64140234Y-28724575D01*
X64140234Y-28724575D02*
X64187853Y-28819813D01*
X64187853Y-28819813D02*
X64235472Y-28867433D01*
X64235472Y-28867433D02*
X64330710Y-28915052D01*
X64330710Y-28915052D02*
X64616424Y-28915052D01*
X64616424Y-28915052D02*
X64711662Y-28867433D01*
X64711662Y-28867433D02*
X64759281Y-28819813D01*
X218540618Y-67015148D02*
X218540618Y-66015148D01*
X218540618Y-66015148D02*
X218302523Y-66015148D01*
X218302523Y-66015148D02*
X218159666Y-66062767D01*
X218159666Y-66062767D02*
X218064428Y-66158005D01*
X218064428Y-66158005D02*
X218016809Y-66253243D01*
X218016809Y-66253243D02*
X217969190Y-66443719D01*
X217969190Y-66443719D02*
X217969190Y-66586576D01*
X217969190Y-66586576D02*
X218016809Y-66777052D01*
X218016809Y-66777052D02*
X218064428Y-66872290D01*
X218064428Y-66872290D02*
X218159666Y-66967529D01*
X218159666Y-66967529D02*
X218302523Y-67015148D01*
X218302523Y-67015148D02*
X218540618Y-67015148D01*
X217635856Y-66015148D02*
X217016809Y-66015148D01*
X217016809Y-66015148D02*
X217350142Y-66396100D01*
X217350142Y-66396100D02*
X217207285Y-66396100D01*
X217207285Y-66396100D02*
X217112047Y-66443719D01*
X217112047Y-66443719D02*
X217064428Y-66491338D01*
X217064428Y-66491338D02*
X217016809Y-66586576D01*
X217016809Y-66586576D02*
X217016809Y-66824671D01*
X217016809Y-66824671D02*
X217064428Y-66919909D01*
X217064428Y-66919909D02*
X217112047Y-66967529D01*
X217112047Y-66967529D02*
X217207285Y-67015148D01*
X217207285Y-67015148D02*
X217492999Y-67015148D01*
X217492999Y-67015148D02*
X217588237Y-66967529D01*
X217588237Y-66967529D02*
X217635856Y-66919909D01*
X216112047Y-66015148D02*
X216588237Y-66015148D01*
X216588237Y-66015148D02*
X216635856Y-66491338D01*
X216635856Y-66491338D02*
X216588237Y-66443719D01*
X216588237Y-66443719D02*
X216492999Y-66396100D01*
X216492999Y-66396100D02*
X216254904Y-66396100D01*
X216254904Y-66396100D02*
X216159666Y-66443719D01*
X216159666Y-66443719D02*
X216112047Y-66491338D01*
X216112047Y-66491338D02*
X216064428Y-66586576D01*
X216064428Y-66586576D02*
X216064428Y-66824671D01*
X216064428Y-66824671D02*
X216112047Y-66919909D01*
X216112047Y-66919909D02*
X216159666Y-66967529D01*
X216159666Y-66967529D02*
X216254904Y-67015148D01*
X216254904Y-67015148D02*
X216492999Y-67015148D01*
X216492999Y-67015148D02*
X216588237Y-66967529D01*
X216588237Y-66967529D02*
X216635856Y-66919909D01*
X141864235Y-28915052D02*
X141864235Y-27915052D01*
X141864235Y-27915052D02*
X141626140Y-27915052D01*
X141626140Y-27915052D02*
X141483283Y-27962671D01*
X141483283Y-27962671D02*
X141388045Y-28057909D01*
X141388045Y-28057909D02*
X141340426Y-28153147D01*
X141340426Y-28153147D02*
X141292807Y-28343623D01*
X141292807Y-28343623D02*
X141292807Y-28486480D01*
X141292807Y-28486480D02*
X141340426Y-28676956D01*
X141340426Y-28676956D02*
X141388045Y-28772194D01*
X141388045Y-28772194D02*
X141483283Y-28867433D01*
X141483283Y-28867433D02*
X141626140Y-28915052D01*
X141626140Y-28915052D02*
X141864235Y-28915052D01*
X140959473Y-27915052D02*
X140292807Y-27915052D01*
X140292807Y-27915052D02*
X140721378Y-28915052D01*
X28003415Y-67015148D02*
X28003415Y-66015148D01*
X28003415Y-66015148D02*
X27765320Y-66015148D01*
X27765320Y-66015148D02*
X27622463Y-66062767D01*
X27622463Y-66062767D02*
X27527225Y-66158005D01*
X27527225Y-66158005D02*
X27479606Y-66253243D01*
X27479606Y-66253243D02*
X27431987Y-66443719D01*
X27431987Y-66443719D02*
X27431987Y-66586576D01*
X27431987Y-66586576D02*
X27479606Y-66777052D01*
X27479606Y-66777052D02*
X27527225Y-66872290D01*
X27527225Y-66872290D02*
X27622463Y-66967529D01*
X27622463Y-66967529D02*
X27765320Y-67015148D01*
X27765320Y-67015148D02*
X28003415Y-67015148D01*
X27051034Y-66110386D02*
X27003415Y-66062767D01*
X27003415Y-66062767D02*
X26908177Y-66015148D01*
X26908177Y-66015148D02*
X26670082Y-66015148D01*
X26670082Y-66015148D02*
X26574844Y-66062767D01*
X26574844Y-66062767D02*
X26527225Y-66110386D01*
X26527225Y-66110386D02*
X26479606Y-66205624D01*
X26479606Y-66205624D02*
X26479606Y-66300862D01*
X26479606Y-66300862D02*
X26527225Y-66443719D01*
X26527225Y-66443719D02*
X27098653Y-67015148D01*
X27098653Y-67015148D02*
X26479606Y-67015148D01*
X25574844Y-66015148D02*
X26051034Y-66015148D01*
X26051034Y-66015148D02*
X26098653Y-66491338D01*
X26098653Y-66491338D02*
X26051034Y-66443719D01*
X26051034Y-66443719D02*
X25955796Y-66396100D01*
X25955796Y-66396100D02*
X25717701Y-66396100D01*
X25717701Y-66396100D02*
X25622463Y-66443719D01*
X25622463Y-66443719D02*
X25574844Y-66491338D01*
X25574844Y-66491338D02*
X25527225Y-66586576D01*
X25527225Y-66586576D02*
X25527225Y-66824671D01*
X25527225Y-66824671D02*
X25574844Y-66919909D01*
X25574844Y-66919909D02*
X25622463Y-66967529D01*
X25622463Y-66967529D02*
X25717701Y-67015148D01*
X25717701Y-67015148D02*
X25955796Y-67015148D01*
X25955796Y-67015148D02*
X26051034Y-66967529D01*
X26051034Y-66967529D02*
X26098653Y-66919909D01*
X161390474Y-47965100D02*
X161390474Y-46965100D01*
X161390474Y-46965100D02*
X161152379Y-46965100D01*
X161152379Y-46965100D02*
X161009522Y-47012719D01*
X161009522Y-47012719D02*
X160914284Y-47107957D01*
X160914284Y-47107957D02*
X160866665Y-47203195D01*
X160866665Y-47203195D02*
X160819046Y-47393671D01*
X160819046Y-47393671D02*
X160819046Y-47536528D01*
X160819046Y-47536528D02*
X160866665Y-47727004D01*
X160866665Y-47727004D02*
X160914284Y-47822242D01*
X160914284Y-47822242D02*
X161009522Y-47917481D01*
X161009522Y-47917481D02*
X161152379Y-47965100D01*
X161152379Y-47965100D02*
X161390474Y-47965100D01*
X160438093Y-47060338D02*
X160390474Y-47012719D01*
X160390474Y-47012719D02*
X160295236Y-46965100D01*
X160295236Y-46965100D02*
X160057141Y-46965100D01*
X160057141Y-46965100D02*
X159961903Y-47012719D01*
X159961903Y-47012719D02*
X159914284Y-47060338D01*
X159914284Y-47060338D02*
X159866665Y-47155576D01*
X159866665Y-47155576D02*
X159866665Y-47250814D01*
X159866665Y-47250814D02*
X159914284Y-47393671D01*
X159914284Y-47393671D02*
X160485712Y-47965100D01*
X160485712Y-47965100D02*
X159866665Y-47965100D01*
X159247617Y-46965100D02*
X159152379Y-46965100D01*
X159152379Y-46965100D02*
X159057141Y-47012719D01*
X159057141Y-47012719D02*
X159009522Y-47060338D01*
X159009522Y-47060338D02*
X158961903Y-47155576D01*
X158961903Y-47155576D02*
X158914284Y-47346052D01*
X158914284Y-47346052D02*
X158914284Y-47584147D01*
X158914284Y-47584147D02*
X158961903Y-47774623D01*
X158961903Y-47774623D02*
X159009522Y-47869861D01*
X159009522Y-47869861D02*
X159057141Y-47917481D01*
X159057141Y-47917481D02*
X159152379Y-47965100D01*
X159152379Y-47965100D02*
X159247617Y-47965100D01*
X159247617Y-47965100D02*
X159342855Y-47917481D01*
X159342855Y-47917481D02*
X159390474Y-47869861D01*
X159390474Y-47869861D02*
X159438093Y-47774623D01*
X159438093Y-47774623D02*
X159485712Y-47584147D01*
X159485712Y-47584147D02*
X159485712Y-47346052D01*
X159485712Y-47346052D02*
X159438093Y-47155576D01*
X159438093Y-47155576D02*
X159390474Y-47060338D01*
X159390474Y-47060338D02*
X159342855Y-47012719D01*
X159342855Y-47012719D02*
X159247617Y-46965100D01*
X123253655Y-67015148D02*
X123253655Y-66015148D01*
X123253655Y-66015148D02*
X123015560Y-66015148D01*
X123015560Y-66015148D02*
X122872703Y-66062767D01*
X122872703Y-66062767D02*
X122777465Y-66158005D01*
X122777465Y-66158005D02*
X122729846Y-66253243D01*
X122729846Y-66253243D02*
X122682227Y-66443719D01*
X122682227Y-66443719D02*
X122682227Y-66586576D01*
X122682227Y-66586576D02*
X122729846Y-66777052D01*
X122729846Y-66777052D02*
X122777465Y-66872290D01*
X122777465Y-66872290D02*
X122872703Y-66967529D01*
X122872703Y-66967529D02*
X123015560Y-67015148D01*
X123015560Y-67015148D02*
X123253655Y-67015148D01*
X122348893Y-66015148D02*
X121729846Y-66015148D01*
X121729846Y-66015148D02*
X122063179Y-66396100D01*
X122063179Y-66396100D02*
X121920322Y-66396100D01*
X121920322Y-66396100D02*
X121825084Y-66443719D01*
X121825084Y-66443719D02*
X121777465Y-66491338D01*
X121777465Y-66491338D02*
X121729846Y-66586576D01*
X121729846Y-66586576D02*
X121729846Y-66824671D01*
X121729846Y-66824671D02*
X121777465Y-66919909D01*
X121777465Y-66919909D02*
X121825084Y-66967529D01*
X121825084Y-66967529D02*
X121920322Y-67015148D01*
X121920322Y-67015148D02*
X122206036Y-67015148D01*
X122206036Y-67015148D02*
X122301274Y-66967529D01*
X122301274Y-66967529D02*
X122348893Y-66919909D01*
X121110798Y-66015148D02*
X121015560Y-66015148D01*
X121015560Y-66015148D02*
X120920322Y-66062767D01*
X120920322Y-66062767D02*
X120872703Y-66110386D01*
X120872703Y-66110386D02*
X120825084Y-66205624D01*
X120825084Y-66205624D02*
X120777465Y-66396100D01*
X120777465Y-66396100D02*
X120777465Y-66634195D01*
X120777465Y-66634195D02*
X120825084Y-66824671D01*
X120825084Y-66824671D02*
X120872703Y-66919909D01*
X120872703Y-66919909D02*
X120920322Y-66967529D01*
X120920322Y-66967529D02*
X121015560Y-67015148D01*
X121015560Y-67015148D02*
X121110798Y-67015148D01*
X121110798Y-67015148D02*
X121206036Y-66967529D01*
X121206036Y-66967529D02*
X121253655Y-66919909D01*
X121253655Y-66919909D02*
X121301274Y-66824671D01*
X121301274Y-66824671D02*
X121348893Y-66634195D01*
X121348893Y-66634195D02*
X121348893Y-66396100D01*
X121348893Y-66396100D02*
X121301274Y-66205624D01*
X121301274Y-66205624D02*
X121253655Y-66110386D01*
X121253655Y-66110386D02*
X121206036Y-66062767D01*
X121206036Y-66062767D02*
X121110798Y-66015148D01*
X179927608Y-28915052D02*
X179927608Y-27915052D01*
X179927608Y-27915052D02*
X179689513Y-27915052D01*
X179689513Y-27915052D02*
X179546656Y-27962671D01*
X179546656Y-27962671D02*
X179451418Y-28057909D01*
X179451418Y-28057909D02*
X179403799Y-28153147D01*
X179403799Y-28153147D02*
X179356180Y-28343623D01*
X179356180Y-28343623D02*
X179356180Y-28486480D01*
X179356180Y-28486480D02*
X179403799Y-28676956D01*
X179403799Y-28676956D02*
X179451418Y-28772194D01*
X179451418Y-28772194D02*
X179546656Y-28867433D01*
X179546656Y-28867433D02*
X179689513Y-28915052D01*
X179689513Y-28915052D02*
X179927608Y-28915052D01*
X178879989Y-28915052D02*
X178689513Y-28915052D01*
X178689513Y-28915052D02*
X178594275Y-28867433D01*
X178594275Y-28867433D02*
X178546656Y-28819813D01*
X178546656Y-28819813D02*
X178451418Y-28676956D01*
X178451418Y-28676956D02*
X178403799Y-28486480D01*
X178403799Y-28486480D02*
X178403799Y-28105528D01*
X178403799Y-28105528D02*
X178451418Y-28010290D01*
X178451418Y-28010290D02*
X178499037Y-27962671D01*
X178499037Y-27962671D02*
X178594275Y-27915052D01*
X178594275Y-27915052D02*
X178784751Y-27915052D01*
X178784751Y-27915052D02*
X178879989Y-27962671D01*
X178879989Y-27962671D02*
X178927608Y-28010290D01*
X178927608Y-28010290D02*
X178975227Y-28105528D01*
X178975227Y-28105528D02*
X178975227Y-28343623D01*
X178975227Y-28343623D02*
X178927608Y-28438861D01*
X178927608Y-28438861D02*
X178879989Y-28486480D01*
X178879989Y-28486480D02*
X178784751Y-28534099D01*
X178784751Y-28534099D02*
X178594275Y-28534099D01*
X178594275Y-28534099D02*
X178499037Y-28486480D01*
X178499037Y-28486480D02*
X178451418Y-28438861D01*
X178451418Y-28438861D02*
X178403799Y-28343623D01*
X85153559Y-47965100D02*
X85153559Y-46965100D01*
X85153559Y-46965100D02*
X84915464Y-46965100D01*
X84915464Y-46965100D02*
X84772607Y-47012719D01*
X84772607Y-47012719D02*
X84677369Y-47107957D01*
X84677369Y-47107957D02*
X84629750Y-47203195D01*
X84629750Y-47203195D02*
X84582131Y-47393671D01*
X84582131Y-47393671D02*
X84582131Y-47536528D01*
X84582131Y-47536528D02*
X84629750Y-47727004D01*
X84629750Y-47727004D02*
X84677369Y-47822242D01*
X84677369Y-47822242D02*
X84772607Y-47917481D01*
X84772607Y-47917481D02*
X84915464Y-47965100D01*
X84915464Y-47965100D02*
X85153559Y-47965100D01*
X83629750Y-47965100D02*
X84201178Y-47965100D01*
X83915464Y-47965100D02*
X83915464Y-46965100D01*
X83915464Y-46965100D02*
X84010702Y-47107957D01*
X84010702Y-47107957D02*
X84105940Y-47203195D01*
X84105940Y-47203195D02*
X84201178Y-47250814D01*
X82772607Y-46965100D02*
X82963083Y-46965100D01*
X82963083Y-46965100D02*
X83058321Y-47012719D01*
X83058321Y-47012719D02*
X83105940Y-47060338D01*
X83105940Y-47060338D02*
X83201178Y-47203195D01*
X83201178Y-47203195D02*
X83248797Y-47393671D01*
X83248797Y-47393671D02*
X83248797Y-47774623D01*
X83248797Y-47774623D02*
X83201178Y-47869861D01*
X83201178Y-47869861D02*
X83153559Y-47917481D01*
X83153559Y-47917481D02*
X83058321Y-47965100D01*
X83058321Y-47965100D02*
X82867845Y-47965100D01*
X82867845Y-47965100D02*
X82772607Y-47917481D01*
X82772607Y-47917481D02*
X82724988Y-47869861D01*
X82724988Y-47869861D02*
X82677369Y-47774623D01*
X82677369Y-47774623D02*
X82677369Y-47536528D01*
X82677369Y-47536528D02*
X82724988Y-47441290D01*
X82724988Y-47441290D02*
X82772607Y-47393671D01*
X82772607Y-47393671D02*
X82867845Y-47346052D01*
X82867845Y-47346052D02*
X83058321Y-47346052D01*
X83058321Y-47346052D02*
X83153559Y-47393671D01*
X83153559Y-47393671D02*
X83201178Y-47441290D01*
X83201178Y-47441290D02*
X83248797Y-47536528D01*
X123352874Y-47965100D02*
X123352874Y-46965100D01*
X123352874Y-46965100D02*
X123114779Y-46965100D01*
X123114779Y-46965100D02*
X122971922Y-47012719D01*
X122971922Y-47012719D02*
X122876684Y-47107957D01*
X122876684Y-47107957D02*
X122829065Y-47203195D01*
X122829065Y-47203195D02*
X122781446Y-47393671D01*
X122781446Y-47393671D02*
X122781446Y-47536528D01*
X122781446Y-47536528D02*
X122829065Y-47727004D01*
X122829065Y-47727004D02*
X122876684Y-47822242D01*
X122876684Y-47822242D02*
X122971922Y-47917481D01*
X122971922Y-47917481D02*
X123114779Y-47965100D01*
X123114779Y-47965100D02*
X123352874Y-47965100D01*
X121829065Y-47965100D02*
X122400493Y-47965100D01*
X122114779Y-47965100D02*
X122114779Y-46965100D01*
X122114779Y-46965100D02*
X122210017Y-47107957D01*
X122210017Y-47107957D02*
X122305255Y-47203195D01*
X122305255Y-47203195D02*
X122400493Y-47250814D01*
X121257636Y-47393671D02*
X121352874Y-47346052D01*
X121352874Y-47346052D02*
X121400493Y-47298433D01*
X121400493Y-47298433D02*
X121448112Y-47203195D01*
X121448112Y-47203195D02*
X121448112Y-47155576D01*
X121448112Y-47155576D02*
X121400493Y-47060338D01*
X121400493Y-47060338D02*
X121352874Y-47012719D01*
X121352874Y-47012719D02*
X121257636Y-46965100D01*
X121257636Y-46965100D02*
X121067160Y-46965100D01*
X121067160Y-46965100D02*
X120971922Y-47012719D01*
X120971922Y-47012719D02*
X120924303Y-47060338D01*
X120924303Y-47060338D02*
X120876684Y-47155576D01*
X120876684Y-47155576D02*
X120876684Y-47203195D01*
X120876684Y-47203195D02*
X120924303Y-47298433D01*
X120924303Y-47298433D02*
X120971922Y-47346052D01*
X120971922Y-47346052D02*
X121067160Y-47393671D01*
X121067160Y-47393671D02*
X121257636Y-47393671D01*
X121257636Y-47393671D02*
X121352874Y-47441290D01*
X121352874Y-47441290D02*
X121400493Y-47488909D01*
X121400493Y-47488909D02*
X121448112Y-47584147D01*
X121448112Y-47584147D02*
X121448112Y-47774623D01*
X121448112Y-47774623D02*
X121400493Y-47869861D01*
X121400493Y-47869861D02*
X121352874Y-47917481D01*
X121352874Y-47917481D02*
X121257636Y-47965100D01*
X121257636Y-47965100D02*
X121067160Y-47965100D01*
X121067160Y-47965100D02*
X120971922Y-47917481D01*
X120971922Y-47917481D02*
X120924303Y-47869861D01*
X120924303Y-47869861D02*
X120876684Y-47774623D01*
X120876684Y-47774623D02*
X120876684Y-47584147D01*
X120876684Y-47584147D02*
X120924303Y-47488909D01*
X120924303Y-47488909D02*
X120971922Y-47441290D01*
X120971922Y-47441290D02*
X121067160Y-47393671D01*
X103826635Y-28915052D02*
X103826635Y-27915052D01*
X103826635Y-27915052D02*
X103588540Y-27915052D01*
X103588540Y-27915052D02*
X103445683Y-27962671D01*
X103445683Y-27962671D02*
X103350445Y-28057909D01*
X103350445Y-28057909D02*
X103302826Y-28153147D01*
X103302826Y-28153147D02*
X103255207Y-28343623D01*
X103255207Y-28343623D02*
X103255207Y-28486480D01*
X103255207Y-28486480D02*
X103302826Y-28676956D01*
X103302826Y-28676956D02*
X103350445Y-28772194D01*
X103350445Y-28772194D02*
X103445683Y-28867433D01*
X103445683Y-28867433D02*
X103588540Y-28915052D01*
X103588540Y-28915052D02*
X103826635Y-28915052D01*
X102350445Y-27915052D02*
X102826635Y-27915052D01*
X102826635Y-27915052D02*
X102874254Y-28391242D01*
X102874254Y-28391242D02*
X102826635Y-28343623D01*
X102826635Y-28343623D02*
X102731397Y-28296004D01*
X102731397Y-28296004D02*
X102493302Y-28296004D01*
X102493302Y-28296004D02*
X102398064Y-28343623D01*
X102398064Y-28343623D02*
X102350445Y-28391242D01*
X102350445Y-28391242D02*
X102302826Y-28486480D01*
X102302826Y-28486480D02*
X102302826Y-28724575D01*
X102302826Y-28724575D02*
X102350445Y-28819813D01*
X102350445Y-28819813D02*
X102398064Y-28867433D01*
X102398064Y-28867433D02*
X102493302Y-28915052D01*
X102493302Y-28915052D02*
X102731397Y-28915052D01*
X102731397Y-28915052D02*
X102826635Y-28867433D01*
X102826635Y-28867433D02*
X102874254Y-28819813D01*
X47053463Y-47965100D02*
X47053463Y-46965100D01*
X47053463Y-46965100D02*
X46815368Y-46965100D01*
X46815368Y-46965100D02*
X46672511Y-47012719D01*
X46672511Y-47012719D02*
X46577273Y-47107957D01*
X46577273Y-47107957D02*
X46529654Y-47203195D01*
X46529654Y-47203195D02*
X46482035Y-47393671D01*
X46482035Y-47393671D02*
X46482035Y-47536528D01*
X46482035Y-47536528D02*
X46529654Y-47727004D01*
X46529654Y-47727004D02*
X46577273Y-47822242D01*
X46577273Y-47822242D02*
X46672511Y-47917481D01*
X46672511Y-47917481D02*
X46815368Y-47965100D01*
X46815368Y-47965100D02*
X47053463Y-47965100D01*
X45529654Y-47965100D02*
X46101082Y-47965100D01*
X45815368Y-47965100D02*
X45815368Y-46965100D01*
X45815368Y-46965100D02*
X45910606Y-47107957D01*
X45910606Y-47107957D02*
X46005844Y-47203195D01*
X46005844Y-47203195D02*
X46101082Y-47250814D01*
X44672511Y-47298433D02*
X44672511Y-47965100D01*
X44910606Y-46917481D02*
X45148701Y-47631766D01*
X45148701Y-47631766D02*
X44529654Y-47631766D01*
X237590666Y-47965100D02*
X237590666Y-46965100D01*
X237590666Y-46965100D02*
X237352571Y-46965100D01*
X237352571Y-46965100D02*
X237209714Y-47012719D01*
X237209714Y-47012719D02*
X237114476Y-47107957D01*
X237114476Y-47107957D02*
X237066857Y-47203195D01*
X237066857Y-47203195D02*
X237019238Y-47393671D01*
X237019238Y-47393671D02*
X237019238Y-47536528D01*
X237019238Y-47536528D02*
X237066857Y-47727004D01*
X237066857Y-47727004D02*
X237114476Y-47822242D01*
X237114476Y-47822242D02*
X237209714Y-47917481D01*
X237209714Y-47917481D02*
X237352571Y-47965100D01*
X237352571Y-47965100D02*
X237590666Y-47965100D01*
X236638285Y-47060338D02*
X236590666Y-47012719D01*
X236590666Y-47012719D02*
X236495428Y-46965100D01*
X236495428Y-46965100D02*
X236257333Y-46965100D01*
X236257333Y-46965100D02*
X236162095Y-47012719D01*
X236162095Y-47012719D02*
X236114476Y-47060338D01*
X236114476Y-47060338D02*
X236066857Y-47155576D01*
X236066857Y-47155576D02*
X236066857Y-47250814D01*
X236066857Y-47250814D02*
X236114476Y-47393671D01*
X236114476Y-47393671D02*
X236685904Y-47965100D01*
X236685904Y-47965100D02*
X236066857Y-47965100D01*
X235209714Y-47298433D02*
X235209714Y-47965100D01*
X235447809Y-46917481D02*
X235685904Y-47631766D01*
X235685904Y-47631766D02*
X235066857Y-47631766D01*
X46639768Y-28915052D02*
X46639768Y-27915052D01*
X46639768Y-27915052D02*
X46401673Y-27915052D01*
X46401673Y-27915052D02*
X46258816Y-27962671D01*
X46258816Y-27962671D02*
X46163578Y-28057909D01*
X46163578Y-28057909D02*
X46115959Y-28153147D01*
X46115959Y-28153147D02*
X46068340Y-28343623D01*
X46068340Y-28343623D02*
X46068340Y-28486480D01*
X46068340Y-28486480D02*
X46115959Y-28676956D01*
X46115959Y-28676956D02*
X46163578Y-28772194D01*
X46163578Y-28772194D02*
X46258816Y-28867433D01*
X46258816Y-28867433D02*
X46401673Y-28915052D01*
X46401673Y-28915052D02*
X46639768Y-28915052D01*
X45687387Y-28010290D02*
X45639768Y-27962671D01*
X45639768Y-27962671D02*
X45544530Y-27915052D01*
X45544530Y-27915052D02*
X45306435Y-27915052D01*
X45306435Y-27915052D02*
X45211197Y-27962671D01*
X45211197Y-27962671D02*
X45163578Y-28010290D01*
X45163578Y-28010290D02*
X45115959Y-28105528D01*
X45115959Y-28105528D02*
X45115959Y-28200766D01*
X45115959Y-28200766D02*
X45163578Y-28343623D01*
X45163578Y-28343623D02*
X45735006Y-28915052D01*
X45735006Y-28915052D02*
X45115959Y-28915052D01*
X237590666Y-67015148D02*
X237590666Y-66015148D01*
X237590666Y-66015148D02*
X237352571Y-66015148D01*
X237352571Y-66015148D02*
X237209714Y-66062767D01*
X237209714Y-66062767D02*
X237114476Y-66158005D01*
X237114476Y-66158005D02*
X237066857Y-66253243D01*
X237066857Y-66253243D02*
X237019238Y-66443719D01*
X237019238Y-66443719D02*
X237019238Y-66586576D01*
X237019238Y-66586576D02*
X237066857Y-66777052D01*
X237066857Y-66777052D02*
X237114476Y-66872290D01*
X237114476Y-66872290D02*
X237209714Y-66967529D01*
X237209714Y-66967529D02*
X237352571Y-67015148D01*
X237352571Y-67015148D02*
X237590666Y-67015148D01*
X236685904Y-66015148D02*
X236066857Y-66015148D01*
X236066857Y-66015148D02*
X236400190Y-66396100D01*
X236400190Y-66396100D02*
X236257333Y-66396100D01*
X236257333Y-66396100D02*
X236162095Y-66443719D01*
X236162095Y-66443719D02*
X236114476Y-66491338D01*
X236114476Y-66491338D02*
X236066857Y-66586576D01*
X236066857Y-66586576D02*
X236066857Y-66824671D01*
X236066857Y-66824671D02*
X236114476Y-66919909D01*
X236114476Y-66919909D02*
X236162095Y-66967529D01*
X236162095Y-66967529D02*
X236257333Y-67015148D01*
X236257333Y-67015148D02*
X236543047Y-67015148D01*
X236543047Y-67015148D02*
X236638285Y-66967529D01*
X236638285Y-66967529D02*
X236685904Y-66919909D01*
X235209714Y-66015148D02*
X235400190Y-66015148D01*
X235400190Y-66015148D02*
X235495428Y-66062767D01*
X235495428Y-66062767D02*
X235543047Y-66110386D01*
X235543047Y-66110386D02*
X235638285Y-66253243D01*
X235638285Y-66253243D02*
X235685904Y-66443719D01*
X235685904Y-66443719D02*
X235685904Y-66824671D01*
X235685904Y-66824671D02*
X235638285Y-66919909D01*
X235638285Y-66919909D02*
X235590666Y-66967529D01*
X235590666Y-66967529D02*
X235495428Y-67015148D01*
X235495428Y-67015148D02*
X235304952Y-67015148D01*
X235304952Y-67015148D02*
X235209714Y-66967529D01*
X235209714Y-66967529D02*
X235162095Y-66919909D01*
X235162095Y-66919909D02*
X235114476Y-66824671D01*
X235114476Y-66824671D02*
X235114476Y-66586576D01*
X235114476Y-66586576D02*
X235162095Y-66491338D01*
X235162095Y-66491338D02*
X235209714Y-66443719D01*
X235209714Y-66443719D02*
X235304952Y-66396100D01*
X235304952Y-66396100D02*
X235495428Y-66396100D01*
X235495428Y-66396100D02*
X235590666Y-66443719D01*
X235590666Y-66443719D02*
X235638285Y-66491338D01*
X235638285Y-66491338D02*
X235685904Y-66586576D01*
X199490570Y-47965100D02*
X199490570Y-46965100D01*
X199490570Y-46965100D02*
X199252475Y-46965100D01*
X199252475Y-46965100D02*
X199109618Y-47012719D01*
X199109618Y-47012719D02*
X199014380Y-47107957D01*
X199014380Y-47107957D02*
X198966761Y-47203195D01*
X198966761Y-47203195D02*
X198919142Y-47393671D01*
X198919142Y-47393671D02*
X198919142Y-47536528D01*
X198919142Y-47536528D02*
X198966761Y-47727004D01*
X198966761Y-47727004D02*
X199014380Y-47822242D01*
X199014380Y-47822242D02*
X199109618Y-47917481D01*
X199109618Y-47917481D02*
X199252475Y-47965100D01*
X199252475Y-47965100D02*
X199490570Y-47965100D01*
X198538189Y-47060338D02*
X198490570Y-47012719D01*
X198490570Y-47012719D02*
X198395332Y-46965100D01*
X198395332Y-46965100D02*
X198157237Y-46965100D01*
X198157237Y-46965100D02*
X198061999Y-47012719D01*
X198061999Y-47012719D02*
X198014380Y-47060338D01*
X198014380Y-47060338D02*
X197966761Y-47155576D01*
X197966761Y-47155576D02*
X197966761Y-47250814D01*
X197966761Y-47250814D02*
X198014380Y-47393671D01*
X198014380Y-47393671D02*
X198585808Y-47965100D01*
X198585808Y-47965100D02*
X197966761Y-47965100D01*
X197585808Y-47060338D02*
X197538189Y-47012719D01*
X197538189Y-47012719D02*
X197442951Y-46965100D01*
X197442951Y-46965100D02*
X197204856Y-46965100D01*
X197204856Y-46965100D02*
X197109618Y-47012719D01*
X197109618Y-47012719D02*
X197061999Y-47060338D01*
X197061999Y-47060338D02*
X197014380Y-47155576D01*
X197014380Y-47155576D02*
X197014380Y-47250814D01*
X197014380Y-47250814D02*
X197061999Y-47393671D01*
X197061999Y-47393671D02*
X197633427Y-47965100D01*
X197633427Y-47965100D02*
X197014380Y-47965100D01*
X161353751Y-67015148D02*
X161353751Y-66015148D01*
X161353751Y-66015148D02*
X161115656Y-66015148D01*
X161115656Y-66015148D02*
X160972799Y-66062767D01*
X160972799Y-66062767D02*
X160877561Y-66158005D01*
X160877561Y-66158005D02*
X160829942Y-66253243D01*
X160829942Y-66253243D02*
X160782323Y-66443719D01*
X160782323Y-66443719D02*
X160782323Y-66586576D01*
X160782323Y-66586576D02*
X160829942Y-66777052D01*
X160829942Y-66777052D02*
X160877561Y-66872290D01*
X160877561Y-66872290D02*
X160972799Y-66967529D01*
X160972799Y-66967529D02*
X161115656Y-67015148D01*
X161115656Y-67015148D02*
X161353751Y-67015148D01*
X160448989Y-66015148D02*
X159829942Y-66015148D01*
X159829942Y-66015148D02*
X160163275Y-66396100D01*
X160163275Y-66396100D02*
X160020418Y-66396100D01*
X160020418Y-66396100D02*
X159925180Y-66443719D01*
X159925180Y-66443719D02*
X159877561Y-66491338D01*
X159877561Y-66491338D02*
X159829942Y-66586576D01*
X159829942Y-66586576D02*
X159829942Y-66824671D01*
X159829942Y-66824671D02*
X159877561Y-66919909D01*
X159877561Y-66919909D02*
X159925180Y-66967529D01*
X159925180Y-66967529D02*
X160020418Y-67015148D01*
X160020418Y-67015148D02*
X160306132Y-67015148D01*
X160306132Y-67015148D02*
X160401370Y-66967529D01*
X160401370Y-66967529D02*
X160448989Y-66919909D01*
X159448989Y-66110386D02*
X159401370Y-66062767D01*
X159401370Y-66062767D02*
X159306132Y-66015148D01*
X159306132Y-66015148D02*
X159068037Y-66015148D01*
X159068037Y-66015148D02*
X158972799Y-66062767D01*
X158972799Y-66062767D02*
X158925180Y-66110386D01*
X158925180Y-66110386D02*
X158877561Y-66205624D01*
X158877561Y-66205624D02*
X158877561Y-66300862D01*
X158877561Y-66300862D02*
X158925180Y-66443719D01*
X158925180Y-66443719D02*
X159496608Y-67015148D01*
X159496608Y-67015148D02*
X158877561Y-67015148D01*
X47053463Y-67015148D02*
X47053463Y-66015148D01*
X47053463Y-66015148D02*
X46815368Y-66015148D01*
X46815368Y-66015148D02*
X46672511Y-66062767D01*
X46672511Y-66062767D02*
X46577273Y-66158005D01*
X46577273Y-66158005D02*
X46529654Y-66253243D01*
X46529654Y-66253243D02*
X46482035Y-66443719D01*
X46482035Y-66443719D02*
X46482035Y-66586576D01*
X46482035Y-66586576D02*
X46529654Y-66777052D01*
X46529654Y-66777052D02*
X46577273Y-66872290D01*
X46577273Y-66872290D02*
X46672511Y-66967529D01*
X46672511Y-66967529D02*
X46815368Y-67015148D01*
X46815368Y-67015148D02*
X47053463Y-67015148D01*
X46101082Y-66110386D02*
X46053463Y-66062767D01*
X46053463Y-66062767D02*
X45958225Y-66015148D01*
X45958225Y-66015148D02*
X45720130Y-66015148D01*
X45720130Y-66015148D02*
X45624892Y-66062767D01*
X45624892Y-66062767D02*
X45577273Y-66110386D01*
X45577273Y-66110386D02*
X45529654Y-66205624D01*
X45529654Y-66205624D02*
X45529654Y-66300862D01*
X45529654Y-66300862D02*
X45577273Y-66443719D01*
X45577273Y-66443719D02*
X46148701Y-67015148D01*
X46148701Y-67015148D02*
X45529654Y-67015148D01*
X44672511Y-66015148D02*
X44862987Y-66015148D01*
X44862987Y-66015148D02*
X44958225Y-66062767D01*
X44958225Y-66062767D02*
X45005844Y-66110386D01*
X45005844Y-66110386D02*
X45101082Y-66253243D01*
X45101082Y-66253243D02*
X45148701Y-66443719D01*
X45148701Y-66443719D02*
X45148701Y-66824671D01*
X45148701Y-66824671D02*
X45101082Y-66919909D01*
X45101082Y-66919909D02*
X45053463Y-66967529D01*
X45053463Y-66967529D02*
X44958225Y-67015148D01*
X44958225Y-67015148D02*
X44767749Y-67015148D01*
X44767749Y-67015148D02*
X44672511Y-66967529D01*
X44672511Y-66967529D02*
X44624892Y-66919909D01*
X44624892Y-66919909D02*
X44577273Y-66824671D01*
X44577273Y-66824671D02*
X44577273Y-66586576D01*
X44577273Y-66586576D02*
X44624892Y-66491338D01*
X44624892Y-66491338D02*
X44672511Y-66443719D01*
X44672511Y-66443719D02*
X44767749Y-66396100D01*
X44767749Y-66396100D02*
X44958225Y-66396100D01*
X44958225Y-66396100D02*
X45053463Y-66443719D01*
X45053463Y-66443719D02*
X45101082Y-66491338D01*
X45101082Y-66491338D02*
X45148701Y-66586576D01*
X199453847Y-67015148D02*
X199453847Y-66015148D01*
X199453847Y-66015148D02*
X199215752Y-66015148D01*
X199215752Y-66015148D02*
X199072895Y-66062767D01*
X199072895Y-66062767D02*
X198977657Y-66158005D01*
X198977657Y-66158005D02*
X198930038Y-66253243D01*
X198930038Y-66253243D02*
X198882419Y-66443719D01*
X198882419Y-66443719D02*
X198882419Y-66586576D01*
X198882419Y-66586576D02*
X198930038Y-66777052D01*
X198930038Y-66777052D02*
X198977657Y-66872290D01*
X198977657Y-66872290D02*
X199072895Y-66967529D01*
X199072895Y-66967529D02*
X199215752Y-67015148D01*
X199215752Y-67015148D02*
X199453847Y-67015148D01*
X198549085Y-66015148D02*
X197930038Y-66015148D01*
X197930038Y-66015148D02*
X198263371Y-66396100D01*
X198263371Y-66396100D02*
X198120514Y-66396100D01*
X198120514Y-66396100D02*
X198025276Y-66443719D01*
X198025276Y-66443719D02*
X197977657Y-66491338D01*
X197977657Y-66491338D02*
X197930038Y-66586576D01*
X197930038Y-66586576D02*
X197930038Y-66824671D01*
X197930038Y-66824671D02*
X197977657Y-66919909D01*
X197977657Y-66919909D02*
X198025276Y-66967529D01*
X198025276Y-66967529D02*
X198120514Y-67015148D01*
X198120514Y-67015148D02*
X198406228Y-67015148D01*
X198406228Y-67015148D02*
X198501466Y-66967529D01*
X198501466Y-66967529D02*
X198549085Y-66919909D01*
X197072895Y-66348481D02*
X197072895Y-67015148D01*
X197310990Y-65967529D02*
X197549085Y-66681814D01*
X197549085Y-66681814D02*
X196930038Y-66681814D01*
X218503895Y-47965100D02*
X218503895Y-46965100D01*
X218503895Y-46965100D02*
X218265800Y-46965100D01*
X218265800Y-46965100D02*
X218122943Y-47012719D01*
X218122943Y-47012719D02*
X218027705Y-47107957D01*
X218027705Y-47107957D02*
X217980086Y-47203195D01*
X217980086Y-47203195D02*
X217932467Y-47393671D01*
X217932467Y-47393671D02*
X217932467Y-47536528D01*
X217932467Y-47536528D02*
X217980086Y-47727004D01*
X217980086Y-47727004D02*
X218027705Y-47822242D01*
X218027705Y-47822242D02*
X218122943Y-47917481D01*
X218122943Y-47917481D02*
X218265800Y-47965100D01*
X218265800Y-47965100D02*
X218503895Y-47965100D01*
X217551514Y-47060338D02*
X217503895Y-47012719D01*
X217503895Y-47012719D02*
X217408657Y-46965100D01*
X217408657Y-46965100D02*
X217170562Y-46965100D01*
X217170562Y-46965100D02*
X217075324Y-47012719D01*
X217075324Y-47012719D02*
X217027705Y-47060338D01*
X217027705Y-47060338D02*
X216980086Y-47155576D01*
X216980086Y-47155576D02*
X216980086Y-47250814D01*
X216980086Y-47250814D02*
X217027705Y-47393671D01*
X217027705Y-47393671D02*
X217599133Y-47965100D01*
X217599133Y-47965100D02*
X216980086Y-47965100D01*
X216646752Y-46965100D02*
X216027705Y-46965100D01*
X216027705Y-46965100D02*
X216361038Y-47346052D01*
X216361038Y-47346052D02*
X216218181Y-47346052D01*
X216218181Y-47346052D02*
X216122943Y-47393671D01*
X216122943Y-47393671D02*
X216075324Y-47441290D01*
X216075324Y-47441290D02*
X216027705Y-47536528D01*
X216027705Y-47536528D02*
X216027705Y-47774623D01*
X216027705Y-47774623D02*
X216075324Y-47869861D01*
X216075324Y-47869861D02*
X216122943Y-47917481D01*
X216122943Y-47917481D02*
X216218181Y-47965100D01*
X216218181Y-47965100D02*
X216503895Y-47965100D01*
X216503895Y-47965100D02*
X216599133Y-47917481D01*
X216599133Y-47917481D02*
X216646752Y-47869861D01*
D11*
%TO.C,D27*%
X67249226Y-69560329D02*
X63239226Y-69560329D01*
X67249226Y-67560329D02*
X67249226Y-69560329D01*
X67249226Y-67560329D02*
X63239226Y-67560329D01*
%TO.C,D15*%
X67348445Y-50510281D02*
X63338445Y-50510281D01*
X67348445Y-48510281D02*
X67348445Y-50510281D01*
X67348445Y-48510281D02*
X63338445Y-48510281D01*
%TO.C,D12*%
X238637162Y-31460233D02*
X234627162Y-31460233D01*
X238637162Y-29460233D02*
X238637162Y-31460233D01*
X238637162Y-29460233D02*
X234627162Y-29460233D01*
%TO.C,D28*%
X86335997Y-69560329D02*
X82325997Y-69560329D01*
X86335997Y-67560329D02*
X86335997Y-69560329D01*
X86335997Y-67560329D02*
X82325997Y-67560329D01*
%TO.C,D19*%
X143449418Y-50510281D02*
X139439418Y-50510281D01*
X143449418Y-48510281D02*
X143449418Y-50510281D01*
X143449418Y-48510281D02*
X139439418Y-48510281D01*
%TO.C,D29*%
X105386045Y-69560329D02*
X101376045Y-69560329D01*
X105386045Y-67560329D02*
X105386045Y-69560329D01*
X105386045Y-67560329D02*
X101376045Y-67560329D01*
%TO.C,D13*%
X29211626Y-50510281D02*
X25201626Y-50510281D01*
X29211626Y-48510281D02*
X29211626Y-50510281D01*
X29211626Y-48510281D02*
X25201626Y-48510281D01*
%TO.C,D4*%
X86335997Y-31460233D02*
X82325997Y-31460233D01*
X86335997Y-29460233D02*
X86335997Y-31460233D01*
X86335997Y-29460233D02*
X82325997Y-29460233D01*
%TO.C,D17*%
X105448541Y-50510281D02*
X101438541Y-50510281D01*
X105448541Y-48510281D02*
X105448541Y-50510281D01*
X105448541Y-48510281D02*
X101438541Y-48510281D01*
%TO.C,D21*%
X181586237Y-50510281D02*
X177576237Y-50510281D01*
X181586237Y-48510281D02*
X181586237Y-50510281D01*
X181586237Y-48510281D02*
X177576237Y-48510281D01*
%TO.C,D8*%
X162536189Y-31460233D02*
X158526189Y-31460233D01*
X162536189Y-29460233D02*
X162536189Y-31460233D01*
X162536189Y-29460233D02*
X158526189Y-29460233D01*
%TO.C,D31*%
X143412695Y-69560329D02*
X139402695Y-69560329D01*
X143412695Y-67560329D02*
X143412695Y-69560329D01*
X143412695Y-67560329D02*
X139402695Y-67560329D01*
%TO.C,D6*%
X124436093Y-31460233D02*
X120426093Y-31460233D01*
X124436093Y-29460233D02*
X124436093Y-31460233D01*
X124436093Y-29460233D02*
X120426093Y-29460233D01*
%TO.C,D33*%
X181586237Y-69560329D02*
X177576237Y-69560329D01*
X181586237Y-67560329D02*
X181586237Y-69560329D01*
X181586237Y-67560329D02*
X177576237Y-67560329D01*
%TO.C,D11*%
X219686333Y-31460233D02*
X215676333Y-31460233D01*
X219686333Y-29460233D02*
X219686333Y-31460233D01*
X219686333Y-29460233D02*
X215676333Y-29460233D01*
%TO.C,D10*%
X200636285Y-31460233D02*
X196626285Y-31460233D01*
X200636285Y-29460233D02*
X200636285Y-31460233D01*
X200636285Y-29460233D02*
X196626285Y-29460233D01*
%TO.C,D1*%
X29149130Y-31460233D02*
X25139130Y-31460233D01*
X29149130Y-29460233D02*
X29149130Y-31460233D01*
X29149130Y-29460233D02*
X25139130Y-29460233D01*
%TO.C,D3*%
X67285949Y-31460233D02*
X63275949Y-31460233D01*
X67285949Y-29460233D02*
X67285949Y-31460233D01*
X67285949Y-29460233D02*
X63275949Y-29460233D01*
%TO.C,D35*%
X219686333Y-69560329D02*
X215676333Y-69560329D01*
X219686333Y-67560329D02*
X219686333Y-69560329D01*
X219686333Y-67560329D02*
X215676333Y-67560329D01*
%TO.C,D7*%
X143486141Y-31460233D02*
X139476141Y-31460233D01*
X143486141Y-29460233D02*
X143486141Y-31460233D01*
X143486141Y-29460233D02*
X139476141Y-29460233D01*
%TO.C,D25*%
X29149130Y-69560329D02*
X25139130Y-69560329D01*
X29149130Y-67560329D02*
X29149130Y-69560329D01*
X29149130Y-67560329D02*
X25139130Y-67560329D01*
%TO.C,D20*%
X162536189Y-50510281D02*
X158526189Y-50510281D01*
X162536189Y-48510281D02*
X162536189Y-50510281D01*
X162536189Y-48510281D02*
X158526189Y-48510281D01*
%TO.C,D30*%
X124399370Y-69560329D02*
X120389370Y-69560329D01*
X124399370Y-67560329D02*
X124399370Y-69560329D01*
X124399370Y-67560329D02*
X120389370Y-67560329D01*
%TO.C,D9*%
X181549514Y-31460233D02*
X177539514Y-31460233D01*
X181549514Y-29460233D02*
X181549514Y-31460233D01*
X181549514Y-29460233D02*
X177539514Y-29460233D01*
%TO.C,D16*%
X86299274Y-50510281D02*
X82289274Y-50510281D01*
X86299274Y-48510281D02*
X86299274Y-50510281D01*
X86299274Y-48510281D02*
X82289274Y-48510281D01*
%TO.C,D18*%
X124498589Y-50510281D02*
X120488589Y-50510281D01*
X124498589Y-48510281D02*
X124498589Y-50510281D01*
X124498589Y-48510281D02*
X120488589Y-48510281D01*
%TO.C,D5*%
X105448541Y-31460233D02*
X101438541Y-31460233D01*
X105448541Y-29460233D02*
X105448541Y-31460233D01*
X105448541Y-29460233D02*
X101438541Y-29460233D01*
%TO.C,D14*%
X48199178Y-50510281D02*
X44189178Y-50510281D01*
X48199178Y-48510281D02*
X48199178Y-50510281D01*
X48199178Y-48510281D02*
X44189178Y-48510281D01*
%TO.C,D24*%
X238736381Y-50510281D02*
X234726381Y-50510281D01*
X238736381Y-48510281D02*
X238736381Y-50510281D01*
X238736381Y-48510281D02*
X234726381Y-48510281D01*
%TO.C,D2*%
X48261674Y-31460233D02*
X44251674Y-31460233D01*
X48261674Y-29460233D02*
X48261674Y-31460233D01*
X48261674Y-29460233D02*
X44251674Y-29460233D01*
%TO.C,D36*%
X238736381Y-69560329D02*
X234726381Y-69560329D01*
X238736381Y-67560329D02*
X238736381Y-69560329D01*
X238736381Y-67560329D02*
X234726381Y-67560329D01*
%TO.C,D22*%
X200636285Y-50510281D02*
X196626285Y-50510281D01*
X200636285Y-48510281D02*
X200636285Y-50510281D01*
X200636285Y-48510281D02*
X196626285Y-48510281D01*
%TO.C,D32*%
X162499466Y-69560329D02*
X158489466Y-69560329D01*
X162499466Y-67560329D02*
X162499466Y-69560329D01*
X162499466Y-67560329D02*
X158489466Y-67560329D01*
%TO.C,D26*%
X48199178Y-69560329D02*
X44189178Y-69560329D01*
X48199178Y-67560329D02*
X48199178Y-69560329D01*
X48199178Y-67560329D02*
X44189178Y-67560329D01*
%TO.C,D34*%
X200599562Y-69560329D02*
X196589562Y-69560329D01*
X200599562Y-67560329D02*
X200599562Y-69560329D01*
X200599562Y-67560329D02*
X196589562Y-67560329D01*
%TO.C,D23*%
X219649610Y-50510281D02*
X215639610Y-50510281D01*
X219649610Y-48510281D02*
X219649610Y-50510281D01*
X219649610Y-48510281D02*
X215639610Y-48510281D01*
%TD*%
M02*
