%TF.GenerationSoftware,KiCad,Pcbnew,7.0.7*%
%TF.CreationDate,2023-09-15T12:25:31+10:00*%
%TF.ProjectId,fuckit,6675636b-6974-42e6-9b69-6361645f7063,rev?*%
%TF.SameCoordinates,Original*%
%TF.FileFunction,Paste,Bot*%
%TF.FilePolarity,Positive*%
%FSLAX46Y46*%
G04 Gerber Fmt 4.6, Leading zero omitted, Abs format (unit mm)*
G04 Created by KiCad (PCBNEW 7.0.7) date 2023-09-15 12:25:31*
%MOMM*%
%LPD*%
G01*
G04 APERTURE LIST*
G04 Aperture macros list*
%AMRoundRect*
0 Rectangle with rounded corners*
0 $1 Rounding radius*
0 $2 $3 $4 $5 $6 $7 $8 $9 X,Y pos of 4 corners*
0 Add a 4 corners polygon primitive as box body*
4,1,4,$2,$3,$4,$5,$6,$7,$8,$9,$2,$3,0*
0 Add four circle primitives for the rounded corners*
1,1,$1+$1,$2,$3*
1,1,$1+$1,$4,$5*
1,1,$1+$1,$6,$7*
1,1,$1+$1,$8,$9*
0 Add four rect primitives between the rounded corners*
20,1,$1+$1,$2,$3,$4,$5,0*
20,1,$1+$1,$4,$5,$6,$7,0*
20,1,$1+$1,$6,$7,$8,$9,0*
20,1,$1+$1,$8,$9,$2,$3,0*%
G04 Aperture macros list end*
%ADD10RoundRect,0.225000X0.225000X0.375000X-0.225000X0.375000X-0.225000X-0.375000X0.225000X-0.375000X0*%
G04 APERTURE END LIST*
D10*
%TO.C,D27*%
X66539226Y-68560329D03*
X63239226Y-68560329D03*
%TD*%
%TO.C,D15*%
X66638445Y-49510281D03*
X63338445Y-49510281D03*
%TD*%
%TO.C,D12*%
X237927162Y-30460233D03*
X234627162Y-30460233D03*
%TD*%
%TO.C,D28*%
X85625997Y-68560329D03*
X82325997Y-68560329D03*
%TD*%
%TO.C,D19*%
X142739418Y-49510281D03*
X139439418Y-49510281D03*
%TD*%
%TO.C,D29*%
X104676045Y-68560329D03*
X101376045Y-68560329D03*
%TD*%
%TO.C,D13*%
X28501626Y-49510281D03*
X25201626Y-49510281D03*
%TD*%
%TO.C,D4*%
X85625997Y-30460233D03*
X82325997Y-30460233D03*
%TD*%
%TO.C,D17*%
X104738541Y-49510281D03*
X101438541Y-49510281D03*
%TD*%
%TO.C,D21*%
X180876237Y-49510281D03*
X177576237Y-49510281D03*
%TD*%
%TO.C,D8*%
X161826189Y-30460233D03*
X158526189Y-30460233D03*
%TD*%
%TO.C,D31*%
X142702695Y-68560329D03*
X139402695Y-68560329D03*
%TD*%
%TO.C,D6*%
X123726093Y-30460233D03*
X120426093Y-30460233D03*
%TD*%
%TO.C,D33*%
X180876237Y-68560329D03*
X177576237Y-68560329D03*
%TD*%
%TO.C,D11*%
X218976333Y-30460233D03*
X215676333Y-30460233D03*
%TD*%
%TO.C,D10*%
X199926285Y-30460233D03*
X196626285Y-30460233D03*
%TD*%
%TO.C,D1*%
X28439130Y-30460233D03*
X25139130Y-30460233D03*
%TD*%
%TO.C,D3*%
X66575949Y-30460233D03*
X63275949Y-30460233D03*
%TD*%
%TO.C,D35*%
X218976333Y-68560329D03*
X215676333Y-68560329D03*
%TD*%
%TO.C,D7*%
X142776141Y-30460233D03*
X139476141Y-30460233D03*
%TD*%
%TO.C,D25*%
X28439130Y-68560329D03*
X25139130Y-68560329D03*
%TD*%
%TO.C,D20*%
X161826189Y-49510281D03*
X158526189Y-49510281D03*
%TD*%
%TO.C,D30*%
X123689370Y-68560329D03*
X120389370Y-68560329D03*
%TD*%
%TO.C,D9*%
X180839514Y-30460233D03*
X177539514Y-30460233D03*
%TD*%
%TO.C,D16*%
X85589274Y-49510281D03*
X82289274Y-49510281D03*
%TD*%
%TO.C,D18*%
X123788589Y-49510281D03*
X120488589Y-49510281D03*
%TD*%
%TO.C,D5*%
X104738541Y-30460233D03*
X101438541Y-30460233D03*
%TD*%
%TO.C,D14*%
X47489178Y-49510281D03*
X44189178Y-49510281D03*
%TD*%
%TO.C,D24*%
X238026381Y-49510281D03*
X234726381Y-49510281D03*
%TD*%
%TO.C,D2*%
X47551674Y-30460233D03*
X44251674Y-30460233D03*
%TD*%
%TO.C,D36*%
X238026381Y-68560329D03*
X234726381Y-68560329D03*
%TD*%
%TO.C,D22*%
X199926285Y-49510281D03*
X196626285Y-49510281D03*
%TD*%
%TO.C,D32*%
X161789466Y-68560329D03*
X158489466Y-68560329D03*
%TD*%
%TO.C,D26*%
X47489178Y-68560329D03*
X44189178Y-68560329D03*
%TD*%
%TO.C,D34*%
X199889562Y-68560329D03*
X196589562Y-68560329D03*
%TD*%
%TO.C,D23*%
X218939610Y-49510281D03*
X215639610Y-49510281D03*
%TD*%
M02*
